G04 #@! TF.GenerationSoftware,KiCad,Pcbnew,(5.1.0)-1*
G04 #@! TF.CreationDate,2019-07-07T19:09:18+02:00*
G04 #@! TF.ProjectId,dip_v1,6469705f-7631-42e6-9b69-6361645f7063,rev?*
G04 #@! TF.SameCoordinates,Original*
G04 #@! TF.FileFunction,Legend,Bot*
G04 #@! TF.FilePolarity,Positive*
%FSLAX46Y46*%
G04 Gerber Fmt 4.6, Leading zero omitted, Abs format (unit mm)*
G04 Created by KiCad (PCBNEW (5.1.0)-1) date 2019-07-07 19:09:18*
%MOMM*%
%LPD*%
G04 APERTURE LIST*
%ADD10C,1.702000*%
%ADD11O,1.802000X1.802000*%
%ADD12R,1.802000X1.802000*%
%ADD13O,1.702000X1.702000*%
%ADD14R,1.152000X1.602000*%
%ADD15O,1.152000X1.602000*%
%ADD16C,1.902000*%
%ADD17R,1.702000X1.702000*%
%ADD18C,1.302000*%
%ADD19O,2.302000X1.702000*%
%ADD20C,1.602000*%
%ADD21R,1.602000X1.602000*%
%ADD22C,3.302000*%
%ADD23C,3.352000*%
%ADD24C,1.622000*%
%ADD25R,1.622000X1.622000*%
%ADD26C,1.626000*%
%ADD27C,0.100000*%
G04 APERTURE END LIST*
%LPC*%
D10*
X94194000Y-89916000D03*
X91694000Y-89916000D03*
X73914000Y-80852000D03*
X73914000Y-85852000D03*
X118745000Y-144907000D03*
X113745000Y-144907000D03*
X87456000Y-146812000D03*
X92456000Y-146812000D03*
D11*
X99060000Y-121920000D03*
X96520000Y-121920000D03*
X99060000Y-119380000D03*
D12*
X96520000Y-119380000D03*
D13*
X106934000Y-123825000D03*
D10*
X117094000Y-123825000D03*
D14*
X122301000Y-121158000D03*
D15*
X119761000Y-121158000D03*
X121031000Y-121158000D03*
D11*
X124968000Y-117221000D03*
X122428000Y-117221000D03*
X119888000Y-117221000D03*
X117348000Y-117221000D03*
X114808000Y-117221000D03*
X112268000Y-117221000D03*
X109728000Y-117221000D03*
X107188000Y-117221000D03*
D12*
X104648000Y-117221000D03*
D10*
X109648000Y-120650000D03*
X104648000Y-120650000D03*
D11*
X101854000Y-85090000D03*
X104394000Y-85090000D03*
X106934000Y-85090000D03*
D12*
X109474000Y-85090000D03*
D13*
X99060000Y-140716000D03*
D10*
X109220000Y-140716000D03*
D13*
X112268000Y-132080000D03*
D10*
X112268000Y-142240000D03*
D13*
X96012000Y-136652000D03*
D10*
X96012000Y-146812000D03*
D14*
X102616000Y-144780000D03*
D15*
X100076000Y-144780000D03*
X101346000Y-144780000D03*
D14*
X108204000Y-144780000D03*
D15*
X105664000Y-144780000D03*
X106934000Y-144780000D03*
D16*
X61040000Y-134520000D03*
X71040000Y-134620000D03*
D13*
X140716000Y-120142000D03*
D10*
X140716000Y-130302000D03*
D13*
X137668000Y-120142000D03*
D10*
X137668000Y-130302000D03*
D11*
X145288000Y-117221000D03*
X142748000Y-117221000D03*
X140208000Y-117221000D03*
D12*
X137668000Y-117221000D03*
D10*
X143764000Y-120142000D03*
X143764000Y-125142000D03*
D13*
X128905000Y-137160000D03*
X121285000Y-144780000D03*
X128905000Y-139700000D03*
X121285000Y-142240000D03*
X128905000Y-142240000D03*
X121285000Y-139700000D03*
X128905000Y-144780000D03*
D17*
X121285000Y-137160000D03*
D13*
X92456000Y-143764000D03*
X77216000Y-136144000D03*
X89916000Y-143764000D03*
X79756000Y-136144000D03*
X87376000Y-143764000D03*
X82296000Y-136144000D03*
X84836000Y-143764000D03*
X84836000Y-136144000D03*
X82296000Y-143764000D03*
X87376000Y-136144000D03*
X79756000Y-143764000D03*
X89916000Y-136144000D03*
X77216000Y-143764000D03*
D17*
X92456000Y-136144000D03*
D13*
X131826000Y-133858000D03*
D10*
X121666000Y-133858000D03*
D13*
X131826000Y-130810000D03*
D10*
X121666000Y-130810000D03*
D13*
X115316000Y-132080000D03*
D10*
X115316000Y-142240000D03*
D13*
X118364000Y-142240000D03*
D10*
X118364000Y-132080000D03*
X136318000Y-146304000D03*
X131318000Y-146304000D03*
X131826000Y-142240000D03*
X131826000Y-137240000D03*
D11*
X78740000Y-88392000D03*
D12*
X81280000Y-88392000D03*
D13*
X104394000Y-81788000D03*
D10*
X94234000Y-81788000D03*
D13*
X102870000Y-78740000D03*
D10*
X92710000Y-78740000D03*
X98806000Y-85090000D03*
X93806000Y-85090000D03*
D13*
X82042000Y-106680000D03*
D10*
X92202000Y-106680000D03*
D14*
X84582000Y-110236000D03*
D15*
X82042000Y-110236000D03*
X83312000Y-110236000D03*
D11*
X74638000Y-52210000D03*
X74638000Y-54750000D03*
X74638000Y-57290000D03*
X74638000Y-59830000D03*
D12*
X74638000Y-62370000D03*
D13*
X71590000Y-52210000D03*
X63970000Y-72530000D03*
X71590000Y-54750000D03*
X63970000Y-69990000D03*
X71590000Y-57290000D03*
X63970000Y-67450000D03*
X71590000Y-59830000D03*
X63970000Y-64910000D03*
X71590000Y-62370000D03*
X63970000Y-62370000D03*
X71590000Y-64910000D03*
X63970000Y-59830000D03*
X71590000Y-67450000D03*
X63970000Y-57290000D03*
X71590000Y-69990000D03*
X63970000Y-54750000D03*
X71590000Y-72530000D03*
D17*
X63970000Y-52210000D03*
D13*
X70320000Y-85865000D03*
X52540000Y-78245000D03*
X67780000Y-85865000D03*
X55080000Y-78245000D03*
X65240000Y-85865000D03*
X57620000Y-78245000D03*
X62700000Y-85865000D03*
X60160000Y-78245000D03*
X60160000Y-85865000D03*
X62700000Y-78245000D03*
X57620000Y-85865000D03*
X65240000Y-78245000D03*
X55080000Y-85865000D03*
X67780000Y-78245000D03*
X52540000Y-85865000D03*
D17*
X70320000Y-78245000D03*
D11*
X90805000Y-114935000D03*
X88265000Y-114935000D03*
X85725000Y-114935000D03*
D12*
X83185000Y-114935000D03*
D10*
X87376000Y-110236000D03*
X92376000Y-110236000D03*
D18*
X141885000Y-137440000D03*
X147885000Y-137440000D03*
D19*
X140885000Y-135040000D03*
X145885000Y-139840000D03*
X147885000Y-135040000D03*
D10*
X135090000Y-135335000D03*
X135090000Y-140335000D03*
X139620000Y-143002000D03*
X134620000Y-143002000D03*
X75485000Y-123190000D03*
X70485000Y-123190000D03*
D13*
X70485000Y-120015000D03*
X78105000Y-112395000D03*
X70485000Y-117475000D03*
X78105000Y-114935000D03*
X70485000Y-114935000D03*
X78105000Y-117475000D03*
X70485000Y-112395000D03*
D17*
X78105000Y-120015000D03*
D10*
X59055000Y-92075000D03*
D13*
X59055000Y-102235000D03*
X62230000Y-102235000D03*
D10*
X62230000Y-92075000D03*
D14*
X63500000Y-105410000D03*
D15*
X60960000Y-105410000D03*
X62230000Y-105410000D03*
D20*
X66802000Y-121285000D03*
X64262000Y-120015000D03*
X66802000Y-118745000D03*
X64262000Y-117475000D03*
X66802000Y-116205000D03*
X64262000Y-114935000D03*
X66802000Y-113665000D03*
D21*
X64262000Y-112395000D03*
D22*
X57912000Y-111125000D03*
X57912000Y-122555000D03*
D13*
X55880000Y-102235000D03*
D10*
X55880000Y-92075000D03*
D13*
X78740000Y-96012000D03*
D10*
X88900000Y-96012000D03*
D13*
X52705000Y-102235000D03*
D10*
X52705000Y-92075000D03*
D13*
X78740000Y-92964000D03*
D10*
X88900000Y-92964000D03*
D14*
X57150000Y-105410000D03*
D15*
X54610000Y-105410000D03*
X55880000Y-105410000D03*
D14*
X87376000Y-88392000D03*
D15*
X84836000Y-88392000D03*
X86106000Y-88392000D03*
D11*
X86360000Y-83820000D03*
X83820000Y-83820000D03*
X81280000Y-83820000D03*
D12*
X78740000Y-83820000D03*
D17*
X132334000Y-78232000D03*
D13*
X117094000Y-85852000D03*
X129794000Y-78232000D03*
X119634000Y-85852000D03*
X127254000Y-78232000D03*
X122174000Y-85852000D03*
X124714000Y-78232000D03*
X124714000Y-85852000D03*
X122174000Y-78232000D03*
X127254000Y-85852000D03*
X119634000Y-78232000D03*
X129794000Y-85852000D03*
X117094000Y-78232000D03*
X132334000Y-85852000D03*
X94361000Y-70993000D03*
D10*
X104521000Y-70993000D03*
X135636000Y-83312000D03*
X135636000Y-78312000D03*
D13*
X138684000Y-85865000D03*
D10*
X138684000Y-75705000D03*
D13*
X141732000Y-85865000D03*
D10*
X141732000Y-75705000D03*
D13*
X147790000Y-85865000D03*
D10*
X147790000Y-75705000D03*
D13*
X144780000Y-85865000D03*
D10*
X144780000Y-75705000D03*
D13*
X79756000Y-74168000D03*
D10*
X89916000Y-74168000D03*
D13*
X79756000Y-70993000D03*
D10*
X89916000Y-70993000D03*
D13*
X94361000Y-74168000D03*
D10*
X104521000Y-74168000D03*
D13*
X108966000Y-74168000D03*
D10*
X119126000Y-74168000D03*
D13*
X108966000Y-70993000D03*
D10*
X119126000Y-70993000D03*
D13*
X123698000Y-74168000D03*
D10*
X133858000Y-74168000D03*
D13*
X123698000Y-70993000D03*
D10*
X133858000Y-70993000D03*
D23*
X79756000Y-58293000D03*
D24*
X81656000Y-64643000D03*
X82926000Y-67183000D03*
X84196000Y-64643000D03*
X85466000Y-67183000D03*
X86736000Y-64643000D03*
D23*
X89916000Y-58293000D03*
D25*
X88006000Y-67183000D03*
D23*
X94361000Y-58293000D03*
D24*
X96261000Y-64643000D03*
X97531000Y-67183000D03*
X98801000Y-64643000D03*
X100071000Y-67183000D03*
X101341000Y-64643000D03*
D23*
X104521000Y-58293000D03*
D25*
X102611000Y-67183000D03*
D23*
X108966000Y-58293000D03*
D24*
X110866000Y-64643000D03*
X112136000Y-67183000D03*
X113406000Y-64643000D03*
X114676000Y-67183000D03*
X115946000Y-64643000D03*
D23*
X119126000Y-58293000D03*
D25*
X117216000Y-67183000D03*
D23*
X123571000Y-58293000D03*
D24*
X125471000Y-64643000D03*
X126741000Y-67183000D03*
X128011000Y-64643000D03*
X129281000Y-67183000D03*
X130551000Y-64643000D03*
D23*
X133731000Y-58293000D03*
D25*
X131821000Y-67183000D03*
D22*
X145000000Y-55000000D03*
X145000000Y-145000000D03*
X55000000Y-145000000D03*
X55000000Y-55000000D03*
D26*
X147790000Y-107455000D03*
X145250000Y-107455000D03*
X142710000Y-107455000D03*
X140170000Y-107455000D03*
X137630000Y-107455000D03*
X135090000Y-107455000D03*
X132550000Y-107455000D03*
X130010000Y-107455000D03*
X127470000Y-107455000D03*
X124930000Y-107455000D03*
X122390000Y-107455000D03*
X119850000Y-107455000D03*
X117310000Y-107455000D03*
X114770000Y-107455000D03*
X112230000Y-107455000D03*
X109690000Y-107455000D03*
X107150000Y-107455000D03*
X104610000Y-107455000D03*
X102070000Y-107455000D03*
X99530000Y-107455000D03*
X99530000Y-92215000D03*
X102070000Y-92215000D03*
X104610000Y-92215000D03*
X107150000Y-92215000D03*
X109690000Y-92215000D03*
X112230000Y-92215000D03*
X114770000Y-92215000D03*
X117310000Y-92215000D03*
X119850000Y-92215000D03*
X122390000Y-92215000D03*
X124930000Y-92215000D03*
X127470000Y-92215000D03*
X130010000Y-92215000D03*
X132550000Y-92215000D03*
X135090000Y-92215000D03*
X137630000Y-92215000D03*
X140170000Y-92215000D03*
X142710000Y-92215000D03*
X145250000Y-92215000D03*
D27*
G36*
X148236344Y-91403957D02*
G01*
X148275804Y-91409811D01*
X148314501Y-91419504D01*
X148352061Y-91432943D01*
X148388123Y-91449999D01*
X148422339Y-91470508D01*
X148454381Y-91494271D01*
X148483939Y-91521061D01*
X148510729Y-91550619D01*
X148534492Y-91582661D01*
X148555001Y-91616877D01*
X148572057Y-91652939D01*
X148585496Y-91690499D01*
X148595189Y-91729196D01*
X148601043Y-91768656D01*
X148603000Y-91808500D01*
X148603000Y-92621500D01*
X148601043Y-92661344D01*
X148595189Y-92700804D01*
X148585496Y-92739501D01*
X148572057Y-92777061D01*
X148555001Y-92813123D01*
X148534492Y-92847339D01*
X148510729Y-92879381D01*
X148483939Y-92908939D01*
X148454381Y-92935729D01*
X148422339Y-92959492D01*
X148388123Y-92980001D01*
X148352061Y-92997057D01*
X148314501Y-93010496D01*
X148275804Y-93020189D01*
X148236344Y-93026043D01*
X148196500Y-93028000D01*
X147383500Y-93028000D01*
X147343656Y-93026043D01*
X147304196Y-93020189D01*
X147265499Y-93010496D01*
X147227939Y-92997057D01*
X147191877Y-92980001D01*
X147157661Y-92959492D01*
X147125619Y-92935729D01*
X147096061Y-92908939D01*
X147069271Y-92879381D01*
X147045508Y-92847339D01*
X147024999Y-92813123D01*
X147007943Y-92777061D01*
X146994504Y-92739501D01*
X146984811Y-92700804D01*
X146978957Y-92661344D01*
X146977000Y-92621500D01*
X146977000Y-91808500D01*
X146978957Y-91768656D01*
X146984811Y-91729196D01*
X146994504Y-91690499D01*
X147007943Y-91652939D01*
X147024999Y-91616877D01*
X147045508Y-91582661D01*
X147069271Y-91550619D01*
X147096061Y-91521061D01*
X147125619Y-91494271D01*
X147157661Y-91470508D01*
X147191877Y-91449999D01*
X147227939Y-91432943D01*
X147265499Y-91419504D01*
X147304196Y-91409811D01*
X147343656Y-91403957D01*
X147383500Y-91402000D01*
X148196500Y-91402000D01*
X148236344Y-91403957D01*
X148236344Y-91403957D01*
G37*
D26*
X147790000Y-92215000D03*
M02*
