M48
; DRILL file {KiCad (5.1.0)-1} date 07/07/2019 19:09:21
; FORMAT={-:-/ absolute / metric / decimal}
; #@! TF.CreationDate,2019-07-07T19:09:21+02:00
; #@! TF.GenerationSoftware,Kicad,Pcbnew,(5.1.0)-1
; #@! TF.FileFunction,Plated,1,2,PTH
FMAT,2
METRIC
T1C0.400
T2C0.750
T3C0.760
T4C0.762
T5C0.800
T6C1.000
%
G90
G05
T1
X58.674Y-61.214
X61.468Y-64.008
X74.676Y-66.548
X75.946Y-77.724
X76.962Y-71.882
X78.486Y-80.264
X80.264Y-125.476
X81.534Y-96.52
X81.534Y-101.6
X81.534Y-124.206
X85.598Y-99.568
X88.392Y-102.362
X92.71Y-103.378
X94.742Y-63.5
X95.123Y-92.964
X105.41Y-141.478
X107.188Y-96.266
X107.569Y-95.25
X109.982Y-143.002
X111.125Y-95.504
X111.76Y-100.838
X112.776Y-99.822
X113.284Y-62.992
X115.951Y-95.504
X119.126Y-101.854
X120.142Y-102.87
X121.158Y-99.822
X122.174Y-100.838
X123.063Y-125.476
X125.857Y-126.492
X125.984Y-137.668
X128.27Y-62.992
T2
X105.664Y-144.78
X106.934Y-144.78
X108.204Y-144.78
X60.96Y-105.41
X62.23Y-105.41
X63.5Y-105.41
X119.761Y-121.158
X121.031Y-121.158
X122.301Y-121.158
X100.076Y-144.78
X101.346Y-144.78
X102.616Y-144.78
X82.042Y-110.236
X83.312Y-110.236
X84.582Y-110.236
X84.836Y-88.392
X86.106Y-88.392
X87.376Y-88.392
X54.61Y-105.41
X55.88Y-105.41
X57.15Y-105.41
T3
X64.262Y-112.395
X64.262Y-114.935
X64.262Y-117.475
X64.262Y-120.015
X66.802Y-113.665
X66.802Y-116.205
X66.802Y-118.745
X66.802Y-121.285
X96.261Y-64.643
X97.531Y-67.183
X98.801Y-64.643
X100.071Y-67.183
X101.341Y-64.643
X102.611Y-67.183
X81.656Y-64.643
X82.926Y-67.183
X84.196Y-64.643
X85.466Y-67.183
X86.736Y-64.643
X88.006Y-67.183
X125.471Y-64.643
X126.741Y-67.183
X128.011Y-64.643
X129.281Y-67.183
X130.551Y-64.643
X131.821Y-67.183
X110.866Y-64.643
X112.136Y-67.183
X113.406Y-64.643
X114.676Y-67.183
X115.946Y-64.643
X117.216Y-67.183
T4
X99.53Y-92.215
X99.53Y-107.455
X102.07Y-92.215
X102.07Y-107.455
X104.61Y-92.215
X104.61Y-107.455
X107.15Y-92.215
X107.15Y-107.455
X109.69Y-92.215
X109.69Y-107.455
X112.23Y-92.215
X112.23Y-107.455
X114.77Y-92.215
X114.77Y-107.455
X117.31Y-92.215
X117.31Y-107.455
X119.85Y-92.215
X119.85Y-107.455
X122.39Y-92.215
X122.39Y-107.455
X124.93Y-92.215
X124.93Y-107.455
X127.47Y-92.215
X127.47Y-107.455
X130.01Y-92.215
X130.01Y-107.455
X132.55Y-92.215
X132.55Y-107.455
X135.09Y-92.215
X135.09Y-107.455
X137.63Y-92.215
X137.63Y-107.455
X140.17Y-92.215
X140.17Y-107.455
X142.71Y-92.215
X142.71Y-107.455
X145.25Y-92.215
X145.25Y-107.455
X147.79Y-92.215
X147.79Y-107.455
T5
X78.74Y-96.012
X88.9Y-96.012
X135.09Y-135.335
X135.09Y-140.335
X115.316Y-132.08
X115.316Y-142.24
X147.79Y-75.705
X147.79Y-85.865
X70.485Y-112.395
X70.485Y-114.935
X70.485Y-117.475
X70.485Y-120.015
X78.105Y-112.395
X78.105Y-114.935
X78.105Y-117.475
X78.105Y-120.015
X131.826Y-137.24
X131.826Y-142.24
X79.756Y-70.993
X89.916Y-70.993
X92.71Y-78.74
X102.87Y-78.74
X135.636Y-78.312
X135.636Y-83.312
X108.966Y-70.993
X119.126Y-70.993
X140.716Y-120.142
X140.716Y-130.302
X91.694Y-89.916
X94.194Y-89.916
X62.23Y-92.075
X62.23Y-102.235
X106.934Y-123.825
X117.094Y-123.825
X52.54Y-78.245
X52.54Y-85.865
X55.08Y-78.245
X55.08Y-85.865
X57.62Y-78.245
X57.62Y-85.865
X60.16Y-78.245
X60.16Y-85.865
X62.7Y-78.245
X62.7Y-85.865
X65.24Y-78.245
X65.24Y-85.865
X67.78Y-78.245
X67.78Y-85.865
X70.32Y-78.245
X70.32Y-85.865
X121.285Y-137.16
X121.285Y-139.7
X121.285Y-142.24
X121.285Y-144.78
X128.905Y-137.16
X128.905Y-139.7
X128.905Y-142.24
X128.905Y-144.78
X143.764Y-120.142
X143.764Y-125.142
X87.456Y-146.812
X92.456Y-146.812
X55.88Y-92.075
X55.88Y-102.235
X104.648Y-120.65
X109.648Y-120.65
X123.698Y-70.993
X133.858Y-70.993
X121.666Y-130.81
X131.826Y-130.81
X78.74Y-92.964
X88.9Y-92.964
X112.268Y-132.08
X112.268Y-142.24
X70.485Y-123.19
X75.485Y-123.19
X131.318Y-146.304
X136.318Y-146.304
X79.756Y-74.168
X89.916Y-74.168
X96.012Y-136.652
X96.012Y-146.812
X94.234Y-81.788
X104.394Y-81.788
X94.361Y-70.993
X104.521Y-70.993
X108.966Y-74.168
X119.126Y-74.168
X59.055Y-92.075
X59.055Y-102.235
X82.042Y-106.68
X92.202Y-106.68
X141.732Y-75.705
X141.732Y-85.865
X113.745Y-144.907
X118.745Y-144.907
X63.97Y-52.21
X63.97Y-54.75
X63.97Y-57.29
X63.97Y-59.83
X63.97Y-62.37
X63.97Y-64.91
X63.97Y-67.45
X63.97Y-69.99
X63.97Y-72.53
X71.59Y-52.21
X71.59Y-54.75
X71.59Y-57.29
X71.59Y-59.83
X71.59Y-62.37
X71.59Y-64.91
X71.59Y-67.45
X71.59Y-69.99
X71.59Y-72.53
X87.376Y-110.236
X92.376Y-110.236
X121.666Y-133.858
X131.826Y-133.858
X52.705Y-92.075
X52.705Y-102.235
X99.06Y-140.716
X109.22Y-140.716
X134.62Y-143.002
X139.62Y-143.002
X118.364Y-132.08
X118.364Y-142.24
X144.78Y-75.705
X144.78Y-85.865
X117.094Y-78.232
X117.094Y-85.852
X119.634Y-78.232
X119.634Y-85.852
X122.174Y-78.232
X122.174Y-85.852
X124.714Y-78.232
X124.714Y-85.852
X127.254Y-78.232
X127.254Y-85.852
X129.794Y-78.232
X129.794Y-85.852
X132.334Y-78.232
X132.334Y-85.852
X94.361Y-74.168
X104.521Y-74.168
X93.806Y-85.09
X98.806Y-85.09
X138.684Y-75.705
X138.684Y-85.865
X123.698Y-74.168
X133.858Y-74.168
X137.668Y-120.142
X137.668Y-130.302
X73.914Y-80.852
X73.914Y-85.852
X77.216Y-136.144
X77.216Y-143.764
X79.756Y-136.144
X79.756Y-143.764
X82.296Y-136.144
X82.296Y-143.764
X84.836Y-136.144
X84.836Y-143.764
X87.376Y-136.144
X87.376Y-143.764
X89.916Y-136.144
X89.916Y-143.764
X92.456Y-136.144
X92.456Y-143.764
T6
X61.04Y-134.52
X71.04Y-134.62
X96.52Y-119.38
X96.52Y-121.92
X99.06Y-119.38
X99.06Y-121.92
X137.668Y-117.221
X140.208Y-117.221
X142.748Y-117.221
X145.288Y-117.221
X104.648Y-117.221
X107.188Y-117.221
X109.728Y-117.221
X112.268Y-117.221
X114.808Y-117.221
X117.348Y-117.221
X119.888Y-117.221
X122.428Y-117.221
X124.968Y-117.221
X78.74Y-88.392
X81.28Y-88.392
X74.638Y-52.21
X74.638Y-54.75
X74.638Y-57.29
X74.638Y-59.83
X74.638Y-62.37
X83.185Y-114.935
X85.725Y-114.935
X88.265Y-114.935
X90.805Y-114.935
X101.854Y-85.09
X104.394Y-85.09
X106.934Y-85.09
X109.474Y-85.09
X78.74Y-83.82
X81.28Y-83.82
X83.82Y-83.82
X86.36Y-83.82
T5
G00X141.185Y-135.04
M15
G01X140.585Y-135.04
M16
G05
G00X146.185Y-139.84
M15
G01X145.585Y-139.84
M16
G05
G00X148.185Y-135.04
M15
G01X147.585Y-135.04
M16
G05
T0
M30
