%TF.GenerationSoftware,KiCad,Pcbnew,(5.1.6)-1*%
%TF.CreationDate,2021-04-28T12:46:05+02:00*%
%TF.ProjectId,combi_indicator,636f6d62-695f-4696-9e64-696361746f72,rev?*%
%TF.SameCoordinates,Original*%
%TF.FileFunction,Soldermask,Bot*%
%TF.FilePolarity,Negative*%
%FSLAX46Y46*%
G04 Gerber Fmt 4.6, Leading zero omitted, Abs format (unit mm)*
G04 Created by KiCad (PCBNEW (5.1.6)-1) date 2021-04-28 12:46:05*
%MOMM*%
%LPD*%
G01*
G04 APERTURE LIST*
%ADD10C,0.100000*%
%ADD11R,1.600000X1.600000*%
%ADD12C,1.540000*%
%ADD13R,1.900000X2.600000*%
%ADD14R,0.750000X1.660000*%
%ADD15C,1.900000*%
%ADD16R,1.900000X1.900000*%
%ADD17O,1.800000X1.800000*%
%ADD18R,1.800000X1.800000*%
G04 APERTURE END LIST*
D10*
G36*
X106350000Y-105080000D02*
G01*
X105842000Y-105080000D01*
X105842000Y-96190000D01*
X106350000Y-96190000D01*
X106350000Y-105080000D01*
G37*
X106350000Y-105080000D02*
X105842000Y-105080000D01*
X105842000Y-96190000D01*
X106350000Y-96190000D01*
X106350000Y-105080000D01*
D11*
%TO.C,+LED*%
X93015000Y-118415000D03*
%TD*%
%TO.C,LED current*%
X125654000Y-80950000D03*
%TD*%
%TO.C,VCC*%
X102540000Y-119558000D03*
%TD*%
%TO.C,GND*%
X89586000Y-118415000D03*
%TD*%
%TO.C,GND*%
X122860000Y-86538000D03*
%TD*%
%TO.C,R13*%
G36*
G01*
X108791000Y-103018262D02*
X108791000Y-102061738D01*
G75*
G02*
X109062738Y-101790000I271738J0D01*
G01*
X109769262Y-101790000D01*
G75*
G02*
X110041000Y-102061738I0J-271738D01*
G01*
X110041000Y-103018262D01*
G75*
G02*
X109769262Y-103290000I-271738J0D01*
G01*
X109062738Y-103290000D01*
G75*
G02*
X108791000Y-103018262I0J271738D01*
G01*
G37*
G36*
G01*
X106741000Y-103018262D02*
X106741000Y-102061738D01*
G75*
G02*
X107012738Y-101790000I271738J0D01*
G01*
X107719262Y-101790000D01*
G75*
G02*
X107991000Y-102061738I0J-271738D01*
G01*
X107991000Y-103018262D01*
G75*
G02*
X107719262Y-103290000I-271738J0D01*
G01*
X107012738Y-103290000D01*
G75*
G02*
X106741000Y-103018262I0J271738D01*
G01*
G37*
%TD*%
%TO.C,C1*%
G36*
G01*
X107991000Y-111205738D02*
X107991000Y-112162262D01*
G75*
G02*
X107719262Y-112434000I-271738J0D01*
G01*
X107012738Y-112434000D01*
G75*
G02*
X106741000Y-112162262I0J271738D01*
G01*
X106741000Y-111205738D01*
G75*
G02*
X107012738Y-110934000I271738J0D01*
G01*
X107719262Y-110934000D01*
G75*
G02*
X107991000Y-111205738I0J-271738D01*
G01*
G37*
G36*
G01*
X110041000Y-111205738D02*
X110041000Y-112162262D01*
G75*
G02*
X109769262Y-112434000I-271738J0D01*
G01*
X109062738Y-112434000D01*
G75*
G02*
X108791000Y-112162262I0J271738D01*
G01*
X108791000Y-111205738D01*
G75*
G02*
X109062738Y-110934000I271738J0D01*
G01*
X109769262Y-110934000D01*
G75*
G02*
X110041000Y-111205738I0J-271738D01*
G01*
G37*
%TD*%
D12*
%TO.C,RV1*%
X112446000Y-93650000D03*
X109906000Y-96190000D03*
X107366000Y-93650000D03*
%TD*%
%TO.C,R12*%
G36*
G01*
X108782000Y-100986262D02*
X108782000Y-100029738D01*
G75*
G02*
X109053738Y-99758000I271738J0D01*
G01*
X109760262Y-99758000D01*
G75*
G02*
X110032000Y-100029738I0J-271738D01*
G01*
X110032000Y-100986262D01*
G75*
G02*
X109760262Y-101258000I-271738J0D01*
G01*
X109053738Y-101258000D01*
G75*
G02*
X108782000Y-100986262I0J271738D01*
G01*
G37*
G36*
G01*
X106732000Y-100986262D02*
X106732000Y-100029738D01*
G75*
G02*
X107003738Y-99758000I271738J0D01*
G01*
X107710262Y-99758000D01*
G75*
G02*
X107982000Y-100029738I0J-271738D01*
G01*
X107982000Y-100986262D01*
G75*
G02*
X107710262Y-101258000I-271738J0D01*
G01*
X107003738Y-101258000D01*
G75*
G02*
X106732000Y-100986262I0J271738D01*
G01*
G37*
%TD*%
%TO.C,C5*%
G36*
G01*
X108791000Y-114194262D02*
X108791000Y-113237738D01*
G75*
G02*
X109062738Y-112966000I271738J0D01*
G01*
X109769262Y-112966000D01*
G75*
G02*
X110041000Y-113237738I0J-271738D01*
G01*
X110041000Y-114194262D01*
G75*
G02*
X109769262Y-114466000I-271738J0D01*
G01*
X109062738Y-114466000D01*
G75*
G02*
X108791000Y-114194262I0J271738D01*
G01*
G37*
G36*
G01*
X106741000Y-114194262D02*
X106741000Y-113237738D01*
G75*
G02*
X107012738Y-112966000I271738J0D01*
G01*
X107719262Y-112966000D01*
G75*
G02*
X107991000Y-113237738I0J-271738D01*
G01*
X107991000Y-114194262D01*
G75*
G02*
X107719262Y-114466000I-271738J0D01*
G01*
X107012738Y-114466000D01*
G75*
G02*
X106741000Y-114194262I0J271738D01*
G01*
G37*
%TD*%
%TO.C,L1*%
G36*
G01*
X104917456Y-109471500D02*
X102702544Y-109471500D01*
G75*
G02*
X102435000Y-109203956I0J267544D01*
G01*
X102435000Y-108214044D01*
G75*
G02*
X102702544Y-107946500I267544J0D01*
G01*
X104917456Y-107946500D01*
G75*
G02*
X105185000Y-108214044I0J-267544D01*
G01*
X105185000Y-109203956D01*
G75*
G02*
X104917456Y-109471500I-267544J0D01*
G01*
G37*
G36*
G01*
X104917456Y-112446500D02*
X102702544Y-112446500D01*
G75*
G02*
X102435000Y-112178956I0J267544D01*
G01*
X102435000Y-111189044D01*
G75*
G02*
X102702544Y-110921500I267544J0D01*
G01*
X104917456Y-110921500D01*
G75*
G02*
X105185000Y-111189044I0J-267544D01*
G01*
X105185000Y-112178956D01*
G75*
G02*
X104917456Y-112446500I-267544J0D01*
G01*
G37*
%TD*%
D13*
%TO.C,D13*%
X103810000Y-106064000D03*
X103810000Y-102064000D03*
%TD*%
%TO.C,C4*%
G36*
G01*
X103185000Y-95906262D02*
X103185000Y-94949738D01*
G75*
G02*
X103456738Y-94678000I271738J0D01*
G01*
X104163262Y-94678000D01*
G75*
G02*
X104435000Y-94949738I0J-271738D01*
G01*
X104435000Y-95906262D01*
G75*
G02*
X104163262Y-96178000I-271738J0D01*
G01*
X103456738Y-96178000D01*
G75*
G02*
X103185000Y-95906262I0J271738D01*
G01*
G37*
G36*
G01*
X101135000Y-95906262D02*
X101135000Y-94949738D01*
G75*
G02*
X101406738Y-94678000I271738J0D01*
G01*
X102113262Y-94678000D01*
G75*
G02*
X102385000Y-94949738I0J-271738D01*
G01*
X102385000Y-95906262D01*
G75*
G02*
X102113262Y-96178000I-271738J0D01*
G01*
X101406738Y-96178000D01*
G75*
G02*
X101135000Y-95906262I0J271738D01*
G01*
G37*
%TD*%
D14*
%TO.C,U1*%
X107366000Y-109398000D03*
X106416000Y-109398000D03*
X108316000Y-109398000D03*
X108316000Y-106698000D03*
X107366000Y-106698000D03*
X106416000Y-106698000D03*
%TD*%
%TO.C,R11*%
G36*
G01*
X107991000Y-104093738D02*
X107991000Y-105050262D01*
G75*
G02*
X107719262Y-105322000I-271738J0D01*
G01*
X107012738Y-105322000D01*
G75*
G02*
X106741000Y-105050262I0J271738D01*
G01*
X106741000Y-104093738D01*
G75*
G02*
X107012738Y-103822000I271738J0D01*
G01*
X107719262Y-103822000D01*
G75*
G02*
X107991000Y-104093738I0J-271738D01*
G01*
G37*
G36*
G01*
X110041000Y-104093738D02*
X110041000Y-105050262D01*
G75*
G02*
X109769262Y-105322000I-271738J0D01*
G01*
X109062738Y-105322000D01*
G75*
G02*
X108791000Y-105050262I0J271738D01*
G01*
X108791000Y-104093738D01*
G75*
G02*
X109062738Y-103822000I271738J0D01*
G01*
X109769262Y-103822000D01*
G75*
G02*
X110041000Y-104093738I0J-271738D01*
G01*
G37*
%TD*%
%TO.C,R10*%
G36*
G01*
X110638262Y-107728000D02*
X109681738Y-107728000D01*
G75*
G02*
X109410000Y-107456262I0J271738D01*
G01*
X109410000Y-106749738D01*
G75*
G02*
X109681738Y-106478000I271738J0D01*
G01*
X110638262Y-106478000D01*
G75*
G02*
X110910000Y-106749738I0J-271738D01*
G01*
X110910000Y-107456262D01*
G75*
G02*
X110638262Y-107728000I-271738J0D01*
G01*
G37*
G36*
G01*
X110638262Y-109778000D02*
X109681738Y-109778000D01*
G75*
G02*
X109410000Y-109506262I0J271738D01*
G01*
X109410000Y-108799738D01*
G75*
G02*
X109681738Y-108528000I271738J0D01*
G01*
X110638262Y-108528000D01*
G75*
G02*
X110910000Y-108799738I0J-271738D01*
G01*
X110910000Y-109506262D01*
G75*
G02*
X110638262Y-109778000I-271738J0D01*
G01*
G37*
%TD*%
%TO.C,R9*%
G36*
G01*
X109290000Y-119782262D02*
X109290000Y-118825738D01*
G75*
G02*
X109561738Y-118554000I271738J0D01*
G01*
X110268262Y-118554000D01*
G75*
G02*
X110540000Y-118825738I0J-271738D01*
G01*
X110540000Y-119782262D01*
G75*
G02*
X110268262Y-120054000I-271738J0D01*
G01*
X109561738Y-120054000D01*
G75*
G02*
X109290000Y-119782262I0J271738D01*
G01*
G37*
G36*
G01*
X107240000Y-119782262D02*
X107240000Y-118825738D01*
G75*
G02*
X107511738Y-118554000I271738J0D01*
G01*
X108218262Y-118554000D01*
G75*
G02*
X108490000Y-118825738I0J-271738D01*
G01*
X108490000Y-119782262D01*
G75*
G02*
X108218262Y-120054000I-271738J0D01*
G01*
X107511738Y-120054000D01*
G75*
G02*
X107240000Y-119782262I0J271738D01*
G01*
G37*
%TD*%
%TO.C,C3*%
G36*
G01*
X102385000Y-99013738D02*
X102385000Y-99970262D01*
G75*
G02*
X102113262Y-100242000I-271738J0D01*
G01*
X101406738Y-100242000D01*
G75*
G02*
X101135000Y-99970262I0J271738D01*
G01*
X101135000Y-99013738D01*
G75*
G02*
X101406738Y-98742000I271738J0D01*
G01*
X102113262Y-98742000D01*
G75*
G02*
X102385000Y-99013738I0J-271738D01*
G01*
G37*
G36*
G01*
X104435000Y-99013738D02*
X104435000Y-99970262D01*
G75*
G02*
X104163262Y-100242000I-271738J0D01*
G01*
X103456738Y-100242000D01*
G75*
G02*
X103185000Y-99970262I0J271738D01*
G01*
X103185000Y-99013738D01*
G75*
G02*
X103456738Y-98742000I271738J0D01*
G01*
X104163262Y-98742000D01*
G75*
G02*
X104435000Y-99013738I0J-271738D01*
G01*
G37*
%TD*%
%TO.C,C2*%
G36*
G01*
X102385000Y-96981738D02*
X102385000Y-97938262D01*
G75*
G02*
X102113262Y-98210000I-271738J0D01*
G01*
X101406738Y-98210000D01*
G75*
G02*
X101135000Y-97938262I0J271738D01*
G01*
X101135000Y-96981738D01*
G75*
G02*
X101406738Y-96710000I271738J0D01*
G01*
X102113262Y-96710000D01*
G75*
G02*
X102385000Y-96981738I0J-271738D01*
G01*
G37*
G36*
G01*
X104435000Y-96981738D02*
X104435000Y-97938262D01*
G75*
G02*
X104163262Y-98210000I-271738J0D01*
G01*
X103456738Y-98210000D01*
G75*
G02*
X103185000Y-97938262I0J271738D01*
G01*
X103185000Y-96981738D01*
G75*
G02*
X103456738Y-96710000I271738J0D01*
G01*
X104163262Y-96710000D01*
G75*
G02*
X104435000Y-96981738I0J-271738D01*
G01*
G37*
%TD*%
%TO.C,R8*%
G36*
G01*
X123657456Y-81762500D02*
X122342544Y-81762500D01*
G75*
G02*
X122075000Y-81494956I0J267544D01*
G01*
X122075000Y-80505044D01*
G75*
G02*
X122342544Y-80237500I267544J0D01*
G01*
X123657456Y-80237500D01*
G75*
G02*
X123925000Y-80505044I0J-267544D01*
G01*
X123925000Y-81494956D01*
G75*
G02*
X123657456Y-81762500I-267544J0D01*
G01*
G37*
G36*
G01*
X123657456Y-84737500D02*
X122342544Y-84737500D01*
G75*
G02*
X122075000Y-84469956I0J267544D01*
G01*
X122075000Y-83480044D01*
G75*
G02*
X122342544Y-83212500I267544J0D01*
G01*
X123657456Y-83212500D01*
G75*
G02*
X123925000Y-83480044I0J-267544D01*
G01*
X123925000Y-84469956D01*
G75*
G02*
X123657456Y-84737500I-267544J0D01*
G01*
G37*
%TD*%
%TO.C,R7*%
G36*
G01*
X105657456Y-81762500D02*
X104342544Y-81762500D01*
G75*
G02*
X104075000Y-81494956I0J267544D01*
G01*
X104075000Y-80505044D01*
G75*
G02*
X104342544Y-80237500I267544J0D01*
G01*
X105657456Y-80237500D01*
G75*
G02*
X105925000Y-80505044I0J-267544D01*
G01*
X105925000Y-81494956D01*
G75*
G02*
X105657456Y-81762500I-267544J0D01*
G01*
G37*
G36*
G01*
X105657456Y-84737500D02*
X104342544Y-84737500D01*
G75*
G02*
X104075000Y-84469956I0J267544D01*
G01*
X104075000Y-83480044D01*
G75*
G02*
X104342544Y-83212500I267544J0D01*
G01*
X105657456Y-83212500D01*
G75*
G02*
X105925000Y-83480044I0J-267544D01*
G01*
X105925000Y-84469956D01*
G75*
G02*
X105657456Y-84737500I-267544J0D01*
G01*
G37*
%TD*%
%TO.C,R6*%
G36*
G01*
X87657456Y-81762500D02*
X86342544Y-81762500D01*
G75*
G02*
X86075000Y-81494956I0J267544D01*
G01*
X86075000Y-80505044D01*
G75*
G02*
X86342544Y-80237500I267544J0D01*
G01*
X87657456Y-80237500D01*
G75*
G02*
X87925000Y-80505044I0J-267544D01*
G01*
X87925000Y-81494956D01*
G75*
G02*
X87657456Y-81762500I-267544J0D01*
G01*
G37*
G36*
G01*
X87657456Y-84737500D02*
X86342544Y-84737500D01*
G75*
G02*
X86075000Y-84469956I0J267544D01*
G01*
X86075000Y-83480044D01*
G75*
G02*
X86342544Y-83212500I267544J0D01*
G01*
X87657456Y-83212500D01*
G75*
G02*
X87925000Y-83480044I0J-267544D01*
G01*
X87925000Y-84469956D01*
G75*
G02*
X87657456Y-84737500I-267544J0D01*
G01*
G37*
%TD*%
%TO.C,R5*%
G36*
G01*
X69657456Y-81762500D02*
X68342544Y-81762500D01*
G75*
G02*
X68075000Y-81494956I0J267544D01*
G01*
X68075000Y-80505044D01*
G75*
G02*
X68342544Y-80237500I267544J0D01*
G01*
X69657456Y-80237500D01*
G75*
G02*
X69925000Y-80505044I0J-267544D01*
G01*
X69925000Y-81494956D01*
G75*
G02*
X69657456Y-81762500I-267544J0D01*
G01*
G37*
G36*
G01*
X69657456Y-84737500D02*
X68342544Y-84737500D01*
G75*
G02*
X68075000Y-84469956I0J267544D01*
G01*
X68075000Y-83480044D01*
G75*
G02*
X68342544Y-83212500I267544J0D01*
G01*
X69657456Y-83212500D01*
G75*
G02*
X69925000Y-83480044I0J-267544D01*
G01*
X69925000Y-84469956D01*
G75*
G02*
X69657456Y-84737500I-267544J0D01*
G01*
G37*
%TD*%
%TO.C,R4*%
G36*
G01*
X120978262Y-83675000D02*
X120021738Y-83675000D01*
G75*
G02*
X119750000Y-83403262I0J271738D01*
G01*
X119750000Y-82696738D01*
G75*
G02*
X120021738Y-82425000I271738J0D01*
G01*
X120978262Y-82425000D01*
G75*
G02*
X121250000Y-82696738I0J-271738D01*
G01*
X121250000Y-83403262D01*
G75*
G02*
X120978262Y-83675000I-271738J0D01*
G01*
G37*
G36*
G01*
X120978262Y-81625000D02*
X120021738Y-81625000D01*
G75*
G02*
X119750000Y-81353262I0J271738D01*
G01*
X119750000Y-80646738D01*
G75*
G02*
X120021738Y-80375000I271738J0D01*
G01*
X120978262Y-80375000D01*
G75*
G02*
X121250000Y-80646738I0J-271738D01*
G01*
X121250000Y-81353262D01*
G75*
G02*
X120978262Y-81625000I-271738J0D01*
G01*
G37*
%TD*%
%TO.C,R3*%
G36*
G01*
X102978262Y-81625000D02*
X102021738Y-81625000D01*
G75*
G02*
X101750000Y-81353262I0J271738D01*
G01*
X101750000Y-80646738D01*
G75*
G02*
X102021738Y-80375000I271738J0D01*
G01*
X102978262Y-80375000D01*
G75*
G02*
X103250000Y-80646738I0J-271738D01*
G01*
X103250000Y-81353262D01*
G75*
G02*
X102978262Y-81625000I-271738J0D01*
G01*
G37*
G36*
G01*
X102978262Y-83675000D02*
X102021738Y-83675000D01*
G75*
G02*
X101750000Y-83403262I0J271738D01*
G01*
X101750000Y-82696738D01*
G75*
G02*
X102021738Y-82425000I271738J0D01*
G01*
X102978262Y-82425000D01*
G75*
G02*
X103250000Y-82696738I0J-271738D01*
G01*
X103250000Y-83403262D01*
G75*
G02*
X102978262Y-83675000I-271738J0D01*
G01*
G37*
%TD*%
%TO.C,R2*%
G36*
G01*
X84978262Y-81625000D02*
X84021738Y-81625000D01*
G75*
G02*
X83750000Y-81353262I0J271738D01*
G01*
X83750000Y-80646738D01*
G75*
G02*
X84021738Y-80375000I271738J0D01*
G01*
X84978262Y-80375000D01*
G75*
G02*
X85250000Y-80646738I0J-271738D01*
G01*
X85250000Y-81353262D01*
G75*
G02*
X84978262Y-81625000I-271738J0D01*
G01*
G37*
G36*
G01*
X84978262Y-83675000D02*
X84021738Y-83675000D01*
G75*
G02*
X83750000Y-83403262I0J271738D01*
G01*
X83750000Y-82696738D01*
G75*
G02*
X84021738Y-82425000I271738J0D01*
G01*
X84978262Y-82425000D01*
G75*
G02*
X85250000Y-82696738I0J-271738D01*
G01*
X85250000Y-83403262D01*
G75*
G02*
X84978262Y-83675000I-271738J0D01*
G01*
G37*
%TD*%
D15*
%TO.C,D12*%
X114730000Y-81000000D03*
D16*
X117270000Y-81000000D03*
%TD*%
D15*
%TO.C,D11*%
X96730000Y-81000000D03*
D16*
X99270000Y-81000000D03*
%TD*%
D15*
%TO.C,D10*%
X78730000Y-81000000D03*
D16*
X81270000Y-81000000D03*
%TD*%
D15*
%TO.C,D9*%
X60730000Y-81000000D03*
D16*
X63270000Y-81000000D03*
%TD*%
D15*
%TO.C,D8*%
X114730000Y-100000000D03*
D16*
X117270000Y-100000000D03*
%TD*%
D15*
%TO.C,D7*%
X96730000Y-100000000D03*
D16*
X99270000Y-100000000D03*
%TD*%
D15*
%TO.C,D6*%
X78730000Y-100000000D03*
D16*
X81270000Y-100000000D03*
%TD*%
D15*
%TO.C,D5*%
X60730000Y-100000000D03*
D16*
X63270000Y-100000000D03*
%TD*%
D17*
%TO.C,J1*%
X110160000Y-116510000D03*
X107620000Y-116510000D03*
X105080000Y-116510000D03*
D18*
X102540000Y-116510000D03*
%TD*%
%TO.C,R1*%
G36*
G01*
X66978262Y-81625000D02*
X66021738Y-81625000D01*
G75*
G02*
X65750000Y-81353262I0J271738D01*
G01*
X65750000Y-80646738D01*
G75*
G02*
X66021738Y-80375000I271738J0D01*
G01*
X66978262Y-80375000D01*
G75*
G02*
X67250000Y-80646738I0J-271738D01*
G01*
X67250000Y-81353262D01*
G75*
G02*
X66978262Y-81625000I-271738J0D01*
G01*
G37*
G36*
G01*
X66978262Y-83675000D02*
X66021738Y-83675000D01*
G75*
G02*
X65750000Y-83403262I0J271738D01*
G01*
X65750000Y-82696738D01*
G75*
G02*
X66021738Y-82425000I271738J0D01*
G01*
X66978262Y-82425000D01*
G75*
G02*
X67250000Y-82696738I0J-271738D01*
G01*
X67250000Y-83403262D01*
G75*
G02*
X66978262Y-83675000I-271738J0D01*
G01*
G37*
%TD*%
D15*
%TO.C,D4*%
X114730000Y-119000000D03*
D16*
X117270000Y-119000000D03*
%TD*%
D15*
%TO.C,D3*%
X96730000Y-119000000D03*
D16*
X99270000Y-119000000D03*
%TD*%
D15*
%TO.C,D2*%
X78730000Y-119000000D03*
D16*
X81270000Y-119000000D03*
%TD*%
D15*
%TO.C,D1*%
X60730000Y-119000000D03*
D16*
X63270000Y-119000000D03*
%TD*%
M02*
