%TF.GenerationSoftware,KiCad,Pcbnew,(5.1.6)-1*%
%TF.CreationDate,2021-04-28T12:46:05+02:00*%
%TF.ProjectId,combi_indicator,636f6d62-695f-4696-9e64-696361746f72,rev?*%
%TF.SameCoordinates,Original*%
%TF.FileFunction,Copper,L2,Bot*%
%TF.FilePolarity,Positive*%
%FSLAX46Y46*%
G04 Gerber Fmt 4.6, Leading zero omitted, Abs format (unit mm)*
G04 Created by KiCad (PCBNEW (5.1.6)-1) date 2021-04-28 12:46:05*
%MOMM*%
%LPD*%
G01*
G04 APERTURE LIST*
%TA.AperFunction,SMDPad,CuDef*%
%ADD10R,1.500000X1.500000*%
%TD*%
%TA.AperFunction,ComponentPad*%
%ADD11C,1.440000*%
%TD*%
%TA.AperFunction,SMDPad,CuDef*%
%ADD12R,1.800000X2.500000*%
%TD*%
%TA.AperFunction,SMDPad,CuDef*%
%ADD13R,0.650000X1.560000*%
%TD*%
%TA.AperFunction,ComponentPad*%
%ADD14C,1.800000*%
%TD*%
%TA.AperFunction,ComponentPad*%
%ADD15R,1.800000X1.800000*%
%TD*%
%TA.AperFunction,ComponentPad*%
%ADD16O,1.700000X1.700000*%
%TD*%
%TA.AperFunction,ComponentPad*%
%ADD17R,1.700000X1.700000*%
%TD*%
%TA.AperFunction,ViaPad*%
%ADD18C,0.800000*%
%TD*%
%TA.AperFunction,Conductor*%
%ADD19C,0.650000*%
%TD*%
%TA.AperFunction,Conductor*%
%ADD20C,1.000000*%
%TD*%
%TA.AperFunction,Conductor*%
%ADD21C,0.400000*%
%TD*%
%TA.AperFunction,Conductor*%
%ADD22C,0.254000*%
%TD*%
G04 APERTURE END LIST*
D10*
%TO.P,+LED,1*%
%TO.N,VBUS*%
X93015000Y-118415000D03*
%TD*%
%TO.P,LED current,1*%
%TO.N,/cur_test*%
X125654000Y-80950000D03*
%TD*%
%TO.P,VCC,1*%
%TO.N,VCC*%
X102540000Y-119558000D03*
%TD*%
%TO.P,GND,1*%
%TO.N,GND*%
X89586000Y-118415000D03*
%TD*%
%TO.P,GND,1*%
%TO.N,GND*%
X122860000Y-86538000D03*
%TD*%
%TO.P,R13,2*%
%TO.N,/FB*%
%TA.AperFunction,SMDPad,CuDef*%
G36*
G01*
X108841000Y-102990001D02*
X108841000Y-102089999D01*
G75*
G02*
X109090999Y-101840000I249999J0D01*
G01*
X109741001Y-101840000D01*
G75*
G02*
X109991000Y-102089999I0J-249999D01*
G01*
X109991000Y-102990001D01*
G75*
G02*
X109741001Y-103240000I-249999J0D01*
G01*
X109090999Y-103240000D01*
G75*
G02*
X108841000Y-102990001I0J249999D01*
G01*
G37*
%TD.AperFunction*%
%TO.P,R13,1*%
%TO.N,Net-(R12-Pad2)*%
%TA.AperFunction,SMDPad,CuDef*%
G36*
G01*
X106791000Y-102990001D02*
X106791000Y-102089999D01*
G75*
G02*
X107040999Y-101840000I249999J0D01*
G01*
X107691001Y-101840000D01*
G75*
G02*
X107941000Y-102089999I0J-249999D01*
G01*
X107941000Y-102990001D01*
G75*
G02*
X107691001Y-103240000I-249999J0D01*
G01*
X107040999Y-103240000D01*
G75*
G02*
X106791000Y-102990001I0J249999D01*
G01*
G37*
%TD.AperFunction*%
%TD*%
%TO.P,C1,2*%
%TO.N,VCC*%
%TA.AperFunction,SMDPad,CuDef*%
G36*
G01*
X107941000Y-111233999D02*
X107941000Y-112134001D01*
G75*
G02*
X107691001Y-112384000I-249999J0D01*
G01*
X107040999Y-112384000D01*
G75*
G02*
X106791000Y-112134001I0J249999D01*
G01*
X106791000Y-111233999D01*
G75*
G02*
X107040999Y-110984000I249999J0D01*
G01*
X107691001Y-110984000D01*
G75*
G02*
X107941000Y-111233999I0J-249999D01*
G01*
G37*
%TD.AperFunction*%
%TO.P,C1,1*%
%TO.N,GND*%
%TA.AperFunction,SMDPad,CuDef*%
G36*
G01*
X109991000Y-111233999D02*
X109991000Y-112134001D01*
G75*
G02*
X109741001Y-112384000I-249999J0D01*
G01*
X109090999Y-112384000D01*
G75*
G02*
X108841000Y-112134001I0J249999D01*
G01*
X108841000Y-111233999D01*
G75*
G02*
X109090999Y-110984000I249999J0D01*
G01*
X109741001Y-110984000D01*
G75*
G02*
X109991000Y-111233999I0J-249999D01*
G01*
G37*
%TD.AperFunction*%
%TD*%
D11*
%TO.P,RV1,1*%
%TO.N,Net-(R12-Pad2)*%
X112446000Y-93650000D03*
%TO.P,RV1,2*%
%TO.N,VBUS*%
X109906000Y-96190000D03*
%TO.P,RV1,3*%
X107366000Y-93650000D03*
%TD*%
%TO.P,R12,2*%
%TO.N,Net-(R12-Pad2)*%
%TA.AperFunction,SMDPad,CuDef*%
G36*
G01*
X108832000Y-100958001D02*
X108832000Y-100057999D01*
G75*
G02*
X109081999Y-99808000I249999J0D01*
G01*
X109732001Y-99808000D01*
G75*
G02*
X109982000Y-100057999I0J-249999D01*
G01*
X109982000Y-100958001D01*
G75*
G02*
X109732001Y-101208000I-249999J0D01*
G01*
X109081999Y-101208000D01*
G75*
G02*
X108832000Y-100958001I0J249999D01*
G01*
G37*
%TD.AperFunction*%
%TO.P,R12,1*%
%TO.N,VBUS*%
%TA.AperFunction,SMDPad,CuDef*%
G36*
G01*
X106782000Y-100958001D02*
X106782000Y-100057999D01*
G75*
G02*
X107031999Y-99808000I249999J0D01*
G01*
X107682001Y-99808000D01*
G75*
G02*
X107932000Y-100057999I0J-249999D01*
G01*
X107932000Y-100958001D01*
G75*
G02*
X107682001Y-101208000I-249999J0D01*
G01*
X107031999Y-101208000D01*
G75*
G02*
X106782000Y-100958001I0J249999D01*
G01*
G37*
%TD.AperFunction*%
%TD*%
%TO.P,C5,2*%
%TO.N,GND*%
%TA.AperFunction,SMDPad,CuDef*%
G36*
G01*
X108841000Y-114166001D02*
X108841000Y-113265999D01*
G75*
G02*
X109090999Y-113016000I249999J0D01*
G01*
X109741001Y-113016000D01*
G75*
G02*
X109991000Y-113265999I0J-249999D01*
G01*
X109991000Y-114166001D01*
G75*
G02*
X109741001Y-114416000I-249999J0D01*
G01*
X109090999Y-114416000D01*
G75*
G02*
X108841000Y-114166001I0J249999D01*
G01*
G37*
%TD.AperFunction*%
%TO.P,C5,1*%
%TO.N,VCC*%
%TA.AperFunction,SMDPad,CuDef*%
G36*
G01*
X106791000Y-114166001D02*
X106791000Y-113265999D01*
G75*
G02*
X107040999Y-113016000I249999J0D01*
G01*
X107691001Y-113016000D01*
G75*
G02*
X107941000Y-113265999I0J-249999D01*
G01*
X107941000Y-114166001D01*
G75*
G02*
X107691001Y-114416000I-249999J0D01*
G01*
X107040999Y-114416000D01*
G75*
G02*
X106791000Y-114166001I0J249999D01*
G01*
G37*
%TD.AperFunction*%
%TD*%
%TO.P,L1,2*%
%TO.N,/L*%
%TA.AperFunction,SMDPad,CuDef*%
G36*
G01*
X104885000Y-109421500D02*
X102735000Y-109421500D01*
G75*
G02*
X102485000Y-109171500I0J250000D01*
G01*
X102485000Y-108246500D01*
G75*
G02*
X102735000Y-107996500I250000J0D01*
G01*
X104885000Y-107996500D01*
G75*
G02*
X105135000Y-108246500I0J-250000D01*
G01*
X105135000Y-109171500D01*
G75*
G02*
X104885000Y-109421500I-250000J0D01*
G01*
G37*
%TD.AperFunction*%
%TO.P,L1,1*%
%TO.N,VCC*%
%TA.AperFunction,SMDPad,CuDef*%
G36*
G01*
X104885000Y-112396500D02*
X102735000Y-112396500D01*
G75*
G02*
X102485000Y-112146500I0J250000D01*
G01*
X102485000Y-111221500D01*
G75*
G02*
X102735000Y-110971500I250000J0D01*
G01*
X104885000Y-110971500D01*
G75*
G02*
X105135000Y-111221500I0J-250000D01*
G01*
X105135000Y-112146500D01*
G75*
G02*
X104885000Y-112396500I-250000J0D01*
G01*
G37*
%TD.AperFunction*%
%TD*%
D12*
%TO.P,D13,2*%
%TO.N,/L*%
X103810000Y-106064000D03*
%TO.P,D13,1*%
%TO.N,VBUS*%
X103810000Y-102064000D03*
%TD*%
%TO.P,C4,2*%
%TO.N,VBUS*%
%TA.AperFunction,SMDPad,CuDef*%
G36*
G01*
X103235000Y-95878001D02*
X103235000Y-94977999D01*
G75*
G02*
X103484999Y-94728000I249999J0D01*
G01*
X104135001Y-94728000D01*
G75*
G02*
X104385000Y-94977999I0J-249999D01*
G01*
X104385000Y-95878001D01*
G75*
G02*
X104135001Y-96128000I-249999J0D01*
G01*
X103484999Y-96128000D01*
G75*
G02*
X103235000Y-95878001I0J249999D01*
G01*
G37*
%TD.AperFunction*%
%TO.P,C4,1*%
%TO.N,GND*%
%TA.AperFunction,SMDPad,CuDef*%
G36*
G01*
X101185000Y-95878001D02*
X101185000Y-94977999D01*
G75*
G02*
X101434999Y-94728000I249999J0D01*
G01*
X102085001Y-94728000D01*
G75*
G02*
X102335000Y-94977999I0J-249999D01*
G01*
X102335000Y-95878001D01*
G75*
G02*
X102085001Y-96128000I-249999J0D01*
G01*
X101434999Y-96128000D01*
G75*
G02*
X101185000Y-95878001I0J249999D01*
G01*
G37*
%TD.AperFunction*%
%TD*%
D13*
%TO.P,U1,5*%
%TO.N,VCC*%
X107366000Y-109398000D03*
%TO.P,U1,6*%
%TO.N,Net-(R10-Pad1)*%
X106416000Y-109398000D03*
%TO.P,U1,4*%
%TO.N,/OPT_E*%
X108316000Y-109398000D03*
%TO.P,U1,3*%
%TO.N,/FB*%
X108316000Y-106698000D03*
%TO.P,U1,2*%
%TO.N,GND*%
X107366000Y-106698000D03*
%TO.P,U1,1*%
%TO.N,/L*%
X106416000Y-106698000D03*
%TD*%
%TO.P,R11,2*%
%TO.N,GND*%
%TA.AperFunction,SMDPad,CuDef*%
G36*
G01*
X107941000Y-104121999D02*
X107941000Y-105022001D01*
G75*
G02*
X107691001Y-105272000I-249999J0D01*
G01*
X107040999Y-105272000D01*
G75*
G02*
X106791000Y-105022001I0J249999D01*
G01*
X106791000Y-104121999D01*
G75*
G02*
X107040999Y-103872000I249999J0D01*
G01*
X107691001Y-103872000D01*
G75*
G02*
X107941000Y-104121999I0J-249999D01*
G01*
G37*
%TD.AperFunction*%
%TO.P,R11,1*%
%TO.N,/FB*%
%TA.AperFunction,SMDPad,CuDef*%
G36*
G01*
X109991000Y-104121999D02*
X109991000Y-105022001D01*
G75*
G02*
X109741001Y-105272000I-249999J0D01*
G01*
X109090999Y-105272000D01*
G75*
G02*
X108841000Y-105022001I0J249999D01*
G01*
X108841000Y-104121999D01*
G75*
G02*
X109090999Y-103872000I249999J0D01*
G01*
X109741001Y-103872000D01*
G75*
G02*
X109991000Y-104121999I0J-249999D01*
G01*
G37*
%TD.AperFunction*%
%TD*%
%TO.P,R10,2*%
%TO.N,GND*%
%TA.AperFunction,SMDPad,CuDef*%
G36*
G01*
X110610001Y-107678000D02*
X109709999Y-107678000D01*
G75*
G02*
X109460000Y-107428001I0J249999D01*
G01*
X109460000Y-106777999D01*
G75*
G02*
X109709999Y-106528000I249999J0D01*
G01*
X110610001Y-106528000D01*
G75*
G02*
X110860000Y-106777999I0J-249999D01*
G01*
X110860000Y-107428001D01*
G75*
G02*
X110610001Y-107678000I-249999J0D01*
G01*
G37*
%TD.AperFunction*%
%TO.P,R10,1*%
%TO.N,Net-(R10-Pad1)*%
%TA.AperFunction,SMDPad,CuDef*%
G36*
G01*
X110610001Y-109728000D02*
X109709999Y-109728000D01*
G75*
G02*
X109460000Y-109478001I0J249999D01*
G01*
X109460000Y-108827999D01*
G75*
G02*
X109709999Y-108578000I249999J0D01*
G01*
X110610001Y-108578000D01*
G75*
G02*
X110860000Y-108827999I0J-249999D01*
G01*
X110860000Y-109478001D01*
G75*
G02*
X110610001Y-109728000I-249999J0D01*
G01*
G37*
%TD.AperFunction*%
%TD*%
%TO.P,R9,2*%
%TO.N,GND*%
%TA.AperFunction,SMDPad,CuDef*%
G36*
G01*
X109340000Y-119754001D02*
X109340000Y-118853999D01*
G75*
G02*
X109589999Y-118604000I249999J0D01*
G01*
X110240001Y-118604000D01*
G75*
G02*
X110490000Y-118853999I0J-249999D01*
G01*
X110490000Y-119754001D01*
G75*
G02*
X110240001Y-120004000I-249999J0D01*
G01*
X109589999Y-120004000D01*
G75*
G02*
X109340000Y-119754001I0J249999D01*
G01*
G37*
%TD.AperFunction*%
%TO.P,R9,1*%
%TO.N,/OPT_E*%
%TA.AperFunction,SMDPad,CuDef*%
G36*
G01*
X107290000Y-119754001D02*
X107290000Y-118853999D01*
G75*
G02*
X107539999Y-118604000I249999J0D01*
G01*
X108190001Y-118604000D01*
G75*
G02*
X108440000Y-118853999I0J-249999D01*
G01*
X108440000Y-119754001D01*
G75*
G02*
X108190001Y-120004000I-249999J0D01*
G01*
X107539999Y-120004000D01*
G75*
G02*
X107290000Y-119754001I0J249999D01*
G01*
G37*
%TD.AperFunction*%
%TD*%
%TO.P,C3,2*%
%TO.N,GND*%
%TA.AperFunction,SMDPad,CuDef*%
G36*
G01*
X102335000Y-99041999D02*
X102335000Y-99942001D01*
G75*
G02*
X102085001Y-100192000I-249999J0D01*
G01*
X101434999Y-100192000D01*
G75*
G02*
X101185000Y-99942001I0J249999D01*
G01*
X101185000Y-99041999D01*
G75*
G02*
X101434999Y-98792000I249999J0D01*
G01*
X102085001Y-98792000D01*
G75*
G02*
X102335000Y-99041999I0J-249999D01*
G01*
G37*
%TD.AperFunction*%
%TO.P,C3,1*%
%TO.N,VBUS*%
%TA.AperFunction,SMDPad,CuDef*%
G36*
G01*
X104385000Y-99041999D02*
X104385000Y-99942001D01*
G75*
G02*
X104135001Y-100192000I-249999J0D01*
G01*
X103484999Y-100192000D01*
G75*
G02*
X103235000Y-99942001I0J249999D01*
G01*
X103235000Y-99041999D01*
G75*
G02*
X103484999Y-98792000I249999J0D01*
G01*
X104135001Y-98792000D01*
G75*
G02*
X104385000Y-99041999I0J-249999D01*
G01*
G37*
%TD.AperFunction*%
%TD*%
%TO.P,C2,2*%
%TO.N,GND*%
%TA.AperFunction,SMDPad,CuDef*%
G36*
G01*
X102335000Y-97009999D02*
X102335000Y-97910001D01*
G75*
G02*
X102085001Y-98160000I-249999J0D01*
G01*
X101434999Y-98160000D01*
G75*
G02*
X101185000Y-97910001I0J249999D01*
G01*
X101185000Y-97009999D01*
G75*
G02*
X101434999Y-96760000I249999J0D01*
G01*
X102085001Y-96760000D01*
G75*
G02*
X102335000Y-97009999I0J-249999D01*
G01*
G37*
%TD.AperFunction*%
%TO.P,C2,1*%
%TO.N,VBUS*%
%TA.AperFunction,SMDPad,CuDef*%
G36*
G01*
X104385000Y-97009999D02*
X104385000Y-97910001D01*
G75*
G02*
X104135001Y-98160000I-249999J0D01*
G01*
X103484999Y-98160000D01*
G75*
G02*
X103235000Y-97910001I0J249999D01*
G01*
X103235000Y-97009999D01*
G75*
G02*
X103484999Y-96760000I249999J0D01*
G01*
X104135001Y-96760000D01*
G75*
G02*
X104385000Y-97009999I0J-249999D01*
G01*
G37*
%TD.AperFunction*%
%TD*%
%TO.P,R8,2*%
%TO.N,/cur_test*%
%TA.AperFunction,SMDPad,CuDef*%
G36*
G01*
X123625000Y-81712500D02*
X122375000Y-81712500D01*
G75*
G02*
X122125000Y-81462500I0J250000D01*
G01*
X122125000Y-80537500D01*
G75*
G02*
X122375000Y-80287500I250000J0D01*
G01*
X123625000Y-80287500D01*
G75*
G02*
X123875000Y-80537500I0J-250000D01*
G01*
X123875000Y-81462500D01*
G75*
G02*
X123625000Y-81712500I-250000J0D01*
G01*
G37*
%TD.AperFunction*%
%TO.P,R8,1*%
%TO.N,GND*%
%TA.AperFunction,SMDPad,CuDef*%
G36*
G01*
X123625000Y-84687500D02*
X122375000Y-84687500D01*
G75*
G02*
X122125000Y-84437500I0J250000D01*
G01*
X122125000Y-83512500D01*
G75*
G02*
X122375000Y-83262500I250000J0D01*
G01*
X123625000Y-83262500D01*
G75*
G02*
X123875000Y-83512500I0J-250000D01*
G01*
X123875000Y-84437500D01*
G75*
G02*
X123625000Y-84687500I-250000J0D01*
G01*
G37*
%TD.AperFunction*%
%TD*%
%TO.P,R7,2*%
%TO.N,Net-(D11-Pad1)*%
%TA.AperFunction,SMDPad,CuDef*%
G36*
G01*
X105625000Y-81712500D02*
X104375000Y-81712500D01*
G75*
G02*
X104125000Y-81462500I0J250000D01*
G01*
X104125000Y-80537500D01*
G75*
G02*
X104375000Y-80287500I250000J0D01*
G01*
X105625000Y-80287500D01*
G75*
G02*
X105875000Y-80537500I0J-250000D01*
G01*
X105875000Y-81462500D01*
G75*
G02*
X105625000Y-81712500I-250000J0D01*
G01*
G37*
%TD.AperFunction*%
%TO.P,R7,1*%
%TO.N,GND*%
%TA.AperFunction,SMDPad,CuDef*%
G36*
G01*
X105625000Y-84687500D02*
X104375000Y-84687500D01*
G75*
G02*
X104125000Y-84437500I0J250000D01*
G01*
X104125000Y-83512500D01*
G75*
G02*
X104375000Y-83262500I250000J0D01*
G01*
X105625000Y-83262500D01*
G75*
G02*
X105875000Y-83512500I0J-250000D01*
G01*
X105875000Y-84437500D01*
G75*
G02*
X105625000Y-84687500I-250000J0D01*
G01*
G37*
%TD.AperFunction*%
%TD*%
%TO.P,R6,2*%
%TO.N,Net-(D10-Pad1)*%
%TA.AperFunction,SMDPad,CuDef*%
G36*
G01*
X87625000Y-81712500D02*
X86375000Y-81712500D01*
G75*
G02*
X86125000Y-81462500I0J250000D01*
G01*
X86125000Y-80537500D01*
G75*
G02*
X86375000Y-80287500I250000J0D01*
G01*
X87625000Y-80287500D01*
G75*
G02*
X87875000Y-80537500I0J-250000D01*
G01*
X87875000Y-81462500D01*
G75*
G02*
X87625000Y-81712500I-250000J0D01*
G01*
G37*
%TD.AperFunction*%
%TO.P,R6,1*%
%TO.N,GND*%
%TA.AperFunction,SMDPad,CuDef*%
G36*
G01*
X87625000Y-84687500D02*
X86375000Y-84687500D01*
G75*
G02*
X86125000Y-84437500I0J250000D01*
G01*
X86125000Y-83512500D01*
G75*
G02*
X86375000Y-83262500I250000J0D01*
G01*
X87625000Y-83262500D01*
G75*
G02*
X87875000Y-83512500I0J-250000D01*
G01*
X87875000Y-84437500D01*
G75*
G02*
X87625000Y-84687500I-250000J0D01*
G01*
G37*
%TD.AperFunction*%
%TD*%
%TO.P,R5,2*%
%TO.N,Net-(D9-Pad1)*%
%TA.AperFunction,SMDPad,CuDef*%
G36*
G01*
X69625000Y-81712500D02*
X68375000Y-81712500D01*
G75*
G02*
X68125000Y-81462500I0J250000D01*
G01*
X68125000Y-80537500D01*
G75*
G02*
X68375000Y-80287500I250000J0D01*
G01*
X69625000Y-80287500D01*
G75*
G02*
X69875000Y-80537500I0J-250000D01*
G01*
X69875000Y-81462500D01*
G75*
G02*
X69625000Y-81712500I-250000J0D01*
G01*
G37*
%TD.AperFunction*%
%TO.P,R5,1*%
%TO.N,GND*%
%TA.AperFunction,SMDPad,CuDef*%
G36*
G01*
X69625000Y-84687500D02*
X68375000Y-84687500D01*
G75*
G02*
X68125000Y-84437500I0J250000D01*
G01*
X68125000Y-83512500D01*
G75*
G02*
X68375000Y-83262500I250000J0D01*
G01*
X69625000Y-83262500D01*
G75*
G02*
X69875000Y-83512500I0J-250000D01*
G01*
X69875000Y-84437500D01*
G75*
G02*
X69625000Y-84687500I-250000J0D01*
G01*
G37*
%TD.AperFunction*%
%TD*%
%TO.P,R4,1*%
%TO.N,GND*%
%TA.AperFunction,SMDPad,CuDef*%
G36*
G01*
X120950001Y-83625000D02*
X120049999Y-83625000D01*
G75*
G02*
X119800000Y-83375001I0J249999D01*
G01*
X119800000Y-82724999D01*
G75*
G02*
X120049999Y-82475000I249999J0D01*
G01*
X120950001Y-82475000D01*
G75*
G02*
X121200000Y-82724999I0J-249999D01*
G01*
X121200000Y-83375001D01*
G75*
G02*
X120950001Y-83625000I-249999J0D01*
G01*
G37*
%TD.AperFunction*%
%TO.P,R4,2*%
%TO.N,/cur_test*%
%TA.AperFunction,SMDPad,CuDef*%
G36*
G01*
X120950001Y-81575000D02*
X120049999Y-81575000D01*
G75*
G02*
X119800000Y-81325001I0J249999D01*
G01*
X119800000Y-80674999D01*
G75*
G02*
X120049999Y-80425000I249999J0D01*
G01*
X120950001Y-80425000D01*
G75*
G02*
X121200000Y-80674999I0J-249999D01*
G01*
X121200000Y-81325001D01*
G75*
G02*
X120950001Y-81575000I-249999J0D01*
G01*
G37*
%TD.AperFunction*%
%TD*%
%TO.P,R3,2*%
%TO.N,Net-(D11-Pad1)*%
%TA.AperFunction,SMDPad,CuDef*%
G36*
G01*
X102950001Y-81575000D02*
X102049999Y-81575000D01*
G75*
G02*
X101800000Y-81325001I0J249999D01*
G01*
X101800000Y-80674999D01*
G75*
G02*
X102049999Y-80425000I249999J0D01*
G01*
X102950001Y-80425000D01*
G75*
G02*
X103200000Y-80674999I0J-249999D01*
G01*
X103200000Y-81325001D01*
G75*
G02*
X102950001Y-81575000I-249999J0D01*
G01*
G37*
%TD.AperFunction*%
%TO.P,R3,1*%
%TO.N,GND*%
%TA.AperFunction,SMDPad,CuDef*%
G36*
G01*
X102950001Y-83625000D02*
X102049999Y-83625000D01*
G75*
G02*
X101800000Y-83375001I0J249999D01*
G01*
X101800000Y-82724999D01*
G75*
G02*
X102049999Y-82475000I249999J0D01*
G01*
X102950001Y-82475000D01*
G75*
G02*
X103200000Y-82724999I0J-249999D01*
G01*
X103200000Y-83375001D01*
G75*
G02*
X102950001Y-83625000I-249999J0D01*
G01*
G37*
%TD.AperFunction*%
%TD*%
%TO.P,R2,2*%
%TO.N,Net-(D10-Pad1)*%
%TA.AperFunction,SMDPad,CuDef*%
G36*
G01*
X84950001Y-81575000D02*
X84049999Y-81575000D01*
G75*
G02*
X83800000Y-81325001I0J249999D01*
G01*
X83800000Y-80674999D01*
G75*
G02*
X84049999Y-80425000I249999J0D01*
G01*
X84950001Y-80425000D01*
G75*
G02*
X85200000Y-80674999I0J-249999D01*
G01*
X85200000Y-81325001D01*
G75*
G02*
X84950001Y-81575000I-249999J0D01*
G01*
G37*
%TD.AperFunction*%
%TO.P,R2,1*%
%TO.N,GND*%
%TA.AperFunction,SMDPad,CuDef*%
G36*
G01*
X84950001Y-83625000D02*
X84049999Y-83625000D01*
G75*
G02*
X83800000Y-83375001I0J249999D01*
G01*
X83800000Y-82724999D01*
G75*
G02*
X84049999Y-82475000I249999J0D01*
G01*
X84950001Y-82475000D01*
G75*
G02*
X85200000Y-82724999I0J-249999D01*
G01*
X85200000Y-83375001D01*
G75*
G02*
X84950001Y-83625000I-249999J0D01*
G01*
G37*
%TD.AperFunction*%
%TD*%
D14*
%TO.P,D12,2*%
%TO.N,Net-(D12-Pad2)*%
X114730000Y-81000000D03*
D15*
%TO.P,D12,1*%
%TO.N,/cur_test*%
X117270000Y-81000000D03*
%TD*%
D14*
%TO.P,D11,2*%
%TO.N,Net-(D11-Pad2)*%
X96730000Y-81000000D03*
D15*
%TO.P,D11,1*%
%TO.N,Net-(D11-Pad1)*%
X99270000Y-81000000D03*
%TD*%
D14*
%TO.P,D10,2*%
%TO.N,Net-(D10-Pad2)*%
X78730000Y-81000000D03*
D15*
%TO.P,D10,1*%
%TO.N,Net-(D10-Pad1)*%
X81270000Y-81000000D03*
%TD*%
D14*
%TO.P,D9,2*%
%TO.N,Net-(D5-Pad1)*%
X60730000Y-81000000D03*
D15*
%TO.P,D9,1*%
%TO.N,Net-(D9-Pad1)*%
X63270000Y-81000000D03*
%TD*%
D14*
%TO.P,D8,2*%
%TO.N,Net-(D4-Pad1)*%
X114730000Y-100000000D03*
D15*
%TO.P,D8,1*%
%TO.N,Net-(D12-Pad2)*%
X117270000Y-100000000D03*
%TD*%
D14*
%TO.P,D7,2*%
%TO.N,Net-(D3-Pad1)*%
X96730000Y-100000000D03*
D15*
%TO.P,D7,1*%
%TO.N,Net-(D11-Pad2)*%
X99270000Y-100000000D03*
%TD*%
D14*
%TO.P,D6,2*%
%TO.N,Net-(D2-Pad1)*%
X78730000Y-100000000D03*
D15*
%TO.P,D6,1*%
%TO.N,Net-(D10-Pad2)*%
X81270000Y-100000000D03*
%TD*%
D14*
%TO.P,D5,2*%
%TO.N,Net-(D1-Pad1)*%
X60730000Y-100000000D03*
D15*
%TO.P,D5,1*%
%TO.N,Net-(D5-Pad1)*%
X63270000Y-100000000D03*
%TD*%
D16*
%TO.P,J1,4*%
%TO.N,GND*%
X110160000Y-116510000D03*
%TO.P,J1,3*%
%TO.N,/OPT_E*%
X107620000Y-116510000D03*
%TO.P,J1,2*%
%TO.N,VCC*%
X105080000Y-116510000D03*
D17*
%TO.P,J1,1*%
X102540000Y-116510000D03*
%TD*%
%TO.P,R1,2*%
%TO.N,Net-(D9-Pad1)*%
%TA.AperFunction,SMDPad,CuDef*%
G36*
G01*
X66950001Y-81575000D02*
X66049999Y-81575000D01*
G75*
G02*
X65800000Y-81325001I0J249999D01*
G01*
X65800000Y-80674999D01*
G75*
G02*
X66049999Y-80425000I249999J0D01*
G01*
X66950001Y-80425000D01*
G75*
G02*
X67200000Y-80674999I0J-249999D01*
G01*
X67200000Y-81325001D01*
G75*
G02*
X66950001Y-81575000I-249999J0D01*
G01*
G37*
%TD.AperFunction*%
%TO.P,R1,1*%
%TO.N,GND*%
%TA.AperFunction,SMDPad,CuDef*%
G36*
G01*
X66950001Y-83625000D02*
X66049999Y-83625000D01*
G75*
G02*
X65800000Y-83375001I0J249999D01*
G01*
X65800000Y-82724999D01*
G75*
G02*
X66049999Y-82475000I249999J0D01*
G01*
X66950001Y-82475000D01*
G75*
G02*
X67200000Y-82724999I0J-249999D01*
G01*
X67200000Y-83375001D01*
G75*
G02*
X66950001Y-83625000I-249999J0D01*
G01*
G37*
%TD.AperFunction*%
%TD*%
D14*
%TO.P,D4,2*%
%TO.N,VBUS*%
X114730000Y-119000000D03*
D15*
%TO.P,D4,1*%
%TO.N,Net-(D4-Pad1)*%
X117270000Y-119000000D03*
%TD*%
D14*
%TO.P,D3,2*%
%TO.N,VBUS*%
X96730000Y-119000000D03*
D15*
%TO.P,D3,1*%
%TO.N,Net-(D3-Pad1)*%
X99270000Y-119000000D03*
%TD*%
D14*
%TO.P,D2,2*%
%TO.N,VBUS*%
X78730000Y-119000000D03*
D15*
%TO.P,D2,1*%
%TO.N,Net-(D2-Pad1)*%
X81270000Y-119000000D03*
%TD*%
D14*
%TO.P,D1,2*%
%TO.N,VBUS*%
X60730000Y-119000000D03*
D15*
%TO.P,D1,1*%
%TO.N,Net-(D1-Pad1)*%
X63270000Y-119000000D03*
%TD*%
D18*
%TO.N,VCC*%
X102540000Y-119558000D03*
%TO.N,GND*%
X89586000Y-118415000D03*
X122860000Y-86538000D03*
X66980000Y-84252000D03*
X103048000Y-84252000D03*
X84760000Y-84252000D03*
X120828000Y-84252000D03*
X109398000Y-110414000D03*
X111430000Y-107112000D03*
X107366000Y-105588000D03*
X101760000Y-96462000D03*
X101760000Y-98494000D03*
X106350000Y-104572000D03*
X109416000Y-112682000D03*
X106096000Y-96444000D03*
X106096000Y-97968000D03*
X106096000Y-99492000D03*
X106096000Y-101270000D03*
X106096000Y-102794000D03*
%TO.N,VBUS*%
X93015000Y-118415000D03*
%TO.N,Net-(D11-Pad2)*%
X98095000Y-94920000D03*
X96825000Y-92380000D03*
%TO.N,/cur_test*%
X125654000Y-80950000D03*
%TD*%
D19*
%TO.N,VCC*%
X107366000Y-109398000D02*
X107366000Y-111684000D01*
D20*
X107366000Y-113716000D02*
X107366000Y-111684000D01*
X103810000Y-111684000D02*
X107366000Y-111684000D01*
X107366000Y-114224000D02*
X107366000Y-113716000D01*
X105080000Y-116510000D02*
X107366000Y-114224000D01*
D21*
X102540000Y-116510000D02*
X102540000Y-119558000D01*
D20*
X102540000Y-116510000D02*
X105080000Y-116510000D01*
D21*
X102540000Y-119558000D02*
X102540000Y-119558000D01*
%TO.N,Net-(D1-Pad1)*%
X60730000Y-100000000D02*
X60730000Y-106730000D01*
X63270000Y-109270000D02*
X63270000Y-119000000D01*
X60730000Y-106730000D02*
X63270000Y-109270000D01*
%TO.N,Net-(D2-Pad1)*%
X78730000Y-100000000D02*
X78730000Y-107730000D01*
X81270000Y-110270000D02*
X81270000Y-119000000D01*
X78730000Y-107730000D02*
X81270000Y-110270000D01*
%TO.N,Net-(D3-Pad1)*%
X96730000Y-108160000D02*
X96730000Y-100000000D01*
X99270000Y-119000000D02*
X99270000Y-110700000D01*
X99270000Y-110700000D02*
X96730000Y-108160000D01*
%TO.N,Net-(D4-Pad1)*%
X114730000Y-100000000D02*
X114730000Y-105840000D01*
X117270000Y-108380000D02*
X117270000Y-119000000D01*
X114730000Y-105840000D02*
X117270000Y-108380000D01*
%TO.N,GND*%
X66500000Y-83772000D02*
X66980000Y-84252000D01*
X66500000Y-83050000D02*
X66500000Y-83772000D01*
X102500000Y-83704000D02*
X103048000Y-84252000D01*
X102500000Y-83050000D02*
X102500000Y-83704000D01*
X84500000Y-83992000D02*
X84760000Y-84252000D01*
X84500000Y-83050000D02*
X84500000Y-83992000D01*
X120500000Y-83050000D02*
X120500000Y-83924000D01*
X120500000Y-83924000D02*
X120828000Y-84252000D01*
X104723000Y-84252000D02*
X103048000Y-84252000D01*
X105000000Y-83975000D02*
X104723000Y-84252000D01*
X122860000Y-84252000D02*
X120828000Y-84252000D01*
X123000000Y-83975000D02*
X123000000Y-84112000D01*
X123000000Y-84112000D02*
X122860000Y-84252000D01*
X86723000Y-84252000D02*
X84760000Y-84252000D01*
X87000000Y-83975000D02*
X86723000Y-84252000D01*
X68723000Y-84252000D02*
X66980000Y-84252000D01*
X69000000Y-83975000D02*
X68723000Y-84252000D01*
X109416000Y-111684000D02*
X109416000Y-112682000D01*
X109416000Y-115766000D02*
X110160000Y-116510000D01*
X109416000Y-113716000D02*
X109416000Y-115766000D01*
X109416000Y-111684000D02*
X109416000Y-110432000D01*
X109416000Y-110432000D02*
X109398000Y-110414000D01*
X110160000Y-107103000D02*
X111421000Y-107103000D01*
X111421000Y-107103000D02*
X111430000Y-107112000D01*
X107366000Y-106698000D02*
X107366000Y-105588000D01*
X107366000Y-105588000D02*
X107366000Y-104572000D01*
D20*
X101760000Y-99492000D02*
X101760000Y-98494000D01*
X101760000Y-97460000D02*
X101760000Y-96462000D01*
X101760000Y-96462000D02*
X101760000Y-95428000D01*
X101760000Y-98494000D02*
X101760000Y-97460000D01*
D21*
X107366000Y-104572000D02*
X106350000Y-104572000D01*
X109416000Y-112682000D02*
X109416000Y-113716000D01*
D19*
X106350000Y-104572000D02*
X106096000Y-104318000D01*
X106096000Y-104318000D02*
X106096000Y-102794000D01*
X106096000Y-97968000D02*
X106096000Y-96444000D01*
X106096000Y-99492000D02*
X106096000Y-97968000D01*
X106096000Y-101270000D02*
X106096000Y-99492000D01*
X106096000Y-102794000D02*
X106096000Y-101270000D01*
D21*
X110160000Y-119059000D02*
X109915000Y-119304000D01*
X110160000Y-116510000D02*
X110160000Y-119059000D01*
%TO.N,/OPT_E*%
X108341010Y-115788990D02*
X107620000Y-116510000D01*
X108316000Y-109398000D02*
X108341010Y-109423010D01*
X108341010Y-109423010D02*
X108341010Y-115788990D01*
X107620000Y-119059000D02*
X107865000Y-119304000D01*
X107620000Y-116510000D02*
X107620000Y-119059000D01*
D20*
%TO.N,VBUS*%
X114730000Y-120324000D02*
X114730000Y-119000000D01*
X113779010Y-121274990D02*
X114730000Y-120324000D01*
X60730000Y-119000000D02*
X60730000Y-120272792D01*
X60730000Y-120272792D02*
X61732198Y-121274990D01*
X96730000Y-121241000D02*
X96763990Y-121274990D01*
X96730000Y-119000000D02*
X96730000Y-121241000D01*
X96763990Y-121274990D02*
X113779010Y-121274990D01*
X78730000Y-121270000D02*
X78725010Y-121274990D01*
X78730000Y-119000000D02*
X78730000Y-121270000D01*
X61732198Y-121274990D02*
X78725010Y-121274990D01*
X103810000Y-102064000D02*
X103810000Y-99492000D01*
X103810000Y-99492000D02*
X103810000Y-97460000D01*
X103810000Y-97460000D02*
X103810000Y-95428000D01*
D21*
X107366000Y-100499000D02*
X107357000Y-100508000D01*
X103810000Y-95428000D02*
X107366000Y-95428000D01*
X107366000Y-93650000D02*
X107366000Y-95428000D01*
X107366000Y-95428000D02*
X107366000Y-100499000D01*
X93015000Y-118415000D02*
X93015000Y-118415000D01*
D20*
X78725010Y-121274990D02*
X92949010Y-121274990D01*
X92949010Y-121274990D02*
X96763990Y-121274990D01*
X93015000Y-121209000D02*
X92949010Y-121274990D01*
X93015000Y-118415000D02*
X93015000Y-121209000D01*
X93015000Y-98095000D02*
X93015000Y-118415000D01*
X103302000Y-93650000D02*
X97460000Y-93650000D01*
X97460000Y-93650000D02*
X93015000Y-98095000D01*
X103810000Y-95428000D02*
X103810000Y-94158000D01*
X103810000Y-94158000D02*
X103302000Y-93650000D01*
X93015000Y-118415000D02*
X93015000Y-118415000D01*
D21*
X109906000Y-96190000D02*
X107366000Y-93650000D01*
%TO.N,Net-(D5-Pad1)*%
X60730000Y-81000000D02*
X60730000Y-87730000D01*
X63270000Y-90270000D02*
X63270000Y-100000000D01*
X60730000Y-87730000D02*
X63270000Y-90270000D01*
%TO.N,Net-(D10-Pad2)*%
X78730000Y-81000000D02*
X78730000Y-88730000D01*
X81270000Y-91270000D02*
X81270000Y-100000000D01*
X78730000Y-88730000D02*
X81270000Y-91270000D01*
%TO.N,Net-(D11-Pad2)*%
X99270000Y-100000000D02*
X99270000Y-96095000D01*
X99270000Y-96095000D02*
X98095000Y-94920000D01*
X96730000Y-92285000D02*
X96825000Y-92380000D01*
X96730000Y-81000000D02*
X96730000Y-92285000D01*
%TO.N,Net-(D12-Pad2)*%
X114730000Y-81000000D02*
X114730000Y-88695000D01*
X117270000Y-91235000D02*
X117270000Y-100000000D01*
X114730000Y-88695000D02*
X117270000Y-91235000D01*
%TO.N,Net-(D9-Pad1)*%
X69000000Y-81000000D02*
X66500000Y-81000000D01*
X66500000Y-81000000D02*
X63270000Y-81000000D01*
%TO.N,Net-(D10-Pad1)*%
X87000000Y-81000000D02*
X84500000Y-81000000D01*
X84500000Y-81000000D02*
X81270000Y-81000000D01*
%TO.N,Net-(D11-Pad1)*%
X105000000Y-81000000D02*
X102500000Y-81000000D01*
X102500000Y-81000000D02*
X99270000Y-81000000D01*
%TO.N,Net-(R10-Pad1)*%
X109135000Y-108128000D02*
X110160000Y-109153000D01*
X106858000Y-108128000D02*
X109135000Y-108128000D01*
X106416000Y-109398000D02*
X106416000Y-108570000D01*
X106416000Y-108570000D02*
X106858000Y-108128000D01*
D20*
%TO.N,/L*%
X103810000Y-106064000D02*
X103810000Y-108709000D01*
D19*
X104444000Y-106698000D02*
X103810000Y-106064000D01*
X106416000Y-106698000D02*
X104444000Y-106698000D01*
D21*
%TO.N,/FB*%
X108316000Y-105672000D02*
X109416000Y-104572000D01*
X108316000Y-106698000D02*
X108316000Y-105672000D01*
X109416000Y-104572000D02*
X109416000Y-102540000D01*
%TO.N,Net-(R12-Pad2)*%
X112446000Y-97469000D02*
X109407000Y-100508000D01*
X112446000Y-93650000D02*
X112446000Y-97469000D01*
X107375000Y-102540000D02*
X109407000Y-100508000D01*
X107366000Y-102540000D02*
X107375000Y-102540000D01*
%TO.N,/cur_test*%
X123000000Y-81000000D02*
X120500000Y-81000000D01*
X120500000Y-81000000D02*
X117270000Y-81000000D01*
X125604000Y-81000000D02*
X125654000Y-80950000D01*
X123000000Y-81000000D02*
X125604000Y-81000000D01*
X125654000Y-80950000D02*
X125654000Y-80950000D01*
%TD*%
D22*
%TO.N,/L*%
G36*
X105293927Y-104853928D02*
G01*
X105400080Y-104983276D01*
X105432795Y-105062256D01*
X105465298Y-105110900D01*
X105470667Y-105128601D01*
X105482403Y-105150557D01*
X105498197Y-105169803D01*
X105517660Y-105189266D01*
X105546063Y-105231774D01*
X105690226Y-105375937D01*
X105732734Y-105404340D01*
X106006197Y-105677803D01*
X106025443Y-105693597D01*
X106047399Y-105705333D01*
X106071224Y-105712560D01*
X106096000Y-105715000D01*
X106335985Y-105715000D01*
X106370774Y-105889898D01*
X106402928Y-105967524D01*
X106402928Y-107424445D01*
X106391854Y-107430364D01*
X106264709Y-107534709D01*
X106238554Y-107566579D01*
X105854574Y-107950559D01*
X105822710Y-107976709D01*
X105796562Y-108008571D01*
X105722143Y-108099251D01*
X105639815Y-108166815D01*
X105560463Y-108263506D01*
X105501498Y-108373820D01*
X105465188Y-108493518D01*
X105452928Y-108618000D01*
X105452928Y-109525000D01*
X102159000Y-109525000D01*
X102159000Y-104699000D01*
X105211116Y-104699000D01*
X105293927Y-104853928D01*
G37*
X105293927Y-104853928D02*
X105400080Y-104983276D01*
X105432795Y-105062256D01*
X105465298Y-105110900D01*
X105470667Y-105128601D01*
X105482403Y-105150557D01*
X105498197Y-105169803D01*
X105517660Y-105189266D01*
X105546063Y-105231774D01*
X105690226Y-105375937D01*
X105732734Y-105404340D01*
X106006197Y-105677803D01*
X106025443Y-105693597D01*
X106047399Y-105705333D01*
X106071224Y-105712560D01*
X106096000Y-105715000D01*
X106335985Y-105715000D01*
X106370774Y-105889898D01*
X106402928Y-105967524D01*
X106402928Y-107424445D01*
X106391854Y-107430364D01*
X106264709Y-107534709D01*
X106238554Y-107566579D01*
X105854574Y-107950559D01*
X105822710Y-107976709D01*
X105796562Y-108008571D01*
X105722143Y-108099251D01*
X105639815Y-108166815D01*
X105560463Y-108263506D01*
X105501498Y-108373820D01*
X105465188Y-108493518D01*
X105452928Y-108618000D01*
X105452928Y-109525000D01*
X102159000Y-109525000D01*
X102159000Y-104699000D01*
X105211116Y-104699000D01*
X105293927Y-104853928D01*
%TD*%
M02*
