%TF.GenerationSoftware,KiCad,Pcbnew,(5.1.6)-1*%
%TF.CreationDate,2021-04-28T12:46:05+02:00*%
%TF.ProjectId,combi_indicator,636f6d62-695f-4696-9e64-696361746f72,rev?*%
%TF.SameCoordinates,Original*%
%TF.FileFunction,Copper,L1,Top*%
%TF.FilePolarity,Positive*%
%FSLAX46Y46*%
G04 Gerber Fmt 4.6, Leading zero omitted, Abs format (unit mm)*
G04 Created by KiCad (PCBNEW (5.1.6)-1) date 2021-04-28 12:46:05*
%MOMM*%
%LPD*%
G01*
G04 APERTURE LIST*
%TA.AperFunction,SMDPad,CuDef*%
%ADD10R,1.500000X1.500000*%
%TD*%
%TA.AperFunction,ComponentPad*%
%ADD11C,1.440000*%
%TD*%
%TA.AperFunction,ComponentPad*%
%ADD12C,1.800000*%
%TD*%
%TA.AperFunction,ComponentPad*%
%ADD13R,1.800000X1.800000*%
%TD*%
%TA.AperFunction,ComponentPad*%
%ADD14O,1.700000X1.700000*%
%TD*%
%TA.AperFunction,ComponentPad*%
%ADD15R,1.700000X1.700000*%
%TD*%
%TA.AperFunction,ViaPad*%
%ADD16C,0.800000*%
%TD*%
%TA.AperFunction,Conductor*%
%ADD17C,0.400000*%
%TD*%
%TA.AperFunction,Conductor*%
%ADD18C,0.254000*%
%TD*%
G04 APERTURE END LIST*
D10*
%TO.P,GND,1*%
%TO.N,GND*%
X122860000Y-86538000D03*
%TD*%
%TO.P,LED current,1*%
%TO.N,/cur_test*%
X125654000Y-80950000D03*
%TD*%
%TO.P,+LED,1*%
%TO.N,VBUS*%
X93015000Y-118415000D03*
%TD*%
%TO.P,GND,1*%
%TO.N,GND*%
X89586000Y-118415000D03*
%TD*%
%TO.P,VCC,1*%
%TO.N,VCC*%
X102540000Y-119558000D03*
%TD*%
D11*
%TO.P,RV1,1*%
%TO.N,Net-(R12-Pad2)*%
X112446000Y-93650000D03*
%TO.P,RV1,2*%
%TO.N,VBUS*%
X109906000Y-96190000D03*
%TO.P,RV1,3*%
X107366000Y-93650000D03*
%TD*%
D12*
%TO.P,D12,2*%
%TO.N,Net-(D12-Pad2)*%
X114730000Y-81000000D03*
D13*
%TO.P,D12,1*%
%TO.N,/cur_test*%
X117270000Y-81000000D03*
%TD*%
D12*
%TO.P,D11,2*%
%TO.N,Net-(D11-Pad2)*%
X96730000Y-81000000D03*
D13*
%TO.P,D11,1*%
%TO.N,Net-(D11-Pad1)*%
X99270000Y-81000000D03*
%TD*%
D12*
%TO.P,D10,2*%
%TO.N,Net-(D10-Pad2)*%
X78730000Y-81000000D03*
D13*
%TO.P,D10,1*%
%TO.N,Net-(D10-Pad1)*%
X81270000Y-81000000D03*
%TD*%
D12*
%TO.P,D9,2*%
%TO.N,Net-(D5-Pad1)*%
X60730000Y-81000000D03*
D13*
%TO.P,D9,1*%
%TO.N,Net-(D9-Pad1)*%
X63270000Y-81000000D03*
%TD*%
D12*
%TO.P,D8,2*%
%TO.N,Net-(D4-Pad1)*%
X114730000Y-100000000D03*
D13*
%TO.P,D8,1*%
%TO.N,Net-(D12-Pad2)*%
X117270000Y-100000000D03*
%TD*%
D12*
%TO.P,D7,2*%
%TO.N,Net-(D3-Pad1)*%
X96730000Y-100000000D03*
D13*
%TO.P,D7,1*%
%TO.N,Net-(D11-Pad2)*%
X99270000Y-100000000D03*
%TD*%
D12*
%TO.P,D6,2*%
%TO.N,Net-(D2-Pad1)*%
X78730000Y-100000000D03*
D13*
%TO.P,D6,1*%
%TO.N,Net-(D10-Pad2)*%
X81270000Y-100000000D03*
%TD*%
D12*
%TO.P,D5,2*%
%TO.N,Net-(D1-Pad1)*%
X60730000Y-100000000D03*
D13*
%TO.P,D5,1*%
%TO.N,Net-(D5-Pad1)*%
X63270000Y-100000000D03*
%TD*%
D14*
%TO.P,J1,4*%
%TO.N,GND*%
X110160000Y-116510000D03*
%TO.P,J1,3*%
%TO.N,/OPT_E*%
X107620000Y-116510000D03*
%TO.P,J1,2*%
%TO.N,VCC*%
X105080000Y-116510000D03*
D15*
%TO.P,J1,1*%
X102540000Y-116510000D03*
%TD*%
D12*
%TO.P,D4,2*%
%TO.N,VBUS*%
X114730000Y-119000000D03*
D13*
%TO.P,D4,1*%
%TO.N,Net-(D4-Pad1)*%
X117270000Y-119000000D03*
%TD*%
D12*
%TO.P,D3,2*%
%TO.N,VBUS*%
X96730000Y-119000000D03*
D13*
%TO.P,D3,1*%
%TO.N,Net-(D3-Pad1)*%
X99270000Y-119000000D03*
%TD*%
D12*
%TO.P,D2,2*%
%TO.N,VBUS*%
X78730000Y-119000000D03*
D13*
%TO.P,D2,1*%
%TO.N,Net-(D2-Pad1)*%
X81270000Y-119000000D03*
%TD*%
D12*
%TO.P,D1,2*%
%TO.N,VBUS*%
X60730000Y-119000000D03*
D13*
%TO.P,D1,1*%
%TO.N,Net-(D1-Pad1)*%
X63270000Y-119000000D03*
%TD*%
D16*
%TO.N,VCC*%
X102540000Y-119558000D03*
%TO.N,GND*%
X89586000Y-118415000D03*
X122860000Y-86538000D03*
X66980000Y-84252000D03*
X103048000Y-84252000D03*
X84760000Y-84252000D03*
X120828000Y-84252000D03*
X109398000Y-110414000D03*
X111430000Y-107112000D03*
X107366000Y-105588000D03*
X101760000Y-96462000D03*
X101760000Y-98494000D03*
X106350000Y-104572000D03*
X109416000Y-112682000D03*
X106096000Y-96444000D03*
X106096000Y-97968000D03*
X106096000Y-99492000D03*
X106096000Y-101270000D03*
X106096000Y-102794000D03*
%TO.N,VBUS*%
X93015000Y-118415000D03*
%TO.N,Net-(D11-Pad2)*%
X98095000Y-94920000D03*
X96825000Y-92380000D03*
%TO.N,/cur_test*%
X125654000Y-80950000D03*
%TD*%
D17*
%TO.N,Net-(D11-Pad2)*%
X97460000Y-93015000D02*
X96825000Y-92380000D01*
X98095000Y-94920000D02*
X97460000Y-94285000D01*
X97460000Y-94285000D02*
X97460000Y-93015000D01*
%TD*%
D18*
%TO.N,GND*%
G36*
X129340000Y-121340000D02*
G01*
X59660000Y-121340000D01*
X59660000Y-120100817D01*
X59751495Y-120192312D01*
X60002905Y-120360299D01*
X60282257Y-120476011D01*
X60578816Y-120535000D01*
X60881184Y-120535000D01*
X61177743Y-120476011D01*
X61457095Y-120360299D01*
X61708505Y-120192312D01*
X61774944Y-120125873D01*
X61780498Y-120144180D01*
X61839463Y-120254494D01*
X61918815Y-120351185D01*
X62015506Y-120430537D01*
X62125820Y-120489502D01*
X62245518Y-120525812D01*
X62370000Y-120538072D01*
X64170000Y-120538072D01*
X64294482Y-120525812D01*
X64414180Y-120489502D01*
X64524494Y-120430537D01*
X64621185Y-120351185D01*
X64700537Y-120254494D01*
X64759502Y-120144180D01*
X64795812Y-120024482D01*
X64808072Y-119900000D01*
X64808072Y-118848816D01*
X77195000Y-118848816D01*
X77195000Y-119151184D01*
X77253989Y-119447743D01*
X77369701Y-119727095D01*
X77537688Y-119978505D01*
X77751495Y-120192312D01*
X78002905Y-120360299D01*
X78282257Y-120476011D01*
X78578816Y-120535000D01*
X78881184Y-120535000D01*
X79177743Y-120476011D01*
X79457095Y-120360299D01*
X79708505Y-120192312D01*
X79774944Y-120125873D01*
X79780498Y-120144180D01*
X79839463Y-120254494D01*
X79918815Y-120351185D01*
X80015506Y-120430537D01*
X80125820Y-120489502D01*
X80245518Y-120525812D01*
X80370000Y-120538072D01*
X82170000Y-120538072D01*
X82294482Y-120525812D01*
X82414180Y-120489502D01*
X82524494Y-120430537D01*
X82621185Y-120351185D01*
X82700537Y-120254494D01*
X82759502Y-120144180D01*
X82795812Y-120024482D01*
X82808072Y-119900000D01*
X82808072Y-119165000D01*
X88197928Y-119165000D01*
X88210188Y-119289482D01*
X88246498Y-119409180D01*
X88305463Y-119519494D01*
X88384815Y-119616185D01*
X88481506Y-119695537D01*
X88591820Y-119754502D01*
X88711518Y-119790812D01*
X88836000Y-119803072D01*
X89300250Y-119800000D01*
X89459000Y-119641250D01*
X89459000Y-118542000D01*
X89713000Y-118542000D01*
X89713000Y-119641250D01*
X89871750Y-119800000D01*
X90336000Y-119803072D01*
X90460482Y-119790812D01*
X90580180Y-119754502D01*
X90690494Y-119695537D01*
X90787185Y-119616185D01*
X90866537Y-119519494D01*
X90925502Y-119409180D01*
X90961812Y-119289482D01*
X90974072Y-119165000D01*
X90971000Y-118700750D01*
X90812250Y-118542000D01*
X89713000Y-118542000D01*
X89459000Y-118542000D01*
X88359750Y-118542000D01*
X88201000Y-118700750D01*
X88197928Y-119165000D01*
X82808072Y-119165000D01*
X82808072Y-118100000D01*
X82795812Y-117975518D01*
X82759502Y-117855820D01*
X82700537Y-117745506D01*
X82634468Y-117665000D01*
X88197928Y-117665000D01*
X88201000Y-118129250D01*
X88359750Y-118288000D01*
X89459000Y-118288000D01*
X89459000Y-117188750D01*
X89713000Y-117188750D01*
X89713000Y-118288000D01*
X90812250Y-118288000D01*
X90971000Y-118129250D01*
X90974072Y-117665000D01*
X91626928Y-117665000D01*
X91626928Y-119165000D01*
X91639188Y-119289482D01*
X91675498Y-119409180D01*
X91734463Y-119519494D01*
X91813815Y-119616185D01*
X91910506Y-119695537D01*
X92020820Y-119754502D01*
X92140518Y-119790812D01*
X92265000Y-119803072D01*
X93765000Y-119803072D01*
X93889482Y-119790812D01*
X94009180Y-119754502D01*
X94119494Y-119695537D01*
X94216185Y-119616185D01*
X94295537Y-119519494D01*
X94354502Y-119409180D01*
X94390812Y-119289482D01*
X94403072Y-119165000D01*
X94403072Y-118848816D01*
X95195000Y-118848816D01*
X95195000Y-119151184D01*
X95253989Y-119447743D01*
X95369701Y-119727095D01*
X95537688Y-119978505D01*
X95751495Y-120192312D01*
X96002905Y-120360299D01*
X96282257Y-120476011D01*
X96578816Y-120535000D01*
X96881184Y-120535000D01*
X97177743Y-120476011D01*
X97457095Y-120360299D01*
X97708505Y-120192312D01*
X97774944Y-120125873D01*
X97780498Y-120144180D01*
X97839463Y-120254494D01*
X97918815Y-120351185D01*
X98015506Y-120430537D01*
X98125820Y-120489502D01*
X98245518Y-120525812D01*
X98370000Y-120538072D01*
X100170000Y-120538072D01*
X100294482Y-120525812D01*
X100414180Y-120489502D01*
X100524494Y-120430537D01*
X100621185Y-120351185D01*
X100700537Y-120254494D01*
X100759502Y-120144180D01*
X100795812Y-120024482D01*
X100808072Y-119900000D01*
X100808072Y-118808000D01*
X101151928Y-118808000D01*
X101151928Y-120308000D01*
X101164188Y-120432482D01*
X101200498Y-120552180D01*
X101259463Y-120662494D01*
X101338815Y-120759185D01*
X101435506Y-120838537D01*
X101545820Y-120897502D01*
X101665518Y-120933812D01*
X101790000Y-120946072D01*
X103290000Y-120946072D01*
X103414482Y-120933812D01*
X103534180Y-120897502D01*
X103644494Y-120838537D01*
X103741185Y-120759185D01*
X103820537Y-120662494D01*
X103879502Y-120552180D01*
X103915812Y-120432482D01*
X103928072Y-120308000D01*
X103928072Y-118848816D01*
X113195000Y-118848816D01*
X113195000Y-119151184D01*
X113253989Y-119447743D01*
X113369701Y-119727095D01*
X113537688Y-119978505D01*
X113751495Y-120192312D01*
X114002905Y-120360299D01*
X114282257Y-120476011D01*
X114578816Y-120535000D01*
X114881184Y-120535000D01*
X115177743Y-120476011D01*
X115457095Y-120360299D01*
X115708505Y-120192312D01*
X115774944Y-120125873D01*
X115780498Y-120144180D01*
X115839463Y-120254494D01*
X115918815Y-120351185D01*
X116015506Y-120430537D01*
X116125820Y-120489502D01*
X116245518Y-120525812D01*
X116370000Y-120538072D01*
X118170000Y-120538072D01*
X118294482Y-120525812D01*
X118414180Y-120489502D01*
X118524494Y-120430537D01*
X118621185Y-120351185D01*
X118700537Y-120254494D01*
X118759502Y-120144180D01*
X118795812Y-120024482D01*
X118808072Y-119900000D01*
X118808072Y-118100000D01*
X118795812Y-117975518D01*
X118759502Y-117855820D01*
X118700537Y-117745506D01*
X118621185Y-117648815D01*
X118524494Y-117569463D01*
X118414180Y-117510498D01*
X118294482Y-117474188D01*
X118170000Y-117461928D01*
X116370000Y-117461928D01*
X116245518Y-117474188D01*
X116125820Y-117510498D01*
X116015506Y-117569463D01*
X115918815Y-117648815D01*
X115839463Y-117745506D01*
X115780498Y-117855820D01*
X115774944Y-117874127D01*
X115708505Y-117807688D01*
X115457095Y-117639701D01*
X115177743Y-117523989D01*
X114881184Y-117465000D01*
X114578816Y-117465000D01*
X114282257Y-117523989D01*
X114002905Y-117639701D01*
X113751495Y-117807688D01*
X113537688Y-118021495D01*
X113369701Y-118272905D01*
X113253989Y-118552257D01*
X113195000Y-118848816D01*
X103928072Y-118848816D01*
X103928072Y-118808000D01*
X103915812Y-118683518D01*
X103879502Y-118563820D01*
X103820537Y-118453506D01*
X103741185Y-118356815D01*
X103644494Y-118277463D01*
X103534180Y-118218498D01*
X103414482Y-118182188D01*
X103290000Y-118169928D01*
X101790000Y-118169928D01*
X101665518Y-118182188D01*
X101545820Y-118218498D01*
X101435506Y-118277463D01*
X101338815Y-118356815D01*
X101259463Y-118453506D01*
X101200498Y-118563820D01*
X101164188Y-118683518D01*
X101151928Y-118808000D01*
X100808072Y-118808000D01*
X100808072Y-118100000D01*
X100795812Y-117975518D01*
X100759502Y-117855820D01*
X100700537Y-117745506D01*
X100621185Y-117648815D01*
X100524494Y-117569463D01*
X100414180Y-117510498D01*
X100294482Y-117474188D01*
X100170000Y-117461928D01*
X98370000Y-117461928D01*
X98245518Y-117474188D01*
X98125820Y-117510498D01*
X98015506Y-117569463D01*
X97918815Y-117648815D01*
X97839463Y-117745506D01*
X97780498Y-117855820D01*
X97774944Y-117874127D01*
X97708505Y-117807688D01*
X97457095Y-117639701D01*
X97177743Y-117523989D01*
X96881184Y-117465000D01*
X96578816Y-117465000D01*
X96282257Y-117523989D01*
X96002905Y-117639701D01*
X95751495Y-117807688D01*
X95537688Y-118021495D01*
X95369701Y-118272905D01*
X95253989Y-118552257D01*
X95195000Y-118848816D01*
X94403072Y-118848816D01*
X94403072Y-117665000D01*
X94390812Y-117540518D01*
X94354502Y-117420820D01*
X94295537Y-117310506D01*
X94216185Y-117213815D01*
X94119494Y-117134463D01*
X94009180Y-117075498D01*
X93889482Y-117039188D01*
X93765000Y-117026928D01*
X92265000Y-117026928D01*
X92140518Y-117039188D01*
X92020820Y-117075498D01*
X91910506Y-117134463D01*
X91813815Y-117213815D01*
X91734463Y-117310506D01*
X91675498Y-117420820D01*
X91639188Y-117540518D01*
X91626928Y-117665000D01*
X90974072Y-117665000D01*
X90961812Y-117540518D01*
X90925502Y-117420820D01*
X90866537Y-117310506D01*
X90787185Y-117213815D01*
X90690494Y-117134463D01*
X90580180Y-117075498D01*
X90460482Y-117039188D01*
X90336000Y-117026928D01*
X89871750Y-117030000D01*
X89713000Y-117188750D01*
X89459000Y-117188750D01*
X89300250Y-117030000D01*
X88836000Y-117026928D01*
X88711518Y-117039188D01*
X88591820Y-117075498D01*
X88481506Y-117134463D01*
X88384815Y-117213815D01*
X88305463Y-117310506D01*
X88246498Y-117420820D01*
X88210188Y-117540518D01*
X88197928Y-117665000D01*
X82634468Y-117665000D01*
X82621185Y-117648815D01*
X82524494Y-117569463D01*
X82414180Y-117510498D01*
X82294482Y-117474188D01*
X82170000Y-117461928D01*
X80370000Y-117461928D01*
X80245518Y-117474188D01*
X80125820Y-117510498D01*
X80015506Y-117569463D01*
X79918815Y-117648815D01*
X79839463Y-117745506D01*
X79780498Y-117855820D01*
X79774944Y-117874127D01*
X79708505Y-117807688D01*
X79457095Y-117639701D01*
X79177743Y-117523989D01*
X78881184Y-117465000D01*
X78578816Y-117465000D01*
X78282257Y-117523989D01*
X78002905Y-117639701D01*
X77751495Y-117807688D01*
X77537688Y-118021495D01*
X77369701Y-118272905D01*
X77253989Y-118552257D01*
X77195000Y-118848816D01*
X64808072Y-118848816D01*
X64808072Y-118100000D01*
X64795812Y-117975518D01*
X64759502Y-117855820D01*
X64700537Y-117745506D01*
X64621185Y-117648815D01*
X64524494Y-117569463D01*
X64414180Y-117510498D01*
X64294482Y-117474188D01*
X64170000Y-117461928D01*
X62370000Y-117461928D01*
X62245518Y-117474188D01*
X62125820Y-117510498D01*
X62015506Y-117569463D01*
X61918815Y-117648815D01*
X61839463Y-117745506D01*
X61780498Y-117855820D01*
X61774944Y-117874127D01*
X61708505Y-117807688D01*
X61457095Y-117639701D01*
X61177743Y-117523989D01*
X60881184Y-117465000D01*
X60578816Y-117465000D01*
X60282257Y-117523989D01*
X60002905Y-117639701D01*
X59751495Y-117807688D01*
X59660000Y-117899183D01*
X59660000Y-113786323D01*
X70830497Y-113786323D01*
X70830497Y-114213677D01*
X70913870Y-114632821D01*
X71077412Y-115027645D01*
X71314837Y-115382977D01*
X71617023Y-115685163D01*
X71972355Y-115922588D01*
X72367179Y-116086130D01*
X72786323Y-116169503D01*
X73213677Y-116169503D01*
X73632821Y-116086130D01*
X74027645Y-115922588D01*
X74382977Y-115685163D01*
X74408140Y-115660000D01*
X101051928Y-115660000D01*
X101051928Y-117360000D01*
X101064188Y-117484482D01*
X101100498Y-117604180D01*
X101159463Y-117714494D01*
X101238815Y-117811185D01*
X101335506Y-117890537D01*
X101445820Y-117949502D01*
X101565518Y-117985812D01*
X101690000Y-117998072D01*
X103390000Y-117998072D01*
X103514482Y-117985812D01*
X103634180Y-117949502D01*
X103744494Y-117890537D01*
X103841185Y-117811185D01*
X103920537Y-117714494D01*
X103979502Y-117604180D01*
X104001513Y-117531620D01*
X104133368Y-117663475D01*
X104376589Y-117825990D01*
X104646842Y-117937932D01*
X104933740Y-117995000D01*
X105226260Y-117995000D01*
X105513158Y-117937932D01*
X105783411Y-117825990D01*
X106026632Y-117663475D01*
X106233475Y-117456632D01*
X106350000Y-117282240D01*
X106466525Y-117456632D01*
X106673368Y-117663475D01*
X106916589Y-117825990D01*
X107186842Y-117937932D01*
X107473740Y-117995000D01*
X107766260Y-117995000D01*
X108053158Y-117937932D01*
X108323411Y-117825990D01*
X108566632Y-117663475D01*
X108773475Y-117456632D01*
X108895195Y-117274466D01*
X108964822Y-117391355D01*
X109159731Y-117607588D01*
X109393080Y-117781641D01*
X109655901Y-117906825D01*
X109803110Y-117951476D01*
X110033000Y-117830155D01*
X110033000Y-116637000D01*
X110287000Y-116637000D01*
X110287000Y-117830155D01*
X110516890Y-117951476D01*
X110664099Y-117906825D01*
X110926920Y-117781641D01*
X111160269Y-117607588D01*
X111355178Y-117391355D01*
X111504157Y-117141252D01*
X111601481Y-116866891D01*
X111480814Y-116637000D01*
X110287000Y-116637000D01*
X110033000Y-116637000D01*
X110013000Y-116637000D01*
X110013000Y-116383000D01*
X110033000Y-116383000D01*
X110033000Y-115189845D01*
X110287000Y-115189845D01*
X110287000Y-116383000D01*
X111480814Y-116383000D01*
X111601481Y-116153109D01*
X111504157Y-115878748D01*
X111355178Y-115628645D01*
X111160269Y-115412412D01*
X110926920Y-115238359D01*
X110664099Y-115113175D01*
X110516890Y-115068524D01*
X110287000Y-115189845D01*
X110033000Y-115189845D01*
X109803110Y-115068524D01*
X109655901Y-115113175D01*
X109393080Y-115238359D01*
X109159731Y-115412412D01*
X108964822Y-115628645D01*
X108895195Y-115745534D01*
X108773475Y-115563368D01*
X108566632Y-115356525D01*
X108323411Y-115194010D01*
X108053158Y-115082068D01*
X107766260Y-115025000D01*
X107473740Y-115025000D01*
X107186842Y-115082068D01*
X106916589Y-115194010D01*
X106673368Y-115356525D01*
X106466525Y-115563368D01*
X106350000Y-115737760D01*
X106233475Y-115563368D01*
X106026632Y-115356525D01*
X105783411Y-115194010D01*
X105513158Y-115082068D01*
X105226260Y-115025000D01*
X104933740Y-115025000D01*
X104646842Y-115082068D01*
X104376589Y-115194010D01*
X104133368Y-115356525D01*
X104001513Y-115488380D01*
X103979502Y-115415820D01*
X103920537Y-115305506D01*
X103841185Y-115208815D01*
X103744494Y-115129463D01*
X103634180Y-115070498D01*
X103514482Y-115034188D01*
X103390000Y-115021928D01*
X101690000Y-115021928D01*
X101565518Y-115034188D01*
X101445820Y-115070498D01*
X101335506Y-115129463D01*
X101238815Y-115208815D01*
X101159463Y-115305506D01*
X101100498Y-115415820D01*
X101064188Y-115535518D01*
X101051928Y-115660000D01*
X74408140Y-115660000D01*
X74685163Y-115382977D01*
X74922588Y-115027645D01*
X75086130Y-114632821D01*
X75169503Y-114213677D01*
X75169503Y-113786323D01*
X124830497Y-113786323D01*
X124830497Y-114213677D01*
X124913870Y-114632821D01*
X125077412Y-115027645D01*
X125314837Y-115382977D01*
X125617023Y-115685163D01*
X125972355Y-115922588D01*
X126367179Y-116086130D01*
X126786323Y-116169503D01*
X127213677Y-116169503D01*
X127632821Y-116086130D01*
X128027645Y-115922588D01*
X128382977Y-115685163D01*
X128685163Y-115382977D01*
X128922588Y-115027645D01*
X129086130Y-114632821D01*
X129169503Y-114213677D01*
X129169503Y-113786323D01*
X129086130Y-113367179D01*
X128922588Y-112972355D01*
X128685163Y-112617023D01*
X128382977Y-112314837D01*
X128027645Y-112077412D01*
X127632821Y-111913870D01*
X127213677Y-111830497D01*
X126786323Y-111830497D01*
X126367179Y-111913870D01*
X125972355Y-112077412D01*
X125617023Y-112314837D01*
X125314837Y-112617023D01*
X125077412Y-112972355D01*
X124913870Y-113367179D01*
X124830497Y-113786323D01*
X75169503Y-113786323D01*
X75086130Y-113367179D01*
X74922588Y-112972355D01*
X74685163Y-112617023D01*
X74382977Y-112314837D01*
X74027645Y-112077412D01*
X73632821Y-111913870D01*
X73213677Y-111830497D01*
X72786323Y-111830497D01*
X72367179Y-111913870D01*
X71972355Y-112077412D01*
X71617023Y-112314837D01*
X71314837Y-112617023D01*
X71077412Y-112972355D01*
X70913870Y-113367179D01*
X70830497Y-113786323D01*
X59660000Y-113786323D01*
X59660000Y-101100817D01*
X59751495Y-101192312D01*
X60002905Y-101360299D01*
X60282257Y-101476011D01*
X60578816Y-101535000D01*
X60881184Y-101535000D01*
X61177743Y-101476011D01*
X61457095Y-101360299D01*
X61708505Y-101192312D01*
X61774944Y-101125873D01*
X61780498Y-101144180D01*
X61839463Y-101254494D01*
X61918815Y-101351185D01*
X62015506Y-101430537D01*
X62125820Y-101489502D01*
X62245518Y-101525812D01*
X62370000Y-101538072D01*
X64170000Y-101538072D01*
X64294482Y-101525812D01*
X64414180Y-101489502D01*
X64524494Y-101430537D01*
X64621185Y-101351185D01*
X64700537Y-101254494D01*
X64759502Y-101144180D01*
X64795812Y-101024482D01*
X64808072Y-100900000D01*
X64808072Y-99848816D01*
X77195000Y-99848816D01*
X77195000Y-100151184D01*
X77253989Y-100447743D01*
X77369701Y-100727095D01*
X77537688Y-100978505D01*
X77751495Y-101192312D01*
X78002905Y-101360299D01*
X78282257Y-101476011D01*
X78578816Y-101535000D01*
X78881184Y-101535000D01*
X79177743Y-101476011D01*
X79457095Y-101360299D01*
X79708505Y-101192312D01*
X79774944Y-101125873D01*
X79780498Y-101144180D01*
X79839463Y-101254494D01*
X79918815Y-101351185D01*
X80015506Y-101430537D01*
X80125820Y-101489502D01*
X80245518Y-101525812D01*
X80370000Y-101538072D01*
X82170000Y-101538072D01*
X82294482Y-101525812D01*
X82414180Y-101489502D01*
X82524494Y-101430537D01*
X82621185Y-101351185D01*
X82700537Y-101254494D01*
X82759502Y-101144180D01*
X82795812Y-101024482D01*
X82808072Y-100900000D01*
X82808072Y-99848816D01*
X95195000Y-99848816D01*
X95195000Y-100151184D01*
X95253989Y-100447743D01*
X95369701Y-100727095D01*
X95537688Y-100978505D01*
X95751495Y-101192312D01*
X96002905Y-101360299D01*
X96282257Y-101476011D01*
X96578816Y-101535000D01*
X96881184Y-101535000D01*
X97177743Y-101476011D01*
X97457095Y-101360299D01*
X97708505Y-101192312D01*
X97774944Y-101125873D01*
X97780498Y-101144180D01*
X97839463Y-101254494D01*
X97918815Y-101351185D01*
X98015506Y-101430537D01*
X98125820Y-101489502D01*
X98245518Y-101525812D01*
X98370000Y-101538072D01*
X100170000Y-101538072D01*
X100294482Y-101525812D01*
X100414180Y-101489502D01*
X100524494Y-101430537D01*
X100621185Y-101351185D01*
X100700537Y-101254494D01*
X100759502Y-101144180D01*
X100795812Y-101024482D01*
X100808072Y-100900000D01*
X100808072Y-99848816D01*
X113195000Y-99848816D01*
X113195000Y-100151184D01*
X113253989Y-100447743D01*
X113369701Y-100727095D01*
X113537688Y-100978505D01*
X113751495Y-101192312D01*
X114002905Y-101360299D01*
X114282257Y-101476011D01*
X114578816Y-101535000D01*
X114881184Y-101535000D01*
X115177743Y-101476011D01*
X115457095Y-101360299D01*
X115708505Y-101192312D01*
X115774944Y-101125873D01*
X115780498Y-101144180D01*
X115839463Y-101254494D01*
X115918815Y-101351185D01*
X116015506Y-101430537D01*
X116125820Y-101489502D01*
X116245518Y-101525812D01*
X116370000Y-101538072D01*
X118170000Y-101538072D01*
X118294482Y-101525812D01*
X118414180Y-101489502D01*
X118524494Y-101430537D01*
X118621185Y-101351185D01*
X118700537Y-101254494D01*
X118759502Y-101144180D01*
X118795812Y-101024482D01*
X118808072Y-100900000D01*
X118808072Y-99100000D01*
X118795812Y-98975518D01*
X118759502Y-98855820D01*
X118700537Y-98745506D01*
X118621185Y-98648815D01*
X118524494Y-98569463D01*
X118414180Y-98510498D01*
X118294482Y-98474188D01*
X118170000Y-98461928D01*
X116370000Y-98461928D01*
X116245518Y-98474188D01*
X116125820Y-98510498D01*
X116015506Y-98569463D01*
X115918815Y-98648815D01*
X115839463Y-98745506D01*
X115780498Y-98855820D01*
X115774944Y-98874127D01*
X115708505Y-98807688D01*
X115457095Y-98639701D01*
X115177743Y-98523989D01*
X114881184Y-98465000D01*
X114578816Y-98465000D01*
X114282257Y-98523989D01*
X114002905Y-98639701D01*
X113751495Y-98807688D01*
X113537688Y-99021495D01*
X113369701Y-99272905D01*
X113253989Y-99552257D01*
X113195000Y-99848816D01*
X100808072Y-99848816D01*
X100808072Y-99100000D01*
X100795812Y-98975518D01*
X100759502Y-98855820D01*
X100700537Y-98745506D01*
X100621185Y-98648815D01*
X100524494Y-98569463D01*
X100414180Y-98510498D01*
X100294482Y-98474188D01*
X100170000Y-98461928D01*
X98370000Y-98461928D01*
X98245518Y-98474188D01*
X98125820Y-98510498D01*
X98015506Y-98569463D01*
X97918815Y-98648815D01*
X97839463Y-98745506D01*
X97780498Y-98855820D01*
X97774944Y-98874127D01*
X97708505Y-98807688D01*
X97457095Y-98639701D01*
X97177743Y-98523989D01*
X96881184Y-98465000D01*
X96578816Y-98465000D01*
X96282257Y-98523989D01*
X96002905Y-98639701D01*
X95751495Y-98807688D01*
X95537688Y-99021495D01*
X95369701Y-99272905D01*
X95253989Y-99552257D01*
X95195000Y-99848816D01*
X82808072Y-99848816D01*
X82808072Y-99100000D01*
X82795812Y-98975518D01*
X82759502Y-98855820D01*
X82700537Y-98745506D01*
X82621185Y-98648815D01*
X82524494Y-98569463D01*
X82414180Y-98510498D01*
X82294482Y-98474188D01*
X82170000Y-98461928D01*
X80370000Y-98461928D01*
X80245518Y-98474188D01*
X80125820Y-98510498D01*
X80015506Y-98569463D01*
X79918815Y-98648815D01*
X79839463Y-98745506D01*
X79780498Y-98855820D01*
X79774944Y-98874127D01*
X79708505Y-98807688D01*
X79457095Y-98639701D01*
X79177743Y-98523989D01*
X78881184Y-98465000D01*
X78578816Y-98465000D01*
X78282257Y-98523989D01*
X78002905Y-98639701D01*
X77751495Y-98807688D01*
X77537688Y-99021495D01*
X77369701Y-99272905D01*
X77253989Y-99552257D01*
X77195000Y-99848816D01*
X64808072Y-99848816D01*
X64808072Y-99100000D01*
X64795812Y-98975518D01*
X64759502Y-98855820D01*
X64700537Y-98745506D01*
X64621185Y-98648815D01*
X64524494Y-98569463D01*
X64414180Y-98510498D01*
X64294482Y-98474188D01*
X64170000Y-98461928D01*
X62370000Y-98461928D01*
X62245518Y-98474188D01*
X62125820Y-98510498D01*
X62015506Y-98569463D01*
X61918815Y-98648815D01*
X61839463Y-98745506D01*
X61780498Y-98855820D01*
X61774944Y-98874127D01*
X61708505Y-98807688D01*
X61457095Y-98639701D01*
X61177743Y-98523989D01*
X60881184Y-98465000D01*
X60578816Y-98465000D01*
X60282257Y-98523989D01*
X60002905Y-98639701D01*
X59751495Y-98807688D01*
X59660000Y-98899183D01*
X59660000Y-96056544D01*
X108551000Y-96056544D01*
X108551000Y-96323456D01*
X108603072Y-96585239D01*
X108705215Y-96831833D01*
X108853503Y-97053762D01*
X109042238Y-97242497D01*
X109264167Y-97390785D01*
X109510761Y-97492928D01*
X109772544Y-97545000D01*
X110039456Y-97545000D01*
X110301239Y-97492928D01*
X110547833Y-97390785D01*
X110769762Y-97242497D01*
X110958497Y-97053762D01*
X111106785Y-96831833D01*
X111208928Y-96585239D01*
X111261000Y-96323456D01*
X111261000Y-96056544D01*
X111208928Y-95794761D01*
X111106785Y-95548167D01*
X110958497Y-95326238D01*
X110769762Y-95137503D01*
X110547833Y-94989215D01*
X110301239Y-94887072D01*
X110039456Y-94835000D01*
X109772544Y-94835000D01*
X109510761Y-94887072D01*
X109264167Y-94989215D01*
X109042238Y-95137503D01*
X108853503Y-95326238D01*
X108705215Y-95548167D01*
X108603072Y-95794761D01*
X108551000Y-96056544D01*
X59660000Y-96056544D01*
X59660000Y-92278061D01*
X95790000Y-92278061D01*
X95790000Y-92481939D01*
X95829774Y-92681898D01*
X95907795Y-92870256D01*
X96021063Y-93039774D01*
X96165226Y-93183937D01*
X96334744Y-93297205D01*
X96523102Y-93375226D01*
X96625001Y-93395495D01*
X96625000Y-94243981D01*
X96620960Y-94285000D01*
X96625000Y-94326018D01*
X96637082Y-94448688D01*
X96684828Y-94606086D01*
X96762364Y-94751145D01*
X96866709Y-94878291D01*
X96898578Y-94904445D01*
X97070908Y-95076775D01*
X97099774Y-95221898D01*
X97177795Y-95410256D01*
X97291063Y-95579774D01*
X97435226Y-95723937D01*
X97604744Y-95837205D01*
X97793102Y-95915226D01*
X97993061Y-95955000D01*
X98196939Y-95955000D01*
X98396898Y-95915226D01*
X98585256Y-95837205D01*
X98754774Y-95723937D01*
X98898937Y-95579774D01*
X99012205Y-95410256D01*
X99090226Y-95221898D01*
X99130000Y-95021939D01*
X99130000Y-94818061D01*
X99090226Y-94618102D01*
X99012205Y-94429744D01*
X98898937Y-94260226D01*
X98754774Y-94116063D01*
X98585256Y-94002795D01*
X98396898Y-93924774D01*
X98295000Y-93904505D01*
X98295000Y-93516544D01*
X106011000Y-93516544D01*
X106011000Y-93783456D01*
X106063072Y-94045239D01*
X106165215Y-94291833D01*
X106313503Y-94513762D01*
X106502238Y-94702497D01*
X106724167Y-94850785D01*
X106970761Y-94952928D01*
X107232544Y-95005000D01*
X107499456Y-95005000D01*
X107761239Y-94952928D01*
X108007833Y-94850785D01*
X108229762Y-94702497D01*
X108418497Y-94513762D01*
X108566785Y-94291833D01*
X108668928Y-94045239D01*
X108721000Y-93783456D01*
X108721000Y-93516544D01*
X111091000Y-93516544D01*
X111091000Y-93783456D01*
X111143072Y-94045239D01*
X111245215Y-94291833D01*
X111393503Y-94513762D01*
X111582238Y-94702497D01*
X111804167Y-94850785D01*
X112050761Y-94952928D01*
X112312544Y-95005000D01*
X112579456Y-95005000D01*
X112841239Y-94952928D01*
X113087833Y-94850785D01*
X113309762Y-94702497D01*
X113498497Y-94513762D01*
X113646785Y-94291833D01*
X113748928Y-94045239D01*
X113801000Y-93783456D01*
X113801000Y-93516544D01*
X113748928Y-93254761D01*
X113646785Y-93008167D01*
X113498497Y-92786238D01*
X113309762Y-92597503D01*
X113087833Y-92449215D01*
X112841239Y-92347072D01*
X112579456Y-92295000D01*
X112312544Y-92295000D01*
X112050761Y-92347072D01*
X111804167Y-92449215D01*
X111582238Y-92597503D01*
X111393503Y-92786238D01*
X111245215Y-93008167D01*
X111143072Y-93254761D01*
X111091000Y-93516544D01*
X108721000Y-93516544D01*
X108668928Y-93254761D01*
X108566785Y-93008167D01*
X108418497Y-92786238D01*
X108229762Y-92597503D01*
X108007833Y-92449215D01*
X107761239Y-92347072D01*
X107499456Y-92295000D01*
X107232544Y-92295000D01*
X106970761Y-92347072D01*
X106724167Y-92449215D01*
X106502238Y-92597503D01*
X106313503Y-92786238D01*
X106165215Y-93008167D01*
X106063072Y-93254761D01*
X106011000Y-93516544D01*
X98295000Y-93516544D01*
X98295000Y-93056018D01*
X98299040Y-93015000D01*
X98282918Y-92851312D01*
X98235172Y-92693913D01*
X98157636Y-92548854D01*
X98079439Y-92453570D01*
X98079437Y-92453568D01*
X98053291Y-92421709D01*
X98021431Y-92395562D01*
X97849092Y-92223224D01*
X97820226Y-92078102D01*
X97742205Y-91889744D01*
X97628937Y-91720226D01*
X97484774Y-91576063D01*
X97315256Y-91462795D01*
X97126898Y-91384774D01*
X96926939Y-91345000D01*
X96723061Y-91345000D01*
X96523102Y-91384774D01*
X96334744Y-91462795D01*
X96165226Y-91576063D01*
X96021063Y-91720226D01*
X95907795Y-91889744D01*
X95829774Y-92078102D01*
X95790000Y-92278061D01*
X59660000Y-92278061D01*
X59660000Y-85786323D01*
X70830497Y-85786323D01*
X70830497Y-86213677D01*
X70913870Y-86632821D01*
X71077412Y-87027645D01*
X71314837Y-87382977D01*
X71617023Y-87685163D01*
X71972355Y-87922588D01*
X72367179Y-88086130D01*
X72786323Y-88169503D01*
X73213677Y-88169503D01*
X73632821Y-88086130D01*
X74027645Y-87922588D01*
X74382977Y-87685163D01*
X74685163Y-87382977D01*
X74748624Y-87288000D01*
X121471928Y-87288000D01*
X121484188Y-87412482D01*
X121520498Y-87532180D01*
X121579463Y-87642494D01*
X121658815Y-87739185D01*
X121755506Y-87818537D01*
X121865820Y-87877502D01*
X121985518Y-87913812D01*
X122110000Y-87926072D01*
X122574250Y-87923000D01*
X122733000Y-87764250D01*
X122733000Y-86665000D01*
X122987000Y-86665000D01*
X122987000Y-87764250D01*
X123145750Y-87923000D01*
X123610000Y-87926072D01*
X123734482Y-87913812D01*
X123854180Y-87877502D01*
X123964494Y-87818537D01*
X124061185Y-87739185D01*
X124140537Y-87642494D01*
X124199502Y-87532180D01*
X124235812Y-87412482D01*
X124248072Y-87288000D01*
X124245000Y-86823750D01*
X124086250Y-86665000D01*
X122987000Y-86665000D01*
X122733000Y-86665000D01*
X121633750Y-86665000D01*
X121475000Y-86823750D01*
X121471928Y-87288000D01*
X74748624Y-87288000D01*
X74922588Y-87027645D01*
X75086130Y-86632821D01*
X75169503Y-86213677D01*
X75169503Y-85788000D01*
X121471928Y-85788000D01*
X121475000Y-86252250D01*
X121633750Y-86411000D01*
X122733000Y-86411000D01*
X122733000Y-85311750D01*
X122987000Y-85311750D01*
X122987000Y-86411000D01*
X124086250Y-86411000D01*
X124245000Y-86252250D01*
X124248072Y-85788000D01*
X124247907Y-85786323D01*
X124830497Y-85786323D01*
X124830497Y-86213677D01*
X124913870Y-86632821D01*
X125077412Y-87027645D01*
X125314837Y-87382977D01*
X125617023Y-87685163D01*
X125972355Y-87922588D01*
X126367179Y-88086130D01*
X126786323Y-88169503D01*
X127213677Y-88169503D01*
X127632821Y-88086130D01*
X128027645Y-87922588D01*
X128382977Y-87685163D01*
X128685163Y-87382977D01*
X128922588Y-87027645D01*
X129086130Y-86632821D01*
X129169503Y-86213677D01*
X129169503Y-85786323D01*
X129086130Y-85367179D01*
X128922588Y-84972355D01*
X128685163Y-84617023D01*
X128382977Y-84314837D01*
X128027645Y-84077412D01*
X127632821Y-83913870D01*
X127213677Y-83830497D01*
X126786323Y-83830497D01*
X126367179Y-83913870D01*
X125972355Y-84077412D01*
X125617023Y-84314837D01*
X125314837Y-84617023D01*
X125077412Y-84972355D01*
X124913870Y-85367179D01*
X124830497Y-85786323D01*
X124247907Y-85786323D01*
X124235812Y-85663518D01*
X124199502Y-85543820D01*
X124140537Y-85433506D01*
X124061185Y-85336815D01*
X123964494Y-85257463D01*
X123854180Y-85198498D01*
X123734482Y-85162188D01*
X123610000Y-85149928D01*
X123145750Y-85153000D01*
X122987000Y-85311750D01*
X122733000Y-85311750D01*
X122574250Y-85153000D01*
X122110000Y-85149928D01*
X121985518Y-85162188D01*
X121865820Y-85198498D01*
X121755506Y-85257463D01*
X121658815Y-85336815D01*
X121579463Y-85433506D01*
X121520498Y-85543820D01*
X121484188Y-85663518D01*
X121471928Y-85788000D01*
X75169503Y-85788000D01*
X75169503Y-85786323D01*
X75086130Y-85367179D01*
X74922588Y-84972355D01*
X74685163Y-84617023D01*
X74382977Y-84314837D01*
X74027645Y-84077412D01*
X73632821Y-83913870D01*
X73213677Y-83830497D01*
X72786323Y-83830497D01*
X72367179Y-83913870D01*
X71972355Y-84077412D01*
X71617023Y-84314837D01*
X71314837Y-84617023D01*
X71077412Y-84972355D01*
X70913870Y-85367179D01*
X70830497Y-85786323D01*
X59660000Y-85786323D01*
X59660000Y-82100817D01*
X59751495Y-82192312D01*
X60002905Y-82360299D01*
X60282257Y-82476011D01*
X60578816Y-82535000D01*
X60881184Y-82535000D01*
X61177743Y-82476011D01*
X61457095Y-82360299D01*
X61708505Y-82192312D01*
X61774944Y-82125873D01*
X61780498Y-82144180D01*
X61839463Y-82254494D01*
X61918815Y-82351185D01*
X62015506Y-82430537D01*
X62125820Y-82489502D01*
X62245518Y-82525812D01*
X62370000Y-82538072D01*
X64170000Y-82538072D01*
X64294482Y-82525812D01*
X64414180Y-82489502D01*
X64524494Y-82430537D01*
X64621185Y-82351185D01*
X64700537Y-82254494D01*
X64759502Y-82144180D01*
X64795812Y-82024482D01*
X64808072Y-81900000D01*
X64808072Y-80848816D01*
X77195000Y-80848816D01*
X77195000Y-81151184D01*
X77253989Y-81447743D01*
X77369701Y-81727095D01*
X77537688Y-81978505D01*
X77751495Y-82192312D01*
X78002905Y-82360299D01*
X78282257Y-82476011D01*
X78578816Y-82535000D01*
X78881184Y-82535000D01*
X79177743Y-82476011D01*
X79457095Y-82360299D01*
X79708505Y-82192312D01*
X79774944Y-82125873D01*
X79780498Y-82144180D01*
X79839463Y-82254494D01*
X79918815Y-82351185D01*
X80015506Y-82430537D01*
X80125820Y-82489502D01*
X80245518Y-82525812D01*
X80370000Y-82538072D01*
X82170000Y-82538072D01*
X82294482Y-82525812D01*
X82414180Y-82489502D01*
X82524494Y-82430537D01*
X82621185Y-82351185D01*
X82700537Y-82254494D01*
X82759502Y-82144180D01*
X82795812Y-82024482D01*
X82808072Y-81900000D01*
X82808072Y-80848816D01*
X95195000Y-80848816D01*
X95195000Y-81151184D01*
X95253989Y-81447743D01*
X95369701Y-81727095D01*
X95537688Y-81978505D01*
X95751495Y-82192312D01*
X96002905Y-82360299D01*
X96282257Y-82476011D01*
X96578816Y-82535000D01*
X96881184Y-82535000D01*
X97177743Y-82476011D01*
X97457095Y-82360299D01*
X97708505Y-82192312D01*
X97774944Y-82125873D01*
X97780498Y-82144180D01*
X97839463Y-82254494D01*
X97918815Y-82351185D01*
X98015506Y-82430537D01*
X98125820Y-82489502D01*
X98245518Y-82525812D01*
X98370000Y-82538072D01*
X100170000Y-82538072D01*
X100294482Y-82525812D01*
X100414180Y-82489502D01*
X100524494Y-82430537D01*
X100621185Y-82351185D01*
X100700537Y-82254494D01*
X100759502Y-82144180D01*
X100795812Y-82024482D01*
X100808072Y-81900000D01*
X100808072Y-80848816D01*
X113195000Y-80848816D01*
X113195000Y-81151184D01*
X113253989Y-81447743D01*
X113369701Y-81727095D01*
X113537688Y-81978505D01*
X113751495Y-82192312D01*
X114002905Y-82360299D01*
X114282257Y-82476011D01*
X114578816Y-82535000D01*
X114881184Y-82535000D01*
X115177743Y-82476011D01*
X115457095Y-82360299D01*
X115708505Y-82192312D01*
X115774944Y-82125873D01*
X115780498Y-82144180D01*
X115839463Y-82254494D01*
X115918815Y-82351185D01*
X116015506Y-82430537D01*
X116125820Y-82489502D01*
X116245518Y-82525812D01*
X116370000Y-82538072D01*
X118170000Y-82538072D01*
X118294482Y-82525812D01*
X118414180Y-82489502D01*
X118524494Y-82430537D01*
X118621185Y-82351185D01*
X118700537Y-82254494D01*
X118759502Y-82144180D01*
X118795812Y-82024482D01*
X118808072Y-81900000D01*
X118808072Y-80200000D01*
X124265928Y-80200000D01*
X124265928Y-81700000D01*
X124278188Y-81824482D01*
X124314498Y-81944180D01*
X124373463Y-82054494D01*
X124452815Y-82151185D01*
X124549506Y-82230537D01*
X124659820Y-82289502D01*
X124779518Y-82325812D01*
X124904000Y-82338072D01*
X126404000Y-82338072D01*
X126528482Y-82325812D01*
X126648180Y-82289502D01*
X126758494Y-82230537D01*
X126855185Y-82151185D01*
X126934537Y-82054494D01*
X126993502Y-81944180D01*
X127029812Y-81824482D01*
X127042072Y-81700000D01*
X127042072Y-80200000D01*
X127029812Y-80075518D01*
X126993502Y-79955820D01*
X126934537Y-79845506D01*
X126855185Y-79748815D01*
X126758494Y-79669463D01*
X126648180Y-79610498D01*
X126528482Y-79574188D01*
X126404000Y-79561928D01*
X124904000Y-79561928D01*
X124779518Y-79574188D01*
X124659820Y-79610498D01*
X124549506Y-79669463D01*
X124452815Y-79748815D01*
X124373463Y-79845506D01*
X124314498Y-79955820D01*
X124278188Y-80075518D01*
X124265928Y-80200000D01*
X118808072Y-80200000D01*
X118808072Y-80100000D01*
X118795812Y-79975518D01*
X118759502Y-79855820D01*
X118700537Y-79745506D01*
X118621185Y-79648815D01*
X118524494Y-79569463D01*
X118414180Y-79510498D01*
X118294482Y-79474188D01*
X118170000Y-79461928D01*
X116370000Y-79461928D01*
X116245518Y-79474188D01*
X116125820Y-79510498D01*
X116015506Y-79569463D01*
X115918815Y-79648815D01*
X115839463Y-79745506D01*
X115780498Y-79855820D01*
X115774944Y-79874127D01*
X115708505Y-79807688D01*
X115457095Y-79639701D01*
X115177743Y-79523989D01*
X114881184Y-79465000D01*
X114578816Y-79465000D01*
X114282257Y-79523989D01*
X114002905Y-79639701D01*
X113751495Y-79807688D01*
X113537688Y-80021495D01*
X113369701Y-80272905D01*
X113253989Y-80552257D01*
X113195000Y-80848816D01*
X100808072Y-80848816D01*
X100808072Y-80100000D01*
X100795812Y-79975518D01*
X100759502Y-79855820D01*
X100700537Y-79745506D01*
X100621185Y-79648815D01*
X100524494Y-79569463D01*
X100414180Y-79510498D01*
X100294482Y-79474188D01*
X100170000Y-79461928D01*
X98370000Y-79461928D01*
X98245518Y-79474188D01*
X98125820Y-79510498D01*
X98015506Y-79569463D01*
X97918815Y-79648815D01*
X97839463Y-79745506D01*
X97780498Y-79855820D01*
X97774944Y-79874127D01*
X97708505Y-79807688D01*
X97457095Y-79639701D01*
X97177743Y-79523989D01*
X96881184Y-79465000D01*
X96578816Y-79465000D01*
X96282257Y-79523989D01*
X96002905Y-79639701D01*
X95751495Y-79807688D01*
X95537688Y-80021495D01*
X95369701Y-80272905D01*
X95253989Y-80552257D01*
X95195000Y-80848816D01*
X82808072Y-80848816D01*
X82808072Y-80100000D01*
X82795812Y-79975518D01*
X82759502Y-79855820D01*
X82700537Y-79745506D01*
X82621185Y-79648815D01*
X82524494Y-79569463D01*
X82414180Y-79510498D01*
X82294482Y-79474188D01*
X82170000Y-79461928D01*
X80370000Y-79461928D01*
X80245518Y-79474188D01*
X80125820Y-79510498D01*
X80015506Y-79569463D01*
X79918815Y-79648815D01*
X79839463Y-79745506D01*
X79780498Y-79855820D01*
X79774944Y-79874127D01*
X79708505Y-79807688D01*
X79457095Y-79639701D01*
X79177743Y-79523989D01*
X78881184Y-79465000D01*
X78578816Y-79465000D01*
X78282257Y-79523989D01*
X78002905Y-79639701D01*
X77751495Y-79807688D01*
X77537688Y-80021495D01*
X77369701Y-80272905D01*
X77253989Y-80552257D01*
X77195000Y-80848816D01*
X64808072Y-80848816D01*
X64808072Y-80100000D01*
X64795812Y-79975518D01*
X64759502Y-79855820D01*
X64700537Y-79745506D01*
X64621185Y-79648815D01*
X64524494Y-79569463D01*
X64414180Y-79510498D01*
X64294482Y-79474188D01*
X64170000Y-79461928D01*
X62370000Y-79461928D01*
X62245518Y-79474188D01*
X62125820Y-79510498D01*
X62015506Y-79569463D01*
X61918815Y-79648815D01*
X61839463Y-79745506D01*
X61780498Y-79855820D01*
X61774944Y-79874127D01*
X61708505Y-79807688D01*
X61457095Y-79639701D01*
X61177743Y-79523989D01*
X60881184Y-79465000D01*
X60578816Y-79465000D01*
X60282257Y-79523989D01*
X60002905Y-79639701D01*
X59751495Y-79807688D01*
X59660000Y-79899183D01*
X59660000Y-78660000D01*
X129340001Y-78660000D01*
X129340000Y-121340000D01*
G37*
X129340000Y-121340000D02*
X59660000Y-121340000D01*
X59660000Y-120100817D01*
X59751495Y-120192312D01*
X60002905Y-120360299D01*
X60282257Y-120476011D01*
X60578816Y-120535000D01*
X60881184Y-120535000D01*
X61177743Y-120476011D01*
X61457095Y-120360299D01*
X61708505Y-120192312D01*
X61774944Y-120125873D01*
X61780498Y-120144180D01*
X61839463Y-120254494D01*
X61918815Y-120351185D01*
X62015506Y-120430537D01*
X62125820Y-120489502D01*
X62245518Y-120525812D01*
X62370000Y-120538072D01*
X64170000Y-120538072D01*
X64294482Y-120525812D01*
X64414180Y-120489502D01*
X64524494Y-120430537D01*
X64621185Y-120351185D01*
X64700537Y-120254494D01*
X64759502Y-120144180D01*
X64795812Y-120024482D01*
X64808072Y-119900000D01*
X64808072Y-118848816D01*
X77195000Y-118848816D01*
X77195000Y-119151184D01*
X77253989Y-119447743D01*
X77369701Y-119727095D01*
X77537688Y-119978505D01*
X77751495Y-120192312D01*
X78002905Y-120360299D01*
X78282257Y-120476011D01*
X78578816Y-120535000D01*
X78881184Y-120535000D01*
X79177743Y-120476011D01*
X79457095Y-120360299D01*
X79708505Y-120192312D01*
X79774944Y-120125873D01*
X79780498Y-120144180D01*
X79839463Y-120254494D01*
X79918815Y-120351185D01*
X80015506Y-120430537D01*
X80125820Y-120489502D01*
X80245518Y-120525812D01*
X80370000Y-120538072D01*
X82170000Y-120538072D01*
X82294482Y-120525812D01*
X82414180Y-120489502D01*
X82524494Y-120430537D01*
X82621185Y-120351185D01*
X82700537Y-120254494D01*
X82759502Y-120144180D01*
X82795812Y-120024482D01*
X82808072Y-119900000D01*
X82808072Y-119165000D01*
X88197928Y-119165000D01*
X88210188Y-119289482D01*
X88246498Y-119409180D01*
X88305463Y-119519494D01*
X88384815Y-119616185D01*
X88481506Y-119695537D01*
X88591820Y-119754502D01*
X88711518Y-119790812D01*
X88836000Y-119803072D01*
X89300250Y-119800000D01*
X89459000Y-119641250D01*
X89459000Y-118542000D01*
X89713000Y-118542000D01*
X89713000Y-119641250D01*
X89871750Y-119800000D01*
X90336000Y-119803072D01*
X90460482Y-119790812D01*
X90580180Y-119754502D01*
X90690494Y-119695537D01*
X90787185Y-119616185D01*
X90866537Y-119519494D01*
X90925502Y-119409180D01*
X90961812Y-119289482D01*
X90974072Y-119165000D01*
X90971000Y-118700750D01*
X90812250Y-118542000D01*
X89713000Y-118542000D01*
X89459000Y-118542000D01*
X88359750Y-118542000D01*
X88201000Y-118700750D01*
X88197928Y-119165000D01*
X82808072Y-119165000D01*
X82808072Y-118100000D01*
X82795812Y-117975518D01*
X82759502Y-117855820D01*
X82700537Y-117745506D01*
X82634468Y-117665000D01*
X88197928Y-117665000D01*
X88201000Y-118129250D01*
X88359750Y-118288000D01*
X89459000Y-118288000D01*
X89459000Y-117188750D01*
X89713000Y-117188750D01*
X89713000Y-118288000D01*
X90812250Y-118288000D01*
X90971000Y-118129250D01*
X90974072Y-117665000D01*
X91626928Y-117665000D01*
X91626928Y-119165000D01*
X91639188Y-119289482D01*
X91675498Y-119409180D01*
X91734463Y-119519494D01*
X91813815Y-119616185D01*
X91910506Y-119695537D01*
X92020820Y-119754502D01*
X92140518Y-119790812D01*
X92265000Y-119803072D01*
X93765000Y-119803072D01*
X93889482Y-119790812D01*
X94009180Y-119754502D01*
X94119494Y-119695537D01*
X94216185Y-119616185D01*
X94295537Y-119519494D01*
X94354502Y-119409180D01*
X94390812Y-119289482D01*
X94403072Y-119165000D01*
X94403072Y-118848816D01*
X95195000Y-118848816D01*
X95195000Y-119151184D01*
X95253989Y-119447743D01*
X95369701Y-119727095D01*
X95537688Y-119978505D01*
X95751495Y-120192312D01*
X96002905Y-120360299D01*
X96282257Y-120476011D01*
X96578816Y-120535000D01*
X96881184Y-120535000D01*
X97177743Y-120476011D01*
X97457095Y-120360299D01*
X97708505Y-120192312D01*
X97774944Y-120125873D01*
X97780498Y-120144180D01*
X97839463Y-120254494D01*
X97918815Y-120351185D01*
X98015506Y-120430537D01*
X98125820Y-120489502D01*
X98245518Y-120525812D01*
X98370000Y-120538072D01*
X100170000Y-120538072D01*
X100294482Y-120525812D01*
X100414180Y-120489502D01*
X100524494Y-120430537D01*
X100621185Y-120351185D01*
X100700537Y-120254494D01*
X100759502Y-120144180D01*
X100795812Y-120024482D01*
X100808072Y-119900000D01*
X100808072Y-118808000D01*
X101151928Y-118808000D01*
X101151928Y-120308000D01*
X101164188Y-120432482D01*
X101200498Y-120552180D01*
X101259463Y-120662494D01*
X101338815Y-120759185D01*
X101435506Y-120838537D01*
X101545820Y-120897502D01*
X101665518Y-120933812D01*
X101790000Y-120946072D01*
X103290000Y-120946072D01*
X103414482Y-120933812D01*
X103534180Y-120897502D01*
X103644494Y-120838537D01*
X103741185Y-120759185D01*
X103820537Y-120662494D01*
X103879502Y-120552180D01*
X103915812Y-120432482D01*
X103928072Y-120308000D01*
X103928072Y-118848816D01*
X113195000Y-118848816D01*
X113195000Y-119151184D01*
X113253989Y-119447743D01*
X113369701Y-119727095D01*
X113537688Y-119978505D01*
X113751495Y-120192312D01*
X114002905Y-120360299D01*
X114282257Y-120476011D01*
X114578816Y-120535000D01*
X114881184Y-120535000D01*
X115177743Y-120476011D01*
X115457095Y-120360299D01*
X115708505Y-120192312D01*
X115774944Y-120125873D01*
X115780498Y-120144180D01*
X115839463Y-120254494D01*
X115918815Y-120351185D01*
X116015506Y-120430537D01*
X116125820Y-120489502D01*
X116245518Y-120525812D01*
X116370000Y-120538072D01*
X118170000Y-120538072D01*
X118294482Y-120525812D01*
X118414180Y-120489502D01*
X118524494Y-120430537D01*
X118621185Y-120351185D01*
X118700537Y-120254494D01*
X118759502Y-120144180D01*
X118795812Y-120024482D01*
X118808072Y-119900000D01*
X118808072Y-118100000D01*
X118795812Y-117975518D01*
X118759502Y-117855820D01*
X118700537Y-117745506D01*
X118621185Y-117648815D01*
X118524494Y-117569463D01*
X118414180Y-117510498D01*
X118294482Y-117474188D01*
X118170000Y-117461928D01*
X116370000Y-117461928D01*
X116245518Y-117474188D01*
X116125820Y-117510498D01*
X116015506Y-117569463D01*
X115918815Y-117648815D01*
X115839463Y-117745506D01*
X115780498Y-117855820D01*
X115774944Y-117874127D01*
X115708505Y-117807688D01*
X115457095Y-117639701D01*
X115177743Y-117523989D01*
X114881184Y-117465000D01*
X114578816Y-117465000D01*
X114282257Y-117523989D01*
X114002905Y-117639701D01*
X113751495Y-117807688D01*
X113537688Y-118021495D01*
X113369701Y-118272905D01*
X113253989Y-118552257D01*
X113195000Y-118848816D01*
X103928072Y-118848816D01*
X103928072Y-118808000D01*
X103915812Y-118683518D01*
X103879502Y-118563820D01*
X103820537Y-118453506D01*
X103741185Y-118356815D01*
X103644494Y-118277463D01*
X103534180Y-118218498D01*
X103414482Y-118182188D01*
X103290000Y-118169928D01*
X101790000Y-118169928D01*
X101665518Y-118182188D01*
X101545820Y-118218498D01*
X101435506Y-118277463D01*
X101338815Y-118356815D01*
X101259463Y-118453506D01*
X101200498Y-118563820D01*
X101164188Y-118683518D01*
X101151928Y-118808000D01*
X100808072Y-118808000D01*
X100808072Y-118100000D01*
X100795812Y-117975518D01*
X100759502Y-117855820D01*
X100700537Y-117745506D01*
X100621185Y-117648815D01*
X100524494Y-117569463D01*
X100414180Y-117510498D01*
X100294482Y-117474188D01*
X100170000Y-117461928D01*
X98370000Y-117461928D01*
X98245518Y-117474188D01*
X98125820Y-117510498D01*
X98015506Y-117569463D01*
X97918815Y-117648815D01*
X97839463Y-117745506D01*
X97780498Y-117855820D01*
X97774944Y-117874127D01*
X97708505Y-117807688D01*
X97457095Y-117639701D01*
X97177743Y-117523989D01*
X96881184Y-117465000D01*
X96578816Y-117465000D01*
X96282257Y-117523989D01*
X96002905Y-117639701D01*
X95751495Y-117807688D01*
X95537688Y-118021495D01*
X95369701Y-118272905D01*
X95253989Y-118552257D01*
X95195000Y-118848816D01*
X94403072Y-118848816D01*
X94403072Y-117665000D01*
X94390812Y-117540518D01*
X94354502Y-117420820D01*
X94295537Y-117310506D01*
X94216185Y-117213815D01*
X94119494Y-117134463D01*
X94009180Y-117075498D01*
X93889482Y-117039188D01*
X93765000Y-117026928D01*
X92265000Y-117026928D01*
X92140518Y-117039188D01*
X92020820Y-117075498D01*
X91910506Y-117134463D01*
X91813815Y-117213815D01*
X91734463Y-117310506D01*
X91675498Y-117420820D01*
X91639188Y-117540518D01*
X91626928Y-117665000D01*
X90974072Y-117665000D01*
X90961812Y-117540518D01*
X90925502Y-117420820D01*
X90866537Y-117310506D01*
X90787185Y-117213815D01*
X90690494Y-117134463D01*
X90580180Y-117075498D01*
X90460482Y-117039188D01*
X90336000Y-117026928D01*
X89871750Y-117030000D01*
X89713000Y-117188750D01*
X89459000Y-117188750D01*
X89300250Y-117030000D01*
X88836000Y-117026928D01*
X88711518Y-117039188D01*
X88591820Y-117075498D01*
X88481506Y-117134463D01*
X88384815Y-117213815D01*
X88305463Y-117310506D01*
X88246498Y-117420820D01*
X88210188Y-117540518D01*
X88197928Y-117665000D01*
X82634468Y-117665000D01*
X82621185Y-117648815D01*
X82524494Y-117569463D01*
X82414180Y-117510498D01*
X82294482Y-117474188D01*
X82170000Y-117461928D01*
X80370000Y-117461928D01*
X80245518Y-117474188D01*
X80125820Y-117510498D01*
X80015506Y-117569463D01*
X79918815Y-117648815D01*
X79839463Y-117745506D01*
X79780498Y-117855820D01*
X79774944Y-117874127D01*
X79708505Y-117807688D01*
X79457095Y-117639701D01*
X79177743Y-117523989D01*
X78881184Y-117465000D01*
X78578816Y-117465000D01*
X78282257Y-117523989D01*
X78002905Y-117639701D01*
X77751495Y-117807688D01*
X77537688Y-118021495D01*
X77369701Y-118272905D01*
X77253989Y-118552257D01*
X77195000Y-118848816D01*
X64808072Y-118848816D01*
X64808072Y-118100000D01*
X64795812Y-117975518D01*
X64759502Y-117855820D01*
X64700537Y-117745506D01*
X64621185Y-117648815D01*
X64524494Y-117569463D01*
X64414180Y-117510498D01*
X64294482Y-117474188D01*
X64170000Y-117461928D01*
X62370000Y-117461928D01*
X62245518Y-117474188D01*
X62125820Y-117510498D01*
X62015506Y-117569463D01*
X61918815Y-117648815D01*
X61839463Y-117745506D01*
X61780498Y-117855820D01*
X61774944Y-117874127D01*
X61708505Y-117807688D01*
X61457095Y-117639701D01*
X61177743Y-117523989D01*
X60881184Y-117465000D01*
X60578816Y-117465000D01*
X60282257Y-117523989D01*
X60002905Y-117639701D01*
X59751495Y-117807688D01*
X59660000Y-117899183D01*
X59660000Y-113786323D01*
X70830497Y-113786323D01*
X70830497Y-114213677D01*
X70913870Y-114632821D01*
X71077412Y-115027645D01*
X71314837Y-115382977D01*
X71617023Y-115685163D01*
X71972355Y-115922588D01*
X72367179Y-116086130D01*
X72786323Y-116169503D01*
X73213677Y-116169503D01*
X73632821Y-116086130D01*
X74027645Y-115922588D01*
X74382977Y-115685163D01*
X74408140Y-115660000D01*
X101051928Y-115660000D01*
X101051928Y-117360000D01*
X101064188Y-117484482D01*
X101100498Y-117604180D01*
X101159463Y-117714494D01*
X101238815Y-117811185D01*
X101335506Y-117890537D01*
X101445820Y-117949502D01*
X101565518Y-117985812D01*
X101690000Y-117998072D01*
X103390000Y-117998072D01*
X103514482Y-117985812D01*
X103634180Y-117949502D01*
X103744494Y-117890537D01*
X103841185Y-117811185D01*
X103920537Y-117714494D01*
X103979502Y-117604180D01*
X104001513Y-117531620D01*
X104133368Y-117663475D01*
X104376589Y-117825990D01*
X104646842Y-117937932D01*
X104933740Y-117995000D01*
X105226260Y-117995000D01*
X105513158Y-117937932D01*
X105783411Y-117825990D01*
X106026632Y-117663475D01*
X106233475Y-117456632D01*
X106350000Y-117282240D01*
X106466525Y-117456632D01*
X106673368Y-117663475D01*
X106916589Y-117825990D01*
X107186842Y-117937932D01*
X107473740Y-117995000D01*
X107766260Y-117995000D01*
X108053158Y-117937932D01*
X108323411Y-117825990D01*
X108566632Y-117663475D01*
X108773475Y-117456632D01*
X108895195Y-117274466D01*
X108964822Y-117391355D01*
X109159731Y-117607588D01*
X109393080Y-117781641D01*
X109655901Y-117906825D01*
X109803110Y-117951476D01*
X110033000Y-117830155D01*
X110033000Y-116637000D01*
X110287000Y-116637000D01*
X110287000Y-117830155D01*
X110516890Y-117951476D01*
X110664099Y-117906825D01*
X110926920Y-117781641D01*
X111160269Y-117607588D01*
X111355178Y-117391355D01*
X111504157Y-117141252D01*
X111601481Y-116866891D01*
X111480814Y-116637000D01*
X110287000Y-116637000D01*
X110033000Y-116637000D01*
X110013000Y-116637000D01*
X110013000Y-116383000D01*
X110033000Y-116383000D01*
X110033000Y-115189845D01*
X110287000Y-115189845D01*
X110287000Y-116383000D01*
X111480814Y-116383000D01*
X111601481Y-116153109D01*
X111504157Y-115878748D01*
X111355178Y-115628645D01*
X111160269Y-115412412D01*
X110926920Y-115238359D01*
X110664099Y-115113175D01*
X110516890Y-115068524D01*
X110287000Y-115189845D01*
X110033000Y-115189845D01*
X109803110Y-115068524D01*
X109655901Y-115113175D01*
X109393080Y-115238359D01*
X109159731Y-115412412D01*
X108964822Y-115628645D01*
X108895195Y-115745534D01*
X108773475Y-115563368D01*
X108566632Y-115356525D01*
X108323411Y-115194010D01*
X108053158Y-115082068D01*
X107766260Y-115025000D01*
X107473740Y-115025000D01*
X107186842Y-115082068D01*
X106916589Y-115194010D01*
X106673368Y-115356525D01*
X106466525Y-115563368D01*
X106350000Y-115737760D01*
X106233475Y-115563368D01*
X106026632Y-115356525D01*
X105783411Y-115194010D01*
X105513158Y-115082068D01*
X105226260Y-115025000D01*
X104933740Y-115025000D01*
X104646842Y-115082068D01*
X104376589Y-115194010D01*
X104133368Y-115356525D01*
X104001513Y-115488380D01*
X103979502Y-115415820D01*
X103920537Y-115305506D01*
X103841185Y-115208815D01*
X103744494Y-115129463D01*
X103634180Y-115070498D01*
X103514482Y-115034188D01*
X103390000Y-115021928D01*
X101690000Y-115021928D01*
X101565518Y-115034188D01*
X101445820Y-115070498D01*
X101335506Y-115129463D01*
X101238815Y-115208815D01*
X101159463Y-115305506D01*
X101100498Y-115415820D01*
X101064188Y-115535518D01*
X101051928Y-115660000D01*
X74408140Y-115660000D01*
X74685163Y-115382977D01*
X74922588Y-115027645D01*
X75086130Y-114632821D01*
X75169503Y-114213677D01*
X75169503Y-113786323D01*
X124830497Y-113786323D01*
X124830497Y-114213677D01*
X124913870Y-114632821D01*
X125077412Y-115027645D01*
X125314837Y-115382977D01*
X125617023Y-115685163D01*
X125972355Y-115922588D01*
X126367179Y-116086130D01*
X126786323Y-116169503D01*
X127213677Y-116169503D01*
X127632821Y-116086130D01*
X128027645Y-115922588D01*
X128382977Y-115685163D01*
X128685163Y-115382977D01*
X128922588Y-115027645D01*
X129086130Y-114632821D01*
X129169503Y-114213677D01*
X129169503Y-113786323D01*
X129086130Y-113367179D01*
X128922588Y-112972355D01*
X128685163Y-112617023D01*
X128382977Y-112314837D01*
X128027645Y-112077412D01*
X127632821Y-111913870D01*
X127213677Y-111830497D01*
X126786323Y-111830497D01*
X126367179Y-111913870D01*
X125972355Y-112077412D01*
X125617023Y-112314837D01*
X125314837Y-112617023D01*
X125077412Y-112972355D01*
X124913870Y-113367179D01*
X124830497Y-113786323D01*
X75169503Y-113786323D01*
X75086130Y-113367179D01*
X74922588Y-112972355D01*
X74685163Y-112617023D01*
X74382977Y-112314837D01*
X74027645Y-112077412D01*
X73632821Y-111913870D01*
X73213677Y-111830497D01*
X72786323Y-111830497D01*
X72367179Y-111913870D01*
X71972355Y-112077412D01*
X71617023Y-112314837D01*
X71314837Y-112617023D01*
X71077412Y-112972355D01*
X70913870Y-113367179D01*
X70830497Y-113786323D01*
X59660000Y-113786323D01*
X59660000Y-101100817D01*
X59751495Y-101192312D01*
X60002905Y-101360299D01*
X60282257Y-101476011D01*
X60578816Y-101535000D01*
X60881184Y-101535000D01*
X61177743Y-101476011D01*
X61457095Y-101360299D01*
X61708505Y-101192312D01*
X61774944Y-101125873D01*
X61780498Y-101144180D01*
X61839463Y-101254494D01*
X61918815Y-101351185D01*
X62015506Y-101430537D01*
X62125820Y-101489502D01*
X62245518Y-101525812D01*
X62370000Y-101538072D01*
X64170000Y-101538072D01*
X64294482Y-101525812D01*
X64414180Y-101489502D01*
X64524494Y-101430537D01*
X64621185Y-101351185D01*
X64700537Y-101254494D01*
X64759502Y-101144180D01*
X64795812Y-101024482D01*
X64808072Y-100900000D01*
X64808072Y-99848816D01*
X77195000Y-99848816D01*
X77195000Y-100151184D01*
X77253989Y-100447743D01*
X77369701Y-100727095D01*
X77537688Y-100978505D01*
X77751495Y-101192312D01*
X78002905Y-101360299D01*
X78282257Y-101476011D01*
X78578816Y-101535000D01*
X78881184Y-101535000D01*
X79177743Y-101476011D01*
X79457095Y-101360299D01*
X79708505Y-101192312D01*
X79774944Y-101125873D01*
X79780498Y-101144180D01*
X79839463Y-101254494D01*
X79918815Y-101351185D01*
X80015506Y-101430537D01*
X80125820Y-101489502D01*
X80245518Y-101525812D01*
X80370000Y-101538072D01*
X82170000Y-101538072D01*
X82294482Y-101525812D01*
X82414180Y-101489502D01*
X82524494Y-101430537D01*
X82621185Y-101351185D01*
X82700537Y-101254494D01*
X82759502Y-101144180D01*
X82795812Y-101024482D01*
X82808072Y-100900000D01*
X82808072Y-99848816D01*
X95195000Y-99848816D01*
X95195000Y-100151184D01*
X95253989Y-100447743D01*
X95369701Y-100727095D01*
X95537688Y-100978505D01*
X95751495Y-101192312D01*
X96002905Y-101360299D01*
X96282257Y-101476011D01*
X96578816Y-101535000D01*
X96881184Y-101535000D01*
X97177743Y-101476011D01*
X97457095Y-101360299D01*
X97708505Y-101192312D01*
X97774944Y-101125873D01*
X97780498Y-101144180D01*
X97839463Y-101254494D01*
X97918815Y-101351185D01*
X98015506Y-101430537D01*
X98125820Y-101489502D01*
X98245518Y-101525812D01*
X98370000Y-101538072D01*
X100170000Y-101538072D01*
X100294482Y-101525812D01*
X100414180Y-101489502D01*
X100524494Y-101430537D01*
X100621185Y-101351185D01*
X100700537Y-101254494D01*
X100759502Y-101144180D01*
X100795812Y-101024482D01*
X100808072Y-100900000D01*
X100808072Y-99848816D01*
X113195000Y-99848816D01*
X113195000Y-100151184D01*
X113253989Y-100447743D01*
X113369701Y-100727095D01*
X113537688Y-100978505D01*
X113751495Y-101192312D01*
X114002905Y-101360299D01*
X114282257Y-101476011D01*
X114578816Y-101535000D01*
X114881184Y-101535000D01*
X115177743Y-101476011D01*
X115457095Y-101360299D01*
X115708505Y-101192312D01*
X115774944Y-101125873D01*
X115780498Y-101144180D01*
X115839463Y-101254494D01*
X115918815Y-101351185D01*
X116015506Y-101430537D01*
X116125820Y-101489502D01*
X116245518Y-101525812D01*
X116370000Y-101538072D01*
X118170000Y-101538072D01*
X118294482Y-101525812D01*
X118414180Y-101489502D01*
X118524494Y-101430537D01*
X118621185Y-101351185D01*
X118700537Y-101254494D01*
X118759502Y-101144180D01*
X118795812Y-101024482D01*
X118808072Y-100900000D01*
X118808072Y-99100000D01*
X118795812Y-98975518D01*
X118759502Y-98855820D01*
X118700537Y-98745506D01*
X118621185Y-98648815D01*
X118524494Y-98569463D01*
X118414180Y-98510498D01*
X118294482Y-98474188D01*
X118170000Y-98461928D01*
X116370000Y-98461928D01*
X116245518Y-98474188D01*
X116125820Y-98510498D01*
X116015506Y-98569463D01*
X115918815Y-98648815D01*
X115839463Y-98745506D01*
X115780498Y-98855820D01*
X115774944Y-98874127D01*
X115708505Y-98807688D01*
X115457095Y-98639701D01*
X115177743Y-98523989D01*
X114881184Y-98465000D01*
X114578816Y-98465000D01*
X114282257Y-98523989D01*
X114002905Y-98639701D01*
X113751495Y-98807688D01*
X113537688Y-99021495D01*
X113369701Y-99272905D01*
X113253989Y-99552257D01*
X113195000Y-99848816D01*
X100808072Y-99848816D01*
X100808072Y-99100000D01*
X100795812Y-98975518D01*
X100759502Y-98855820D01*
X100700537Y-98745506D01*
X100621185Y-98648815D01*
X100524494Y-98569463D01*
X100414180Y-98510498D01*
X100294482Y-98474188D01*
X100170000Y-98461928D01*
X98370000Y-98461928D01*
X98245518Y-98474188D01*
X98125820Y-98510498D01*
X98015506Y-98569463D01*
X97918815Y-98648815D01*
X97839463Y-98745506D01*
X97780498Y-98855820D01*
X97774944Y-98874127D01*
X97708505Y-98807688D01*
X97457095Y-98639701D01*
X97177743Y-98523989D01*
X96881184Y-98465000D01*
X96578816Y-98465000D01*
X96282257Y-98523989D01*
X96002905Y-98639701D01*
X95751495Y-98807688D01*
X95537688Y-99021495D01*
X95369701Y-99272905D01*
X95253989Y-99552257D01*
X95195000Y-99848816D01*
X82808072Y-99848816D01*
X82808072Y-99100000D01*
X82795812Y-98975518D01*
X82759502Y-98855820D01*
X82700537Y-98745506D01*
X82621185Y-98648815D01*
X82524494Y-98569463D01*
X82414180Y-98510498D01*
X82294482Y-98474188D01*
X82170000Y-98461928D01*
X80370000Y-98461928D01*
X80245518Y-98474188D01*
X80125820Y-98510498D01*
X80015506Y-98569463D01*
X79918815Y-98648815D01*
X79839463Y-98745506D01*
X79780498Y-98855820D01*
X79774944Y-98874127D01*
X79708505Y-98807688D01*
X79457095Y-98639701D01*
X79177743Y-98523989D01*
X78881184Y-98465000D01*
X78578816Y-98465000D01*
X78282257Y-98523989D01*
X78002905Y-98639701D01*
X77751495Y-98807688D01*
X77537688Y-99021495D01*
X77369701Y-99272905D01*
X77253989Y-99552257D01*
X77195000Y-99848816D01*
X64808072Y-99848816D01*
X64808072Y-99100000D01*
X64795812Y-98975518D01*
X64759502Y-98855820D01*
X64700537Y-98745506D01*
X64621185Y-98648815D01*
X64524494Y-98569463D01*
X64414180Y-98510498D01*
X64294482Y-98474188D01*
X64170000Y-98461928D01*
X62370000Y-98461928D01*
X62245518Y-98474188D01*
X62125820Y-98510498D01*
X62015506Y-98569463D01*
X61918815Y-98648815D01*
X61839463Y-98745506D01*
X61780498Y-98855820D01*
X61774944Y-98874127D01*
X61708505Y-98807688D01*
X61457095Y-98639701D01*
X61177743Y-98523989D01*
X60881184Y-98465000D01*
X60578816Y-98465000D01*
X60282257Y-98523989D01*
X60002905Y-98639701D01*
X59751495Y-98807688D01*
X59660000Y-98899183D01*
X59660000Y-96056544D01*
X108551000Y-96056544D01*
X108551000Y-96323456D01*
X108603072Y-96585239D01*
X108705215Y-96831833D01*
X108853503Y-97053762D01*
X109042238Y-97242497D01*
X109264167Y-97390785D01*
X109510761Y-97492928D01*
X109772544Y-97545000D01*
X110039456Y-97545000D01*
X110301239Y-97492928D01*
X110547833Y-97390785D01*
X110769762Y-97242497D01*
X110958497Y-97053762D01*
X111106785Y-96831833D01*
X111208928Y-96585239D01*
X111261000Y-96323456D01*
X111261000Y-96056544D01*
X111208928Y-95794761D01*
X111106785Y-95548167D01*
X110958497Y-95326238D01*
X110769762Y-95137503D01*
X110547833Y-94989215D01*
X110301239Y-94887072D01*
X110039456Y-94835000D01*
X109772544Y-94835000D01*
X109510761Y-94887072D01*
X109264167Y-94989215D01*
X109042238Y-95137503D01*
X108853503Y-95326238D01*
X108705215Y-95548167D01*
X108603072Y-95794761D01*
X108551000Y-96056544D01*
X59660000Y-96056544D01*
X59660000Y-92278061D01*
X95790000Y-92278061D01*
X95790000Y-92481939D01*
X95829774Y-92681898D01*
X95907795Y-92870256D01*
X96021063Y-93039774D01*
X96165226Y-93183937D01*
X96334744Y-93297205D01*
X96523102Y-93375226D01*
X96625001Y-93395495D01*
X96625000Y-94243981D01*
X96620960Y-94285000D01*
X96625000Y-94326018D01*
X96637082Y-94448688D01*
X96684828Y-94606086D01*
X96762364Y-94751145D01*
X96866709Y-94878291D01*
X96898578Y-94904445D01*
X97070908Y-95076775D01*
X97099774Y-95221898D01*
X97177795Y-95410256D01*
X97291063Y-95579774D01*
X97435226Y-95723937D01*
X97604744Y-95837205D01*
X97793102Y-95915226D01*
X97993061Y-95955000D01*
X98196939Y-95955000D01*
X98396898Y-95915226D01*
X98585256Y-95837205D01*
X98754774Y-95723937D01*
X98898937Y-95579774D01*
X99012205Y-95410256D01*
X99090226Y-95221898D01*
X99130000Y-95021939D01*
X99130000Y-94818061D01*
X99090226Y-94618102D01*
X99012205Y-94429744D01*
X98898937Y-94260226D01*
X98754774Y-94116063D01*
X98585256Y-94002795D01*
X98396898Y-93924774D01*
X98295000Y-93904505D01*
X98295000Y-93516544D01*
X106011000Y-93516544D01*
X106011000Y-93783456D01*
X106063072Y-94045239D01*
X106165215Y-94291833D01*
X106313503Y-94513762D01*
X106502238Y-94702497D01*
X106724167Y-94850785D01*
X106970761Y-94952928D01*
X107232544Y-95005000D01*
X107499456Y-95005000D01*
X107761239Y-94952928D01*
X108007833Y-94850785D01*
X108229762Y-94702497D01*
X108418497Y-94513762D01*
X108566785Y-94291833D01*
X108668928Y-94045239D01*
X108721000Y-93783456D01*
X108721000Y-93516544D01*
X111091000Y-93516544D01*
X111091000Y-93783456D01*
X111143072Y-94045239D01*
X111245215Y-94291833D01*
X111393503Y-94513762D01*
X111582238Y-94702497D01*
X111804167Y-94850785D01*
X112050761Y-94952928D01*
X112312544Y-95005000D01*
X112579456Y-95005000D01*
X112841239Y-94952928D01*
X113087833Y-94850785D01*
X113309762Y-94702497D01*
X113498497Y-94513762D01*
X113646785Y-94291833D01*
X113748928Y-94045239D01*
X113801000Y-93783456D01*
X113801000Y-93516544D01*
X113748928Y-93254761D01*
X113646785Y-93008167D01*
X113498497Y-92786238D01*
X113309762Y-92597503D01*
X113087833Y-92449215D01*
X112841239Y-92347072D01*
X112579456Y-92295000D01*
X112312544Y-92295000D01*
X112050761Y-92347072D01*
X111804167Y-92449215D01*
X111582238Y-92597503D01*
X111393503Y-92786238D01*
X111245215Y-93008167D01*
X111143072Y-93254761D01*
X111091000Y-93516544D01*
X108721000Y-93516544D01*
X108668928Y-93254761D01*
X108566785Y-93008167D01*
X108418497Y-92786238D01*
X108229762Y-92597503D01*
X108007833Y-92449215D01*
X107761239Y-92347072D01*
X107499456Y-92295000D01*
X107232544Y-92295000D01*
X106970761Y-92347072D01*
X106724167Y-92449215D01*
X106502238Y-92597503D01*
X106313503Y-92786238D01*
X106165215Y-93008167D01*
X106063072Y-93254761D01*
X106011000Y-93516544D01*
X98295000Y-93516544D01*
X98295000Y-93056018D01*
X98299040Y-93015000D01*
X98282918Y-92851312D01*
X98235172Y-92693913D01*
X98157636Y-92548854D01*
X98079439Y-92453570D01*
X98079437Y-92453568D01*
X98053291Y-92421709D01*
X98021431Y-92395562D01*
X97849092Y-92223224D01*
X97820226Y-92078102D01*
X97742205Y-91889744D01*
X97628937Y-91720226D01*
X97484774Y-91576063D01*
X97315256Y-91462795D01*
X97126898Y-91384774D01*
X96926939Y-91345000D01*
X96723061Y-91345000D01*
X96523102Y-91384774D01*
X96334744Y-91462795D01*
X96165226Y-91576063D01*
X96021063Y-91720226D01*
X95907795Y-91889744D01*
X95829774Y-92078102D01*
X95790000Y-92278061D01*
X59660000Y-92278061D01*
X59660000Y-85786323D01*
X70830497Y-85786323D01*
X70830497Y-86213677D01*
X70913870Y-86632821D01*
X71077412Y-87027645D01*
X71314837Y-87382977D01*
X71617023Y-87685163D01*
X71972355Y-87922588D01*
X72367179Y-88086130D01*
X72786323Y-88169503D01*
X73213677Y-88169503D01*
X73632821Y-88086130D01*
X74027645Y-87922588D01*
X74382977Y-87685163D01*
X74685163Y-87382977D01*
X74748624Y-87288000D01*
X121471928Y-87288000D01*
X121484188Y-87412482D01*
X121520498Y-87532180D01*
X121579463Y-87642494D01*
X121658815Y-87739185D01*
X121755506Y-87818537D01*
X121865820Y-87877502D01*
X121985518Y-87913812D01*
X122110000Y-87926072D01*
X122574250Y-87923000D01*
X122733000Y-87764250D01*
X122733000Y-86665000D01*
X122987000Y-86665000D01*
X122987000Y-87764250D01*
X123145750Y-87923000D01*
X123610000Y-87926072D01*
X123734482Y-87913812D01*
X123854180Y-87877502D01*
X123964494Y-87818537D01*
X124061185Y-87739185D01*
X124140537Y-87642494D01*
X124199502Y-87532180D01*
X124235812Y-87412482D01*
X124248072Y-87288000D01*
X124245000Y-86823750D01*
X124086250Y-86665000D01*
X122987000Y-86665000D01*
X122733000Y-86665000D01*
X121633750Y-86665000D01*
X121475000Y-86823750D01*
X121471928Y-87288000D01*
X74748624Y-87288000D01*
X74922588Y-87027645D01*
X75086130Y-86632821D01*
X75169503Y-86213677D01*
X75169503Y-85788000D01*
X121471928Y-85788000D01*
X121475000Y-86252250D01*
X121633750Y-86411000D01*
X122733000Y-86411000D01*
X122733000Y-85311750D01*
X122987000Y-85311750D01*
X122987000Y-86411000D01*
X124086250Y-86411000D01*
X124245000Y-86252250D01*
X124248072Y-85788000D01*
X124247907Y-85786323D01*
X124830497Y-85786323D01*
X124830497Y-86213677D01*
X124913870Y-86632821D01*
X125077412Y-87027645D01*
X125314837Y-87382977D01*
X125617023Y-87685163D01*
X125972355Y-87922588D01*
X126367179Y-88086130D01*
X126786323Y-88169503D01*
X127213677Y-88169503D01*
X127632821Y-88086130D01*
X128027645Y-87922588D01*
X128382977Y-87685163D01*
X128685163Y-87382977D01*
X128922588Y-87027645D01*
X129086130Y-86632821D01*
X129169503Y-86213677D01*
X129169503Y-85786323D01*
X129086130Y-85367179D01*
X128922588Y-84972355D01*
X128685163Y-84617023D01*
X128382977Y-84314837D01*
X128027645Y-84077412D01*
X127632821Y-83913870D01*
X127213677Y-83830497D01*
X126786323Y-83830497D01*
X126367179Y-83913870D01*
X125972355Y-84077412D01*
X125617023Y-84314837D01*
X125314837Y-84617023D01*
X125077412Y-84972355D01*
X124913870Y-85367179D01*
X124830497Y-85786323D01*
X124247907Y-85786323D01*
X124235812Y-85663518D01*
X124199502Y-85543820D01*
X124140537Y-85433506D01*
X124061185Y-85336815D01*
X123964494Y-85257463D01*
X123854180Y-85198498D01*
X123734482Y-85162188D01*
X123610000Y-85149928D01*
X123145750Y-85153000D01*
X122987000Y-85311750D01*
X122733000Y-85311750D01*
X122574250Y-85153000D01*
X122110000Y-85149928D01*
X121985518Y-85162188D01*
X121865820Y-85198498D01*
X121755506Y-85257463D01*
X121658815Y-85336815D01*
X121579463Y-85433506D01*
X121520498Y-85543820D01*
X121484188Y-85663518D01*
X121471928Y-85788000D01*
X75169503Y-85788000D01*
X75169503Y-85786323D01*
X75086130Y-85367179D01*
X74922588Y-84972355D01*
X74685163Y-84617023D01*
X74382977Y-84314837D01*
X74027645Y-84077412D01*
X73632821Y-83913870D01*
X73213677Y-83830497D01*
X72786323Y-83830497D01*
X72367179Y-83913870D01*
X71972355Y-84077412D01*
X71617023Y-84314837D01*
X71314837Y-84617023D01*
X71077412Y-84972355D01*
X70913870Y-85367179D01*
X70830497Y-85786323D01*
X59660000Y-85786323D01*
X59660000Y-82100817D01*
X59751495Y-82192312D01*
X60002905Y-82360299D01*
X60282257Y-82476011D01*
X60578816Y-82535000D01*
X60881184Y-82535000D01*
X61177743Y-82476011D01*
X61457095Y-82360299D01*
X61708505Y-82192312D01*
X61774944Y-82125873D01*
X61780498Y-82144180D01*
X61839463Y-82254494D01*
X61918815Y-82351185D01*
X62015506Y-82430537D01*
X62125820Y-82489502D01*
X62245518Y-82525812D01*
X62370000Y-82538072D01*
X64170000Y-82538072D01*
X64294482Y-82525812D01*
X64414180Y-82489502D01*
X64524494Y-82430537D01*
X64621185Y-82351185D01*
X64700537Y-82254494D01*
X64759502Y-82144180D01*
X64795812Y-82024482D01*
X64808072Y-81900000D01*
X64808072Y-80848816D01*
X77195000Y-80848816D01*
X77195000Y-81151184D01*
X77253989Y-81447743D01*
X77369701Y-81727095D01*
X77537688Y-81978505D01*
X77751495Y-82192312D01*
X78002905Y-82360299D01*
X78282257Y-82476011D01*
X78578816Y-82535000D01*
X78881184Y-82535000D01*
X79177743Y-82476011D01*
X79457095Y-82360299D01*
X79708505Y-82192312D01*
X79774944Y-82125873D01*
X79780498Y-82144180D01*
X79839463Y-82254494D01*
X79918815Y-82351185D01*
X80015506Y-82430537D01*
X80125820Y-82489502D01*
X80245518Y-82525812D01*
X80370000Y-82538072D01*
X82170000Y-82538072D01*
X82294482Y-82525812D01*
X82414180Y-82489502D01*
X82524494Y-82430537D01*
X82621185Y-82351185D01*
X82700537Y-82254494D01*
X82759502Y-82144180D01*
X82795812Y-82024482D01*
X82808072Y-81900000D01*
X82808072Y-80848816D01*
X95195000Y-80848816D01*
X95195000Y-81151184D01*
X95253989Y-81447743D01*
X95369701Y-81727095D01*
X95537688Y-81978505D01*
X95751495Y-82192312D01*
X96002905Y-82360299D01*
X96282257Y-82476011D01*
X96578816Y-82535000D01*
X96881184Y-82535000D01*
X97177743Y-82476011D01*
X97457095Y-82360299D01*
X97708505Y-82192312D01*
X97774944Y-82125873D01*
X97780498Y-82144180D01*
X97839463Y-82254494D01*
X97918815Y-82351185D01*
X98015506Y-82430537D01*
X98125820Y-82489502D01*
X98245518Y-82525812D01*
X98370000Y-82538072D01*
X100170000Y-82538072D01*
X100294482Y-82525812D01*
X100414180Y-82489502D01*
X100524494Y-82430537D01*
X100621185Y-82351185D01*
X100700537Y-82254494D01*
X100759502Y-82144180D01*
X100795812Y-82024482D01*
X100808072Y-81900000D01*
X100808072Y-80848816D01*
X113195000Y-80848816D01*
X113195000Y-81151184D01*
X113253989Y-81447743D01*
X113369701Y-81727095D01*
X113537688Y-81978505D01*
X113751495Y-82192312D01*
X114002905Y-82360299D01*
X114282257Y-82476011D01*
X114578816Y-82535000D01*
X114881184Y-82535000D01*
X115177743Y-82476011D01*
X115457095Y-82360299D01*
X115708505Y-82192312D01*
X115774944Y-82125873D01*
X115780498Y-82144180D01*
X115839463Y-82254494D01*
X115918815Y-82351185D01*
X116015506Y-82430537D01*
X116125820Y-82489502D01*
X116245518Y-82525812D01*
X116370000Y-82538072D01*
X118170000Y-82538072D01*
X118294482Y-82525812D01*
X118414180Y-82489502D01*
X118524494Y-82430537D01*
X118621185Y-82351185D01*
X118700537Y-82254494D01*
X118759502Y-82144180D01*
X118795812Y-82024482D01*
X118808072Y-81900000D01*
X118808072Y-80200000D01*
X124265928Y-80200000D01*
X124265928Y-81700000D01*
X124278188Y-81824482D01*
X124314498Y-81944180D01*
X124373463Y-82054494D01*
X124452815Y-82151185D01*
X124549506Y-82230537D01*
X124659820Y-82289502D01*
X124779518Y-82325812D01*
X124904000Y-82338072D01*
X126404000Y-82338072D01*
X126528482Y-82325812D01*
X126648180Y-82289502D01*
X126758494Y-82230537D01*
X126855185Y-82151185D01*
X126934537Y-82054494D01*
X126993502Y-81944180D01*
X127029812Y-81824482D01*
X127042072Y-81700000D01*
X127042072Y-80200000D01*
X127029812Y-80075518D01*
X126993502Y-79955820D01*
X126934537Y-79845506D01*
X126855185Y-79748815D01*
X126758494Y-79669463D01*
X126648180Y-79610498D01*
X126528482Y-79574188D01*
X126404000Y-79561928D01*
X124904000Y-79561928D01*
X124779518Y-79574188D01*
X124659820Y-79610498D01*
X124549506Y-79669463D01*
X124452815Y-79748815D01*
X124373463Y-79845506D01*
X124314498Y-79955820D01*
X124278188Y-80075518D01*
X124265928Y-80200000D01*
X118808072Y-80200000D01*
X118808072Y-80100000D01*
X118795812Y-79975518D01*
X118759502Y-79855820D01*
X118700537Y-79745506D01*
X118621185Y-79648815D01*
X118524494Y-79569463D01*
X118414180Y-79510498D01*
X118294482Y-79474188D01*
X118170000Y-79461928D01*
X116370000Y-79461928D01*
X116245518Y-79474188D01*
X116125820Y-79510498D01*
X116015506Y-79569463D01*
X115918815Y-79648815D01*
X115839463Y-79745506D01*
X115780498Y-79855820D01*
X115774944Y-79874127D01*
X115708505Y-79807688D01*
X115457095Y-79639701D01*
X115177743Y-79523989D01*
X114881184Y-79465000D01*
X114578816Y-79465000D01*
X114282257Y-79523989D01*
X114002905Y-79639701D01*
X113751495Y-79807688D01*
X113537688Y-80021495D01*
X113369701Y-80272905D01*
X113253989Y-80552257D01*
X113195000Y-80848816D01*
X100808072Y-80848816D01*
X100808072Y-80100000D01*
X100795812Y-79975518D01*
X100759502Y-79855820D01*
X100700537Y-79745506D01*
X100621185Y-79648815D01*
X100524494Y-79569463D01*
X100414180Y-79510498D01*
X100294482Y-79474188D01*
X100170000Y-79461928D01*
X98370000Y-79461928D01*
X98245518Y-79474188D01*
X98125820Y-79510498D01*
X98015506Y-79569463D01*
X97918815Y-79648815D01*
X97839463Y-79745506D01*
X97780498Y-79855820D01*
X97774944Y-79874127D01*
X97708505Y-79807688D01*
X97457095Y-79639701D01*
X97177743Y-79523989D01*
X96881184Y-79465000D01*
X96578816Y-79465000D01*
X96282257Y-79523989D01*
X96002905Y-79639701D01*
X95751495Y-79807688D01*
X95537688Y-80021495D01*
X95369701Y-80272905D01*
X95253989Y-80552257D01*
X95195000Y-80848816D01*
X82808072Y-80848816D01*
X82808072Y-80100000D01*
X82795812Y-79975518D01*
X82759502Y-79855820D01*
X82700537Y-79745506D01*
X82621185Y-79648815D01*
X82524494Y-79569463D01*
X82414180Y-79510498D01*
X82294482Y-79474188D01*
X82170000Y-79461928D01*
X80370000Y-79461928D01*
X80245518Y-79474188D01*
X80125820Y-79510498D01*
X80015506Y-79569463D01*
X79918815Y-79648815D01*
X79839463Y-79745506D01*
X79780498Y-79855820D01*
X79774944Y-79874127D01*
X79708505Y-79807688D01*
X79457095Y-79639701D01*
X79177743Y-79523989D01*
X78881184Y-79465000D01*
X78578816Y-79465000D01*
X78282257Y-79523989D01*
X78002905Y-79639701D01*
X77751495Y-79807688D01*
X77537688Y-80021495D01*
X77369701Y-80272905D01*
X77253989Y-80552257D01*
X77195000Y-80848816D01*
X64808072Y-80848816D01*
X64808072Y-80100000D01*
X64795812Y-79975518D01*
X64759502Y-79855820D01*
X64700537Y-79745506D01*
X64621185Y-79648815D01*
X64524494Y-79569463D01*
X64414180Y-79510498D01*
X64294482Y-79474188D01*
X64170000Y-79461928D01*
X62370000Y-79461928D01*
X62245518Y-79474188D01*
X62125820Y-79510498D01*
X62015506Y-79569463D01*
X61918815Y-79648815D01*
X61839463Y-79745506D01*
X61780498Y-79855820D01*
X61774944Y-79874127D01*
X61708505Y-79807688D01*
X61457095Y-79639701D01*
X61177743Y-79523989D01*
X60881184Y-79465000D01*
X60578816Y-79465000D01*
X60282257Y-79523989D01*
X60002905Y-79639701D01*
X59751495Y-79807688D01*
X59660000Y-79899183D01*
X59660000Y-78660000D01*
X129340001Y-78660000D01*
X129340000Y-121340000D01*
%TD*%
M02*
