M48
; DRILL file {KiCad (5.1.6)-1} date 04/28/21 12:46:02
; FORMAT={-:-/ absolute / inch / decimal}
; #@! TF.CreationDate,2021-04-28T12:46:02+02:00
; #@! TF.GenerationSoftware,Kicad,Pcbnew,(5.1.6)-1
; #@! TF.FileFunction,Plated,1,2,PTH
FMAT,2
INCH
T1C0.0157
T2C0.0315
T3C0.0354
T4C0.0394
%
G90
G05
T1
X2.637Y-3.317
X3.337Y-3.317
X3.527Y-4.662
X3.662Y-4.662
X3.812Y-3.637
X3.862Y-3.737
X4.0063Y-3.7977
X4.0063Y-3.8777
X4.037Y-4.707
X4.057Y-3.317
X4.177Y-3.797
X4.177Y-3.857
X4.177Y-3.917
X4.177Y-3.987
X4.177Y-4.047
X4.187Y-4.117
X4.227Y-4.157
X4.307Y-4.347
X4.3077Y-4.4363
X4.387Y-4.217
X4.757Y-3.317
X4.837Y-3.407
X4.947Y-3.187
T2
X4.227Y-3.687
X4.327Y-3.787
X4.427Y-3.687
T3
X4.5169Y-3.937
X4.6169Y-3.937
X2.3909Y-3.937
X2.4909Y-3.937
X3.0996Y-3.937
X3.1996Y-3.937
X3.8083Y-3.189
X3.9083Y-3.189
X3.8083Y-4.685
X3.9083Y-4.685
X2.3909Y-3.189
X2.4909Y-3.189
X2.3909Y-4.685
X2.4909Y-4.685
X3.8083Y-3.937
X3.9083Y-3.937
X4.5169Y-3.189
X4.6169Y-3.189
X4.5169Y-4.685
X4.6169Y-4.685
X3.0996Y-3.189
X3.1996Y-3.189
X3.0996Y-4.685
X3.1996Y-4.685
T4
X4.037Y-4.587
X4.137Y-4.587
X4.237Y-4.587
X4.337Y-4.587
T0
M30
