%TF.GenerationSoftware,KiCad,Pcbnew,(5.1.6)-1*%
%TF.CreationDate,2021-04-28T12:46:05+02:00*%
%TF.ProjectId,combi_indicator,636f6d62-695f-4696-9e64-696361746f72,rev?*%
%TF.SameCoordinates,Original*%
%TF.FileFunction,Legend,Bot*%
%TF.FilePolarity,Positive*%
%FSLAX46Y46*%
G04 Gerber Fmt 4.6, Leading zero omitted, Abs format (unit mm)*
G04 Created by KiCad (PCBNEW (5.1.6)-1) date 2021-04-28 12:46:05*
%MOMM*%
%LPD*%
G01*
G04 APERTURE LIST*
%ADD10C,0.150000*%
%ADD11C,0.120000*%
%ADD12C,0.300000*%
%ADD13C,0.010000*%
G04 APERTURE END LIST*
D10*
X74712023Y-90516666D02*
X74235833Y-90516666D01*
X74807261Y-90802380D02*
X74473928Y-89802380D01*
X74140595Y-90802380D01*
X73664404Y-90802380D02*
X73759642Y-90754761D01*
X73807261Y-90659523D01*
X73807261Y-89802380D01*
X73140595Y-90802380D02*
X73235833Y-90754761D01*
X73283452Y-90659523D01*
X73283452Y-89802380D01*
X72092976Y-90135714D02*
X71854880Y-90802380D01*
X71616785Y-90135714D01*
X70807261Y-90802380D02*
X70807261Y-90278571D01*
X70854880Y-90183333D01*
X70950119Y-90135714D01*
X71140595Y-90135714D01*
X71235833Y-90183333D01*
X70807261Y-90754761D02*
X70902500Y-90802380D01*
X71140595Y-90802380D01*
X71235833Y-90754761D01*
X71283452Y-90659523D01*
X71283452Y-90564285D01*
X71235833Y-90469047D01*
X71140595Y-90421428D01*
X70902500Y-90421428D01*
X70807261Y-90373809D01*
X70188214Y-90802380D02*
X70283452Y-90754761D01*
X70331071Y-90659523D01*
X70331071Y-89802380D01*
X69378690Y-90135714D02*
X69378690Y-90802380D01*
X69807261Y-90135714D02*
X69807261Y-90659523D01*
X69759642Y-90754761D01*
X69664404Y-90802380D01*
X69521547Y-90802380D01*
X69426309Y-90754761D01*
X69378690Y-90707142D01*
X68521547Y-90754761D02*
X68616785Y-90802380D01*
X68807261Y-90802380D01*
X68902500Y-90754761D01*
X68950119Y-90659523D01*
X68950119Y-90278571D01*
X68902500Y-90183333D01*
X68807261Y-90135714D01*
X68616785Y-90135714D01*
X68521547Y-90183333D01*
X68473928Y-90278571D01*
X68473928Y-90373809D01*
X68950119Y-90469047D01*
X68092976Y-90754761D02*
X67997738Y-90802380D01*
X67807261Y-90802380D01*
X67712023Y-90754761D01*
X67664404Y-90659523D01*
X67664404Y-90611904D01*
X67712023Y-90516666D01*
X67807261Y-90469047D01*
X67950119Y-90469047D01*
X68045357Y-90421428D01*
X68092976Y-90326190D01*
X68092976Y-90278571D01*
X68045357Y-90183333D01*
X67950119Y-90135714D01*
X67807261Y-90135714D01*
X67712023Y-90183333D01*
X66045357Y-90802380D02*
X66045357Y-90278571D01*
X66092976Y-90183333D01*
X66188214Y-90135714D01*
X66378690Y-90135714D01*
X66473928Y-90183333D01*
X66045357Y-90754761D02*
X66140595Y-90802380D01*
X66378690Y-90802380D01*
X66473928Y-90754761D01*
X66521547Y-90659523D01*
X66521547Y-90564285D01*
X66473928Y-90469047D01*
X66378690Y-90421428D01*
X66140595Y-90421428D01*
X66045357Y-90373809D01*
X65569166Y-90802380D02*
X65569166Y-90135714D01*
X65569166Y-90326190D02*
X65521547Y-90230952D01*
X65473928Y-90183333D01*
X65378690Y-90135714D01*
X65283452Y-90135714D01*
X64569166Y-90754761D02*
X64664404Y-90802380D01*
X64854880Y-90802380D01*
X64950119Y-90754761D01*
X64997738Y-90659523D01*
X64997738Y-90278571D01*
X64950119Y-90183333D01*
X64854880Y-90135714D01*
X64664404Y-90135714D01*
X64569166Y-90183333D01*
X64521547Y-90278571D01*
X64521547Y-90373809D01*
X64997738Y-90469047D01*
X63473928Y-90135714D02*
X63092976Y-90135714D01*
X63331071Y-90802380D02*
X63331071Y-89945238D01*
X63283452Y-89850000D01*
X63188214Y-89802380D01*
X63092976Y-89802380D01*
X62616785Y-90802380D02*
X62712023Y-90754761D01*
X62759642Y-90707142D01*
X62807261Y-90611904D01*
X62807261Y-90326190D01*
X62759642Y-90230952D01*
X62712023Y-90183333D01*
X62616785Y-90135714D01*
X62473928Y-90135714D01*
X62378690Y-90183333D01*
X62331071Y-90230952D01*
X62283452Y-90326190D01*
X62283452Y-90611904D01*
X62331071Y-90707142D01*
X62378690Y-90754761D01*
X62473928Y-90802380D01*
X62616785Y-90802380D01*
X61854880Y-90802380D02*
X61854880Y-90135714D01*
X61854880Y-90326190D02*
X61807261Y-90230952D01*
X61759642Y-90183333D01*
X61664404Y-90135714D01*
X61569166Y-90135714D01*
X74188214Y-91452380D02*
X74664404Y-91452380D01*
X74712023Y-91928571D01*
X74664404Y-91880952D01*
X74569166Y-91833333D01*
X74331071Y-91833333D01*
X74235833Y-91880952D01*
X74188214Y-91928571D01*
X74140595Y-92023809D01*
X74140595Y-92261904D01*
X74188214Y-92357142D01*
X74235833Y-92404761D01*
X74331071Y-92452380D01*
X74569166Y-92452380D01*
X74664404Y-92404761D01*
X74712023Y-92357142D01*
X73712023Y-92452380D02*
X73712023Y-91785714D01*
X73712023Y-91880952D02*
X73664404Y-91833333D01*
X73569166Y-91785714D01*
X73426309Y-91785714D01*
X73331071Y-91833333D01*
X73283452Y-91928571D01*
X73283452Y-92452380D01*
X73283452Y-91928571D02*
X73235833Y-91833333D01*
X73140595Y-91785714D01*
X72997738Y-91785714D01*
X72902500Y-91833333D01*
X72854880Y-91928571D01*
X72854880Y-92452380D01*
X72426309Y-92166666D02*
X71950119Y-92166666D01*
X72521547Y-92452380D02*
X72188214Y-91452380D01*
X71854880Y-92452380D01*
X70759642Y-91785714D02*
X70759642Y-92785714D01*
X70759642Y-91833333D02*
X70664404Y-91785714D01*
X70473928Y-91785714D01*
X70378690Y-91833333D01*
X70331071Y-91880952D01*
X70283452Y-91976190D01*
X70283452Y-92261904D01*
X70331071Y-92357142D01*
X70378690Y-92404761D01*
X70473928Y-92452380D01*
X70664404Y-92452380D01*
X70759642Y-92404761D01*
X69473928Y-92404761D02*
X69569166Y-92452380D01*
X69759642Y-92452380D01*
X69854880Y-92404761D01*
X69902500Y-92309523D01*
X69902500Y-91928571D01*
X69854880Y-91833333D01*
X69759642Y-91785714D01*
X69569166Y-91785714D01*
X69473928Y-91833333D01*
X69426309Y-91928571D01*
X69426309Y-92023809D01*
X69902500Y-92119047D01*
X68997738Y-92452380D02*
X68997738Y-91785714D01*
X68997738Y-91976190D02*
X68950119Y-91880952D01*
X68902500Y-91833333D01*
X68807261Y-91785714D01*
X68712023Y-91785714D01*
X67140595Y-92452380D02*
X67616785Y-92452380D01*
X67616785Y-91452380D01*
X66807261Y-91928571D02*
X66473928Y-91928571D01*
X66331071Y-92452380D02*
X66807261Y-92452380D01*
X66807261Y-91452380D01*
X66331071Y-91452380D01*
X65902500Y-92452380D02*
X65902500Y-91452380D01*
X65664404Y-91452380D01*
X65521547Y-91500000D01*
X65426309Y-91595238D01*
X65378690Y-91690476D01*
X65331071Y-91880952D01*
X65331071Y-92023809D01*
X65378690Y-92214285D01*
X65426309Y-92309523D01*
X65521547Y-92404761D01*
X65664404Y-92452380D01*
X65902500Y-92452380D01*
X63997738Y-92452380D02*
X64092976Y-92404761D01*
X64140595Y-92309523D01*
X64140595Y-91452380D01*
X63616785Y-92452380D02*
X63616785Y-91785714D01*
X63616785Y-91452380D02*
X63664404Y-91500000D01*
X63616785Y-91547619D01*
X63569166Y-91500000D01*
X63616785Y-91452380D01*
X63616785Y-91547619D01*
X63140595Y-91785714D02*
X63140595Y-92452380D01*
X63140595Y-91880952D02*
X63092976Y-91833333D01*
X62997738Y-91785714D01*
X62854880Y-91785714D01*
X62759642Y-91833333D01*
X62712023Y-91928571D01*
X62712023Y-92452380D01*
X61854880Y-92404761D02*
X61950119Y-92452380D01*
X62140595Y-92452380D01*
X62235833Y-92404761D01*
X62283452Y-92309523D01*
X62283452Y-91928571D01*
X62235833Y-91833333D01*
X62140595Y-91785714D01*
X61950119Y-91785714D01*
X61854880Y-91833333D01*
X61807261Y-91928571D01*
X61807261Y-92023809D01*
X62283452Y-92119047D01*
X74712023Y-93197619D02*
X74664404Y-93150000D01*
X74569166Y-93102380D01*
X74331071Y-93102380D01*
X74235833Y-93150000D01*
X74188214Y-93197619D01*
X74140595Y-93292857D01*
X74140595Y-93388095D01*
X74188214Y-93530952D01*
X74759642Y-94102380D01*
X74140595Y-94102380D01*
X73521547Y-93102380D02*
X73426309Y-93102380D01*
X73331071Y-93150000D01*
X73283452Y-93197619D01*
X73235833Y-93292857D01*
X73188214Y-93483333D01*
X73188214Y-93721428D01*
X73235833Y-93911904D01*
X73283452Y-94007142D01*
X73331071Y-94054761D01*
X73426309Y-94102380D01*
X73521547Y-94102380D01*
X73616785Y-94054761D01*
X73664404Y-94007142D01*
X73712023Y-93911904D01*
X73759642Y-93721428D01*
X73759642Y-93483333D01*
X73712023Y-93292857D01*
X73664404Y-93197619D01*
X73616785Y-93150000D01*
X73521547Y-93102380D01*
X72759642Y-94102380D02*
X72759642Y-93435714D01*
X72759642Y-93530952D02*
X72712023Y-93483333D01*
X72616785Y-93435714D01*
X72473928Y-93435714D01*
X72378690Y-93483333D01*
X72331071Y-93578571D01*
X72331071Y-94102380D01*
X72331071Y-93578571D02*
X72283452Y-93483333D01*
X72188214Y-93435714D01*
X72045357Y-93435714D01*
X71950119Y-93483333D01*
X71902500Y-93578571D01*
X71902500Y-94102380D01*
X71473928Y-93816666D02*
X70997738Y-93816666D01*
X71569166Y-94102380D02*
X71235833Y-93102380D01*
X70902500Y-94102380D01*
X69807261Y-94102380D02*
X69807261Y-93435714D01*
X69807261Y-93102380D02*
X69854880Y-93150000D01*
X69807261Y-93197619D01*
X69759642Y-93150000D01*
X69807261Y-93102380D01*
X69807261Y-93197619D01*
X69331071Y-93435714D02*
X69331071Y-94102380D01*
X69331071Y-93530952D02*
X69283452Y-93483333D01*
X69188214Y-93435714D01*
X69045357Y-93435714D01*
X68950119Y-93483333D01*
X68902500Y-93578571D01*
X68902500Y-94102380D01*
X67807261Y-93435714D02*
X67426309Y-93435714D01*
X67664404Y-93102380D02*
X67664404Y-93959523D01*
X67616785Y-94054761D01*
X67521547Y-94102380D01*
X67426309Y-94102380D01*
X66950119Y-94102380D02*
X67045357Y-94054761D01*
X67092976Y-94007142D01*
X67140595Y-93911904D01*
X67140595Y-93626190D01*
X67092976Y-93530952D01*
X67045357Y-93483333D01*
X66950119Y-93435714D01*
X66807261Y-93435714D01*
X66712023Y-93483333D01*
X66664404Y-93530952D01*
X66616785Y-93626190D01*
X66616785Y-93911904D01*
X66664404Y-94007142D01*
X66712023Y-94054761D01*
X66807261Y-94102380D01*
X66950119Y-94102380D01*
X66331071Y-93435714D02*
X65950119Y-93435714D01*
X66188214Y-93102380D02*
X66188214Y-93959523D01*
X66140595Y-94054761D01*
X66045357Y-94102380D01*
X65950119Y-94102380D01*
X65188214Y-94102380D02*
X65188214Y-93578571D01*
X65235833Y-93483333D01*
X65331071Y-93435714D01*
X65521547Y-93435714D01*
X65616785Y-93483333D01*
X65188214Y-94054761D02*
X65283452Y-94102380D01*
X65521547Y-94102380D01*
X65616785Y-94054761D01*
X65664404Y-93959523D01*
X65664404Y-93864285D01*
X65616785Y-93769047D01*
X65521547Y-93721428D01*
X65283452Y-93721428D01*
X65188214Y-93673809D01*
X64569166Y-94102380D02*
X64664404Y-94054761D01*
X64712023Y-93959523D01*
X64712023Y-93102380D01*
X80712023Y-96547619D02*
X80664404Y-96500000D01*
X80569166Y-96452380D01*
X80331071Y-96452380D01*
X80235833Y-96500000D01*
X80188214Y-96547619D01*
X80140595Y-96642857D01*
X80140595Y-96738095D01*
X80188214Y-96880952D01*
X80759642Y-97452380D01*
X80140595Y-97452380D01*
X79807261Y-96452380D02*
X79140595Y-96452380D01*
X79569166Y-97452380D01*
X78569166Y-96452380D02*
X78473928Y-96452380D01*
X78378690Y-96500000D01*
X78331071Y-96547619D01*
X78283452Y-96642857D01*
X78235833Y-96833333D01*
X78235833Y-97071428D01*
X78283452Y-97261904D01*
X78331071Y-97357142D01*
X78378690Y-97404761D01*
X78473928Y-97452380D01*
X78569166Y-97452380D01*
X78664404Y-97404761D01*
X78712023Y-97357142D01*
X78759642Y-97261904D01*
X78807261Y-97071428D01*
X78807261Y-96833333D01*
X78759642Y-96642857D01*
X78712023Y-96547619D01*
X78664404Y-96500000D01*
X78569166Y-96452380D01*
X77378690Y-96785714D02*
X77378690Y-97452380D01*
X77807261Y-96785714D02*
X77807261Y-97309523D01*
X77759642Y-97404761D01*
X77664404Y-97452380D01*
X77521547Y-97452380D01*
X77426309Y-97404761D01*
X77378690Y-97357142D01*
X80712023Y-94547619D02*
X80664404Y-94500000D01*
X80569166Y-94452380D01*
X80331071Y-94452380D01*
X80235833Y-94500000D01*
X80188214Y-94547619D01*
X80140595Y-94642857D01*
X80140595Y-94738095D01*
X80188214Y-94880952D01*
X80759642Y-95452380D01*
X80140595Y-95452380D01*
X79807261Y-94452380D02*
X79140595Y-94452380D01*
X79569166Y-95452380D01*
X78569166Y-94452380D02*
X78473928Y-94452380D01*
X78378690Y-94500000D01*
X78331071Y-94547619D01*
X78283452Y-94642857D01*
X78235833Y-94833333D01*
X78235833Y-95071428D01*
X78283452Y-95261904D01*
X78331071Y-95357142D01*
X78378690Y-95404761D01*
X78473928Y-95452380D01*
X78569166Y-95452380D01*
X78664404Y-95404761D01*
X78712023Y-95357142D01*
X78759642Y-95261904D01*
X78807261Y-95071428D01*
X78807261Y-94833333D01*
X78759642Y-94642857D01*
X78712023Y-94547619D01*
X78664404Y-94500000D01*
X78569166Y-94452380D01*
X77378690Y-94785714D02*
X77378690Y-95452380D01*
X77807261Y-94785714D02*
X77807261Y-95309523D01*
X77759642Y-95404761D01*
X77664404Y-95452380D01*
X77521547Y-95452380D01*
X77426309Y-95404761D01*
X77378690Y-95357142D01*
X80712023Y-92547619D02*
X80664404Y-92500000D01*
X80569166Y-92452380D01*
X80331071Y-92452380D01*
X80235833Y-92500000D01*
X80188214Y-92547619D01*
X80140595Y-92642857D01*
X80140595Y-92738095D01*
X80188214Y-92880952D01*
X80759642Y-93452380D01*
X80140595Y-93452380D01*
X79807261Y-92452380D02*
X79140595Y-92452380D01*
X79569166Y-93452380D01*
X78569166Y-92452380D02*
X78473928Y-92452380D01*
X78378690Y-92500000D01*
X78331071Y-92547619D01*
X78283452Y-92642857D01*
X78235833Y-92833333D01*
X78235833Y-93071428D01*
X78283452Y-93261904D01*
X78331071Y-93357142D01*
X78378690Y-93404761D01*
X78473928Y-93452380D01*
X78569166Y-93452380D01*
X78664404Y-93404761D01*
X78712023Y-93357142D01*
X78759642Y-93261904D01*
X78807261Y-93071428D01*
X78807261Y-92833333D01*
X78759642Y-92642857D01*
X78712023Y-92547619D01*
X78664404Y-92500000D01*
X78569166Y-92452380D01*
X77378690Y-92785714D02*
X77378690Y-93452380D01*
X77807261Y-92785714D02*
X77807261Y-93309523D01*
X77759642Y-93404761D01*
X77664404Y-93452380D01*
X77521547Y-93452380D01*
X77426309Y-93404761D01*
X77378690Y-93357142D01*
X80140595Y-91452380D02*
X80712023Y-91452380D01*
X80426309Y-91452380D02*
X80426309Y-90452380D01*
X80521547Y-90595238D01*
X80616785Y-90690476D01*
X80712023Y-90738095D01*
X79569166Y-90880952D02*
X79664404Y-90833333D01*
X79712023Y-90785714D01*
X79759642Y-90690476D01*
X79759642Y-90642857D01*
X79712023Y-90547619D01*
X79664404Y-90500000D01*
X79569166Y-90452380D01*
X79378690Y-90452380D01*
X79283452Y-90500000D01*
X79235833Y-90547619D01*
X79188214Y-90642857D01*
X79188214Y-90690476D01*
X79235833Y-90785714D01*
X79283452Y-90833333D01*
X79378690Y-90880952D01*
X79569166Y-90880952D01*
X79664404Y-90928571D01*
X79712023Y-90976190D01*
X79759642Y-91071428D01*
X79759642Y-91261904D01*
X79712023Y-91357142D01*
X79664404Y-91404761D01*
X79569166Y-91452380D01*
X79378690Y-91452380D01*
X79283452Y-91404761D01*
X79235833Y-91357142D01*
X79188214Y-91261904D01*
X79188214Y-91071428D01*
X79235833Y-90976190D01*
X79283452Y-90928571D01*
X79378690Y-90880952D01*
X78569166Y-90452380D02*
X78473928Y-90452380D01*
X78378690Y-90500000D01*
X78331071Y-90547619D01*
X78283452Y-90642857D01*
X78235833Y-90833333D01*
X78235833Y-91071428D01*
X78283452Y-91261904D01*
X78331071Y-91357142D01*
X78378690Y-91404761D01*
X78473928Y-91452380D01*
X78569166Y-91452380D01*
X78664404Y-91404761D01*
X78712023Y-91357142D01*
X78759642Y-91261904D01*
X78807261Y-91071428D01*
X78807261Y-90833333D01*
X78759642Y-90642857D01*
X78712023Y-90547619D01*
X78664404Y-90500000D01*
X78569166Y-90452380D01*
X77378690Y-90785714D02*
X77378690Y-91452380D01*
X77807261Y-90785714D02*
X77807261Y-91309523D01*
X77759642Y-91404761D01*
X77664404Y-91452380D01*
X77521547Y-91452380D01*
X77426309Y-91404761D01*
X77378690Y-91357142D01*
X80140595Y-89452380D02*
X80712023Y-89452380D01*
X80426309Y-89452380D02*
X80426309Y-88452380D01*
X80521547Y-88595238D01*
X80616785Y-88690476D01*
X80712023Y-88738095D01*
X79807261Y-88452380D02*
X79188214Y-88452380D01*
X79521547Y-88833333D01*
X79378690Y-88833333D01*
X79283452Y-88880952D01*
X79235833Y-88928571D01*
X79188214Y-89023809D01*
X79188214Y-89261904D01*
X79235833Y-89357142D01*
X79283452Y-89404761D01*
X79378690Y-89452380D01*
X79664404Y-89452380D01*
X79759642Y-89404761D01*
X79807261Y-89357142D01*
X78569166Y-88452380D02*
X78473928Y-88452380D01*
X78378690Y-88500000D01*
X78331071Y-88547619D01*
X78283452Y-88642857D01*
X78235833Y-88833333D01*
X78235833Y-89071428D01*
X78283452Y-89261904D01*
X78331071Y-89357142D01*
X78378690Y-89404761D01*
X78473928Y-89452380D01*
X78569166Y-89452380D01*
X78664404Y-89404761D01*
X78712023Y-89357142D01*
X78759642Y-89261904D01*
X78807261Y-89071428D01*
X78807261Y-88833333D01*
X78759642Y-88642857D01*
X78712023Y-88547619D01*
X78664404Y-88500000D01*
X78569166Y-88452380D01*
X77378690Y-88785714D02*
X77378690Y-89452380D01*
X77807261Y-88785714D02*
X77807261Y-89309523D01*
X77759642Y-89404761D01*
X77664404Y-89452380D01*
X77521547Y-89452380D01*
X77426309Y-89404761D01*
X77378690Y-89357142D01*
X80188214Y-87452380D02*
X80664404Y-87452380D01*
X80664404Y-86452380D01*
X79331071Y-87452380D02*
X79902500Y-87452380D01*
X79616785Y-87452380D02*
X79616785Y-86452380D01*
X79712023Y-86595238D01*
X79807261Y-86690476D01*
X79902500Y-86738095D01*
D11*
X82000000Y-98000000D02*
X82000000Y-86000000D01*
D10*
X92759642Y-96452380D02*
X92140595Y-96452380D01*
X92473928Y-96833333D01*
X92331071Y-96833333D01*
X92235833Y-96880952D01*
X92188214Y-96928571D01*
X92140595Y-97023809D01*
X92140595Y-97261904D01*
X92188214Y-97357142D01*
X92235833Y-97404761D01*
X92331071Y-97452380D01*
X92616785Y-97452380D01*
X92712023Y-97404761D01*
X92759642Y-97357142D01*
X91807261Y-96452380D02*
X91188214Y-96452380D01*
X91521547Y-96833333D01*
X91378690Y-96833333D01*
X91283452Y-96880952D01*
X91235833Y-96928571D01*
X91188214Y-97023809D01*
X91188214Y-97261904D01*
X91235833Y-97357142D01*
X91283452Y-97404761D01*
X91378690Y-97452380D01*
X91664404Y-97452380D01*
X91759642Y-97404761D01*
X91807261Y-97357142D01*
X90569166Y-96452380D02*
X90473928Y-96452380D01*
X90378690Y-96500000D01*
X90331071Y-96547619D01*
X90283452Y-96642857D01*
X90235833Y-96833333D01*
X90235833Y-97071428D01*
X90283452Y-97261904D01*
X90331071Y-97357142D01*
X90378690Y-97404761D01*
X90473928Y-97452380D01*
X90569166Y-97452380D01*
X90664404Y-97404761D01*
X90712023Y-97357142D01*
X90759642Y-97261904D01*
X90807261Y-97071428D01*
X90807261Y-96833333D01*
X90759642Y-96642857D01*
X90712023Y-96547619D01*
X90664404Y-96500000D01*
X90569166Y-96452380D01*
X89807261Y-97452380D02*
X89807261Y-96452380D01*
X89712023Y-97071428D02*
X89426309Y-97452380D01*
X89426309Y-96785714D02*
X89807261Y-97166666D01*
X92140595Y-95452380D02*
X92712023Y-95452380D01*
X92426309Y-95452380D02*
X92426309Y-94452380D01*
X92521547Y-94595238D01*
X92616785Y-94690476D01*
X92712023Y-94738095D01*
X91521547Y-94452380D02*
X91426309Y-94452380D01*
X91331071Y-94500000D01*
X91283452Y-94547619D01*
X91235833Y-94642857D01*
X91188214Y-94833333D01*
X91188214Y-95071428D01*
X91235833Y-95261904D01*
X91283452Y-95357142D01*
X91331071Y-95404761D01*
X91426309Y-95452380D01*
X91521547Y-95452380D01*
X91616785Y-95404761D01*
X91664404Y-95357142D01*
X91712023Y-95261904D01*
X91759642Y-95071428D01*
X91759642Y-94833333D01*
X91712023Y-94642857D01*
X91664404Y-94547619D01*
X91616785Y-94500000D01*
X91521547Y-94452380D01*
X90759642Y-95452380D02*
X90759642Y-94452380D01*
X90664404Y-95071428D02*
X90378690Y-95452380D01*
X90378690Y-94785714D02*
X90759642Y-95166666D01*
X92140595Y-93452380D02*
X92712023Y-93452380D01*
X92426309Y-93452380D02*
X92426309Y-92452380D01*
X92521547Y-92595238D01*
X92616785Y-92690476D01*
X92712023Y-92738095D01*
X91521547Y-92452380D02*
X91426309Y-92452380D01*
X91331071Y-92500000D01*
X91283452Y-92547619D01*
X91235833Y-92642857D01*
X91188214Y-92833333D01*
X91188214Y-93071428D01*
X91235833Y-93261904D01*
X91283452Y-93357142D01*
X91331071Y-93404761D01*
X91426309Y-93452380D01*
X91521547Y-93452380D01*
X91616785Y-93404761D01*
X91664404Y-93357142D01*
X91712023Y-93261904D01*
X91759642Y-93071428D01*
X91759642Y-92833333D01*
X91712023Y-92642857D01*
X91664404Y-92547619D01*
X91616785Y-92500000D01*
X91521547Y-92452380D01*
X90759642Y-93452380D02*
X90759642Y-92452380D01*
X90664404Y-93071428D02*
X90378690Y-93452380D01*
X90378690Y-92785714D02*
X90759642Y-93166666D01*
X92521547Y-90880952D02*
X92616785Y-90833333D01*
X92664404Y-90785714D01*
X92712023Y-90690476D01*
X92712023Y-90642857D01*
X92664404Y-90547619D01*
X92616785Y-90500000D01*
X92521547Y-90452380D01*
X92331071Y-90452380D01*
X92235833Y-90500000D01*
X92188214Y-90547619D01*
X92140595Y-90642857D01*
X92140595Y-90690476D01*
X92188214Y-90785714D01*
X92235833Y-90833333D01*
X92331071Y-90880952D01*
X92521547Y-90880952D01*
X92616785Y-90928571D01*
X92664404Y-90976190D01*
X92712023Y-91071428D01*
X92712023Y-91261904D01*
X92664404Y-91357142D01*
X92616785Y-91404761D01*
X92521547Y-91452380D01*
X92331071Y-91452380D01*
X92235833Y-91404761D01*
X92188214Y-91357142D01*
X92140595Y-91261904D01*
X92140595Y-91071428D01*
X92188214Y-90976190D01*
X92235833Y-90928571D01*
X92331071Y-90880952D01*
X91712023Y-91452380D02*
X91712023Y-90452380D01*
X91616785Y-91071428D02*
X91331071Y-91452380D01*
X91331071Y-90785714D02*
X91712023Y-91166666D01*
X90378690Y-91452380D02*
X90950119Y-91452380D01*
X90664404Y-91452380D02*
X90664404Y-90452380D01*
X90759642Y-90595238D01*
X90854880Y-90690476D01*
X90950119Y-90738095D01*
X92759642Y-88452380D02*
X92092976Y-88452380D01*
X92521547Y-89452380D01*
X91712023Y-89452380D02*
X91712023Y-88452380D01*
X91616785Y-89071428D02*
X91331071Y-89452380D01*
X91331071Y-88785714D02*
X91712023Y-89166666D01*
X90426309Y-88452380D02*
X90902500Y-88452380D01*
X90950119Y-88928571D01*
X90902500Y-88880952D01*
X90807261Y-88833333D01*
X90569166Y-88833333D01*
X90473928Y-88880952D01*
X90426309Y-88928571D01*
X90378690Y-89023809D01*
X90378690Y-89261904D01*
X90426309Y-89357142D01*
X90473928Y-89404761D01*
X90569166Y-89452380D01*
X90807261Y-89452380D01*
X90902500Y-89404761D01*
X90950119Y-89357142D01*
X86521547Y-96880952D02*
X86616785Y-96833333D01*
X86664404Y-96785714D01*
X86712023Y-96690476D01*
X86712023Y-96642857D01*
X86664404Y-96547619D01*
X86616785Y-96500000D01*
X86521547Y-96452380D01*
X86331071Y-96452380D01*
X86235833Y-96500000D01*
X86188214Y-96547619D01*
X86140595Y-96642857D01*
X86140595Y-96690476D01*
X86188214Y-96785714D01*
X86235833Y-96833333D01*
X86331071Y-96880952D01*
X86521547Y-96880952D01*
X86616785Y-96928571D01*
X86664404Y-96976190D01*
X86712023Y-97071428D01*
X86712023Y-97261904D01*
X86664404Y-97357142D01*
X86616785Y-97404761D01*
X86521547Y-97452380D01*
X86331071Y-97452380D01*
X86235833Y-97404761D01*
X86188214Y-97357142D01*
X86140595Y-97261904D01*
X86140595Y-97071428D01*
X86188214Y-96976190D01*
X86235833Y-96928571D01*
X86331071Y-96880952D01*
X85759642Y-96547619D02*
X85712023Y-96500000D01*
X85616785Y-96452380D01*
X85378690Y-96452380D01*
X85283452Y-96500000D01*
X85235833Y-96547619D01*
X85188214Y-96642857D01*
X85188214Y-96738095D01*
X85235833Y-96880952D01*
X85807261Y-97452380D01*
X85188214Y-97452380D01*
X84759642Y-97452380D02*
X84759642Y-96452380D01*
X84664404Y-97071428D02*
X84378690Y-97452380D01*
X84378690Y-96785714D02*
X84759642Y-97166666D01*
X86140595Y-95452380D02*
X86712023Y-95452380D01*
X86426309Y-95452380D02*
X86426309Y-94452380D01*
X86521547Y-94595238D01*
X86616785Y-94690476D01*
X86712023Y-94738095D01*
X85235833Y-94452380D02*
X85712023Y-94452380D01*
X85759642Y-94928571D01*
X85712023Y-94880952D01*
X85616785Y-94833333D01*
X85378690Y-94833333D01*
X85283452Y-94880952D01*
X85235833Y-94928571D01*
X85188214Y-95023809D01*
X85188214Y-95261904D01*
X85235833Y-95357142D01*
X85283452Y-95404761D01*
X85378690Y-95452380D01*
X85616785Y-95452380D01*
X85712023Y-95404761D01*
X85759642Y-95357142D01*
X84569166Y-94452380D02*
X84473928Y-94452380D01*
X84378690Y-94500000D01*
X84331071Y-94547619D01*
X84283452Y-94642857D01*
X84235833Y-94833333D01*
X84235833Y-95071428D01*
X84283452Y-95261904D01*
X84331071Y-95357142D01*
X84378690Y-95404761D01*
X84473928Y-95452380D01*
X84569166Y-95452380D01*
X84664404Y-95404761D01*
X84712023Y-95357142D01*
X84759642Y-95261904D01*
X84807261Y-95071428D01*
X84807261Y-94833333D01*
X84759642Y-94642857D01*
X84712023Y-94547619D01*
X84664404Y-94500000D01*
X84569166Y-94452380D01*
X83807261Y-95452380D02*
X83807261Y-94452380D01*
X83712023Y-95071428D02*
X83426309Y-95452380D01*
X83426309Y-94785714D02*
X83807261Y-95166666D01*
X86140595Y-93452380D02*
X86712023Y-93452380D01*
X86426309Y-93452380D02*
X86426309Y-92452380D01*
X86521547Y-92595238D01*
X86616785Y-92690476D01*
X86712023Y-92738095D01*
X85283452Y-92785714D02*
X85283452Y-93452380D01*
X85521547Y-92404761D02*
X85759642Y-93119047D01*
X85140595Y-93119047D01*
X84569166Y-92452380D02*
X84473928Y-92452380D01*
X84378690Y-92500000D01*
X84331071Y-92547619D01*
X84283452Y-92642857D01*
X84235833Y-92833333D01*
X84235833Y-93071428D01*
X84283452Y-93261904D01*
X84331071Y-93357142D01*
X84378690Y-93404761D01*
X84473928Y-93452380D01*
X84569166Y-93452380D01*
X84664404Y-93404761D01*
X84712023Y-93357142D01*
X84759642Y-93261904D01*
X84807261Y-93071428D01*
X84807261Y-92833333D01*
X84759642Y-92642857D01*
X84712023Y-92547619D01*
X84664404Y-92500000D01*
X84569166Y-92452380D01*
X83807261Y-93452380D02*
X83807261Y-92452380D01*
X83712023Y-93071428D02*
X83426309Y-93452380D01*
X83426309Y-92785714D02*
X83807261Y-93166666D01*
X86616785Y-91452380D02*
X86426309Y-91452380D01*
X86331071Y-91404761D01*
X86283452Y-91357142D01*
X86188214Y-91214285D01*
X86140595Y-91023809D01*
X86140595Y-90642857D01*
X86188214Y-90547619D01*
X86235833Y-90500000D01*
X86331071Y-90452380D01*
X86521547Y-90452380D01*
X86616785Y-90500000D01*
X86664404Y-90547619D01*
X86712023Y-90642857D01*
X86712023Y-90880952D01*
X86664404Y-90976190D01*
X86616785Y-91023809D01*
X86521547Y-91071428D01*
X86331071Y-91071428D01*
X86235833Y-91023809D01*
X86188214Y-90976190D01*
X86140595Y-90880952D01*
X85188214Y-91452380D02*
X85759642Y-91452380D01*
X85473928Y-91452380D02*
X85473928Y-90452380D01*
X85569166Y-90595238D01*
X85664404Y-90690476D01*
X85759642Y-90738095D01*
X84759642Y-91452380D02*
X84759642Y-90452380D01*
X84664404Y-91071428D02*
X84378690Y-91452380D01*
X84378690Y-90785714D02*
X84759642Y-91166666D01*
X86521547Y-88880952D02*
X86616785Y-88833333D01*
X86664404Y-88785714D01*
X86712023Y-88690476D01*
X86712023Y-88642857D01*
X86664404Y-88547619D01*
X86616785Y-88500000D01*
X86521547Y-88452380D01*
X86331071Y-88452380D01*
X86235833Y-88500000D01*
X86188214Y-88547619D01*
X86140595Y-88642857D01*
X86140595Y-88690476D01*
X86188214Y-88785714D01*
X86235833Y-88833333D01*
X86331071Y-88880952D01*
X86521547Y-88880952D01*
X86616785Y-88928571D01*
X86664404Y-88976190D01*
X86712023Y-89071428D01*
X86712023Y-89261904D01*
X86664404Y-89357142D01*
X86616785Y-89404761D01*
X86521547Y-89452380D01*
X86331071Y-89452380D01*
X86235833Y-89404761D01*
X86188214Y-89357142D01*
X86140595Y-89261904D01*
X86140595Y-89071428D01*
X86188214Y-88976190D01*
X86235833Y-88928571D01*
X86331071Y-88880952D01*
X85759642Y-88547619D02*
X85712023Y-88500000D01*
X85616785Y-88452380D01*
X85378690Y-88452380D01*
X85283452Y-88500000D01*
X85235833Y-88547619D01*
X85188214Y-88642857D01*
X85188214Y-88738095D01*
X85235833Y-88880952D01*
X85807261Y-89452380D01*
X85188214Y-89452380D01*
X84759642Y-89452380D02*
X84759642Y-88452380D01*
X84664404Y-89071428D02*
X84378690Y-89452380D01*
X84378690Y-88785714D02*
X84759642Y-89166666D01*
X86092976Y-87452380D02*
X86426309Y-86976190D01*
X86664404Y-87452380D02*
X86664404Y-86452380D01*
X86283452Y-86452380D01*
X86188214Y-86500000D01*
X86140595Y-86547619D01*
X86092976Y-86642857D01*
X86092976Y-86785714D01*
X86140595Y-86880952D01*
X86188214Y-86928571D01*
X86283452Y-86976190D01*
X86664404Y-86976190D01*
X85140595Y-87452380D02*
X85712023Y-87452380D01*
X85426309Y-87452380D02*
X85426309Y-86452380D01*
X85521547Y-86595238D01*
X85616785Y-86690476D01*
X85712023Y-86738095D01*
X84807261Y-86452380D02*
X84188214Y-86452380D01*
X84521547Y-86833333D01*
X84378690Y-86833333D01*
X84283452Y-86880952D01*
X84235833Y-86928571D01*
X84188214Y-87023809D01*
X84188214Y-87261904D01*
X84235833Y-87357142D01*
X84283452Y-87404761D01*
X84378690Y-87452380D01*
X84664404Y-87452380D01*
X84759642Y-87404761D01*
X84807261Y-87357142D01*
X92092976Y-87452380D02*
X92426309Y-86976190D01*
X92664404Y-87452380D02*
X92664404Y-86452380D01*
X92283452Y-86452380D01*
X92188214Y-86500000D01*
X92140595Y-86547619D01*
X92092976Y-86642857D01*
X92092976Y-86785714D01*
X92140595Y-86880952D01*
X92188214Y-86928571D01*
X92283452Y-86976190D01*
X92664404Y-86976190D01*
X91140595Y-87452380D02*
X91712023Y-87452380D01*
X91426309Y-87452380D02*
X91426309Y-86452380D01*
X91521547Y-86595238D01*
X91616785Y-86690476D01*
X91712023Y-86738095D01*
X90759642Y-86547619D02*
X90712023Y-86500000D01*
X90616785Y-86452380D01*
X90378690Y-86452380D01*
X90283452Y-86500000D01*
X90235833Y-86547619D01*
X90188214Y-86642857D01*
X90188214Y-86738095D01*
X90235833Y-86880952D01*
X90807261Y-87452380D01*
X90188214Y-87452380D01*
X96537976Y-96452380D02*
X96537976Y-97261904D01*
X96490357Y-97357142D01*
X96442738Y-97404761D01*
X96347500Y-97452380D01*
X96157023Y-97452380D01*
X96061785Y-97404761D01*
X96014166Y-97357142D01*
X95966547Y-97261904D01*
X95966547Y-96452380D01*
X95490357Y-96785714D02*
X95490357Y-97452380D01*
X95490357Y-96880952D02*
X95442738Y-96833333D01*
X95347500Y-96785714D01*
X95204642Y-96785714D01*
X95109404Y-96833333D01*
X95061785Y-96928571D01*
X95061785Y-97452380D01*
X94585595Y-97452380D02*
X94585595Y-96785714D01*
X94585595Y-96452380D02*
X94633214Y-96500000D01*
X94585595Y-96547619D01*
X94537976Y-96500000D01*
X94585595Y-96452380D01*
X94585595Y-96547619D01*
D11*
X97000000Y-96000000D02*
X76000000Y-96000000D01*
X97000000Y-94000000D02*
X76000000Y-94000000D01*
X97000000Y-92000000D02*
X76000000Y-92000000D01*
X97000000Y-90000000D02*
X76000000Y-90000000D01*
D10*
X95026071Y-94928571D02*
X94883214Y-94976190D01*
X94835595Y-95023809D01*
X94787976Y-95119047D01*
X94787976Y-95261904D01*
X94835595Y-95357142D01*
X94883214Y-95404761D01*
X94978452Y-95452380D01*
X95359404Y-95452380D01*
X95359404Y-94452380D01*
X95026071Y-94452380D01*
X94930833Y-94500000D01*
X94883214Y-94547619D01*
X94835595Y-94642857D01*
X94835595Y-94738095D01*
X94883214Y-94833333D01*
X94930833Y-94880952D01*
X95026071Y-94928571D01*
X95359404Y-94928571D01*
X95026071Y-92976190D02*
X95026071Y-93452380D01*
X95359404Y-92452380D02*
X95026071Y-92976190D01*
X94692738Y-92452380D01*
X94835595Y-90500000D02*
X94930833Y-90452380D01*
X95073690Y-90452380D01*
X95216547Y-90500000D01*
X95311785Y-90595238D01*
X95359404Y-90690476D01*
X95407023Y-90880952D01*
X95407023Y-91023809D01*
X95359404Y-91214285D01*
X95311785Y-91309523D01*
X95216547Y-91404761D01*
X95073690Y-91452380D01*
X94978452Y-91452380D01*
X94835595Y-91404761D01*
X94787976Y-91357142D01*
X94787976Y-91023809D01*
X94978452Y-91023809D01*
X94787976Y-89452380D02*
X95121309Y-88976190D01*
X95359404Y-89452380D02*
X95359404Y-88452380D01*
X94978452Y-88452380D01*
X94883214Y-88500000D01*
X94835595Y-88547619D01*
X94787976Y-88642857D01*
X94787976Y-88785714D01*
X94835595Y-88880952D01*
X94883214Y-88928571D01*
X94978452Y-88976190D01*
X95359404Y-88976190D01*
D11*
X97000000Y-88000000D02*
X76000000Y-88000000D01*
D10*
X95930833Y-87357142D02*
X95978452Y-87404761D01*
X96121309Y-87452380D01*
X96216547Y-87452380D01*
X96359404Y-87404761D01*
X96454642Y-87309523D01*
X96502261Y-87214285D01*
X96549880Y-87023809D01*
X96549880Y-86880952D01*
X96502261Y-86690476D01*
X96454642Y-86595238D01*
X96359404Y-86500000D01*
X96216547Y-86452380D01*
X96121309Y-86452380D01*
X95978452Y-86500000D01*
X95930833Y-86547619D01*
X95359404Y-87452380D02*
X95454642Y-87404761D01*
X95502261Y-87309523D01*
X95502261Y-86452380D01*
X94978452Y-87452380D02*
X94978452Y-86785714D01*
X94978452Y-86976190D02*
X94930833Y-86880952D01*
X94883214Y-86833333D01*
X94787976Y-86785714D01*
X94692738Y-86785714D01*
D11*
X88000000Y-86000000D02*
X88000000Y-98000000D01*
X94000000Y-86000000D02*
X94000000Y-98000000D01*
X76000000Y-86000000D02*
X97000000Y-86000000D01*
X76000000Y-98000000D02*
X76000000Y-86000000D01*
X97000000Y-98000000D02*
X76000000Y-98000000D01*
X97000000Y-86000000D02*
X97000000Y-98000000D01*
D12*
X91357142Y-104782142D02*
X91500000Y-104853571D01*
X91785714Y-104853571D01*
X91928571Y-104782142D01*
X92000000Y-104710714D01*
X92071428Y-104567857D01*
X92071428Y-104139285D01*
X92000000Y-103996428D01*
X91928571Y-103925000D01*
X91785714Y-103853571D01*
X91500000Y-103853571D01*
X91357142Y-103925000D01*
X90500000Y-104853571D02*
X90642857Y-104782142D01*
X90714285Y-104710714D01*
X90785714Y-104567857D01*
X90785714Y-104139285D01*
X90714285Y-103996428D01*
X90642857Y-103925000D01*
X90500000Y-103853571D01*
X90285714Y-103853571D01*
X90142857Y-103925000D01*
X90071428Y-103996428D01*
X90000000Y-104139285D01*
X90000000Y-104567857D01*
X90071428Y-104710714D01*
X90142857Y-104782142D01*
X90285714Y-104853571D01*
X90500000Y-104853571D01*
X89357142Y-104853571D02*
X89357142Y-103853571D01*
X89357142Y-103996428D02*
X89285714Y-103925000D01*
X89142857Y-103853571D01*
X88928571Y-103853571D01*
X88785714Y-103925000D01*
X88714285Y-104067857D01*
X88714285Y-104853571D01*
X88714285Y-104067857D02*
X88642857Y-103925000D01*
X88500000Y-103853571D01*
X88285714Y-103853571D01*
X88142857Y-103925000D01*
X88071428Y-104067857D01*
X88071428Y-104853571D01*
X87357142Y-104853571D02*
X87357142Y-103353571D01*
X87357142Y-103925000D02*
X87214285Y-103853571D01*
X86928571Y-103853571D01*
X86785714Y-103925000D01*
X86714285Y-103996428D01*
X86642857Y-104139285D01*
X86642857Y-104567857D01*
X86714285Y-104710714D01*
X86785714Y-104782142D01*
X86928571Y-104853571D01*
X87214285Y-104853571D01*
X87357142Y-104782142D01*
X86000000Y-104853571D02*
X86000000Y-103853571D01*
X86000000Y-103353571D02*
X86071428Y-103425000D01*
X86000000Y-103496428D01*
X85928571Y-103425000D01*
X86000000Y-103353571D01*
X86000000Y-103496428D01*
X93607142Y-107403571D02*
X93607142Y-106403571D01*
X93607142Y-105903571D02*
X93678571Y-105975000D01*
X93607142Y-106046428D01*
X93535714Y-105975000D01*
X93607142Y-105903571D01*
X93607142Y-106046428D01*
X92892857Y-106403571D02*
X92892857Y-107403571D01*
X92892857Y-106546428D02*
X92821428Y-106475000D01*
X92678571Y-106403571D01*
X92464285Y-106403571D01*
X92321428Y-106475000D01*
X92250000Y-106617857D01*
X92250000Y-107403571D01*
X90892857Y-107403571D02*
X90892857Y-105903571D01*
X90892857Y-107332142D02*
X91035714Y-107403571D01*
X91321428Y-107403571D01*
X91464285Y-107332142D01*
X91535714Y-107260714D01*
X91607142Y-107117857D01*
X91607142Y-106689285D01*
X91535714Y-106546428D01*
X91464285Y-106475000D01*
X91321428Y-106403571D01*
X91035714Y-106403571D01*
X90892857Y-106475000D01*
X90178571Y-107403571D02*
X90178571Y-106403571D01*
X90178571Y-105903571D02*
X90250000Y-105975000D01*
X90178571Y-106046428D01*
X90107142Y-105975000D01*
X90178571Y-105903571D01*
X90178571Y-106046428D01*
X88821428Y-107332142D02*
X88964285Y-107403571D01*
X89250000Y-107403571D01*
X89392857Y-107332142D01*
X89464285Y-107260714D01*
X89535714Y-107117857D01*
X89535714Y-106689285D01*
X89464285Y-106546428D01*
X89392857Y-106475000D01*
X89250000Y-106403571D01*
X88964285Y-106403571D01*
X88821428Y-106475000D01*
X87535714Y-107403571D02*
X87535714Y-106617857D01*
X87607142Y-106475000D01*
X87750000Y-106403571D01*
X88035714Y-106403571D01*
X88178571Y-106475000D01*
X87535714Y-107332142D02*
X87678571Y-107403571D01*
X88035714Y-107403571D01*
X88178571Y-107332142D01*
X88250000Y-107189285D01*
X88250000Y-107046428D01*
X88178571Y-106903571D01*
X88035714Y-106832142D01*
X87678571Y-106832142D01*
X87535714Y-106760714D01*
X87035714Y-106403571D02*
X86464285Y-106403571D01*
X86821428Y-105903571D02*
X86821428Y-107189285D01*
X86750000Y-107332142D01*
X86607142Y-107403571D01*
X86464285Y-107403571D01*
X85750000Y-107403571D02*
X85892857Y-107332142D01*
X85964285Y-107260714D01*
X86035714Y-107117857D01*
X86035714Y-106689285D01*
X85964285Y-106546428D01*
X85892857Y-106475000D01*
X85750000Y-106403571D01*
X85535714Y-106403571D01*
X85392857Y-106475000D01*
X85321428Y-106546428D01*
X85250000Y-106689285D01*
X85250000Y-107117857D01*
X85321428Y-107260714D01*
X85392857Y-107332142D01*
X85535714Y-107403571D01*
X85750000Y-107403571D01*
X84607142Y-107403571D02*
X84607142Y-106403571D01*
X84607142Y-106689285D02*
X84535714Y-106546428D01*
X84464285Y-106475000D01*
X84321428Y-106403571D01*
X84178571Y-106403571D01*
X91142857Y-108953571D02*
X90785714Y-109953571D01*
X90428571Y-108953571D01*
X89571428Y-108453571D02*
X89428571Y-108453571D01*
X89285714Y-108525000D01*
X89214285Y-108596428D01*
X89142857Y-108739285D01*
X89071428Y-109025000D01*
X89071428Y-109382142D01*
X89142857Y-109667857D01*
X89214285Y-109810714D01*
X89285714Y-109882142D01*
X89428571Y-109953571D01*
X89571428Y-109953571D01*
X89714285Y-109882142D01*
X89785714Y-109810714D01*
X89857142Y-109667857D01*
X89928571Y-109382142D01*
X89928571Y-109025000D01*
X89857142Y-108739285D01*
X89785714Y-108596428D01*
X89714285Y-108525000D01*
X89571428Y-108453571D01*
X88428571Y-109810714D02*
X88357142Y-109882142D01*
X88428571Y-109953571D01*
X88500000Y-109882142D01*
X88428571Y-109810714D01*
X88428571Y-109953571D01*
X86928571Y-109953571D02*
X87785714Y-109953571D01*
X87357142Y-109953571D02*
X87357142Y-108453571D01*
X87500000Y-108667857D01*
X87642857Y-108810714D01*
X87785714Y-108882142D01*
X95535714Y-112503571D02*
X95535714Y-111003571D01*
X95535714Y-111575000D02*
X95392857Y-111503571D01*
X95107142Y-111503571D01*
X94964285Y-111575000D01*
X94892857Y-111646428D01*
X94821428Y-111789285D01*
X94821428Y-112217857D01*
X94892857Y-112360714D01*
X94964285Y-112432142D01*
X95107142Y-112503571D01*
X95392857Y-112503571D01*
X95535714Y-112432142D01*
X94321428Y-111503571D02*
X93964285Y-112503571D01*
X93607142Y-111503571D02*
X93964285Y-112503571D01*
X94107142Y-112860714D01*
X94178571Y-112932142D01*
X94321428Y-113003571D01*
X91892857Y-112503571D02*
X91892857Y-111003571D01*
X91535714Y-111003571D01*
X91321428Y-111075000D01*
X91178571Y-111217857D01*
X91107142Y-111360714D01*
X91035714Y-111646428D01*
X91035714Y-111860714D01*
X91107142Y-112146428D01*
X91178571Y-112289285D01*
X91321428Y-112432142D01*
X91535714Y-112503571D01*
X91892857Y-112503571D01*
X90392857Y-112503571D02*
X90392857Y-111503571D01*
X90392857Y-111003571D02*
X90464285Y-111075000D01*
X90392857Y-111146428D01*
X90321428Y-111075000D01*
X90392857Y-111003571D01*
X90392857Y-111146428D01*
X89678571Y-112503571D02*
X89678571Y-111003571D01*
X89178571Y-112075000D01*
X88678571Y-111003571D01*
X88678571Y-112503571D01*
X87750000Y-112503571D02*
X87892857Y-112432142D01*
X87964285Y-112360714D01*
X88035714Y-112217857D01*
X88035714Y-111789285D01*
X87964285Y-111646428D01*
X87892857Y-111575000D01*
X87750000Y-111503571D01*
X87535714Y-111503571D01*
X87392857Y-111575000D01*
X87321428Y-111646428D01*
X87250000Y-111789285D01*
X87250000Y-112217857D01*
X87321428Y-112360714D01*
X87392857Y-112432142D01*
X87535714Y-112503571D01*
X87750000Y-112503571D01*
X86607142Y-112503571D02*
X86607142Y-111503571D01*
X86607142Y-111646428D02*
X86535714Y-111575000D01*
X86392857Y-111503571D01*
X86178571Y-111503571D01*
X86035714Y-111575000D01*
X85964285Y-111717857D01*
X85964285Y-112503571D01*
X85964285Y-111717857D02*
X85892857Y-111575000D01*
X85750000Y-111503571D01*
X85535714Y-111503571D01*
X85392857Y-111575000D01*
X85321428Y-111717857D01*
X85321428Y-112503571D01*
X84607142Y-112503571D02*
X84607142Y-111503571D01*
X84607142Y-111003571D02*
X84678571Y-111075000D01*
X84607142Y-111146428D01*
X84535714Y-111075000D01*
X84607142Y-111003571D01*
X84607142Y-111146428D01*
X84107142Y-111503571D02*
X83535714Y-111503571D01*
X83892857Y-111003571D02*
X83892857Y-112289285D01*
X83821428Y-112432142D01*
X83678571Y-112503571D01*
X83535714Y-112503571D01*
X82464285Y-112432142D02*
X82607142Y-112503571D01*
X82892857Y-112503571D01*
X83035714Y-112432142D01*
X83107142Y-112289285D01*
X83107142Y-111717857D01*
X83035714Y-111575000D01*
X82892857Y-111503571D01*
X82607142Y-111503571D01*
X82464285Y-111575000D01*
X82392857Y-111717857D01*
X82392857Y-111860714D01*
X83107142Y-112003571D01*
D11*
%TO.C,+LED*%
X92065000Y-117465000D02*
X92065000Y-119365000D01*
X93965000Y-117465000D02*
X92065000Y-117465000D01*
X93965000Y-119365000D02*
X93965000Y-117465000D01*
X92065000Y-119365000D02*
X93965000Y-119365000D01*
%TO.C,LED current*%
X124704000Y-80000000D02*
X124704000Y-81900000D01*
X126604000Y-80000000D02*
X124704000Y-80000000D01*
X126604000Y-81900000D02*
X126604000Y-80000000D01*
X124704000Y-81900000D02*
X126604000Y-81900000D01*
%TO.C,VCC*%
X101590000Y-118608000D02*
X101590000Y-120508000D01*
X103490000Y-118608000D02*
X101590000Y-118608000D01*
X103490000Y-120508000D02*
X103490000Y-118608000D01*
X101590000Y-120508000D02*
X103490000Y-120508000D01*
%TO.C,GND*%
X88636000Y-117465000D02*
X88636000Y-119365000D01*
X90536000Y-117465000D02*
X88636000Y-117465000D01*
X90536000Y-119365000D02*
X90536000Y-117465000D01*
X88636000Y-119365000D02*
X90536000Y-119365000D01*
X121910000Y-85588000D02*
X121910000Y-87488000D01*
X123810000Y-85588000D02*
X121910000Y-85588000D01*
X123810000Y-87488000D02*
X123810000Y-85588000D01*
X121910000Y-87488000D02*
X123810000Y-87488000D01*
%TO.C,R13*%
X108129748Y-103250000D02*
X108652252Y-103250000D01*
X108129748Y-101830000D02*
X108652252Y-101830000D01*
%TO.C,C1*%
X108652252Y-110974000D02*
X108129748Y-110974000D01*
X108652252Y-112394000D02*
X108129748Y-112394000D01*
D13*
%TO.C,REF\u002A\u002A*%
G36*
X74780091Y-107909560D02*
G01*
X74727588Y-107935499D01*
X74662842Y-107980700D01*
X74615653Y-108029991D01*
X74583335Y-108091885D01*
X74563203Y-108174896D01*
X74552570Y-108287538D01*
X74548753Y-108438324D01*
X74548530Y-108503149D01*
X74549182Y-108645221D01*
X74551888Y-108746757D01*
X74557776Y-108817015D01*
X74567973Y-108865256D01*
X74583606Y-108900738D01*
X74599872Y-108924943D01*
X74703705Y-109027929D01*
X74825979Y-109089874D01*
X74957886Y-109108506D01*
X75090616Y-109081549D01*
X75132667Y-109062486D01*
X75233334Y-109010015D01*
X75233334Y-109832259D01*
X75159865Y-109794267D01*
X75063059Y-109764872D01*
X74944072Y-109757342D01*
X74825255Y-109771245D01*
X74735527Y-109802476D01*
X74661101Y-109861954D01*
X74597510Y-109947066D01*
X74592729Y-109955805D01*
X74572563Y-109996966D01*
X74557835Y-110038454D01*
X74547697Y-110088713D01*
X74541301Y-110156184D01*
X74537799Y-110249309D01*
X74536342Y-110376531D01*
X74536079Y-110519701D01*
X74536079Y-110976471D01*
X74810000Y-110976471D01*
X74810000Y-110134231D01*
X74886617Y-110069763D01*
X74966207Y-110018194D01*
X75041578Y-110008818D01*
X75117367Y-110032947D01*
X75157759Y-110056574D01*
X75187821Y-110090227D01*
X75209203Y-110141087D01*
X75223550Y-110216334D01*
X75232510Y-110323146D01*
X75237730Y-110468704D01*
X75239569Y-110565588D01*
X75245785Y-110964020D01*
X75376520Y-110971547D01*
X75507255Y-110979073D01*
X75507255Y-108506582D01*
X75233334Y-108506582D01*
X75226350Y-108644423D01*
X75202818Y-108740107D01*
X75158865Y-108799641D01*
X75090618Y-108829029D01*
X75021667Y-108834902D01*
X74943614Y-108828154D01*
X74891811Y-108801594D01*
X74859417Y-108766499D01*
X74833916Y-108728752D01*
X74818735Y-108686700D01*
X74811981Y-108627779D01*
X74811759Y-108539428D01*
X74814032Y-108465448D01*
X74819251Y-108354000D01*
X74827021Y-108280833D01*
X74840105Y-108234422D01*
X74861268Y-108203244D01*
X74881240Y-108185223D01*
X74964686Y-108145925D01*
X75063449Y-108139579D01*
X75120159Y-108153116D01*
X75176308Y-108201233D01*
X75213501Y-108294833D01*
X75231528Y-108433254D01*
X75233334Y-108506582D01*
X75507255Y-108506582D01*
X75507255Y-107888628D01*
X75370295Y-107888628D01*
X75288065Y-107891879D01*
X75245640Y-107903426D01*
X75233339Y-107925952D01*
X75233334Y-107926620D01*
X75227626Y-107948681D01*
X75202453Y-107946176D01*
X75152402Y-107921935D01*
X75035781Y-107884851D01*
X74904571Y-107880953D01*
X74780091Y-107909560D01*
G37*
X74780091Y-107909560D02*
X74727588Y-107935499D01*
X74662842Y-107980700D01*
X74615653Y-108029991D01*
X74583335Y-108091885D01*
X74563203Y-108174896D01*
X74552570Y-108287538D01*
X74548753Y-108438324D01*
X74548530Y-108503149D01*
X74549182Y-108645221D01*
X74551888Y-108746757D01*
X74557776Y-108817015D01*
X74567973Y-108865256D01*
X74583606Y-108900738D01*
X74599872Y-108924943D01*
X74703705Y-109027929D01*
X74825979Y-109089874D01*
X74957886Y-109108506D01*
X75090616Y-109081549D01*
X75132667Y-109062486D01*
X75233334Y-109010015D01*
X75233334Y-109832259D01*
X75159865Y-109794267D01*
X75063059Y-109764872D01*
X74944072Y-109757342D01*
X74825255Y-109771245D01*
X74735527Y-109802476D01*
X74661101Y-109861954D01*
X74597510Y-109947066D01*
X74592729Y-109955805D01*
X74572563Y-109996966D01*
X74557835Y-110038454D01*
X74547697Y-110088713D01*
X74541301Y-110156184D01*
X74537799Y-110249309D01*
X74536342Y-110376531D01*
X74536079Y-110519701D01*
X74536079Y-110976471D01*
X74810000Y-110976471D01*
X74810000Y-110134231D01*
X74886617Y-110069763D01*
X74966207Y-110018194D01*
X75041578Y-110008818D01*
X75117367Y-110032947D01*
X75157759Y-110056574D01*
X75187821Y-110090227D01*
X75209203Y-110141087D01*
X75223550Y-110216334D01*
X75232510Y-110323146D01*
X75237730Y-110468704D01*
X75239569Y-110565588D01*
X75245785Y-110964020D01*
X75376520Y-110971547D01*
X75507255Y-110979073D01*
X75507255Y-108506582D01*
X75233334Y-108506582D01*
X75226350Y-108644423D01*
X75202818Y-108740107D01*
X75158865Y-108799641D01*
X75090618Y-108829029D01*
X75021667Y-108834902D01*
X74943614Y-108828154D01*
X74891811Y-108801594D01*
X74859417Y-108766499D01*
X74833916Y-108728752D01*
X74818735Y-108686700D01*
X74811981Y-108627779D01*
X74811759Y-108539428D01*
X74814032Y-108465448D01*
X74819251Y-108354000D01*
X74827021Y-108280833D01*
X74840105Y-108234422D01*
X74861268Y-108203244D01*
X74881240Y-108185223D01*
X74964686Y-108145925D01*
X75063449Y-108139579D01*
X75120159Y-108153116D01*
X75176308Y-108201233D01*
X75213501Y-108294833D01*
X75231528Y-108433254D01*
X75233334Y-108506582D01*
X75507255Y-108506582D01*
X75507255Y-107888628D01*
X75370295Y-107888628D01*
X75288065Y-107891879D01*
X75245640Y-107903426D01*
X75233339Y-107925952D01*
X75233334Y-107926620D01*
X75227626Y-107948681D01*
X75202453Y-107946176D01*
X75152402Y-107921935D01*
X75035781Y-107884851D01*
X74904571Y-107880953D01*
X74780091Y-107909560D01*
G36*
X73741280Y-109765922D02*
G01*
X73624130Y-109797180D01*
X73534949Y-109853837D01*
X73472016Y-109928045D01*
X73452452Y-109959716D01*
X73438008Y-109992891D01*
X73427911Y-110035329D01*
X73421385Y-110094788D01*
X73417658Y-110179029D01*
X73415954Y-110295810D01*
X73415500Y-110452890D01*
X73415491Y-110494565D01*
X73415491Y-110976471D01*
X73535020Y-110976471D01*
X73611261Y-110971131D01*
X73667634Y-110957604D01*
X73681758Y-110949262D01*
X73720370Y-110934864D01*
X73759808Y-110949262D01*
X73824738Y-110967237D01*
X73919055Y-110974472D01*
X74023593Y-110971333D01*
X74119189Y-110958186D01*
X74175000Y-110941318D01*
X74283002Y-110871986D01*
X74350497Y-110775772D01*
X74380841Y-110647844D01*
X74381123Y-110644559D01*
X74378460Y-110587808D01*
X74137647Y-110587808D01*
X74116595Y-110652358D01*
X74082303Y-110688686D01*
X74013468Y-110716162D01*
X73922610Y-110727129D01*
X73829958Y-110721731D01*
X73755744Y-110700110D01*
X73734951Y-110686239D01*
X73698619Y-110622143D01*
X73689412Y-110549278D01*
X73689412Y-110453530D01*
X73827173Y-110453530D01*
X73958047Y-110463605D01*
X74057259Y-110492148D01*
X74118977Y-110536639D01*
X74137647Y-110587808D01*
X74378460Y-110587808D01*
X74374564Y-110504790D01*
X74328466Y-110394282D01*
X74241800Y-110310712D01*
X74229821Y-110303110D01*
X74178345Y-110278357D01*
X74114632Y-110263368D01*
X74025565Y-110256082D01*
X73919755Y-110254407D01*
X73689412Y-110254314D01*
X73689412Y-110157755D01*
X73699183Y-110082836D01*
X73724116Y-110032644D01*
X73727035Y-110029972D01*
X73782519Y-110008015D01*
X73866273Y-109999505D01*
X73958833Y-110003687D01*
X74040730Y-110019809D01*
X74089327Y-110043990D01*
X74115659Y-110063359D01*
X74143465Y-110067057D01*
X74181839Y-110051188D01*
X74239875Y-110011855D01*
X74326669Y-109945164D01*
X74334635Y-109938916D01*
X74330553Y-109915800D01*
X74296499Y-109877352D01*
X74244740Y-109834627D01*
X74187545Y-109798679D01*
X74169575Y-109790191D01*
X74104028Y-109773252D01*
X74007980Y-109761170D01*
X73900671Y-109756323D01*
X73895653Y-109756313D01*
X73741280Y-109765922D01*
G37*
X73741280Y-109765922D02*
X73624130Y-109797180D01*
X73534949Y-109853837D01*
X73472016Y-109928045D01*
X73452452Y-109959716D01*
X73438008Y-109992891D01*
X73427911Y-110035329D01*
X73421385Y-110094788D01*
X73417658Y-110179029D01*
X73415954Y-110295810D01*
X73415500Y-110452890D01*
X73415491Y-110494565D01*
X73415491Y-110976471D01*
X73535020Y-110976471D01*
X73611261Y-110971131D01*
X73667634Y-110957604D01*
X73681758Y-110949262D01*
X73720370Y-110934864D01*
X73759808Y-110949262D01*
X73824738Y-110967237D01*
X73919055Y-110974472D01*
X74023593Y-110971333D01*
X74119189Y-110958186D01*
X74175000Y-110941318D01*
X74283002Y-110871986D01*
X74350497Y-110775772D01*
X74380841Y-110647844D01*
X74381123Y-110644559D01*
X74378460Y-110587808D01*
X74137647Y-110587808D01*
X74116595Y-110652358D01*
X74082303Y-110688686D01*
X74013468Y-110716162D01*
X73922610Y-110727129D01*
X73829958Y-110721731D01*
X73755744Y-110700110D01*
X73734951Y-110686239D01*
X73698619Y-110622143D01*
X73689412Y-110549278D01*
X73689412Y-110453530D01*
X73827173Y-110453530D01*
X73958047Y-110463605D01*
X74057259Y-110492148D01*
X74118977Y-110536639D01*
X74137647Y-110587808D01*
X74378460Y-110587808D01*
X74374564Y-110504790D01*
X74328466Y-110394282D01*
X74241800Y-110310712D01*
X74229821Y-110303110D01*
X74178345Y-110278357D01*
X74114632Y-110263368D01*
X74025565Y-110256082D01*
X73919755Y-110254407D01*
X73689412Y-110254314D01*
X73689412Y-110157755D01*
X73699183Y-110082836D01*
X73724116Y-110032644D01*
X73727035Y-110029972D01*
X73782519Y-110008015D01*
X73866273Y-109999505D01*
X73958833Y-110003687D01*
X74040730Y-110019809D01*
X74089327Y-110043990D01*
X74115659Y-110063359D01*
X74143465Y-110067057D01*
X74181839Y-110051188D01*
X74239875Y-110011855D01*
X74326669Y-109945164D01*
X74334635Y-109938916D01*
X74330553Y-109915800D01*
X74296499Y-109877352D01*
X74244740Y-109834627D01*
X74187545Y-109798679D01*
X74169575Y-109790191D01*
X74104028Y-109773252D01*
X74007980Y-109761170D01*
X73900671Y-109756323D01*
X73895653Y-109756313D01*
X73741280Y-109765922D01*
G36*
X72967236Y-109758921D02*
G01*
X72929970Y-109770091D01*
X72917957Y-109794633D01*
X72917451Y-109805712D01*
X72915296Y-109836572D01*
X72900449Y-109841417D01*
X72860343Y-109820260D01*
X72836520Y-109805806D01*
X72761362Y-109774850D01*
X72671594Y-109759544D01*
X72577471Y-109758367D01*
X72489246Y-109769799D01*
X72417174Y-109792320D01*
X72371508Y-109824409D01*
X72362502Y-109864545D01*
X72367047Y-109875415D01*
X72400179Y-109920534D01*
X72451555Y-109976026D01*
X72460848Y-109984996D01*
X72509818Y-110026245D01*
X72552069Y-110039572D01*
X72611159Y-110030271D01*
X72634831Y-110024090D01*
X72708496Y-110009246D01*
X72760290Y-110015921D01*
X72804031Y-110039465D01*
X72844098Y-110071061D01*
X72873608Y-110110798D01*
X72894116Y-110166252D01*
X72907176Y-110245003D01*
X72914344Y-110354629D01*
X72917176Y-110502706D01*
X72917451Y-110592111D01*
X72917451Y-110976471D01*
X73166471Y-110976471D01*
X73166471Y-109756275D01*
X73041961Y-109756275D01*
X72967236Y-109758921D01*
G37*
X72967236Y-109758921D02*
X72929970Y-109770091D01*
X72917957Y-109794633D01*
X72917451Y-109805712D01*
X72915296Y-109836572D01*
X72900449Y-109841417D01*
X72860343Y-109820260D01*
X72836520Y-109805806D01*
X72761362Y-109774850D01*
X72671594Y-109759544D01*
X72577471Y-109758367D01*
X72489246Y-109769799D01*
X72417174Y-109792320D01*
X72371508Y-109824409D01*
X72362502Y-109864545D01*
X72367047Y-109875415D01*
X72400179Y-109920534D01*
X72451555Y-109976026D01*
X72460848Y-109984996D01*
X72509818Y-110026245D01*
X72552069Y-110039572D01*
X72611159Y-110030271D01*
X72634831Y-110024090D01*
X72708496Y-110009246D01*
X72760290Y-110015921D01*
X72804031Y-110039465D01*
X72844098Y-110071061D01*
X72873608Y-110110798D01*
X72894116Y-110166252D01*
X72907176Y-110245003D01*
X72914344Y-110354629D01*
X72917176Y-110502706D01*
X72917451Y-110592111D01*
X72917451Y-110976471D01*
X73166471Y-110976471D01*
X73166471Y-109756275D01*
X73041961Y-109756275D01*
X72967236Y-109758921D01*
G36*
X71398432Y-110976471D02*
G01*
X71535393Y-110976471D01*
X71614889Y-110974140D01*
X71656292Y-110964488D01*
X71671199Y-110943525D01*
X71672353Y-110929351D01*
X71674867Y-110900927D01*
X71690720Y-110895475D01*
X71732379Y-110912998D01*
X71764776Y-110929351D01*
X71889151Y-110968103D01*
X72024354Y-110970346D01*
X72134274Y-110941444D01*
X72236634Y-110871619D01*
X72314660Y-110768555D01*
X72357386Y-110646989D01*
X72358474Y-110640192D01*
X72364822Y-110566032D01*
X72367979Y-110459570D01*
X72367725Y-110379052D01*
X72095711Y-110379052D01*
X72089410Y-110486070D01*
X72075075Y-110574278D01*
X72055669Y-110624090D01*
X71982254Y-110692162D01*
X71895086Y-110716564D01*
X71805196Y-110696831D01*
X71728383Y-110637968D01*
X71699292Y-110598379D01*
X71682283Y-110551138D01*
X71674316Y-110482181D01*
X71672353Y-110378607D01*
X71675866Y-110276039D01*
X71685143Y-110185921D01*
X71698294Y-110125613D01*
X71700486Y-110120208D01*
X71753522Y-110055940D01*
X71830933Y-110020656D01*
X71917546Y-110014959D01*
X71998193Y-110039453D01*
X72057703Y-110094742D01*
X72063876Y-110105743D01*
X72083199Y-110172827D01*
X72093726Y-110269284D01*
X72095711Y-110379052D01*
X72367725Y-110379052D01*
X72367596Y-110338225D01*
X72365806Y-110272918D01*
X72353627Y-110111355D01*
X72328315Y-109990053D01*
X72286207Y-109900379D01*
X72223641Y-109833699D01*
X72162900Y-109794557D01*
X72078036Y-109767040D01*
X71972485Y-109757603D01*
X71864402Y-109765290D01*
X71771942Y-109789146D01*
X71723090Y-109817685D01*
X71672353Y-109863601D01*
X71672353Y-109283137D01*
X71398432Y-109283137D01*
X71398432Y-110976471D01*
G37*
X71398432Y-110976471D02*
X71535393Y-110976471D01*
X71614889Y-110974140D01*
X71656292Y-110964488D01*
X71671199Y-110943525D01*
X71672353Y-110929351D01*
X71674867Y-110900927D01*
X71690720Y-110895475D01*
X71732379Y-110912998D01*
X71764776Y-110929351D01*
X71889151Y-110968103D01*
X72024354Y-110970346D01*
X72134274Y-110941444D01*
X72236634Y-110871619D01*
X72314660Y-110768555D01*
X72357386Y-110646989D01*
X72358474Y-110640192D01*
X72364822Y-110566032D01*
X72367979Y-110459570D01*
X72367725Y-110379052D01*
X72095711Y-110379052D01*
X72089410Y-110486070D01*
X72075075Y-110574278D01*
X72055669Y-110624090D01*
X71982254Y-110692162D01*
X71895086Y-110716564D01*
X71805196Y-110696831D01*
X71728383Y-110637968D01*
X71699292Y-110598379D01*
X71682283Y-110551138D01*
X71674316Y-110482181D01*
X71672353Y-110378607D01*
X71675866Y-110276039D01*
X71685143Y-110185921D01*
X71698294Y-110125613D01*
X71700486Y-110120208D01*
X71753522Y-110055940D01*
X71830933Y-110020656D01*
X71917546Y-110014959D01*
X71998193Y-110039453D01*
X72057703Y-110094742D01*
X72063876Y-110105743D01*
X72083199Y-110172827D01*
X72093726Y-110269284D01*
X72095711Y-110379052D01*
X72367725Y-110379052D01*
X72367596Y-110338225D01*
X72365806Y-110272918D01*
X72353627Y-110111355D01*
X72328315Y-109990053D01*
X72286207Y-109900379D01*
X72223641Y-109833699D01*
X72162900Y-109794557D01*
X72078036Y-109767040D01*
X71972485Y-109757603D01*
X71864402Y-109765290D01*
X71771942Y-109789146D01*
X71723090Y-109817685D01*
X71672353Y-109863601D01*
X71672353Y-109283137D01*
X71398432Y-109283137D01*
X71398432Y-110976471D01*
G36*
X70442472Y-109761332D02*
G01*
X70343986Y-109768726D01*
X70215224Y-110154706D01*
X70086463Y-110540686D01*
X70046089Y-110403726D01*
X70021793Y-110319083D01*
X69989833Y-110204697D01*
X69955321Y-110078963D01*
X69937072Y-110011520D01*
X69868429Y-109756275D01*
X69585227Y-109756275D01*
X69669878Y-110023971D01*
X69711565Y-110155638D01*
X69761926Y-110314458D01*
X69814519Y-110480128D01*
X69861470Y-110627843D01*
X69968411Y-110964020D01*
X70199339Y-110979044D01*
X70261950Y-110772316D01*
X70300562Y-110643896D01*
X70342700Y-110502322D01*
X70379528Y-110377285D01*
X70380982Y-110372309D01*
X70408489Y-110287586D01*
X70432758Y-110229778D01*
X70449757Y-110207918D01*
X70453250Y-110210446D01*
X70465510Y-110244336D01*
X70488805Y-110316930D01*
X70520300Y-110419101D01*
X70557158Y-110541720D01*
X70577101Y-110609167D01*
X70685105Y-110976471D01*
X70914321Y-110976471D01*
X71097561Y-110397500D01*
X71149037Y-110235091D01*
X71195930Y-110087602D01*
X71236023Y-109961960D01*
X71267103Y-109865095D01*
X71286955Y-109803934D01*
X71292989Y-109786065D01*
X71288212Y-109767768D01*
X71250703Y-109759755D01*
X71172645Y-109760557D01*
X71160426Y-109761163D01*
X71015674Y-109768726D01*
X70920870Y-110117353D01*
X70886023Y-110244497D01*
X70854883Y-110356265D01*
X70830191Y-110442953D01*
X70814688Y-110494856D01*
X70811824Y-110503318D01*
X70799954Y-110493587D01*
X70776017Y-110443172D01*
X70742761Y-110358935D01*
X70702936Y-110247741D01*
X70669270Y-110147297D01*
X70540959Y-109753939D01*
X70442472Y-109761332D01*
G37*
X70442472Y-109761332D02*
X70343986Y-109768726D01*
X70215224Y-110154706D01*
X70086463Y-110540686D01*
X70046089Y-110403726D01*
X70021793Y-110319083D01*
X69989833Y-110204697D01*
X69955321Y-110078963D01*
X69937072Y-110011520D01*
X69868429Y-109756275D01*
X69585227Y-109756275D01*
X69669878Y-110023971D01*
X69711565Y-110155638D01*
X69761926Y-110314458D01*
X69814519Y-110480128D01*
X69861470Y-110627843D01*
X69968411Y-110964020D01*
X70199339Y-110979044D01*
X70261950Y-110772316D01*
X70300562Y-110643896D01*
X70342700Y-110502322D01*
X70379528Y-110377285D01*
X70380982Y-110372309D01*
X70408489Y-110287586D01*
X70432758Y-110229778D01*
X70449757Y-110207918D01*
X70453250Y-110210446D01*
X70465510Y-110244336D01*
X70488805Y-110316930D01*
X70520300Y-110419101D01*
X70557158Y-110541720D01*
X70577101Y-110609167D01*
X70685105Y-110976471D01*
X70914321Y-110976471D01*
X71097561Y-110397500D01*
X71149037Y-110235091D01*
X71195930Y-110087602D01*
X71236023Y-109961960D01*
X71267103Y-109865095D01*
X71286955Y-109803934D01*
X71292989Y-109786065D01*
X71288212Y-109767768D01*
X71250703Y-109759755D01*
X71172645Y-109760557D01*
X71160426Y-109761163D01*
X71015674Y-109768726D01*
X70920870Y-110117353D01*
X70886023Y-110244497D01*
X70854883Y-110356265D01*
X70830191Y-110442953D01*
X70814688Y-110494856D01*
X70811824Y-110503318D01*
X70799954Y-110493587D01*
X70776017Y-110443172D01*
X70742761Y-110358935D01*
X70702936Y-110247741D01*
X70669270Y-110147297D01*
X70540959Y-109753939D01*
X70442472Y-109761332D01*
G36*
X68943541Y-109763669D02*
G01*
X68838580Y-109789163D01*
X68808239Y-109802669D01*
X68749427Y-109838046D01*
X68704291Y-109877890D01*
X68670894Y-109929120D01*
X68647299Y-109998654D01*
X68631567Y-110093409D01*
X68621761Y-110220305D01*
X68615943Y-110386258D01*
X68613734Y-110497108D01*
X68605604Y-110976471D01*
X68744469Y-110976471D01*
X68828713Y-110972938D01*
X68872116Y-110960866D01*
X68883334Y-110940594D01*
X68889256Y-110918674D01*
X68915734Y-110922865D01*
X68951814Y-110940441D01*
X69042138Y-110967382D01*
X69158223Y-110974642D01*
X69280320Y-110962767D01*
X69388679Y-110932305D01*
X69398398Y-110928077D01*
X69497432Y-110858505D01*
X69562719Y-110761789D01*
X69592760Y-110648738D01*
X69590465Y-110608122D01*
X69345367Y-110608122D01*
X69323771Y-110662782D01*
X69259741Y-110701952D01*
X69156435Y-110722974D01*
X69101226Y-110725766D01*
X69009218Y-110718620D01*
X68948059Y-110690848D01*
X68933138Y-110677647D01*
X68892713Y-110605829D01*
X68883334Y-110540686D01*
X68883334Y-110453530D01*
X69004731Y-110453530D01*
X69145847Y-110460722D01*
X69244827Y-110483345D01*
X69307367Y-110522964D01*
X69321369Y-110540628D01*
X69345367Y-110608122D01*
X69590465Y-110608122D01*
X69586059Y-110530157D01*
X69541120Y-110416855D01*
X69479804Y-110340285D01*
X69442668Y-110307181D01*
X69406313Y-110285425D01*
X69359010Y-110272161D01*
X69289027Y-110264528D01*
X69184636Y-110259670D01*
X69143230Y-110258273D01*
X68883334Y-110249780D01*
X68883715Y-110171116D01*
X68893781Y-110088428D01*
X68930171Y-110038431D01*
X69003689Y-110006489D01*
X69005661Y-110005920D01*
X69109895Y-109993361D01*
X69211892Y-110009766D01*
X69287695Y-110049657D01*
X69318110Y-110069354D01*
X69350868Y-110066629D01*
X69401279Y-110038091D01*
X69430881Y-110017950D01*
X69488782Y-109974919D01*
X69524648Y-109942662D01*
X69530403Y-109933427D01*
X69506705Y-109885636D01*
X69436687Y-109828562D01*
X69406275Y-109809305D01*
X69318845Y-109776140D01*
X69201017Y-109757350D01*
X69070134Y-109753129D01*
X68943541Y-109763669D01*
G37*
X68943541Y-109763669D02*
X68838580Y-109789163D01*
X68808239Y-109802669D01*
X68749427Y-109838046D01*
X68704291Y-109877890D01*
X68670894Y-109929120D01*
X68647299Y-109998654D01*
X68631567Y-110093409D01*
X68621761Y-110220305D01*
X68615943Y-110386258D01*
X68613734Y-110497108D01*
X68605604Y-110976471D01*
X68744469Y-110976471D01*
X68828713Y-110972938D01*
X68872116Y-110960866D01*
X68883334Y-110940594D01*
X68889256Y-110918674D01*
X68915734Y-110922865D01*
X68951814Y-110940441D01*
X69042138Y-110967382D01*
X69158223Y-110974642D01*
X69280320Y-110962767D01*
X69388679Y-110932305D01*
X69398398Y-110928077D01*
X69497432Y-110858505D01*
X69562719Y-110761789D01*
X69592760Y-110648738D01*
X69590465Y-110608122D01*
X69345367Y-110608122D01*
X69323771Y-110662782D01*
X69259741Y-110701952D01*
X69156435Y-110722974D01*
X69101226Y-110725766D01*
X69009218Y-110718620D01*
X68948059Y-110690848D01*
X68933138Y-110677647D01*
X68892713Y-110605829D01*
X68883334Y-110540686D01*
X68883334Y-110453530D01*
X69004731Y-110453530D01*
X69145847Y-110460722D01*
X69244827Y-110483345D01*
X69307367Y-110522964D01*
X69321369Y-110540628D01*
X69345367Y-110608122D01*
X69590465Y-110608122D01*
X69586059Y-110530157D01*
X69541120Y-110416855D01*
X69479804Y-110340285D01*
X69442668Y-110307181D01*
X69406313Y-110285425D01*
X69359010Y-110272161D01*
X69289027Y-110264528D01*
X69184636Y-110259670D01*
X69143230Y-110258273D01*
X68883334Y-110249780D01*
X68883715Y-110171116D01*
X68893781Y-110088428D01*
X68930171Y-110038431D01*
X69003689Y-110006489D01*
X69005661Y-110005920D01*
X69109895Y-109993361D01*
X69211892Y-110009766D01*
X69287695Y-110049657D01*
X69318110Y-110069354D01*
X69350868Y-110066629D01*
X69401279Y-110038091D01*
X69430881Y-110017950D01*
X69488782Y-109974919D01*
X69524648Y-109942662D01*
X69530403Y-109933427D01*
X69506705Y-109885636D01*
X69436687Y-109828562D01*
X69406275Y-109809305D01*
X69318845Y-109776140D01*
X69201017Y-109757350D01*
X69070134Y-109753129D01*
X68943541Y-109763669D01*
G36*
X67761554Y-109755883D02*
G01*
X67665823Y-109774755D01*
X67611323Y-109802699D01*
X67553992Y-109849123D01*
X67635559Y-109952111D01*
X67685850Y-110014479D01*
X67719999Y-110044907D01*
X67753937Y-110049555D01*
X67803594Y-110034586D01*
X67826904Y-110026117D01*
X67921937Y-110013622D01*
X68008968Y-110040406D01*
X68072862Y-110100915D01*
X68083241Y-110120208D01*
X68094544Y-110171314D01*
X68103268Y-110265500D01*
X68109003Y-110396089D01*
X68111340Y-110556405D01*
X68111373Y-110579211D01*
X68111373Y-110976471D01*
X68385295Y-110976471D01*
X68385295Y-109756275D01*
X68248334Y-109756275D01*
X68169362Y-109758337D01*
X68128221Y-109767513D01*
X68113008Y-109788290D01*
X68111373Y-109807886D01*
X68111373Y-109859497D01*
X68045760Y-109807886D01*
X67970525Y-109772675D01*
X67869456Y-109755265D01*
X67761554Y-109755883D01*
G37*
X67761554Y-109755883D02*
X67665823Y-109774755D01*
X67611323Y-109802699D01*
X67553992Y-109849123D01*
X67635559Y-109952111D01*
X67685850Y-110014479D01*
X67719999Y-110044907D01*
X67753937Y-110049555D01*
X67803594Y-110034586D01*
X67826904Y-110026117D01*
X67921937Y-110013622D01*
X68008968Y-110040406D01*
X68072862Y-110100915D01*
X68083241Y-110120208D01*
X68094544Y-110171314D01*
X68103268Y-110265500D01*
X68109003Y-110396089D01*
X68111340Y-110556405D01*
X68111373Y-110579211D01*
X68111373Y-110976471D01*
X68385295Y-110976471D01*
X68385295Y-109756275D01*
X68248334Y-109756275D01*
X68169362Y-109758337D01*
X68128221Y-109767513D01*
X68113008Y-109788290D01*
X68111373Y-109807886D01*
X68111373Y-109859497D01*
X68045760Y-109807886D01*
X67970525Y-109772675D01*
X67869456Y-109755265D01*
X67761554Y-109755883D01*
G36*
X66974693Y-109762784D02*
G01*
X66855663Y-109793731D01*
X66755979Y-109857600D01*
X66707712Y-109905313D01*
X66628592Y-110018106D01*
X66583248Y-110148950D01*
X66567670Y-110309792D01*
X66567590Y-110322794D01*
X66567451Y-110453530D01*
X67319909Y-110453530D01*
X67303870Y-110522010D01*
X67274909Y-110584031D01*
X67224222Y-110648654D01*
X67213621Y-110658971D01*
X67122506Y-110714805D01*
X67018600Y-110724275D01*
X66899000Y-110687540D01*
X66878726Y-110677647D01*
X66816544Y-110647574D01*
X66774894Y-110630440D01*
X66767627Y-110628855D01*
X66742260Y-110644242D01*
X66693880Y-110681887D01*
X66669321Y-110702459D01*
X66618430Y-110749714D01*
X66601719Y-110780917D01*
X66613317Y-110809620D01*
X66619517Y-110817468D01*
X66661507Y-110851819D01*
X66730794Y-110893565D01*
X66779118Y-110917935D01*
X66916289Y-110960873D01*
X67068153Y-110974786D01*
X67211976Y-110958300D01*
X67252255Y-110946496D01*
X67376922Y-110879689D01*
X67469329Y-110776892D01*
X67530010Y-110637105D01*
X67559502Y-110459330D01*
X67562740Y-110366373D01*
X67553286Y-110231033D01*
X67314510Y-110231033D01*
X67291416Y-110241038D01*
X67229338Y-110248888D01*
X67139086Y-110253521D01*
X67077942Y-110254314D01*
X66967960Y-110253549D01*
X66898543Y-110249970D01*
X66860462Y-110241649D01*
X66844485Y-110226657D01*
X66841373Y-110204903D01*
X66862722Y-110137892D01*
X66916471Y-110071664D01*
X66987178Y-110020832D01*
X67057911Y-110000038D01*
X67153984Y-110018484D01*
X67237151Y-110071811D01*
X67294814Y-110148677D01*
X67314510Y-110231033D01*
X67553286Y-110231033D01*
X67548972Y-110169291D01*
X67506480Y-110012271D01*
X67434365Y-109894069D01*
X67331727Y-109813440D01*
X67197668Y-109769139D01*
X67125043Y-109760607D01*
X66974693Y-109762784D01*
G37*
X66974693Y-109762784D02*
X66855663Y-109793731D01*
X66755979Y-109857600D01*
X66707712Y-109905313D01*
X66628592Y-110018106D01*
X66583248Y-110148950D01*
X66567670Y-110309792D01*
X66567590Y-110322794D01*
X66567451Y-110453530D01*
X67319909Y-110453530D01*
X67303870Y-110522010D01*
X67274909Y-110584031D01*
X67224222Y-110648654D01*
X67213621Y-110658971D01*
X67122506Y-110714805D01*
X67018600Y-110724275D01*
X66899000Y-110687540D01*
X66878726Y-110677647D01*
X66816544Y-110647574D01*
X66774894Y-110630440D01*
X66767627Y-110628855D01*
X66742260Y-110644242D01*
X66693880Y-110681887D01*
X66669321Y-110702459D01*
X66618430Y-110749714D01*
X66601719Y-110780917D01*
X66613317Y-110809620D01*
X66619517Y-110817468D01*
X66661507Y-110851819D01*
X66730794Y-110893565D01*
X66779118Y-110917935D01*
X66916289Y-110960873D01*
X67068153Y-110974786D01*
X67211976Y-110958300D01*
X67252255Y-110946496D01*
X67376922Y-110879689D01*
X67469329Y-110776892D01*
X67530010Y-110637105D01*
X67559502Y-110459330D01*
X67562740Y-110366373D01*
X67553286Y-110231033D01*
X67314510Y-110231033D01*
X67291416Y-110241038D01*
X67229338Y-110248888D01*
X67139086Y-110253521D01*
X67077942Y-110254314D01*
X66967960Y-110253549D01*
X66898543Y-110249970D01*
X66860462Y-110241649D01*
X66844485Y-110226657D01*
X66841373Y-110204903D01*
X66862722Y-110137892D01*
X66916471Y-110071664D01*
X66987178Y-110020832D01*
X67057911Y-110000038D01*
X67153984Y-110018484D01*
X67237151Y-110071811D01*
X67294814Y-110148677D01*
X67314510Y-110231033D01*
X67553286Y-110231033D01*
X67548972Y-110169291D01*
X67506480Y-110012271D01*
X67434365Y-109894069D01*
X67331727Y-109813440D01*
X67197668Y-109769139D01*
X67125043Y-109760607D01*
X66974693Y-109762784D01*
G36*
X76026753Y-107901568D02*
G01*
X75896478Y-107959163D01*
X75797581Y-108055334D01*
X75729918Y-108190229D01*
X75693345Y-108363996D01*
X75690724Y-108391126D01*
X75688670Y-108582408D01*
X75715301Y-108750073D01*
X75768999Y-108885967D01*
X75797753Y-108929681D01*
X75897909Y-109022198D01*
X76025463Y-109082119D01*
X76168163Y-109106985D01*
X76313760Y-109094339D01*
X76424438Y-109055391D01*
X76519616Y-108989755D01*
X76597406Y-108903699D01*
X76598751Y-108901685D01*
X76630343Y-108848570D01*
X76650873Y-108795160D01*
X76663305Y-108727754D01*
X76670603Y-108632653D01*
X76673818Y-108554666D01*
X76675156Y-108483944D01*
X76426186Y-108483944D01*
X76423753Y-108554348D01*
X76414920Y-108648068D01*
X76399336Y-108708214D01*
X76371234Y-108751006D01*
X76344914Y-108776002D01*
X76251608Y-108828338D01*
X76153980Y-108835333D01*
X76063058Y-108797676D01*
X76017598Y-108755479D01*
X75984838Y-108712956D01*
X75965677Y-108672267D01*
X75957267Y-108619314D01*
X75956763Y-108539997D01*
X75959355Y-108466950D01*
X75964929Y-108362601D01*
X75973766Y-108294920D01*
X75989693Y-108250774D01*
X76016538Y-108217031D01*
X76037811Y-108197746D01*
X76126794Y-108147086D01*
X76222789Y-108144560D01*
X76303281Y-108174567D01*
X76371947Y-108237231D01*
X76412856Y-108340168D01*
X76426186Y-108483944D01*
X76675156Y-108483944D01*
X76676754Y-108399582D01*
X76671740Y-108283600D01*
X76656717Y-108196367D01*
X76629624Y-108127530D01*
X76588400Y-108066737D01*
X76573115Y-108048686D01*
X76477546Y-107958746D01*
X76375039Y-107906211D01*
X76249679Y-107884201D01*
X76188550Y-107882402D01*
X76026753Y-107901568D01*
G37*
X76026753Y-107901568D02*
X75896478Y-107959163D01*
X75797581Y-108055334D01*
X75729918Y-108190229D01*
X75693345Y-108363996D01*
X75690724Y-108391126D01*
X75688670Y-108582408D01*
X75715301Y-108750073D01*
X75768999Y-108885967D01*
X75797753Y-108929681D01*
X75897909Y-109022198D01*
X76025463Y-109082119D01*
X76168163Y-109106985D01*
X76313760Y-109094339D01*
X76424438Y-109055391D01*
X76519616Y-108989755D01*
X76597406Y-108903699D01*
X76598751Y-108901685D01*
X76630343Y-108848570D01*
X76650873Y-108795160D01*
X76663305Y-108727754D01*
X76670603Y-108632653D01*
X76673818Y-108554666D01*
X76675156Y-108483944D01*
X76426186Y-108483944D01*
X76423753Y-108554348D01*
X76414920Y-108648068D01*
X76399336Y-108708214D01*
X76371234Y-108751006D01*
X76344914Y-108776002D01*
X76251608Y-108828338D01*
X76153980Y-108835333D01*
X76063058Y-108797676D01*
X76017598Y-108755479D01*
X75984838Y-108712956D01*
X75965677Y-108672267D01*
X75957267Y-108619314D01*
X75956763Y-108539997D01*
X75959355Y-108466950D01*
X75964929Y-108362601D01*
X75973766Y-108294920D01*
X75989693Y-108250774D01*
X76016538Y-108217031D01*
X76037811Y-108197746D01*
X76126794Y-108147086D01*
X76222789Y-108144560D01*
X76303281Y-108174567D01*
X76371947Y-108237231D01*
X76412856Y-108340168D01*
X76426186Y-108483944D01*
X76675156Y-108483944D01*
X76676754Y-108399582D01*
X76671740Y-108283600D01*
X76656717Y-108196367D01*
X76629624Y-108127530D01*
X76588400Y-108066737D01*
X76573115Y-108048686D01*
X76477546Y-107958746D01*
X76375039Y-107906211D01*
X76249679Y-107884201D01*
X76188550Y-107882402D01*
X76026753Y-107901568D01*
G36*
X73686796Y-107916354D02*
G01*
X73661981Y-107928037D01*
X73576094Y-107990951D01*
X73494879Y-108082769D01*
X73434236Y-108183868D01*
X73416988Y-108230349D01*
X73401251Y-108313376D01*
X73391867Y-108413713D01*
X73390728Y-108455147D01*
X73390589Y-108585882D01*
X74143047Y-108585882D01*
X74127007Y-108654363D01*
X74087637Y-108735355D01*
X74018806Y-108805351D01*
X73936919Y-108850441D01*
X73884737Y-108859804D01*
X73813971Y-108848441D01*
X73729540Y-108819943D01*
X73700858Y-108806831D01*
X73594791Y-108753858D01*
X73504272Y-108822901D01*
X73452039Y-108869597D01*
X73424247Y-108908140D01*
X73422840Y-108919452D01*
X73447668Y-108946868D01*
X73502083Y-108988532D01*
X73551472Y-109021037D01*
X73684748Y-109079468D01*
X73834161Y-109105915D01*
X73982249Y-109099039D01*
X74100295Y-109063096D01*
X74221982Y-108986101D01*
X74308460Y-108884728D01*
X74362559Y-108753570D01*
X74387109Y-108587224D01*
X74389286Y-108511108D01*
X74380573Y-108336685D01*
X74379503Y-108331611D01*
X74130173Y-108331611D01*
X74123306Y-108347968D01*
X74095083Y-108356988D01*
X74036873Y-108360854D01*
X73940042Y-108361749D01*
X73902757Y-108361765D01*
X73789317Y-108360413D01*
X73717378Y-108355505D01*
X73678687Y-108345760D01*
X73664995Y-108329899D01*
X73664510Y-108324805D01*
X73680137Y-108284326D01*
X73719247Y-108227621D01*
X73736061Y-108207766D01*
X73798481Y-108151611D01*
X73863547Y-108129532D01*
X73898603Y-108127686D01*
X73993442Y-108150766D01*
X74072973Y-108212759D01*
X74123423Y-108302802D01*
X74124317Y-108305735D01*
X74130173Y-108331611D01*
X74379503Y-108331611D01*
X74351601Y-108199343D01*
X74299410Y-108089461D01*
X74235579Y-108011461D01*
X74117567Y-107926882D01*
X73978842Y-107881686D01*
X73831290Y-107877600D01*
X73686796Y-107916354D01*
G37*
X73686796Y-107916354D02*
X73661981Y-107928037D01*
X73576094Y-107990951D01*
X73494879Y-108082769D01*
X73434236Y-108183868D01*
X73416988Y-108230349D01*
X73401251Y-108313376D01*
X73391867Y-108413713D01*
X73390728Y-108455147D01*
X73390589Y-108585882D01*
X74143047Y-108585882D01*
X74127007Y-108654363D01*
X74087637Y-108735355D01*
X74018806Y-108805351D01*
X73936919Y-108850441D01*
X73884737Y-108859804D01*
X73813971Y-108848441D01*
X73729540Y-108819943D01*
X73700858Y-108806831D01*
X73594791Y-108753858D01*
X73504272Y-108822901D01*
X73452039Y-108869597D01*
X73424247Y-108908140D01*
X73422840Y-108919452D01*
X73447668Y-108946868D01*
X73502083Y-108988532D01*
X73551472Y-109021037D01*
X73684748Y-109079468D01*
X73834161Y-109105915D01*
X73982249Y-109099039D01*
X74100295Y-109063096D01*
X74221982Y-108986101D01*
X74308460Y-108884728D01*
X74362559Y-108753570D01*
X74387109Y-108587224D01*
X74389286Y-108511108D01*
X74380573Y-108336685D01*
X74379503Y-108331611D01*
X74130173Y-108331611D01*
X74123306Y-108347968D01*
X74095083Y-108356988D01*
X74036873Y-108360854D01*
X73940042Y-108361749D01*
X73902757Y-108361765D01*
X73789317Y-108360413D01*
X73717378Y-108355505D01*
X73678687Y-108345760D01*
X73664995Y-108329899D01*
X73664510Y-108324805D01*
X73680137Y-108284326D01*
X73719247Y-108227621D01*
X73736061Y-108207766D01*
X73798481Y-108151611D01*
X73863547Y-108129532D01*
X73898603Y-108127686D01*
X73993442Y-108150766D01*
X74072973Y-108212759D01*
X74123423Y-108302802D01*
X74124317Y-108305735D01*
X74130173Y-108331611D01*
X74379503Y-108331611D01*
X74351601Y-108199343D01*
X74299410Y-108089461D01*
X74235579Y-108011461D01*
X74117567Y-107926882D01*
X73978842Y-107881686D01*
X73831290Y-107877600D01*
X73686796Y-107916354D01*
G36*
X70972241Y-107884345D02*
G01*
X70877941Y-107902229D01*
X70780110Y-107939633D01*
X70769657Y-107944402D01*
X70695469Y-107983412D01*
X70644090Y-108019664D01*
X70627483Y-108042887D01*
X70643298Y-108080761D01*
X70681712Y-108136644D01*
X70698763Y-108157505D01*
X70769031Y-108239618D01*
X70859621Y-108186168D01*
X70945836Y-108150561D01*
X71045451Y-108131529D01*
X71140981Y-108130326D01*
X71214939Y-108148210D01*
X71232688Y-108159373D01*
X71266488Y-108210553D01*
X71270596Y-108269509D01*
X71245304Y-108315567D01*
X71230344Y-108324499D01*
X71185514Y-108335592D01*
X71106714Y-108348630D01*
X71009574Y-108361088D01*
X70991654Y-108363042D01*
X70835635Y-108390030D01*
X70722477Y-108435873D01*
X70647431Y-108504803D01*
X70605747Y-108601054D01*
X70592762Y-108718617D01*
X70610701Y-108852254D01*
X70668950Y-108957195D01*
X70767745Y-109033630D01*
X70907318Y-109081748D01*
X71062255Y-109100732D01*
X71188602Y-109100504D01*
X71291087Y-109083262D01*
X71361079Y-109059457D01*
X71449517Y-109017978D01*
X71531246Y-108969842D01*
X71560295Y-108948655D01*
X71635000Y-108887676D01*
X71544902Y-108796508D01*
X71454804Y-108705339D01*
X71352368Y-108773128D01*
X71249626Y-108824042D01*
X71139913Y-108850673D01*
X71034449Y-108853483D01*
X70944454Y-108832935D01*
X70881146Y-108789493D01*
X70860704Y-108752838D01*
X70863771Y-108694053D01*
X70914566Y-108649099D01*
X71012952Y-108618057D01*
X71120744Y-108603710D01*
X71286635Y-108576337D01*
X71409876Y-108524693D01*
X71492114Y-108447266D01*
X71534999Y-108342544D01*
X71540940Y-108218387D01*
X71511594Y-108088702D01*
X71444691Y-107990677D01*
X71339629Y-107923866D01*
X71195810Y-107887820D01*
X71089262Y-107880754D01*
X70972241Y-107884345D01*
G37*
X70972241Y-107884345D02*
X70877941Y-107902229D01*
X70780110Y-107939633D01*
X70769657Y-107944402D01*
X70695469Y-107983412D01*
X70644090Y-108019664D01*
X70627483Y-108042887D01*
X70643298Y-108080761D01*
X70681712Y-108136644D01*
X70698763Y-108157505D01*
X70769031Y-108239618D01*
X70859621Y-108186168D01*
X70945836Y-108150561D01*
X71045451Y-108131529D01*
X71140981Y-108130326D01*
X71214939Y-108148210D01*
X71232688Y-108159373D01*
X71266488Y-108210553D01*
X71270596Y-108269509D01*
X71245304Y-108315567D01*
X71230344Y-108324499D01*
X71185514Y-108335592D01*
X71106714Y-108348630D01*
X71009574Y-108361088D01*
X70991654Y-108363042D01*
X70835635Y-108390030D01*
X70722477Y-108435873D01*
X70647431Y-108504803D01*
X70605747Y-108601054D01*
X70592762Y-108718617D01*
X70610701Y-108852254D01*
X70668950Y-108957195D01*
X70767745Y-109033630D01*
X70907318Y-109081748D01*
X71062255Y-109100732D01*
X71188602Y-109100504D01*
X71291087Y-109083262D01*
X71361079Y-109059457D01*
X71449517Y-109017978D01*
X71531246Y-108969842D01*
X71560295Y-108948655D01*
X71635000Y-108887676D01*
X71544902Y-108796508D01*
X71454804Y-108705339D01*
X71352368Y-108773128D01*
X71249626Y-108824042D01*
X71139913Y-108850673D01*
X71034449Y-108853483D01*
X70944454Y-108832935D01*
X70881146Y-108789493D01*
X70860704Y-108752838D01*
X70863771Y-108694053D01*
X70914566Y-108649099D01*
X71012952Y-108618057D01*
X71120744Y-108603710D01*
X71286635Y-108576337D01*
X71409876Y-108524693D01*
X71492114Y-108447266D01*
X71534999Y-108342544D01*
X71540940Y-108218387D01*
X71511594Y-108088702D01*
X71444691Y-107990677D01*
X71339629Y-107923866D01*
X71195810Y-107887820D01*
X71089262Y-107880754D01*
X70972241Y-107884345D01*
G36*
X69790453Y-107903364D02*
G01*
X69664498Y-107971959D01*
X69565953Y-108080245D01*
X69519522Y-108168315D01*
X69499588Y-108246101D01*
X69486672Y-108356993D01*
X69481137Y-108484738D01*
X69483346Y-108613084D01*
X69493663Y-108725779D01*
X69505714Y-108785969D01*
X69546366Y-108868311D01*
X69616770Y-108955770D01*
X69701618Y-109032251D01*
X69785603Y-109081655D01*
X69787651Y-109082439D01*
X69891866Y-109104027D01*
X70015373Y-109104562D01*
X70132739Y-109084908D01*
X70178058Y-109069155D01*
X70294780Y-109002966D01*
X70378376Y-108916246D01*
X70433299Y-108801438D01*
X70464005Y-108650982D01*
X70470953Y-108572173D01*
X70470067Y-108473145D01*
X70203138Y-108473145D01*
X70194146Y-108617645D01*
X70168264Y-108727760D01*
X70127132Y-108798116D01*
X70097828Y-108818235D01*
X70022749Y-108832265D01*
X69933506Y-108828111D01*
X69856350Y-108807922D01*
X69836117Y-108796815D01*
X69782735Y-108732123D01*
X69747500Y-108633119D01*
X69732502Y-108512632D01*
X69739828Y-108383494D01*
X69756201Y-108305775D01*
X69803210Y-108215771D01*
X69877418Y-108159509D01*
X69966791Y-108140057D01*
X70059293Y-108160481D01*
X70130347Y-108210437D01*
X70167688Y-108251655D01*
X70189482Y-108292281D01*
X70199870Y-108347264D01*
X70202994Y-108431549D01*
X70203138Y-108473145D01*
X70470067Y-108473145D01*
X70469070Y-108361874D01*
X70434820Y-108189423D01*
X70368198Y-108054814D01*
X70269201Y-107958040D01*
X70137825Y-107899094D01*
X70109615Y-107892259D01*
X69940074Y-107876213D01*
X69790453Y-107903364D01*
G37*
X69790453Y-107903364D02*
X69664498Y-107971959D01*
X69565953Y-108080245D01*
X69519522Y-108168315D01*
X69499588Y-108246101D01*
X69486672Y-108356993D01*
X69481137Y-108484738D01*
X69483346Y-108613084D01*
X69493663Y-108725779D01*
X69505714Y-108785969D01*
X69546366Y-108868311D01*
X69616770Y-108955770D01*
X69701618Y-109032251D01*
X69785603Y-109081655D01*
X69787651Y-109082439D01*
X69891866Y-109104027D01*
X70015373Y-109104562D01*
X70132739Y-109084908D01*
X70178058Y-109069155D01*
X70294780Y-109002966D01*
X70378376Y-108916246D01*
X70433299Y-108801438D01*
X70464005Y-108650982D01*
X70470953Y-108572173D01*
X70470067Y-108473145D01*
X70203138Y-108473145D01*
X70194146Y-108617645D01*
X70168264Y-108727760D01*
X70127132Y-108798116D01*
X70097828Y-108818235D01*
X70022749Y-108832265D01*
X69933506Y-108828111D01*
X69856350Y-108807922D01*
X69836117Y-108796815D01*
X69782735Y-108732123D01*
X69747500Y-108633119D01*
X69732502Y-108512632D01*
X69739828Y-108383494D01*
X69756201Y-108305775D01*
X69803210Y-108215771D01*
X69877418Y-108159509D01*
X69966791Y-108140057D01*
X70059293Y-108160481D01*
X70130347Y-108210437D01*
X70167688Y-108251655D01*
X70189482Y-108292281D01*
X70199870Y-108347264D01*
X70202994Y-108431549D01*
X70203138Y-108473145D01*
X70470067Y-108473145D01*
X70469070Y-108361874D01*
X70434820Y-108189423D01*
X70368198Y-108054814D01*
X70269201Y-107958040D01*
X70137825Y-107899094D01*
X70109615Y-107892259D01*
X69940074Y-107876213D01*
X69790453Y-107903364D01*
G36*
X69032746Y-108276245D02*
G01*
X69030392Y-108458879D01*
X69021793Y-108597600D01*
X69004640Y-108698147D01*
X68976626Y-108766254D01*
X68935443Y-108807659D01*
X68878783Y-108828097D01*
X68808628Y-108833318D01*
X68735152Y-108827468D01*
X68679343Y-108806093D01*
X68638891Y-108763458D01*
X68611491Y-108693825D01*
X68594833Y-108591460D01*
X68586611Y-108450624D01*
X68584510Y-108276245D01*
X68584510Y-107888628D01*
X68310589Y-107888628D01*
X68310589Y-109083922D01*
X68447549Y-109083922D01*
X68530116Y-109080576D01*
X68572632Y-109068826D01*
X68584510Y-109046520D01*
X68591664Y-109026654D01*
X68620135Y-109030857D01*
X68677524Y-109058971D01*
X68809055Y-109102342D01*
X68948562Y-109099270D01*
X69082235Y-109052174D01*
X69145892Y-109014971D01*
X69194447Y-108974691D01*
X69229919Y-108924291D01*
X69254326Y-108856729D01*
X69269687Y-108764965D01*
X69278018Y-108641955D01*
X69281338Y-108480659D01*
X69281765Y-108355928D01*
X69281765Y-107888628D01*
X69032746Y-107888628D01*
X69032746Y-108276245D01*
G37*
X69032746Y-108276245D02*
X69030392Y-108458879D01*
X69021793Y-108597600D01*
X69004640Y-108698147D01*
X68976626Y-108766254D01*
X68935443Y-108807659D01*
X68878783Y-108828097D01*
X68808628Y-108833318D01*
X68735152Y-108827468D01*
X68679343Y-108806093D01*
X68638891Y-108763458D01*
X68611491Y-108693825D01*
X68594833Y-108591460D01*
X68586611Y-108450624D01*
X68584510Y-108276245D01*
X68584510Y-107888628D01*
X68310589Y-107888628D01*
X68310589Y-109083922D01*
X68447549Y-109083922D01*
X68530116Y-109080576D01*
X68572632Y-109068826D01*
X68584510Y-109046520D01*
X68591664Y-109026654D01*
X68620135Y-109030857D01*
X68677524Y-109058971D01*
X68809055Y-109102342D01*
X68948562Y-109099270D01*
X69082235Y-109052174D01*
X69145892Y-109014971D01*
X69194447Y-108974691D01*
X69229919Y-108924291D01*
X69254326Y-108856729D01*
X69269687Y-108764965D01*
X69278018Y-108641955D01*
X69281338Y-108480659D01*
X69281765Y-108355928D01*
X69281765Y-107888628D01*
X69032746Y-107888628D01*
X69032746Y-108276245D01*
G36*
X66609024Y-107899056D02*
G01*
X66464744Y-107960348D01*
X66419301Y-107990185D01*
X66361221Y-108036036D01*
X66324762Y-108072089D01*
X66318432Y-108083832D01*
X66336307Y-108109889D01*
X66382050Y-108154105D01*
X66418672Y-108184965D01*
X66518912Y-108265520D01*
X66598065Y-108198918D01*
X66659231Y-108155921D01*
X66718871Y-108141079D01*
X66787128Y-108144704D01*
X66895518Y-108171652D01*
X66970128Y-108227587D01*
X67015470Y-108318014D01*
X67036053Y-108448435D01*
X67036058Y-108448517D01*
X67034278Y-108594290D01*
X67006613Y-108701245D01*
X66951429Y-108774064D01*
X66913808Y-108798723D01*
X66813895Y-108829431D01*
X66707178Y-108829449D01*
X66614331Y-108799655D01*
X66592353Y-108785098D01*
X66537235Y-108747914D01*
X66494141Y-108741820D01*
X66447665Y-108769496D01*
X66396284Y-108819205D01*
X66314954Y-108903116D01*
X66405251Y-108977546D01*
X66544764Y-109061549D01*
X66702088Y-109102947D01*
X66866497Y-109099950D01*
X66974469Y-109072500D01*
X67100669Y-109004620D01*
X67201599Y-108897831D01*
X67247452Y-108822451D01*
X67284590Y-108714297D01*
X67303173Y-108577318D01*
X67303316Y-108428864D01*
X67285135Y-108286281D01*
X67248745Y-108166918D01*
X67243013Y-108154680D01*
X67158135Y-108034655D01*
X67043218Y-107947267D01*
X66907341Y-107894329D01*
X66759583Y-107877654D01*
X66609024Y-107899056D01*
G37*
X66609024Y-107899056D02*
X66464744Y-107960348D01*
X66419301Y-107990185D01*
X66361221Y-108036036D01*
X66324762Y-108072089D01*
X66318432Y-108083832D01*
X66336307Y-108109889D01*
X66382050Y-108154105D01*
X66418672Y-108184965D01*
X66518912Y-108265520D01*
X66598065Y-108198918D01*
X66659231Y-108155921D01*
X66718871Y-108141079D01*
X66787128Y-108144704D01*
X66895518Y-108171652D01*
X66970128Y-108227587D01*
X67015470Y-108318014D01*
X67036053Y-108448435D01*
X67036058Y-108448517D01*
X67034278Y-108594290D01*
X67006613Y-108701245D01*
X66951429Y-108774064D01*
X66913808Y-108798723D01*
X66813895Y-108829431D01*
X66707178Y-108829449D01*
X66614331Y-108799655D01*
X66592353Y-108785098D01*
X66537235Y-108747914D01*
X66494141Y-108741820D01*
X66447665Y-108769496D01*
X66396284Y-108819205D01*
X66314954Y-108903116D01*
X66405251Y-108977546D01*
X66544764Y-109061549D01*
X66702088Y-109102947D01*
X66866497Y-109099950D01*
X66974469Y-109072500D01*
X67100669Y-109004620D01*
X67201599Y-108897831D01*
X67247452Y-108822451D01*
X67284590Y-108714297D01*
X67303173Y-108577318D01*
X67303316Y-108428864D01*
X67285135Y-108286281D01*
X67248745Y-108166918D01*
X67243013Y-108154680D01*
X67158135Y-108034655D01*
X67043218Y-107947267D01*
X66907341Y-107894329D01*
X66759583Y-107877654D01*
X66609024Y-107899056D01*
G36*
X65696713Y-107884355D02*
G01*
X65632949Y-107899845D01*
X65510700Y-107956569D01*
X65406166Y-108043202D01*
X65333820Y-108147074D01*
X65323881Y-108170396D01*
X65310246Y-108231484D01*
X65300702Y-108321853D01*
X65297451Y-108413190D01*
X65297451Y-108585882D01*
X65658530Y-108585882D01*
X65807454Y-108586445D01*
X65912368Y-108589864D01*
X65979063Y-108598731D01*
X66013334Y-108615641D01*
X66020972Y-108643189D01*
X66007771Y-108683968D01*
X65984123Y-108731683D01*
X65918157Y-108811314D01*
X65826488Y-108850987D01*
X65714445Y-108849695D01*
X65587528Y-108806514D01*
X65477842Y-108753224D01*
X65386827Y-108825191D01*
X65295812Y-108897157D01*
X65381437Y-108976269D01*
X65495750Y-109051017D01*
X65636334Y-109096084D01*
X65787551Y-109108696D01*
X65933764Y-109086079D01*
X65957353Y-109078405D01*
X66085859Y-109011296D01*
X66181449Y-108911247D01*
X66246139Y-108775271D01*
X66281943Y-108600380D01*
X66282360Y-108596632D01*
X66285566Y-108406032D01*
X66272607Y-108338035D01*
X66019608Y-108338035D01*
X65996373Y-108348491D01*
X65933290Y-108356500D01*
X65840294Y-108361073D01*
X65781362Y-108361765D01*
X65671463Y-108361332D01*
X65602748Y-108358578D01*
X65566595Y-108351321D01*
X65554385Y-108337376D01*
X65557496Y-108314562D01*
X65560106Y-108305735D01*
X65604656Y-108222800D01*
X65674721Y-108155960D01*
X65736554Y-108126589D01*
X65818699Y-108128362D01*
X65901938Y-108164990D01*
X65971762Y-108225634D01*
X66013663Y-108299456D01*
X66019608Y-108338035D01*
X66272607Y-108338035D01*
X66253615Y-108238395D01*
X66190227Y-108097711D01*
X66099122Y-107987974D01*
X65984022Y-107913174D01*
X65848645Y-107877304D01*
X65696713Y-107884355D01*
G37*
X65696713Y-107884355D02*
X65632949Y-107899845D01*
X65510700Y-107956569D01*
X65406166Y-108043202D01*
X65333820Y-108147074D01*
X65323881Y-108170396D01*
X65310246Y-108231484D01*
X65300702Y-108321853D01*
X65297451Y-108413190D01*
X65297451Y-108585882D01*
X65658530Y-108585882D01*
X65807454Y-108586445D01*
X65912368Y-108589864D01*
X65979063Y-108598731D01*
X66013334Y-108615641D01*
X66020972Y-108643189D01*
X66007771Y-108683968D01*
X65984123Y-108731683D01*
X65918157Y-108811314D01*
X65826488Y-108850987D01*
X65714445Y-108849695D01*
X65587528Y-108806514D01*
X65477842Y-108753224D01*
X65386827Y-108825191D01*
X65295812Y-108897157D01*
X65381437Y-108976269D01*
X65495750Y-109051017D01*
X65636334Y-109096084D01*
X65787551Y-109108696D01*
X65933764Y-109086079D01*
X65957353Y-109078405D01*
X66085859Y-109011296D01*
X66181449Y-108911247D01*
X66246139Y-108775271D01*
X66281943Y-108600380D01*
X66282360Y-108596632D01*
X66285566Y-108406032D01*
X66272607Y-108338035D01*
X66019608Y-108338035D01*
X65996373Y-108348491D01*
X65933290Y-108356500D01*
X65840294Y-108361073D01*
X65781362Y-108361765D01*
X65671463Y-108361332D01*
X65602748Y-108358578D01*
X65566595Y-108351321D01*
X65554385Y-108337376D01*
X65557496Y-108314562D01*
X65560106Y-108305735D01*
X65604656Y-108222800D01*
X65674721Y-108155960D01*
X65736554Y-108126589D01*
X65818699Y-108128362D01*
X65901938Y-108164990D01*
X65971762Y-108225634D01*
X66013663Y-108299456D01*
X66019608Y-108338035D01*
X66272607Y-108338035D01*
X66253615Y-108238395D01*
X66190227Y-108097711D01*
X66099122Y-107987974D01*
X65984022Y-107913174D01*
X65848645Y-107877304D01*
X65696713Y-107884355D01*
G36*
X72493240Y-107909199D02*
G01*
X72431264Y-107938802D01*
X72371241Y-107981561D01*
X72325514Y-108030775D01*
X72292207Y-108093544D01*
X72269445Y-108176971D01*
X72255353Y-108288159D01*
X72248058Y-108434209D01*
X72245682Y-108622223D01*
X72245645Y-108641912D01*
X72245098Y-109083922D01*
X72519020Y-109083922D01*
X72519020Y-108676435D01*
X72519215Y-108525471D01*
X72520564Y-108416056D01*
X72524212Y-108339933D01*
X72531304Y-108288848D01*
X72542987Y-108254545D01*
X72560406Y-108228768D01*
X72584671Y-108203298D01*
X72669565Y-108148571D01*
X72762239Y-108138416D01*
X72850527Y-108173017D01*
X72881230Y-108198770D01*
X72903771Y-108222982D01*
X72919954Y-108248912D01*
X72930832Y-108284708D01*
X72937458Y-108338519D01*
X72940885Y-108418493D01*
X72942166Y-108532779D01*
X72942353Y-108671907D01*
X72942353Y-109083922D01*
X73216275Y-109083922D01*
X73216275Y-107888628D01*
X73079314Y-107888628D01*
X72997084Y-107891879D01*
X72954660Y-107903426D01*
X72942359Y-107925952D01*
X72942353Y-107926620D01*
X72936646Y-107948681D01*
X72911473Y-107946177D01*
X72861422Y-107921937D01*
X72747906Y-107886271D01*
X72618055Y-107882305D01*
X72493240Y-107909199D01*
G37*
X72493240Y-107909199D02*
X72431264Y-107938802D01*
X72371241Y-107981561D01*
X72325514Y-108030775D01*
X72292207Y-108093544D01*
X72269445Y-108176971D01*
X72255353Y-108288159D01*
X72248058Y-108434209D01*
X72245682Y-108622223D01*
X72245645Y-108641912D01*
X72245098Y-109083922D01*
X72519020Y-109083922D01*
X72519020Y-108676435D01*
X72519215Y-108525471D01*
X72520564Y-108416056D01*
X72524212Y-108339933D01*
X72531304Y-108288848D01*
X72542987Y-108254545D01*
X72560406Y-108228768D01*
X72584671Y-108203298D01*
X72669565Y-108148571D01*
X72762239Y-108138416D01*
X72850527Y-108173017D01*
X72881230Y-108198770D01*
X72903771Y-108222982D01*
X72919954Y-108248912D01*
X72930832Y-108284708D01*
X72937458Y-108338519D01*
X72940885Y-108418493D01*
X72942166Y-108532779D01*
X72942353Y-108671907D01*
X72942353Y-109083922D01*
X73216275Y-109083922D01*
X73216275Y-107888628D01*
X73079314Y-107888628D01*
X72997084Y-107891879D01*
X72954660Y-107903426D01*
X72942359Y-107925952D01*
X72942353Y-107926620D01*
X72936646Y-107948681D01*
X72911473Y-107946177D01*
X72861422Y-107921937D01*
X72747906Y-107886271D01*
X72618055Y-107882305D01*
X72493240Y-107909199D01*
G36*
X67436363Y-107887472D02*
G01*
X67350710Y-107913641D01*
X67295563Y-107946707D01*
X67277599Y-107972855D01*
X67282543Y-108003852D01*
X67314628Y-108052547D01*
X67341757Y-108087035D01*
X67397683Y-108149383D01*
X67439701Y-108175615D01*
X67475520Y-108173903D01*
X67581776Y-108146863D01*
X67659811Y-108148091D01*
X67723180Y-108178735D01*
X67744454Y-108196670D01*
X67812549Y-108259779D01*
X67812549Y-109083922D01*
X68086471Y-109083922D01*
X68086471Y-107888628D01*
X67949510Y-107888628D01*
X67867281Y-107891879D01*
X67824856Y-107903426D01*
X67812555Y-107925952D01*
X67812549Y-107926620D01*
X67806740Y-107950215D01*
X67780469Y-107947138D01*
X67744069Y-107930115D01*
X67668889Y-107898439D01*
X67607842Y-107879381D01*
X67529292Y-107874496D01*
X67436363Y-107887472D01*
G37*
X67436363Y-107887472D02*
X67350710Y-107913641D01*
X67295563Y-107946707D01*
X67277599Y-107972855D01*
X67282543Y-108003852D01*
X67314628Y-108052547D01*
X67341757Y-108087035D01*
X67397683Y-108149383D01*
X67439701Y-108175615D01*
X67475520Y-108173903D01*
X67581776Y-108146863D01*
X67659811Y-108148091D01*
X67723180Y-108178735D01*
X67744454Y-108196670D01*
X67812549Y-108259779D01*
X67812549Y-109083922D01*
X68086471Y-109083922D01*
X68086471Y-107888628D01*
X67949510Y-107888628D01*
X67867281Y-107891879D01*
X67824856Y-107903426D01*
X67812555Y-107925952D01*
X67812549Y-107926620D01*
X67806740Y-107950215D01*
X67780469Y-107947138D01*
X67744069Y-107930115D01*
X67668889Y-107898439D01*
X67607842Y-107879381D01*
X67529292Y-107874496D01*
X67436363Y-107887472D01*
G36*
X70253465Y-99633172D02*
G01*
X70140883Y-100230363D01*
X69725469Y-100401610D01*
X69310056Y-100572857D01*
X68811698Y-100233978D01*
X68672132Y-100139622D01*
X68545972Y-100055375D01*
X68439105Y-99985083D01*
X68357418Y-99932592D01*
X68306799Y-99901749D01*
X68293014Y-99895098D01*
X68268180Y-99912203D01*
X68215112Y-99959489D01*
X68139760Y-100030917D01*
X68048071Y-100120445D01*
X67945993Y-100222034D01*
X67839474Y-100329643D01*
X67734464Y-100437232D01*
X67636909Y-100538760D01*
X67552758Y-100628186D01*
X67487960Y-100699471D01*
X67448462Y-100746573D01*
X67439020Y-100762337D01*
X67452609Y-100791398D01*
X67490707Y-100855066D01*
X67549306Y-100947112D01*
X67624403Y-101061309D01*
X67711991Y-101191429D01*
X67762746Y-101265646D01*
X67855255Y-101401167D01*
X67937460Y-101523461D01*
X68005370Y-101626440D01*
X68055000Y-101704018D01*
X68082360Y-101750106D01*
X68086471Y-101759792D01*
X68077151Y-101787319D01*
X68051746Y-101851473D01*
X68014089Y-101943235D01*
X67968014Y-102053584D01*
X67917354Y-102173500D01*
X67865941Y-102293964D01*
X67817611Y-102405954D01*
X67776194Y-102500452D01*
X67745526Y-102568437D01*
X67729438Y-102600888D01*
X67728489Y-102602165D01*
X67703228Y-102608362D01*
X67635954Y-102622185D01*
X67533640Y-102642277D01*
X67403259Y-102667279D01*
X67251784Y-102695831D01*
X67163406Y-102712296D01*
X67001548Y-102743114D01*
X66855351Y-102772439D01*
X66732213Y-102798666D01*
X66639531Y-102820191D01*
X66584699Y-102835410D01*
X66573677Y-102840238D01*
X66562881Y-102872919D01*
X66554171Y-102946730D01*
X66547540Y-103053037D01*
X66542982Y-103183212D01*
X66540491Y-103328621D01*
X66540062Y-103480635D01*
X66541689Y-103630622D01*
X66545365Y-103769951D01*
X66551085Y-103889990D01*
X66558842Y-103982110D01*
X66568632Y-104037677D01*
X66574504Y-104049245D01*
X66609601Y-104063110D01*
X66683972Y-104082933D01*
X66787777Y-104106384D01*
X66911181Y-104131136D01*
X66954259Y-104139143D01*
X67161953Y-104177186D01*
X67326016Y-104207824D01*
X67451870Y-104232274D01*
X67544935Y-104251754D01*
X67610633Y-104267481D01*
X67654383Y-104280673D01*
X67681608Y-104292549D01*
X67697728Y-104304325D01*
X67699983Y-104306653D01*
X67722497Y-104344145D01*
X67756842Y-104417110D01*
X67799589Y-104516612D01*
X67847308Y-104633718D01*
X67896570Y-104759493D01*
X67943945Y-104885002D01*
X67986005Y-105001310D01*
X68019320Y-105099484D01*
X68040459Y-105170588D01*
X68045995Y-105205687D01*
X68045534Y-105206917D01*
X68026777Y-105235606D01*
X67984224Y-105298730D01*
X67922347Y-105389718D01*
X67845618Y-105502000D01*
X67758509Y-105629005D01*
X67733701Y-105665098D01*
X67645247Y-105795948D01*
X67567412Y-105915336D01*
X67504434Y-106016407D01*
X67460555Y-106092304D01*
X67440015Y-106136172D01*
X67439020Y-106141562D01*
X67456278Y-106169889D01*
X67503964Y-106226006D01*
X67575950Y-106303882D01*
X67666103Y-106397485D01*
X67768295Y-106500786D01*
X67876394Y-106607751D01*
X67984272Y-106712351D01*
X68085796Y-106808554D01*
X68174838Y-106890329D01*
X68245267Y-106951645D01*
X68290953Y-106986471D01*
X68303591Y-106992157D01*
X68333009Y-106978765D01*
X68393239Y-106942644D01*
X68474470Y-106889881D01*
X68536970Y-106847412D01*
X68650215Y-106769485D01*
X68784326Y-106677729D01*
X68918845Y-106586120D01*
X68991167Y-106537091D01*
X69235962Y-106371515D01*
X69441449Y-106482620D01*
X69535064Y-106531293D01*
X69614670Y-106569126D01*
X69668533Y-106590703D01*
X69682243Y-106593706D01*
X69698730Y-106571538D01*
X69731255Y-106508894D01*
X69777391Y-106411554D01*
X69834710Y-106285294D01*
X69900784Y-106135895D01*
X69973185Y-105969133D01*
X70049484Y-105790787D01*
X70127254Y-105606636D01*
X70204066Y-105422457D01*
X70277494Y-105244030D01*
X70345108Y-105077132D01*
X70404480Y-104927542D01*
X70453184Y-104801038D01*
X70488790Y-104703399D01*
X70508870Y-104640402D01*
X70512100Y-104618766D01*
X70486504Y-104591169D01*
X70430461Y-104546370D01*
X70355689Y-104493679D01*
X70349413Y-104489510D01*
X70156155Y-104334814D01*
X70000326Y-104154336D01*
X69883276Y-103953847D01*
X69806355Y-103739119D01*
X69770914Y-103515922D01*
X69778303Y-103290026D01*
X69829873Y-103067204D01*
X69926974Y-102853224D01*
X69955542Y-102806409D01*
X70104132Y-102617363D01*
X70279673Y-102465557D01*
X70476090Y-102351779D01*
X70687307Y-102276820D01*
X70907247Y-102241467D01*
X71129837Y-102246512D01*
X71348999Y-102292744D01*
X71558658Y-102380951D01*
X71752739Y-102511924D01*
X71812774Y-102565082D01*
X71965565Y-102731484D01*
X72076903Y-102906657D01*
X72153277Y-103103011D01*
X72195813Y-103297462D01*
X72206314Y-103516087D01*
X72171299Y-103735797D01*
X72094327Y-103949165D01*
X71978953Y-104148767D01*
X71828734Y-104327174D01*
X71647227Y-104476962D01*
X71623373Y-104492751D01*
X71547799Y-104544457D01*
X71490349Y-104589257D01*
X71462883Y-104617862D01*
X71462483Y-104618766D01*
X71468380Y-104649709D01*
X71491755Y-104719936D01*
X71530179Y-104823670D01*
X71581223Y-104955135D01*
X71642458Y-105108552D01*
X71711456Y-105278146D01*
X71785786Y-105458138D01*
X71863022Y-105642753D01*
X71940732Y-105826213D01*
X72016489Y-106002741D01*
X72087863Y-106166559D01*
X72152426Y-106311892D01*
X72207748Y-106432962D01*
X72251400Y-106523992D01*
X72280954Y-106579205D01*
X72292856Y-106593706D01*
X72329223Y-106582414D01*
X72397270Y-106552130D01*
X72485263Y-106508265D01*
X72533649Y-106482620D01*
X72739137Y-106371515D01*
X72983932Y-106537091D01*
X73108894Y-106621915D01*
X73245705Y-106715261D01*
X73373911Y-106803153D01*
X73438129Y-106847412D01*
X73528449Y-106908063D01*
X73604929Y-106956126D01*
X73657593Y-106985515D01*
X73674698Y-106991727D01*
X73699595Y-106974968D01*
X73754695Y-106928181D01*
X73834657Y-106856225D01*
X73934139Y-106763957D01*
X74047800Y-106656235D01*
X74119685Y-106587071D01*
X74245449Y-106463502D01*
X74354137Y-106352979D01*
X74441355Y-106260230D01*
X74502711Y-106189982D01*
X74533809Y-106146965D01*
X74536792Y-106138235D01*
X74522947Y-106105029D01*
X74484688Y-106037887D01*
X74426258Y-105943608D01*
X74351903Y-105828990D01*
X74265865Y-105700828D01*
X74241397Y-105665098D01*
X74152245Y-105535234D01*
X74072262Y-105418314D01*
X74005920Y-105320907D01*
X73957689Y-105249584D01*
X73932043Y-105210915D01*
X73929565Y-105206917D01*
X73933271Y-105176100D01*
X73952939Y-105108344D01*
X73985140Y-105012584D01*
X74026445Y-104897754D01*
X74073425Y-104772789D01*
X74122651Y-104646624D01*
X74170692Y-104528193D01*
X74214119Y-104426430D01*
X74249504Y-104350271D01*
X74273416Y-104308649D01*
X74275116Y-104306653D01*
X74289738Y-104294758D01*
X74314435Y-104282995D01*
X74354628Y-104270146D01*
X74415737Y-104254994D01*
X74503183Y-104236321D01*
X74622388Y-104212910D01*
X74778773Y-104183542D01*
X74977757Y-104147000D01*
X75020840Y-104139143D01*
X75148529Y-104114472D01*
X75259847Y-104090338D01*
X75344955Y-104069069D01*
X75394017Y-104052993D01*
X75400595Y-104049245D01*
X75411436Y-104016018D01*
X75420247Y-103941766D01*
X75427024Y-103835121D01*
X75431760Y-103704712D01*
X75434450Y-103559172D01*
X75435087Y-103407131D01*
X75433666Y-103257221D01*
X75430180Y-103118073D01*
X75424624Y-102998317D01*
X75416992Y-102906586D01*
X75407278Y-102851511D01*
X75401422Y-102840238D01*
X75368820Y-102828868D01*
X75294582Y-102810369D01*
X75186104Y-102786347D01*
X75050783Y-102758407D01*
X74896015Y-102728153D01*
X74811692Y-102712296D01*
X74651704Y-102682389D01*
X74509033Y-102655295D01*
X74390652Y-102632376D01*
X74303535Y-102614988D01*
X74254655Y-102604492D01*
X74246610Y-102602165D01*
X74233013Y-102575931D01*
X74204271Y-102512740D01*
X74164215Y-102421622D01*
X74116676Y-102311602D01*
X74065485Y-102191710D01*
X74014474Y-102070972D01*
X73967474Y-101958416D01*
X73928316Y-101863071D01*
X73900831Y-101793962D01*
X73888851Y-101760119D01*
X73888628Y-101758640D01*
X73902209Y-101731942D01*
X73940285Y-101670505D01*
X73998853Y-101580434D01*
X74073912Y-101467835D01*
X74161460Y-101338815D01*
X74212353Y-101264706D01*
X74305091Y-101128822D01*
X74387459Y-101005454D01*
X74455439Y-100900842D01*
X74505012Y-100821228D01*
X74532158Y-100772852D01*
X74536079Y-100762007D01*
X74519225Y-100736765D01*
X74472632Y-100682869D01*
X74402251Y-100606358D01*
X74314035Y-100513268D01*
X74213935Y-100409640D01*
X74107902Y-100301509D01*
X74001889Y-100194915D01*
X73901848Y-100095895D01*
X73813730Y-100010487D01*
X73743487Y-99944730D01*
X73697072Y-99904661D01*
X73681544Y-99895098D01*
X73656261Y-99908545D01*
X73595789Y-99946320D01*
X73506008Y-100004580D01*
X73392797Y-100079479D01*
X73262036Y-100167170D01*
X73163400Y-100233978D01*
X72665043Y-100572857D01*
X72249629Y-100401610D01*
X71834216Y-100230363D01*
X71721634Y-99633172D01*
X71609051Y-99035980D01*
X70366048Y-99035980D01*
X70253465Y-99633172D01*
G37*
X70253465Y-99633172D02*
X70140883Y-100230363D01*
X69725469Y-100401610D01*
X69310056Y-100572857D01*
X68811698Y-100233978D01*
X68672132Y-100139622D01*
X68545972Y-100055375D01*
X68439105Y-99985083D01*
X68357418Y-99932592D01*
X68306799Y-99901749D01*
X68293014Y-99895098D01*
X68268180Y-99912203D01*
X68215112Y-99959489D01*
X68139760Y-100030917D01*
X68048071Y-100120445D01*
X67945993Y-100222034D01*
X67839474Y-100329643D01*
X67734464Y-100437232D01*
X67636909Y-100538760D01*
X67552758Y-100628186D01*
X67487960Y-100699471D01*
X67448462Y-100746573D01*
X67439020Y-100762337D01*
X67452609Y-100791398D01*
X67490707Y-100855066D01*
X67549306Y-100947112D01*
X67624403Y-101061309D01*
X67711991Y-101191429D01*
X67762746Y-101265646D01*
X67855255Y-101401167D01*
X67937460Y-101523461D01*
X68005370Y-101626440D01*
X68055000Y-101704018D01*
X68082360Y-101750106D01*
X68086471Y-101759792D01*
X68077151Y-101787319D01*
X68051746Y-101851473D01*
X68014089Y-101943235D01*
X67968014Y-102053584D01*
X67917354Y-102173500D01*
X67865941Y-102293964D01*
X67817611Y-102405954D01*
X67776194Y-102500452D01*
X67745526Y-102568437D01*
X67729438Y-102600888D01*
X67728489Y-102602165D01*
X67703228Y-102608362D01*
X67635954Y-102622185D01*
X67533640Y-102642277D01*
X67403259Y-102667279D01*
X67251784Y-102695831D01*
X67163406Y-102712296D01*
X67001548Y-102743114D01*
X66855351Y-102772439D01*
X66732213Y-102798666D01*
X66639531Y-102820191D01*
X66584699Y-102835410D01*
X66573677Y-102840238D01*
X66562881Y-102872919D01*
X66554171Y-102946730D01*
X66547540Y-103053037D01*
X66542982Y-103183212D01*
X66540491Y-103328621D01*
X66540062Y-103480635D01*
X66541689Y-103630622D01*
X66545365Y-103769951D01*
X66551085Y-103889990D01*
X66558842Y-103982110D01*
X66568632Y-104037677D01*
X66574504Y-104049245D01*
X66609601Y-104063110D01*
X66683972Y-104082933D01*
X66787777Y-104106384D01*
X66911181Y-104131136D01*
X66954259Y-104139143D01*
X67161953Y-104177186D01*
X67326016Y-104207824D01*
X67451870Y-104232274D01*
X67544935Y-104251754D01*
X67610633Y-104267481D01*
X67654383Y-104280673D01*
X67681608Y-104292549D01*
X67697728Y-104304325D01*
X67699983Y-104306653D01*
X67722497Y-104344145D01*
X67756842Y-104417110D01*
X67799589Y-104516612D01*
X67847308Y-104633718D01*
X67896570Y-104759493D01*
X67943945Y-104885002D01*
X67986005Y-105001310D01*
X68019320Y-105099484D01*
X68040459Y-105170588D01*
X68045995Y-105205687D01*
X68045534Y-105206917D01*
X68026777Y-105235606D01*
X67984224Y-105298730D01*
X67922347Y-105389718D01*
X67845618Y-105502000D01*
X67758509Y-105629005D01*
X67733701Y-105665098D01*
X67645247Y-105795948D01*
X67567412Y-105915336D01*
X67504434Y-106016407D01*
X67460555Y-106092304D01*
X67440015Y-106136172D01*
X67439020Y-106141562D01*
X67456278Y-106169889D01*
X67503964Y-106226006D01*
X67575950Y-106303882D01*
X67666103Y-106397485D01*
X67768295Y-106500786D01*
X67876394Y-106607751D01*
X67984272Y-106712351D01*
X68085796Y-106808554D01*
X68174838Y-106890329D01*
X68245267Y-106951645D01*
X68290953Y-106986471D01*
X68303591Y-106992157D01*
X68333009Y-106978765D01*
X68393239Y-106942644D01*
X68474470Y-106889881D01*
X68536970Y-106847412D01*
X68650215Y-106769485D01*
X68784326Y-106677729D01*
X68918845Y-106586120D01*
X68991167Y-106537091D01*
X69235962Y-106371515D01*
X69441449Y-106482620D01*
X69535064Y-106531293D01*
X69614670Y-106569126D01*
X69668533Y-106590703D01*
X69682243Y-106593706D01*
X69698730Y-106571538D01*
X69731255Y-106508894D01*
X69777391Y-106411554D01*
X69834710Y-106285294D01*
X69900784Y-106135895D01*
X69973185Y-105969133D01*
X70049484Y-105790787D01*
X70127254Y-105606636D01*
X70204066Y-105422457D01*
X70277494Y-105244030D01*
X70345108Y-105077132D01*
X70404480Y-104927542D01*
X70453184Y-104801038D01*
X70488790Y-104703399D01*
X70508870Y-104640402D01*
X70512100Y-104618766D01*
X70486504Y-104591169D01*
X70430461Y-104546370D01*
X70355689Y-104493679D01*
X70349413Y-104489510D01*
X70156155Y-104334814D01*
X70000326Y-104154336D01*
X69883276Y-103953847D01*
X69806355Y-103739119D01*
X69770914Y-103515922D01*
X69778303Y-103290026D01*
X69829873Y-103067204D01*
X69926974Y-102853224D01*
X69955542Y-102806409D01*
X70104132Y-102617363D01*
X70279673Y-102465557D01*
X70476090Y-102351779D01*
X70687307Y-102276820D01*
X70907247Y-102241467D01*
X71129837Y-102246512D01*
X71348999Y-102292744D01*
X71558658Y-102380951D01*
X71752739Y-102511924D01*
X71812774Y-102565082D01*
X71965565Y-102731484D01*
X72076903Y-102906657D01*
X72153277Y-103103011D01*
X72195813Y-103297462D01*
X72206314Y-103516087D01*
X72171299Y-103735797D01*
X72094327Y-103949165D01*
X71978953Y-104148767D01*
X71828734Y-104327174D01*
X71647227Y-104476962D01*
X71623373Y-104492751D01*
X71547799Y-104544457D01*
X71490349Y-104589257D01*
X71462883Y-104617862D01*
X71462483Y-104618766D01*
X71468380Y-104649709D01*
X71491755Y-104719936D01*
X71530179Y-104823670D01*
X71581223Y-104955135D01*
X71642458Y-105108552D01*
X71711456Y-105278146D01*
X71785786Y-105458138D01*
X71863022Y-105642753D01*
X71940732Y-105826213D01*
X72016489Y-106002741D01*
X72087863Y-106166559D01*
X72152426Y-106311892D01*
X72207748Y-106432962D01*
X72251400Y-106523992D01*
X72280954Y-106579205D01*
X72292856Y-106593706D01*
X72329223Y-106582414D01*
X72397270Y-106552130D01*
X72485263Y-106508265D01*
X72533649Y-106482620D01*
X72739137Y-106371515D01*
X72983932Y-106537091D01*
X73108894Y-106621915D01*
X73245705Y-106715261D01*
X73373911Y-106803153D01*
X73438129Y-106847412D01*
X73528449Y-106908063D01*
X73604929Y-106956126D01*
X73657593Y-106985515D01*
X73674698Y-106991727D01*
X73699595Y-106974968D01*
X73754695Y-106928181D01*
X73834657Y-106856225D01*
X73934139Y-106763957D01*
X74047800Y-106656235D01*
X74119685Y-106587071D01*
X74245449Y-106463502D01*
X74354137Y-106352979D01*
X74441355Y-106260230D01*
X74502711Y-106189982D01*
X74533809Y-106146965D01*
X74536792Y-106138235D01*
X74522947Y-106105029D01*
X74484688Y-106037887D01*
X74426258Y-105943608D01*
X74351903Y-105828990D01*
X74265865Y-105700828D01*
X74241397Y-105665098D01*
X74152245Y-105535234D01*
X74072262Y-105418314D01*
X74005920Y-105320907D01*
X73957689Y-105249584D01*
X73932043Y-105210915D01*
X73929565Y-105206917D01*
X73933271Y-105176100D01*
X73952939Y-105108344D01*
X73985140Y-105012584D01*
X74026445Y-104897754D01*
X74073425Y-104772789D01*
X74122651Y-104646624D01*
X74170692Y-104528193D01*
X74214119Y-104426430D01*
X74249504Y-104350271D01*
X74273416Y-104308649D01*
X74275116Y-104306653D01*
X74289738Y-104294758D01*
X74314435Y-104282995D01*
X74354628Y-104270146D01*
X74415737Y-104254994D01*
X74503183Y-104236321D01*
X74622388Y-104212910D01*
X74778773Y-104183542D01*
X74977757Y-104147000D01*
X75020840Y-104139143D01*
X75148529Y-104114472D01*
X75259847Y-104090338D01*
X75344955Y-104069069D01*
X75394017Y-104052993D01*
X75400595Y-104049245D01*
X75411436Y-104016018D01*
X75420247Y-103941766D01*
X75427024Y-103835121D01*
X75431760Y-103704712D01*
X75434450Y-103559172D01*
X75435087Y-103407131D01*
X75433666Y-103257221D01*
X75430180Y-103118073D01*
X75424624Y-102998317D01*
X75416992Y-102906586D01*
X75407278Y-102851511D01*
X75401422Y-102840238D01*
X75368820Y-102828868D01*
X75294582Y-102810369D01*
X75186104Y-102786347D01*
X75050783Y-102758407D01*
X74896015Y-102728153D01*
X74811692Y-102712296D01*
X74651704Y-102682389D01*
X74509033Y-102655295D01*
X74390652Y-102632376D01*
X74303535Y-102614988D01*
X74254655Y-102604492D01*
X74246610Y-102602165D01*
X74233013Y-102575931D01*
X74204271Y-102512740D01*
X74164215Y-102421622D01*
X74116676Y-102311602D01*
X74065485Y-102191710D01*
X74014474Y-102070972D01*
X73967474Y-101958416D01*
X73928316Y-101863071D01*
X73900831Y-101793962D01*
X73888851Y-101760119D01*
X73888628Y-101758640D01*
X73902209Y-101731942D01*
X73940285Y-101670505D01*
X73998853Y-101580434D01*
X74073912Y-101467835D01*
X74161460Y-101338815D01*
X74212353Y-101264706D01*
X74305091Y-101128822D01*
X74387459Y-101005454D01*
X74455439Y-100900842D01*
X74505012Y-100821228D01*
X74532158Y-100772852D01*
X74536079Y-100762007D01*
X74519225Y-100736765D01*
X74472632Y-100682869D01*
X74402251Y-100606358D01*
X74314035Y-100513268D01*
X74213935Y-100409640D01*
X74107902Y-100301509D01*
X74001889Y-100194915D01*
X73901848Y-100095895D01*
X73813730Y-100010487D01*
X73743487Y-99944730D01*
X73697072Y-99904661D01*
X73681544Y-99895098D01*
X73656261Y-99908545D01*
X73595789Y-99946320D01*
X73506008Y-100004580D01*
X73392797Y-100079479D01*
X73262036Y-100167170D01*
X73163400Y-100233978D01*
X72665043Y-100572857D01*
X72249629Y-100401610D01*
X71834216Y-100230363D01*
X71721634Y-99633172D01*
X71609051Y-99035980D01*
X70366048Y-99035980D01*
X70253465Y-99633172D01*
D11*
%TO.C,RV1*%
X105021000Y-88750000D02*
X105021000Y-98520000D01*
X114791000Y-88750000D02*
X114791000Y-98520000D01*
X105021000Y-88750000D02*
X114791000Y-88750000D01*
X105021000Y-98520000D02*
X114791000Y-98520000D01*
%TO.C,R12*%
X108120748Y-101218000D02*
X108643252Y-101218000D01*
X108120748Y-99798000D02*
X108643252Y-99798000D01*
%TO.C,C5*%
X108129748Y-114426000D02*
X108652252Y-114426000D01*
X108129748Y-113006000D02*
X108652252Y-113006000D01*
%TO.C,L1*%
X105170000Y-110798564D02*
X105170000Y-109594436D01*
X102450000Y-110798564D02*
X102450000Y-109594436D01*
%TO.C,D13*%
X102160000Y-100664000D02*
X105460000Y-100664000D01*
X105460000Y-100664000D02*
X105460000Y-106064000D01*
X102160000Y-100664000D02*
X102160000Y-106064000D01*
%TO.C,C4*%
X102523748Y-96138000D02*
X103046252Y-96138000D01*
X102523748Y-94718000D02*
X103046252Y-94718000D01*
%TO.C,U1*%
X108976000Y-107148000D02*
X108976000Y-108948000D01*
X105756000Y-108948000D02*
X105756000Y-105998000D01*
%TO.C,R11*%
X108652252Y-103862000D02*
X108129748Y-103862000D01*
X108652252Y-105282000D02*
X108129748Y-105282000D01*
%TO.C,R10*%
X110870000Y-108389252D02*
X110870000Y-107866748D01*
X109450000Y-108389252D02*
X109450000Y-107866748D01*
%TO.C,R9*%
X108628748Y-120014000D02*
X109151252Y-120014000D01*
X108628748Y-118594000D02*
X109151252Y-118594000D01*
%TO.C,C3*%
X103046252Y-98782000D02*
X102523748Y-98782000D01*
X103046252Y-100202000D02*
X102523748Y-100202000D01*
%TO.C,C2*%
X103046252Y-96750000D02*
X102523748Y-96750000D01*
X103046252Y-98170000D02*
X102523748Y-98170000D01*
%TO.C,R8*%
X123910000Y-83089564D02*
X123910000Y-81885436D01*
X122090000Y-83089564D02*
X122090000Y-81885436D01*
%TO.C,R7*%
X105910000Y-83089564D02*
X105910000Y-81885436D01*
X104090000Y-83089564D02*
X104090000Y-81885436D01*
%TO.C,R6*%
X87910000Y-83089564D02*
X87910000Y-81885436D01*
X86090000Y-83089564D02*
X86090000Y-81885436D01*
%TO.C,R5*%
X69910000Y-83089564D02*
X69910000Y-81885436D01*
X68090000Y-83089564D02*
X68090000Y-81885436D01*
%TO.C,R4*%
X119790000Y-82286252D02*
X119790000Y-81763748D01*
X121210000Y-82286252D02*
X121210000Y-81763748D01*
%TO.C,R3*%
X103210000Y-82286252D02*
X103210000Y-81763748D01*
X101790000Y-82286252D02*
X101790000Y-81763748D01*
%TO.C,R2*%
X85210000Y-82286252D02*
X85210000Y-81763748D01*
X83790000Y-82286252D02*
X83790000Y-81763748D01*
%TO.C,J1*%
X103810000Y-115180000D02*
X103810000Y-117840000D01*
X103810000Y-115180000D02*
X111490000Y-115180000D01*
X111490000Y-115180000D02*
X111490000Y-117840000D01*
X103810000Y-117840000D02*
X111490000Y-117840000D01*
X101210000Y-117840000D02*
X102540000Y-117840000D01*
X101210000Y-116510000D02*
X101210000Y-117840000D01*
%TO.C,R1*%
X67210000Y-82286252D02*
X67210000Y-81763748D01*
X65790000Y-82286252D02*
X65790000Y-81763748D01*
%TO.C,+LED*%
D10*
X95134095Y-116581428D02*
X94372190Y-116581428D01*
X94753142Y-116962380D02*
X94753142Y-116200476D01*
X93419809Y-116962380D02*
X93896000Y-116962380D01*
X93896000Y-115962380D01*
X93086476Y-116438571D02*
X92753142Y-116438571D01*
X92610285Y-116962380D02*
X93086476Y-116962380D01*
X93086476Y-115962380D01*
X92610285Y-115962380D01*
X92181714Y-116962380D02*
X92181714Y-115962380D01*
X91943619Y-115962380D01*
X91800761Y-116010000D01*
X91705523Y-116105238D01*
X91657904Y-116200476D01*
X91610285Y-116390952D01*
X91610285Y-116533809D01*
X91657904Y-116724285D01*
X91705523Y-116819523D01*
X91800761Y-116914761D01*
X91943619Y-116962380D01*
X92181714Y-116962380D01*
%TO.C,LED current*%
X129662380Y-80053523D02*
X129662380Y-79577333D01*
X128662380Y-79577333D01*
X129138571Y-80386857D02*
X129138571Y-80720190D01*
X129662380Y-80863047D02*
X129662380Y-80386857D01*
X128662380Y-80386857D01*
X128662380Y-80863047D01*
X129662380Y-81291619D02*
X128662380Y-81291619D01*
X128662380Y-81529714D01*
X128710000Y-81672571D01*
X128805238Y-81767809D01*
X128900476Y-81815428D01*
X129090952Y-81863047D01*
X129233809Y-81863047D01*
X129424285Y-81815428D01*
X129519523Y-81767809D01*
X129614761Y-81672571D01*
X129662380Y-81529714D01*
X129662380Y-81291619D01*
X129614761Y-83482095D02*
X129662380Y-83386857D01*
X129662380Y-83196380D01*
X129614761Y-83101142D01*
X129567142Y-83053523D01*
X129471904Y-83005904D01*
X129186190Y-83005904D01*
X129090952Y-83053523D01*
X129043333Y-83101142D01*
X128995714Y-83196380D01*
X128995714Y-83386857D01*
X129043333Y-83482095D01*
X128995714Y-84339238D02*
X129662380Y-84339238D01*
X128995714Y-83910666D02*
X129519523Y-83910666D01*
X129614761Y-83958285D01*
X129662380Y-84053523D01*
X129662380Y-84196380D01*
X129614761Y-84291619D01*
X129567142Y-84339238D01*
X129662380Y-84815428D02*
X128995714Y-84815428D01*
X129186190Y-84815428D02*
X129090952Y-84863047D01*
X129043333Y-84910666D01*
X128995714Y-85005904D01*
X128995714Y-85101142D01*
X129662380Y-85434476D02*
X128995714Y-85434476D01*
X129186190Y-85434476D02*
X129090952Y-85482095D01*
X129043333Y-85529714D01*
X128995714Y-85624952D01*
X128995714Y-85720190D01*
X129614761Y-86434476D02*
X129662380Y-86339238D01*
X129662380Y-86148761D01*
X129614761Y-86053523D01*
X129519523Y-86005904D01*
X129138571Y-86005904D01*
X129043333Y-86053523D01*
X128995714Y-86148761D01*
X128995714Y-86339238D01*
X129043333Y-86434476D01*
X129138571Y-86482095D01*
X129233809Y-86482095D01*
X129329047Y-86005904D01*
X128995714Y-86910666D02*
X129662380Y-86910666D01*
X129090952Y-86910666D02*
X129043333Y-86958285D01*
X128995714Y-87053523D01*
X128995714Y-87196380D01*
X129043333Y-87291619D01*
X129138571Y-87339238D01*
X129662380Y-87339238D01*
X128995714Y-87672571D02*
X128995714Y-88053523D01*
X128662380Y-87815428D02*
X129519523Y-87815428D01*
X129614761Y-87863047D01*
X129662380Y-87958285D01*
X129662380Y-88053523D01*
%TO.C,VCC*%
X106413333Y-119010380D02*
X106080000Y-120010380D01*
X105746666Y-119010380D01*
X104841904Y-119915142D02*
X104889523Y-119962761D01*
X105032380Y-120010380D01*
X105127619Y-120010380D01*
X105270476Y-119962761D01*
X105365714Y-119867523D01*
X105413333Y-119772285D01*
X105460952Y-119581809D01*
X105460952Y-119438952D01*
X105413333Y-119248476D01*
X105365714Y-119153238D01*
X105270476Y-119058000D01*
X105127619Y-119010380D01*
X105032380Y-119010380D01*
X104889523Y-119058000D01*
X104841904Y-119105619D01*
X103841904Y-119915142D02*
X103889523Y-119962761D01*
X104032380Y-120010380D01*
X104127619Y-120010380D01*
X104270476Y-119962761D01*
X104365714Y-119867523D01*
X104413333Y-119772285D01*
X104460952Y-119581809D01*
X104460952Y-119438952D01*
X104413333Y-119248476D01*
X104365714Y-119153238D01*
X104270476Y-119058000D01*
X104127619Y-119010380D01*
X104032380Y-119010380D01*
X103889523Y-119058000D01*
X103841904Y-119105619D01*
%TO.C,GND*%
X89712904Y-116010000D02*
X89808142Y-115962380D01*
X89951000Y-115962380D01*
X90093857Y-116010000D01*
X90189095Y-116105238D01*
X90236714Y-116200476D01*
X90284333Y-116390952D01*
X90284333Y-116533809D01*
X90236714Y-116724285D01*
X90189095Y-116819523D01*
X90093857Y-116914761D01*
X89951000Y-116962380D01*
X89855761Y-116962380D01*
X89712904Y-116914761D01*
X89665285Y-116867142D01*
X89665285Y-116533809D01*
X89855761Y-116533809D01*
X89236714Y-116962380D02*
X89236714Y-115962380D01*
X88665285Y-116962380D01*
X88665285Y-115962380D01*
X88189095Y-116962380D02*
X88189095Y-115962380D01*
X87951000Y-115962380D01*
X87808142Y-116010000D01*
X87712904Y-116105238D01*
X87665285Y-116200476D01*
X87617666Y-116390952D01*
X87617666Y-116533809D01*
X87665285Y-116724285D01*
X87712904Y-116819523D01*
X87808142Y-116914761D01*
X87951000Y-116962380D01*
X88189095Y-116962380D01*
X121081904Y-86038000D02*
X121177142Y-85990380D01*
X121320000Y-85990380D01*
X121462857Y-86038000D01*
X121558095Y-86133238D01*
X121605714Y-86228476D01*
X121653333Y-86418952D01*
X121653333Y-86561809D01*
X121605714Y-86752285D01*
X121558095Y-86847523D01*
X121462857Y-86942761D01*
X121320000Y-86990380D01*
X121224761Y-86990380D01*
X121081904Y-86942761D01*
X121034285Y-86895142D01*
X121034285Y-86561809D01*
X121224761Y-86561809D01*
X120605714Y-86990380D02*
X120605714Y-85990380D01*
X120034285Y-86990380D01*
X120034285Y-85990380D01*
X119558095Y-86990380D02*
X119558095Y-85990380D01*
X119320000Y-85990380D01*
X119177142Y-86038000D01*
X119081904Y-86133238D01*
X119034285Y-86228476D01*
X118986666Y-86418952D01*
X118986666Y-86561809D01*
X119034285Y-86752285D01*
X119081904Y-86847523D01*
X119177142Y-86942761D01*
X119320000Y-86990380D01*
X119558095Y-86990380D01*
%TO.C,R13*%
X112326857Y-102992380D02*
X112660190Y-102516190D01*
X112898285Y-102992380D02*
X112898285Y-101992380D01*
X112517333Y-101992380D01*
X112422095Y-102040000D01*
X112374476Y-102087619D01*
X112326857Y-102182857D01*
X112326857Y-102325714D01*
X112374476Y-102420952D01*
X112422095Y-102468571D01*
X112517333Y-102516190D01*
X112898285Y-102516190D01*
X111374476Y-102992380D02*
X111945904Y-102992380D01*
X111660190Y-102992380D02*
X111660190Y-101992380D01*
X111755428Y-102135238D01*
X111850666Y-102230476D01*
X111945904Y-102278095D01*
X111041142Y-101992380D02*
X110422095Y-101992380D01*
X110755428Y-102373333D01*
X110612571Y-102373333D01*
X110517333Y-102420952D01*
X110469714Y-102468571D01*
X110422095Y-102563809D01*
X110422095Y-102801904D01*
X110469714Y-102897142D01*
X110517333Y-102944761D01*
X110612571Y-102992380D01*
X110898285Y-102992380D01*
X110993523Y-102944761D01*
X111041142Y-102897142D01*
%TO.C,C1*%
X111342666Y-112041142D02*
X111390285Y-112088761D01*
X111533142Y-112136380D01*
X111628380Y-112136380D01*
X111771238Y-112088761D01*
X111866476Y-111993523D01*
X111914095Y-111898285D01*
X111961714Y-111707809D01*
X111961714Y-111564952D01*
X111914095Y-111374476D01*
X111866476Y-111279238D01*
X111771238Y-111184000D01*
X111628380Y-111136380D01*
X111533142Y-111136380D01*
X111390285Y-111184000D01*
X111342666Y-111231619D01*
X110390285Y-112136380D02*
X110961714Y-112136380D01*
X110676000Y-112136380D02*
X110676000Y-111136380D01*
X110771238Y-111279238D01*
X110866476Y-111374476D01*
X110961714Y-111422095D01*
%TO.C,RV1*%
X113803238Y-88260380D02*
X114136571Y-87784190D01*
X114374666Y-88260380D02*
X114374666Y-87260380D01*
X113993714Y-87260380D01*
X113898476Y-87308000D01*
X113850857Y-87355619D01*
X113803238Y-87450857D01*
X113803238Y-87593714D01*
X113850857Y-87688952D01*
X113898476Y-87736571D01*
X113993714Y-87784190D01*
X114374666Y-87784190D01*
X113517523Y-87260380D02*
X113184190Y-88260380D01*
X112850857Y-87260380D01*
X111993714Y-88260380D02*
X112565142Y-88260380D01*
X112279428Y-88260380D02*
X112279428Y-87260380D01*
X112374666Y-87403238D01*
X112469904Y-87498476D01*
X112565142Y-87546095D01*
X110723428Y-88260380D02*
X111294857Y-88260380D01*
X111009142Y-88260380D02*
X111009142Y-87260380D01*
X111104380Y-87403238D01*
X111199619Y-87498476D01*
X111294857Y-87546095D01*
X110104380Y-87260380D02*
X110009142Y-87260380D01*
X109913904Y-87308000D01*
X109866285Y-87355619D01*
X109818666Y-87450857D01*
X109771047Y-87641333D01*
X109771047Y-87879428D01*
X109818666Y-88069904D01*
X109866285Y-88165142D01*
X109913904Y-88212761D01*
X110009142Y-88260380D01*
X110104380Y-88260380D01*
X110199619Y-88212761D01*
X110247238Y-88165142D01*
X110294857Y-88069904D01*
X110342476Y-87879428D01*
X110342476Y-87641333D01*
X110294857Y-87450857D01*
X110247238Y-87355619D01*
X110199619Y-87308000D01*
X110104380Y-87260380D01*
X109152000Y-87260380D02*
X109056761Y-87260380D01*
X108961523Y-87308000D01*
X108913904Y-87355619D01*
X108866285Y-87450857D01*
X108818666Y-87641333D01*
X108818666Y-87879428D01*
X108866285Y-88069904D01*
X108913904Y-88165142D01*
X108961523Y-88212761D01*
X109056761Y-88260380D01*
X109152000Y-88260380D01*
X109247238Y-88212761D01*
X109294857Y-88165142D01*
X109342476Y-88069904D01*
X109390095Y-87879428D01*
X109390095Y-87641333D01*
X109342476Y-87450857D01*
X109294857Y-87355619D01*
X109247238Y-87308000D01*
X109152000Y-87260380D01*
X108390095Y-88260380D02*
X108390095Y-87260380D01*
X108294857Y-87879428D02*
X108009142Y-88260380D01*
X108009142Y-87593714D02*
X108390095Y-87974666D01*
%TO.C,R12*%
X112326857Y-100960380D02*
X112660190Y-100484190D01*
X112898285Y-100960380D02*
X112898285Y-99960380D01*
X112517333Y-99960380D01*
X112422095Y-100008000D01*
X112374476Y-100055619D01*
X112326857Y-100150857D01*
X112326857Y-100293714D01*
X112374476Y-100388952D01*
X112422095Y-100436571D01*
X112517333Y-100484190D01*
X112898285Y-100484190D01*
X111374476Y-100960380D02*
X111945904Y-100960380D01*
X111660190Y-100960380D02*
X111660190Y-99960380D01*
X111755428Y-100103238D01*
X111850666Y-100198476D01*
X111945904Y-100246095D01*
X110993523Y-100055619D02*
X110945904Y-100008000D01*
X110850666Y-99960380D01*
X110612571Y-99960380D01*
X110517333Y-100008000D01*
X110469714Y-100055619D01*
X110422095Y-100150857D01*
X110422095Y-100246095D01*
X110469714Y-100388952D01*
X111041142Y-100960380D01*
X110422095Y-100960380D01*
%TO.C,C5*%
X111342666Y-114073142D02*
X111390285Y-114120761D01*
X111533142Y-114168380D01*
X111628380Y-114168380D01*
X111771238Y-114120761D01*
X111866476Y-114025523D01*
X111914095Y-113930285D01*
X111961714Y-113739809D01*
X111961714Y-113596952D01*
X111914095Y-113406476D01*
X111866476Y-113311238D01*
X111771238Y-113216000D01*
X111628380Y-113168380D01*
X111533142Y-113168380D01*
X111390285Y-113216000D01*
X111342666Y-113263619D01*
X110437904Y-113168380D02*
X110914095Y-113168380D01*
X110961714Y-113644571D01*
X110914095Y-113596952D01*
X110818857Y-113549333D01*
X110580761Y-113549333D01*
X110485523Y-113596952D01*
X110437904Y-113644571D01*
X110390285Y-113739809D01*
X110390285Y-113977904D01*
X110437904Y-114073142D01*
X110485523Y-114120761D01*
X110580761Y-114168380D01*
X110818857Y-114168380D01*
X110914095Y-114120761D01*
X110961714Y-114073142D01*
%TO.C,L1*%
X101436666Y-110612380D02*
X101912857Y-110612380D01*
X101912857Y-109612380D01*
X100579523Y-110612380D02*
X101150952Y-110612380D01*
X100865238Y-110612380D02*
X100865238Y-109612380D01*
X100960476Y-109755238D01*
X101055714Y-109850476D01*
X101150952Y-109898095D01*
%TO.C,D13*%
X101722285Y-104516380D02*
X101722285Y-103516380D01*
X101484190Y-103516380D01*
X101341333Y-103564000D01*
X101246095Y-103659238D01*
X101198476Y-103754476D01*
X101150857Y-103944952D01*
X101150857Y-104087809D01*
X101198476Y-104278285D01*
X101246095Y-104373523D01*
X101341333Y-104468761D01*
X101484190Y-104516380D01*
X101722285Y-104516380D01*
X100198476Y-104516380D02*
X100769904Y-104516380D01*
X100484190Y-104516380D02*
X100484190Y-103516380D01*
X100579428Y-103659238D01*
X100674666Y-103754476D01*
X100769904Y-103802095D01*
X99865142Y-103516380D02*
X99246095Y-103516380D01*
X99579428Y-103897333D01*
X99436571Y-103897333D01*
X99341333Y-103944952D01*
X99293714Y-103992571D01*
X99246095Y-104087809D01*
X99246095Y-104325904D01*
X99293714Y-104421142D01*
X99341333Y-104468761D01*
X99436571Y-104516380D01*
X99722285Y-104516380D01*
X99817523Y-104468761D01*
X99865142Y-104421142D01*
%TO.C,C4*%
X100166666Y-95785142D02*
X100214285Y-95832761D01*
X100357142Y-95880380D01*
X100452380Y-95880380D01*
X100595238Y-95832761D01*
X100690476Y-95737523D01*
X100738095Y-95642285D01*
X100785714Y-95451809D01*
X100785714Y-95308952D01*
X100738095Y-95118476D01*
X100690476Y-95023238D01*
X100595238Y-94928000D01*
X100452380Y-94880380D01*
X100357142Y-94880380D01*
X100214285Y-94928000D01*
X100166666Y-94975619D01*
X99309523Y-95213714D02*
X99309523Y-95880380D01*
X99547619Y-94832761D02*
X99785714Y-95547047D01*
X99166666Y-95547047D01*
%TO.C,R11*%
X112326857Y-105024380D02*
X112660190Y-104548190D01*
X112898285Y-105024380D02*
X112898285Y-104024380D01*
X112517333Y-104024380D01*
X112422095Y-104072000D01*
X112374476Y-104119619D01*
X112326857Y-104214857D01*
X112326857Y-104357714D01*
X112374476Y-104452952D01*
X112422095Y-104500571D01*
X112517333Y-104548190D01*
X112898285Y-104548190D01*
X111374476Y-105024380D02*
X111945904Y-105024380D01*
X111660190Y-105024380D02*
X111660190Y-104024380D01*
X111755428Y-104167238D01*
X111850666Y-104262476D01*
X111945904Y-104310095D01*
X110422095Y-105024380D02*
X110993523Y-105024380D01*
X110707809Y-105024380D02*
X110707809Y-104024380D01*
X110803047Y-104167238D01*
X110898285Y-104262476D01*
X110993523Y-104310095D01*
%TO.C,R10*%
X113088857Y-108580380D02*
X113422190Y-108104190D01*
X113660285Y-108580380D02*
X113660285Y-107580380D01*
X113279333Y-107580380D01*
X113184095Y-107628000D01*
X113136476Y-107675619D01*
X113088857Y-107770857D01*
X113088857Y-107913714D01*
X113136476Y-108008952D01*
X113184095Y-108056571D01*
X113279333Y-108104190D01*
X113660285Y-108104190D01*
X112136476Y-108580380D02*
X112707904Y-108580380D01*
X112422190Y-108580380D02*
X112422190Y-107580380D01*
X112517428Y-107723238D01*
X112612666Y-107818476D01*
X112707904Y-107866095D01*
X111517428Y-107580380D02*
X111422190Y-107580380D01*
X111326952Y-107628000D01*
X111279333Y-107675619D01*
X111231714Y-107770857D01*
X111184095Y-107961333D01*
X111184095Y-108199428D01*
X111231714Y-108389904D01*
X111279333Y-108485142D01*
X111326952Y-108532761D01*
X111422190Y-108580380D01*
X111517428Y-108580380D01*
X111612666Y-108532761D01*
X111660285Y-108485142D01*
X111707904Y-108389904D01*
X111755523Y-108199428D01*
X111755523Y-107961333D01*
X111707904Y-107770857D01*
X111660285Y-107675619D01*
X111612666Y-107628000D01*
X111517428Y-107580380D01*
%TO.C,R9*%
X111850666Y-119756380D02*
X112184000Y-119280190D01*
X112422095Y-119756380D02*
X112422095Y-118756380D01*
X112041142Y-118756380D01*
X111945904Y-118804000D01*
X111898285Y-118851619D01*
X111850666Y-118946857D01*
X111850666Y-119089714D01*
X111898285Y-119184952D01*
X111945904Y-119232571D01*
X112041142Y-119280190D01*
X112422095Y-119280190D01*
X111374476Y-119756380D02*
X111184000Y-119756380D01*
X111088761Y-119708761D01*
X111041142Y-119661142D01*
X110945904Y-119518285D01*
X110898285Y-119327809D01*
X110898285Y-118946857D01*
X110945904Y-118851619D01*
X110993523Y-118804000D01*
X111088761Y-118756380D01*
X111279238Y-118756380D01*
X111374476Y-118804000D01*
X111422095Y-118851619D01*
X111469714Y-118946857D01*
X111469714Y-119184952D01*
X111422095Y-119280190D01*
X111374476Y-119327809D01*
X111279238Y-119375428D01*
X111088761Y-119375428D01*
X110993523Y-119327809D01*
X110945904Y-119280190D01*
X110898285Y-119184952D01*
%TO.C,C3*%
X101309666Y-101373142D02*
X101357285Y-101420761D01*
X101500142Y-101468380D01*
X101595380Y-101468380D01*
X101738238Y-101420761D01*
X101833476Y-101325523D01*
X101881095Y-101230285D01*
X101928714Y-101039809D01*
X101928714Y-100896952D01*
X101881095Y-100706476D01*
X101833476Y-100611238D01*
X101738238Y-100516000D01*
X101595380Y-100468380D01*
X101500142Y-100468380D01*
X101357285Y-100516000D01*
X101309666Y-100563619D01*
X100976333Y-100468380D02*
X100357285Y-100468380D01*
X100690619Y-100849333D01*
X100547761Y-100849333D01*
X100452523Y-100896952D01*
X100404904Y-100944571D01*
X100357285Y-101039809D01*
X100357285Y-101277904D01*
X100404904Y-101373142D01*
X100452523Y-101420761D01*
X100547761Y-101468380D01*
X100833476Y-101468380D01*
X100928714Y-101420761D01*
X100976333Y-101373142D01*
%TO.C,C2*%
X100166666Y-97817142D02*
X100214285Y-97864761D01*
X100357142Y-97912380D01*
X100452380Y-97912380D01*
X100595238Y-97864761D01*
X100690476Y-97769523D01*
X100738095Y-97674285D01*
X100785714Y-97483809D01*
X100785714Y-97340952D01*
X100738095Y-97150476D01*
X100690476Y-97055238D01*
X100595238Y-96960000D01*
X100452380Y-96912380D01*
X100357142Y-96912380D01*
X100214285Y-96960000D01*
X100166666Y-97007619D01*
X99785714Y-97007619D02*
X99738095Y-96960000D01*
X99642857Y-96912380D01*
X99404761Y-96912380D01*
X99309523Y-96960000D01*
X99261904Y-97007619D01*
X99214285Y-97102857D01*
X99214285Y-97198095D01*
X99261904Y-97340952D01*
X99833333Y-97912380D01*
X99214285Y-97912380D01*
%TO.C,R8*%
X123166666Y-79908380D02*
X123500000Y-79432190D01*
X123738095Y-79908380D02*
X123738095Y-78908380D01*
X123357142Y-78908380D01*
X123261904Y-78956000D01*
X123214285Y-79003619D01*
X123166666Y-79098857D01*
X123166666Y-79241714D01*
X123214285Y-79336952D01*
X123261904Y-79384571D01*
X123357142Y-79432190D01*
X123738095Y-79432190D01*
X122595238Y-79336952D02*
X122690476Y-79289333D01*
X122738095Y-79241714D01*
X122785714Y-79146476D01*
X122785714Y-79098857D01*
X122738095Y-79003619D01*
X122690476Y-78956000D01*
X122595238Y-78908380D01*
X122404761Y-78908380D01*
X122309523Y-78956000D01*
X122261904Y-79003619D01*
X122214285Y-79098857D01*
X122214285Y-79146476D01*
X122261904Y-79241714D01*
X122309523Y-79289333D01*
X122404761Y-79336952D01*
X122595238Y-79336952D01*
X122690476Y-79384571D01*
X122738095Y-79432190D01*
X122785714Y-79527428D01*
X122785714Y-79717904D01*
X122738095Y-79813142D01*
X122690476Y-79860761D01*
X122595238Y-79908380D01*
X122404761Y-79908380D01*
X122309523Y-79860761D01*
X122261904Y-79813142D01*
X122214285Y-79717904D01*
X122214285Y-79527428D01*
X122261904Y-79432190D01*
X122309523Y-79384571D01*
X122404761Y-79336952D01*
%TO.C,R7*%
X105162666Y-79908380D02*
X105496000Y-79432190D01*
X105734095Y-79908380D02*
X105734095Y-78908380D01*
X105353142Y-78908380D01*
X105257904Y-78956000D01*
X105210285Y-79003619D01*
X105162666Y-79098857D01*
X105162666Y-79241714D01*
X105210285Y-79336952D01*
X105257904Y-79384571D01*
X105353142Y-79432190D01*
X105734095Y-79432190D01*
X104829333Y-78908380D02*
X104162666Y-78908380D01*
X104591238Y-79908380D01*
%TO.C,R6*%
X87166666Y-79908380D02*
X87500000Y-79432190D01*
X87738095Y-79908380D02*
X87738095Y-78908380D01*
X87357142Y-78908380D01*
X87261904Y-78956000D01*
X87214285Y-79003619D01*
X87166666Y-79098857D01*
X87166666Y-79241714D01*
X87214285Y-79336952D01*
X87261904Y-79384571D01*
X87357142Y-79432190D01*
X87738095Y-79432190D01*
X86309523Y-78908380D02*
X86500000Y-78908380D01*
X86595238Y-78956000D01*
X86642857Y-79003619D01*
X86738095Y-79146476D01*
X86785714Y-79336952D01*
X86785714Y-79717904D01*
X86738095Y-79813142D01*
X86690476Y-79860761D01*
X86595238Y-79908380D01*
X86404761Y-79908380D01*
X86309523Y-79860761D01*
X86261904Y-79813142D01*
X86214285Y-79717904D01*
X86214285Y-79479809D01*
X86261904Y-79384571D01*
X86309523Y-79336952D01*
X86404761Y-79289333D01*
X86595238Y-79289333D01*
X86690476Y-79336952D01*
X86738095Y-79384571D01*
X86785714Y-79479809D01*
%TO.C,R5*%
X69230666Y-79908380D02*
X69564000Y-79432190D01*
X69802095Y-79908380D02*
X69802095Y-78908380D01*
X69421142Y-78908380D01*
X69325904Y-78956000D01*
X69278285Y-79003619D01*
X69230666Y-79098857D01*
X69230666Y-79241714D01*
X69278285Y-79336952D01*
X69325904Y-79384571D01*
X69421142Y-79432190D01*
X69802095Y-79432190D01*
X68325904Y-78908380D02*
X68802095Y-78908380D01*
X68849714Y-79384571D01*
X68802095Y-79336952D01*
X68706857Y-79289333D01*
X68468761Y-79289333D01*
X68373523Y-79336952D01*
X68325904Y-79384571D01*
X68278285Y-79479809D01*
X68278285Y-79717904D01*
X68325904Y-79813142D01*
X68373523Y-79860761D01*
X68468761Y-79908380D01*
X68706857Y-79908380D01*
X68802095Y-79860761D01*
X68849714Y-79813142D01*
%TO.C,R4*%
X120666666Y-79908380D02*
X121000000Y-79432190D01*
X121238095Y-79908380D02*
X121238095Y-78908380D01*
X120857142Y-78908380D01*
X120761904Y-78956000D01*
X120714285Y-79003619D01*
X120666666Y-79098857D01*
X120666666Y-79241714D01*
X120714285Y-79336952D01*
X120761904Y-79384571D01*
X120857142Y-79432190D01*
X121238095Y-79432190D01*
X119809523Y-79241714D02*
X119809523Y-79908380D01*
X120047619Y-78860761D02*
X120285714Y-79575047D01*
X119666666Y-79575047D01*
%TO.C,R3*%
X102666666Y-79908380D02*
X103000000Y-79432190D01*
X103238095Y-79908380D02*
X103238095Y-78908380D01*
X102857142Y-78908380D01*
X102761904Y-78956000D01*
X102714285Y-79003619D01*
X102666666Y-79098857D01*
X102666666Y-79241714D01*
X102714285Y-79336952D01*
X102761904Y-79384571D01*
X102857142Y-79432190D01*
X103238095Y-79432190D01*
X102333333Y-78908380D02*
X101714285Y-78908380D01*
X102047619Y-79289333D01*
X101904761Y-79289333D01*
X101809523Y-79336952D01*
X101761904Y-79384571D01*
X101714285Y-79479809D01*
X101714285Y-79717904D01*
X101761904Y-79813142D01*
X101809523Y-79860761D01*
X101904761Y-79908380D01*
X102190476Y-79908380D01*
X102285714Y-79860761D01*
X102333333Y-79813142D01*
%TO.C,R2*%
X84666666Y-79908380D02*
X85000000Y-79432190D01*
X85238095Y-79908380D02*
X85238095Y-78908380D01*
X84857142Y-78908380D01*
X84761904Y-78956000D01*
X84714285Y-79003619D01*
X84666666Y-79098857D01*
X84666666Y-79241714D01*
X84714285Y-79336952D01*
X84761904Y-79384571D01*
X84857142Y-79432190D01*
X85238095Y-79432190D01*
X84285714Y-79003619D02*
X84238095Y-78956000D01*
X84142857Y-78908380D01*
X83904761Y-78908380D01*
X83809523Y-78956000D01*
X83761904Y-79003619D01*
X83714285Y-79098857D01*
X83714285Y-79194095D01*
X83761904Y-79336952D01*
X84333333Y-79908380D01*
X83714285Y-79908380D01*
%TO.C,J1*%
X113033333Y-115962380D02*
X113033333Y-116676666D01*
X113080952Y-116819523D01*
X113176190Y-116914761D01*
X113319047Y-116962380D01*
X113414285Y-116962380D01*
X112033333Y-116962380D02*
X112604761Y-116962380D01*
X112319047Y-116962380D02*
X112319047Y-115962380D01*
X112414285Y-116105238D01*
X112509523Y-116200476D01*
X112604761Y-116248095D01*
%TO.C,R1*%
X66666666Y-79908380D02*
X67000000Y-79432190D01*
X67238095Y-79908380D02*
X67238095Y-78908380D01*
X66857142Y-78908380D01*
X66761904Y-78956000D01*
X66714285Y-79003619D01*
X66666666Y-79098857D01*
X66666666Y-79241714D01*
X66714285Y-79336952D01*
X66761904Y-79384571D01*
X66857142Y-79432190D01*
X67238095Y-79432190D01*
X65714285Y-79908380D02*
X66285714Y-79908380D01*
X66000000Y-79908380D02*
X66000000Y-78908380D01*
X66095238Y-79051238D01*
X66190476Y-79146476D01*
X66285714Y-79194095D01*
%TD*%
M02*
