G04 #@! TF.GenerationSoftware,KiCad,Pcbnew,(5.1.0)-1*
G04 #@! TF.CreationDate,2019-07-07T19:15:54+02:00*
G04 #@! TF.ProjectId,button_v1,62757474-6f6e-45f7-9631-2e6b69636164,rev?*
G04 #@! TF.SameCoordinates,Original*
G04 #@! TF.FileFunction,Soldermask,Bot*
G04 #@! TF.FilePolarity,Negative*
%FSLAX46Y46*%
G04 Gerber Fmt 4.6, Leading zero omitted, Abs format (unit mm)*
G04 Created by KiCad (PCBNEW (5.1.0)-1) date 2019-07-07 19:15:54*
%MOMM*%
%LPD*%
G04 APERTURE LIST*
%ADD10C,0.100000*%
G04 APERTURE END LIST*
D10*
G36*
X150181971Y-123324204D02*
G01*
X150343871Y-123356408D01*
X150648883Y-123482748D01*
X150923387Y-123666166D01*
X151156834Y-123899613D01*
X151340252Y-124174117D01*
X151466592Y-124479129D01*
X151531000Y-124802928D01*
X151531000Y-125133072D01*
X151466592Y-125456871D01*
X151340252Y-125761883D01*
X151156834Y-126036387D01*
X150923387Y-126269834D01*
X150648883Y-126453252D01*
X150343871Y-126579592D01*
X150181971Y-126611796D01*
X150020073Y-126644000D01*
X149689927Y-126644000D01*
X149528029Y-126611796D01*
X149366129Y-126579592D01*
X149061117Y-126453252D01*
X148786613Y-126269834D01*
X148553166Y-126036387D01*
X148369748Y-125761883D01*
X148243408Y-125456871D01*
X148179000Y-125133072D01*
X148179000Y-124802928D01*
X148243408Y-124479129D01*
X148369748Y-124174117D01*
X148553166Y-123899613D01*
X148786613Y-123666166D01*
X149061117Y-123482748D01*
X149366129Y-123356408D01*
X149528029Y-123324204D01*
X149689927Y-123292000D01*
X150020073Y-123292000D01*
X150181971Y-123324204D01*
X150181971Y-123324204D01*
G37*
G36*
X140021971Y-123324204D02*
G01*
X140183871Y-123356408D01*
X140488883Y-123482748D01*
X140763387Y-123666166D01*
X140996834Y-123899613D01*
X141180252Y-124174117D01*
X141306592Y-124479129D01*
X141371000Y-124802928D01*
X141371000Y-125133072D01*
X141306592Y-125456871D01*
X141180252Y-125761883D01*
X140996834Y-126036387D01*
X140763387Y-126269834D01*
X140488883Y-126453252D01*
X140183871Y-126579592D01*
X140021971Y-126611796D01*
X139860073Y-126644000D01*
X139529927Y-126644000D01*
X139368029Y-126611796D01*
X139206129Y-126579592D01*
X138901117Y-126453252D01*
X138626613Y-126269834D01*
X138393166Y-126036387D01*
X138209748Y-125761883D01*
X138083408Y-125456871D01*
X138019000Y-125133072D01*
X138019000Y-124802928D01*
X138083408Y-124479129D01*
X138209748Y-124174117D01*
X138393166Y-123899613D01*
X138626613Y-123666166D01*
X138901117Y-123482748D01*
X139206129Y-123356408D01*
X139368029Y-123324204D01*
X139529927Y-123292000D01*
X139860073Y-123292000D01*
X140021971Y-123324204D01*
X140021971Y-123324204D01*
G37*
G36*
X96587971Y-123324204D02*
G01*
X96749871Y-123356408D01*
X97054883Y-123482748D01*
X97329387Y-123666166D01*
X97562834Y-123899613D01*
X97746252Y-124174117D01*
X97872592Y-124479129D01*
X97937000Y-124802928D01*
X97937000Y-125133072D01*
X97872592Y-125456871D01*
X97746252Y-125761883D01*
X97562834Y-126036387D01*
X97329387Y-126269834D01*
X97054883Y-126453252D01*
X96749871Y-126579592D01*
X96587971Y-126611796D01*
X96426073Y-126644000D01*
X96095927Y-126644000D01*
X95934029Y-126611796D01*
X95772129Y-126579592D01*
X95467117Y-126453252D01*
X95192613Y-126269834D01*
X94959166Y-126036387D01*
X94775748Y-125761883D01*
X94649408Y-125456871D01*
X94585000Y-125133072D01*
X94585000Y-124802928D01*
X94649408Y-124479129D01*
X94775748Y-124174117D01*
X94959166Y-123899613D01*
X95192613Y-123666166D01*
X95467117Y-123482748D01*
X95772129Y-123356408D01*
X95934029Y-123324204D01*
X96095927Y-123292000D01*
X96426073Y-123292000D01*
X96587971Y-123324204D01*
X96587971Y-123324204D01*
G37*
G36*
X106747971Y-123324204D02*
G01*
X106909871Y-123356408D01*
X107214883Y-123482748D01*
X107489387Y-123666166D01*
X107722834Y-123899613D01*
X107906252Y-124174117D01*
X108032592Y-124479129D01*
X108097000Y-124802928D01*
X108097000Y-125133072D01*
X108032592Y-125456871D01*
X107906252Y-125761883D01*
X107722834Y-126036387D01*
X107489387Y-126269834D01*
X107214883Y-126453252D01*
X106909871Y-126579592D01*
X106747971Y-126611796D01*
X106586073Y-126644000D01*
X106255927Y-126644000D01*
X106094029Y-126611796D01*
X105932129Y-126579592D01*
X105627117Y-126453252D01*
X105352613Y-126269834D01*
X105119166Y-126036387D01*
X104935748Y-125761883D01*
X104809408Y-125456871D01*
X104745000Y-125133072D01*
X104745000Y-124802928D01*
X104809408Y-124479129D01*
X104935748Y-124174117D01*
X105119166Y-123899613D01*
X105352613Y-123666166D01*
X105627117Y-123482748D01*
X105932129Y-123356408D01*
X106094029Y-123324204D01*
X106255927Y-123292000D01*
X106586073Y-123292000D01*
X106747971Y-123324204D01*
X106747971Y-123324204D01*
G37*
G36*
X111065971Y-123324204D02*
G01*
X111227871Y-123356408D01*
X111532883Y-123482748D01*
X111807387Y-123666166D01*
X112040834Y-123899613D01*
X112224252Y-124174117D01*
X112350592Y-124479129D01*
X112415000Y-124802928D01*
X112415000Y-125133072D01*
X112350592Y-125456871D01*
X112224252Y-125761883D01*
X112040834Y-126036387D01*
X111807387Y-126269834D01*
X111532883Y-126453252D01*
X111227871Y-126579592D01*
X111065971Y-126611796D01*
X110904073Y-126644000D01*
X110573927Y-126644000D01*
X110412029Y-126611796D01*
X110250129Y-126579592D01*
X109945117Y-126453252D01*
X109670613Y-126269834D01*
X109437166Y-126036387D01*
X109253748Y-125761883D01*
X109127408Y-125456871D01*
X109063000Y-125133072D01*
X109063000Y-124802928D01*
X109127408Y-124479129D01*
X109253748Y-124174117D01*
X109437166Y-123899613D01*
X109670613Y-123666166D01*
X109945117Y-123482748D01*
X110250129Y-123356408D01*
X110412029Y-123324204D01*
X110573927Y-123292000D01*
X110904073Y-123292000D01*
X111065971Y-123324204D01*
X111065971Y-123324204D01*
G37*
G36*
X125543971Y-123324204D02*
G01*
X125705871Y-123356408D01*
X126010883Y-123482748D01*
X126285387Y-123666166D01*
X126518834Y-123899613D01*
X126702252Y-124174117D01*
X126828592Y-124479129D01*
X126893000Y-124802928D01*
X126893000Y-125133072D01*
X126828592Y-125456871D01*
X126702252Y-125761883D01*
X126518834Y-126036387D01*
X126285387Y-126269834D01*
X126010883Y-126453252D01*
X125705871Y-126579592D01*
X125543971Y-126611796D01*
X125382073Y-126644000D01*
X125051927Y-126644000D01*
X124890029Y-126611796D01*
X124728129Y-126579592D01*
X124423117Y-126453252D01*
X124148613Y-126269834D01*
X123915166Y-126036387D01*
X123731748Y-125761883D01*
X123605408Y-125456871D01*
X123541000Y-125133072D01*
X123541000Y-124802928D01*
X123605408Y-124479129D01*
X123731748Y-124174117D01*
X123915166Y-123899613D01*
X124148613Y-123666166D01*
X124423117Y-123482748D01*
X124728129Y-123356408D01*
X124890029Y-123324204D01*
X125051927Y-123292000D01*
X125382073Y-123292000D01*
X125543971Y-123324204D01*
X125543971Y-123324204D01*
G37*
G36*
X121225971Y-123324204D02*
G01*
X121387871Y-123356408D01*
X121692883Y-123482748D01*
X121967387Y-123666166D01*
X122200834Y-123899613D01*
X122384252Y-124174117D01*
X122510592Y-124479129D01*
X122575000Y-124802928D01*
X122575000Y-125133072D01*
X122510592Y-125456871D01*
X122384252Y-125761883D01*
X122200834Y-126036387D01*
X121967387Y-126269834D01*
X121692883Y-126453252D01*
X121387871Y-126579592D01*
X121225971Y-126611796D01*
X121064073Y-126644000D01*
X120733927Y-126644000D01*
X120572029Y-126611796D01*
X120410129Y-126579592D01*
X120105117Y-126453252D01*
X119830613Y-126269834D01*
X119597166Y-126036387D01*
X119413748Y-125761883D01*
X119287408Y-125456871D01*
X119223000Y-125133072D01*
X119223000Y-124802928D01*
X119287408Y-124479129D01*
X119413748Y-124174117D01*
X119597166Y-123899613D01*
X119830613Y-123666166D01*
X120105117Y-123482748D01*
X120410129Y-123356408D01*
X120572029Y-123324204D01*
X120733927Y-123292000D01*
X121064073Y-123292000D01*
X121225971Y-123324204D01*
X121225971Y-123324204D01*
G37*
G36*
X135703971Y-123324204D02*
G01*
X135865871Y-123356408D01*
X136170883Y-123482748D01*
X136445387Y-123666166D01*
X136678834Y-123899613D01*
X136862252Y-124174117D01*
X136988592Y-124479129D01*
X137053000Y-124802928D01*
X137053000Y-125133072D01*
X136988592Y-125456871D01*
X136862252Y-125761883D01*
X136678834Y-126036387D01*
X136445387Y-126269834D01*
X136170883Y-126453252D01*
X135865871Y-126579592D01*
X135703971Y-126611796D01*
X135542073Y-126644000D01*
X135211927Y-126644000D01*
X135050029Y-126611796D01*
X134888129Y-126579592D01*
X134583117Y-126453252D01*
X134308613Y-126269834D01*
X134075166Y-126036387D01*
X133891748Y-125761883D01*
X133765408Y-125456871D01*
X133701000Y-125133072D01*
X133701000Y-124802928D01*
X133765408Y-124479129D01*
X133891748Y-124174117D01*
X134075166Y-123899613D01*
X134308613Y-123666166D01*
X134583117Y-123482748D01*
X134888129Y-123356408D01*
X135050029Y-123324204D01*
X135211927Y-123292000D01*
X135542073Y-123292000D01*
X135703971Y-123324204D01*
X135703971Y-123324204D01*
G37*
G36*
X88259256Y-122343171D02*
G01*
X88365579Y-122364320D01*
X88666042Y-122488776D01*
X88936451Y-122669458D01*
X89166415Y-122899422D01*
X89347097Y-123169831D01*
X89471553Y-123470294D01*
X89535000Y-123789264D01*
X89535000Y-124114482D01*
X89471553Y-124433452D01*
X89347097Y-124733915D01*
X89166415Y-125004324D01*
X88936451Y-125234288D01*
X88666042Y-125414970D01*
X88365579Y-125539426D01*
X88259256Y-125560575D01*
X88046611Y-125602873D01*
X87721389Y-125602873D01*
X87508744Y-125560575D01*
X87402421Y-125539426D01*
X87101958Y-125414970D01*
X86831549Y-125234288D01*
X86601585Y-125004324D01*
X86420903Y-124733915D01*
X86296447Y-124433452D01*
X86233000Y-124114482D01*
X86233000Y-123789264D01*
X86296447Y-123470294D01*
X86420903Y-123169831D01*
X86601585Y-122899422D01*
X86831549Y-122669458D01*
X87101958Y-122488776D01*
X87402421Y-122364320D01*
X87508744Y-122343171D01*
X87721389Y-122300873D01*
X88046611Y-122300873D01*
X88259256Y-122343171D01*
X88259256Y-122343171D01*
G37*
G36*
X158298104Y-122343171D02*
G01*
X158404427Y-122364320D01*
X158704890Y-122488776D01*
X158975299Y-122669458D01*
X159205263Y-122899422D01*
X159385945Y-123169831D01*
X159510401Y-123470294D01*
X159573848Y-123789264D01*
X159573848Y-124114482D01*
X159510401Y-124433452D01*
X159385945Y-124733915D01*
X159205263Y-125004324D01*
X158975299Y-125234288D01*
X158704890Y-125414970D01*
X158404427Y-125539426D01*
X158298104Y-125560575D01*
X158085459Y-125602873D01*
X157760237Y-125602873D01*
X157547592Y-125560575D01*
X157441269Y-125539426D01*
X157140806Y-125414970D01*
X156870397Y-125234288D01*
X156640433Y-125004324D01*
X156459751Y-124733915D01*
X156335295Y-124433452D01*
X156271848Y-124114482D01*
X156271848Y-123789264D01*
X156335295Y-123470294D01*
X156459751Y-123169831D01*
X156640433Y-122899422D01*
X156870397Y-122669458D01*
X157140806Y-122488776D01*
X157441269Y-122364320D01*
X157547592Y-122343171D01*
X157760237Y-122300873D01*
X158085459Y-122300873D01*
X158298104Y-122343171D01*
X158298104Y-122343171D01*
G37*
G36*
X133713560Y-117838166D02*
G01*
X133861153Y-117899301D01*
X133993982Y-117988055D01*
X134106945Y-118101018D01*
X134195699Y-118233847D01*
X134256834Y-118381440D01*
X134288000Y-118538123D01*
X134288000Y-118697877D01*
X134256834Y-118854560D01*
X134195699Y-119002153D01*
X134106945Y-119134982D01*
X133993982Y-119247945D01*
X133861153Y-119336699D01*
X133861152Y-119336700D01*
X133861151Y-119336700D01*
X133713560Y-119397834D01*
X133556878Y-119429000D01*
X133397122Y-119429000D01*
X133240440Y-119397834D01*
X133092849Y-119336700D01*
X133092848Y-119336700D01*
X133092847Y-119336699D01*
X132960018Y-119247945D01*
X132847055Y-119134982D01*
X132758301Y-119002153D01*
X132697166Y-118854560D01*
X132666000Y-118697877D01*
X132666000Y-118538123D01*
X132697166Y-118381440D01*
X132758301Y-118233847D01*
X132847055Y-118101018D01*
X132960018Y-117988055D01*
X133092847Y-117899301D01*
X133240440Y-117838166D01*
X133397122Y-117807000D01*
X133556878Y-117807000D01*
X133713560Y-117838166D01*
X133713560Y-117838166D01*
G37*
G36*
X114155560Y-117838166D02*
G01*
X114303153Y-117899301D01*
X114435982Y-117988055D01*
X114548945Y-118101018D01*
X114637699Y-118233847D01*
X114698834Y-118381440D01*
X114730000Y-118538123D01*
X114730000Y-118697877D01*
X114698834Y-118854560D01*
X114637699Y-119002153D01*
X114548945Y-119134982D01*
X114435982Y-119247945D01*
X114303153Y-119336699D01*
X114303152Y-119336700D01*
X114303151Y-119336700D01*
X114155560Y-119397834D01*
X113998878Y-119429000D01*
X113839122Y-119429000D01*
X113682440Y-119397834D01*
X113534849Y-119336700D01*
X113534848Y-119336700D01*
X113534847Y-119336699D01*
X113402018Y-119247945D01*
X113289055Y-119134982D01*
X113200301Y-119002153D01*
X113139166Y-118854560D01*
X113108000Y-118697877D01*
X113108000Y-118538123D01*
X113139166Y-118381440D01*
X113200301Y-118233847D01*
X113289055Y-118101018D01*
X113402018Y-117988055D01*
X113534847Y-117899301D01*
X113682440Y-117838166D01*
X113839122Y-117807000D01*
X113998878Y-117807000D01*
X114155560Y-117838166D01*
X114155560Y-117838166D01*
G37*
G36*
X99677560Y-117838166D02*
G01*
X99825153Y-117899301D01*
X99957982Y-117988055D01*
X100070945Y-118101018D01*
X100159699Y-118233847D01*
X100220834Y-118381440D01*
X100252000Y-118538123D01*
X100252000Y-118697877D01*
X100220834Y-118854560D01*
X100159699Y-119002153D01*
X100070945Y-119134982D01*
X99957982Y-119247945D01*
X99825153Y-119336699D01*
X99825152Y-119336700D01*
X99825151Y-119336700D01*
X99677560Y-119397834D01*
X99520878Y-119429000D01*
X99361122Y-119429000D01*
X99204440Y-119397834D01*
X99056849Y-119336700D01*
X99056848Y-119336700D01*
X99056847Y-119336699D01*
X98924018Y-119247945D01*
X98811055Y-119134982D01*
X98722301Y-119002153D01*
X98661166Y-118854560D01*
X98630000Y-118697877D01*
X98630000Y-118538123D01*
X98661166Y-118381440D01*
X98722301Y-118233847D01*
X98811055Y-118101018D01*
X98924018Y-117988055D01*
X99056847Y-117899301D01*
X99204440Y-117838166D01*
X99361122Y-117807000D01*
X99520878Y-117807000D01*
X99677560Y-117838166D01*
X99677560Y-117838166D01*
G37*
G36*
X102217560Y-117838166D02*
G01*
X102365153Y-117899301D01*
X102497982Y-117988055D01*
X102610945Y-118101018D01*
X102699699Y-118233847D01*
X102760834Y-118381440D01*
X102792000Y-118538123D01*
X102792000Y-118697877D01*
X102760834Y-118854560D01*
X102699699Y-119002153D01*
X102610945Y-119134982D01*
X102497982Y-119247945D01*
X102365153Y-119336699D01*
X102365152Y-119336700D01*
X102365151Y-119336700D01*
X102217560Y-119397834D01*
X102060878Y-119429000D01*
X101901122Y-119429000D01*
X101744440Y-119397834D01*
X101596849Y-119336700D01*
X101596848Y-119336700D01*
X101596847Y-119336699D01*
X101464018Y-119247945D01*
X101351055Y-119134982D01*
X101262301Y-119002153D01*
X101201166Y-118854560D01*
X101170000Y-118697877D01*
X101170000Y-118538123D01*
X101201166Y-118381440D01*
X101262301Y-118233847D01*
X101351055Y-118101018D01*
X101464018Y-117988055D01*
X101596847Y-117899301D01*
X101744440Y-117838166D01*
X101901122Y-117807000D01*
X102060878Y-117807000D01*
X102217560Y-117838166D01*
X102217560Y-117838166D01*
G37*
G36*
X104757560Y-117838166D02*
G01*
X104905153Y-117899301D01*
X105037982Y-117988055D01*
X105150945Y-118101018D01*
X105239699Y-118233847D01*
X105300834Y-118381440D01*
X105332000Y-118538123D01*
X105332000Y-118697877D01*
X105300834Y-118854560D01*
X105239699Y-119002153D01*
X105150945Y-119134982D01*
X105037982Y-119247945D01*
X104905153Y-119336699D01*
X104905152Y-119336700D01*
X104905151Y-119336700D01*
X104757560Y-119397834D01*
X104600878Y-119429000D01*
X104441122Y-119429000D01*
X104284440Y-119397834D01*
X104136849Y-119336700D01*
X104136848Y-119336700D01*
X104136847Y-119336699D01*
X104004018Y-119247945D01*
X103891055Y-119134982D01*
X103802301Y-119002153D01*
X103741166Y-118854560D01*
X103710000Y-118697877D01*
X103710000Y-118538123D01*
X103741166Y-118381440D01*
X103802301Y-118233847D01*
X103891055Y-118101018D01*
X104004018Y-117988055D01*
X104136847Y-117899301D01*
X104284440Y-117838166D01*
X104441122Y-117807000D01*
X104600878Y-117807000D01*
X104757560Y-117838166D01*
X104757560Y-117838166D01*
G37*
G36*
X131173560Y-117838166D02*
G01*
X131321153Y-117899301D01*
X131453982Y-117988055D01*
X131566945Y-118101018D01*
X131655699Y-118233847D01*
X131716834Y-118381440D01*
X131748000Y-118538123D01*
X131748000Y-118697877D01*
X131716834Y-118854560D01*
X131655699Y-119002153D01*
X131566945Y-119134982D01*
X131453982Y-119247945D01*
X131321153Y-119336699D01*
X131321152Y-119336700D01*
X131321151Y-119336700D01*
X131173560Y-119397834D01*
X131016878Y-119429000D01*
X130857122Y-119429000D01*
X130700440Y-119397834D01*
X130552849Y-119336700D01*
X130552848Y-119336700D01*
X130552847Y-119336699D01*
X130420018Y-119247945D01*
X130307055Y-119134982D01*
X130218301Y-119002153D01*
X130157166Y-118854560D01*
X130126000Y-118697877D01*
X130126000Y-118538123D01*
X130157166Y-118381440D01*
X130218301Y-118233847D01*
X130307055Y-118101018D01*
X130420018Y-117988055D01*
X130552847Y-117899301D01*
X130700440Y-117838166D01*
X130857122Y-117807000D01*
X131016878Y-117807000D01*
X131173560Y-117838166D01*
X131173560Y-117838166D01*
G37*
G36*
X143111560Y-117838166D02*
G01*
X143259153Y-117899301D01*
X143391982Y-117988055D01*
X143504945Y-118101018D01*
X143593699Y-118233847D01*
X143654834Y-118381440D01*
X143686000Y-118538123D01*
X143686000Y-118697877D01*
X143654834Y-118854560D01*
X143593699Y-119002153D01*
X143504945Y-119134982D01*
X143391982Y-119247945D01*
X143259153Y-119336699D01*
X143259152Y-119336700D01*
X143259151Y-119336700D01*
X143111560Y-119397834D01*
X142954878Y-119429000D01*
X142795122Y-119429000D01*
X142638440Y-119397834D01*
X142490849Y-119336700D01*
X142490848Y-119336700D01*
X142490847Y-119336699D01*
X142358018Y-119247945D01*
X142245055Y-119134982D01*
X142156301Y-119002153D01*
X142095166Y-118854560D01*
X142064000Y-118697877D01*
X142064000Y-118538123D01*
X142095166Y-118381440D01*
X142156301Y-118233847D01*
X142245055Y-118101018D01*
X142358018Y-117988055D01*
X142490847Y-117899301D01*
X142638440Y-117838166D01*
X142795122Y-117807000D01*
X142954878Y-117807000D01*
X143111560Y-117838166D01*
X143111560Y-117838166D01*
G37*
G36*
X148191560Y-117838166D02*
G01*
X148339153Y-117899301D01*
X148471982Y-117988055D01*
X148584945Y-118101018D01*
X148673699Y-118233847D01*
X148734834Y-118381440D01*
X148766000Y-118538123D01*
X148766000Y-118697877D01*
X148734834Y-118854560D01*
X148673699Y-119002153D01*
X148584945Y-119134982D01*
X148471982Y-119247945D01*
X148339153Y-119336699D01*
X148339152Y-119336700D01*
X148339151Y-119336700D01*
X148191560Y-119397834D01*
X148034878Y-119429000D01*
X147875122Y-119429000D01*
X147718440Y-119397834D01*
X147570849Y-119336700D01*
X147570848Y-119336700D01*
X147570847Y-119336699D01*
X147438018Y-119247945D01*
X147325055Y-119134982D01*
X147236301Y-119002153D01*
X147175166Y-118854560D01*
X147144000Y-118697877D01*
X147144000Y-118538123D01*
X147175166Y-118381440D01*
X147236301Y-118233847D01*
X147325055Y-118101018D01*
X147438018Y-117988055D01*
X147570847Y-117899301D01*
X147718440Y-117838166D01*
X147875122Y-117807000D01*
X148034878Y-117807000D01*
X148191560Y-117838166D01*
X148191560Y-117838166D01*
G37*
G36*
X128633560Y-117838166D02*
G01*
X128781153Y-117899301D01*
X128913982Y-117988055D01*
X129026945Y-118101018D01*
X129115699Y-118233847D01*
X129176834Y-118381440D01*
X129208000Y-118538123D01*
X129208000Y-118697877D01*
X129176834Y-118854560D01*
X129115699Y-119002153D01*
X129026945Y-119134982D01*
X128913982Y-119247945D01*
X128781153Y-119336699D01*
X128781152Y-119336700D01*
X128781151Y-119336700D01*
X128633560Y-119397834D01*
X128476878Y-119429000D01*
X128317122Y-119429000D01*
X128160440Y-119397834D01*
X128012849Y-119336700D01*
X128012848Y-119336700D01*
X128012847Y-119336699D01*
X127880018Y-119247945D01*
X127767055Y-119134982D01*
X127678301Y-119002153D01*
X127617166Y-118854560D01*
X127586000Y-118697877D01*
X127586000Y-118538123D01*
X127617166Y-118381440D01*
X127678301Y-118233847D01*
X127767055Y-118101018D01*
X127880018Y-117988055D01*
X128012847Y-117899301D01*
X128160440Y-117838166D01*
X128317122Y-117807000D01*
X128476878Y-117807000D01*
X128633560Y-117838166D01*
X128633560Y-117838166D01*
G37*
G36*
X119235560Y-117838166D02*
G01*
X119383153Y-117899301D01*
X119515982Y-117988055D01*
X119628945Y-118101018D01*
X119717699Y-118233847D01*
X119778834Y-118381440D01*
X119810000Y-118538123D01*
X119810000Y-118697877D01*
X119778834Y-118854560D01*
X119717699Y-119002153D01*
X119628945Y-119134982D01*
X119515982Y-119247945D01*
X119383153Y-119336699D01*
X119383152Y-119336700D01*
X119383151Y-119336700D01*
X119235560Y-119397834D01*
X119078878Y-119429000D01*
X118919122Y-119429000D01*
X118762440Y-119397834D01*
X118614849Y-119336700D01*
X118614848Y-119336700D01*
X118614847Y-119336699D01*
X118482018Y-119247945D01*
X118369055Y-119134982D01*
X118280301Y-119002153D01*
X118219166Y-118854560D01*
X118188000Y-118697877D01*
X118188000Y-118538123D01*
X118219166Y-118381440D01*
X118280301Y-118233847D01*
X118369055Y-118101018D01*
X118482018Y-117988055D01*
X118614847Y-117899301D01*
X118762440Y-117838166D01*
X118919122Y-117807000D01*
X119078878Y-117807000D01*
X119235560Y-117838166D01*
X119235560Y-117838166D01*
G37*
G36*
X116695560Y-117838166D02*
G01*
X116843153Y-117899301D01*
X116975982Y-117988055D01*
X117088945Y-118101018D01*
X117177699Y-118233847D01*
X117238834Y-118381440D01*
X117270000Y-118538123D01*
X117270000Y-118697877D01*
X117238834Y-118854560D01*
X117177699Y-119002153D01*
X117088945Y-119134982D01*
X116975982Y-119247945D01*
X116843153Y-119336699D01*
X116843152Y-119336700D01*
X116843151Y-119336700D01*
X116695560Y-119397834D01*
X116538878Y-119429000D01*
X116379122Y-119429000D01*
X116222440Y-119397834D01*
X116074849Y-119336700D01*
X116074848Y-119336700D01*
X116074847Y-119336699D01*
X115942018Y-119247945D01*
X115829055Y-119134982D01*
X115740301Y-119002153D01*
X115679166Y-118854560D01*
X115648000Y-118697877D01*
X115648000Y-118538123D01*
X115679166Y-118381440D01*
X115740301Y-118233847D01*
X115829055Y-118101018D01*
X115942018Y-117988055D01*
X116074847Y-117899301D01*
X116222440Y-117838166D01*
X116379122Y-117807000D01*
X116538878Y-117807000D01*
X116695560Y-117838166D01*
X116695560Y-117838166D01*
G37*
G36*
X145651560Y-117838166D02*
G01*
X145799153Y-117899301D01*
X145931982Y-117988055D01*
X146044945Y-118101018D01*
X146133699Y-118233847D01*
X146194834Y-118381440D01*
X146226000Y-118538123D01*
X146226000Y-118697877D01*
X146194834Y-118854560D01*
X146133699Y-119002153D01*
X146044945Y-119134982D01*
X145931982Y-119247945D01*
X145799153Y-119336699D01*
X145799152Y-119336700D01*
X145799151Y-119336700D01*
X145651560Y-119397834D01*
X145494878Y-119429000D01*
X145335122Y-119429000D01*
X145178440Y-119397834D01*
X145030849Y-119336700D01*
X145030848Y-119336700D01*
X145030847Y-119336699D01*
X144898018Y-119247945D01*
X144785055Y-119134982D01*
X144696301Y-119002153D01*
X144635166Y-118854560D01*
X144604000Y-118697877D01*
X144604000Y-118538123D01*
X144635166Y-118381440D01*
X144696301Y-118233847D01*
X144785055Y-118101018D01*
X144898018Y-117988055D01*
X145030847Y-117899301D01*
X145178440Y-117838166D01*
X145335122Y-117807000D01*
X145494878Y-117807000D01*
X145651560Y-117838166D01*
X145651560Y-117838166D01*
G37*
G36*
X146921560Y-115298166D02*
G01*
X147069153Y-115359301D01*
X147201982Y-115448055D01*
X147314945Y-115561018D01*
X147403700Y-115693849D01*
X147464834Y-115841440D01*
X147496000Y-115998122D01*
X147496000Y-116157878D01*
X147464834Y-116314560D01*
X147403699Y-116462153D01*
X147314945Y-116594982D01*
X147201982Y-116707945D01*
X147069153Y-116796699D01*
X147069152Y-116796700D01*
X147069151Y-116796700D01*
X146921560Y-116857834D01*
X146764878Y-116889000D01*
X146605122Y-116889000D01*
X146448440Y-116857834D01*
X146300849Y-116796700D01*
X146300848Y-116796700D01*
X146300847Y-116796699D01*
X146168018Y-116707945D01*
X146055055Y-116594982D01*
X145966301Y-116462153D01*
X145905166Y-116314560D01*
X145874000Y-116157878D01*
X145874000Y-115998122D01*
X145905166Y-115841440D01*
X145966300Y-115693849D01*
X146055055Y-115561018D01*
X146168018Y-115448055D01*
X146300847Y-115359301D01*
X146448440Y-115298166D01*
X146605122Y-115267000D01*
X146764878Y-115267000D01*
X146921560Y-115298166D01*
X146921560Y-115298166D01*
G37*
G36*
X117965560Y-115298166D02*
G01*
X118113153Y-115359301D01*
X118245982Y-115448055D01*
X118358945Y-115561018D01*
X118447700Y-115693849D01*
X118508834Y-115841440D01*
X118540000Y-115998122D01*
X118540000Y-116157878D01*
X118508834Y-116314560D01*
X118447699Y-116462153D01*
X118358945Y-116594982D01*
X118245982Y-116707945D01*
X118113153Y-116796699D01*
X118113152Y-116796700D01*
X118113151Y-116796700D01*
X117965560Y-116857834D01*
X117808878Y-116889000D01*
X117649122Y-116889000D01*
X117492440Y-116857834D01*
X117344849Y-116796700D01*
X117344848Y-116796700D01*
X117344847Y-116796699D01*
X117212018Y-116707945D01*
X117099055Y-116594982D01*
X117010301Y-116462153D01*
X116949166Y-116314560D01*
X116918000Y-116157878D01*
X116918000Y-115998122D01*
X116949166Y-115841440D01*
X117010300Y-115693849D01*
X117099055Y-115561018D01*
X117212018Y-115448055D01*
X117344847Y-115359301D01*
X117492440Y-115298166D01*
X117649122Y-115267000D01*
X117808878Y-115267000D01*
X117965560Y-115298166D01*
X117965560Y-115298166D01*
G37*
G36*
X115425560Y-115298166D02*
G01*
X115573153Y-115359301D01*
X115705982Y-115448055D01*
X115818945Y-115561018D01*
X115907700Y-115693849D01*
X115968834Y-115841440D01*
X116000000Y-115998122D01*
X116000000Y-116157878D01*
X115968834Y-116314560D01*
X115907699Y-116462153D01*
X115818945Y-116594982D01*
X115705982Y-116707945D01*
X115573153Y-116796699D01*
X115573152Y-116796700D01*
X115573151Y-116796700D01*
X115425560Y-116857834D01*
X115268878Y-116889000D01*
X115109122Y-116889000D01*
X114952440Y-116857834D01*
X114804849Y-116796700D01*
X114804848Y-116796700D01*
X114804847Y-116796699D01*
X114672018Y-116707945D01*
X114559055Y-116594982D01*
X114470301Y-116462153D01*
X114409166Y-116314560D01*
X114378000Y-116157878D01*
X114378000Y-115998122D01*
X114409166Y-115841440D01*
X114470300Y-115693849D01*
X114559055Y-115561018D01*
X114672018Y-115448055D01*
X114804847Y-115359301D01*
X114952440Y-115298166D01*
X115109122Y-115267000D01*
X115268878Y-115267000D01*
X115425560Y-115298166D01*
X115425560Y-115298166D01*
G37*
G36*
X98982000Y-116889000D02*
G01*
X97360000Y-116889000D01*
X97360000Y-115267000D01*
X98982000Y-115267000D01*
X98982000Y-116889000D01*
X98982000Y-116889000D01*
G37*
G36*
X127938000Y-116889000D02*
G01*
X126316000Y-116889000D01*
X126316000Y-115267000D01*
X127938000Y-115267000D01*
X127938000Y-116889000D01*
X127938000Y-116889000D01*
G37*
G36*
X129903560Y-115298166D02*
G01*
X130051153Y-115359301D01*
X130183982Y-115448055D01*
X130296945Y-115561018D01*
X130385700Y-115693849D01*
X130446834Y-115841440D01*
X130478000Y-115998122D01*
X130478000Y-116157878D01*
X130446834Y-116314560D01*
X130385699Y-116462153D01*
X130296945Y-116594982D01*
X130183982Y-116707945D01*
X130051153Y-116796699D01*
X130051152Y-116796700D01*
X130051151Y-116796700D01*
X129903560Y-116857834D01*
X129746878Y-116889000D01*
X129587122Y-116889000D01*
X129430440Y-116857834D01*
X129282849Y-116796700D01*
X129282848Y-116796700D01*
X129282847Y-116796699D01*
X129150018Y-116707945D01*
X129037055Y-116594982D01*
X128948301Y-116462153D01*
X128887166Y-116314560D01*
X128856000Y-116157878D01*
X128856000Y-115998122D01*
X128887166Y-115841440D01*
X128948300Y-115693849D01*
X129037055Y-115561018D01*
X129150018Y-115448055D01*
X129282847Y-115359301D01*
X129430440Y-115298166D01*
X129587122Y-115267000D01*
X129746878Y-115267000D01*
X129903560Y-115298166D01*
X129903560Y-115298166D01*
G37*
G36*
X113460000Y-116889000D02*
G01*
X111838000Y-116889000D01*
X111838000Y-115267000D01*
X113460000Y-115267000D01*
X113460000Y-116889000D01*
X113460000Y-116889000D01*
G37*
G36*
X132443560Y-115298166D02*
G01*
X132591153Y-115359301D01*
X132723982Y-115448055D01*
X132836945Y-115561018D01*
X132925700Y-115693849D01*
X132986834Y-115841440D01*
X133018000Y-115998122D01*
X133018000Y-116157878D01*
X132986834Y-116314560D01*
X132925699Y-116462153D01*
X132836945Y-116594982D01*
X132723982Y-116707945D01*
X132591153Y-116796699D01*
X132591152Y-116796700D01*
X132591151Y-116796700D01*
X132443560Y-116857834D01*
X132286878Y-116889000D01*
X132127122Y-116889000D01*
X131970440Y-116857834D01*
X131822849Y-116796700D01*
X131822848Y-116796700D01*
X131822847Y-116796699D01*
X131690018Y-116707945D01*
X131577055Y-116594982D01*
X131488301Y-116462153D01*
X131427166Y-116314560D01*
X131396000Y-116157878D01*
X131396000Y-115998122D01*
X131427166Y-115841440D01*
X131488300Y-115693849D01*
X131577055Y-115561018D01*
X131690018Y-115448055D01*
X131822847Y-115359301D01*
X131970440Y-115298166D01*
X132127122Y-115267000D01*
X132286878Y-115267000D01*
X132443560Y-115298166D01*
X132443560Y-115298166D01*
G37*
G36*
X142416000Y-116889000D02*
G01*
X140794000Y-116889000D01*
X140794000Y-115267000D01*
X142416000Y-115267000D01*
X142416000Y-116889000D01*
X142416000Y-116889000D01*
G37*
G36*
X100947560Y-115298166D02*
G01*
X101095153Y-115359301D01*
X101227982Y-115448055D01*
X101340945Y-115561018D01*
X101429700Y-115693849D01*
X101490834Y-115841440D01*
X101522000Y-115998122D01*
X101522000Y-116157878D01*
X101490834Y-116314560D01*
X101429699Y-116462153D01*
X101340945Y-116594982D01*
X101227982Y-116707945D01*
X101095153Y-116796699D01*
X101095152Y-116796700D01*
X101095151Y-116796700D01*
X100947560Y-116857834D01*
X100790878Y-116889000D01*
X100631122Y-116889000D01*
X100474440Y-116857834D01*
X100326849Y-116796700D01*
X100326848Y-116796700D01*
X100326847Y-116796699D01*
X100194018Y-116707945D01*
X100081055Y-116594982D01*
X99992301Y-116462153D01*
X99931166Y-116314560D01*
X99900000Y-116157878D01*
X99900000Y-115998122D01*
X99931166Y-115841440D01*
X99992300Y-115693849D01*
X100081055Y-115561018D01*
X100194018Y-115448055D01*
X100326847Y-115359301D01*
X100474440Y-115298166D01*
X100631122Y-115267000D01*
X100790878Y-115267000D01*
X100947560Y-115298166D01*
X100947560Y-115298166D01*
G37*
G36*
X144381560Y-115298166D02*
G01*
X144529153Y-115359301D01*
X144661982Y-115448055D01*
X144774945Y-115561018D01*
X144863700Y-115693849D01*
X144924834Y-115841440D01*
X144956000Y-115998122D01*
X144956000Y-116157878D01*
X144924834Y-116314560D01*
X144863699Y-116462153D01*
X144774945Y-116594982D01*
X144661982Y-116707945D01*
X144529153Y-116796699D01*
X144529152Y-116796700D01*
X144529151Y-116796700D01*
X144381560Y-116857834D01*
X144224878Y-116889000D01*
X144065122Y-116889000D01*
X143908440Y-116857834D01*
X143760849Y-116796700D01*
X143760848Y-116796700D01*
X143760847Y-116796699D01*
X143628018Y-116707945D01*
X143515055Y-116594982D01*
X143426301Y-116462153D01*
X143365166Y-116314560D01*
X143334000Y-116157878D01*
X143334000Y-115998122D01*
X143365166Y-115841440D01*
X143426300Y-115693849D01*
X143515055Y-115561018D01*
X143628018Y-115448055D01*
X143760847Y-115359301D01*
X143908440Y-115298166D01*
X144065122Y-115267000D01*
X144224878Y-115267000D01*
X144381560Y-115298166D01*
X144381560Y-115298166D01*
G37*
G36*
X103487560Y-115298166D02*
G01*
X103635153Y-115359301D01*
X103767982Y-115448055D01*
X103880945Y-115561018D01*
X103969700Y-115693849D01*
X104030834Y-115841440D01*
X104062000Y-115998122D01*
X104062000Y-116157878D01*
X104030834Y-116314560D01*
X103969699Y-116462153D01*
X103880945Y-116594982D01*
X103767982Y-116707945D01*
X103635153Y-116796699D01*
X103635152Y-116796700D01*
X103635151Y-116796700D01*
X103487560Y-116857834D01*
X103330878Y-116889000D01*
X103171122Y-116889000D01*
X103014440Y-116857834D01*
X102866849Y-116796700D01*
X102866848Y-116796700D01*
X102866847Y-116796699D01*
X102734018Y-116707945D01*
X102621055Y-116594982D01*
X102532301Y-116462153D01*
X102471166Y-116314560D01*
X102440000Y-116157878D01*
X102440000Y-115998122D01*
X102471166Y-115841440D01*
X102532300Y-115693849D01*
X102621055Y-115561018D01*
X102734018Y-115448055D01*
X102866847Y-115359301D01*
X103014440Y-115298166D01*
X103171122Y-115267000D01*
X103330878Y-115267000D01*
X103487560Y-115298166D01*
X103487560Y-115298166D01*
G37*
G36*
X156198162Y-113328368D02*
G01*
X156507724Y-113456593D01*
X156507725Y-113456594D01*
X156786324Y-113642747D01*
X157023253Y-113879676D01*
X157147637Y-114065830D01*
X157209407Y-114158276D01*
X157337632Y-114467838D01*
X157403000Y-114796465D01*
X157403000Y-115131535D01*
X157337632Y-115460162D01*
X157209407Y-115769724D01*
X157209406Y-115769725D01*
X157023253Y-116048324D01*
X156786324Y-116285253D01*
X156600170Y-116409637D01*
X156507724Y-116471407D01*
X156198162Y-116599632D01*
X155869535Y-116665000D01*
X155534465Y-116665000D01*
X155205838Y-116599632D01*
X154896276Y-116471407D01*
X154803830Y-116409637D01*
X154617676Y-116285253D01*
X154380747Y-116048324D01*
X154194594Y-115769725D01*
X154194593Y-115769724D01*
X154066368Y-115460162D01*
X154001000Y-115131535D01*
X154001000Y-114796465D01*
X154066368Y-114467838D01*
X154194593Y-114158276D01*
X154256363Y-114065830D01*
X154380747Y-113879676D01*
X154617676Y-113642747D01*
X154896275Y-113456594D01*
X154896276Y-113456593D01*
X155205838Y-113328368D01*
X155534465Y-113263000D01*
X155869535Y-113263000D01*
X156198162Y-113328368D01*
X156198162Y-113328368D01*
G37*
G36*
X79998162Y-113328368D02*
G01*
X80307724Y-113456593D01*
X80307725Y-113456594D01*
X80586324Y-113642747D01*
X80823253Y-113879676D01*
X80947637Y-114065830D01*
X81009407Y-114158276D01*
X81137632Y-114467838D01*
X81203000Y-114796465D01*
X81203000Y-115131535D01*
X81137632Y-115460162D01*
X81009407Y-115769724D01*
X81009406Y-115769725D01*
X80823253Y-116048324D01*
X80586324Y-116285253D01*
X80400170Y-116409637D01*
X80307724Y-116471407D01*
X79998162Y-116599632D01*
X79669535Y-116665000D01*
X79334465Y-116665000D01*
X79005838Y-116599632D01*
X78696276Y-116471407D01*
X78603830Y-116409637D01*
X78417676Y-116285253D01*
X78180747Y-116048324D01*
X77994594Y-115769725D01*
X77994593Y-115769724D01*
X77866368Y-115460162D01*
X77801000Y-115131535D01*
X77801000Y-114796465D01*
X77866368Y-114467838D01*
X77994593Y-114158276D01*
X78056363Y-114065830D01*
X78180747Y-113879676D01*
X78417676Y-113642747D01*
X78696275Y-113456594D01*
X78696276Y-113456593D01*
X79005838Y-113328368D01*
X79334465Y-113263000D01*
X79669535Y-113263000D01*
X79998162Y-113328368D01*
X79998162Y-113328368D01*
G37*
G36*
X135537559Y-111291860D02*
G01*
X135674232Y-111348472D01*
X135797235Y-111430660D01*
X135901840Y-111535265D01*
X135984028Y-111658268D01*
X136040640Y-111794941D01*
X136069500Y-111940033D01*
X136069500Y-112087967D01*
X136040640Y-112233059D01*
X135984028Y-112369732D01*
X135901840Y-112492735D01*
X135797235Y-112597340D01*
X135674232Y-112679528D01*
X135674231Y-112679529D01*
X135674230Y-112679529D01*
X135537559Y-112736140D01*
X135392468Y-112765000D01*
X135244532Y-112765000D01*
X135099441Y-112736140D01*
X134962770Y-112679529D01*
X134962769Y-112679529D01*
X134962768Y-112679528D01*
X134839765Y-112597340D01*
X134735160Y-112492735D01*
X134652972Y-112369732D01*
X134596360Y-112233059D01*
X134567500Y-112087967D01*
X134567500Y-111940033D01*
X134596360Y-111794941D01*
X134652972Y-111658268D01*
X134735160Y-111535265D01*
X134839765Y-111430660D01*
X134962768Y-111348472D01*
X135099441Y-111291860D01*
X135244532Y-111263000D01*
X135392468Y-111263000D01*
X135537559Y-111291860D01*
X135537559Y-111291860D01*
G37*
G36*
X130838559Y-110974360D02*
G01*
X130975232Y-111030972D01*
X131098235Y-111113160D01*
X131202840Y-111217765D01*
X131285028Y-111340768D01*
X131341640Y-111477441D01*
X131370500Y-111622533D01*
X131370500Y-111770467D01*
X131341640Y-111915559D01*
X131285028Y-112052232D01*
X131202840Y-112175235D01*
X131098235Y-112279840D01*
X130975232Y-112362028D01*
X130975231Y-112362029D01*
X130975230Y-112362029D01*
X130838559Y-112418640D01*
X130693468Y-112447500D01*
X130545532Y-112447500D01*
X130400441Y-112418640D01*
X130263770Y-112362029D01*
X130263769Y-112362029D01*
X130263768Y-112362028D01*
X130140765Y-112279840D01*
X130036160Y-112175235D01*
X129953972Y-112052232D01*
X129897360Y-111915559D01*
X129868500Y-111770467D01*
X129868500Y-111622533D01*
X129897360Y-111477441D01*
X129953972Y-111340768D01*
X130036160Y-111217765D01*
X130140765Y-111113160D01*
X130263768Y-111030972D01*
X130400441Y-110974360D01*
X130545532Y-110945500D01*
X130693468Y-110945500D01*
X130838559Y-110974360D01*
X130838559Y-110974360D01*
G37*
G36*
X74659142Y-108692242D02*
G01*
X74807101Y-108753529D01*
X74940255Y-108842499D01*
X75053501Y-108955745D01*
X75142471Y-109088899D01*
X75203758Y-109236858D01*
X75235000Y-109393925D01*
X75235000Y-109554075D01*
X75203758Y-109711142D01*
X75142471Y-109859101D01*
X75053501Y-109992255D01*
X74940255Y-110105501D01*
X74807101Y-110194471D01*
X74659142Y-110255758D01*
X74502075Y-110287000D01*
X74341925Y-110287000D01*
X74184858Y-110255758D01*
X74036899Y-110194471D01*
X73903745Y-110105501D01*
X73790499Y-109992255D01*
X73701529Y-109859101D01*
X73640242Y-109711142D01*
X73609000Y-109554075D01*
X73609000Y-109393925D01*
X73640242Y-109236858D01*
X73701529Y-109088899D01*
X73790499Y-108955745D01*
X73903745Y-108842499D01*
X74036899Y-108753529D01*
X74184858Y-108692242D01*
X74341925Y-108661000D01*
X74502075Y-108661000D01*
X74659142Y-108692242D01*
X74659142Y-108692242D01*
G37*
G36*
X137887059Y-106719860D02*
G01*
X138023732Y-106776472D01*
X138146735Y-106858660D01*
X138251340Y-106963265D01*
X138314785Y-107058217D01*
X138333529Y-107086270D01*
X138390140Y-107222941D01*
X138419000Y-107368032D01*
X138419000Y-107515968D01*
X138411745Y-107552441D01*
X138390140Y-107661059D01*
X138333528Y-107797732D01*
X138251340Y-107920735D01*
X138146735Y-108025340D01*
X138023732Y-108107528D01*
X138023731Y-108107529D01*
X138023730Y-108107529D01*
X137887059Y-108164140D01*
X137741968Y-108193000D01*
X137594032Y-108193000D01*
X137448941Y-108164140D01*
X137312270Y-108107529D01*
X137312269Y-108107529D01*
X137312268Y-108107528D01*
X137189265Y-108025340D01*
X137084660Y-107920735D01*
X137002472Y-107797732D01*
X136945860Y-107661059D01*
X136924255Y-107552441D01*
X136917000Y-107515968D01*
X136917000Y-107368032D01*
X136945860Y-107222941D01*
X137002471Y-107086270D01*
X137021215Y-107058217D01*
X137084660Y-106963265D01*
X137189265Y-106858660D01*
X137312268Y-106776472D01*
X137448941Y-106719860D01*
X137594032Y-106691000D01*
X137741968Y-106691000D01*
X137887059Y-106719860D01*
X137887059Y-106719860D01*
G37*
G36*
X74659142Y-106152242D02*
G01*
X74807101Y-106213529D01*
X74940255Y-106302499D01*
X75053501Y-106415745D01*
X75142471Y-106548899D01*
X75203758Y-106696858D01*
X75235000Y-106853925D01*
X75235000Y-107014075D01*
X75203758Y-107171142D01*
X75142471Y-107319101D01*
X75053501Y-107452255D01*
X74940255Y-107565501D01*
X74807101Y-107654471D01*
X74659142Y-107715758D01*
X74502075Y-107747000D01*
X74341925Y-107747000D01*
X74184858Y-107715758D01*
X74036899Y-107654471D01*
X73903745Y-107565501D01*
X73790499Y-107452255D01*
X73701529Y-107319101D01*
X73640242Y-107171142D01*
X73609000Y-107014075D01*
X73609000Y-106853925D01*
X73640242Y-106696858D01*
X73701529Y-106548899D01*
X73790499Y-106415745D01*
X73903745Y-106302499D01*
X74036899Y-106213529D01*
X74184858Y-106152242D01*
X74341925Y-106121000D01*
X74502075Y-106121000D01*
X74659142Y-106152242D01*
X74659142Y-106152242D01*
G37*
G36*
X172643410Y-105116025D02*
G01*
X172728426Y-105141814D01*
X172806775Y-105183693D01*
X172875449Y-105240051D01*
X172931807Y-105308725D01*
X172973686Y-105387074D01*
X172999475Y-105472090D01*
X173008182Y-105560500D01*
X172999475Y-105648910D01*
X172973686Y-105733926D01*
X172931807Y-105812275D01*
X172875449Y-105880949D01*
X172806775Y-105937307D01*
X172728426Y-105979186D01*
X172643410Y-106004975D01*
X172577158Y-106011500D01*
X172532842Y-106011500D01*
X172466588Y-106004975D01*
X172410477Y-105987954D01*
X172386444Y-105983174D01*
X172361940Y-105983174D01*
X172337907Y-105987955D01*
X172315268Y-105997332D01*
X172294894Y-106010946D01*
X172277567Y-106028273D01*
X172263953Y-106048648D01*
X172254576Y-106071287D01*
X172249796Y-106095320D01*
X172249796Y-106119824D01*
X172254577Y-106143857D01*
X172263954Y-106166496D01*
X172277568Y-106186870D01*
X172294895Y-106204197D01*
X172331369Y-106234131D01*
X172387479Y-106302501D01*
X172428345Y-106352296D01*
X172500398Y-106487098D01*
X172544772Y-106633379D01*
X172559754Y-106785500D01*
X172544772Y-106937621D01*
X172500398Y-107083902D01*
X172428345Y-107218704D01*
X172428343Y-107218707D01*
X172428342Y-107218708D01*
X172345952Y-107319100D01*
X172331369Y-107336869D01*
X172213204Y-107433845D01*
X172078402Y-107505898D01*
X171932121Y-107550272D01*
X171818118Y-107561500D01*
X171191882Y-107561500D01*
X171077879Y-107550272D01*
X170931598Y-107505898D01*
X170796796Y-107433845D01*
X170678631Y-107336869D01*
X170664048Y-107319100D01*
X170581658Y-107218708D01*
X170581657Y-107218707D01*
X170581655Y-107218704D01*
X170509602Y-107083902D01*
X170465228Y-106937621D01*
X170450246Y-106785500D01*
X170465228Y-106633379D01*
X170509602Y-106487098D01*
X170581655Y-106352296D01*
X170622523Y-106302499D01*
X170678631Y-106234131D01*
X170796792Y-106137158D01*
X170796793Y-106137157D01*
X170796796Y-106137155D01*
X170931598Y-106065102D01*
X171077879Y-106020728D01*
X171191882Y-106009500D01*
X171818118Y-106009500D01*
X171932121Y-106020728D01*
X172085790Y-106067343D01*
X172094249Y-106070846D01*
X172118283Y-106075624D01*
X172142787Y-106075622D01*
X172166820Y-106070839D01*
X172189458Y-106061459D01*
X172209831Y-106047844D01*
X172227156Y-106030515D01*
X172240768Y-106010139D01*
X172250143Y-105987500D01*
X172254921Y-105963466D01*
X172254919Y-105938962D01*
X172250136Y-105914929D01*
X172240756Y-105892291D01*
X172227149Y-105871928D01*
X172178193Y-105812275D01*
X172136314Y-105733926D01*
X172110525Y-105648910D01*
X172101818Y-105560500D01*
X172110525Y-105472090D01*
X172136314Y-105387074D01*
X172178193Y-105308725D01*
X172234551Y-105240051D01*
X172303225Y-105183693D01*
X172381574Y-105141814D01*
X172466590Y-105116025D01*
X172532842Y-105109500D01*
X172577158Y-105109500D01*
X172643410Y-105116025D01*
X172643410Y-105116025D01*
G37*
G36*
X175752715Y-106318558D02*
G01*
X175848753Y-106347691D01*
X175863935Y-106352296D01*
X175870722Y-106354355D01*
X175979468Y-106412481D01*
X176074790Y-106490710D01*
X176153019Y-106586032D01*
X176211145Y-106694778D01*
X176246942Y-106812785D01*
X176259028Y-106935500D01*
X176246942Y-107058215D01*
X176211145Y-107176222D01*
X176153019Y-107284968D01*
X176074790Y-107380290D01*
X175979468Y-107458519D01*
X175870722Y-107516645D01*
X175752715Y-107552442D01*
X175660746Y-107561500D01*
X174949254Y-107561500D01*
X174857285Y-107552442D01*
X174739278Y-107516645D01*
X174630532Y-107458519D01*
X174535210Y-107380290D01*
X174456981Y-107284968D01*
X174398855Y-107176222D01*
X174363058Y-107058215D01*
X174350972Y-106935500D01*
X174363058Y-106812785D01*
X174398855Y-106694778D01*
X174456981Y-106586032D01*
X174535210Y-106490710D01*
X174630532Y-106412481D01*
X174739278Y-106354355D01*
X174746066Y-106352296D01*
X174761247Y-106347691D01*
X174857285Y-106318558D01*
X174949254Y-106309500D01*
X175660746Y-106309500D01*
X175752715Y-106318558D01*
X175752715Y-106318558D01*
G37*
G36*
X125765000Y-106595000D02*
G01*
X123663000Y-106595000D01*
X123663000Y-102993000D01*
X125765000Y-102993000D01*
X125765000Y-106595000D01*
X125765000Y-106595000D01*
G37*
G36*
X128305000Y-106595000D02*
G01*
X126203000Y-106595000D01*
X126203000Y-102993000D01*
X128305000Y-102993000D01*
X128305000Y-106595000D01*
X128305000Y-106595000D01*
G37*
G36*
X120685000Y-106595000D02*
G01*
X118583000Y-106595000D01*
X118583000Y-102993000D01*
X120685000Y-102993000D01*
X120685000Y-106595000D01*
X120685000Y-106595000D01*
G37*
G36*
X123225000Y-106595000D02*
G01*
X121123000Y-106595000D01*
X121123000Y-102993000D01*
X123225000Y-102993000D01*
X123225000Y-106595000D01*
X123225000Y-106595000D01*
G37*
G36*
X107004395Y-104214546D02*
G01*
X107177466Y-104286234D01*
X107183566Y-104290310D01*
X107333227Y-104390310D01*
X107465690Y-104522773D01*
X107465691Y-104522775D01*
X107569766Y-104678534D01*
X107641454Y-104851605D01*
X107678000Y-105035333D01*
X107678000Y-105222667D01*
X107641454Y-105406395D01*
X107569766Y-105579466D01*
X107569765Y-105579467D01*
X107465690Y-105735227D01*
X107333227Y-105867690D01*
X107326884Y-105871928D01*
X107177466Y-105971766D01*
X107004395Y-106043454D01*
X106820667Y-106080000D01*
X106633333Y-106080000D01*
X106449605Y-106043454D01*
X106276534Y-105971766D01*
X106127116Y-105871928D01*
X106120773Y-105867690D01*
X105988310Y-105735227D01*
X105884235Y-105579467D01*
X105884234Y-105579466D01*
X105812546Y-105406395D01*
X105776000Y-105222667D01*
X105776000Y-105035333D01*
X105812546Y-104851605D01*
X105884234Y-104678534D01*
X105988309Y-104522775D01*
X105988310Y-104522773D01*
X106120773Y-104390310D01*
X106270434Y-104290310D01*
X106276534Y-104286234D01*
X106449605Y-104214546D01*
X106633333Y-104178000D01*
X106820667Y-104178000D01*
X107004395Y-104214546D01*
X107004395Y-104214546D01*
G37*
G36*
X97004395Y-104114546D02*
G01*
X97177466Y-104186234D01*
X97177467Y-104186235D01*
X97333227Y-104290310D01*
X97465690Y-104422773D01*
X97466020Y-104423267D01*
X97569766Y-104578534D01*
X97641454Y-104751605D01*
X97678000Y-104935333D01*
X97678000Y-105122667D01*
X97641454Y-105306395D01*
X97569766Y-105479466D01*
X97569765Y-105479467D01*
X97465690Y-105635227D01*
X97333227Y-105767690D01*
X97254818Y-105820081D01*
X97177466Y-105871766D01*
X97004395Y-105943454D01*
X96820667Y-105980000D01*
X96633333Y-105980000D01*
X96449605Y-105943454D01*
X96276534Y-105871766D01*
X96199182Y-105820081D01*
X96120773Y-105767690D01*
X95988310Y-105635227D01*
X95884235Y-105479467D01*
X95884234Y-105479466D01*
X95812546Y-105306395D01*
X95776000Y-105122667D01*
X95776000Y-104935333D01*
X95812546Y-104751605D01*
X95884234Y-104578534D01*
X95987980Y-104423267D01*
X95988310Y-104422773D01*
X96120773Y-104290310D01*
X96276533Y-104186235D01*
X96276534Y-104186234D01*
X96449605Y-104114546D01*
X96633333Y-104078000D01*
X96820667Y-104078000D01*
X97004395Y-104114546D01*
X97004395Y-104114546D01*
G37*
G36*
X136734708Y-104178000D02*
G01*
X136744059Y-104179860D01*
X136880732Y-104236472D01*
X137003735Y-104318660D01*
X137108340Y-104423265D01*
X137108341Y-104423267D01*
X137190529Y-104546270D01*
X137247140Y-104682941D01*
X137276000Y-104828032D01*
X137276000Y-104975968D01*
X137247140Y-105121059D01*
X137205053Y-105222667D01*
X137190528Y-105257732D01*
X137108340Y-105380735D01*
X137003735Y-105485340D01*
X136880732Y-105567528D01*
X136880731Y-105567529D01*
X136880730Y-105567529D01*
X136744059Y-105624140D01*
X136598968Y-105653000D01*
X136451032Y-105653000D01*
X136305941Y-105624140D01*
X136169270Y-105567529D01*
X136169269Y-105567529D01*
X136169268Y-105567528D01*
X136046265Y-105485340D01*
X135941660Y-105380735D01*
X135859472Y-105257732D01*
X135844948Y-105222667D01*
X135802860Y-105121059D01*
X135774000Y-104975968D01*
X135774000Y-104828032D01*
X135802860Y-104682941D01*
X135859471Y-104546270D01*
X135941659Y-104423267D01*
X135941660Y-104423265D01*
X136046265Y-104318660D01*
X136169268Y-104236472D01*
X136305941Y-104179860D01*
X136315292Y-104178000D01*
X136451032Y-104151000D01*
X136598968Y-104151000D01*
X136734708Y-104178000D01*
X136734708Y-104178000D01*
G37*
G36*
X74659142Y-103612242D02*
G01*
X74807101Y-103673529D01*
X74940255Y-103762499D01*
X75053501Y-103875745D01*
X75142471Y-104008899D01*
X75203758Y-104156858D01*
X75235000Y-104313925D01*
X75235000Y-104474075D01*
X75203758Y-104631142D01*
X75142471Y-104779101D01*
X75053501Y-104912255D01*
X74940255Y-105025501D01*
X74807101Y-105114471D01*
X74659142Y-105175758D01*
X74502075Y-105207000D01*
X74341925Y-105207000D01*
X74184858Y-105175758D01*
X74036899Y-105114471D01*
X73903745Y-105025501D01*
X73790499Y-104912255D01*
X73701529Y-104779101D01*
X73640242Y-104631142D01*
X73609000Y-104474075D01*
X73609000Y-104313925D01*
X73640242Y-104156858D01*
X73701529Y-104008899D01*
X73790499Y-103875745D01*
X73903745Y-103762499D01*
X74036899Y-103673529D01*
X74184858Y-103612242D01*
X74341925Y-103581000D01*
X74502075Y-103581000D01*
X74659142Y-103612242D01*
X74659142Y-103612242D01*
G37*
G36*
X136744059Y-101258860D02*
G01*
X136880732Y-101315472D01*
X137003735Y-101397660D01*
X137108340Y-101502265D01*
X137190528Y-101625268D01*
X137190529Y-101625270D01*
X137247140Y-101761941D01*
X137276000Y-101907032D01*
X137276000Y-102054968D01*
X137268804Y-102091143D01*
X137247140Y-102200059D01*
X137190528Y-102336732D01*
X137108340Y-102459735D01*
X137003735Y-102564340D01*
X136880732Y-102646528D01*
X136880731Y-102646529D01*
X136880730Y-102646529D01*
X136744059Y-102703140D01*
X136598968Y-102732000D01*
X136451032Y-102732000D01*
X136305941Y-102703140D01*
X136169270Y-102646529D01*
X136169269Y-102646529D01*
X136169268Y-102646528D01*
X136046265Y-102564340D01*
X135941660Y-102459735D01*
X135859472Y-102336732D01*
X135802860Y-102200059D01*
X135781196Y-102091143D01*
X135774000Y-102054968D01*
X135774000Y-101907032D01*
X135802860Y-101761941D01*
X135859471Y-101625270D01*
X135859472Y-101625268D01*
X135941660Y-101502265D01*
X136046265Y-101397660D01*
X136169268Y-101315472D01*
X136305941Y-101258860D01*
X136451032Y-101230000D01*
X136598968Y-101230000D01*
X136744059Y-101258860D01*
X136744059Y-101258860D01*
G37*
G36*
X74659142Y-101072242D02*
G01*
X74807101Y-101133529D01*
X74940255Y-101222499D01*
X75053501Y-101335745D01*
X75142471Y-101468899D01*
X75203758Y-101616858D01*
X75235000Y-101773925D01*
X75235000Y-101934075D01*
X75203758Y-102091142D01*
X75142471Y-102239101D01*
X75053501Y-102372255D01*
X74940255Y-102485501D01*
X74807101Y-102574471D01*
X74659142Y-102635758D01*
X74502075Y-102667000D01*
X74341925Y-102667000D01*
X74184858Y-102635758D01*
X74036899Y-102574471D01*
X73903745Y-102485501D01*
X73790499Y-102372255D01*
X73701529Y-102239101D01*
X73640242Y-102091142D01*
X73609000Y-101934075D01*
X73609000Y-101773925D01*
X73640242Y-101616858D01*
X73701529Y-101468899D01*
X73790499Y-101335745D01*
X73903745Y-101222499D01*
X74036899Y-101133529D01*
X74184858Y-101072242D01*
X74341925Y-101041000D01*
X74502075Y-101041000D01*
X74659142Y-101072242D01*
X74659142Y-101072242D01*
G37*
G36*
X99376000Y-102551000D02*
G01*
X97474000Y-102551000D01*
X97474000Y-100649000D01*
X99376000Y-100649000D01*
X99376000Y-102551000D01*
X99376000Y-102551000D01*
G37*
G36*
X91082395Y-100685546D02*
G01*
X91255466Y-100757234D01*
X91255467Y-100757235D01*
X91411227Y-100861310D01*
X91543690Y-100993773D01*
X91575246Y-101041000D01*
X91647766Y-101149534D01*
X91719454Y-101322605D01*
X91756000Y-101506333D01*
X91756000Y-101693667D01*
X91719454Y-101877395D01*
X91647766Y-102050466D01*
X91644758Y-102054968D01*
X91543690Y-102206227D01*
X91411227Y-102338690D01*
X91360993Y-102372255D01*
X91255466Y-102442766D01*
X91082395Y-102514454D01*
X90898667Y-102551000D01*
X90711333Y-102551000D01*
X90527605Y-102514454D01*
X90354534Y-102442766D01*
X90249007Y-102372255D01*
X90198773Y-102338690D01*
X90066310Y-102206227D01*
X89965242Y-102054968D01*
X89962234Y-102050466D01*
X89890546Y-101877395D01*
X89854000Y-101693667D01*
X89854000Y-101506333D01*
X89890546Y-101322605D01*
X89962234Y-101149534D01*
X90034754Y-101041000D01*
X90066310Y-100993773D01*
X90198773Y-100861310D01*
X90354533Y-100757235D01*
X90354534Y-100757234D01*
X90527605Y-100685546D01*
X90711333Y-100649000D01*
X90898667Y-100649000D01*
X91082395Y-100685546D01*
X91082395Y-100685546D01*
G37*
G36*
X94296000Y-102551000D02*
G01*
X92394000Y-102551000D01*
X92394000Y-100649000D01*
X94296000Y-100649000D01*
X94296000Y-102551000D01*
X94296000Y-102551000D01*
G37*
G36*
X106322395Y-100685546D02*
G01*
X106495466Y-100757234D01*
X106495467Y-100757235D01*
X106651227Y-100861310D01*
X106783690Y-100993773D01*
X106815246Y-101041000D01*
X106887766Y-101149534D01*
X106959454Y-101322605D01*
X106996000Y-101506333D01*
X106996000Y-101693667D01*
X106959454Y-101877395D01*
X106887766Y-102050466D01*
X106884758Y-102054968D01*
X106783690Y-102206227D01*
X106651227Y-102338690D01*
X106600993Y-102372255D01*
X106495466Y-102442766D01*
X106322395Y-102514454D01*
X106138667Y-102551000D01*
X105951333Y-102551000D01*
X105767605Y-102514454D01*
X105594534Y-102442766D01*
X105489007Y-102372255D01*
X105438773Y-102338690D01*
X105306310Y-102206227D01*
X105205242Y-102054968D01*
X105202234Y-102050466D01*
X105130546Y-101877395D01*
X105094000Y-101693667D01*
X105094000Y-101506333D01*
X105130546Y-101322605D01*
X105202234Y-101149534D01*
X105274754Y-101041000D01*
X105306310Y-100993773D01*
X105438773Y-100861310D01*
X105594533Y-100757235D01*
X105594534Y-100757234D01*
X105767605Y-100685546D01*
X105951333Y-100649000D01*
X106138667Y-100649000D01*
X106322395Y-100685546D01*
X106322395Y-100685546D01*
G37*
G36*
X109536000Y-102551000D02*
G01*
X107634000Y-102551000D01*
X107634000Y-100649000D01*
X109536000Y-100649000D01*
X109536000Y-102551000D01*
X109536000Y-102551000D01*
G37*
G36*
X96162395Y-100685546D02*
G01*
X96335466Y-100757234D01*
X96335467Y-100757235D01*
X96491227Y-100861310D01*
X96623690Y-100993773D01*
X96655246Y-101041000D01*
X96727766Y-101149534D01*
X96799454Y-101322605D01*
X96836000Y-101506333D01*
X96836000Y-101693667D01*
X96799454Y-101877395D01*
X96727766Y-102050466D01*
X96724758Y-102054968D01*
X96623690Y-102206227D01*
X96491227Y-102338690D01*
X96440993Y-102372255D01*
X96335466Y-102442766D01*
X96162395Y-102514454D01*
X95978667Y-102551000D01*
X95791333Y-102551000D01*
X95607605Y-102514454D01*
X95434534Y-102442766D01*
X95329007Y-102372255D01*
X95278773Y-102338690D01*
X95146310Y-102206227D01*
X95045242Y-102054968D01*
X95042234Y-102050466D01*
X94970546Y-101877395D01*
X94934000Y-101693667D01*
X94934000Y-101506333D01*
X94970546Y-101322605D01*
X95042234Y-101149534D01*
X95114754Y-101041000D01*
X95146310Y-100993773D01*
X95278773Y-100861310D01*
X95434533Y-100757235D01*
X95434534Y-100757234D01*
X95607605Y-100685546D01*
X95791333Y-100649000D01*
X95978667Y-100649000D01*
X96162395Y-100685546D01*
X96162395Y-100685546D01*
G37*
G36*
X101242395Y-100685546D02*
G01*
X101415466Y-100757234D01*
X101415467Y-100757235D01*
X101571227Y-100861310D01*
X101703690Y-100993773D01*
X101735246Y-101041000D01*
X101807766Y-101149534D01*
X101879454Y-101322605D01*
X101916000Y-101506333D01*
X101916000Y-101693667D01*
X101879454Y-101877395D01*
X101807766Y-102050466D01*
X101804758Y-102054968D01*
X101703690Y-102206227D01*
X101571227Y-102338690D01*
X101520993Y-102372255D01*
X101415466Y-102442766D01*
X101242395Y-102514454D01*
X101058667Y-102551000D01*
X100871333Y-102551000D01*
X100687605Y-102514454D01*
X100514534Y-102442766D01*
X100409007Y-102372255D01*
X100358773Y-102338690D01*
X100226310Y-102206227D01*
X100125242Y-102054968D01*
X100122234Y-102050466D01*
X100050546Y-101877395D01*
X100014000Y-101693667D01*
X100014000Y-101506333D01*
X100050546Y-101322605D01*
X100122234Y-101149534D01*
X100194754Y-101041000D01*
X100226310Y-100993773D01*
X100358773Y-100861310D01*
X100514533Y-100757235D01*
X100514534Y-100757234D01*
X100687605Y-100685546D01*
X100871333Y-100649000D01*
X101058667Y-100649000D01*
X101242395Y-100685546D01*
X101242395Y-100685546D01*
G37*
G36*
X104456000Y-102551000D02*
G01*
X102554000Y-102551000D01*
X102554000Y-100649000D01*
X104456000Y-100649000D01*
X104456000Y-102551000D01*
X104456000Y-102551000D01*
G37*
G36*
X171932121Y-98570728D02*
G01*
X172078402Y-98615102D01*
X172213204Y-98687155D01*
X172213207Y-98687157D01*
X172213208Y-98687158D01*
X172331369Y-98784131D01*
X172373963Y-98836031D01*
X172428345Y-98902296D01*
X172500398Y-99037098D01*
X172544772Y-99183379D01*
X172559754Y-99335500D01*
X172544772Y-99487621D01*
X172500398Y-99633902D01*
X172428345Y-99768704D01*
X172331367Y-99886871D01*
X172294895Y-99916803D01*
X172277568Y-99934130D01*
X172263954Y-99954504D01*
X172254577Y-99977143D01*
X172249796Y-100001176D01*
X172249796Y-100025680D01*
X172254576Y-100049713D01*
X172263953Y-100072352D01*
X172277567Y-100092727D01*
X172294894Y-100110054D01*
X172315268Y-100123668D01*
X172337907Y-100133045D01*
X172361940Y-100137826D01*
X172386444Y-100137826D01*
X172410477Y-100133046D01*
X172466588Y-100116025D01*
X172532842Y-100109500D01*
X172577158Y-100109500D01*
X172643410Y-100116025D01*
X172728426Y-100141814D01*
X172806775Y-100183693D01*
X172875449Y-100240051D01*
X172931807Y-100308725D01*
X172973686Y-100387074D01*
X172999475Y-100472090D01*
X173008182Y-100560500D01*
X172999475Y-100648910D01*
X172973686Y-100733926D01*
X172931807Y-100812275D01*
X172875449Y-100880949D01*
X172806775Y-100937307D01*
X172728426Y-100979186D01*
X172643410Y-101004975D01*
X172577158Y-101011500D01*
X172532842Y-101011500D01*
X172466590Y-101004975D01*
X172381574Y-100979186D01*
X172303225Y-100937307D01*
X172234551Y-100880949D01*
X172178193Y-100812275D01*
X172136314Y-100733926D01*
X172110525Y-100648910D01*
X172101818Y-100560500D01*
X172110525Y-100472090D01*
X172136314Y-100387074D01*
X172178193Y-100308725D01*
X172227149Y-100249072D01*
X172240762Y-100228698D01*
X172250140Y-100206059D01*
X172254920Y-100182026D01*
X172254920Y-100157522D01*
X172250139Y-100133488D01*
X172240762Y-100110850D01*
X172227148Y-100090475D01*
X172209821Y-100073148D01*
X172189447Y-100059535D01*
X172166808Y-100050157D01*
X172142775Y-100045377D01*
X172118271Y-100045377D01*
X172094237Y-100050158D01*
X172085784Y-100053659D01*
X171932121Y-100100272D01*
X171818118Y-100111500D01*
X171191882Y-100111500D01*
X171077879Y-100100272D01*
X170948329Y-100060973D01*
X170931601Y-100055899D01*
X170931598Y-100055898D01*
X170796796Y-99983845D01*
X170788630Y-99977143D01*
X170678631Y-99886869D01*
X170581658Y-99768708D01*
X170581657Y-99768707D01*
X170581655Y-99768704D01*
X170509602Y-99633902D01*
X170465228Y-99487621D01*
X170450246Y-99335500D01*
X170465228Y-99183379D01*
X170509602Y-99037098D01*
X170581655Y-98902296D01*
X170636038Y-98836031D01*
X170678631Y-98784131D01*
X170796792Y-98687158D01*
X170796793Y-98687157D01*
X170796796Y-98687155D01*
X170931598Y-98615102D01*
X171077879Y-98570728D01*
X171191882Y-98559500D01*
X171818118Y-98559500D01*
X171932121Y-98570728D01*
X171932121Y-98570728D01*
G37*
G36*
X74659142Y-98532242D02*
G01*
X74807101Y-98593529D01*
X74940255Y-98682499D01*
X75053501Y-98795745D01*
X75142471Y-98928899D01*
X75203758Y-99076858D01*
X75235000Y-99233925D01*
X75235000Y-99394075D01*
X75203758Y-99551142D01*
X75142471Y-99699101D01*
X75053501Y-99832255D01*
X74940255Y-99945501D01*
X74807101Y-100034471D01*
X74659142Y-100095758D01*
X74502075Y-100127000D01*
X74341925Y-100127000D01*
X74184858Y-100095758D01*
X74036899Y-100034471D01*
X73903745Y-99945501D01*
X73790499Y-99832255D01*
X73701529Y-99699101D01*
X73640242Y-99551142D01*
X73609000Y-99394075D01*
X73609000Y-99233925D01*
X73640242Y-99076858D01*
X73701529Y-98928899D01*
X73790499Y-98795745D01*
X73903745Y-98682499D01*
X74036899Y-98593529D01*
X74184858Y-98532242D01*
X74341925Y-98501000D01*
X74502075Y-98501000D01*
X74659142Y-98532242D01*
X74659142Y-98532242D01*
G37*
G36*
X175752715Y-98568558D02*
G01*
X175870722Y-98604355D01*
X175979468Y-98662481D01*
X176074790Y-98740710D01*
X176153019Y-98836032D01*
X176211145Y-98944778D01*
X176246942Y-99062785D01*
X176259028Y-99185500D01*
X176246942Y-99308215D01*
X176211145Y-99426222D01*
X176153019Y-99534968D01*
X176074790Y-99630290D01*
X175979468Y-99708519D01*
X175870722Y-99766645D01*
X175870719Y-99766646D01*
X175863921Y-99768708D01*
X175752715Y-99802442D01*
X175660746Y-99811500D01*
X174949254Y-99811500D01*
X174857285Y-99802442D01*
X174746079Y-99768708D01*
X174739281Y-99766646D01*
X174739278Y-99766645D01*
X174630532Y-99708519D01*
X174535210Y-99630290D01*
X174456981Y-99534968D01*
X174398855Y-99426222D01*
X174363058Y-99308215D01*
X174350972Y-99185500D01*
X174363058Y-99062785D01*
X174398855Y-98944778D01*
X174456981Y-98836032D01*
X174535210Y-98740710D01*
X174630532Y-98662481D01*
X174739278Y-98604355D01*
X174857285Y-98568558D01*
X174949254Y-98559500D01*
X175660746Y-98559500D01*
X175752715Y-98568558D01*
X175752715Y-98568558D01*
G37*
G36*
X74659142Y-95992242D02*
G01*
X74807101Y-96053529D01*
X74940255Y-96142499D01*
X75053501Y-96255745D01*
X75142471Y-96388899D01*
X75203758Y-96536858D01*
X75235000Y-96693925D01*
X75235000Y-96854075D01*
X75203758Y-97011142D01*
X75142471Y-97159101D01*
X75053501Y-97292255D01*
X74940255Y-97405501D01*
X74807101Y-97494471D01*
X74659142Y-97555758D01*
X74502075Y-97587000D01*
X74341925Y-97587000D01*
X74184858Y-97555758D01*
X74036899Y-97494471D01*
X73903745Y-97405501D01*
X73790499Y-97292255D01*
X73701529Y-97159101D01*
X73640242Y-97011142D01*
X73609000Y-96854075D01*
X73609000Y-96693925D01*
X73640242Y-96536858D01*
X73701529Y-96388899D01*
X73790499Y-96255745D01*
X73903745Y-96142499D01*
X74036899Y-96053529D01*
X74184858Y-95992242D01*
X74341925Y-95961000D01*
X74502075Y-95961000D01*
X74659142Y-95992242D01*
X74659142Y-95992242D01*
G37*
G36*
X155939142Y-95992242D02*
G01*
X156087101Y-96053529D01*
X156220255Y-96142499D01*
X156333501Y-96255745D01*
X156422471Y-96388899D01*
X156483758Y-96536858D01*
X156515000Y-96693925D01*
X156515000Y-96854075D01*
X156483758Y-97011142D01*
X156422471Y-97159101D01*
X156333501Y-97292255D01*
X156220255Y-97405501D01*
X156087101Y-97494471D01*
X155939142Y-97555758D01*
X155782075Y-97587000D01*
X155621925Y-97587000D01*
X155464858Y-97555758D01*
X155316899Y-97494471D01*
X155183745Y-97405501D01*
X155070499Y-97292255D01*
X154981529Y-97159101D01*
X154920242Y-97011142D01*
X154889000Y-96854075D01*
X154889000Y-96693925D01*
X154920242Y-96536858D01*
X154981529Y-96388899D01*
X155070499Y-96255745D01*
X155183745Y-96142499D01*
X155316899Y-96053529D01*
X155464858Y-95992242D01*
X155621925Y-95961000D01*
X155782075Y-95961000D01*
X155939142Y-95992242D01*
X155939142Y-95992242D01*
G37*
G36*
X155939142Y-93452242D02*
G01*
X156087101Y-93513529D01*
X156220255Y-93602499D01*
X156333501Y-93715745D01*
X156422471Y-93848899D01*
X156483758Y-93996858D01*
X156515000Y-94153925D01*
X156515000Y-94314075D01*
X156483758Y-94471142D01*
X156422471Y-94619101D01*
X156333501Y-94752255D01*
X156220255Y-94865501D01*
X156087101Y-94954471D01*
X155939142Y-95015758D01*
X155782075Y-95047000D01*
X155621925Y-95047000D01*
X155464858Y-95015758D01*
X155316899Y-94954471D01*
X155183745Y-94865501D01*
X155070499Y-94752255D01*
X154981529Y-94619101D01*
X154920242Y-94471142D01*
X154889000Y-94314075D01*
X154889000Y-94153925D01*
X154920242Y-93996858D01*
X154981529Y-93848899D01*
X155070499Y-93715745D01*
X155183745Y-93602499D01*
X155316899Y-93513529D01*
X155464858Y-93452242D01*
X155621925Y-93421000D01*
X155782075Y-93421000D01*
X155939142Y-93452242D01*
X155939142Y-93452242D01*
G37*
G36*
X74659142Y-93452242D02*
G01*
X74807101Y-93513529D01*
X74940255Y-93602499D01*
X75053501Y-93715745D01*
X75142471Y-93848899D01*
X75203758Y-93996858D01*
X75235000Y-94153925D01*
X75235000Y-94314075D01*
X75203758Y-94471142D01*
X75142471Y-94619101D01*
X75053501Y-94752255D01*
X74940255Y-94865501D01*
X74807101Y-94954471D01*
X74659142Y-95015758D01*
X74502075Y-95047000D01*
X74341925Y-95047000D01*
X74184858Y-95015758D01*
X74036899Y-94954471D01*
X73903745Y-94865501D01*
X73790499Y-94752255D01*
X73701529Y-94619101D01*
X73640242Y-94471142D01*
X73609000Y-94314075D01*
X73609000Y-94153925D01*
X73640242Y-93996858D01*
X73701529Y-93848899D01*
X73790499Y-93715745D01*
X73903745Y-93602499D01*
X74036899Y-93513529D01*
X74184858Y-93452242D01*
X74341925Y-93421000D01*
X74502075Y-93421000D01*
X74659142Y-93452242D01*
X74659142Y-93452242D01*
G37*
G36*
X173785823Y-93128313D02*
G01*
X173946242Y-93176976D01*
X174078906Y-93247886D01*
X174094078Y-93255996D01*
X174223659Y-93362341D01*
X174330004Y-93491922D01*
X174338114Y-93507094D01*
X174409024Y-93639758D01*
X174457687Y-93800177D01*
X174474117Y-93967000D01*
X174457687Y-94133823D01*
X174409024Y-94294242D01*
X174338114Y-94426906D01*
X174330004Y-94442078D01*
X174223659Y-94571659D01*
X174094078Y-94678004D01*
X174094076Y-94678005D01*
X173946242Y-94757024D01*
X173785823Y-94805687D01*
X173660804Y-94818000D01*
X172977196Y-94818000D01*
X172852177Y-94805687D01*
X172691758Y-94757024D01*
X172543924Y-94678005D01*
X172543922Y-94678004D01*
X172414341Y-94571659D01*
X172307996Y-94442078D01*
X172299886Y-94426906D01*
X172228976Y-94294242D01*
X172180313Y-94133823D01*
X172163883Y-93967000D01*
X172180313Y-93800177D01*
X172228976Y-93639758D01*
X172299886Y-93507094D01*
X172307996Y-93491922D01*
X172414341Y-93362341D01*
X172543922Y-93255996D01*
X172559094Y-93247886D01*
X172691758Y-93176976D01*
X172852177Y-93128313D01*
X172977196Y-93116000D01*
X173660804Y-93116000D01*
X173785823Y-93128313D01*
X173785823Y-93128313D01*
G37*
G36*
X114900059Y-93130860D02*
G01*
X115011393Y-93176976D01*
X115036732Y-93187472D01*
X115159735Y-93269660D01*
X115264340Y-93374265D01*
X115316443Y-93452243D01*
X115346529Y-93497270D01*
X115403140Y-93633941D01*
X115432000Y-93779032D01*
X115432000Y-93926968D01*
X115403140Y-94072059D01*
X115369230Y-94153926D01*
X115346528Y-94208732D01*
X115264340Y-94331735D01*
X115159735Y-94436340D01*
X115036732Y-94518528D01*
X115036731Y-94518529D01*
X115036730Y-94518529D01*
X114900059Y-94575140D01*
X114754968Y-94604000D01*
X114607032Y-94604000D01*
X114461941Y-94575140D01*
X114325270Y-94518529D01*
X114325269Y-94518529D01*
X114325268Y-94518528D01*
X114202265Y-94436340D01*
X114097660Y-94331735D01*
X114015472Y-94208732D01*
X113992771Y-94153926D01*
X113958860Y-94072059D01*
X113930000Y-93926968D01*
X113930000Y-93779032D01*
X113958860Y-93633941D01*
X114015471Y-93497270D01*
X114045557Y-93452243D01*
X114097660Y-93374265D01*
X114202265Y-93269660D01*
X114325268Y-93187472D01*
X114350608Y-93176976D01*
X114461941Y-93130860D01*
X114607032Y-93102000D01*
X114754968Y-93102000D01*
X114900059Y-93130860D01*
X114900059Y-93130860D01*
G37*
G36*
X105774443Y-90799519D02*
G01*
X105840627Y-90806037D01*
X106010466Y-90857557D01*
X106166991Y-90941222D01*
X106202729Y-90970552D01*
X106304186Y-91053814D01*
X106384774Y-91152012D01*
X106416778Y-91191009D01*
X106500443Y-91347534D01*
X106551963Y-91517373D01*
X106569359Y-91694000D01*
X106551963Y-91870627D01*
X106500443Y-92040466D01*
X106416778Y-92196991D01*
X106404251Y-92212255D01*
X106304186Y-92334186D01*
X106206357Y-92414471D01*
X106166991Y-92446778D01*
X106010466Y-92530443D01*
X105840627Y-92581963D01*
X105774443Y-92588481D01*
X105708260Y-92595000D01*
X105619740Y-92595000D01*
X105553557Y-92588481D01*
X105487373Y-92581963D01*
X105317534Y-92530443D01*
X105161009Y-92446778D01*
X105121643Y-92414471D01*
X105023814Y-92334186D01*
X104923749Y-92212255D01*
X104911222Y-92196991D01*
X104827557Y-92040466D01*
X104776037Y-91870627D01*
X104758641Y-91694000D01*
X104776037Y-91517373D01*
X104827557Y-91347534D01*
X104911222Y-91191009D01*
X104943226Y-91152012D01*
X105023814Y-91053814D01*
X105125271Y-90970552D01*
X105161009Y-90941222D01*
X105317534Y-90857557D01*
X105487373Y-90806037D01*
X105553557Y-90799519D01*
X105619740Y-90793000D01*
X105708260Y-90793000D01*
X105774443Y-90799519D01*
X105774443Y-90799519D01*
G37*
G36*
X98945000Y-92595000D02*
G01*
X97143000Y-92595000D01*
X97143000Y-90793000D01*
X98945000Y-90793000D01*
X98945000Y-92595000D01*
X98945000Y-92595000D01*
G37*
G36*
X103234443Y-90799519D02*
G01*
X103300627Y-90806037D01*
X103470466Y-90857557D01*
X103626991Y-90941222D01*
X103662729Y-90970552D01*
X103764186Y-91053814D01*
X103844774Y-91152012D01*
X103876778Y-91191009D01*
X103960443Y-91347534D01*
X104011963Y-91517373D01*
X104029359Y-91694000D01*
X104011963Y-91870627D01*
X103960443Y-92040466D01*
X103876778Y-92196991D01*
X103864251Y-92212255D01*
X103764186Y-92334186D01*
X103666357Y-92414471D01*
X103626991Y-92446778D01*
X103470466Y-92530443D01*
X103300627Y-92581963D01*
X103234443Y-92588481D01*
X103168260Y-92595000D01*
X103079740Y-92595000D01*
X103013557Y-92588481D01*
X102947373Y-92581963D01*
X102777534Y-92530443D01*
X102621009Y-92446778D01*
X102581643Y-92414471D01*
X102483814Y-92334186D01*
X102383749Y-92212255D01*
X102371222Y-92196991D01*
X102287557Y-92040466D01*
X102236037Y-91870627D01*
X102218641Y-91694000D01*
X102236037Y-91517373D01*
X102287557Y-91347534D01*
X102371222Y-91191009D01*
X102403226Y-91152012D01*
X102483814Y-91053814D01*
X102585271Y-90970552D01*
X102621009Y-90941222D01*
X102777534Y-90857557D01*
X102947373Y-90806037D01*
X103013557Y-90799519D01*
X103079740Y-90793000D01*
X103168260Y-90793000D01*
X103234443Y-90799519D01*
X103234443Y-90799519D01*
G37*
G36*
X100694443Y-90799519D02*
G01*
X100760627Y-90806037D01*
X100930466Y-90857557D01*
X101086991Y-90941222D01*
X101122729Y-90970552D01*
X101224186Y-91053814D01*
X101304774Y-91152012D01*
X101336778Y-91191009D01*
X101420443Y-91347534D01*
X101471963Y-91517373D01*
X101489359Y-91694000D01*
X101471963Y-91870627D01*
X101420443Y-92040466D01*
X101336778Y-92196991D01*
X101324251Y-92212255D01*
X101224186Y-92334186D01*
X101126357Y-92414471D01*
X101086991Y-92446778D01*
X100930466Y-92530443D01*
X100760627Y-92581963D01*
X100694443Y-92588481D01*
X100628260Y-92595000D01*
X100539740Y-92595000D01*
X100473557Y-92588481D01*
X100407373Y-92581963D01*
X100237534Y-92530443D01*
X100081009Y-92446778D01*
X100041643Y-92414471D01*
X99943814Y-92334186D01*
X99843749Y-92212255D01*
X99831222Y-92196991D01*
X99747557Y-92040466D01*
X99696037Y-91870627D01*
X99678641Y-91694000D01*
X99696037Y-91517373D01*
X99747557Y-91347534D01*
X99831222Y-91191009D01*
X99863226Y-91152012D01*
X99943814Y-91053814D01*
X100045271Y-90970552D01*
X100081009Y-90941222D01*
X100237534Y-90857557D01*
X100407373Y-90806037D01*
X100473557Y-90799519D01*
X100539740Y-90793000D01*
X100628260Y-90793000D01*
X100694443Y-90799519D01*
X100694443Y-90799519D01*
G37*
G36*
X74659142Y-90912242D02*
G01*
X74807101Y-90973529D01*
X74940255Y-91062499D01*
X75053501Y-91175745D01*
X75142471Y-91308899D01*
X75203758Y-91456858D01*
X75235000Y-91613925D01*
X75235000Y-91774075D01*
X75203758Y-91931142D01*
X75142471Y-92079101D01*
X75053501Y-92212255D01*
X74940255Y-92325501D01*
X74807101Y-92414471D01*
X74659142Y-92475758D01*
X74502075Y-92507000D01*
X74341925Y-92507000D01*
X74184858Y-92475758D01*
X74036899Y-92414471D01*
X73903745Y-92325501D01*
X73790499Y-92212255D01*
X73701529Y-92079101D01*
X73640242Y-91931142D01*
X73609000Y-91774075D01*
X73609000Y-91613925D01*
X73640242Y-91456858D01*
X73701529Y-91308899D01*
X73790499Y-91175745D01*
X73903745Y-91062499D01*
X74036899Y-90973529D01*
X74184858Y-90912242D01*
X74341925Y-90881000D01*
X74502075Y-90881000D01*
X74659142Y-90912242D01*
X74659142Y-90912242D01*
G37*
G36*
X155939142Y-90912242D02*
G01*
X156087101Y-90973529D01*
X156220255Y-91062499D01*
X156333501Y-91175745D01*
X156422471Y-91308899D01*
X156483758Y-91456858D01*
X156515000Y-91613925D01*
X156515000Y-91774075D01*
X156483758Y-91931142D01*
X156422471Y-92079101D01*
X156333501Y-92212255D01*
X156220255Y-92325501D01*
X156087101Y-92414471D01*
X155939142Y-92475758D01*
X155782075Y-92507000D01*
X155621925Y-92507000D01*
X155464858Y-92475758D01*
X155316899Y-92414471D01*
X155183745Y-92325501D01*
X155070499Y-92212255D01*
X154981529Y-92079101D01*
X154920242Y-91931142D01*
X154889000Y-91774075D01*
X154889000Y-91613925D01*
X154920242Y-91456858D01*
X154981529Y-91308899D01*
X155070499Y-91175745D01*
X155183745Y-91062499D01*
X155316899Y-90973529D01*
X155464858Y-90912242D01*
X155621925Y-90881000D01*
X155782075Y-90881000D01*
X155939142Y-90912242D01*
X155939142Y-90912242D01*
G37*
G36*
X169508890Y-90941017D02*
G01*
X169627364Y-90990091D01*
X169733988Y-91061335D01*
X169824665Y-91152012D01*
X169840522Y-91175743D01*
X169895910Y-91258638D01*
X169944983Y-91377110D01*
X169960846Y-91456858D01*
X169970000Y-91502882D01*
X169970000Y-91631118D01*
X169944983Y-91756890D01*
X169895909Y-91875364D01*
X169824665Y-91981988D01*
X169733988Y-92072665D01*
X169627364Y-92143909D01*
X169627363Y-92143910D01*
X169627362Y-92143910D01*
X169508890Y-92192983D01*
X169383119Y-92218000D01*
X169254881Y-92218000D01*
X169129110Y-92192983D01*
X169010638Y-92143910D01*
X169010637Y-92143910D01*
X169010636Y-92143909D01*
X168904012Y-92072665D01*
X168813335Y-91981988D01*
X168742091Y-91875364D01*
X168693017Y-91756890D01*
X168668000Y-91631118D01*
X168668000Y-91502882D01*
X168677155Y-91456858D01*
X168693017Y-91377110D01*
X168742090Y-91258638D01*
X168797479Y-91175743D01*
X168813335Y-91152012D01*
X168904012Y-91061335D01*
X169010636Y-90990091D01*
X169129110Y-90941017D01*
X169254881Y-90916000D01*
X169383119Y-90916000D01*
X169508890Y-90941017D01*
X169508890Y-90941017D01*
G37*
G36*
X175508890Y-90941017D02*
G01*
X175627364Y-90990091D01*
X175733988Y-91061335D01*
X175824665Y-91152012D01*
X175840522Y-91175743D01*
X175895910Y-91258638D01*
X175944983Y-91377110D01*
X175960846Y-91456858D01*
X175970000Y-91502882D01*
X175970000Y-91631118D01*
X175944983Y-91756890D01*
X175895909Y-91875364D01*
X175824665Y-91981988D01*
X175733988Y-92072665D01*
X175627364Y-92143909D01*
X175627363Y-92143910D01*
X175627362Y-92143910D01*
X175508890Y-92192983D01*
X175383119Y-92218000D01*
X175254881Y-92218000D01*
X175129110Y-92192983D01*
X175010638Y-92143910D01*
X175010637Y-92143910D01*
X175010636Y-92143909D01*
X174904012Y-92072665D01*
X174813335Y-91981988D01*
X174742091Y-91875364D01*
X174693017Y-91756890D01*
X174668000Y-91631118D01*
X174668000Y-91502882D01*
X174677155Y-91456858D01*
X174693017Y-91377110D01*
X174742090Y-91258638D01*
X174797479Y-91175743D01*
X174813335Y-91152012D01*
X174904012Y-91061335D01*
X175010636Y-90990091D01*
X175129110Y-90941017D01*
X175254881Y-90916000D01*
X175383119Y-90916000D01*
X175508890Y-90941017D01*
X175508890Y-90941017D01*
G37*
G36*
X168785823Y-88328313D02*
G01*
X168946242Y-88376976D01*
X169052045Y-88433529D01*
X169094078Y-88455996D01*
X169223659Y-88562341D01*
X169330004Y-88691922D01*
X169330005Y-88691924D01*
X169409024Y-88839758D01*
X169457687Y-89000177D01*
X169474117Y-89167000D01*
X169457687Y-89333823D01*
X169409024Y-89494242D01*
X169385046Y-89539101D01*
X169330004Y-89642078D01*
X169223659Y-89771659D01*
X169094078Y-89878004D01*
X169094076Y-89878005D01*
X168946242Y-89957024D01*
X168785823Y-90005687D01*
X168660804Y-90018000D01*
X167977196Y-90018000D01*
X167852177Y-90005687D01*
X167691758Y-89957024D01*
X167543924Y-89878005D01*
X167543922Y-89878004D01*
X167414341Y-89771659D01*
X167307996Y-89642078D01*
X167252954Y-89539101D01*
X167228976Y-89494242D01*
X167180313Y-89333823D01*
X167163883Y-89167000D01*
X167180313Y-89000177D01*
X167228976Y-88839758D01*
X167307995Y-88691924D01*
X167307996Y-88691922D01*
X167414341Y-88562341D01*
X167543922Y-88455996D01*
X167585955Y-88433529D01*
X167691758Y-88376976D01*
X167852177Y-88328313D01*
X167977196Y-88316000D01*
X168660804Y-88316000D01*
X168785823Y-88328313D01*
X168785823Y-88328313D01*
G37*
G36*
X175785823Y-88328313D02*
G01*
X175946242Y-88376976D01*
X176052045Y-88433529D01*
X176094078Y-88455996D01*
X176223659Y-88562341D01*
X176330004Y-88691922D01*
X176330005Y-88691924D01*
X176409024Y-88839758D01*
X176457687Y-89000177D01*
X176474117Y-89167000D01*
X176457687Y-89333823D01*
X176409024Y-89494242D01*
X176385046Y-89539101D01*
X176330004Y-89642078D01*
X176223659Y-89771659D01*
X176094078Y-89878004D01*
X176094076Y-89878005D01*
X175946242Y-89957024D01*
X175785823Y-90005687D01*
X175660804Y-90018000D01*
X174977196Y-90018000D01*
X174852177Y-90005687D01*
X174691758Y-89957024D01*
X174543924Y-89878005D01*
X174543922Y-89878004D01*
X174414341Y-89771659D01*
X174307996Y-89642078D01*
X174252954Y-89539101D01*
X174228976Y-89494242D01*
X174180313Y-89333823D01*
X174163883Y-89167000D01*
X174180313Y-89000177D01*
X174228976Y-88839758D01*
X174307995Y-88691924D01*
X174307996Y-88691922D01*
X174414341Y-88562341D01*
X174543922Y-88455996D01*
X174585955Y-88433529D01*
X174691758Y-88376976D01*
X174852177Y-88328313D01*
X174977196Y-88316000D01*
X175660804Y-88316000D01*
X175785823Y-88328313D01*
X175785823Y-88328313D01*
G37*
G36*
X74659142Y-88372242D02*
G01*
X74807101Y-88433529D01*
X74940255Y-88522499D01*
X75053501Y-88635745D01*
X75142471Y-88768899D01*
X75203758Y-88916858D01*
X75235000Y-89073925D01*
X75235000Y-89234075D01*
X75203758Y-89391142D01*
X75142471Y-89539101D01*
X75053501Y-89672255D01*
X74940255Y-89785501D01*
X74807101Y-89874471D01*
X74659142Y-89935758D01*
X74502075Y-89967000D01*
X74341925Y-89967000D01*
X74184858Y-89935758D01*
X74036899Y-89874471D01*
X73903745Y-89785501D01*
X73790499Y-89672255D01*
X73701529Y-89539101D01*
X73640242Y-89391142D01*
X73609000Y-89234075D01*
X73609000Y-89073925D01*
X73640242Y-88916858D01*
X73701529Y-88768899D01*
X73790499Y-88635745D01*
X73903745Y-88522499D01*
X74036899Y-88433529D01*
X74184858Y-88372242D01*
X74341925Y-88341000D01*
X74502075Y-88341000D01*
X74659142Y-88372242D01*
X74659142Y-88372242D01*
G37*
G36*
X156237993Y-88348203D02*
G01*
X156302411Y-88367744D01*
X156361781Y-88399478D01*
X156413817Y-88442183D01*
X156456522Y-88494219D01*
X156488256Y-88553589D01*
X156507797Y-88618007D01*
X156515000Y-88691140D01*
X156515000Y-89616860D01*
X156507797Y-89689993D01*
X156488256Y-89754411D01*
X156456522Y-89813781D01*
X156413817Y-89865817D01*
X156361781Y-89908522D01*
X156302411Y-89940256D01*
X156237993Y-89959797D01*
X156164860Y-89967000D01*
X155239140Y-89967000D01*
X155166007Y-89959797D01*
X155101589Y-89940256D01*
X155042219Y-89908522D01*
X154990183Y-89865817D01*
X154947478Y-89813781D01*
X154915744Y-89754411D01*
X154896203Y-89689993D01*
X154889000Y-89616860D01*
X154889000Y-88691140D01*
X154896203Y-88618007D01*
X154915744Y-88553589D01*
X154947478Y-88494219D01*
X154990183Y-88442183D01*
X155042219Y-88399478D01*
X155101589Y-88367744D01*
X155166007Y-88348203D01*
X155239140Y-88341000D01*
X156164860Y-88341000D01*
X156237993Y-88348203D01*
X156237993Y-88348203D01*
G37*
G36*
X74659142Y-85832242D02*
G01*
X74807101Y-85893529D01*
X74940255Y-85982499D01*
X75053501Y-86095745D01*
X75142471Y-86228899D01*
X75203758Y-86376858D01*
X75235000Y-86533925D01*
X75235000Y-86694075D01*
X75203758Y-86851142D01*
X75142471Y-86999101D01*
X75053501Y-87132255D01*
X74940255Y-87245501D01*
X74807101Y-87334471D01*
X74659142Y-87395758D01*
X74502075Y-87427000D01*
X74341925Y-87427000D01*
X74184858Y-87395758D01*
X74036899Y-87334471D01*
X73903745Y-87245501D01*
X73790499Y-87132255D01*
X73701529Y-86999101D01*
X73640242Y-86851142D01*
X73609000Y-86694075D01*
X73609000Y-86533925D01*
X73640242Y-86376858D01*
X73701529Y-86228899D01*
X73790499Y-86095745D01*
X73903745Y-85982499D01*
X74036899Y-85893529D01*
X74184858Y-85832242D01*
X74341925Y-85801000D01*
X74502075Y-85801000D01*
X74659142Y-85832242D01*
X74659142Y-85832242D01*
G37*
G36*
X128409000Y-85229000D02*
G01*
X126607000Y-85229000D01*
X126607000Y-83427000D01*
X128409000Y-83427000D01*
X128409000Y-85229000D01*
X128409000Y-85229000D01*
G37*
G36*
X132698443Y-83433519D02*
G01*
X132764627Y-83440037D01*
X132934466Y-83491557D01*
X133090991Y-83575222D01*
X133126729Y-83604552D01*
X133228186Y-83687814D01*
X133311448Y-83789271D01*
X133340778Y-83825009D01*
X133424443Y-83981534D01*
X133475963Y-84151373D01*
X133493359Y-84328000D01*
X133475963Y-84504627D01*
X133424443Y-84674466D01*
X133340778Y-84830991D01*
X133320453Y-84855757D01*
X133228186Y-84968186D01*
X133126729Y-85051448D01*
X133090991Y-85080778D01*
X132934466Y-85164443D01*
X132764627Y-85215963D01*
X132698443Y-85222481D01*
X132632260Y-85229000D01*
X132543740Y-85229000D01*
X132477557Y-85222481D01*
X132411373Y-85215963D01*
X132241534Y-85164443D01*
X132085009Y-85080778D01*
X132049271Y-85051448D01*
X131947814Y-84968186D01*
X131855547Y-84855757D01*
X131835222Y-84830991D01*
X131751557Y-84674466D01*
X131700037Y-84504627D01*
X131682641Y-84328000D01*
X131700037Y-84151373D01*
X131751557Y-83981534D01*
X131835222Y-83825009D01*
X131864552Y-83789271D01*
X131947814Y-83687814D01*
X132049271Y-83604552D01*
X132085009Y-83575222D01*
X132241534Y-83491557D01*
X132411373Y-83440037D01*
X132477557Y-83433519D01*
X132543740Y-83427000D01*
X132632260Y-83427000D01*
X132698443Y-83433519D01*
X132698443Y-83433519D01*
G37*
G36*
X130158443Y-83433519D02*
G01*
X130224627Y-83440037D01*
X130394466Y-83491557D01*
X130550991Y-83575222D01*
X130586729Y-83604552D01*
X130688186Y-83687814D01*
X130771448Y-83789271D01*
X130800778Y-83825009D01*
X130884443Y-83981534D01*
X130935963Y-84151373D01*
X130953359Y-84328000D01*
X130935963Y-84504627D01*
X130884443Y-84674466D01*
X130800778Y-84830991D01*
X130780453Y-84855757D01*
X130688186Y-84968186D01*
X130586729Y-85051448D01*
X130550991Y-85080778D01*
X130394466Y-85164443D01*
X130224627Y-85215963D01*
X130158443Y-85222481D01*
X130092260Y-85229000D01*
X130003740Y-85229000D01*
X129937557Y-85222481D01*
X129871373Y-85215963D01*
X129701534Y-85164443D01*
X129545009Y-85080778D01*
X129509271Y-85051448D01*
X129407814Y-84968186D01*
X129315547Y-84855757D01*
X129295222Y-84830991D01*
X129211557Y-84674466D01*
X129160037Y-84504627D01*
X129142641Y-84328000D01*
X129160037Y-84151373D01*
X129211557Y-83981534D01*
X129295222Y-83825009D01*
X129324552Y-83789271D01*
X129407814Y-83687814D01*
X129509271Y-83604552D01*
X129545009Y-83575222D01*
X129701534Y-83491557D01*
X129871373Y-83440037D01*
X129937557Y-83433519D01*
X130003740Y-83427000D01*
X130092260Y-83427000D01*
X130158443Y-83433519D01*
X130158443Y-83433519D01*
G37*
G36*
X74659142Y-83292242D02*
G01*
X74807101Y-83353529D01*
X74940255Y-83442499D01*
X75053501Y-83555745D01*
X75142471Y-83688899D01*
X75203758Y-83836858D01*
X75235000Y-83993925D01*
X75235000Y-84154075D01*
X75203758Y-84311142D01*
X75142471Y-84459101D01*
X75053501Y-84592255D01*
X74940255Y-84705501D01*
X74807101Y-84794471D01*
X74659142Y-84855758D01*
X74502075Y-84887000D01*
X74341925Y-84887000D01*
X74184858Y-84855758D01*
X74036899Y-84794471D01*
X73903745Y-84705501D01*
X73790499Y-84592255D01*
X73701529Y-84459101D01*
X73640242Y-84311142D01*
X73609000Y-84154075D01*
X73609000Y-83993925D01*
X73640242Y-83836858D01*
X73701529Y-83688899D01*
X73790499Y-83555745D01*
X73903745Y-83442499D01*
X74036899Y-83353529D01*
X74184858Y-83292242D01*
X74341925Y-83261000D01*
X74502075Y-83261000D01*
X74659142Y-83292242D01*
X74659142Y-83292242D01*
G37*
G36*
X74659142Y-80752242D02*
G01*
X74807101Y-80813529D01*
X74940255Y-80902499D01*
X75053501Y-81015745D01*
X75142471Y-81148899D01*
X75203758Y-81296858D01*
X75235000Y-81453925D01*
X75235000Y-81614075D01*
X75203758Y-81771142D01*
X75142471Y-81919101D01*
X75053501Y-82052255D01*
X74940255Y-82165501D01*
X74807101Y-82254471D01*
X74659142Y-82315758D01*
X74502075Y-82347000D01*
X74341925Y-82347000D01*
X74184858Y-82315758D01*
X74036899Y-82254471D01*
X73903745Y-82165501D01*
X73790499Y-82052255D01*
X73701529Y-81919101D01*
X73640242Y-81771142D01*
X73609000Y-81614075D01*
X73609000Y-81453925D01*
X73640242Y-81296858D01*
X73701529Y-81148899D01*
X73790499Y-81015745D01*
X73903745Y-80902499D01*
X74036899Y-80813529D01*
X74184858Y-80752242D01*
X74341925Y-80721000D01*
X74502075Y-80721000D01*
X74659142Y-80752242D01*
X74659142Y-80752242D01*
G37*
G36*
X171571256Y-78401298D02*
G01*
X171677579Y-78422447D01*
X171978042Y-78546903D01*
X172248451Y-78727585D01*
X172478415Y-78957549D01*
X172659097Y-79227958D01*
X172776858Y-79512257D01*
X172783553Y-79528422D01*
X172832752Y-79775758D01*
X172847000Y-79847391D01*
X172847000Y-80172609D01*
X172783553Y-80491579D01*
X172659097Y-80792042D01*
X172478415Y-81062451D01*
X172248451Y-81292415D01*
X171978042Y-81473097D01*
X171677579Y-81597553D01*
X171594522Y-81614074D01*
X171358611Y-81661000D01*
X171033389Y-81661000D01*
X170797478Y-81614074D01*
X170714421Y-81597553D01*
X170413958Y-81473097D01*
X170143549Y-81292415D01*
X169913585Y-81062451D01*
X169732903Y-80792042D01*
X169608447Y-80491579D01*
X169545000Y-80172609D01*
X169545000Y-79847391D01*
X169559249Y-79775758D01*
X169608447Y-79528422D01*
X169615143Y-79512257D01*
X169732903Y-79227958D01*
X169913585Y-78957549D01*
X170143549Y-78727585D01*
X170413958Y-78546903D01*
X170714421Y-78422447D01*
X170820744Y-78401298D01*
X171033389Y-78359000D01*
X171358611Y-78359000D01*
X171571256Y-78401298D01*
X171571256Y-78401298D01*
G37*
G36*
X74659142Y-78212242D02*
G01*
X74807101Y-78273529D01*
X74940255Y-78362499D01*
X75053501Y-78475745D01*
X75142471Y-78608899D01*
X75203758Y-78756858D01*
X75235000Y-78913925D01*
X75235000Y-79074075D01*
X75203758Y-79231142D01*
X75142471Y-79379101D01*
X75053501Y-79512255D01*
X74940255Y-79625501D01*
X74807101Y-79714471D01*
X74659142Y-79775758D01*
X74502075Y-79807000D01*
X74341925Y-79807000D01*
X74184858Y-79775758D01*
X74036899Y-79714471D01*
X73903745Y-79625501D01*
X73790499Y-79512255D01*
X73701529Y-79379101D01*
X73640242Y-79231142D01*
X73609000Y-79074075D01*
X73609000Y-78913925D01*
X73640242Y-78756858D01*
X73701529Y-78608899D01*
X73790499Y-78475745D01*
X73903745Y-78362499D01*
X74036899Y-78273529D01*
X74184858Y-78212242D01*
X74341925Y-78181000D01*
X74502075Y-78181000D01*
X74659142Y-78212242D01*
X74659142Y-78212242D01*
G37*
G36*
X165647000Y-79541000D02*
G01*
X164045000Y-79541000D01*
X164045000Y-77939000D01*
X165647000Y-77939000D01*
X165647000Y-79541000D01*
X165647000Y-79541000D01*
G37*
G36*
X162539642Y-76699781D02*
G01*
X162685414Y-76760162D01*
X162685416Y-76760163D01*
X162816608Y-76847822D01*
X162928178Y-76959392D01*
X163015837Y-77090584D01*
X163015838Y-77090586D01*
X163076219Y-77236358D01*
X163107000Y-77391107D01*
X163107000Y-77548893D01*
X163076219Y-77703642D01*
X163015838Y-77849414D01*
X163015837Y-77849416D01*
X162928178Y-77980608D01*
X162816608Y-78092178D01*
X162685416Y-78179837D01*
X162685415Y-78179838D01*
X162685414Y-78179838D01*
X162539642Y-78240219D01*
X162384893Y-78271000D01*
X162227107Y-78271000D01*
X162072358Y-78240219D01*
X161926586Y-78179838D01*
X161926585Y-78179838D01*
X161926584Y-78179837D01*
X161795392Y-78092178D01*
X161683822Y-77980608D01*
X161596163Y-77849416D01*
X161596162Y-77849414D01*
X161535781Y-77703642D01*
X161505000Y-77548893D01*
X161505000Y-77391107D01*
X161535781Y-77236358D01*
X161596162Y-77090586D01*
X161596163Y-77090584D01*
X161683822Y-76959392D01*
X161795392Y-76847822D01*
X161926584Y-76760163D01*
X161926586Y-76760162D01*
X162072358Y-76699781D01*
X162227107Y-76669000D01*
X162384893Y-76669000D01*
X162539642Y-76699781D01*
X162539642Y-76699781D01*
G37*
G36*
X74957993Y-75648203D02*
G01*
X75022411Y-75667744D01*
X75081781Y-75699478D01*
X75133817Y-75742183D01*
X75176522Y-75794219D01*
X75208256Y-75853589D01*
X75227797Y-75918007D01*
X75235000Y-75991140D01*
X75235000Y-76916860D01*
X75227797Y-76989993D01*
X75208256Y-77054411D01*
X75176522Y-77113781D01*
X75133817Y-77165817D01*
X75081781Y-77208522D01*
X75022411Y-77240256D01*
X74957993Y-77259797D01*
X74884860Y-77267000D01*
X73959140Y-77267000D01*
X73886007Y-77259797D01*
X73821589Y-77240256D01*
X73762219Y-77208522D01*
X73710183Y-77165817D01*
X73667478Y-77113781D01*
X73635744Y-77054411D01*
X73616203Y-76989993D01*
X73609000Y-76916860D01*
X73609000Y-75991140D01*
X73616203Y-75918007D01*
X73635744Y-75853589D01*
X73667478Y-75794219D01*
X73710183Y-75742183D01*
X73762219Y-75699478D01*
X73821589Y-75667744D01*
X73886007Y-75648203D01*
X73959140Y-75641000D01*
X74884860Y-75641000D01*
X74957993Y-75648203D01*
X74957993Y-75648203D01*
G37*
G36*
X165079642Y-75429781D02*
G01*
X165225414Y-75490162D01*
X165225416Y-75490163D01*
X165356608Y-75577822D01*
X165468178Y-75689392D01*
X165555837Y-75820584D01*
X165555838Y-75820586D01*
X165616219Y-75966358D01*
X165647000Y-76121107D01*
X165647000Y-76278893D01*
X165616219Y-76433642D01*
X165555838Y-76579414D01*
X165555837Y-76579416D01*
X165468178Y-76710608D01*
X165356608Y-76822178D01*
X165225416Y-76909837D01*
X165225415Y-76909838D01*
X165225414Y-76909838D01*
X165079642Y-76970219D01*
X164924893Y-77001000D01*
X164767107Y-77001000D01*
X164612358Y-76970219D01*
X164466586Y-76909838D01*
X164466585Y-76909838D01*
X164466584Y-76909837D01*
X164335392Y-76822178D01*
X164223822Y-76710608D01*
X164136163Y-76579416D01*
X164136162Y-76579414D01*
X164075781Y-76433642D01*
X164045000Y-76278893D01*
X164045000Y-76121107D01*
X164075781Y-75966358D01*
X164136162Y-75820586D01*
X164136163Y-75820584D01*
X164223822Y-75689392D01*
X164335392Y-75577822D01*
X164466584Y-75490163D01*
X164466586Y-75490162D01*
X164612358Y-75429781D01*
X164767107Y-75399000D01*
X164924893Y-75399000D01*
X165079642Y-75429781D01*
X165079642Y-75429781D01*
G37*
G36*
X87624228Y-74365703D02*
G01*
X87779100Y-74429853D01*
X87918481Y-74522985D01*
X88037015Y-74641519D01*
X88130147Y-74780900D01*
X88194297Y-74935772D01*
X88227000Y-75100184D01*
X88227000Y-75267816D01*
X88194297Y-75432228D01*
X88130147Y-75587100D01*
X88037015Y-75726481D01*
X87918481Y-75845015D01*
X87779100Y-75938147D01*
X87624228Y-76002297D01*
X87459816Y-76035000D01*
X87292184Y-76035000D01*
X87127772Y-76002297D01*
X86972900Y-75938147D01*
X86833519Y-75845015D01*
X86714985Y-75726481D01*
X86621853Y-75587100D01*
X86557703Y-75432228D01*
X86525000Y-75267816D01*
X86525000Y-75100184D01*
X86557703Y-74935772D01*
X86621853Y-74780900D01*
X86714985Y-74641519D01*
X86833519Y-74522985D01*
X86972900Y-74429853D01*
X87127772Y-74365703D01*
X87292184Y-74333000D01*
X87459816Y-74333000D01*
X87624228Y-74365703D01*
X87624228Y-74365703D01*
G37*
G36*
X84224228Y-74365703D02*
G01*
X84379100Y-74429853D01*
X84518481Y-74522985D01*
X84637015Y-74641519D01*
X84730147Y-74780900D01*
X84794297Y-74935772D01*
X84827000Y-75100184D01*
X84827000Y-75267816D01*
X84794297Y-75432228D01*
X84730147Y-75587100D01*
X84637015Y-75726481D01*
X84518481Y-75845015D01*
X84379100Y-75938147D01*
X84224228Y-76002297D01*
X84059816Y-76035000D01*
X83892184Y-76035000D01*
X83727772Y-76002297D01*
X83572900Y-75938147D01*
X83433519Y-75845015D01*
X83314985Y-75726481D01*
X83221853Y-75587100D01*
X83157703Y-75432228D01*
X83125000Y-75267816D01*
X83125000Y-75100184D01*
X83157703Y-74935772D01*
X83221853Y-74780900D01*
X83314985Y-74641519D01*
X83433519Y-74522985D01*
X83572900Y-74429853D01*
X83727772Y-74365703D01*
X83892184Y-74333000D01*
X84059816Y-74333000D01*
X84224228Y-74365703D01*
X84224228Y-74365703D01*
G37*
G36*
X162539642Y-74159781D02*
G01*
X162685414Y-74220162D01*
X162685416Y-74220163D01*
X162816608Y-74307822D01*
X162928178Y-74419392D01*
X162935412Y-74430219D01*
X163015838Y-74550586D01*
X163076219Y-74696358D01*
X163107000Y-74851107D01*
X163107000Y-75008893D01*
X163076219Y-75163642D01*
X163015838Y-75309414D01*
X163015837Y-75309416D01*
X162928178Y-75440608D01*
X162816608Y-75552178D01*
X162685416Y-75639837D01*
X162685415Y-75639838D01*
X162685414Y-75639838D01*
X162539642Y-75700219D01*
X162384893Y-75731000D01*
X162227107Y-75731000D01*
X162072358Y-75700219D01*
X161926586Y-75639838D01*
X161926585Y-75639838D01*
X161926584Y-75639837D01*
X161795392Y-75552178D01*
X161683822Y-75440608D01*
X161596163Y-75309416D01*
X161596162Y-75309414D01*
X161535781Y-75163642D01*
X161505000Y-75008893D01*
X161505000Y-74851107D01*
X161535781Y-74696358D01*
X161596162Y-74550586D01*
X161676588Y-74430219D01*
X161683822Y-74419392D01*
X161795392Y-74307822D01*
X161926584Y-74220163D01*
X161926586Y-74220162D01*
X162072358Y-74159781D01*
X162227107Y-74129000D01*
X162384893Y-74129000D01*
X162539642Y-74159781D01*
X162539642Y-74159781D01*
G37*
G36*
X165079642Y-72889781D02*
G01*
X165225414Y-72950162D01*
X165225416Y-72950163D01*
X165356608Y-73037822D01*
X165468178Y-73149392D01*
X165555837Y-73280584D01*
X165555838Y-73280586D01*
X165616219Y-73426358D01*
X165647000Y-73581107D01*
X165647000Y-73738893D01*
X165616219Y-73893642D01*
X165571213Y-74002295D01*
X165555837Y-74039416D01*
X165468178Y-74170608D01*
X165356608Y-74282178D01*
X165225416Y-74369837D01*
X165225415Y-74369838D01*
X165225414Y-74369838D01*
X165079642Y-74430219D01*
X164924893Y-74461000D01*
X164767107Y-74461000D01*
X164612358Y-74430219D01*
X164466586Y-74369838D01*
X164466585Y-74369838D01*
X164466584Y-74369837D01*
X164335392Y-74282178D01*
X164223822Y-74170608D01*
X164136163Y-74039416D01*
X164120787Y-74002295D01*
X164075781Y-73893642D01*
X164045000Y-73738893D01*
X164045000Y-73581107D01*
X164075781Y-73426358D01*
X164136162Y-73280586D01*
X164136163Y-73280584D01*
X164223822Y-73149392D01*
X164335392Y-73037822D01*
X164466584Y-72950163D01*
X164466586Y-72950162D01*
X164612358Y-72889781D01*
X164767107Y-72859000D01*
X164924893Y-72859000D01*
X165079642Y-72889781D01*
X165079642Y-72889781D01*
G37*
G36*
X87624228Y-72365703D02*
G01*
X87779100Y-72429853D01*
X87918481Y-72522985D01*
X88037015Y-72641519D01*
X88130147Y-72780900D01*
X88194297Y-72935772D01*
X88227000Y-73100184D01*
X88227000Y-73267816D01*
X88194297Y-73432228D01*
X88130147Y-73587100D01*
X88037015Y-73726481D01*
X87918481Y-73845015D01*
X87779100Y-73938147D01*
X87624228Y-74002297D01*
X87459816Y-74035000D01*
X87292184Y-74035000D01*
X87127772Y-74002297D01*
X86972900Y-73938147D01*
X86833519Y-73845015D01*
X86714985Y-73726481D01*
X86621853Y-73587100D01*
X86557703Y-73432228D01*
X86525000Y-73267816D01*
X86525000Y-73100184D01*
X86557703Y-72935772D01*
X86621853Y-72780900D01*
X86714985Y-72641519D01*
X86833519Y-72522985D01*
X86972900Y-72429853D01*
X87127772Y-72365703D01*
X87292184Y-72333000D01*
X87459816Y-72333000D01*
X87624228Y-72365703D01*
X87624228Y-72365703D01*
G37*
G36*
X84224228Y-72365703D02*
G01*
X84379100Y-72429853D01*
X84518481Y-72522985D01*
X84637015Y-72641519D01*
X84730147Y-72780900D01*
X84794297Y-72935772D01*
X84827000Y-73100184D01*
X84827000Y-73267816D01*
X84794297Y-73432228D01*
X84730147Y-73587100D01*
X84637015Y-73726481D01*
X84518481Y-73845015D01*
X84379100Y-73938147D01*
X84224228Y-74002297D01*
X84059816Y-74035000D01*
X83892184Y-74035000D01*
X83727772Y-74002297D01*
X83572900Y-73938147D01*
X83433519Y-73845015D01*
X83314985Y-73726481D01*
X83221853Y-73587100D01*
X83157703Y-73432228D01*
X83125000Y-73267816D01*
X83125000Y-73100184D01*
X83157703Y-72935772D01*
X83221853Y-72780900D01*
X83314985Y-72641519D01*
X83433519Y-72522985D01*
X83572900Y-72429853D01*
X83727772Y-72365703D01*
X83892184Y-72333000D01*
X84059816Y-72333000D01*
X84224228Y-72365703D01*
X84224228Y-72365703D01*
G37*
G36*
X104456000Y-73341000D02*
G01*
X102554000Y-73341000D01*
X102554000Y-71439000D01*
X104456000Y-71439000D01*
X104456000Y-73341000D01*
X104456000Y-73341000D01*
G37*
G36*
X101242395Y-71475546D02*
G01*
X101415466Y-71547234D01*
X101477973Y-71589000D01*
X101571227Y-71651310D01*
X101703690Y-71783773D01*
X101703691Y-71783775D01*
X101807766Y-71939534D01*
X101879454Y-72112605D01*
X101916000Y-72296333D01*
X101916000Y-72483667D01*
X101879454Y-72667395D01*
X101807766Y-72840466D01*
X101807765Y-72840467D01*
X101703690Y-72996227D01*
X101571227Y-73128690D01*
X101524042Y-73160218D01*
X101415466Y-73232766D01*
X101242395Y-73304454D01*
X101058667Y-73341000D01*
X100871333Y-73341000D01*
X100687605Y-73304454D01*
X100514534Y-73232766D01*
X100405958Y-73160218D01*
X100358773Y-73128690D01*
X100226310Y-72996227D01*
X100122235Y-72840467D01*
X100122234Y-72840466D01*
X100050546Y-72667395D01*
X100014000Y-72483667D01*
X100014000Y-72296333D01*
X100050546Y-72112605D01*
X100122234Y-71939534D01*
X100226309Y-71783775D01*
X100226310Y-71783773D01*
X100358773Y-71651310D01*
X100452027Y-71589000D01*
X100514534Y-71547234D01*
X100687605Y-71475546D01*
X100871333Y-71439000D01*
X101058667Y-71439000D01*
X101242395Y-71475546D01*
X101242395Y-71475546D01*
G37*
G36*
X109599500Y-73341000D02*
G01*
X107697500Y-73341000D01*
X107697500Y-71439000D01*
X109599500Y-71439000D01*
X109599500Y-73341000D01*
X109599500Y-73341000D01*
G37*
G36*
X99376000Y-73341000D02*
G01*
X97474000Y-73341000D01*
X97474000Y-71439000D01*
X99376000Y-71439000D01*
X99376000Y-73341000D01*
X99376000Y-73341000D01*
G37*
G36*
X94296000Y-73341000D02*
G01*
X92394000Y-73341000D01*
X92394000Y-71439000D01*
X94296000Y-71439000D01*
X94296000Y-73341000D01*
X94296000Y-73341000D01*
G37*
G36*
X96162395Y-71475546D02*
G01*
X96335466Y-71547234D01*
X96397973Y-71589000D01*
X96491227Y-71651310D01*
X96623690Y-71783773D01*
X96623691Y-71783775D01*
X96727766Y-71939534D01*
X96799454Y-72112605D01*
X96836000Y-72296333D01*
X96836000Y-72483667D01*
X96799454Y-72667395D01*
X96727766Y-72840466D01*
X96727765Y-72840467D01*
X96623690Y-72996227D01*
X96491227Y-73128690D01*
X96444042Y-73160218D01*
X96335466Y-73232766D01*
X96162395Y-73304454D01*
X95978667Y-73341000D01*
X95791333Y-73341000D01*
X95607605Y-73304454D01*
X95434534Y-73232766D01*
X95325958Y-73160218D01*
X95278773Y-73128690D01*
X95146310Y-72996227D01*
X95042235Y-72840467D01*
X95042234Y-72840466D01*
X94970546Y-72667395D01*
X94934000Y-72483667D01*
X94934000Y-72296333D01*
X94970546Y-72112605D01*
X95042234Y-71939534D01*
X95146309Y-71783775D01*
X95146310Y-71783773D01*
X95278773Y-71651310D01*
X95372027Y-71589000D01*
X95434534Y-71547234D01*
X95607605Y-71475546D01*
X95791333Y-71439000D01*
X95978667Y-71439000D01*
X96162395Y-71475546D01*
X96162395Y-71475546D01*
G37*
G36*
X106385895Y-71475546D02*
G01*
X106558966Y-71547234D01*
X106621473Y-71589000D01*
X106714727Y-71651310D01*
X106847190Y-71783773D01*
X106847191Y-71783775D01*
X106951266Y-71939534D01*
X107022954Y-72112605D01*
X107059500Y-72296333D01*
X107059500Y-72483667D01*
X107022954Y-72667395D01*
X106951266Y-72840466D01*
X106951265Y-72840467D01*
X106847190Y-72996227D01*
X106714727Y-73128690D01*
X106667542Y-73160218D01*
X106558966Y-73232766D01*
X106385895Y-73304454D01*
X106202167Y-73341000D01*
X106014833Y-73341000D01*
X105831105Y-73304454D01*
X105658034Y-73232766D01*
X105549458Y-73160218D01*
X105502273Y-73128690D01*
X105369810Y-72996227D01*
X105265735Y-72840467D01*
X105265734Y-72840466D01*
X105194046Y-72667395D01*
X105157500Y-72483667D01*
X105157500Y-72296333D01*
X105194046Y-72112605D01*
X105265734Y-71939534D01*
X105369809Y-71783775D01*
X105369810Y-71783773D01*
X105502273Y-71651310D01*
X105595527Y-71589000D01*
X105658034Y-71547234D01*
X105831105Y-71475546D01*
X106014833Y-71439000D01*
X106202167Y-71439000D01*
X106385895Y-71475546D01*
X106385895Y-71475546D01*
G37*
G36*
X91082395Y-71475546D02*
G01*
X91255466Y-71547234D01*
X91317973Y-71589000D01*
X91411227Y-71651310D01*
X91543690Y-71783773D01*
X91543691Y-71783775D01*
X91647766Y-71939534D01*
X91719454Y-72112605D01*
X91756000Y-72296333D01*
X91756000Y-72483667D01*
X91719454Y-72667395D01*
X91647766Y-72840466D01*
X91647765Y-72840467D01*
X91543690Y-72996227D01*
X91411227Y-73128690D01*
X91364042Y-73160218D01*
X91255466Y-73232766D01*
X91082395Y-73304454D01*
X90898667Y-73341000D01*
X90711333Y-73341000D01*
X90527605Y-73304454D01*
X90354534Y-73232766D01*
X90245958Y-73160218D01*
X90198773Y-73128690D01*
X90066310Y-72996227D01*
X89962235Y-72840467D01*
X89962234Y-72840466D01*
X89890546Y-72667395D01*
X89854000Y-72483667D01*
X89854000Y-72296333D01*
X89890546Y-72112605D01*
X89962234Y-71939534D01*
X90066309Y-71783775D01*
X90066310Y-71783773D01*
X90198773Y-71651310D01*
X90292027Y-71589000D01*
X90354534Y-71547234D01*
X90527605Y-71475546D01*
X90711333Y-71439000D01*
X90898667Y-71439000D01*
X91082395Y-71475546D01*
X91082395Y-71475546D01*
G37*
G36*
X162539642Y-71619781D02*
G01*
X162615759Y-71651310D01*
X162685416Y-71680163D01*
X162816608Y-71767822D01*
X162928178Y-71879392D01*
X163015837Y-72010584D01*
X163015838Y-72010586D01*
X163076219Y-72156358D01*
X163107000Y-72311107D01*
X163107000Y-72468893D01*
X163076219Y-72623642D01*
X163058095Y-72667396D01*
X163015837Y-72769416D01*
X162928178Y-72900608D01*
X162816608Y-73012178D01*
X162685416Y-73099837D01*
X162685415Y-73099838D01*
X162685414Y-73099838D01*
X162539642Y-73160219D01*
X162384893Y-73191000D01*
X162227107Y-73191000D01*
X162072358Y-73160219D01*
X161926586Y-73099838D01*
X161926585Y-73099838D01*
X161926584Y-73099837D01*
X161795392Y-73012178D01*
X161683822Y-72900608D01*
X161596163Y-72769416D01*
X161553905Y-72667396D01*
X161535781Y-72623642D01*
X161505000Y-72468893D01*
X161505000Y-72311107D01*
X161535781Y-72156358D01*
X161596162Y-72010586D01*
X161596163Y-72010584D01*
X161683822Y-71879392D01*
X161795392Y-71767822D01*
X161926584Y-71680163D01*
X161996241Y-71651310D01*
X162072358Y-71619781D01*
X162227107Y-71589000D01*
X162384893Y-71589000D01*
X162539642Y-71619781D01*
X162539642Y-71619781D01*
G37*
G36*
X79998162Y-69328368D02*
G01*
X80307724Y-69456593D01*
X80307725Y-69456594D01*
X80586324Y-69642747D01*
X80823253Y-69879676D01*
X80947637Y-70065830D01*
X81009407Y-70158276D01*
X81137632Y-70467838D01*
X81203000Y-70796465D01*
X81203000Y-71131535D01*
X81137632Y-71460162D01*
X81009407Y-71769724D01*
X81000018Y-71783775D01*
X80823253Y-72048324D01*
X80586324Y-72285253D01*
X80514865Y-72333000D01*
X80307724Y-72471407D01*
X79998162Y-72599632D01*
X79669535Y-72665000D01*
X79334465Y-72665000D01*
X79005838Y-72599632D01*
X78696276Y-72471407D01*
X78489135Y-72333000D01*
X78417676Y-72285253D01*
X78180747Y-72048324D01*
X78003982Y-71783775D01*
X77994593Y-71769724D01*
X77866368Y-71460162D01*
X77801000Y-71131535D01*
X77801000Y-70796465D01*
X77866368Y-70467838D01*
X77994593Y-70158276D01*
X78056363Y-70065830D01*
X78180747Y-69879676D01*
X78417676Y-69642747D01*
X78696275Y-69456594D01*
X78696276Y-69456593D01*
X79005838Y-69328368D01*
X79334465Y-69263000D01*
X79669535Y-69263000D01*
X79998162Y-69328368D01*
X79998162Y-69328368D01*
G37*
G36*
X156198162Y-69328368D02*
G01*
X156507724Y-69456593D01*
X156507725Y-69456594D01*
X156786324Y-69642747D01*
X157023253Y-69879676D01*
X157147637Y-70065830D01*
X157209407Y-70158276D01*
X157337632Y-70467838D01*
X157403000Y-70796465D01*
X157403000Y-71131535D01*
X157337632Y-71460162D01*
X157209407Y-71769724D01*
X157200018Y-71783775D01*
X157023253Y-72048324D01*
X156786324Y-72285253D01*
X156714865Y-72333000D01*
X156507724Y-72471407D01*
X156198162Y-72599632D01*
X155869535Y-72665000D01*
X155534465Y-72665000D01*
X155205838Y-72599632D01*
X154896276Y-72471407D01*
X154689135Y-72333000D01*
X154617676Y-72285253D01*
X154380747Y-72048324D01*
X154203982Y-71783775D01*
X154194593Y-71769724D01*
X154066368Y-71460162D01*
X154001000Y-71131535D01*
X154001000Y-70796465D01*
X154066368Y-70467838D01*
X154194593Y-70158276D01*
X154256363Y-70065830D01*
X154380747Y-69879676D01*
X154617676Y-69642747D01*
X154896275Y-69456594D01*
X154896276Y-69456593D01*
X155205838Y-69328368D01*
X155534465Y-69263000D01*
X155869535Y-69263000D01*
X156198162Y-69328368D01*
X156198162Y-69328368D01*
G37*
G36*
X120685000Y-72655000D02*
G01*
X118583000Y-72655000D01*
X118583000Y-67953000D01*
X120685000Y-67953000D01*
X120685000Y-72655000D01*
X120685000Y-72655000D01*
G37*
G36*
X128305000Y-72655000D02*
G01*
X126203000Y-72655000D01*
X126203000Y-67953000D01*
X128305000Y-67953000D01*
X128305000Y-72655000D01*
X128305000Y-72655000D01*
G37*
G36*
X125765000Y-72655000D02*
G01*
X123663000Y-72655000D01*
X123663000Y-67953000D01*
X125765000Y-67953000D01*
X125765000Y-72655000D01*
X125765000Y-72655000D01*
G37*
G36*
X123225000Y-72655000D02*
G01*
X121123000Y-72655000D01*
X121123000Y-67953000D01*
X123225000Y-67953000D01*
X123225000Y-72655000D01*
X123225000Y-72655000D01*
G37*
G36*
X84224228Y-70365703D02*
G01*
X84379100Y-70429853D01*
X84518481Y-70522985D01*
X84637015Y-70641519D01*
X84730147Y-70780900D01*
X84794297Y-70935772D01*
X84827000Y-71100184D01*
X84827000Y-71267816D01*
X84794297Y-71432228D01*
X84730147Y-71587100D01*
X84637015Y-71726481D01*
X84518481Y-71845015D01*
X84379100Y-71938147D01*
X84224228Y-72002297D01*
X84059816Y-72035000D01*
X83892184Y-72035000D01*
X83727772Y-72002297D01*
X83572900Y-71938147D01*
X83433519Y-71845015D01*
X83314985Y-71726481D01*
X83221853Y-71587100D01*
X83157703Y-71432228D01*
X83125000Y-71267816D01*
X83125000Y-71100184D01*
X83157703Y-70935772D01*
X83221853Y-70780900D01*
X83314985Y-70641519D01*
X83433519Y-70522985D01*
X83572900Y-70429853D01*
X83727772Y-70365703D01*
X83892184Y-70333000D01*
X84059816Y-70333000D01*
X84224228Y-70365703D01*
X84224228Y-70365703D01*
G37*
G36*
X87624228Y-70365703D02*
G01*
X87779100Y-70429853D01*
X87918481Y-70522985D01*
X88037015Y-70641519D01*
X88130147Y-70780900D01*
X88194297Y-70935772D01*
X88227000Y-71100184D01*
X88227000Y-71267816D01*
X88194297Y-71432228D01*
X88130147Y-71587100D01*
X88037015Y-71726481D01*
X87918481Y-71845015D01*
X87779100Y-71938147D01*
X87624228Y-72002297D01*
X87459816Y-72035000D01*
X87292184Y-72035000D01*
X87127772Y-72002297D01*
X86972900Y-71938147D01*
X86833519Y-71845015D01*
X86714985Y-71726481D01*
X86621853Y-71587100D01*
X86557703Y-71432228D01*
X86525000Y-71267816D01*
X86525000Y-71100184D01*
X86557703Y-70935772D01*
X86621853Y-70780900D01*
X86714985Y-70641519D01*
X86833519Y-70522985D01*
X86972900Y-70429853D01*
X87127772Y-70365703D01*
X87292184Y-70333000D01*
X87459816Y-70333000D01*
X87624228Y-70365703D01*
X87624228Y-70365703D01*
G37*
G36*
X165079642Y-70349781D02*
G01*
X165225414Y-70410162D01*
X165225416Y-70410163D01*
X165356608Y-70497822D01*
X165468178Y-70609392D01*
X165495979Y-70651000D01*
X165555838Y-70740586D01*
X165616219Y-70886358D01*
X165647000Y-71041107D01*
X165647000Y-71198893D01*
X165616219Y-71353642D01*
X165572096Y-71460163D01*
X165555837Y-71499416D01*
X165468178Y-71630608D01*
X165356608Y-71742178D01*
X165225416Y-71829837D01*
X165225415Y-71829838D01*
X165225414Y-71829838D01*
X165079642Y-71890219D01*
X164924893Y-71921000D01*
X164767107Y-71921000D01*
X164612358Y-71890219D01*
X164466586Y-71829838D01*
X164466585Y-71829838D01*
X164466584Y-71829837D01*
X164335392Y-71742178D01*
X164223822Y-71630608D01*
X164136163Y-71499416D01*
X164119904Y-71460163D01*
X164075781Y-71353642D01*
X164045000Y-71198893D01*
X164045000Y-71041107D01*
X164075781Y-70886358D01*
X164136162Y-70740586D01*
X164196021Y-70651000D01*
X164223822Y-70609392D01*
X164335392Y-70497822D01*
X164466584Y-70410163D01*
X164466586Y-70410162D01*
X164612358Y-70349781D01*
X164767107Y-70319000D01*
X164924893Y-70319000D01*
X165079642Y-70349781D01*
X165079642Y-70349781D01*
G37*
G36*
X162539642Y-69079781D02*
G01*
X162685414Y-69140162D01*
X162685416Y-69140163D01*
X162816608Y-69227822D01*
X162928178Y-69339392D01*
X163006489Y-69456594D01*
X163015838Y-69470586D01*
X163076219Y-69616358D01*
X163107000Y-69771107D01*
X163107000Y-69928893D01*
X163076219Y-70083642D01*
X163015838Y-70229414D01*
X163015837Y-70229416D01*
X162928178Y-70360608D01*
X162816608Y-70472178D01*
X162685416Y-70559837D01*
X162685415Y-70559838D01*
X162685414Y-70559838D01*
X162539642Y-70620219D01*
X162384893Y-70651000D01*
X162227107Y-70651000D01*
X162072358Y-70620219D01*
X161926586Y-70559838D01*
X161926585Y-70559838D01*
X161926584Y-70559837D01*
X161795392Y-70472178D01*
X161683822Y-70360608D01*
X161596163Y-70229416D01*
X161596162Y-70229414D01*
X161535781Y-70083642D01*
X161505000Y-69928893D01*
X161505000Y-69771107D01*
X161535781Y-69616358D01*
X161596162Y-69470586D01*
X161605511Y-69456594D01*
X161683822Y-69339392D01*
X161795392Y-69227822D01*
X161926584Y-69140163D01*
X161926586Y-69140162D01*
X162072358Y-69079781D01*
X162227107Y-69049000D01*
X162384893Y-69049000D01*
X162539642Y-69079781D01*
X162539642Y-69079781D01*
G37*
G36*
X171571256Y-66971298D02*
G01*
X171677579Y-66992447D01*
X171978042Y-67116903D01*
X172248451Y-67297585D01*
X172478415Y-67527549D01*
X172659097Y-67797958D01*
X172753897Y-68026824D01*
X172783553Y-68098422D01*
X172847000Y-68417389D01*
X172847000Y-68742611D01*
X172839383Y-68780903D01*
X172783553Y-69061579D01*
X172659097Y-69362042D01*
X172478415Y-69632451D01*
X172248451Y-69862415D01*
X171978042Y-70043097D01*
X171677579Y-70167553D01*
X171571256Y-70188702D01*
X171358611Y-70231000D01*
X171033389Y-70231000D01*
X170820744Y-70188702D01*
X170714421Y-70167553D01*
X170413958Y-70043097D01*
X170143549Y-69862415D01*
X169913585Y-69632451D01*
X169732903Y-69362042D01*
X169608447Y-69061579D01*
X169552617Y-68780903D01*
X169545000Y-68742611D01*
X169545000Y-68417389D01*
X169608447Y-68098422D01*
X169638104Y-68026824D01*
X169732903Y-67797958D01*
X169913585Y-67527549D01*
X170143549Y-67297585D01*
X170413958Y-67116903D01*
X170714421Y-66992447D01*
X170820744Y-66971298D01*
X171033389Y-66929000D01*
X171358611Y-66929000D01*
X171571256Y-66971298D01*
X171571256Y-66971298D01*
G37*
G36*
X84224228Y-68365703D02*
G01*
X84379100Y-68429853D01*
X84518481Y-68522985D01*
X84637015Y-68641519D01*
X84730147Y-68780900D01*
X84794297Y-68935772D01*
X84827000Y-69100184D01*
X84827000Y-69267816D01*
X84794297Y-69432228D01*
X84730147Y-69587100D01*
X84637015Y-69726481D01*
X84518481Y-69845015D01*
X84379100Y-69938147D01*
X84224228Y-70002297D01*
X84059816Y-70035000D01*
X83892184Y-70035000D01*
X83727772Y-70002297D01*
X83572900Y-69938147D01*
X83433519Y-69845015D01*
X83314985Y-69726481D01*
X83221853Y-69587100D01*
X83157703Y-69432228D01*
X83125000Y-69267816D01*
X83125000Y-69100184D01*
X83157703Y-68935772D01*
X83221853Y-68780900D01*
X83314985Y-68641519D01*
X83433519Y-68522985D01*
X83572900Y-68429853D01*
X83727772Y-68365703D01*
X83892184Y-68333000D01*
X84059816Y-68333000D01*
X84224228Y-68365703D01*
X84224228Y-68365703D01*
G37*
G36*
X87624228Y-68365703D02*
G01*
X87779100Y-68429853D01*
X87918481Y-68522985D01*
X88037015Y-68641519D01*
X88130147Y-68780900D01*
X88194297Y-68935772D01*
X88227000Y-69100184D01*
X88227000Y-69267816D01*
X88194297Y-69432228D01*
X88130147Y-69587100D01*
X88037015Y-69726481D01*
X87918481Y-69845015D01*
X87779100Y-69938147D01*
X87624228Y-70002297D01*
X87459816Y-70035000D01*
X87292184Y-70035000D01*
X87127772Y-70002297D01*
X86972900Y-69938147D01*
X86833519Y-69845015D01*
X86714985Y-69726481D01*
X86621853Y-69587100D01*
X86557703Y-69432228D01*
X86525000Y-69267816D01*
X86525000Y-69100184D01*
X86557703Y-68935772D01*
X86621853Y-68780900D01*
X86714985Y-68641519D01*
X86833519Y-68522985D01*
X86972900Y-68429853D01*
X87127772Y-68365703D01*
X87292184Y-68333000D01*
X87459816Y-68333000D01*
X87624228Y-68365703D01*
X87624228Y-68365703D01*
G37*
G36*
X84224228Y-66365703D02*
G01*
X84379100Y-66429853D01*
X84518481Y-66522985D01*
X84637015Y-66641519D01*
X84730147Y-66780900D01*
X84794297Y-66935772D01*
X84827000Y-67100184D01*
X84827000Y-67267816D01*
X84794297Y-67432228D01*
X84730147Y-67587100D01*
X84637015Y-67726481D01*
X84518481Y-67845015D01*
X84379100Y-67938147D01*
X84224228Y-68002297D01*
X84059816Y-68035000D01*
X83892184Y-68035000D01*
X83727772Y-68002297D01*
X83572900Y-67938147D01*
X83433519Y-67845015D01*
X83314985Y-67726481D01*
X83221853Y-67587100D01*
X83157703Y-67432228D01*
X83125000Y-67267816D01*
X83125000Y-67100184D01*
X83157703Y-66935772D01*
X83221853Y-66780900D01*
X83314985Y-66641519D01*
X83433519Y-66522985D01*
X83572900Y-66429853D01*
X83727772Y-66365703D01*
X83892184Y-66333000D01*
X84059816Y-66333000D01*
X84224228Y-66365703D01*
X84224228Y-66365703D01*
G37*
G36*
X87934698Y-66340568D02*
G01*
X88002685Y-66361192D01*
X88065335Y-66394679D01*
X88120252Y-66439748D01*
X88165321Y-66494665D01*
X88198808Y-66557315D01*
X88219432Y-66625302D01*
X88227000Y-66702140D01*
X88227000Y-67665860D01*
X88219432Y-67742698D01*
X88198808Y-67810685D01*
X88165321Y-67873335D01*
X88120252Y-67928252D01*
X88065335Y-67973321D01*
X88002685Y-68006808D01*
X87934698Y-68027432D01*
X87857860Y-68035000D01*
X86894140Y-68035000D01*
X86817302Y-68027432D01*
X86749315Y-68006808D01*
X86686665Y-67973321D01*
X86631748Y-67928252D01*
X86586679Y-67873335D01*
X86553192Y-67810685D01*
X86532568Y-67742698D01*
X86525000Y-67665860D01*
X86525000Y-66702140D01*
X86532568Y-66625302D01*
X86553192Y-66557315D01*
X86586679Y-66494665D01*
X86631748Y-66439748D01*
X86686665Y-66394679D01*
X86749315Y-66361192D01*
X86817302Y-66340568D01*
X86894140Y-66333000D01*
X87857860Y-66333000D01*
X87934698Y-66340568D01*
X87934698Y-66340568D01*
G37*
G36*
X149541000Y-65721000D02*
G01*
X147639000Y-65721000D01*
X147639000Y-63819000D01*
X149541000Y-63819000D01*
X149541000Y-65721000D01*
X149541000Y-65721000D01*
G37*
G36*
X118387395Y-63855546D02*
G01*
X118560466Y-63927234D01*
X118560467Y-63927235D01*
X118716227Y-64031310D01*
X118848690Y-64163773D01*
X118848691Y-64163775D01*
X118952766Y-64319534D01*
X119024454Y-64492605D01*
X119061000Y-64676333D01*
X119061000Y-64863667D01*
X119024454Y-65047395D01*
X118952766Y-65220466D01*
X118952765Y-65220467D01*
X118848690Y-65376227D01*
X118716227Y-65508690D01*
X118637818Y-65561081D01*
X118560466Y-65612766D01*
X118387395Y-65684454D01*
X118203667Y-65721000D01*
X118016333Y-65721000D01*
X117832605Y-65684454D01*
X117659534Y-65612766D01*
X117582182Y-65561081D01*
X117503773Y-65508690D01*
X117371310Y-65376227D01*
X117267235Y-65220467D01*
X117267234Y-65220466D01*
X117195546Y-65047395D01*
X117159000Y-64863667D01*
X117159000Y-64676333D01*
X117195546Y-64492605D01*
X117267234Y-64319534D01*
X117371309Y-64163775D01*
X117371310Y-64163773D01*
X117503773Y-64031310D01*
X117659533Y-63927235D01*
X117659534Y-63927234D01*
X117832605Y-63855546D01*
X118016333Y-63819000D01*
X118203667Y-63819000D01*
X118387395Y-63855546D01*
X118387395Y-63855546D01*
G37*
G36*
X116521000Y-65721000D02*
G01*
X114619000Y-65721000D01*
X114619000Y-63819000D01*
X116521000Y-63819000D01*
X116521000Y-65721000D01*
X116521000Y-65721000D01*
G37*
G36*
X127951000Y-65721000D02*
G01*
X126049000Y-65721000D01*
X126049000Y-63819000D01*
X127951000Y-63819000D01*
X127951000Y-65721000D01*
X127951000Y-65721000D01*
G37*
G36*
X129817395Y-63855546D02*
G01*
X129990466Y-63927234D01*
X129990467Y-63927235D01*
X130146227Y-64031310D01*
X130278690Y-64163773D01*
X130278691Y-64163775D01*
X130382766Y-64319534D01*
X130454454Y-64492605D01*
X130491000Y-64676333D01*
X130491000Y-64863667D01*
X130454454Y-65047395D01*
X130382766Y-65220466D01*
X130382765Y-65220467D01*
X130278690Y-65376227D01*
X130146227Y-65508690D01*
X130067818Y-65561081D01*
X129990466Y-65612766D01*
X129817395Y-65684454D01*
X129633667Y-65721000D01*
X129446333Y-65721000D01*
X129262605Y-65684454D01*
X129089534Y-65612766D01*
X129012182Y-65561081D01*
X128933773Y-65508690D01*
X128801310Y-65376227D01*
X128697235Y-65220467D01*
X128697234Y-65220466D01*
X128625546Y-65047395D01*
X128589000Y-64863667D01*
X128589000Y-64676333D01*
X128625546Y-64492605D01*
X128697234Y-64319534D01*
X128801309Y-64163775D01*
X128801310Y-64163773D01*
X128933773Y-64031310D01*
X129089533Y-63927235D01*
X129089534Y-63927234D01*
X129262605Y-63855546D01*
X129446333Y-63819000D01*
X129633667Y-63819000D01*
X129817395Y-63855546D01*
X129817395Y-63855546D01*
G37*
G36*
X139381000Y-65721000D02*
G01*
X137479000Y-65721000D01*
X137479000Y-63819000D01*
X139381000Y-63819000D01*
X139381000Y-65721000D01*
X139381000Y-65721000D01*
G37*
G36*
X141247395Y-63855546D02*
G01*
X141420466Y-63927234D01*
X141420467Y-63927235D01*
X141576227Y-64031310D01*
X141708690Y-64163773D01*
X141708691Y-64163775D01*
X141812766Y-64319534D01*
X141884454Y-64492605D01*
X141921000Y-64676333D01*
X141921000Y-64863667D01*
X141884454Y-65047395D01*
X141812766Y-65220466D01*
X141812765Y-65220467D01*
X141708690Y-65376227D01*
X141576227Y-65508690D01*
X141497818Y-65561081D01*
X141420466Y-65612766D01*
X141247395Y-65684454D01*
X141063667Y-65721000D01*
X140876333Y-65721000D01*
X140692605Y-65684454D01*
X140519534Y-65612766D01*
X140442182Y-65561081D01*
X140363773Y-65508690D01*
X140231310Y-65376227D01*
X140127235Y-65220467D01*
X140127234Y-65220466D01*
X140055546Y-65047395D01*
X140019000Y-64863667D01*
X140019000Y-64676333D01*
X140055546Y-64492605D01*
X140127234Y-64319534D01*
X140231309Y-64163775D01*
X140231310Y-64163773D01*
X140363773Y-64031310D01*
X140519533Y-63927235D01*
X140519534Y-63927234D01*
X140692605Y-63855546D01*
X140876333Y-63819000D01*
X141063667Y-63819000D01*
X141247395Y-63855546D01*
X141247395Y-63855546D01*
G37*
G36*
X151407395Y-63855546D02*
G01*
X151580466Y-63927234D01*
X151580467Y-63927235D01*
X151736227Y-64031310D01*
X151868690Y-64163773D01*
X151868691Y-64163775D01*
X151972766Y-64319534D01*
X152044454Y-64492605D01*
X152081000Y-64676333D01*
X152081000Y-64863667D01*
X152044454Y-65047395D01*
X151972766Y-65220466D01*
X151972765Y-65220467D01*
X151868690Y-65376227D01*
X151736227Y-65508690D01*
X151657818Y-65561081D01*
X151580466Y-65612766D01*
X151407395Y-65684454D01*
X151223667Y-65721000D01*
X151036333Y-65721000D01*
X150852605Y-65684454D01*
X150679534Y-65612766D01*
X150602182Y-65561081D01*
X150523773Y-65508690D01*
X150391310Y-65376227D01*
X150287235Y-65220467D01*
X150287234Y-65220466D01*
X150215546Y-65047395D01*
X150179000Y-64863667D01*
X150179000Y-64676333D01*
X150215546Y-64492605D01*
X150287234Y-64319534D01*
X150391309Y-64163775D01*
X150391310Y-64163773D01*
X150523773Y-64031310D01*
X150679533Y-63927235D01*
X150679534Y-63927234D01*
X150852605Y-63855546D01*
X151036333Y-63819000D01*
X151223667Y-63819000D01*
X151407395Y-63855546D01*
X151407395Y-63855546D01*
G37*
G36*
X88259256Y-58821860D02*
G01*
X88365579Y-58843009D01*
X88666042Y-58967465D01*
X88936451Y-59148147D01*
X89166415Y-59378111D01*
X89347097Y-59648520D01*
X89471553Y-59948983D01*
X89535000Y-60267953D01*
X89535000Y-60593171D01*
X89471553Y-60912141D01*
X89347097Y-61212604D01*
X89166415Y-61483013D01*
X88936451Y-61712977D01*
X88666042Y-61893659D01*
X88365579Y-62018115D01*
X88259256Y-62039264D01*
X88046611Y-62081562D01*
X87721389Y-62081562D01*
X87508744Y-62039264D01*
X87402421Y-62018115D01*
X87101958Y-61893659D01*
X86831549Y-61712977D01*
X86601585Y-61483013D01*
X86420903Y-61212604D01*
X86296447Y-60912141D01*
X86233000Y-60593171D01*
X86233000Y-60267953D01*
X86296447Y-59948983D01*
X86420903Y-59648520D01*
X86601585Y-59378111D01*
X86831549Y-59148147D01*
X87101958Y-58967465D01*
X87402421Y-58843009D01*
X87508744Y-58821860D01*
X87721389Y-58779562D01*
X88046611Y-58779562D01*
X88259256Y-58821860D01*
X88259256Y-58821860D01*
G37*
G36*
X158298257Y-58821860D02*
G01*
X158404580Y-58843009D01*
X158705043Y-58967465D01*
X158975452Y-59148147D01*
X159205416Y-59378111D01*
X159386098Y-59648520D01*
X159510554Y-59948983D01*
X159574001Y-60267953D01*
X159574001Y-60593171D01*
X159510554Y-60912141D01*
X159386098Y-61212604D01*
X159205416Y-61483013D01*
X158975452Y-61712977D01*
X158705043Y-61893659D01*
X158404580Y-62018115D01*
X158298257Y-62039264D01*
X158085612Y-62081562D01*
X157760390Y-62081562D01*
X157547745Y-62039264D01*
X157441422Y-62018115D01*
X157140959Y-61893659D01*
X156870550Y-61712977D01*
X156640586Y-61483013D01*
X156459904Y-61212604D01*
X156335448Y-60912141D01*
X156272001Y-60593171D01*
X156272001Y-60267953D01*
X156335448Y-59948983D01*
X156459904Y-59648520D01*
X156640586Y-59378111D01*
X156870550Y-59148147D01*
X157140959Y-58967465D01*
X157441422Y-58843009D01*
X157547745Y-58821860D01*
X157760390Y-58779562D01*
X158085612Y-58779562D01*
X158298257Y-58821860D01*
X158298257Y-58821860D01*
G37*
G36*
X149541000Y-58736000D02*
G01*
X147639000Y-58736000D01*
X147639000Y-56834000D01*
X149541000Y-56834000D01*
X149541000Y-58736000D01*
X149541000Y-58736000D01*
G37*
G36*
X151407395Y-56870546D02*
G01*
X151580466Y-56942234D01*
X151580467Y-56942235D01*
X151736227Y-57046310D01*
X151868690Y-57178773D01*
X151868691Y-57178775D01*
X151972766Y-57334534D01*
X152044454Y-57507605D01*
X152081000Y-57691333D01*
X152081000Y-57878667D01*
X152044454Y-58062395D01*
X151972766Y-58235466D01*
X151972765Y-58235467D01*
X151868690Y-58391227D01*
X151736227Y-58523690D01*
X151657818Y-58576081D01*
X151580466Y-58627766D01*
X151407395Y-58699454D01*
X151223667Y-58736000D01*
X151036333Y-58736000D01*
X150852605Y-58699454D01*
X150679534Y-58627766D01*
X150602182Y-58576081D01*
X150523773Y-58523690D01*
X150391310Y-58391227D01*
X150287235Y-58235467D01*
X150287234Y-58235466D01*
X150215546Y-58062395D01*
X150179000Y-57878667D01*
X150179000Y-57691333D01*
X150215546Y-57507605D01*
X150287234Y-57334534D01*
X150391309Y-57178775D01*
X150391310Y-57178773D01*
X150523773Y-57046310D01*
X150679533Y-56942235D01*
X150679534Y-56942234D01*
X150852605Y-56870546D01*
X151036333Y-56834000D01*
X151223667Y-56834000D01*
X151407395Y-56870546D01*
X151407395Y-56870546D01*
G37*
G36*
X139381000Y-58736000D02*
G01*
X137479000Y-58736000D01*
X137479000Y-56834000D01*
X139381000Y-56834000D01*
X139381000Y-58736000D01*
X139381000Y-58736000D01*
G37*
G36*
X141247395Y-56870546D02*
G01*
X141420466Y-56942234D01*
X141420467Y-56942235D01*
X141576227Y-57046310D01*
X141708690Y-57178773D01*
X141708691Y-57178775D01*
X141812766Y-57334534D01*
X141884454Y-57507605D01*
X141921000Y-57691333D01*
X141921000Y-57878667D01*
X141884454Y-58062395D01*
X141812766Y-58235466D01*
X141812765Y-58235467D01*
X141708690Y-58391227D01*
X141576227Y-58523690D01*
X141497818Y-58576081D01*
X141420466Y-58627766D01*
X141247395Y-58699454D01*
X141063667Y-58736000D01*
X140876333Y-58736000D01*
X140692605Y-58699454D01*
X140519534Y-58627766D01*
X140442182Y-58576081D01*
X140363773Y-58523690D01*
X140231310Y-58391227D01*
X140127235Y-58235467D01*
X140127234Y-58235466D01*
X140055546Y-58062395D01*
X140019000Y-57878667D01*
X140019000Y-57691333D01*
X140055546Y-57507605D01*
X140127234Y-57334534D01*
X140231309Y-57178775D01*
X140231310Y-57178773D01*
X140363773Y-57046310D01*
X140519533Y-56942235D01*
X140519534Y-56942234D01*
X140692605Y-56870546D01*
X140876333Y-56834000D01*
X141063667Y-56834000D01*
X141247395Y-56870546D01*
X141247395Y-56870546D01*
G37*
G36*
X129817395Y-56870546D02*
G01*
X129990466Y-56942234D01*
X129990467Y-56942235D01*
X130146227Y-57046310D01*
X130278690Y-57178773D01*
X130278691Y-57178775D01*
X130382766Y-57334534D01*
X130454454Y-57507605D01*
X130491000Y-57691333D01*
X130491000Y-57878667D01*
X130454454Y-58062395D01*
X130382766Y-58235466D01*
X130382765Y-58235467D01*
X130278690Y-58391227D01*
X130146227Y-58523690D01*
X130067818Y-58576081D01*
X129990466Y-58627766D01*
X129817395Y-58699454D01*
X129633667Y-58736000D01*
X129446333Y-58736000D01*
X129262605Y-58699454D01*
X129089534Y-58627766D01*
X129012182Y-58576081D01*
X128933773Y-58523690D01*
X128801310Y-58391227D01*
X128697235Y-58235467D01*
X128697234Y-58235466D01*
X128625546Y-58062395D01*
X128589000Y-57878667D01*
X128589000Y-57691333D01*
X128625546Y-57507605D01*
X128697234Y-57334534D01*
X128801309Y-57178775D01*
X128801310Y-57178773D01*
X128933773Y-57046310D01*
X129089533Y-56942235D01*
X129089534Y-56942234D01*
X129262605Y-56870546D01*
X129446333Y-56834000D01*
X129633667Y-56834000D01*
X129817395Y-56870546D01*
X129817395Y-56870546D01*
G37*
G36*
X127951000Y-58736000D02*
G01*
X126049000Y-58736000D01*
X126049000Y-56834000D01*
X127951000Y-56834000D01*
X127951000Y-58736000D01*
X127951000Y-58736000D01*
G37*
G36*
X116521000Y-58736000D02*
G01*
X114619000Y-58736000D01*
X114619000Y-56834000D01*
X116521000Y-56834000D01*
X116521000Y-58736000D01*
X116521000Y-58736000D01*
G37*
G36*
X118387395Y-56870546D02*
G01*
X118560466Y-56942234D01*
X118560467Y-56942235D01*
X118716227Y-57046310D01*
X118848690Y-57178773D01*
X118848691Y-57178775D01*
X118952766Y-57334534D01*
X119024454Y-57507605D01*
X119061000Y-57691333D01*
X119061000Y-57878667D01*
X119024454Y-58062395D01*
X118952766Y-58235466D01*
X118952765Y-58235467D01*
X118848690Y-58391227D01*
X118716227Y-58523690D01*
X118637818Y-58576081D01*
X118560466Y-58627766D01*
X118387395Y-58699454D01*
X118203667Y-58736000D01*
X118016333Y-58736000D01*
X117832605Y-58699454D01*
X117659534Y-58627766D01*
X117582182Y-58576081D01*
X117503773Y-58523690D01*
X117371310Y-58391227D01*
X117267235Y-58235467D01*
X117267234Y-58235466D01*
X117195546Y-58062395D01*
X117159000Y-57878667D01*
X117159000Y-57691333D01*
X117195546Y-57507605D01*
X117267234Y-57334534D01*
X117371309Y-57178775D01*
X117371310Y-57178773D01*
X117503773Y-57046310D01*
X117659533Y-56942235D01*
X117659534Y-56942234D01*
X117832605Y-56870546D01*
X118016333Y-56834000D01*
X118203667Y-56834000D01*
X118387395Y-56870546D01*
X118387395Y-56870546D01*
G37*
M02*
