G04 #@! TF.GenerationSoftware,KiCad,Pcbnew,(5.1.0)-1*
G04 #@! TF.CreationDate,2019-09-05T23:41:34+02:00*
G04 #@! TF.ProjectId,button_v1,62757474-6f6e-45f7-9631-2e6b69636164,rev?*
G04 #@! TF.SameCoordinates,Original*
G04 #@! TF.FileFunction,Soldermask,Bot*
G04 #@! TF.FilePolarity,Negative*
%FSLAX46Y46*%
G04 Gerber Fmt 4.6, Leading zero omitted, Abs format (unit mm)*
G04 Created by KiCad (PCBNEW (5.1.0)-1) date 2019-09-05 23:41:34*
%MOMM*%
%LPD*%
G04 APERTURE LIST*
%ADD10C,0.100000*%
G04 APERTURE END LIST*
D10*
G36*
X92327393Y-125749304D02*
G01*
X92564101Y-125847352D01*
X92564103Y-125847353D01*
X92777135Y-125989696D01*
X92958304Y-126170865D01*
X93100647Y-126383897D01*
X93100648Y-126383899D01*
X93198696Y-126620607D01*
X93248680Y-126871893D01*
X93248680Y-127128107D01*
X93198696Y-127379393D01*
X93100648Y-127616101D01*
X93100647Y-127616103D01*
X92958304Y-127829135D01*
X92777135Y-128010304D01*
X92564103Y-128152647D01*
X92564102Y-128152648D01*
X92564101Y-128152648D01*
X92327393Y-128250696D01*
X92076107Y-128300680D01*
X91819893Y-128300680D01*
X91568607Y-128250696D01*
X91331899Y-128152648D01*
X91331898Y-128152648D01*
X91331897Y-128152647D01*
X91118865Y-128010304D01*
X90937696Y-127829135D01*
X90795353Y-127616103D01*
X90795352Y-127616101D01*
X90697304Y-127379393D01*
X90647320Y-127128107D01*
X90647320Y-126871893D01*
X90697304Y-126620607D01*
X90795352Y-126383899D01*
X90795353Y-126383897D01*
X90937696Y-126170865D01*
X91118865Y-125989696D01*
X91331897Y-125847353D01*
X91331899Y-125847352D01*
X91568607Y-125749304D01*
X91819893Y-125699320D01*
X92076107Y-125699320D01*
X92327393Y-125749304D01*
X92327393Y-125749304D01*
G37*
G36*
X152486971Y-123324204D02*
G01*
X152648871Y-123356408D01*
X152953883Y-123482748D01*
X153228387Y-123666166D01*
X153461834Y-123899613D01*
X153645252Y-124174117D01*
X153771592Y-124479129D01*
X153836000Y-124802928D01*
X153836000Y-125133072D01*
X153771592Y-125456871D01*
X153645252Y-125761883D01*
X153461834Y-126036387D01*
X153228387Y-126269834D01*
X152953883Y-126453252D01*
X152648871Y-126579592D01*
X152486971Y-126611796D01*
X152325073Y-126644000D01*
X151994927Y-126644000D01*
X151833029Y-126611796D01*
X151671129Y-126579592D01*
X151366117Y-126453252D01*
X151091613Y-126269834D01*
X150858166Y-126036387D01*
X150674748Y-125761883D01*
X150548408Y-125456871D01*
X150484000Y-125133072D01*
X150484000Y-124802928D01*
X150548408Y-124479129D01*
X150674748Y-124174117D01*
X150858166Y-123899613D01*
X151091613Y-123666166D01*
X151366117Y-123482748D01*
X151671129Y-123356408D01*
X151833029Y-123324204D01*
X151994927Y-123292000D01*
X152325073Y-123292000D01*
X152486971Y-123324204D01*
X152486971Y-123324204D01*
G37*
G36*
X102276971Y-123324204D02*
G01*
X102438871Y-123356408D01*
X102743883Y-123482748D01*
X103018387Y-123666166D01*
X103251834Y-123899613D01*
X103435252Y-124174117D01*
X103561592Y-124479129D01*
X103626000Y-124802928D01*
X103626000Y-125133072D01*
X103561592Y-125456871D01*
X103435252Y-125761883D01*
X103251834Y-126036387D01*
X103018387Y-126269834D01*
X102743883Y-126453252D01*
X102438871Y-126579592D01*
X102276971Y-126611796D01*
X102115073Y-126644000D01*
X101784927Y-126644000D01*
X101623029Y-126611796D01*
X101461129Y-126579592D01*
X101156117Y-126453252D01*
X100881613Y-126269834D01*
X100648166Y-126036387D01*
X100464748Y-125761883D01*
X100338408Y-125456871D01*
X100274000Y-125133072D01*
X100274000Y-124802928D01*
X100338408Y-124479129D01*
X100464748Y-124174117D01*
X100648166Y-123899613D01*
X100881613Y-123666166D01*
X101156117Y-123482748D01*
X101461129Y-123356408D01*
X101623029Y-123324204D01*
X101784927Y-123292000D01*
X102115073Y-123292000D01*
X102276971Y-123324204D01*
X102276971Y-123324204D01*
G37*
G36*
X112436971Y-123324204D02*
G01*
X112598871Y-123356408D01*
X112903883Y-123482748D01*
X113178387Y-123666166D01*
X113411834Y-123899613D01*
X113601067Y-124182820D01*
X113616612Y-124201762D01*
X113635554Y-124217307D01*
X113657165Y-124228858D01*
X113680614Y-124235971D01*
X113705000Y-124238373D01*
X113729386Y-124235971D01*
X113752835Y-124228858D01*
X113774446Y-124217307D01*
X113793388Y-124201762D01*
X113808933Y-124182820D01*
X113998166Y-123899613D01*
X114231613Y-123666166D01*
X114506117Y-123482748D01*
X114811129Y-123356408D01*
X114973029Y-123324204D01*
X115134927Y-123292000D01*
X115465073Y-123292000D01*
X115626971Y-123324204D01*
X115788871Y-123356408D01*
X116093883Y-123482748D01*
X116368387Y-123666166D01*
X116601834Y-123899613D01*
X116785252Y-124174117D01*
X116911592Y-124479129D01*
X116976000Y-124802928D01*
X116976000Y-125133072D01*
X116911592Y-125456871D01*
X116785252Y-125761883D01*
X116601834Y-126036387D01*
X116368387Y-126269834D01*
X116093883Y-126453252D01*
X115788871Y-126579592D01*
X115626971Y-126611796D01*
X115465073Y-126644000D01*
X115134927Y-126644000D01*
X114973029Y-126611796D01*
X114811129Y-126579592D01*
X114506117Y-126453252D01*
X114231613Y-126269834D01*
X113998166Y-126036387D01*
X113814748Y-125761883D01*
X113814748Y-125761882D01*
X113808933Y-125753180D01*
X113793388Y-125734238D01*
X113774446Y-125718693D01*
X113752835Y-125707142D01*
X113729386Y-125700029D01*
X113705000Y-125697627D01*
X113680614Y-125700029D01*
X113657165Y-125707142D01*
X113635554Y-125718693D01*
X113616612Y-125734238D01*
X113601067Y-125753180D01*
X113595252Y-125761882D01*
X113595252Y-125761883D01*
X113411834Y-126036387D01*
X113178387Y-126269834D01*
X112903883Y-126453252D01*
X112598871Y-126579592D01*
X112436971Y-126611796D01*
X112275073Y-126644000D01*
X111944927Y-126644000D01*
X111783029Y-126611796D01*
X111621129Y-126579592D01*
X111316117Y-126453252D01*
X111041613Y-126269834D01*
X110808166Y-126036387D01*
X110624748Y-125761883D01*
X110498408Y-125456871D01*
X110434000Y-125133072D01*
X110434000Y-124802928D01*
X110498408Y-124479129D01*
X110624748Y-124174117D01*
X110808166Y-123899613D01*
X111041613Y-123666166D01*
X111316117Y-123482748D01*
X111621129Y-123356408D01*
X111783029Y-123324204D01*
X111944927Y-123292000D01*
X112275073Y-123292000D01*
X112436971Y-123324204D01*
X112436971Y-123324204D01*
G37*
G36*
X125786971Y-123324204D02*
G01*
X125948871Y-123356408D01*
X126253883Y-123482748D01*
X126528387Y-123666166D01*
X126761834Y-123899613D01*
X126951067Y-124182820D01*
X126966612Y-124201762D01*
X126985554Y-124217307D01*
X127007165Y-124228858D01*
X127030614Y-124235971D01*
X127055000Y-124238373D01*
X127079386Y-124235971D01*
X127102835Y-124228858D01*
X127124446Y-124217307D01*
X127143388Y-124201762D01*
X127158933Y-124182820D01*
X127348166Y-123899613D01*
X127581613Y-123666166D01*
X127856117Y-123482748D01*
X128161129Y-123356408D01*
X128323029Y-123324204D01*
X128484927Y-123292000D01*
X128815073Y-123292000D01*
X128976971Y-123324204D01*
X129138871Y-123356408D01*
X129443883Y-123482748D01*
X129718387Y-123666166D01*
X129951834Y-123899613D01*
X130135252Y-124174117D01*
X130261592Y-124479129D01*
X130326000Y-124802928D01*
X130326000Y-125133072D01*
X130261592Y-125456871D01*
X130135252Y-125761883D01*
X129951834Y-126036387D01*
X129718387Y-126269834D01*
X129443883Y-126453252D01*
X129138871Y-126579592D01*
X128976971Y-126611796D01*
X128815073Y-126644000D01*
X128484927Y-126644000D01*
X128323029Y-126611796D01*
X128161129Y-126579592D01*
X127856117Y-126453252D01*
X127581613Y-126269834D01*
X127348166Y-126036387D01*
X127164748Y-125761883D01*
X127164748Y-125761882D01*
X127158933Y-125753180D01*
X127143388Y-125734238D01*
X127124446Y-125718693D01*
X127102835Y-125707142D01*
X127079386Y-125700029D01*
X127055000Y-125697627D01*
X127030614Y-125700029D01*
X127007165Y-125707142D01*
X126985554Y-125718693D01*
X126966612Y-125734238D01*
X126951067Y-125753180D01*
X126945252Y-125761882D01*
X126945252Y-125761883D01*
X126761834Y-126036387D01*
X126528387Y-126269834D01*
X126253883Y-126453252D01*
X125948871Y-126579592D01*
X125786971Y-126611796D01*
X125625073Y-126644000D01*
X125294927Y-126644000D01*
X125133029Y-126611796D01*
X124971129Y-126579592D01*
X124666117Y-126453252D01*
X124391613Y-126269834D01*
X124158166Y-126036387D01*
X123974748Y-125761883D01*
X123848408Y-125456871D01*
X123784000Y-125133072D01*
X123784000Y-124802928D01*
X123848408Y-124479129D01*
X123974748Y-124174117D01*
X124158166Y-123899613D01*
X124391613Y-123666166D01*
X124666117Y-123482748D01*
X124971129Y-123356408D01*
X125133029Y-123324204D01*
X125294927Y-123292000D01*
X125625073Y-123292000D01*
X125786971Y-123324204D01*
X125786971Y-123324204D01*
G37*
G36*
X139136971Y-123324204D02*
G01*
X139298871Y-123356408D01*
X139603883Y-123482748D01*
X139878387Y-123666166D01*
X140111834Y-123899613D01*
X140301067Y-124182820D01*
X140316612Y-124201762D01*
X140335554Y-124217307D01*
X140357165Y-124228858D01*
X140380614Y-124235971D01*
X140405000Y-124238373D01*
X140429386Y-124235971D01*
X140452835Y-124228858D01*
X140474446Y-124217307D01*
X140493388Y-124201762D01*
X140508933Y-124182820D01*
X140698166Y-123899613D01*
X140931613Y-123666166D01*
X141206117Y-123482748D01*
X141511129Y-123356408D01*
X141673029Y-123324204D01*
X141834927Y-123292000D01*
X142165073Y-123292000D01*
X142326971Y-123324204D01*
X142488871Y-123356408D01*
X142793883Y-123482748D01*
X143068387Y-123666166D01*
X143301834Y-123899613D01*
X143485252Y-124174117D01*
X143611592Y-124479129D01*
X143676000Y-124802928D01*
X143676000Y-125133072D01*
X143611592Y-125456871D01*
X143485252Y-125761883D01*
X143301834Y-126036387D01*
X143068387Y-126269834D01*
X142793883Y-126453252D01*
X142488871Y-126579592D01*
X142326971Y-126611796D01*
X142165073Y-126644000D01*
X141834927Y-126644000D01*
X141673029Y-126611796D01*
X141511129Y-126579592D01*
X141206117Y-126453252D01*
X140931613Y-126269834D01*
X140698166Y-126036387D01*
X140514748Y-125761883D01*
X140514748Y-125761882D01*
X140508933Y-125753180D01*
X140493388Y-125734238D01*
X140474446Y-125718693D01*
X140452835Y-125707142D01*
X140429386Y-125700029D01*
X140405000Y-125697627D01*
X140380614Y-125700029D01*
X140357165Y-125707142D01*
X140335554Y-125718693D01*
X140316612Y-125734238D01*
X140301067Y-125753180D01*
X140295252Y-125761882D01*
X140295252Y-125761883D01*
X140111834Y-126036387D01*
X139878387Y-126269834D01*
X139603883Y-126453252D01*
X139298871Y-126579592D01*
X139136971Y-126611796D01*
X138975073Y-126644000D01*
X138644927Y-126644000D01*
X138483029Y-126611796D01*
X138321129Y-126579592D01*
X138016117Y-126453252D01*
X137741613Y-126269834D01*
X137508166Y-126036387D01*
X137324748Y-125761883D01*
X137198408Y-125456871D01*
X137134000Y-125133072D01*
X137134000Y-124802928D01*
X137198408Y-124479129D01*
X137324748Y-124174117D01*
X137508166Y-123899613D01*
X137741613Y-123666166D01*
X138016117Y-123482748D01*
X138321129Y-123356408D01*
X138483029Y-123324204D01*
X138644927Y-123292000D01*
X138975073Y-123292000D01*
X139136971Y-123324204D01*
X139136971Y-123324204D01*
G37*
G36*
X88259256Y-122343171D02*
G01*
X88365579Y-122364320D01*
X88666042Y-122488776D01*
X88936451Y-122669458D01*
X89166415Y-122899422D01*
X89166416Y-122899424D01*
X89347098Y-123169833D01*
X89471553Y-123470295D01*
X89535000Y-123789262D01*
X89535000Y-124114484D01*
X89510357Y-124238373D01*
X89471553Y-124433452D01*
X89347097Y-124733915D01*
X89166415Y-125004324D01*
X88936451Y-125234288D01*
X88666042Y-125414970D01*
X88365579Y-125539426D01*
X88259256Y-125560575D01*
X88046611Y-125602873D01*
X87721389Y-125602873D01*
X87508744Y-125560575D01*
X87402421Y-125539426D01*
X87101958Y-125414970D01*
X86831549Y-125234288D01*
X86601585Y-125004324D01*
X86420903Y-124733915D01*
X86296447Y-124433452D01*
X86257643Y-124238373D01*
X86233000Y-124114484D01*
X86233000Y-123789262D01*
X86296447Y-123470295D01*
X86420902Y-123169833D01*
X86601584Y-122899424D01*
X86601585Y-122899422D01*
X86831549Y-122669458D01*
X87101958Y-122488776D01*
X87402421Y-122364320D01*
X87508744Y-122343171D01*
X87721389Y-122300873D01*
X88046611Y-122300873D01*
X88259256Y-122343171D01*
X88259256Y-122343171D01*
G37*
G36*
X158298104Y-122343171D02*
G01*
X158404427Y-122364320D01*
X158704890Y-122488776D01*
X158975299Y-122669458D01*
X159205263Y-122899422D01*
X159205264Y-122899424D01*
X159385946Y-123169833D01*
X159510401Y-123470295D01*
X159573848Y-123789262D01*
X159573848Y-124114484D01*
X159549205Y-124238373D01*
X159510401Y-124433452D01*
X159385945Y-124733915D01*
X159205263Y-125004324D01*
X158975299Y-125234288D01*
X158704890Y-125414970D01*
X158404427Y-125539426D01*
X158298104Y-125560575D01*
X158085459Y-125602873D01*
X157760237Y-125602873D01*
X157547592Y-125560575D01*
X157441269Y-125539426D01*
X157140806Y-125414970D01*
X156870397Y-125234288D01*
X156640433Y-125004324D01*
X156459751Y-124733915D01*
X156335295Y-124433452D01*
X156296491Y-124238373D01*
X156271848Y-124114484D01*
X156271848Y-123789262D01*
X156335295Y-123470295D01*
X156459750Y-123169833D01*
X156640432Y-122899424D01*
X156640433Y-122899422D01*
X156870397Y-122669458D01*
X157140806Y-122488776D01*
X157441269Y-122364320D01*
X157547592Y-122343171D01*
X157760237Y-122300873D01*
X158085459Y-122300873D01*
X158298104Y-122343171D01*
X158298104Y-122343171D01*
G37*
G36*
X118716560Y-117838166D02*
G01*
X118864153Y-117899301D01*
X118996982Y-117988055D01*
X119109945Y-118101018D01*
X119198699Y-118233847D01*
X119259834Y-118381440D01*
X119291000Y-118538123D01*
X119291000Y-118697877D01*
X119259834Y-118854560D01*
X119198699Y-119002153D01*
X119109945Y-119134982D01*
X118996982Y-119247945D01*
X118864153Y-119336699D01*
X118864152Y-119336700D01*
X118864151Y-119336700D01*
X118716560Y-119397834D01*
X118559878Y-119429000D01*
X118400122Y-119429000D01*
X118243440Y-119397834D01*
X118095849Y-119336700D01*
X118095848Y-119336700D01*
X118095847Y-119336699D01*
X117963018Y-119247945D01*
X117850055Y-119134982D01*
X117761301Y-119002153D01*
X117700166Y-118854560D01*
X117669000Y-118697877D01*
X117669000Y-118538123D01*
X117700166Y-118381440D01*
X117761301Y-118233847D01*
X117850055Y-118101018D01*
X117963018Y-117988055D01*
X118095847Y-117899301D01*
X118243440Y-117838166D01*
X118400122Y-117807000D01*
X118559878Y-117807000D01*
X118716560Y-117838166D01*
X118716560Y-117838166D01*
G37*
G36*
X107906560Y-117838166D02*
G01*
X108054153Y-117899301D01*
X108186982Y-117988055D01*
X108299945Y-118101018D01*
X108388699Y-118233847D01*
X108449834Y-118381440D01*
X108481000Y-118538123D01*
X108481000Y-118697877D01*
X108449834Y-118854560D01*
X108388699Y-119002153D01*
X108299945Y-119134982D01*
X108186982Y-119247945D01*
X108054153Y-119336699D01*
X108054152Y-119336700D01*
X108054151Y-119336700D01*
X107906560Y-119397834D01*
X107749878Y-119429000D01*
X107590122Y-119429000D01*
X107433440Y-119397834D01*
X107285849Y-119336700D01*
X107285848Y-119336700D01*
X107285847Y-119336699D01*
X107153018Y-119247945D01*
X107040055Y-119134982D01*
X106951301Y-119002153D01*
X106890166Y-118854560D01*
X106859000Y-118697877D01*
X106859000Y-118538123D01*
X106890166Y-118381440D01*
X106951301Y-118233847D01*
X107040055Y-118101018D01*
X107153018Y-117988055D01*
X107285847Y-117899301D01*
X107433440Y-117838166D01*
X107590122Y-117807000D01*
X107749878Y-117807000D01*
X107906560Y-117838166D01*
X107906560Y-117838166D01*
G37*
G36*
X110446560Y-117838166D02*
G01*
X110594153Y-117899301D01*
X110726982Y-117988055D01*
X110839945Y-118101018D01*
X110928699Y-118233847D01*
X110989834Y-118381440D01*
X111021000Y-118538123D01*
X111021000Y-118697877D01*
X110989834Y-118854560D01*
X110928699Y-119002153D01*
X110839945Y-119134982D01*
X110726982Y-119247945D01*
X110594153Y-119336699D01*
X110594152Y-119336700D01*
X110594151Y-119336700D01*
X110446560Y-119397834D01*
X110289878Y-119429000D01*
X110130122Y-119429000D01*
X109973440Y-119397834D01*
X109825849Y-119336700D01*
X109825848Y-119336700D01*
X109825847Y-119336699D01*
X109693018Y-119247945D01*
X109580055Y-119134982D01*
X109491301Y-119002153D01*
X109430166Y-118854560D01*
X109399000Y-118697877D01*
X109399000Y-118538123D01*
X109430166Y-118381440D01*
X109491301Y-118233847D01*
X109580055Y-118101018D01*
X109693018Y-117988055D01*
X109825847Y-117899301D01*
X109973440Y-117838166D01*
X110130122Y-117807000D01*
X110289878Y-117807000D01*
X110446560Y-117838166D01*
X110446560Y-117838166D01*
G37*
G36*
X105366560Y-117838166D02*
G01*
X105514153Y-117899301D01*
X105646982Y-117988055D01*
X105759945Y-118101018D01*
X105848699Y-118233847D01*
X105909834Y-118381440D01*
X105941000Y-118538123D01*
X105941000Y-118697877D01*
X105909834Y-118854560D01*
X105848699Y-119002153D01*
X105759945Y-119134982D01*
X105646982Y-119247945D01*
X105514153Y-119336699D01*
X105514152Y-119336700D01*
X105514151Y-119336700D01*
X105366560Y-119397834D01*
X105209878Y-119429000D01*
X105050122Y-119429000D01*
X104893440Y-119397834D01*
X104745849Y-119336700D01*
X104745848Y-119336700D01*
X104745847Y-119336699D01*
X104613018Y-119247945D01*
X104500055Y-119134982D01*
X104411301Y-119002153D01*
X104350166Y-118854560D01*
X104319000Y-118697877D01*
X104319000Y-118538123D01*
X104350166Y-118381440D01*
X104411301Y-118233847D01*
X104500055Y-118101018D01*
X104613018Y-117988055D01*
X104745847Y-117899301D01*
X104893440Y-117838166D01*
X105050122Y-117807000D01*
X105209878Y-117807000D01*
X105366560Y-117838166D01*
X105366560Y-117838166D01*
G37*
G36*
X150496560Y-117838166D02*
G01*
X150644153Y-117899301D01*
X150776982Y-117988055D01*
X150889945Y-118101018D01*
X150978699Y-118233847D01*
X151039834Y-118381440D01*
X151071000Y-118538123D01*
X151071000Y-118697877D01*
X151039834Y-118854560D01*
X150978699Y-119002153D01*
X150889945Y-119134982D01*
X150776982Y-119247945D01*
X150644153Y-119336699D01*
X150644152Y-119336700D01*
X150644151Y-119336700D01*
X150496560Y-119397834D01*
X150339878Y-119429000D01*
X150180122Y-119429000D01*
X150023440Y-119397834D01*
X149875849Y-119336700D01*
X149875848Y-119336700D01*
X149875847Y-119336699D01*
X149743018Y-119247945D01*
X149630055Y-119134982D01*
X149541301Y-119002153D01*
X149480166Y-118854560D01*
X149449000Y-118697877D01*
X149449000Y-118538123D01*
X149480166Y-118381440D01*
X149541301Y-118233847D01*
X149630055Y-118101018D01*
X149743018Y-117988055D01*
X149875847Y-117899301D01*
X150023440Y-117838166D01*
X150180122Y-117807000D01*
X150339878Y-117807000D01*
X150496560Y-117838166D01*
X150496560Y-117838166D01*
G37*
G36*
X147956560Y-117838166D02*
G01*
X148104153Y-117899301D01*
X148236982Y-117988055D01*
X148349945Y-118101018D01*
X148438699Y-118233847D01*
X148499834Y-118381440D01*
X148531000Y-118538123D01*
X148531000Y-118697877D01*
X148499834Y-118854560D01*
X148438699Y-119002153D01*
X148349945Y-119134982D01*
X148236982Y-119247945D01*
X148104153Y-119336699D01*
X148104152Y-119336700D01*
X148104151Y-119336700D01*
X147956560Y-119397834D01*
X147799878Y-119429000D01*
X147640122Y-119429000D01*
X147483440Y-119397834D01*
X147335849Y-119336700D01*
X147335848Y-119336700D01*
X147335847Y-119336699D01*
X147203018Y-119247945D01*
X147090055Y-119134982D01*
X147001301Y-119002153D01*
X146940166Y-118854560D01*
X146909000Y-118697877D01*
X146909000Y-118538123D01*
X146940166Y-118381440D01*
X147001301Y-118233847D01*
X147090055Y-118101018D01*
X147203018Y-117988055D01*
X147335847Y-117899301D01*
X147483440Y-117838166D01*
X147640122Y-117807000D01*
X147799878Y-117807000D01*
X147956560Y-117838166D01*
X147956560Y-117838166D01*
G37*
G36*
X121256560Y-117838166D02*
G01*
X121404153Y-117899301D01*
X121536982Y-117988055D01*
X121649945Y-118101018D01*
X121738699Y-118233847D01*
X121799834Y-118381440D01*
X121831000Y-118538123D01*
X121831000Y-118697877D01*
X121799834Y-118854560D01*
X121738699Y-119002153D01*
X121649945Y-119134982D01*
X121536982Y-119247945D01*
X121404153Y-119336699D01*
X121404152Y-119336700D01*
X121404151Y-119336700D01*
X121256560Y-119397834D01*
X121099878Y-119429000D01*
X120940122Y-119429000D01*
X120783440Y-119397834D01*
X120635849Y-119336700D01*
X120635848Y-119336700D01*
X120635847Y-119336699D01*
X120503018Y-119247945D01*
X120390055Y-119134982D01*
X120301301Y-119002153D01*
X120240166Y-118854560D01*
X120209000Y-118697877D01*
X120209000Y-118538123D01*
X120240166Y-118381440D01*
X120301301Y-118233847D01*
X120390055Y-118101018D01*
X120503018Y-117988055D01*
X120635847Y-117899301D01*
X120783440Y-117838166D01*
X120940122Y-117807000D01*
X121099878Y-117807000D01*
X121256560Y-117838166D01*
X121256560Y-117838166D01*
G37*
G36*
X123796560Y-117838166D02*
G01*
X123944153Y-117899301D01*
X124076982Y-117988055D01*
X124189945Y-118101018D01*
X124278699Y-118233847D01*
X124339834Y-118381440D01*
X124371000Y-118538123D01*
X124371000Y-118697877D01*
X124339834Y-118854560D01*
X124278699Y-119002153D01*
X124189945Y-119134982D01*
X124076982Y-119247945D01*
X123944153Y-119336699D01*
X123944152Y-119336700D01*
X123944151Y-119336700D01*
X123796560Y-119397834D01*
X123639878Y-119429000D01*
X123480122Y-119429000D01*
X123323440Y-119397834D01*
X123175849Y-119336700D01*
X123175848Y-119336700D01*
X123175847Y-119336699D01*
X123043018Y-119247945D01*
X122930055Y-119134982D01*
X122841301Y-119002153D01*
X122780166Y-118854560D01*
X122749000Y-118697877D01*
X122749000Y-118538123D01*
X122780166Y-118381440D01*
X122841301Y-118233847D01*
X122930055Y-118101018D01*
X123043018Y-117988055D01*
X123175847Y-117899301D01*
X123323440Y-117838166D01*
X123480122Y-117807000D01*
X123639878Y-117807000D01*
X123796560Y-117838166D01*
X123796560Y-117838166D01*
G37*
G36*
X145416560Y-117838166D02*
G01*
X145564153Y-117899301D01*
X145696982Y-117988055D01*
X145809945Y-118101018D01*
X145898699Y-118233847D01*
X145959834Y-118381440D01*
X145991000Y-118538123D01*
X145991000Y-118697877D01*
X145959834Y-118854560D01*
X145898699Y-119002153D01*
X145809945Y-119134982D01*
X145696982Y-119247945D01*
X145564153Y-119336699D01*
X145564152Y-119336700D01*
X145564151Y-119336700D01*
X145416560Y-119397834D01*
X145259878Y-119429000D01*
X145100122Y-119429000D01*
X144943440Y-119397834D01*
X144795849Y-119336700D01*
X144795848Y-119336700D01*
X144795847Y-119336699D01*
X144663018Y-119247945D01*
X144550055Y-119134982D01*
X144461301Y-119002153D01*
X144400166Y-118854560D01*
X144369000Y-118697877D01*
X144369000Y-118538123D01*
X144400166Y-118381440D01*
X144461301Y-118233847D01*
X144550055Y-118101018D01*
X144663018Y-117988055D01*
X144795847Y-117899301D01*
X144943440Y-117838166D01*
X145100122Y-117807000D01*
X145259878Y-117807000D01*
X145416560Y-117838166D01*
X145416560Y-117838166D01*
G37*
G36*
X137146560Y-117838166D02*
G01*
X137294153Y-117899301D01*
X137426982Y-117988055D01*
X137539945Y-118101018D01*
X137628699Y-118233847D01*
X137689834Y-118381440D01*
X137721000Y-118538123D01*
X137721000Y-118697877D01*
X137689834Y-118854560D01*
X137628699Y-119002153D01*
X137539945Y-119134982D01*
X137426982Y-119247945D01*
X137294153Y-119336699D01*
X137294152Y-119336700D01*
X137294151Y-119336700D01*
X137146560Y-119397834D01*
X136989878Y-119429000D01*
X136830122Y-119429000D01*
X136673440Y-119397834D01*
X136525849Y-119336700D01*
X136525848Y-119336700D01*
X136525847Y-119336699D01*
X136393018Y-119247945D01*
X136280055Y-119134982D01*
X136191301Y-119002153D01*
X136130166Y-118854560D01*
X136099000Y-118697877D01*
X136099000Y-118538123D01*
X136130166Y-118381440D01*
X136191301Y-118233847D01*
X136280055Y-118101018D01*
X136393018Y-117988055D01*
X136525847Y-117899301D01*
X136673440Y-117838166D01*
X136830122Y-117807000D01*
X136989878Y-117807000D01*
X137146560Y-117838166D01*
X137146560Y-117838166D01*
G37*
G36*
X134606560Y-117838166D02*
G01*
X134754153Y-117899301D01*
X134886982Y-117988055D01*
X134999945Y-118101018D01*
X135088699Y-118233847D01*
X135149834Y-118381440D01*
X135181000Y-118538123D01*
X135181000Y-118697877D01*
X135149834Y-118854560D01*
X135088699Y-119002153D01*
X134999945Y-119134982D01*
X134886982Y-119247945D01*
X134754153Y-119336699D01*
X134754152Y-119336700D01*
X134754151Y-119336700D01*
X134606560Y-119397834D01*
X134449878Y-119429000D01*
X134290122Y-119429000D01*
X134133440Y-119397834D01*
X133985849Y-119336700D01*
X133985848Y-119336700D01*
X133985847Y-119336699D01*
X133853018Y-119247945D01*
X133740055Y-119134982D01*
X133651301Y-119002153D01*
X133590166Y-118854560D01*
X133559000Y-118697877D01*
X133559000Y-118538123D01*
X133590166Y-118381440D01*
X133651301Y-118233847D01*
X133740055Y-118101018D01*
X133853018Y-117988055D01*
X133985847Y-117899301D01*
X134133440Y-117838166D01*
X134290122Y-117807000D01*
X134449878Y-117807000D01*
X134606560Y-117838166D01*
X134606560Y-117838166D01*
G37*
G36*
X132066560Y-117838166D02*
G01*
X132214153Y-117899301D01*
X132346982Y-117988055D01*
X132459945Y-118101018D01*
X132548699Y-118233847D01*
X132609834Y-118381440D01*
X132641000Y-118538123D01*
X132641000Y-118697877D01*
X132609834Y-118854560D01*
X132548699Y-119002153D01*
X132459945Y-119134982D01*
X132346982Y-119247945D01*
X132214153Y-119336699D01*
X132214152Y-119336700D01*
X132214151Y-119336700D01*
X132066560Y-119397834D01*
X131909878Y-119429000D01*
X131750122Y-119429000D01*
X131593440Y-119397834D01*
X131445849Y-119336700D01*
X131445848Y-119336700D01*
X131445847Y-119336699D01*
X131313018Y-119247945D01*
X131200055Y-119134982D01*
X131111301Y-119002153D01*
X131050166Y-118854560D01*
X131019000Y-118697877D01*
X131019000Y-118538123D01*
X131050166Y-118381440D01*
X131111301Y-118233847D01*
X131200055Y-118101018D01*
X131313018Y-117988055D01*
X131445847Y-117899301D01*
X131593440Y-117838166D01*
X131750122Y-117807000D01*
X131909878Y-117807000D01*
X132066560Y-117838166D01*
X132066560Y-117838166D01*
G37*
G36*
X144721000Y-116889000D02*
G01*
X143099000Y-116889000D01*
X143099000Y-115267000D01*
X144721000Y-115267000D01*
X144721000Y-116889000D01*
X144721000Y-116889000D01*
G37*
G36*
X109176560Y-115298166D02*
G01*
X109324153Y-115359301D01*
X109456982Y-115448055D01*
X109569945Y-115561018D01*
X109658700Y-115693849D01*
X109719834Y-115841440D01*
X109751000Y-115998122D01*
X109751000Y-116157878D01*
X109719834Y-116314560D01*
X109658699Y-116462153D01*
X109569945Y-116594982D01*
X109456982Y-116707945D01*
X109324153Y-116796699D01*
X109324152Y-116796700D01*
X109324151Y-116796700D01*
X109176560Y-116857834D01*
X109019878Y-116889000D01*
X108860122Y-116889000D01*
X108703440Y-116857834D01*
X108555849Y-116796700D01*
X108555848Y-116796700D01*
X108555847Y-116796699D01*
X108423018Y-116707945D01*
X108310055Y-116594982D01*
X108221301Y-116462153D01*
X108160166Y-116314560D01*
X108129000Y-116157878D01*
X108129000Y-115998122D01*
X108160166Y-115841440D01*
X108221300Y-115693849D01*
X108310055Y-115561018D01*
X108423018Y-115448055D01*
X108555847Y-115359301D01*
X108703440Y-115298166D01*
X108860122Y-115267000D01*
X109019878Y-115267000D01*
X109176560Y-115298166D01*
X109176560Y-115298166D01*
G37*
G36*
X119986560Y-115298166D02*
G01*
X120134153Y-115359301D01*
X120266982Y-115448055D01*
X120379945Y-115561018D01*
X120468700Y-115693849D01*
X120529834Y-115841440D01*
X120561000Y-115998122D01*
X120561000Y-116157878D01*
X120529834Y-116314560D01*
X120468699Y-116462153D01*
X120379945Y-116594982D01*
X120266982Y-116707945D01*
X120134153Y-116796699D01*
X120134152Y-116796700D01*
X120134151Y-116796700D01*
X119986560Y-116857834D01*
X119829878Y-116889000D01*
X119670122Y-116889000D01*
X119513440Y-116857834D01*
X119365849Y-116796700D01*
X119365848Y-116796700D01*
X119365847Y-116796699D01*
X119233018Y-116707945D01*
X119120055Y-116594982D01*
X119031301Y-116462153D01*
X118970166Y-116314560D01*
X118939000Y-116157878D01*
X118939000Y-115998122D01*
X118970166Y-115841440D01*
X119031300Y-115693849D01*
X119120055Y-115561018D01*
X119233018Y-115448055D01*
X119365847Y-115359301D01*
X119513440Y-115298166D01*
X119670122Y-115267000D01*
X119829878Y-115267000D01*
X119986560Y-115298166D01*
X119986560Y-115298166D01*
G37*
G36*
X122526560Y-115298166D02*
G01*
X122674153Y-115359301D01*
X122806982Y-115448055D01*
X122919945Y-115561018D01*
X123008700Y-115693849D01*
X123069834Y-115841440D01*
X123101000Y-115998122D01*
X123101000Y-116157878D01*
X123069834Y-116314560D01*
X123008699Y-116462153D01*
X122919945Y-116594982D01*
X122806982Y-116707945D01*
X122674153Y-116796699D01*
X122674152Y-116796700D01*
X122674151Y-116796700D01*
X122526560Y-116857834D01*
X122369878Y-116889000D01*
X122210122Y-116889000D01*
X122053440Y-116857834D01*
X121905849Y-116796700D01*
X121905848Y-116796700D01*
X121905847Y-116796699D01*
X121773018Y-116707945D01*
X121660055Y-116594982D01*
X121571301Y-116462153D01*
X121510166Y-116314560D01*
X121479000Y-116157878D01*
X121479000Y-115998122D01*
X121510166Y-115841440D01*
X121571300Y-115693849D01*
X121660055Y-115561018D01*
X121773018Y-115448055D01*
X121905847Y-115359301D01*
X122053440Y-115298166D01*
X122210122Y-115267000D01*
X122369878Y-115267000D01*
X122526560Y-115298166D01*
X122526560Y-115298166D01*
G37*
G36*
X106636560Y-115298166D02*
G01*
X106784153Y-115359301D01*
X106916982Y-115448055D01*
X107029945Y-115561018D01*
X107118700Y-115693849D01*
X107179834Y-115841440D01*
X107211000Y-115998122D01*
X107211000Y-116157878D01*
X107179834Y-116314560D01*
X107118699Y-116462153D01*
X107029945Y-116594982D01*
X106916982Y-116707945D01*
X106784153Y-116796699D01*
X106784152Y-116796700D01*
X106784151Y-116796700D01*
X106636560Y-116857834D01*
X106479878Y-116889000D01*
X106320122Y-116889000D01*
X106163440Y-116857834D01*
X106015849Y-116796700D01*
X106015848Y-116796700D01*
X106015847Y-116796699D01*
X105883018Y-116707945D01*
X105770055Y-116594982D01*
X105681301Y-116462153D01*
X105620166Y-116314560D01*
X105589000Y-116157878D01*
X105589000Y-115998122D01*
X105620166Y-115841440D01*
X105681300Y-115693849D01*
X105770055Y-115561018D01*
X105883018Y-115448055D01*
X106015847Y-115359301D01*
X106163440Y-115298166D01*
X106320122Y-115267000D01*
X106479878Y-115267000D01*
X106636560Y-115298166D01*
X106636560Y-115298166D01*
G37*
G36*
X131371000Y-116889000D02*
G01*
X129749000Y-116889000D01*
X129749000Y-115267000D01*
X131371000Y-115267000D01*
X131371000Y-116889000D01*
X131371000Y-116889000D01*
G37*
G36*
X133336560Y-115298166D02*
G01*
X133484153Y-115359301D01*
X133616982Y-115448055D01*
X133729945Y-115561018D01*
X133818700Y-115693849D01*
X133879834Y-115841440D01*
X133911000Y-115998122D01*
X133911000Y-116157878D01*
X133879834Y-116314560D01*
X133818699Y-116462153D01*
X133729945Y-116594982D01*
X133616982Y-116707945D01*
X133484153Y-116796699D01*
X133484152Y-116796700D01*
X133484151Y-116796700D01*
X133336560Y-116857834D01*
X133179878Y-116889000D01*
X133020122Y-116889000D01*
X132863440Y-116857834D01*
X132715849Y-116796700D01*
X132715848Y-116796700D01*
X132715847Y-116796699D01*
X132583018Y-116707945D01*
X132470055Y-116594982D01*
X132381301Y-116462153D01*
X132320166Y-116314560D01*
X132289000Y-116157878D01*
X132289000Y-115998122D01*
X132320166Y-115841440D01*
X132381300Y-115693849D01*
X132470055Y-115561018D01*
X132583018Y-115448055D01*
X132715847Y-115359301D01*
X132863440Y-115298166D01*
X133020122Y-115267000D01*
X133179878Y-115267000D01*
X133336560Y-115298166D01*
X133336560Y-115298166D01*
G37*
G36*
X135876560Y-115298166D02*
G01*
X136024153Y-115359301D01*
X136156982Y-115448055D01*
X136269945Y-115561018D01*
X136358700Y-115693849D01*
X136419834Y-115841440D01*
X136451000Y-115998122D01*
X136451000Y-116157878D01*
X136419834Y-116314560D01*
X136358699Y-116462153D01*
X136269945Y-116594982D01*
X136156982Y-116707945D01*
X136024153Y-116796699D01*
X136024152Y-116796700D01*
X136024151Y-116796700D01*
X135876560Y-116857834D01*
X135719878Y-116889000D01*
X135560122Y-116889000D01*
X135403440Y-116857834D01*
X135255849Y-116796700D01*
X135255848Y-116796700D01*
X135255847Y-116796699D01*
X135123018Y-116707945D01*
X135010055Y-116594982D01*
X134921301Y-116462153D01*
X134860166Y-116314560D01*
X134829000Y-116157878D01*
X134829000Y-115998122D01*
X134860166Y-115841440D01*
X134921300Y-115693849D01*
X135010055Y-115561018D01*
X135123018Y-115448055D01*
X135255847Y-115359301D01*
X135403440Y-115298166D01*
X135560122Y-115267000D01*
X135719878Y-115267000D01*
X135876560Y-115298166D01*
X135876560Y-115298166D01*
G37*
G36*
X118021000Y-116889000D02*
G01*
X116399000Y-116889000D01*
X116399000Y-115267000D01*
X118021000Y-115267000D01*
X118021000Y-116889000D01*
X118021000Y-116889000D01*
G37*
G36*
X146686560Y-115298166D02*
G01*
X146834153Y-115359301D01*
X146966982Y-115448055D01*
X147079945Y-115561018D01*
X147168700Y-115693849D01*
X147229834Y-115841440D01*
X147261000Y-115998122D01*
X147261000Y-116157878D01*
X147229834Y-116314560D01*
X147168699Y-116462153D01*
X147079945Y-116594982D01*
X146966982Y-116707945D01*
X146834153Y-116796699D01*
X146834152Y-116796700D01*
X146834151Y-116796700D01*
X146686560Y-116857834D01*
X146529878Y-116889000D01*
X146370122Y-116889000D01*
X146213440Y-116857834D01*
X146065849Y-116796700D01*
X146065848Y-116796700D01*
X146065847Y-116796699D01*
X145933018Y-116707945D01*
X145820055Y-116594982D01*
X145731301Y-116462153D01*
X145670166Y-116314560D01*
X145639000Y-116157878D01*
X145639000Y-115998122D01*
X145670166Y-115841440D01*
X145731300Y-115693849D01*
X145820055Y-115561018D01*
X145933018Y-115448055D01*
X146065847Y-115359301D01*
X146213440Y-115298166D01*
X146370122Y-115267000D01*
X146529878Y-115267000D01*
X146686560Y-115298166D01*
X146686560Y-115298166D01*
G37*
G36*
X149226560Y-115298166D02*
G01*
X149374153Y-115359301D01*
X149506982Y-115448055D01*
X149619945Y-115561018D01*
X149708700Y-115693849D01*
X149769834Y-115841440D01*
X149801000Y-115998122D01*
X149801000Y-116157878D01*
X149769834Y-116314560D01*
X149708699Y-116462153D01*
X149619945Y-116594982D01*
X149506982Y-116707945D01*
X149374153Y-116796699D01*
X149374152Y-116796700D01*
X149374151Y-116796700D01*
X149226560Y-116857834D01*
X149069878Y-116889000D01*
X148910122Y-116889000D01*
X148753440Y-116857834D01*
X148605849Y-116796700D01*
X148605848Y-116796700D01*
X148605847Y-116796699D01*
X148473018Y-116707945D01*
X148360055Y-116594982D01*
X148271301Y-116462153D01*
X148210166Y-116314560D01*
X148179000Y-116157878D01*
X148179000Y-115998122D01*
X148210166Y-115841440D01*
X148271300Y-115693849D01*
X148360055Y-115561018D01*
X148473018Y-115448055D01*
X148605847Y-115359301D01*
X148753440Y-115298166D01*
X148910122Y-115267000D01*
X149069878Y-115267000D01*
X149226560Y-115298166D01*
X149226560Y-115298166D01*
G37*
G36*
X104671000Y-116889000D02*
G01*
X103049000Y-116889000D01*
X103049000Y-115267000D01*
X104671000Y-115267000D01*
X104671000Y-116889000D01*
X104671000Y-116889000D01*
G37*
G36*
X159448162Y-113328368D02*
G01*
X159757724Y-113456593D01*
X159757725Y-113456594D01*
X160036324Y-113642747D01*
X160273253Y-113879676D01*
X160397637Y-114065830D01*
X160459407Y-114158276D01*
X160587632Y-114467838D01*
X160653000Y-114796465D01*
X160653000Y-115131535D01*
X160587632Y-115460162D01*
X160459407Y-115769724D01*
X160459406Y-115769725D01*
X160273253Y-116048324D01*
X160036324Y-116285253D01*
X159850170Y-116409637D01*
X159757724Y-116471407D01*
X159448162Y-116599632D01*
X159119535Y-116665000D01*
X158784465Y-116665000D01*
X158455838Y-116599632D01*
X158146276Y-116471407D01*
X158053830Y-116409637D01*
X157867676Y-116285253D01*
X157630747Y-116048324D01*
X157444594Y-115769725D01*
X157444593Y-115769724D01*
X157316368Y-115460162D01*
X157251000Y-115131535D01*
X157251000Y-114796465D01*
X157316368Y-114467838D01*
X157444593Y-114158276D01*
X157506363Y-114065830D01*
X157630747Y-113879676D01*
X157867676Y-113642747D01*
X158146275Y-113456594D01*
X158146276Y-113456593D01*
X158455838Y-113328368D01*
X158784465Y-113263000D01*
X159119535Y-113263000D01*
X159448162Y-113328368D01*
X159448162Y-113328368D01*
G37*
G36*
X83248162Y-113328368D02*
G01*
X83557724Y-113456593D01*
X83557725Y-113456594D01*
X83836324Y-113642747D01*
X84073253Y-113879676D01*
X84197637Y-114065830D01*
X84259407Y-114158276D01*
X84387632Y-114467838D01*
X84453000Y-114796465D01*
X84453000Y-115131535D01*
X84387632Y-115460162D01*
X84259407Y-115769724D01*
X84259406Y-115769725D01*
X84073253Y-116048324D01*
X83836324Y-116285253D01*
X83650170Y-116409637D01*
X83557724Y-116471407D01*
X83248162Y-116599632D01*
X82919535Y-116665000D01*
X82584465Y-116665000D01*
X82255838Y-116599632D01*
X81946276Y-116471407D01*
X81853830Y-116409637D01*
X81667676Y-116285253D01*
X81430747Y-116048324D01*
X81244594Y-115769725D01*
X81244593Y-115769724D01*
X81116368Y-115460162D01*
X81051000Y-115131535D01*
X81051000Y-114796465D01*
X81116368Y-114467838D01*
X81244593Y-114158276D01*
X81306363Y-114065830D01*
X81430747Y-113879676D01*
X81667676Y-113642747D01*
X81946275Y-113456594D01*
X81946276Y-113456593D01*
X82255838Y-113328368D01*
X82584465Y-113263000D01*
X82919535Y-113263000D01*
X83248162Y-113328368D01*
X83248162Y-113328368D01*
G37*
G36*
X141950674Y-112918465D02*
G01*
X141988367Y-112929899D01*
X142023103Y-112948466D01*
X142053548Y-112973452D01*
X142078534Y-113003897D01*
X142097101Y-113038633D01*
X142108535Y-113076326D01*
X142113000Y-113121661D01*
X142113000Y-114208339D01*
X142108535Y-114253674D01*
X142097101Y-114291367D01*
X142078534Y-114326103D01*
X142053548Y-114356548D01*
X142023103Y-114381534D01*
X141988367Y-114400101D01*
X141950674Y-114411535D01*
X141905339Y-114416000D01*
X141068661Y-114416000D01*
X141023326Y-114411535D01*
X140985633Y-114400101D01*
X140950897Y-114381534D01*
X140920452Y-114356548D01*
X140895466Y-114326103D01*
X140876899Y-114291367D01*
X140865465Y-114253674D01*
X140861000Y-114208339D01*
X140861000Y-113121661D01*
X140865465Y-113076326D01*
X140876899Y-113038633D01*
X140895466Y-113003897D01*
X140920452Y-112973452D01*
X140950897Y-112948466D01*
X140985633Y-112929899D01*
X141023326Y-112918465D01*
X141068661Y-112914000D01*
X141905339Y-112914000D01*
X141950674Y-112918465D01*
X141950674Y-112918465D01*
G37*
G36*
X139900674Y-112918465D02*
G01*
X139938367Y-112929899D01*
X139973103Y-112948466D01*
X140003548Y-112973452D01*
X140028534Y-113003897D01*
X140047101Y-113038633D01*
X140058535Y-113076326D01*
X140063000Y-113121661D01*
X140063000Y-114208339D01*
X140058535Y-114253674D01*
X140047101Y-114291367D01*
X140028534Y-114326103D01*
X140003548Y-114356548D01*
X139973103Y-114381534D01*
X139938367Y-114400101D01*
X139900674Y-114411535D01*
X139855339Y-114416000D01*
X139018661Y-114416000D01*
X138973326Y-114411535D01*
X138935633Y-114400101D01*
X138900897Y-114381534D01*
X138870452Y-114356548D01*
X138845466Y-114326103D01*
X138826899Y-114291367D01*
X138815465Y-114253674D01*
X138811000Y-114208339D01*
X138811000Y-113121661D01*
X138815465Y-113076326D01*
X138826899Y-113038633D01*
X138845466Y-113003897D01*
X138870452Y-112973452D01*
X138900897Y-112948466D01*
X138935633Y-112929899D01*
X138973326Y-112918465D01*
X139018661Y-112914000D01*
X139855339Y-112914000D01*
X139900674Y-112918465D01*
X139900674Y-112918465D01*
G37*
G36*
X129112674Y-111147465D02*
G01*
X129150367Y-111158899D01*
X129185103Y-111177466D01*
X129215548Y-111202452D01*
X129240534Y-111232897D01*
X129259101Y-111267633D01*
X129270535Y-111305326D01*
X129275000Y-111350661D01*
X129275000Y-112187339D01*
X129270535Y-112232674D01*
X129259101Y-112270367D01*
X129240534Y-112305103D01*
X129215548Y-112335548D01*
X129185103Y-112360534D01*
X129150367Y-112379101D01*
X129112674Y-112390535D01*
X129067339Y-112395000D01*
X127980661Y-112395000D01*
X127935326Y-112390535D01*
X127897633Y-112379101D01*
X127862897Y-112360534D01*
X127832452Y-112335548D01*
X127807466Y-112305103D01*
X127788899Y-112270367D01*
X127777465Y-112232674D01*
X127773000Y-112187339D01*
X127773000Y-111350661D01*
X127777465Y-111305326D01*
X127788899Y-111267633D01*
X127807466Y-111232897D01*
X127832452Y-111202452D01*
X127862897Y-111177466D01*
X127897633Y-111158899D01*
X127935326Y-111147465D01*
X127980661Y-111143000D01*
X129067339Y-111143000D01*
X129112674Y-111147465D01*
X129112674Y-111147465D01*
G37*
G36*
X131144674Y-111147465D02*
G01*
X131182367Y-111158899D01*
X131217103Y-111177466D01*
X131247548Y-111202452D01*
X131272534Y-111232897D01*
X131291101Y-111267633D01*
X131302535Y-111305326D01*
X131307000Y-111350661D01*
X131307000Y-112187339D01*
X131302535Y-112232674D01*
X131291101Y-112270367D01*
X131272534Y-112305103D01*
X131247548Y-112335548D01*
X131217103Y-112360534D01*
X131182367Y-112379101D01*
X131144674Y-112390535D01*
X131099339Y-112395000D01*
X130012661Y-112395000D01*
X129967326Y-112390535D01*
X129929633Y-112379101D01*
X129894897Y-112360534D01*
X129864452Y-112335548D01*
X129839466Y-112305103D01*
X129820899Y-112270367D01*
X129809465Y-112232674D01*
X129805000Y-112187339D01*
X129805000Y-111350661D01*
X129809465Y-111305326D01*
X129820899Y-111267633D01*
X129839466Y-111232897D01*
X129864452Y-111202452D01*
X129894897Y-111177466D01*
X129929633Y-111158899D01*
X129967326Y-111147465D01*
X130012661Y-111143000D01*
X131099339Y-111143000D01*
X131144674Y-111147465D01*
X131144674Y-111147465D01*
G37*
G36*
X141802000Y-112264000D02*
G01*
X140900000Y-112264000D01*
X140900000Y-110912000D01*
X141802000Y-110912000D01*
X141802000Y-112264000D01*
X141802000Y-112264000D01*
G37*
G36*
X140002000Y-112264000D02*
G01*
X139100000Y-112264000D01*
X139100000Y-110912000D01*
X140002000Y-110912000D01*
X140002000Y-112264000D01*
X140002000Y-112264000D01*
G37*
G36*
X162331000Y-110881000D02*
G01*
X160729000Y-110881000D01*
X160729000Y-108779000D01*
X162331000Y-108779000D01*
X162331000Y-110881000D01*
X162331000Y-110881000D01*
G37*
G36*
X164631000Y-110881000D02*
G01*
X163029000Y-110881000D01*
X163029000Y-108779000D01*
X164631000Y-108779000D01*
X164631000Y-110881000D01*
X164631000Y-110881000D01*
G37*
G36*
X166931000Y-110881000D02*
G01*
X165329000Y-110881000D01*
X165329000Y-108779000D01*
X166931000Y-108779000D01*
X166931000Y-110881000D01*
X166931000Y-110881000D01*
G37*
G36*
X141802000Y-110614000D02*
G01*
X140900000Y-110614000D01*
X140900000Y-109262000D01*
X141802000Y-109262000D01*
X141802000Y-110614000D01*
X141802000Y-110614000D01*
G37*
G36*
X140002000Y-110614000D02*
G01*
X139100000Y-110614000D01*
X139100000Y-109262000D01*
X140002000Y-109262000D01*
X140002000Y-110614000D01*
X140002000Y-110614000D01*
G37*
G36*
X131144674Y-109097465D02*
G01*
X131182367Y-109108899D01*
X131217103Y-109127466D01*
X131247548Y-109152452D01*
X131272534Y-109182897D01*
X131291101Y-109217633D01*
X131302535Y-109255326D01*
X131307000Y-109300661D01*
X131307000Y-110137339D01*
X131302535Y-110182674D01*
X131291101Y-110220367D01*
X131272534Y-110255103D01*
X131247548Y-110285548D01*
X131217103Y-110310534D01*
X131182367Y-110329101D01*
X131144674Y-110340535D01*
X131099339Y-110345000D01*
X130012661Y-110345000D01*
X129967326Y-110340535D01*
X129929633Y-110329101D01*
X129894897Y-110310534D01*
X129864452Y-110285548D01*
X129839466Y-110255103D01*
X129820899Y-110220367D01*
X129809465Y-110182674D01*
X129805000Y-110137339D01*
X129805000Y-109300661D01*
X129809465Y-109255326D01*
X129820899Y-109217633D01*
X129839466Y-109182897D01*
X129864452Y-109152452D01*
X129894897Y-109127466D01*
X129929633Y-109108899D01*
X129967326Y-109097465D01*
X130012661Y-109093000D01*
X131099339Y-109093000D01*
X131144674Y-109097465D01*
X131144674Y-109097465D01*
G37*
G36*
X129112674Y-109097465D02*
G01*
X129150367Y-109108899D01*
X129185103Y-109127466D01*
X129215548Y-109152452D01*
X129240534Y-109182897D01*
X129259101Y-109217633D01*
X129270535Y-109255326D01*
X129275000Y-109300661D01*
X129275000Y-110137339D01*
X129270535Y-110182674D01*
X129259101Y-110220367D01*
X129240534Y-110255103D01*
X129215548Y-110285548D01*
X129185103Y-110310534D01*
X129150367Y-110329101D01*
X129112674Y-110340535D01*
X129067339Y-110345000D01*
X127980661Y-110345000D01*
X127935326Y-110340535D01*
X127897633Y-110329101D01*
X127862897Y-110310534D01*
X127832452Y-110285548D01*
X127807466Y-110255103D01*
X127788899Y-110220367D01*
X127777465Y-110182674D01*
X127773000Y-110137339D01*
X127773000Y-109300661D01*
X127777465Y-109255326D01*
X127788899Y-109217633D01*
X127807466Y-109182897D01*
X127832452Y-109152452D01*
X127862897Y-109127466D01*
X127897633Y-109108899D01*
X127935326Y-109097465D01*
X127980661Y-109093000D01*
X129067339Y-109093000D01*
X129112674Y-109097465D01*
X129112674Y-109097465D01*
G37*
G36*
X77909142Y-108692242D02*
G01*
X78057101Y-108753529D01*
X78190255Y-108842499D01*
X78303501Y-108955745D01*
X78392471Y-109088899D01*
X78453758Y-109236858D01*
X78485000Y-109393925D01*
X78485000Y-109554075D01*
X78453758Y-109711142D01*
X78392471Y-109859101D01*
X78303501Y-109992255D01*
X78190255Y-110105501D01*
X78057101Y-110194471D01*
X77909142Y-110255758D01*
X77752075Y-110287000D01*
X77591925Y-110287000D01*
X77434858Y-110255758D01*
X77286899Y-110194471D01*
X77153745Y-110105501D01*
X77040499Y-109992255D01*
X76951529Y-109859101D01*
X76890242Y-109711142D01*
X76859000Y-109554075D01*
X76859000Y-109393925D01*
X76890242Y-109236858D01*
X76951529Y-109088899D01*
X77040499Y-108955745D01*
X77153745Y-108842499D01*
X77286899Y-108753529D01*
X77434858Y-108692242D01*
X77591925Y-108661000D01*
X77752075Y-108661000D01*
X77909142Y-108692242D01*
X77909142Y-108692242D01*
G37*
G36*
X150436000Y-109047000D02*
G01*
X149634000Y-109047000D01*
X149634000Y-106345000D01*
X150436000Y-106345000D01*
X150436000Y-109047000D01*
X150436000Y-109047000D01*
G37*
G36*
X153436000Y-109047000D02*
G01*
X152634000Y-109047000D01*
X152634000Y-106345000D01*
X153436000Y-106345000D01*
X153436000Y-109047000D01*
X153436000Y-109047000D01*
G37*
G36*
X151936000Y-109047000D02*
G01*
X151134000Y-109047000D01*
X151134000Y-106345000D01*
X151936000Y-106345000D01*
X151936000Y-109047000D01*
X151936000Y-109047000D01*
G37*
G36*
X156436000Y-109047000D02*
G01*
X155634000Y-109047000D01*
X155634000Y-106345000D01*
X156436000Y-106345000D01*
X156436000Y-109047000D01*
X156436000Y-109047000D01*
G37*
G36*
X154936000Y-109047000D02*
G01*
X154134000Y-109047000D01*
X154134000Y-106345000D01*
X154936000Y-106345000D01*
X154936000Y-109047000D01*
X154936000Y-109047000D01*
G37*
G36*
X77909142Y-106152242D02*
G01*
X78057101Y-106213529D01*
X78190255Y-106302499D01*
X78303501Y-106415745D01*
X78392471Y-106548899D01*
X78453758Y-106696858D01*
X78485000Y-106853925D01*
X78485000Y-107014075D01*
X78453758Y-107171142D01*
X78392471Y-107319101D01*
X78303501Y-107452255D01*
X78190255Y-107565501D01*
X78057101Y-107654471D01*
X77909142Y-107715758D01*
X77752075Y-107747000D01*
X77591925Y-107747000D01*
X77434858Y-107715758D01*
X77286899Y-107654471D01*
X77153745Y-107565501D01*
X77040499Y-107452255D01*
X76951529Y-107319101D01*
X76890242Y-107171142D01*
X76859000Y-107014075D01*
X76859000Y-106853925D01*
X76890242Y-106696858D01*
X76951529Y-106548899D01*
X77040499Y-106415745D01*
X77153745Y-106302499D01*
X77286899Y-106213529D01*
X77434858Y-106152242D01*
X77591925Y-106121000D01*
X77752075Y-106121000D01*
X77909142Y-106152242D01*
X77909142Y-106152242D01*
G37*
G36*
X172643410Y-105116025D02*
G01*
X172728426Y-105141814D01*
X172806775Y-105183693D01*
X172875449Y-105240051D01*
X172931807Y-105308725D01*
X172973686Y-105387074D01*
X172999475Y-105472090D01*
X173008182Y-105560500D01*
X172999475Y-105648910D01*
X172973686Y-105733926D01*
X172931807Y-105812275D01*
X172875449Y-105880949D01*
X172806775Y-105937307D01*
X172728426Y-105979186D01*
X172643410Y-106004975D01*
X172577158Y-106011500D01*
X172532842Y-106011500D01*
X172466588Y-106004975D01*
X172410477Y-105987954D01*
X172386444Y-105983174D01*
X172361940Y-105983174D01*
X172337907Y-105987955D01*
X172315268Y-105997332D01*
X172294894Y-106010946D01*
X172277567Y-106028273D01*
X172263953Y-106048648D01*
X172254576Y-106071287D01*
X172249796Y-106095320D01*
X172249796Y-106119824D01*
X172254577Y-106143857D01*
X172263954Y-106166496D01*
X172277568Y-106186870D01*
X172294895Y-106204197D01*
X172331369Y-106234131D01*
X172424820Y-106348001D01*
X172428345Y-106352296D01*
X172500398Y-106487098D01*
X172544772Y-106633379D01*
X172559754Y-106785500D01*
X172544772Y-106937621D01*
X172500398Y-107083902D01*
X172428345Y-107218704D01*
X172428343Y-107218707D01*
X172428342Y-107218708D01*
X172345952Y-107319100D01*
X172331369Y-107336869D01*
X172213204Y-107433845D01*
X172078402Y-107505898D01*
X171932121Y-107550272D01*
X171818118Y-107561500D01*
X171191882Y-107561500D01*
X171077879Y-107550272D01*
X170931598Y-107505898D01*
X170796796Y-107433845D01*
X170678631Y-107336869D01*
X170664048Y-107319100D01*
X170581658Y-107218708D01*
X170581657Y-107218707D01*
X170581655Y-107218704D01*
X170509602Y-107083902D01*
X170465228Y-106937621D01*
X170450246Y-106785500D01*
X170465228Y-106633379D01*
X170509602Y-106487098D01*
X170581655Y-106352296D01*
X170585181Y-106348000D01*
X170678631Y-106234131D01*
X170796792Y-106137158D01*
X170796793Y-106137157D01*
X170796796Y-106137155D01*
X170931598Y-106065102D01*
X171077879Y-106020728D01*
X171191882Y-106009500D01*
X171818118Y-106009500D01*
X171932121Y-106020728D01*
X172085790Y-106067343D01*
X172094249Y-106070846D01*
X172118283Y-106075624D01*
X172142787Y-106075622D01*
X172166820Y-106070839D01*
X172189458Y-106061459D01*
X172209831Y-106047844D01*
X172227156Y-106030515D01*
X172240768Y-106010139D01*
X172250143Y-105987500D01*
X172254921Y-105963466D01*
X172254919Y-105938962D01*
X172250136Y-105914929D01*
X172240756Y-105892291D01*
X172227149Y-105871928D01*
X172178193Y-105812275D01*
X172136314Y-105733926D01*
X172110525Y-105648910D01*
X172101818Y-105560500D01*
X172110525Y-105472090D01*
X172136314Y-105387074D01*
X172178193Y-105308725D01*
X172234551Y-105240051D01*
X172303225Y-105183693D01*
X172381574Y-105141814D01*
X172466590Y-105116025D01*
X172532842Y-105109500D01*
X172577158Y-105109500D01*
X172643410Y-105116025D01*
X172643410Y-105116025D01*
G37*
G36*
X175752715Y-106318558D02*
G01*
X175839883Y-106345000D01*
X175863935Y-106352296D01*
X175870722Y-106354355D01*
X175979468Y-106412481D01*
X176074790Y-106490710D01*
X176153019Y-106586032D01*
X176211145Y-106694778D01*
X176246942Y-106812785D01*
X176259028Y-106935500D01*
X176246942Y-107058215D01*
X176211145Y-107176222D01*
X176153019Y-107284968D01*
X176074790Y-107380290D01*
X175979468Y-107458519D01*
X175870722Y-107516645D01*
X175752715Y-107552442D01*
X175660746Y-107561500D01*
X174949254Y-107561500D01*
X174857285Y-107552442D01*
X174739278Y-107516645D01*
X174630532Y-107458519D01*
X174535210Y-107380290D01*
X174456981Y-107284968D01*
X174398855Y-107176222D01*
X174363058Y-107058215D01*
X174350972Y-106935500D01*
X174363058Y-106812785D01*
X174398855Y-106694778D01*
X174456981Y-106586032D01*
X174535210Y-106490710D01*
X174630532Y-106412481D01*
X174739278Y-106354355D01*
X174746066Y-106352296D01*
X174770117Y-106345000D01*
X174857285Y-106318558D01*
X174949254Y-106309500D01*
X175660746Y-106309500D01*
X175752715Y-106318558D01*
X175752715Y-106318558D01*
G37*
G36*
X94236929Y-104983080D02*
G01*
X94410000Y-105054768D01*
X94410001Y-105054769D01*
X94565761Y-105158844D01*
X94698224Y-105291307D01*
X94698225Y-105291309D01*
X94802300Y-105447068D01*
X94873988Y-105620139D01*
X94910534Y-105803867D01*
X94910534Y-105991201D01*
X94873988Y-106174929D01*
X94802300Y-106348000D01*
X94757034Y-106415745D01*
X94698224Y-106503761D01*
X94565761Y-106636224D01*
X94487352Y-106688615D01*
X94410000Y-106740300D01*
X94236929Y-106811988D01*
X94053201Y-106848534D01*
X93865867Y-106848534D01*
X93682139Y-106811988D01*
X93509068Y-106740300D01*
X93431716Y-106688615D01*
X93353307Y-106636224D01*
X93220844Y-106503761D01*
X93162034Y-106415745D01*
X93116768Y-106348000D01*
X93045080Y-106174929D01*
X93008534Y-105991201D01*
X93008534Y-105803867D01*
X93045080Y-105620139D01*
X93116768Y-105447068D01*
X93220843Y-105291309D01*
X93220844Y-105291307D01*
X93353307Y-105158844D01*
X93509067Y-105054769D01*
X93509068Y-105054768D01*
X93682139Y-104983080D01*
X93865867Y-104946534D01*
X94053201Y-104946534D01*
X94236929Y-104983080D01*
X94236929Y-104983080D01*
G37*
G36*
X77909142Y-103612242D02*
G01*
X78057101Y-103673529D01*
X78190255Y-103762499D01*
X78303501Y-103875745D01*
X78392471Y-104008899D01*
X78453758Y-104156858D01*
X78485000Y-104313925D01*
X78485000Y-104474075D01*
X78453758Y-104631142D01*
X78392471Y-104779101D01*
X78303501Y-104912255D01*
X78190255Y-105025501D01*
X78057101Y-105114471D01*
X77909142Y-105175758D01*
X77752075Y-105207000D01*
X77591925Y-105207000D01*
X77434858Y-105175758D01*
X77286899Y-105114471D01*
X77153745Y-105025501D01*
X77040499Y-104912255D01*
X76951529Y-104779101D01*
X76890242Y-104631142D01*
X76859000Y-104474075D01*
X76859000Y-104313925D01*
X76890242Y-104156858D01*
X76951529Y-104008899D01*
X77040499Y-103875745D01*
X77153745Y-103762499D01*
X77286899Y-103673529D01*
X77434858Y-103612242D01*
X77591925Y-103581000D01*
X77752075Y-103581000D01*
X77909142Y-103612242D01*
X77909142Y-103612242D01*
G37*
G36*
X158586000Y-105047000D02*
G01*
X157384000Y-105047000D01*
X157384000Y-103045000D01*
X158586000Y-103045000D01*
X158586000Y-105047000D01*
X158586000Y-105047000D01*
G37*
G36*
X148686000Y-105047000D02*
G01*
X147484000Y-105047000D01*
X147484000Y-103045000D01*
X148686000Y-103045000D01*
X148686000Y-105047000D01*
X148686000Y-105047000D01*
G37*
G36*
X165781000Y-104581000D02*
G01*
X161879000Y-104581000D01*
X161879000Y-102479000D01*
X165781000Y-102479000D01*
X165781000Y-104581000D01*
X165781000Y-104581000D01*
G37*
G36*
X77909142Y-101072242D02*
G01*
X78057101Y-101133529D01*
X78190255Y-101222499D01*
X78303501Y-101335745D01*
X78392471Y-101468899D01*
X78453758Y-101616858D01*
X78485000Y-101773925D01*
X78485000Y-101934075D01*
X78453758Y-102091142D01*
X78392471Y-102239101D01*
X78303501Y-102372255D01*
X78190255Y-102485501D01*
X78057101Y-102574471D01*
X77909142Y-102635758D01*
X77752075Y-102667000D01*
X77591925Y-102667000D01*
X77434858Y-102635758D01*
X77286899Y-102574471D01*
X77153745Y-102485501D01*
X77040499Y-102372255D01*
X76951529Y-102239101D01*
X76890242Y-102091142D01*
X76859000Y-101934075D01*
X76859000Y-101773925D01*
X76890242Y-101616858D01*
X76951529Y-101468899D01*
X77040499Y-101335745D01*
X77153745Y-101222499D01*
X77286899Y-101133529D01*
X77434858Y-101072242D01*
X77591925Y-101041000D01*
X77752075Y-101041000D01*
X77909142Y-101072242D01*
X77909142Y-101072242D01*
G37*
G36*
X104533000Y-102501000D02*
G01*
X102731000Y-102501000D01*
X102731000Y-100699000D01*
X104533000Y-100699000D01*
X104533000Y-102501000D01*
X104533000Y-102501000D01*
G37*
G36*
X106282443Y-100705519D02*
G01*
X106348627Y-100712037D01*
X106518466Y-100763557D01*
X106674991Y-100847222D01*
X106697901Y-100866024D01*
X106812186Y-100959814D01*
X106895448Y-101061271D01*
X106924778Y-101097009D01*
X107008443Y-101253534D01*
X107059963Y-101423373D01*
X107077359Y-101600000D01*
X107059963Y-101776627D01*
X107008443Y-101946466D01*
X106924778Y-102102991D01*
X106895448Y-102138729D01*
X106812186Y-102240186D01*
X106710729Y-102323448D01*
X106674991Y-102352778D01*
X106518466Y-102436443D01*
X106348627Y-102487963D01*
X106282442Y-102494482D01*
X106216260Y-102501000D01*
X106127740Y-102501000D01*
X106061558Y-102494482D01*
X105995373Y-102487963D01*
X105825534Y-102436443D01*
X105669009Y-102352778D01*
X105633271Y-102323448D01*
X105531814Y-102240186D01*
X105448552Y-102138729D01*
X105419222Y-102102991D01*
X105335557Y-101946466D01*
X105284037Y-101776627D01*
X105266641Y-101600000D01*
X105284037Y-101423373D01*
X105335557Y-101253534D01*
X105419222Y-101097009D01*
X105448552Y-101061271D01*
X105531814Y-100959814D01*
X105646099Y-100866024D01*
X105669009Y-100847222D01*
X105825534Y-100763557D01*
X105995373Y-100712037D01*
X106061557Y-100705519D01*
X106127740Y-100699000D01*
X106216260Y-100699000D01*
X106282443Y-100705519D01*
X106282443Y-100705519D01*
G37*
G36*
X108822443Y-100705519D02*
G01*
X108888627Y-100712037D01*
X109058466Y-100763557D01*
X109214991Y-100847222D01*
X109237901Y-100866024D01*
X109352186Y-100959814D01*
X109435448Y-101061271D01*
X109464778Y-101097009D01*
X109548443Y-101253534D01*
X109599963Y-101423373D01*
X109617359Y-101600000D01*
X109599963Y-101776627D01*
X109548443Y-101946466D01*
X109464778Y-102102991D01*
X109435448Y-102138729D01*
X109352186Y-102240186D01*
X109250729Y-102323448D01*
X109214991Y-102352778D01*
X109058466Y-102436443D01*
X108888627Y-102487963D01*
X108822442Y-102494482D01*
X108756260Y-102501000D01*
X108667740Y-102501000D01*
X108601558Y-102494482D01*
X108535373Y-102487963D01*
X108365534Y-102436443D01*
X108209009Y-102352778D01*
X108173271Y-102323448D01*
X108071814Y-102240186D01*
X107988552Y-102138729D01*
X107959222Y-102102991D01*
X107875557Y-101946466D01*
X107824037Y-101776627D01*
X107806641Y-101600000D01*
X107824037Y-101423373D01*
X107875557Y-101253534D01*
X107959222Y-101097009D01*
X107988552Y-101061271D01*
X108071814Y-100959814D01*
X108186099Y-100866024D01*
X108209009Y-100847222D01*
X108365534Y-100763557D01*
X108535373Y-100712037D01*
X108601557Y-100705519D01*
X108667740Y-100699000D01*
X108756260Y-100699000D01*
X108822443Y-100705519D01*
X108822443Y-100705519D01*
G37*
G36*
X111362443Y-100705519D02*
G01*
X111428627Y-100712037D01*
X111598466Y-100763557D01*
X111754991Y-100847222D01*
X111777901Y-100866024D01*
X111892186Y-100959814D01*
X111975448Y-101061271D01*
X112004778Y-101097009D01*
X112088443Y-101253534D01*
X112139963Y-101423373D01*
X112157359Y-101600000D01*
X112139963Y-101776627D01*
X112088443Y-101946466D01*
X112004778Y-102102991D01*
X111975448Y-102138729D01*
X111892186Y-102240186D01*
X111790729Y-102323448D01*
X111754991Y-102352778D01*
X111598466Y-102436443D01*
X111428627Y-102487963D01*
X111362442Y-102494482D01*
X111296260Y-102501000D01*
X111207740Y-102501000D01*
X111141558Y-102494482D01*
X111075373Y-102487963D01*
X110905534Y-102436443D01*
X110749009Y-102352778D01*
X110713271Y-102323448D01*
X110611814Y-102240186D01*
X110528552Y-102138729D01*
X110499222Y-102102991D01*
X110415557Y-101946466D01*
X110364037Y-101776627D01*
X110346641Y-101600000D01*
X110364037Y-101423373D01*
X110415557Y-101253534D01*
X110499222Y-101097009D01*
X110528552Y-101061271D01*
X110611814Y-100959814D01*
X110726099Y-100866024D01*
X110749009Y-100847222D01*
X110905534Y-100763557D01*
X111075373Y-100712037D01*
X111141557Y-100705519D01*
X111207740Y-100699000D01*
X111296260Y-100699000D01*
X111362443Y-100705519D01*
X111362443Y-100705519D01*
G37*
G36*
X171932121Y-98570728D02*
G01*
X172078402Y-98615102D01*
X172213204Y-98687155D01*
X172213207Y-98687157D01*
X172213208Y-98687158D01*
X172331369Y-98784131D01*
X172373963Y-98836031D01*
X172428345Y-98902296D01*
X172500398Y-99037098D01*
X172544772Y-99183379D01*
X172559754Y-99335500D01*
X172544772Y-99487621D01*
X172500398Y-99633902D01*
X172428345Y-99768704D01*
X172428343Y-99768707D01*
X172428342Y-99768708D01*
X172406805Y-99794951D01*
X172331367Y-99886871D01*
X172294895Y-99916803D01*
X172277568Y-99934130D01*
X172263954Y-99954504D01*
X172254577Y-99977143D01*
X172249796Y-100001176D01*
X172249796Y-100025680D01*
X172254576Y-100049713D01*
X172263953Y-100072352D01*
X172277567Y-100092727D01*
X172294894Y-100110054D01*
X172315268Y-100123668D01*
X172337907Y-100133045D01*
X172361940Y-100137826D01*
X172386444Y-100137826D01*
X172410477Y-100133046D01*
X172466588Y-100116025D01*
X172532842Y-100109500D01*
X172577158Y-100109500D01*
X172643410Y-100116025D01*
X172728426Y-100141814D01*
X172806775Y-100183693D01*
X172875449Y-100240051D01*
X172931807Y-100308725D01*
X172973686Y-100387074D01*
X172999475Y-100472090D01*
X173008182Y-100560500D01*
X172999475Y-100648910D01*
X172973686Y-100733926D01*
X172931807Y-100812275D01*
X172875449Y-100880949D01*
X172806775Y-100937307D01*
X172728426Y-100979186D01*
X172643410Y-101004975D01*
X172577158Y-101011500D01*
X172532842Y-101011500D01*
X172466590Y-101004975D01*
X172381574Y-100979186D01*
X172303225Y-100937307D01*
X172234551Y-100880949D01*
X172178193Y-100812275D01*
X172136314Y-100733926D01*
X172110525Y-100648910D01*
X172101818Y-100560500D01*
X172110525Y-100472090D01*
X172136314Y-100387074D01*
X172178193Y-100308725D01*
X172227149Y-100249072D01*
X172240762Y-100228698D01*
X172250140Y-100206059D01*
X172254920Y-100182026D01*
X172254920Y-100157522D01*
X172250139Y-100133488D01*
X172240762Y-100110850D01*
X172227148Y-100090475D01*
X172209821Y-100073148D01*
X172189447Y-100059535D01*
X172166808Y-100050157D01*
X172142775Y-100045377D01*
X172118271Y-100045377D01*
X172094237Y-100050158D01*
X172085784Y-100053659D01*
X171932121Y-100100272D01*
X171818118Y-100111500D01*
X171191882Y-100111500D01*
X171077879Y-100100272D01*
X170948329Y-100060973D01*
X170931601Y-100055899D01*
X170931598Y-100055898D01*
X170796796Y-99983845D01*
X170788630Y-99977143D01*
X170678631Y-99886869D01*
X170581658Y-99768708D01*
X170581657Y-99768707D01*
X170581655Y-99768704D01*
X170509602Y-99633902D01*
X170465228Y-99487621D01*
X170450246Y-99335500D01*
X170465228Y-99183379D01*
X170509602Y-99037098D01*
X170581655Y-98902296D01*
X170636038Y-98836031D01*
X170678631Y-98784131D01*
X170796792Y-98687158D01*
X170796793Y-98687157D01*
X170796796Y-98687155D01*
X170931598Y-98615102D01*
X171077879Y-98570728D01*
X171191882Y-98559500D01*
X171818118Y-98559500D01*
X171932121Y-98570728D01*
X171932121Y-98570728D01*
G37*
G36*
X139612823Y-99237313D02*
G01*
X139773242Y-99285976D01*
X139905906Y-99356886D01*
X139921078Y-99364996D01*
X140050659Y-99471341D01*
X140157004Y-99600922D01*
X140157005Y-99600924D01*
X140236024Y-99748758D01*
X140284687Y-99909177D01*
X140301117Y-100076000D01*
X140284687Y-100242823D01*
X140236024Y-100403242D01*
X140199224Y-100472089D01*
X140157004Y-100551078D01*
X140050659Y-100680659D01*
X139921078Y-100787004D01*
X139921076Y-100787005D01*
X139773242Y-100866024D01*
X139612823Y-100914687D01*
X139487804Y-100927000D01*
X139404196Y-100927000D01*
X139279177Y-100914687D01*
X139118758Y-100866024D01*
X138970924Y-100787005D01*
X138970922Y-100787004D01*
X138841341Y-100680659D01*
X138734996Y-100551078D01*
X138692776Y-100472089D01*
X138655976Y-100403242D01*
X138607313Y-100242823D01*
X138590883Y-100076000D01*
X138607313Y-99909177D01*
X138655976Y-99748758D01*
X138734995Y-99600924D01*
X138734996Y-99600922D01*
X138841341Y-99471341D01*
X138970922Y-99364996D01*
X138986094Y-99356886D01*
X139118758Y-99285976D01*
X139279177Y-99237313D01*
X139404196Y-99225000D01*
X139487804Y-99225000D01*
X139612823Y-99237313D01*
X139612823Y-99237313D01*
G37*
G36*
X144692823Y-99237313D02*
G01*
X144853242Y-99285976D01*
X144985906Y-99356886D01*
X145001078Y-99364996D01*
X145130659Y-99471341D01*
X145237004Y-99600922D01*
X145237005Y-99600924D01*
X145316024Y-99748758D01*
X145364687Y-99909177D01*
X145381117Y-100076000D01*
X145364687Y-100242823D01*
X145316024Y-100403242D01*
X145279224Y-100472089D01*
X145237004Y-100551078D01*
X145130659Y-100680659D01*
X145001078Y-100787004D01*
X145001076Y-100787005D01*
X144853242Y-100866024D01*
X144692823Y-100914687D01*
X144567804Y-100927000D01*
X144484196Y-100927000D01*
X144359177Y-100914687D01*
X144198758Y-100866024D01*
X144050924Y-100787005D01*
X144050922Y-100787004D01*
X143921341Y-100680659D01*
X143814996Y-100551078D01*
X143772776Y-100472089D01*
X143735976Y-100403242D01*
X143687313Y-100242823D01*
X143670883Y-100076000D01*
X143687313Y-99909177D01*
X143735976Y-99748758D01*
X143814995Y-99600924D01*
X143814996Y-99600922D01*
X143921341Y-99471341D01*
X144050922Y-99364996D01*
X144066094Y-99356886D01*
X144198758Y-99285976D01*
X144359177Y-99237313D01*
X144484196Y-99225000D01*
X144567804Y-99225000D01*
X144692823Y-99237313D01*
X144692823Y-99237313D01*
G37*
G36*
X142152823Y-99237313D02*
G01*
X142313242Y-99285976D01*
X142445906Y-99356886D01*
X142461078Y-99364996D01*
X142590659Y-99471341D01*
X142697004Y-99600922D01*
X142697005Y-99600924D01*
X142776024Y-99748758D01*
X142824687Y-99909177D01*
X142841117Y-100076000D01*
X142824687Y-100242823D01*
X142776024Y-100403242D01*
X142739224Y-100472089D01*
X142697004Y-100551078D01*
X142590659Y-100680659D01*
X142461078Y-100787004D01*
X142461076Y-100787005D01*
X142313242Y-100866024D01*
X142152823Y-100914687D01*
X142027804Y-100927000D01*
X141944196Y-100927000D01*
X141819177Y-100914687D01*
X141658758Y-100866024D01*
X141510924Y-100787005D01*
X141510922Y-100787004D01*
X141381341Y-100680659D01*
X141274996Y-100551078D01*
X141232776Y-100472089D01*
X141195976Y-100403242D01*
X141147313Y-100242823D01*
X141130883Y-100076000D01*
X141147313Y-99909177D01*
X141195976Y-99748758D01*
X141274995Y-99600924D01*
X141274996Y-99600922D01*
X141381341Y-99471341D01*
X141510922Y-99364996D01*
X141526094Y-99356886D01*
X141658758Y-99285976D01*
X141819177Y-99237313D01*
X141944196Y-99225000D01*
X142027804Y-99225000D01*
X142152823Y-99237313D01*
X142152823Y-99237313D01*
G37*
G36*
X147232823Y-99237313D02*
G01*
X147393242Y-99285976D01*
X147525906Y-99356886D01*
X147541078Y-99364996D01*
X147670659Y-99471341D01*
X147777004Y-99600922D01*
X147777005Y-99600924D01*
X147856024Y-99748758D01*
X147904687Y-99909177D01*
X147921117Y-100076000D01*
X147904687Y-100242823D01*
X147856024Y-100403242D01*
X147819224Y-100472089D01*
X147777004Y-100551078D01*
X147670659Y-100680659D01*
X147541078Y-100787004D01*
X147541076Y-100787005D01*
X147393242Y-100866024D01*
X147232823Y-100914687D01*
X147107804Y-100927000D01*
X147024196Y-100927000D01*
X146899177Y-100914687D01*
X146738758Y-100866024D01*
X146590924Y-100787005D01*
X146590922Y-100787004D01*
X146461341Y-100680659D01*
X146354996Y-100551078D01*
X146312776Y-100472089D01*
X146275976Y-100403242D01*
X146227313Y-100242823D01*
X146210883Y-100076000D01*
X146227313Y-99909177D01*
X146275976Y-99748758D01*
X146354995Y-99600924D01*
X146354996Y-99600922D01*
X146461341Y-99471341D01*
X146590922Y-99364996D01*
X146606094Y-99356886D01*
X146738758Y-99285976D01*
X146899177Y-99237313D01*
X147024196Y-99225000D01*
X147107804Y-99225000D01*
X147232823Y-99237313D01*
X147232823Y-99237313D01*
G37*
G36*
X150457000Y-100927000D02*
G01*
X148755000Y-100927000D01*
X148755000Y-99225000D01*
X150457000Y-99225000D01*
X150457000Y-100927000D01*
X150457000Y-100927000D01*
G37*
G36*
X72257256Y-97133798D02*
G01*
X72363579Y-97154947D01*
X72664042Y-97279403D01*
X72934451Y-97460085D01*
X73164415Y-97690049D01*
X73345097Y-97960458D01*
X73345098Y-97960460D01*
X73469553Y-98260922D01*
X73533000Y-98579889D01*
X73533000Y-98905111D01*
X73525109Y-98944781D01*
X73469553Y-99224079D01*
X73345097Y-99524542D01*
X73164415Y-99794951D01*
X72934451Y-100024915D01*
X72664042Y-100205597D01*
X72363579Y-100330053D01*
X72257256Y-100351202D01*
X72044611Y-100393500D01*
X71719389Y-100393500D01*
X71506744Y-100351202D01*
X71400421Y-100330053D01*
X71099958Y-100205597D01*
X70829549Y-100024915D01*
X70599585Y-99794951D01*
X70418903Y-99524542D01*
X70294447Y-99224079D01*
X70238891Y-98944781D01*
X70231000Y-98905111D01*
X70231000Y-98579889D01*
X70294447Y-98260922D01*
X70418902Y-97960460D01*
X70418903Y-97960458D01*
X70599585Y-97690049D01*
X70829549Y-97460085D01*
X71099958Y-97279403D01*
X71400421Y-97154947D01*
X71506744Y-97133798D01*
X71719389Y-97091500D01*
X72044611Y-97091500D01*
X72257256Y-97133798D01*
X72257256Y-97133798D01*
G37*
G36*
X77909142Y-98532242D02*
G01*
X78057101Y-98593529D01*
X78190255Y-98682499D01*
X78303501Y-98795745D01*
X78392471Y-98928899D01*
X78453758Y-99076858D01*
X78485000Y-99233925D01*
X78485000Y-99394075D01*
X78453758Y-99551142D01*
X78392471Y-99699101D01*
X78303501Y-99832255D01*
X78190255Y-99945501D01*
X78057101Y-100034471D01*
X77909142Y-100095758D01*
X77752075Y-100127000D01*
X77591925Y-100127000D01*
X77434858Y-100095758D01*
X77286899Y-100034471D01*
X77153745Y-99945501D01*
X77040499Y-99832255D01*
X76951529Y-99699101D01*
X76890242Y-99551142D01*
X76859000Y-99394075D01*
X76859000Y-99233925D01*
X76890242Y-99076858D01*
X76951529Y-98928899D01*
X77040499Y-98795745D01*
X77153745Y-98682499D01*
X77286899Y-98593529D01*
X77434858Y-98532242D01*
X77591925Y-98501000D01*
X77752075Y-98501000D01*
X77909142Y-98532242D01*
X77909142Y-98532242D01*
G37*
G36*
X175752715Y-98568558D02*
G01*
X175870722Y-98604355D01*
X175979468Y-98662481D01*
X176074790Y-98740710D01*
X176153019Y-98836032D01*
X176211145Y-98944778D01*
X176246942Y-99062785D01*
X176259028Y-99185500D01*
X176246942Y-99308215D01*
X176211145Y-99426222D01*
X176153019Y-99534968D01*
X176074790Y-99630290D01*
X175979468Y-99708519D01*
X175870722Y-99766645D01*
X175870719Y-99766646D01*
X175863921Y-99768708D01*
X175752715Y-99802442D01*
X175660746Y-99811500D01*
X174949254Y-99811500D01*
X174857285Y-99802442D01*
X174746079Y-99768708D01*
X174739281Y-99766646D01*
X174739278Y-99766645D01*
X174630532Y-99708519D01*
X174535210Y-99630290D01*
X174456981Y-99534968D01*
X174398855Y-99426222D01*
X174363058Y-99308215D01*
X174350972Y-99185500D01*
X174363058Y-99062785D01*
X174398855Y-98944778D01*
X174456981Y-98836032D01*
X174535210Y-98740710D01*
X174630532Y-98662481D01*
X174739278Y-98604355D01*
X174857285Y-98568558D01*
X174949254Y-98559500D01*
X175660746Y-98559500D01*
X175752715Y-98568558D01*
X175752715Y-98568558D01*
G37*
G36*
X87236572Y-97841301D02*
G01*
X87409643Y-97912989D01*
X87409644Y-97912990D01*
X87565404Y-98017065D01*
X87697867Y-98149528D01*
X87697868Y-98149530D01*
X87801943Y-98305289D01*
X87873631Y-98478360D01*
X87910177Y-98662088D01*
X87910177Y-98849422D01*
X87873631Y-99033150D01*
X87801943Y-99206221D01*
X87789395Y-99225000D01*
X87697867Y-99361982D01*
X87565404Y-99494445D01*
X87520363Y-99524540D01*
X87409643Y-99598521D01*
X87236572Y-99670209D01*
X87052844Y-99706755D01*
X86865510Y-99706755D01*
X86681782Y-99670209D01*
X86508711Y-99598521D01*
X86397991Y-99524540D01*
X86352950Y-99494445D01*
X86220487Y-99361982D01*
X86128959Y-99225000D01*
X86116411Y-99206221D01*
X86044723Y-99033150D01*
X86008177Y-98849422D01*
X86008177Y-98662088D01*
X86044723Y-98478360D01*
X86116411Y-98305289D01*
X86220486Y-98149530D01*
X86220487Y-98149528D01*
X86352950Y-98017065D01*
X86508710Y-97912990D01*
X86508711Y-97912989D01*
X86681782Y-97841301D01*
X86865510Y-97804755D01*
X87052844Y-97804755D01*
X87236572Y-97841301D01*
X87236572Y-97841301D01*
G37*
G36*
X98055000Y-97841000D02*
G01*
X92953000Y-97841000D01*
X92953000Y-96215000D01*
X98055000Y-96215000D01*
X98055000Y-97841000D01*
X98055000Y-97841000D01*
G37*
G36*
X147585000Y-97841000D02*
G01*
X142483000Y-97841000D01*
X142483000Y-96215000D01*
X147585000Y-96215000D01*
X147585000Y-97841000D01*
X147585000Y-97841000D01*
G37*
G36*
X159189142Y-95992242D02*
G01*
X159337101Y-96053529D01*
X159470255Y-96142499D01*
X159583501Y-96255745D01*
X159672471Y-96388899D01*
X159733758Y-96536858D01*
X159765000Y-96693925D01*
X159765000Y-96854075D01*
X159733758Y-97011142D01*
X159672471Y-97159101D01*
X159583501Y-97292255D01*
X159470255Y-97405501D01*
X159337101Y-97494471D01*
X159189142Y-97555758D01*
X159032075Y-97587000D01*
X158871925Y-97587000D01*
X158714858Y-97555758D01*
X158566899Y-97494471D01*
X158433745Y-97405501D01*
X158320499Y-97292255D01*
X158231529Y-97159101D01*
X158170242Y-97011142D01*
X158139000Y-96854075D01*
X158139000Y-96693925D01*
X158170242Y-96536858D01*
X158231529Y-96388899D01*
X158320499Y-96255745D01*
X158433745Y-96142499D01*
X158566899Y-96053529D01*
X158714858Y-95992242D01*
X158871925Y-95961000D01*
X159032075Y-95961000D01*
X159189142Y-95992242D01*
X159189142Y-95992242D01*
G37*
G36*
X77909142Y-95992242D02*
G01*
X78057101Y-96053529D01*
X78190255Y-96142499D01*
X78303501Y-96255745D01*
X78392471Y-96388899D01*
X78453758Y-96536858D01*
X78485000Y-96693925D01*
X78485000Y-96854075D01*
X78453758Y-97011142D01*
X78392471Y-97159101D01*
X78303501Y-97292255D01*
X78190255Y-97405501D01*
X78057101Y-97494471D01*
X77909142Y-97555758D01*
X77752075Y-97587000D01*
X77591925Y-97587000D01*
X77434858Y-97555758D01*
X77286899Y-97494471D01*
X77153745Y-97405501D01*
X77040499Y-97292255D01*
X76951529Y-97159101D01*
X76890242Y-97011142D01*
X76859000Y-96854075D01*
X76859000Y-96693925D01*
X76890242Y-96536858D01*
X76951529Y-96388899D01*
X77040499Y-96255745D01*
X77153745Y-96142499D01*
X77286899Y-96053529D01*
X77434858Y-95992242D01*
X77591925Y-95961000D01*
X77752075Y-95961000D01*
X77909142Y-95992242D01*
X77909142Y-95992242D01*
G37*
G36*
X85170674Y-94120465D02*
G01*
X85208367Y-94131899D01*
X85243103Y-94150466D01*
X85273548Y-94175452D01*
X85298534Y-94205897D01*
X85317101Y-94240633D01*
X85328535Y-94278326D01*
X85333000Y-94323661D01*
X85333000Y-95160339D01*
X85328535Y-95205674D01*
X85317101Y-95243367D01*
X85298534Y-95278103D01*
X85273548Y-95308548D01*
X85243103Y-95333534D01*
X85208367Y-95352101D01*
X85170674Y-95363535D01*
X85125339Y-95368000D01*
X84038661Y-95368000D01*
X83993326Y-95363535D01*
X83955633Y-95352101D01*
X83920897Y-95333534D01*
X83890452Y-95308548D01*
X83865466Y-95278103D01*
X83846899Y-95243367D01*
X83835465Y-95205674D01*
X83831000Y-95160339D01*
X83831000Y-94323661D01*
X83835465Y-94278326D01*
X83846899Y-94240633D01*
X83865466Y-94205897D01*
X83890452Y-94175452D01*
X83920897Y-94150466D01*
X83955633Y-94131899D01*
X83993326Y-94120465D01*
X84038661Y-94116000D01*
X85125339Y-94116000D01*
X85170674Y-94120465D01*
X85170674Y-94120465D01*
G37*
G36*
X98055000Y-95301000D02*
G01*
X92953000Y-95301000D01*
X92953000Y-93675000D01*
X98055000Y-93675000D01*
X98055000Y-95301000D01*
X98055000Y-95301000D01*
G37*
G36*
X147585000Y-95301000D02*
G01*
X142483000Y-95301000D01*
X142483000Y-93675000D01*
X147585000Y-93675000D01*
X147585000Y-95301000D01*
X147585000Y-95301000D01*
G37*
G36*
X86877000Y-95127000D02*
G01*
X85875000Y-95127000D01*
X85875000Y-94225000D01*
X86877000Y-94225000D01*
X86877000Y-95127000D01*
X86877000Y-95127000D01*
G37*
G36*
X159189142Y-93452242D02*
G01*
X159337101Y-93513529D01*
X159470255Y-93602499D01*
X159583501Y-93715745D01*
X159672471Y-93848899D01*
X159733758Y-93996858D01*
X159765000Y-94153925D01*
X159765000Y-94314075D01*
X159733758Y-94471142D01*
X159672471Y-94619101D01*
X159583501Y-94752255D01*
X159470255Y-94865501D01*
X159337101Y-94954471D01*
X159189142Y-95015758D01*
X159032075Y-95047000D01*
X158871925Y-95047000D01*
X158714858Y-95015758D01*
X158566899Y-94954471D01*
X158433745Y-94865501D01*
X158320499Y-94752255D01*
X158231529Y-94619101D01*
X158170242Y-94471142D01*
X158139000Y-94314075D01*
X158139000Y-94153925D01*
X158170242Y-93996858D01*
X158231529Y-93848899D01*
X158320499Y-93715745D01*
X158433745Y-93602499D01*
X158566899Y-93513529D01*
X158714858Y-93452242D01*
X158871925Y-93421000D01*
X159032075Y-93421000D01*
X159189142Y-93452242D01*
X159189142Y-93452242D01*
G37*
G36*
X77909142Y-93452242D02*
G01*
X78057101Y-93513529D01*
X78190255Y-93602499D01*
X78303501Y-93715745D01*
X78392471Y-93848899D01*
X78453758Y-93996858D01*
X78485000Y-94153925D01*
X78485000Y-94314075D01*
X78453758Y-94471142D01*
X78392471Y-94619101D01*
X78303501Y-94752255D01*
X78190255Y-94865501D01*
X78057101Y-94954471D01*
X77909142Y-95015758D01*
X77752075Y-95047000D01*
X77591925Y-95047000D01*
X77434858Y-95015758D01*
X77286899Y-94954471D01*
X77153745Y-94865501D01*
X77040499Y-94752255D01*
X76951529Y-94619101D01*
X76890242Y-94471142D01*
X76859000Y-94314075D01*
X76859000Y-94153925D01*
X76890242Y-93996858D01*
X76951529Y-93848899D01*
X77040499Y-93715745D01*
X77153745Y-93602499D01*
X77286899Y-93513529D01*
X77434858Y-93452242D01*
X77591925Y-93421000D01*
X77752075Y-93421000D01*
X77909142Y-93452242D01*
X77909142Y-93452242D01*
G37*
G36*
X88877000Y-94177000D02*
G01*
X87875000Y-94177000D01*
X87875000Y-93275000D01*
X88877000Y-93275000D01*
X88877000Y-94177000D01*
X88877000Y-94177000D01*
G37*
G36*
X172333256Y-90085298D02*
G01*
X172439579Y-90106447D01*
X172740042Y-90230903D01*
X173010451Y-90411585D01*
X173240415Y-90641549D01*
X173240416Y-90641551D01*
X173421098Y-90911960D01*
X173545553Y-91212422D01*
X173609000Y-91531389D01*
X173609000Y-91856611D01*
X173567350Y-92066000D01*
X173545553Y-92175579D01*
X173421097Y-92476042D01*
X173240415Y-92746451D01*
X173010451Y-92976415D01*
X172740042Y-93157097D01*
X172439579Y-93281553D01*
X172360504Y-93297282D01*
X172120611Y-93345000D01*
X171795389Y-93345000D01*
X171555496Y-93297282D01*
X171476421Y-93281553D01*
X171175958Y-93157097D01*
X170905549Y-92976415D01*
X170675585Y-92746451D01*
X170494903Y-92476042D01*
X170370447Y-92175579D01*
X170348650Y-92066000D01*
X170307000Y-91856611D01*
X170307000Y-91531389D01*
X170370447Y-91212422D01*
X170494902Y-90911960D01*
X170675584Y-90641551D01*
X170675585Y-90641549D01*
X170905549Y-90411585D01*
X171175958Y-90230903D01*
X171476421Y-90106447D01*
X171582744Y-90085298D01*
X171795389Y-90043000D01*
X172120611Y-90043000D01*
X172333256Y-90085298D01*
X172333256Y-90085298D01*
G37*
G36*
X85170674Y-92070465D02*
G01*
X85208367Y-92081899D01*
X85243103Y-92100466D01*
X85273548Y-92125452D01*
X85298534Y-92155897D01*
X85317101Y-92190633D01*
X85328535Y-92228326D01*
X85333000Y-92273661D01*
X85333000Y-93110339D01*
X85328535Y-93155674D01*
X85317101Y-93193367D01*
X85298534Y-93228103D01*
X85273548Y-93258548D01*
X85243103Y-93283534D01*
X85208367Y-93302101D01*
X85170674Y-93313535D01*
X85125339Y-93318000D01*
X84038661Y-93318000D01*
X83993326Y-93313535D01*
X83955633Y-93302101D01*
X83920897Y-93283534D01*
X83890452Y-93258548D01*
X83865466Y-93228103D01*
X83846899Y-93193367D01*
X83835465Y-93155674D01*
X83831000Y-93110339D01*
X83831000Y-92273661D01*
X83835465Y-92228326D01*
X83846899Y-92190633D01*
X83865466Y-92155897D01*
X83890452Y-92125452D01*
X83920897Y-92100466D01*
X83955633Y-92081899D01*
X83993326Y-92070465D01*
X84038661Y-92066000D01*
X85125339Y-92066000D01*
X85170674Y-92070465D01*
X85170674Y-92070465D01*
G37*
G36*
X86877000Y-93227000D02*
G01*
X85875000Y-93227000D01*
X85875000Y-92325000D01*
X86877000Y-92325000D01*
X86877000Y-93227000D01*
X86877000Y-93227000D01*
G37*
G36*
X98055000Y-92761000D02*
G01*
X92953000Y-92761000D01*
X92953000Y-91135000D01*
X98055000Y-91135000D01*
X98055000Y-92761000D01*
X98055000Y-92761000D01*
G37*
G36*
X147585000Y-92761000D02*
G01*
X142483000Y-92761000D01*
X142483000Y-91135000D01*
X147585000Y-91135000D01*
X147585000Y-92761000D01*
X147585000Y-92761000D01*
G37*
G36*
X159189142Y-90912242D02*
G01*
X159337101Y-90973529D01*
X159470255Y-91062499D01*
X159583501Y-91175745D01*
X159672471Y-91308899D01*
X159733758Y-91456858D01*
X159765000Y-91613925D01*
X159765000Y-91774075D01*
X159733758Y-91931142D01*
X159672471Y-92079101D01*
X159583501Y-92212255D01*
X159470255Y-92325501D01*
X159337101Y-92414471D01*
X159189142Y-92475758D01*
X159032075Y-92507000D01*
X158871925Y-92507000D01*
X158714858Y-92475758D01*
X158566899Y-92414471D01*
X158433745Y-92325501D01*
X158320499Y-92212255D01*
X158231529Y-92079101D01*
X158170242Y-91931142D01*
X158139000Y-91774075D01*
X158139000Y-91613925D01*
X158170242Y-91456858D01*
X158231529Y-91308899D01*
X158320499Y-91175745D01*
X158433745Y-91062499D01*
X158566899Y-90973529D01*
X158714858Y-90912242D01*
X158871925Y-90881000D01*
X159032075Y-90881000D01*
X159189142Y-90912242D01*
X159189142Y-90912242D01*
G37*
G36*
X77909142Y-90912242D02*
G01*
X78057101Y-90973529D01*
X78190255Y-91062499D01*
X78303501Y-91175745D01*
X78392471Y-91308899D01*
X78453758Y-91456858D01*
X78485000Y-91613925D01*
X78485000Y-91774075D01*
X78453758Y-91931142D01*
X78392471Y-92079101D01*
X78303501Y-92212255D01*
X78190255Y-92325501D01*
X78057101Y-92414471D01*
X77909142Y-92475758D01*
X77752075Y-92507000D01*
X77591925Y-92507000D01*
X77434858Y-92475758D01*
X77286899Y-92414471D01*
X77153745Y-92325501D01*
X77040499Y-92212255D01*
X76951529Y-92079101D01*
X76890242Y-91931142D01*
X76859000Y-91774075D01*
X76859000Y-91613925D01*
X76890242Y-91456858D01*
X76951529Y-91308899D01*
X77040499Y-91175745D01*
X77153745Y-91062499D01*
X77286899Y-90973529D01*
X77434858Y-90912242D01*
X77591925Y-90881000D01*
X77752075Y-90881000D01*
X77909142Y-90912242D01*
X77909142Y-90912242D01*
G37*
G36*
X166409000Y-91225000D02*
G01*
X164807000Y-91225000D01*
X164807000Y-89623000D01*
X166409000Y-89623000D01*
X166409000Y-91225000D01*
X166409000Y-91225000D01*
G37*
G36*
X98055000Y-90221000D02*
G01*
X92953000Y-90221000D01*
X92953000Y-88595000D01*
X98055000Y-88595000D01*
X98055000Y-90221000D01*
X98055000Y-90221000D01*
G37*
G36*
X147585000Y-90221000D02*
G01*
X142483000Y-90221000D01*
X142483000Y-88595000D01*
X147585000Y-88595000D01*
X147585000Y-90221000D01*
X147585000Y-90221000D01*
G37*
G36*
X77909142Y-88372242D02*
G01*
X78057101Y-88433529D01*
X78190255Y-88522499D01*
X78303501Y-88635745D01*
X78392471Y-88768899D01*
X78453758Y-88916858D01*
X78485000Y-89073925D01*
X78485000Y-89234075D01*
X78453758Y-89391142D01*
X78392471Y-89539101D01*
X78303501Y-89672255D01*
X78190255Y-89785501D01*
X78057101Y-89874471D01*
X77909142Y-89935758D01*
X77752075Y-89967000D01*
X77591925Y-89967000D01*
X77434858Y-89935758D01*
X77286899Y-89874471D01*
X77153745Y-89785501D01*
X77040499Y-89672255D01*
X76951529Y-89539101D01*
X76890242Y-89391142D01*
X76859000Y-89234075D01*
X76859000Y-89073925D01*
X76890242Y-88916858D01*
X76951529Y-88768899D01*
X77040499Y-88635745D01*
X77153745Y-88522499D01*
X77286899Y-88433529D01*
X77434858Y-88372242D01*
X77591925Y-88341000D01*
X77752075Y-88341000D01*
X77909142Y-88372242D01*
X77909142Y-88372242D01*
G37*
G36*
X159487993Y-88348203D02*
G01*
X159552411Y-88367744D01*
X159611781Y-88399478D01*
X159663817Y-88442183D01*
X159706522Y-88494219D01*
X159738256Y-88553589D01*
X159757797Y-88618007D01*
X159765000Y-88691140D01*
X159765000Y-89616860D01*
X159757797Y-89689993D01*
X159738256Y-89754411D01*
X159706522Y-89813781D01*
X159663817Y-89865817D01*
X159611781Y-89908522D01*
X159552411Y-89940256D01*
X159487993Y-89959797D01*
X159414860Y-89967000D01*
X158489140Y-89967000D01*
X158416007Y-89959797D01*
X158351589Y-89940256D01*
X158292219Y-89908522D01*
X158240183Y-89865817D01*
X158197478Y-89813781D01*
X158165744Y-89754411D01*
X158146203Y-89689993D01*
X158139000Y-89616860D01*
X158139000Y-88691140D01*
X158146203Y-88618007D01*
X158165744Y-88553589D01*
X158197478Y-88494219D01*
X158240183Y-88442183D01*
X158292219Y-88399478D01*
X158351589Y-88367744D01*
X158416007Y-88348203D01*
X158489140Y-88341000D01*
X159414860Y-88341000D01*
X159487993Y-88348203D01*
X159487993Y-88348203D01*
G37*
G36*
X163301642Y-88383781D02*
G01*
X163442636Y-88442183D01*
X163447416Y-88444163D01*
X163578608Y-88531822D01*
X163690178Y-88643392D01*
X163759740Y-88747500D01*
X163777838Y-88774586D01*
X163838219Y-88920358D01*
X163869000Y-89075107D01*
X163869000Y-89232893D01*
X163838219Y-89387642D01*
X163777838Y-89533414D01*
X163777837Y-89533416D01*
X163690178Y-89664608D01*
X163578608Y-89776178D01*
X163447416Y-89863837D01*
X163447415Y-89863838D01*
X163447414Y-89863838D01*
X163301642Y-89924219D01*
X163146893Y-89955000D01*
X162989107Y-89955000D01*
X162834358Y-89924219D01*
X162688586Y-89863838D01*
X162688585Y-89863838D01*
X162688584Y-89863837D01*
X162557392Y-89776178D01*
X162445822Y-89664608D01*
X162358163Y-89533416D01*
X162358162Y-89533414D01*
X162297781Y-89387642D01*
X162267000Y-89232893D01*
X162267000Y-89075107D01*
X162297781Y-88920358D01*
X162358162Y-88774586D01*
X162376260Y-88747500D01*
X162445822Y-88643392D01*
X162557392Y-88531822D01*
X162688584Y-88444163D01*
X162693364Y-88442183D01*
X162834358Y-88383781D01*
X162989107Y-88353000D01*
X163146893Y-88353000D01*
X163301642Y-88383781D01*
X163301642Y-88383781D01*
G37*
G36*
X165841642Y-87113781D02*
G01*
X165987414Y-87174162D01*
X165987416Y-87174163D01*
X166118608Y-87261822D01*
X166230178Y-87373392D01*
X166245122Y-87395758D01*
X166317838Y-87504586D01*
X166378219Y-87650358D01*
X166409000Y-87805107D01*
X166409000Y-87962893D01*
X166378219Y-88117642D01*
X166317838Y-88263414D01*
X166317837Y-88263416D01*
X166230178Y-88394608D01*
X166118608Y-88506178D01*
X165987416Y-88593837D01*
X165987415Y-88593838D01*
X165987414Y-88593838D01*
X165841642Y-88654219D01*
X165686893Y-88685000D01*
X165529107Y-88685000D01*
X165374358Y-88654219D01*
X165228586Y-88593838D01*
X165228585Y-88593838D01*
X165228584Y-88593837D01*
X165097392Y-88506178D01*
X164985822Y-88394608D01*
X164898163Y-88263416D01*
X164898162Y-88263414D01*
X164837781Y-88117642D01*
X164807000Y-87962893D01*
X164807000Y-87805107D01*
X164837781Y-87650358D01*
X164898162Y-87504586D01*
X164970878Y-87395758D01*
X164985822Y-87373392D01*
X165097392Y-87261822D01*
X165228584Y-87174163D01*
X165228586Y-87174162D01*
X165374358Y-87113781D01*
X165529107Y-87083000D01*
X165686893Y-87083000D01*
X165841642Y-87113781D01*
X165841642Y-87113781D01*
G37*
G36*
X147585000Y-87681000D02*
G01*
X142483000Y-87681000D01*
X142483000Y-86055000D01*
X147585000Y-86055000D01*
X147585000Y-87681000D01*
X147585000Y-87681000D01*
G37*
G36*
X98055000Y-87681000D02*
G01*
X92953000Y-87681000D01*
X92953000Y-86055000D01*
X98055000Y-86055000D01*
X98055000Y-87681000D01*
X98055000Y-87681000D01*
G37*
G36*
X77909142Y-85832242D02*
G01*
X78057101Y-85893529D01*
X78190255Y-85982499D01*
X78303501Y-86095745D01*
X78392471Y-86228899D01*
X78453758Y-86376858D01*
X78485000Y-86533925D01*
X78485000Y-86694075D01*
X78453758Y-86851142D01*
X78392471Y-86999101D01*
X78303501Y-87132255D01*
X78190255Y-87245501D01*
X78057101Y-87334471D01*
X77909142Y-87395758D01*
X77752075Y-87427000D01*
X77591925Y-87427000D01*
X77434858Y-87395758D01*
X77286899Y-87334471D01*
X77153745Y-87245501D01*
X77040499Y-87132255D01*
X76951529Y-86999101D01*
X76890242Y-86851142D01*
X76859000Y-86694075D01*
X76859000Y-86533925D01*
X76890242Y-86376858D01*
X76951529Y-86228899D01*
X77040499Y-86095745D01*
X77153745Y-85982499D01*
X77286899Y-85893529D01*
X77434858Y-85832242D01*
X77591925Y-85801000D01*
X77752075Y-85801000D01*
X77909142Y-85832242D01*
X77909142Y-85832242D01*
G37*
G36*
X163301642Y-85843781D02*
G01*
X163447414Y-85904162D01*
X163447416Y-85904163D01*
X163578608Y-85991822D01*
X163690178Y-86103392D01*
X163774038Y-86228899D01*
X163777838Y-86234586D01*
X163838219Y-86380358D01*
X163869000Y-86535107D01*
X163869000Y-86692893D01*
X163838219Y-86847642D01*
X163777838Y-86993414D01*
X163777837Y-86993416D01*
X163690178Y-87124608D01*
X163578608Y-87236178D01*
X163447416Y-87323837D01*
X163447415Y-87323838D01*
X163447414Y-87323838D01*
X163301642Y-87384219D01*
X163146893Y-87415000D01*
X162989107Y-87415000D01*
X162834358Y-87384219D01*
X162688586Y-87323838D01*
X162688585Y-87323838D01*
X162688584Y-87323837D01*
X162557392Y-87236178D01*
X162445822Y-87124608D01*
X162358163Y-86993416D01*
X162358162Y-86993414D01*
X162297781Y-86847642D01*
X162267000Y-86692893D01*
X162267000Y-86535107D01*
X162297781Y-86380358D01*
X162358162Y-86234586D01*
X162361962Y-86228899D01*
X162445822Y-86103392D01*
X162557392Y-85991822D01*
X162688584Y-85904163D01*
X162688586Y-85904162D01*
X162834358Y-85843781D01*
X162989107Y-85813000D01*
X163146893Y-85813000D01*
X163301642Y-85843781D01*
X163301642Y-85843781D01*
G37*
G36*
X72257256Y-84116298D02*
G01*
X72363579Y-84137447D01*
X72664042Y-84261903D01*
X72934451Y-84442585D01*
X73164415Y-84672549D01*
X73345097Y-84942958D01*
X73469553Y-85243421D01*
X73473867Y-85265108D01*
X73533000Y-85562389D01*
X73533000Y-85887611D01*
X73527751Y-85914000D01*
X73469553Y-86206579D01*
X73345097Y-86507042D01*
X73164415Y-86777451D01*
X72934451Y-87007415D01*
X72664042Y-87188097D01*
X72363579Y-87312553D01*
X72306850Y-87323837D01*
X72044611Y-87376000D01*
X71719389Y-87376000D01*
X71457150Y-87323837D01*
X71400421Y-87312553D01*
X71099958Y-87188097D01*
X70829549Y-87007415D01*
X70599585Y-86777451D01*
X70418903Y-86507042D01*
X70294447Y-86206579D01*
X70236249Y-85914000D01*
X70231000Y-85887611D01*
X70231000Y-85562389D01*
X70290133Y-85265108D01*
X70294447Y-85243421D01*
X70418903Y-84942958D01*
X70599585Y-84672549D01*
X70829549Y-84442585D01*
X71099958Y-84261903D01*
X71400421Y-84137447D01*
X71506744Y-84116298D01*
X71719389Y-84074000D01*
X72044611Y-84074000D01*
X72257256Y-84116298D01*
X72257256Y-84116298D01*
G37*
G36*
X165841642Y-84573781D02*
G01*
X165987414Y-84634162D01*
X165987416Y-84634163D01*
X166118608Y-84721822D01*
X166230178Y-84833392D01*
X166254194Y-84869335D01*
X166317838Y-84964586D01*
X166378219Y-85110358D01*
X166409000Y-85265107D01*
X166409000Y-85422893D01*
X166378219Y-85577642D01*
X166326836Y-85701690D01*
X166317837Y-85723416D01*
X166230178Y-85854608D01*
X166118608Y-85966178D01*
X165987416Y-86053837D01*
X165987415Y-86053838D01*
X165987414Y-86053838D01*
X165841642Y-86114219D01*
X165686893Y-86145000D01*
X165529107Y-86145000D01*
X165374358Y-86114219D01*
X165228586Y-86053838D01*
X165228585Y-86053838D01*
X165228584Y-86053837D01*
X165097392Y-85966178D01*
X164985822Y-85854608D01*
X164898163Y-85723416D01*
X164889164Y-85701690D01*
X164837781Y-85577642D01*
X164807000Y-85422893D01*
X164807000Y-85265107D01*
X164837781Y-85110358D01*
X164898162Y-84964586D01*
X164961806Y-84869335D01*
X164985822Y-84833392D01*
X165097392Y-84721822D01*
X165228584Y-84634163D01*
X165228586Y-84634162D01*
X165374358Y-84573781D01*
X165529107Y-84543000D01*
X165686893Y-84543000D01*
X165841642Y-84573781D01*
X165841642Y-84573781D01*
G37*
G36*
X84517000Y-85914000D02*
G01*
X82615000Y-85914000D01*
X82615000Y-84012000D01*
X84517000Y-84012000D01*
X84517000Y-85914000D01*
X84517000Y-85914000D01*
G37*
G36*
X81303395Y-84048546D02*
G01*
X81476466Y-84120234D01*
X81553818Y-84171919D01*
X81632227Y-84224310D01*
X81764690Y-84356773D01*
X81764691Y-84356775D01*
X81868766Y-84512534D01*
X81940454Y-84685605D01*
X81977000Y-84869333D01*
X81977000Y-85056667D01*
X81940454Y-85240395D01*
X81868766Y-85413466D01*
X81862467Y-85422893D01*
X81764690Y-85569227D01*
X81632227Y-85701690D01*
X81553818Y-85754081D01*
X81476466Y-85805766D01*
X81303395Y-85877454D01*
X81119667Y-85914000D01*
X80932333Y-85914000D01*
X80748605Y-85877454D01*
X80575534Y-85805766D01*
X80498182Y-85754081D01*
X80419773Y-85701690D01*
X80287310Y-85569227D01*
X80189533Y-85422893D01*
X80183234Y-85413466D01*
X80111546Y-85240395D01*
X80075000Y-85056667D01*
X80075000Y-84869333D01*
X80111546Y-84685605D01*
X80183234Y-84512534D01*
X80287309Y-84356775D01*
X80287310Y-84356773D01*
X80419773Y-84224310D01*
X80498182Y-84171919D01*
X80575534Y-84120234D01*
X80748605Y-84048546D01*
X80932333Y-84012000D01*
X81119667Y-84012000D01*
X81303395Y-84048546D01*
X81303395Y-84048546D01*
G37*
G36*
X86383395Y-84048546D02*
G01*
X86556466Y-84120234D01*
X86633818Y-84171919D01*
X86712227Y-84224310D01*
X86844690Y-84356773D01*
X86844691Y-84356775D01*
X86948766Y-84512534D01*
X87020454Y-84685605D01*
X87057000Y-84869333D01*
X87057000Y-85056667D01*
X87020454Y-85240395D01*
X86948766Y-85413466D01*
X86942467Y-85422893D01*
X86844690Y-85569227D01*
X86712227Y-85701690D01*
X86633818Y-85754081D01*
X86556466Y-85805766D01*
X86383395Y-85877454D01*
X86199667Y-85914000D01*
X86012333Y-85914000D01*
X85828605Y-85877454D01*
X85655534Y-85805766D01*
X85578182Y-85754081D01*
X85499773Y-85701690D01*
X85367310Y-85569227D01*
X85269533Y-85422893D01*
X85263234Y-85413466D01*
X85191546Y-85240395D01*
X85155000Y-85056667D01*
X85155000Y-84869333D01*
X85191546Y-84685605D01*
X85263234Y-84512534D01*
X85367309Y-84356775D01*
X85367310Y-84356773D01*
X85499773Y-84224310D01*
X85578182Y-84171919D01*
X85655534Y-84120234D01*
X85828605Y-84048546D01*
X86012333Y-84012000D01*
X86199667Y-84012000D01*
X86383395Y-84048546D01*
X86383395Y-84048546D01*
G37*
G36*
X89597000Y-85914000D02*
G01*
X87695000Y-85914000D01*
X87695000Y-84012000D01*
X89597000Y-84012000D01*
X89597000Y-85914000D01*
X89597000Y-85914000D01*
G37*
G36*
X98055000Y-85141000D02*
G01*
X92953000Y-85141000D01*
X92953000Y-83515000D01*
X98055000Y-83515000D01*
X98055000Y-85141000D01*
X98055000Y-85141000D01*
G37*
G36*
X147585000Y-85141000D02*
G01*
X142483000Y-85141000D01*
X142483000Y-83515000D01*
X147585000Y-83515000D01*
X147585000Y-85141000D01*
X147585000Y-85141000D01*
G37*
G36*
X77909142Y-83292242D02*
G01*
X78057101Y-83353529D01*
X78190255Y-83442499D01*
X78303501Y-83555745D01*
X78392471Y-83688899D01*
X78453758Y-83836858D01*
X78485000Y-83993925D01*
X78485000Y-84154075D01*
X78453758Y-84311142D01*
X78392471Y-84459101D01*
X78303501Y-84592255D01*
X78190255Y-84705501D01*
X78057101Y-84794471D01*
X77909142Y-84855758D01*
X77752075Y-84887000D01*
X77591925Y-84887000D01*
X77434858Y-84855758D01*
X77286899Y-84794471D01*
X77153745Y-84705501D01*
X77040499Y-84592255D01*
X76951529Y-84459101D01*
X76890242Y-84311142D01*
X76859000Y-84154075D01*
X76859000Y-83993925D01*
X76890242Y-83836858D01*
X76951529Y-83688899D01*
X77040499Y-83555745D01*
X77153745Y-83442499D01*
X77286899Y-83353529D01*
X77434858Y-83292242D01*
X77591925Y-83261000D01*
X77752075Y-83261000D01*
X77909142Y-83292242D01*
X77909142Y-83292242D01*
G37*
G36*
X163301642Y-83303781D02*
G01*
X163447414Y-83364162D01*
X163447416Y-83364163D01*
X163578608Y-83451822D01*
X163690178Y-83563392D01*
X163697412Y-83574219D01*
X163777838Y-83694586D01*
X163838219Y-83840358D01*
X163869000Y-83995107D01*
X163869000Y-84152893D01*
X163838219Y-84307642D01*
X163777838Y-84453414D01*
X163777837Y-84453416D01*
X163690178Y-84584608D01*
X163578608Y-84696178D01*
X163447416Y-84783837D01*
X163447415Y-84783838D01*
X163447414Y-84783838D01*
X163301642Y-84844219D01*
X163146893Y-84875000D01*
X162989107Y-84875000D01*
X162834358Y-84844219D01*
X162688586Y-84783838D01*
X162688585Y-84783838D01*
X162688584Y-84783837D01*
X162557392Y-84696178D01*
X162445822Y-84584608D01*
X162358163Y-84453416D01*
X162358162Y-84453414D01*
X162297781Y-84307642D01*
X162267000Y-84152893D01*
X162267000Y-83995107D01*
X162297781Y-83840358D01*
X162358162Y-83694586D01*
X162438588Y-83574219D01*
X162445822Y-83563392D01*
X162557392Y-83451822D01*
X162688584Y-83364163D01*
X162688586Y-83364162D01*
X162834358Y-83303781D01*
X162989107Y-83273000D01*
X163146893Y-83273000D01*
X163301642Y-83303781D01*
X163301642Y-83303781D01*
G37*
G36*
X165841642Y-82033781D02*
G01*
X165987414Y-82094162D01*
X165987416Y-82094163D01*
X166118608Y-82181822D01*
X166230178Y-82293392D01*
X166245122Y-82315758D01*
X166317838Y-82424586D01*
X166378219Y-82570358D01*
X166409000Y-82725107D01*
X166409000Y-82882893D01*
X166378219Y-83037642D01*
X166317838Y-83183414D01*
X166317837Y-83183416D01*
X166230178Y-83314608D01*
X166118608Y-83426178D01*
X165987416Y-83513837D01*
X165987415Y-83513838D01*
X165987414Y-83513838D01*
X165841642Y-83574219D01*
X165686893Y-83605000D01*
X165529107Y-83605000D01*
X165374358Y-83574219D01*
X165228586Y-83513838D01*
X165228585Y-83513838D01*
X165228584Y-83513837D01*
X165097392Y-83426178D01*
X164985822Y-83314608D01*
X164898163Y-83183416D01*
X164898162Y-83183414D01*
X164837781Y-83037642D01*
X164807000Y-82882893D01*
X164807000Y-82725107D01*
X164837781Y-82570358D01*
X164898162Y-82424586D01*
X164970878Y-82315758D01*
X164985822Y-82293392D01*
X165097392Y-82181822D01*
X165228584Y-82094163D01*
X165228586Y-82094162D01*
X165374358Y-82033781D01*
X165529107Y-82003000D01*
X165686893Y-82003000D01*
X165841642Y-82033781D01*
X165841642Y-82033781D01*
G37*
G36*
X147585000Y-82601000D02*
G01*
X142483000Y-82601000D01*
X142483000Y-80975000D01*
X147585000Y-80975000D01*
X147585000Y-82601000D01*
X147585000Y-82601000D01*
G37*
G36*
X98055000Y-82601000D02*
G01*
X92953000Y-82601000D01*
X92953000Y-80975000D01*
X98055000Y-80975000D01*
X98055000Y-82601000D01*
X98055000Y-82601000D01*
G37*
G36*
X77909142Y-80752242D02*
G01*
X78057101Y-80813529D01*
X78190255Y-80902499D01*
X78303501Y-81015745D01*
X78392471Y-81148899D01*
X78453758Y-81296858D01*
X78485000Y-81453925D01*
X78485000Y-81614075D01*
X78453758Y-81771142D01*
X78392471Y-81919101D01*
X78303501Y-82052255D01*
X78190255Y-82165501D01*
X78057101Y-82254471D01*
X77909142Y-82315758D01*
X77752075Y-82347000D01*
X77591925Y-82347000D01*
X77434858Y-82315758D01*
X77286899Y-82254471D01*
X77153745Y-82165501D01*
X77040499Y-82052255D01*
X76951529Y-81919101D01*
X76890242Y-81771142D01*
X76859000Y-81614075D01*
X76859000Y-81453925D01*
X76890242Y-81296858D01*
X76951529Y-81148899D01*
X77040499Y-81015745D01*
X77153745Y-80902499D01*
X77286899Y-80813529D01*
X77434858Y-80752242D01*
X77591925Y-80721000D01*
X77752075Y-80721000D01*
X77909142Y-80752242D01*
X77909142Y-80752242D01*
G37*
G36*
X163301642Y-80763781D02*
G01*
X163447414Y-80824162D01*
X163447416Y-80824163D01*
X163578608Y-80911822D01*
X163690178Y-81023392D01*
X163705312Y-81046042D01*
X163777838Y-81154586D01*
X163838219Y-81300358D01*
X163869000Y-81455107D01*
X163869000Y-81612893D01*
X163838219Y-81767642D01*
X163777838Y-81913414D01*
X163777837Y-81913416D01*
X163690178Y-82044608D01*
X163578608Y-82156178D01*
X163447416Y-82243837D01*
X163447415Y-82243838D01*
X163447414Y-82243838D01*
X163301642Y-82304219D01*
X163146893Y-82335000D01*
X162989107Y-82335000D01*
X162834358Y-82304219D01*
X162688586Y-82243838D01*
X162688585Y-82243838D01*
X162688584Y-82243837D01*
X162557392Y-82156178D01*
X162445822Y-82044608D01*
X162358163Y-81913416D01*
X162358162Y-81913414D01*
X162297781Y-81767642D01*
X162267000Y-81612893D01*
X162267000Y-81455107D01*
X162297781Y-81300358D01*
X162358162Y-81154586D01*
X162430688Y-81046042D01*
X162445822Y-81023392D01*
X162557392Y-80911822D01*
X162688584Y-80824163D01*
X162688586Y-80824162D01*
X162834358Y-80763781D01*
X162989107Y-80733000D01*
X163146893Y-80733000D01*
X163301642Y-80763781D01*
X163301642Y-80763781D01*
G37*
G36*
X172333256Y-78655298D02*
G01*
X172439579Y-78676447D01*
X172740042Y-78800903D01*
X173010451Y-78981585D01*
X173240415Y-79211549D01*
X173352369Y-79379100D01*
X173421098Y-79481960D01*
X173433647Y-79512257D01*
X173542793Y-79775757D01*
X173545553Y-79782422D01*
X173584191Y-79976665D01*
X173609000Y-80101391D01*
X173609000Y-80426609D01*
X173545553Y-80745579D01*
X173480554Y-80902501D01*
X173433647Y-81015745D01*
X173421097Y-81046042D01*
X173240415Y-81316451D01*
X173010451Y-81546415D01*
X172740042Y-81727097D01*
X172439579Y-81851553D01*
X172333256Y-81872702D01*
X172120611Y-81915000D01*
X171795389Y-81915000D01*
X171582744Y-81872702D01*
X171476421Y-81851553D01*
X171175958Y-81727097D01*
X170905549Y-81546415D01*
X170675585Y-81316451D01*
X170494903Y-81046042D01*
X170482354Y-81015745D01*
X170435446Y-80902501D01*
X170370447Y-80745579D01*
X170307000Y-80426609D01*
X170307000Y-80101391D01*
X170331810Y-79976665D01*
X170370447Y-79782422D01*
X170373208Y-79775757D01*
X170482353Y-79512257D01*
X170494902Y-79481960D01*
X170563631Y-79379100D01*
X170675585Y-79211549D01*
X170905549Y-78981585D01*
X171175958Y-78800903D01*
X171476421Y-78676447D01*
X171582744Y-78655298D01*
X171795389Y-78613000D01*
X172120611Y-78613000D01*
X172333256Y-78655298D01*
X172333256Y-78655298D01*
G37*
G36*
X84517000Y-80834000D02*
G01*
X82615000Y-80834000D01*
X82615000Y-78932000D01*
X84517000Y-78932000D01*
X84517000Y-80834000D01*
X84517000Y-80834000D01*
G37*
G36*
X81303395Y-78968546D02*
G01*
X81476466Y-79040234D01*
X81553818Y-79091919D01*
X81632227Y-79144310D01*
X81764690Y-79276773D01*
X81764691Y-79276775D01*
X81868766Y-79432534D01*
X81940454Y-79605605D01*
X81977000Y-79789333D01*
X81977000Y-79976667D01*
X81940454Y-80160395D01*
X81868766Y-80333466D01*
X81868765Y-80333467D01*
X81764690Y-80489227D01*
X81632227Y-80621690D01*
X81553818Y-80674081D01*
X81476466Y-80725766D01*
X81303395Y-80797454D01*
X81119667Y-80834000D01*
X80932333Y-80834000D01*
X80748605Y-80797454D01*
X80575534Y-80725766D01*
X80498182Y-80674081D01*
X80419773Y-80621690D01*
X80287310Y-80489227D01*
X80183235Y-80333467D01*
X80183234Y-80333466D01*
X80111546Y-80160395D01*
X80075000Y-79976667D01*
X80075000Y-79789333D01*
X80111546Y-79605605D01*
X80183234Y-79432534D01*
X80287309Y-79276775D01*
X80287310Y-79276773D01*
X80419773Y-79144310D01*
X80498182Y-79091919D01*
X80575534Y-79040234D01*
X80748605Y-78968546D01*
X80932333Y-78932000D01*
X81119667Y-78932000D01*
X81303395Y-78968546D01*
X81303395Y-78968546D01*
G37*
G36*
X86383395Y-78968546D02*
G01*
X86556466Y-79040234D01*
X86633818Y-79091919D01*
X86712227Y-79144310D01*
X86844690Y-79276773D01*
X86844691Y-79276775D01*
X86948766Y-79432534D01*
X87020454Y-79605605D01*
X87057000Y-79789333D01*
X87057000Y-79976667D01*
X87020454Y-80160395D01*
X86948766Y-80333466D01*
X86948765Y-80333467D01*
X86844690Y-80489227D01*
X86712227Y-80621690D01*
X86633818Y-80674081D01*
X86556466Y-80725766D01*
X86383395Y-80797454D01*
X86199667Y-80834000D01*
X86012333Y-80834000D01*
X85828605Y-80797454D01*
X85655534Y-80725766D01*
X85578182Y-80674081D01*
X85499773Y-80621690D01*
X85367310Y-80489227D01*
X85263235Y-80333467D01*
X85263234Y-80333466D01*
X85191546Y-80160395D01*
X85155000Y-79976667D01*
X85155000Y-79789333D01*
X85191546Y-79605605D01*
X85263234Y-79432534D01*
X85367309Y-79276775D01*
X85367310Y-79276773D01*
X85499773Y-79144310D01*
X85578182Y-79091919D01*
X85655534Y-79040234D01*
X85828605Y-78968546D01*
X86012333Y-78932000D01*
X86199667Y-78932000D01*
X86383395Y-78968546D01*
X86383395Y-78968546D01*
G37*
G36*
X89597000Y-80834000D02*
G01*
X87695000Y-80834000D01*
X87695000Y-78932000D01*
X89597000Y-78932000D01*
X89597000Y-80834000D01*
X89597000Y-80834000D01*
G37*
G36*
X147585000Y-80061000D02*
G01*
X142483000Y-80061000D01*
X142483000Y-78435000D01*
X147585000Y-78435000D01*
X147585000Y-80061000D01*
X147585000Y-80061000D01*
G37*
G36*
X98055000Y-80061000D02*
G01*
X92953000Y-80061000D01*
X92953000Y-78435000D01*
X98055000Y-78435000D01*
X98055000Y-80061000D01*
X98055000Y-80061000D01*
G37*
G36*
X77909142Y-78212242D02*
G01*
X78057101Y-78273529D01*
X78190255Y-78362499D01*
X78303501Y-78475745D01*
X78392471Y-78608899D01*
X78453758Y-78756858D01*
X78485000Y-78913925D01*
X78485000Y-79074075D01*
X78453758Y-79231142D01*
X78392471Y-79379101D01*
X78303501Y-79512255D01*
X78190255Y-79625501D01*
X78057101Y-79714471D01*
X77909142Y-79775758D01*
X77752075Y-79807000D01*
X77591925Y-79807000D01*
X77434858Y-79775758D01*
X77286899Y-79714471D01*
X77153745Y-79625501D01*
X77040499Y-79512255D01*
X76951529Y-79379101D01*
X76890242Y-79231142D01*
X76859000Y-79074075D01*
X76859000Y-78913925D01*
X76890242Y-78756858D01*
X76951529Y-78608899D01*
X77040499Y-78475745D01*
X77153745Y-78362499D01*
X77286899Y-78273529D01*
X77434858Y-78212242D01*
X77591925Y-78181000D01*
X77752075Y-78181000D01*
X77909142Y-78212242D01*
X77909142Y-78212242D01*
G37*
G36*
X131174442Y-77337518D02*
G01*
X131240627Y-77344037D01*
X131410466Y-77395557D01*
X131566991Y-77479222D01*
X131602729Y-77508552D01*
X131704186Y-77591814D01*
X131787448Y-77693271D01*
X131816778Y-77729009D01*
X131900443Y-77885534D01*
X131951963Y-78055373D01*
X131969359Y-78232000D01*
X131951963Y-78408627D01*
X131900443Y-78578466D01*
X131816778Y-78734991D01*
X131798833Y-78756857D01*
X131704186Y-78872186D01*
X131631301Y-78932000D01*
X131566991Y-78984778D01*
X131410466Y-79068443D01*
X131240627Y-79119963D01*
X131174442Y-79126482D01*
X131108260Y-79133000D01*
X131019740Y-79133000D01*
X130953558Y-79126482D01*
X130887373Y-79119963D01*
X130717534Y-79068443D01*
X130561009Y-78984778D01*
X130496699Y-78932000D01*
X130423814Y-78872186D01*
X130329167Y-78756857D01*
X130311222Y-78734991D01*
X130227557Y-78578466D01*
X130176037Y-78408627D01*
X130158641Y-78232000D01*
X130176037Y-78055373D01*
X130227557Y-77885534D01*
X130311222Y-77729009D01*
X130340552Y-77693271D01*
X130423814Y-77591814D01*
X130525271Y-77508552D01*
X130561009Y-77479222D01*
X130717534Y-77395557D01*
X130887373Y-77344037D01*
X130953558Y-77337518D01*
X131019740Y-77331000D01*
X131108260Y-77331000D01*
X131174442Y-77337518D01*
X131174442Y-77337518D01*
G37*
G36*
X78207993Y-75648203D02*
G01*
X78272411Y-75667744D01*
X78331781Y-75699478D01*
X78383817Y-75742183D01*
X78426522Y-75794219D01*
X78458256Y-75853589D01*
X78477797Y-75918007D01*
X78485000Y-75991140D01*
X78485000Y-76916860D01*
X78477797Y-76989993D01*
X78458256Y-77054411D01*
X78426522Y-77113781D01*
X78383817Y-77165817D01*
X78331781Y-77208522D01*
X78272411Y-77240256D01*
X78207993Y-77259797D01*
X78134860Y-77267000D01*
X77209140Y-77267000D01*
X77136007Y-77259797D01*
X77071589Y-77240256D01*
X77012219Y-77208522D01*
X76960183Y-77165817D01*
X76917478Y-77113781D01*
X76885744Y-77054411D01*
X76866203Y-76989993D01*
X76859000Y-76916860D01*
X76859000Y-75991140D01*
X76866203Y-75918007D01*
X76885744Y-75853589D01*
X76917478Y-75794219D01*
X76960183Y-75742183D01*
X77012219Y-75699478D01*
X77071589Y-75667744D01*
X77136007Y-75648203D01*
X77209140Y-75641000D01*
X78134860Y-75641000D01*
X78207993Y-75648203D01*
X78207993Y-75648203D01*
G37*
G36*
X166495393Y-74441304D02*
G01*
X166732101Y-74539352D01*
X166732103Y-74539353D01*
X166945135Y-74681696D01*
X167126304Y-74862865D01*
X167252555Y-75051814D01*
X167268648Y-75075899D01*
X167366696Y-75312607D01*
X167416680Y-75563893D01*
X167416680Y-75820107D01*
X167366696Y-76071393D01*
X167268648Y-76308101D01*
X167268647Y-76308103D01*
X167126304Y-76521135D01*
X166945135Y-76702304D01*
X166732103Y-76844647D01*
X166732102Y-76844648D01*
X166732101Y-76844648D01*
X166495393Y-76942696D01*
X166244107Y-76992680D01*
X165987893Y-76992680D01*
X165736607Y-76942696D01*
X165499899Y-76844648D01*
X165499898Y-76844648D01*
X165499897Y-76844647D01*
X165286865Y-76702304D01*
X165105696Y-76521135D01*
X164963353Y-76308103D01*
X164963352Y-76308101D01*
X164865304Y-76071393D01*
X164815320Y-75820107D01*
X164815320Y-75563893D01*
X164865304Y-75312607D01*
X164963352Y-75075899D01*
X164979445Y-75051814D01*
X165105696Y-74862865D01*
X165286865Y-74681696D01*
X165499897Y-74539353D01*
X165499899Y-74539352D01*
X165736607Y-74441304D01*
X165987893Y-74391320D01*
X166244107Y-74391320D01*
X166495393Y-74441304D01*
X166495393Y-74441304D01*
G37*
G36*
X131174442Y-74797518D02*
G01*
X131240627Y-74804037D01*
X131410466Y-74855557D01*
X131566991Y-74939222D01*
X131602729Y-74968552D01*
X131704186Y-75051814D01*
X131787448Y-75153271D01*
X131816778Y-75189009D01*
X131816779Y-75189011D01*
X131882843Y-75312606D01*
X131900443Y-75345534D01*
X131951963Y-75515373D01*
X131969359Y-75692000D01*
X131951963Y-75868627D01*
X131921759Y-75968196D01*
X131900442Y-76038468D01*
X131858611Y-76116728D01*
X131816778Y-76194991D01*
X131787448Y-76230729D01*
X131704186Y-76332186D01*
X131602729Y-76415448D01*
X131566991Y-76444778D01*
X131410466Y-76528443D01*
X131240627Y-76579963D01*
X131174443Y-76586481D01*
X131108260Y-76593000D01*
X131019740Y-76593000D01*
X130953557Y-76586481D01*
X130887373Y-76579963D01*
X130717534Y-76528443D01*
X130561009Y-76444778D01*
X130525271Y-76415448D01*
X130423814Y-76332186D01*
X130340552Y-76230729D01*
X130311222Y-76194991D01*
X130269389Y-76116728D01*
X130227558Y-76038468D01*
X130206241Y-75968196D01*
X130176037Y-75868627D01*
X130158641Y-75692000D01*
X130176037Y-75515373D01*
X130227557Y-75345534D01*
X130245158Y-75312606D01*
X130311221Y-75189011D01*
X130311222Y-75189009D01*
X130340552Y-75153271D01*
X130423814Y-75051814D01*
X130525271Y-74968552D01*
X130561009Y-74939222D01*
X130717534Y-74855557D01*
X130887373Y-74804037D01*
X130953558Y-74797518D01*
X131019740Y-74791000D01*
X131108260Y-74791000D01*
X131174442Y-74797518D01*
X131174442Y-74797518D01*
G37*
G36*
X88210228Y-72555703D02*
G01*
X88365100Y-72619853D01*
X88504481Y-72712985D01*
X88623015Y-72831519D01*
X88716147Y-72970900D01*
X88780297Y-73125772D01*
X88813000Y-73290184D01*
X88813000Y-73457816D01*
X88780297Y-73622228D01*
X88716147Y-73777100D01*
X88623015Y-73916481D01*
X88504481Y-74035015D01*
X88365100Y-74128147D01*
X88210228Y-74192297D01*
X88045816Y-74225000D01*
X87878184Y-74225000D01*
X87713772Y-74192297D01*
X87558900Y-74128147D01*
X87419519Y-74035015D01*
X87300985Y-73916481D01*
X87207853Y-73777100D01*
X87143703Y-73622228D01*
X87111000Y-73457816D01*
X87111000Y-73290184D01*
X87143703Y-73125772D01*
X87207853Y-72970900D01*
X87300985Y-72831519D01*
X87419519Y-72712985D01*
X87558900Y-72619853D01*
X87713772Y-72555703D01*
X87878184Y-72523000D01*
X88045816Y-72523000D01*
X88210228Y-72555703D01*
X88210228Y-72555703D01*
G37*
G36*
X91610228Y-72555703D02*
G01*
X91765100Y-72619853D01*
X91904481Y-72712985D01*
X92023015Y-72831519D01*
X92116147Y-72970900D01*
X92180297Y-73125772D01*
X92213000Y-73290184D01*
X92213000Y-73457816D01*
X92180297Y-73622228D01*
X92116147Y-73777100D01*
X92023015Y-73916481D01*
X91904481Y-74035015D01*
X91765100Y-74128147D01*
X91610228Y-74192297D01*
X91445816Y-74225000D01*
X91278184Y-74225000D01*
X91113772Y-74192297D01*
X90958900Y-74128147D01*
X90819519Y-74035015D01*
X90700985Y-73916481D01*
X90607853Y-73777100D01*
X90543703Y-73622228D01*
X90511000Y-73457816D01*
X90511000Y-73290184D01*
X90543703Y-73125772D01*
X90607853Y-72970900D01*
X90700985Y-72831519D01*
X90819519Y-72712985D01*
X90958900Y-72619853D01*
X91113772Y-72555703D01*
X91278184Y-72523000D01*
X91445816Y-72523000D01*
X91610228Y-72555703D01*
X91610228Y-72555703D01*
G37*
G36*
X131174443Y-72257519D02*
G01*
X131240627Y-72264037D01*
X131410466Y-72315557D01*
X131566991Y-72399222D01*
X131602729Y-72428552D01*
X131704186Y-72511814D01*
X131776254Y-72599631D01*
X131816778Y-72649009D01*
X131900443Y-72805534D01*
X131951963Y-72975373D01*
X131969359Y-73152000D01*
X131951963Y-73328627D01*
X131900443Y-73498466D01*
X131900442Y-73498468D01*
X131873953Y-73548025D01*
X131816778Y-73654991D01*
X131787448Y-73690729D01*
X131704186Y-73792186D01*
X131602729Y-73875448D01*
X131566991Y-73904778D01*
X131410466Y-73988443D01*
X131240627Y-74039963D01*
X131174442Y-74046482D01*
X131108260Y-74053000D01*
X131019740Y-74053000D01*
X130953558Y-74046482D01*
X130887373Y-74039963D01*
X130717534Y-73988443D01*
X130561009Y-73904778D01*
X130525271Y-73875448D01*
X130423814Y-73792186D01*
X130340552Y-73690729D01*
X130311222Y-73654991D01*
X130254047Y-73548025D01*
X130227558Y-73498468D01*
X130227557Y-73498466D01*
X130176037Y-73328627D01*
X130158641Y-73152000D01*
X130176037Y-72975373D01*
X130227557Y-72805534D01*
X130311222Y-72649009D01*
X130351746Y-72599631D01*
X130423814Y-72511814D01*
X130525271Y-72428552D01*
X130561009Y-72399222D01*
X130717534Y-72315557D01*
X130887373Y-72264037D01*
X130953557Y-72257519D01*
X131019740Y-72251000D01*
X131108260Y-72251000D01*
X131174443Y-72257519D01*
X131174443Y-72257519D01*
G37*
G36*
X171880823Y-71919313D02*
G01*
X172041242Y-71967976D01*
X172166663Y-72035015D01*
X172189078Y-72046996D01*
X172318659Y-72153341D01*
X172425004Y-72282922D01*
X172425005Y-72282924D01*
X172504024Y-72430758D01*
X172552687Y-72591177D01*
X172569117Y-72758000D01*
X172552687Y-72924823D01*
X172504024Y-73085242D01*
X172482360Y-73125772D01*
X172425004Y-73233078D01*
X172318659Y-73362659D01*
X172189078Y-73469004D01*
X172189076Y-73469005D01*
X172041242Y-73548024D01*
X171880823Y-73596687D01*
X171755804Y-73609000D01*
X171072196Y-73609000D01*
X170947177Y-73596687D01*
X170786758Y-73548024D01*
X170638924Y-73469005D01*
X170638922Y-73469004D01*
X170509341Y-73362659D01*
X170402996Y-73233078D01*
X170345640Y-73125772D01*
X170323976Y-73085242D01*
X170275313Y-72924823D01*
X170258883Y-72758000D01*
X170275313Y-72591177D01*
X170323976Y-72430758D01*
X170402995Y-72282924D01*
X170402996Y-72282922D01*
X170509341Y-72153341D01*
X170638922Y-72046996D01*
X170661337Y-72035015D01*
X170786758Y-71967976D01*
X170947177Y-71919313D01*
X171072196Y-71907000D01*
X171755804Y-71907000D01*
X171880823Y-71919313D01*
X171880823Y-71919313D01*
G37*
G36*
X73277393Y-70123304D02*
G01*
X73503169Y-70216824D01*
X73514103Y-70221353D01*
X73727135Y-70363696D01*
X73908304Y-70544865D01*
X74050647Y-70757897D01*
X74050648Y-70757899D01*
X74148696Y-70994607D01*
X74198680Y-71245893D01*
X74198680Y-71502107D01*
X74148696Y-71753393D01*
X74050648Y-71990101D01*
X74050647Y-71990103D01*
X73908304Y-72203135D01*
X73727135Y-72384304D01*
X73514103Y-72526647D01*
X73514102Y-72526648D01*
X73514101Y-72526648D01*
X73277393Y-72624696D01*
X73026107Y-72674680D01*
X72769893Y-72674680D01*
X72518607Y-72624696D01*
X72281899Y-72526648D01*
X72281898Y-72526648D01*
X72281897Y-72526647D01*
X72068865Y-72384304D01*
X71887696Y-72203135D01*
X71745353Y-71990103D01*
X71745352Y-71990101D01*
X71647304Y-71753393D01*
X71597320Y-71502107D01*
X71597320Y-71245893D01*
X71647304Y-70994607D01*
X71745352Y-70757899D01*
X71745353Y-70757897D01*
X71887696Y-70544865D01*
X72068865Y-70363696D01*
X72281897Y-70221353D01*
X72292831Y-70216824D01*
X72518607Y-70123304D01*
X72769893Y-70073320D01*
X73026107Y-70073320D01*
X73277393Y-70123304D01*
X73277393Y-70123304D01*
G37*
G36*
X83248162Y-69328368D02*
G01*
X83557724Y-69456593D01*
X83559554Y-69457816D01*
X83836324Y-69642747D01*
X84073253Y-69879676D01*
X84154108Y-70000685D01*
X84259407Y-70158276D01*
X84387632Y-70467838D01*
X84453000Y-70796465D01*
X84453000Y-71131535D01*
X84387632Y-71460162D01*
X84259407Y-71769724D01*
X84197637Y-71862170D01*
X84073253Y-72048324D01*
X83836324Y-72285253D01*
X83650170Y-72409637D01*
X83557724Y-72471407D01*
X83248162Y-72599632D01*
X82919535Y-72665000D01*
X82584465Y-72665000D01*
X82255838Y-72599632D01*
X81946276Y-72471407D01*
X81853830Y-72409637D01*
X81667676Y-72285253D01*
X81430747Y-72048324D01*
X81306363Y-71862170D01*
X81244593Y-71769724D01*
X81116368Y-71460162D01*
X81051000Y-71131535D01*
X81051000Y-70796465D01*
X81116368Y-70467838D01*
X81244593Y-70158276D01*
X81349892Y-70000685D01*
X81430747Y-69879676D01*
X81667676Y-69642747D01*
X81944446Y-69457816D01*
X81946276Y-69456593D01*
X82255838Y-69328368D01*
X82584465Y-69263000D01*
X82919535Y-69263000D01*
X83248162Y-69328368D01*
X83248162Y-69328368D01*
G37*
G36*
X159448162Y-69328368D02*
G01*
X159757724Y-69456593D01*
X159759554Y-69457816D01*
X160036324Y-69642747D01*
X160273253Y-69879676D01*
X160354108Y-70000685D01*
X160459407Y-70158276D01*
X160587632Y-70467838D01*
X160653000Y-70796465D01*
X160653000Y-71131535D01*
X160587632Y-71460162D01*
X160459407Y-71769724D01*
X160397637Y-71862170D01*
X160273253Y-72048324D01*
X160036324Y-72285253D01*
X159850170Y-72409637D01*
X159757724Y-72471407D01*
X159448162Y-72599632D01*
X159119535Y-72665000D01*
X158784465Y-72665000D01*
X158455838Y-72599632D01*
X158146276Y-72471407D01*
X158053830Y-72409637D01*
X157867676Y-72285253D01*
X157630747Y-72048324D01*
X157506363Y-71862170D01*
X157444593Y-71769724D01*
X157316368Y-71460162D01*
X157251000Y-71131535D01*
X157251000Y-70796465D01*
X157316368Y-70467838D01*
X157444593Y-70158276D01*
X157549892Y-70000685D01*
X157630747Y-69879676D01*
X157867676Y-69642747D01*
X158144446Y-69457816D01*
X158146276Y-69456593D01*
X158455838Y-69328368D01*
X158784465Y-69263000D01*
X159119535Y-69263000D01*
X159448162Y-69328368D01*
X159448162Y-69328368D01*
G37*
G36*
X91610228Y-70555703D02*
G01*
X91765100Y-70619853D01*
X91904481Y-70712985D01*
X92023015Y-70831519D01*
X92116147Y-70970900D01*
X92180297Y-71125772D01*
X92213000Y-71290184D01*
X92213000Y-71457816D01*
X92180297Y-71622228D01*
X92116147Y-71777100D01*
X92023015Y-71916481D01*
X91904481Y-72035015D01*
X91765100Y-72128147D01*
X91610228Y-72192297D01*
X91445816Y-72225000D01*
X91278184Y-72225000D01*
X91113772Y-72192297D01*
X90958900Y-72128147D01*
X90819519Y-72035015D01*
X90700985Y-71916481D01*
X90607853Y-71777100D01*
X90543703Y-71622228D01*
X90511000Y-71457816D01*
X90511000Y-71290184D01*
X90543703Y-71125772D01*
X90607853Y-70970900D01*
X90700985Y-70831519D01*
X90819519Y-70712985D01*
X90958900Y-70619853D01*
X91113772Y-70555703D01*
X91278184Y-70523000D01*
X91445816Y-70523000D01*
X91610228Y-70555703D01*
X91610228Y-70555703D01*
G37*
G36*
X88210228Y-70555703D02*
G01*
X88365100Y-70619853D01*
X88504481Y-70712985D01*
X88623015Y-70831519D01*
X88716147Y-70970900D01*
X88780297Y-71125772D01*
X88813000Y-71290184D01*
X88813000Y-71457816D01*
X88780297Y-71622228D01*
X88716147Y-71777100D01*
X88623015Y-71916481D01*
X88504481Y-72035015D01*
X88365100Y-72128147D01*
X88210228Y-72192297D01*
X88045816Y-72225000D01*
X87878184Y-72225000D01*
X87713772Y-72192297D01*
X87558900Y-72128147D01*
X87419519Y-72035015D01*
X87300985Y-71916481D01*
X87207853Y-71777100D01*
X87143703Y-71622228D01*
X87111000Y-71457816D01*
X87111000Y-71290184D01*
X87143703Y-71125772D01*
X87207853Y-70970900D01*
X87300985Y-70831519D01*
X87419519Y-70712985D01*
X87558900Y-70619853D01*
X87713772Y-70555703D01*
X87878184Y-70523000D01*
X88045816Y-70523000D01*
X88210228Y-70555703D01*
X88210228Y-70555703D01*
G37*
G36*
X131965000Y-71513000D02*
G01*
X130163000Y-71513000D01*
X130163000Y-69711000D01*
X131965000Y-69711000D01*
X131965000Y-71513000D01*
X131965000Y-71513000D01*
G37*
G36*
X173603890Y-69732017D02*
G01*
X173722364Y-69781091D01*
X173828988Y-69852335D01*
X173919665Y-69943012D01*
X173981728Y-70035895D01*
X173990910Y-70049638D01*
X174039983Y-70168110D01*
X174065000Y-70293881D01*
X174065000Y-70422119D01*
X174039983Y-70547890D01*
X173990909Y-70666364D01*
X173919665Y-70772988D01*
X173828988Y-70863665D01*
X173722364Y-70934909D01*
X173722363Y-70934910D01*
X173722362Y-70934910D01*
X173603890Y-70983983D01*
X173478119Y-71009000D01*
X173349881Y-71009000D01*
X173224110Y-70983983D01*
X173105638Y-70934910D01*
X173105637Y-70934910D01*
X173105636Y-70934909D01*
X172999012Y-70863665D01*
X172908335Y-70772988D01*
X172837091Y-70666364D01*
X172788017Y-70547890D01*
X172763000Y-70422119D01*
X172763000Y-70293881D01*
X172788017Y-70168110D01*
X172837090Y-70049638D01*
X172846273Y-70035895D01*
X172908335Y-69943012D01*
X172999012Y-69852335D01*
X173105636Y-69781091D01*
X173224110Y-69732017D01*
X173349881Y-69707000D01*
X173478119Y-69707000D01*
X173603890Y-69732017D01*
X173603890Y-69732017D01*
G37*
G36*
X167603890Y-69732017D02*
G01*
X167722364Y-69781091D01*
X167828988Y-69852335D01*
X167919665Y-69943012D01*
X167981728Y-70035895D01*
X167990910Y-70049638D01*
X168039983Y-70168110D01*
X168065000Y-70293881D01*
X168065000Y-70422119D01*
X168039983Y-70547890D01*
X167990909Y-70666364D01*
X167919665Y-70772988D01*
X167828988Y-70863665D01*
X167722364Y-70934909D01*
X167722363Y-70934910D01*
X167722362Y-70934910D01*
X167603890Y-70983983D01*
X167478119Y-71009000D01*
X167349881Y-71009000D01*
X167224110Y-70983983D01*
X167105638Y-70934910D01*
X167105637Y-70934910D01*
X167105636Y-70934909D01*
X166999012Y-70863665D01*
X166908335Y-70772988D01*
X166837091Y-70666364D01*
X166788017Y-70547890D01*
X166763000Y-70422119D01*
X166763000Y-70293881D01*
X166788017Y-70168110D01*
X166837090Y-70049638D01*
X166846273Y-70035895D01*
X166908335Y-69943012D01*
X166999012Y-69852335D01*
X167105636Y-69781091D01*
X167224110Y-69732017D01*
X167349881Y-69707000D01*
X167478119Y-69707000D01*
X167603890Y-69732017D01*
X167603890Y-69732017D01*
G37*
G36*
X88210228Y-68555703D02*
G01*
X88365100Y-68619853D01*
X88504481Y-68712985D01*
X88623015Y-68831519D01*
X88716147Y-68970900D01*
X88780297Y-69125772D01*
X88813000Y-69290184D01*
X88813000Y-69457816D01*
X88780297Y-69622228D01*
X88716147Y-69777100D01*
X88623015Y-69916481D01*
X88504481Y-70035015D01*
X88365100Y-70128147D01*
X88210228Y-70192297D01*
X88045816Y-70225000D01*
X87878184Y-70225000D01*
X87713772Y-70192297D01*
X87558900Y-70128147D01*
X87419519Y-70035015D01*
X87300985Y-69916481D01*
X87207853Y-69777100D01*
X87143703Y-69622228D01*
X87111000Y-69457816D01*
X87111000Y-69290184D01*
X87143703Y-69125772D01*
X87207853Y-68970900D01*
X87300985Y-68831519D01*
X87419519Y-68712985D01*
X87558900Y-68619853D01*
X87713772Y-68555703D01*
X87878184Y-68523000D01*
X88045816Y-68523000D01*
X88210228Y-68555703D01*
X88210228Y-68555703D01*
G37*
G36*
X91920698Y-68530568D02*
G01*
X91988685Y-68551192D01*
X92051335Y-68584679D01*
X92106252Y-68629748D01*
X92151321Y-68684665D01*
X92184808Y-68747315D01*
X92205432Y-68815302D01*
X92213000Y-68892140D01*
X92213000Y-69855860D01*
X92205432Y-69932698D01*
X92184808Y-70000685D01*
X92151321Y-70063335D01*
X92106252Y-70118252D01*
X92051335Y-70163321D01*
X91988685Y-70196808D01*
X91920698Y-70217432D01*
X91843860Y-70225000D01*
X90880140Y-70225000D01*
X90803302Y-70217432D01*
X90735315Y-70196808D01*
X90672665Y-70163321D01*
X90617748Y-70118252D01*
X90572679Y-70063335D01*
X90539192Y-70000685D01*
X90518568Y-69932698D01*
X90511000Y-69855860D01*
X90511000Y-68892140D01*
X90518568Y-68815302D01*
X90539192Y-68747315D01*
X90572679Y-68684665D01*
X90617748Y-68629748D01*
X90672665Y-68584679D01*
X90735315Y-68551192D01*
X90803302Y-68530568D01*
X90880140Y-68523000D01*
X91843860Y-68523000D01*
X91920698Y-68530568D01*
X91920698Y-68530568D01*
G37*
G36*
X166880823Y-67119313D02*
G01*
X167041242Y-67167976D01*
X167173906Y-67238886D01*
X167189078Y-67246996D01*
X167318659Y-67353341D01*
X167425004Y-67482922D01*
X167425005Y-67482924D01*
X167504024Y-67630758D01*
X167552687Y-67791177D01*
X167569117Y-67958000D01*
X167552687Y-68124823D01*
X167504024Y-68285242D01*
X167433114Y-68417906D01*
X167425004Y-68433078D01*
X167318659Y-68562659D01*
X167189078Y-68669004D01*
X167189076Y-68669005D01*
X167041242Y-68748024D01*
X166880823Y-68796687D01*
X166755804Y-68809000D01*
X166072196Y-68809000D01*
X165947177Y-68796687D01*
X165786758Y-68748024D01*
X165638924Y-68669005D01*
X165638922Y-68669004D01*
X165509341Y-68562659D01*
X165402996Y-68433078D01*
X165394886Y-68417906D01*
X165323976Y-68285242D01*
X165275313Y-68124823D01*
X165258883Y-67958000D01*
X165275313Y-67791177D01*
X165323976Y-67630758D01*
X165402995Y-67482924D01*
X165402996Y-67482922D01*
X165509341Y-67353341D01*
X165638922Y-67246996D01*
X165654094Y-67238886D01*
X165786758Y-67167976D01*
X165947177Y-67119313D01*
X166072196Y-67107000D01*
X166755804Y-67107000D01*
X166880823Y-67119313D01*
X166880823Y-67119313D01*
G37*
G36*
X173880823Y-67119313D02*
G01*
X174041242Y-67167976D01*
X174173906Y-67238886D01*
X174189078Y-67246996D01*
X174318659Y-67353341D01*
X174425004Y-67482922D01*
X174425005Y-67482924D01*
X174504024Y-67630758D01*
X174552687Y-67791177D01*
X174569117Y-67958000D01*
X174552687Y-68124823D01*
X174504024Y-68285242D01*
X174433114Y-68417906D01*
X174425004Y-68433078D01*
X174318659Y-68562659D01*
X174189078Y-68669004D01*
X174189076Y-68669005D01*
X174041242Y-68748024D01*
X173880823Y-68796687D01*
X173755804Y-68809000D01*
X173072196Y-68809000D01*
X172947177Y-68796687D01*
X172786758Y-68748024D01*
X172638924Y-68669005D01*
X172638922Y-68669004D01*
X172509341Y-68562659D01*
X172402996Y-68433078D01*
X172394886Y-68417906D01*
X172323976Y-68285242D01*
X172275313Y-68124823D01*
X172258883Y-67958000D01*
X172275313Y-67791177D01*
X172323976Y-67630758D01*
X172402995Y-67482924D01*
X172402996Y-67482922D01*
X172509341Y-67353341D01*
X172638922Y-67246996D01*
X172654094Y-67238886D01*
X172786758Y-67167976D01*
X172947177Y-67119313D01*
X173072196Y-67107000D01*
X173755804Y-67107000D01*
X173880823Y-67119313D01*
X173880823Y-67119313D01*
G37*
G36*
X86041000Y-67499000D02*
G01*
X84139000Y-67499000D01*
X84139000Y-65597000D01*
X86041000Y-65597000D01*
X86041000Y-67499000D01*
X86041000Y-67499000D01*
G37*
G36*
X93915000Y-65467000D02*
G01*
X92013000Y-65467000D01*
X92013000Y-63565000D01*
X93915000Y-63565000D01*
X93915000Y-65467000D01*
X93915000Y-65467000D01*
G37*
G36*
X145223000Y-65467000D02*
G01*
X143321000Y-65467000D01*
X143321000Y-63565000D01*
X145223000Y-63565000D01*
X145223000Y-65467000D01*
X145223000Y-65467000D01*
G37*
G36*
X132015000Y-65467000D02*
G01*
X130113000Y-65467000D01*
X130113000Y-63565000D01*
X132015000Y-63565000D01*
X132015000Y-65467000D01*
X132015000Y-65467000D01*
G37*
G36*
X118807000Y-65467000D02*
G01*
X116905000Y-65467000D01*
X116905000Y-63565000D01*
X118807000Y-63565000D01*
X118807000Y-65467000D01*
X118807000Y-65467000D01*
G37*
G36*
X85367395Y-63093546D02*
G01*
X85540466Y-63165234D01*
X85540467Y-63165235D01*
X85696227Y-63269310D01*
X85828690Y-63401773D01*
X85828691Y-63401775D01*
X85932766Y-63557534D01*
X86004454Y-63730605D01*
X86041000Y-63914333D01*
X86041000Y-64101667D01*
X86004454Y-64285395D01*
X85932766Y-64458466D01*
X85932765Y-64458467D01*
X85828690Y-64614227D01*
X85696227Y-64746690D01*
X85617818Y-64799081D01*
X85540466Y-64850766D01*
X85367395Y-64922454D01*
X85183667Y-64959000D01*
X84996333Y-64959000D01*
X84812605Y-64922454D01*
X84639534Y-64850766D01*
X84562182Y-64799081D01*
X84483773Y-64746690D01*
X84351310Y-64614227D01*
X84247235Y-64458467D01*
X84247234Y-64458466D01*
X84175546Y-64285395D01*
X84139000Y-64101667D01*
X84139000Y-63914333D01*
X84175546Y-63730605D01*
X84247234Y-63557534D01*
X84351309Y-63401775D01*
X84351310Y-63401773D01*
X84483773Y-63269310D01*
X84639533Y-63165235D01*
X84639534Y-63165234D01*
X84812605Y-63093546D01*
X84996333Y-63057000D01*
X85183667Y-63057000D01*
X85367395Y-63093546D01*
X85367395Y-63093546D01*
G37*
G36*
X144549395Y-61061546D02*
G01*
X144722466Y-61133234D01*
X144722467Y-61133235D01*
X144878227Y-61237310D01*
X145010690Y-61369773D01*
X145010691Y-61369775D01*
X145114766Y-61525534D01*
X145186454Y-61698605D01*
X145223000Y-61882333D01*
X145223000Y-62069667D01*
X145186454Y-62253395D01*
X145114766Y-62426466D01*
X145114765Y-62426467D01*
X145010690Y-62582227D01*
X144878227Y-62714690D01*
X144799818Y-62767081D01*
X144722466Y-62818766D01*
X144549395Y-62890454D01*
X144365667Y-62927000D01*
X144178333Y-62927000D01*
X143994605Y-62890454D01*
X143821534Y-62818766D01*
X143744182Y-62767081D01*
X143665773Y-62714690D01*
X143533310Y-62582227D01*
X143429235Y-62426467D01*
X143429234Y-62426466D01*
X143357546Y-62253395D01*
X143321000Y-62069667D01*
X143321000Y-61882333D01*
X143357546Y-61698605D01*
X143429234Y-61525534D01*
X143533309Y-61369775D01*
X143533310Y-61369773D01*
X143665773Y-61237310D01*
X143821533Y-61133235D01*
X143821534Y-61133234D01*
X143994605Y-61061546D01*
X144178333Y-61025000D01*
X144365667Y-61025000D01*
X144549395Y-61061546D01*
X144549395Y-61061546D01*
G37*
G36*
X93241395Y-61061546D02*
G01*
X93414466Y-61133234D01*
X93414467Y-61133235D01*
X93570227Y-61237310D01*
X93702690Y-61369773D01*
X93702691Y-61369775D01*
X93806766Y-61525534D01*
X93878454Y-61698605D01*
X93915000Y-61882333D01*
X93915000Y-62069667D01*
X93878454Y-62253395D01*
X93806766Y-62426466D01*
X93806765Y-62426467D01*
X93702690Y-62582227D01*
X93570227Y-62714690D01*
X93491818Y-62767081D01*
X93414466Y-62818766D01*
X93241395Y-62890454D01*
X93057667Y-62927000D01*
X92870333Y-62927000D01*
X92686605Y-62890454D01*
X92513534Y-62818766D01*
X92436182Y-62767081D01*
X92357773Y-62714690D01*
X92225310Y-62582227D01*
X92121235Y-62426467D01*
X92121234Y-62426466D01*
X92049546Y-62253395D01*
X92013000Y-62069667D01*
X92013000Y-61882333D01*
X92049546Y-61698605D01*
X92121234Y-61525534D01*
X92225309Y-61369775D01*
X92225310Y-61369773D01*
X92357773Y-61237310D01*
X92513533Y-61133235D01*
X92513534Y-61133234D01*
X92686605Y-61061546D01*
X92870333Y-61025000D01*
X93057667Y-61025000D01*
X93241395Y-61061546D01*
X93241395Y-61061546D01*
G37*
G36*
X131341395Y-61061546D02*
G01*
X131514466Y-61133234D01*
X131514467Y-61133235D01*
X131670227Y-61237310D01*
X131802690Y-61369773D01*
X131802691Y-61369775D01*
X131906766Y-61525534D01*
X131978454Y-61698605D01*
X132015000Y-61882333D01*
X132015000Y-62069667D01*
X131978454Y-62253395D01*
X131906766Y-62426466D01*
X131906765Y-62426467D01*
X131802690Y-62582227D01*
X131670227Y-62714690D01*
X131591818Y-62767081D01*
X131514466Y-62818766D01*
X131341395Y-62890454D01*
X131157667Y-62927000D01*
X130970333Y-62927000D01*
X130786605Y-62890454D01*
X130613534Y-62818766D01*
X130536182Y-62767081D01*
X130457773Y-62714690D01*
X130325310Y-62582227D01*
X130221235Y-62426467D01*
X130221234Y-62426466D01*
X130149546Y-62253395D01*
X130113000Y-62069667D01*
X130113000Y-61882333D01*
X130149546Y-61698605D01*
X130221234Y-61525534D01*
X130325309Y-61369775D01*
X130325310Y-61369773D01*
X130457773Y-61237310D01*
X130613533Y-61133235D01*
X130613534Y-61133234D01*
X130786605Y-61061546D01*
X130970333Y-61025000D01*
X131157667Y-61025000D01*
X131341395Y-61061546D01*
X131341395Y-61061546D01*
G37*
G36*
X118133395Y-61061546D02*
G01*
X118306466Y-61133234D01*
X118306467Y-61133235D01*
X118462227Y-61237310D01*
X118594690Y-61369773D01*
X118594691Y-61369775D01*
X118698766Y-61525534D01*
X118770454Y-61698605D01*
X118807000Y-61882333D01*
X118807000Y-62069667D01*
X118770454Y-62253395D01*
X118698766Y-62426466D01*
X118698765Y-62426467D01*
X118594690Y-62582227D01*
X118462227Y-62714690D01*
X118383818Y-62767081D01*
X118306466Y-62818766D01*
X118133395Y-62890454D01*
X117949667Y-62927000D01*
X117762333Y-62927000D01*
X117578605Y-62890454D01*
X117405534Y-62818766D01*
X117328182Y-62767081D01*
X117249773Y-62714690D01*
X117117310Y-62582227D01*
X117013235Y-62426467D01*
X117013234Y-62426466D01*
X116941546Y-62253395D01*
X116905000Y-62069667D01*
X116905000Y-61882333D01*
X116941546Y-61698605D01*
X117013234Y-61525534D01*
X117117309Y-61369775D01*
X117117310Y-61369773D01*
X117249773Y-61237310D01*
X117405533Y-61133235D01*
X117405534Y-61133234D01*
X117578605Y-61061546D01*
X117762333Y-61025000D01*
X117949667Y-61025000D01*
X118133395Y-61061546D01*
X118133395Y-61061546D01*
G37*
G36*
X88259256Y-58821860D02*
G01*
X88365579Y-58843009D01*
X88666042Y-58967465D01*
X88936451Y-59148147D01*
X89166415Y-59378111D01*
X89347097Y-59648520D01*
X89471553Y-59948983D01*
X89535000Y-60267953D01*
X89535000Y-60593171D01*
X89471553Y-60912141D01*
X89347097Y-61212604D01*
X89166415Y-61483013D01*
X88936451Y-61712977D01*
X88666042Y-61893659D01*
X88365579Y-62018115D01*
X88259256Y-62039264D01*
X88046611Y-62081562D01*
X87721389Y-62081562D01*
X87508744Y-62039264D01*
X87402421Y-62018115D01*
X87101958Y-61893659D01*
X86831549Y-61712977D01*
X86601585Y-61483013D01*
X86420903Y-61212604D01*
X86296447Y-60912141D01*
X86233000Y-60593171D01*
X86233000Y-60267953D01*
X86296447Y-59948983D01*
X86420903Y-59648520D01*
X86601585Y-59378111D01*
X86831549Y-59148147D01*
X87101958Y-58967465D01*
X87402421Y-58843009D01*
X87508744Y-58821860D01*
X87721389Y-58779562D01*
X88046611Y-58779562D01*
X88259256Y-58821860D01*
X88259256Y-58821860D01*
G37*
G36*
X158298257Y-58821860D02*
G01*
X158404580Y-58843009D01*
X158705043Y-58967465D01*
X158975452Y-59148147D01*
X159205416Y-59378111D01*
X159386098Y-59648520D01*
X159510554Y-59948983D01*
X159574001Y-60267953D01*
X159574001Y-60593171D01*
X159510554Y-60912141D01*
X159386098Y-61212604D01*
X159205416Y-61483013D01*
X158975452Y-61712977D01*
X158705043Y-61893659D01*
X158404580Y-62018115D01*
X158298257Y-62039264D01*
X158085612Y-62081562D01*
X157760390Y-62081562D01*
X157547745Y-62039264D01*
X157441422Y-62018115D01*
X157140959Y-61893659D01*
X156870550Y-61712977D01*
X156640586Y-61483013D01*
X156459904Y-61212604D01*
X156335448Y-60912141D01*
X156272001Y-60593171D01*
X156272001Y-60267953D01*
X156335448Y-59948983D01*
X156459904Y-59648520D01*
X156640586Y-59378111D01*
X156870550Y-59148147D01*
X157140959Y-58967465D01*
X157441422Y-58843009D01*
X157547745Y-58821860D01*
X157760390Y-58779562D01*
X158085612Y-58779562D01*
X158298257Y-58821860D01*
X158298257Y-58821860D01*
G37*
G36*
X151827000Y-60387000D02*
G01*
X149925000Y-60387000D01*
X149925000Y-58485000D01*
X151827000Y-58485000D01*
X151827000Y-60387000D01*
X151827000Y-60387000D01*
G37*
G36*
X98487000Y-60387000D02*
G01*
X96585000Y-60387000D01*
X96585000Y-58485000D01*
X98487000Y-58485000D01*
X98487000Y-60387000D01*
X98487000Y-60387000D01*
G37*
G36*
X125411000Y-60387000D02*
G01*
X123509000Y-60387000D01*
X123509000Y-58485000D01*
X125411000Y-58485000D01*
X125411000Y-60387000D01*
X125411000Y-60387000D01*
G37*
G36*
X138619000Y-60387000D02*
G01*
X136717000Y-60387000D01*
X136717000Y-58485000D01*
X138619000Y-58485000D01*
X138619000Y-60387000D01*
X138619000Y-60387000D01*
G37*
G36*
X124737395Y-55981546D02*
G01*
X124910466Y-56053234D01*
X124910467Y-56053235D01*
X125066227Y-56157310D01*
X125198690Y-56289773D01*
X125198691Y-56289775D01*
X125302766Y-56445534D01*
X125374454Y-56618605D01*
X125411000Y-56802333D01*
X125411000Y-56989667D01*
X125374454Y-57173395D01*
X125302766Y-57346466D01*
X125302765Y-57346467D01*
X125198690Y-57502227D01*
X125066227Y-57634690D01*
X124987818Y-57687081D01*
X124910466Y-57738766D01*
X124737395Y-57810454D01*
X124553667Y-57847000D01*
X124366333Y-57847000D01*
X124182605Y-57810454D01*
X124009534Y-57738766D01*
X123932182Y-57687081D01*
X123853773Y-57634690D01*
X123721310Y-57502227D01*
X123617235Y-57346467D01*
X123617234Y-57346466D01*
X123545546Y-57173395D01*
X123509000Y-56989667D01*
X123509000Y-56802333D01*
X123545546Y-56618605D01*
X123617234Y-56445534D01*
X123721309Y-56289775D01*
X123721310Y-56289773D01*
X123853773Y-56157310D01*
X124009533Y-56053235D01*
X124009534Y-56053234D01*
X124182605Y-55981546D01*
X124366333Y-55945000D01*
X124553667Y-55945000D01*
X124737395Y-55981546D01*
X124737395Y-55981546D01*
G37*
G36*
X137945395Y-55981546D02*
G01*
X138118466Y-56053234D01*
X138118467Y-56053235D01*
X138274227Y-56157310D01*
X138406690Y-56289773D01*
X138406691Y-56289775D01*
X138510766Y-56445534D01*
X138582454Y-56618605D01*
X138619000Y-56802333D01*
X138619000Y-56989667D01*
X138582454Y-57173395D01*
X138510766Y-57346466D01*
X138510765Y-57346467D01*
X138406690Y-57502227D01*
X138274227Y-57634690D01*
X138195818Y-57687081D01*
X138118466Y-57738766D01*
X137945395Y-57810454D01*
X137761667Y-57847000D01*
X137574333Y-57847000D01*
X137390605Y-57810454D01*
X137217534Y-57738766D01*
X137140182Y-57687081D01*
X137061773Y-57634690D01*
X136929310Y-57502227D01*
X136825235Y-57346467D01*
X136825234Y-57346466D01*
X136753546Y-57173395D01*
X136717000Y-56989667D01*
X136717000Y-56802333D01*
X136753546Y-56618605D01*
X136825234Y-56445534D01*
X136929309Y-56289775D01*
X136929310Y-56289773D01*
X137061773Y-56157310D01*
X137217533Y-56053235D01*
X137217534Y-56053234D01*
X137390605Y-55981546D01*
X137574333Y-55945000D01*
X137761667Y-55945000D01*
X137945395Y-55981546D01*
X137945395Y-55981546D01*
G37*
G36*
X151153395Y-55981546D02*
G01*
X151326466Y-56053234D01*
X151326467Y-56053235D01*
X151482227Y-56157310D01*
X151614690Y-56289773D01*
X151614691Y-56289775D01*
X151718766Y-56445534D01*
X151790454Y-56618605D01*
X151827000Y-56802333D01*
X151827000Y-56989667D01*
X151790454Y-57173395D01*
X151718766Y-57346466D01*
X151718765Y-57346467D01*
X151614690Y-57502227D01*
X151482227Y-57634690D01*
X151403818Y-57687081D01*
X151326466Y-57738766D01*
X151153395Y-57810454D01*
X150969667Y-57847000D01*
X150782333Y-57847000D01*
X150598605Y-57810454D01*
X150425534Y-57738766D01*
X150348182Y-57687081D01*
X150269773Y-57634690D01*
X150137310Y-57502227D01*
X150033235Y-57346467D01*
X150033234Y-57346466D01*
X149961546Y-57173395D01*
X149925000Y-56989667D01*
X149925000Y-56802333D01*
X149961546Y-56618605D01*
X150033234Y-56445534D01*
X150137309Y-56289775D01*
X150137310Y-56289773D01*
X150269773Y-56157310D01*
X150425533Y-56053235D01*
X150425534Y-56053234D01*
X150598605Y-55981546D01*
X150782333Y-55945000D01*
X150969667Y-55945000D01*
X151153395Y-55981546D01*
X151153395Y-55981546D01*
G37*
G36*
X97813395Y-55981546D02*
G01*
X97986466Y-56053234D01*
X97986467Y-56053235D01*
X98142227Y-56157310D01*
X98274690Y-56289773D01*
X98274691Y-56289775D01*
X98378766Y-56445534D01*
X98450454Y-56618605D01*
X98487000Y-56802333D01*
X98487000Y-56989667D01*
X98450454Y-57173395D01*
X98378766Y-57346466D01*
X98378765Y-57346467D01*
X98274690Y-57502227D01*
X98142227Y-57634690D01*
X98063818Y-57687081D01*
X97986466Y-57738766D01*
X97813395Y-57810454D01*
X97629667Y-57847000D01*
X97442333Y-57847000D01*
X97258605Y-57810454D01*
X97085534Y-57738766D01*
X97008182Y-57687081D01*
X96929773Y-57634690D01*
X96797310Y-57502227D01*
X96693235Y-57346467D01*
X96693234Y-57346466D01*
X96621546Y-57173395D01*
X96585000Y-56989667D01*
X96585000Y-56802333D01*
X96621546Y-56618605D01*
X96693234Y-56445534D01*
X96797309Y-56289775D01*
X96797310Y-56289773D01*
X96929773Y-56157310D01*
X97085533Y-56053235D01*
X97085534Y-56053234D01*
X97258605Y-55981546D01*
X97442333Y-55945000D01*
X97629667Y-55945000D01*
X97813395Y-55981546D01*
X97813395Y-55981546D01*
G37*
M02*
