M48
; DRILL file {KiCad (5.1.0)-1} date 07/07/2019 19:15:57
; FORMAT={-:-/ absolute / metric / decimal}
; #@! TF.CreationDate,2019-07-07T19:15:57+02:00
; #@! TF.GenerationSoftware,Kicad,Pcbnew,(5.1.0)-1
; #@! TF.FileFunction,Plated,1,2,PTH
FMAT,2
METRIC
T1C0.400
T2C0.550
T3C0.700
T4C0.760
T5C0.762
T6C0.800
T7C0.850
T8C0.900
T9C1.000
%
G90
G05
T1
X76.454Y-95.504
X76.454Y-97.536
X80.264Y-94.234
X84.201Y-95.758
X84.201Y-100.076
X85.09Y-115.57
X85.852Y-98.552
X85.852Y-100.647
X86.741Y-101.6
X87.757Y-93.726
X87.757Y-94.869
X87.757Y-100.076
X88.265Y-107.696
X89.408Y-108.204
X89.535Y-100.584
X91.44Y-108.204
X92.456Y-87.63
X92.71Y-123.698
X93.345Y-108.712
X93.472Y-90.678
X93.472Y-92.456
X93.726Y-87.376
X95.885Y-87.376
X96.52Y-112.014
X96.774Y-103.124
X97.536Y-108.204
X97.663Y-87.884
X99.568Y-110.236
X101.854Y-87.376
X103.124Y-96.647
X104.267Y-96.901
X106.108Y-87.312
X106.426Y-94.488
X107.95Y-90.17
X109.855Y-110.236
X109.855Y-112.268
X112.712Y-109.664
X113.03Y-93.853
X113.411Y-85.217
X114.297Y-101.475
X115.189Y-123.317
X118.745Y-82.296
X119.38Y-80.772
X119.634Y-83.058
X119.888Y-92.202
X120.523Y-78.74
X120.904Y-89.154
X121.793Y-79.629
X122.24Y-109.667
X122.936Y-80.772
X122.936Y-99.377
X123.825Y-101.219
X124.333Y-94.488
X124.587Y-85.344
X124.968Y-98.806
X125.349Y-84.582
X125.476Y-90.17
X125.476Y-92.583
X129.286Y-101.346
X129.286Y-104.394
X129.667Y-123.317
X130.048Y-99.06
X130.302Y-96.012
X131.572Y-89.916
X131.572Y-91.821
X132.588Y-89.789
X132.588Y-91.821
X133.604Y-89.916
X133.604Y-91.821
X136.652Y-80.264
X136.652Y-85.598
X137.16Y-75.946
X139.573Y-115.519
X139.7Y-112.903
X140.208Y-73.025
X140.462Y-96.52
X140.462Y-98.298
X140.97Y-94.234
X143.002Y-92.202
X143.129Y-110.617
X144.145Y-123.317
X144.272Y-80.518
X144.272Y-83.312
X145.288Y-72.136
X146.609Y-114.275
X147.574Y-74.676
X148.082Y-114.275
X148.526Y-104.648
X148.78Y-109.41
X149.098Y-91.948
X149.352Y-72.898
X149.733Y-77.343
X151.13Y-80.391
X151.13Y-84.836
X151.13Y-103.124
X151.13Y-106.172
X152.4Y-109.728
X157.226Y-81.28
X159.829Y-104.902
X161.036Y-114.808
X161.29Y-85.598
X162.306Y-116.332
X163.004Y-111.823
X163.068Y-94.234
X163.068Y-96.266
X164.846Y-109.22
X166.624Y-106.426
X167.703Y-99.949
X168.402Y-115.824
X169.672Y-115.824
X170.053Y-101.092
X170.434Y-83.693
X172.974Y-114.808
X172.974Y-115.824
X173.736Y-100.076
X173.736Y-101.6
X173.736Y-103.124
X173.736Y-104.648
X173.736Y-106.172
X175.26Y-101.6
X175.26Y-103.124
X175.26Y-104.648
T3
X135.319Y-112.014
X136.525Y-104.902
X114.681Y-93.853
X130.619Y-111.697
X137.668Y-107.442
X136.525Y-101.981
T4
X127.127Y-116.078
X128.397Y-118.618
X129.667Y-116.078
X130.937Y-118.618
X132.207Y-116.078
X133.477Y-118.618
X162.306Y-69.85
X162.306Y-72.39
X162.306Y-74.93
X162.306Y-77.47
X164.846Y-71.12
X164.846Y-73.66
X164.846Y-76.2
X164.846Y-78.74
X141.605Y-116.078
X142.875Y-118.618
X144.145Y-116.078
X145.415Y-118.618
X146.685Y-116.078
X147.955Y-118.618
X98.171Y-116.078
X99.441Y-118.618
X100.711Y-116.078
X101.981Y-118.618
X103.251Y-116.078
X104.521Y-118.618
X112.649Y-116.078
X113.919Y-118.618
X115.189Y-116.078
X116.459Y-118.618
X117.729Y-116.078
X118.999Y-118.618
T5
X119.634Y-71.628
X122.174Y-71.628
X124.714Y-71.628
X127.254Y-71.628
X74.422Y-76.454
X74.422Y-78.994
X74.422Y-81.534
X74.422Y-84.074
X74.422Y-86.614
X74.422Y-89.154
X74.422Y-91.694
X74.422Y-94.234
X74.422Y-96.774
X74.422Y-99.314
X74.422Y-101.854
X74.422Y-104.394
X74.422Y-106.934
X74.422Y-109.474
X155.702Y-89.154
X155.702Y-91.694
X155.702Y-94.234
X155.702Y-96.774
T8
X100.965Y-101.6
X103.505Y-101.6
X95.885Y-72.39
X98.425Y-72.39
X148.59Y-57.785
X151.13Y-57.785
X127.0Y-64.77
X129.54Y-64.77
X115.57Y-57.785
X118.11Y-57.785
X95.885Y-101.6
X98.425Y-101.6
X83.976Y-67.184
X83.976Y-69.184
X83.976Y-71.184
X83.976Y-73.184
X83.976Y-75.184
X87.376Y-67.184
X87.376Y-69.184
X87.376Y-71.184
X87.376Y-73.184
X87.376Y-75.184
X115.57Y-64.77
X118.11Y-64.77
X100.965Y-72.39
X103.505Y-72.39
X148.59Y-64.77
X151.13Y-64.77
X138.43Y-57.785
X140.97Y-57.785
X106.045Y-101.6
X108.585Y-101.6
X106.108Y-72.39
X108.648Y-72.39
X127.0Y-57.785
X129.54Y-57.785
X90.805Y-72.39
X93.345Y-72.39
X138.43Y-64.77
X140.97Y-64.77
X90.805Y-101.6
X93.345Y-101.6
T9
X127.508Y-84.328
X130.048Y-84.328
X132.588Y-84.328
X96.727Y-105.029
X106.727Y-105.129
X98.044Y-91.694
X100.584Y-91.694
X103.124Y-91.694
X105.664Y-91.694
T2
G00X174.98Y-99.185
M15
G01X175.63Y-99.185
M16
G05
G00X174.98Y-106.935
M15
G01X175.63Y-106.935
M16
G05
T6
G00X168.619Y-89.167
M15
G01X168.019Y-89.167
M16
G05
G00X173.619Y-93.967
M15
G01X173.019Y-93.967
M16
G05
G00X175.619Y-89.167
M15
G01X175.019Y-89.167
M16
G05
T7
G00X171.23Y-99.335
M15
G01X171.78Y-99.335
M16
G05
G00X171.23Y-106.785
M15
G01X171.78Y-106.785
M16
G05
T0
M30
