G04 #@! TF.GenerationSoftware,KiCad,Pcbnew,(5.1.0)-1*
G04 #@! TF.CreationDate,2019-09-05T23:41:34+02:00*
G04 #@! TF.ProjectId,button_v1,62757474-6f6e-45f7-9631-2e6b69636164,rev?*
G04 #@! TF.SameCoordinates,Original*
G04 #@! TF.FileFunction,Legend,Bot*
G04 #@! TF.FilePolarity,Positive*
%FSLAX46Y46*%
G04 Gerber Fmt 4.6, Leading zero omitted, Abs format (unit mm)*
G04 Created by KiCad (PCBNEW (5.1.0)-1) date 2019-09-05 23:41:34*
%MOMM*%
%LPD*%
G04 APERTURE LIST*
%ADD10C,0.300000*%
%ADD11C,0.120000*%
%ADD12C,0.150000*%
%ADD13R,1.202000X2.002000*%
%ADD14R,0.802000X2.702000*%
%ADD15C,2.601360*%
%ADD16C,3.302000*%
%ADD17C,3.402000*%
%ADD18C,1.626000*%
%ADD19C,0.100000*%
%ADD20R,1.802000X1.802000*%
%ADD21O,1.802000X1.802000*%
%ADD22R,0.902000X0.602000*%
%ADD23R,0.902000X0.502000*%
%ADD24C,1.902000*%
%ADD25R,1.902000X1.902000*%
%ADD26C,1.252000*%
%ADD27R,1.002000X0.902000*%
%ADD28R,5.102000X1.626000*%
%ADD29O,1.702000X1.702000*%
%ADD30R,1.702000X1.702000*%
%ADD31C,1.702000*%
%ADD32O,2.302000X1.702000*%
%ADD33C,1.302000*%
%ADD34R,1.602000X2.102000*%
%ADD35R,3.902000X2.102000*%
%ADD36O,2.102000X1.552000*%
%ADD37O,1.902000X1.252000*%
%ADD38O,0.902000X0.902000*%
%ADD39R,1.602000X1.602000*%
%ADD40C,1.602000*%
%ADD41C,3.352000*%
%ADD42C,1.622000*%
%ADD43R,1.622000X1.622000*%
G04 APERTURE END LIST*
D10*
X91777142Y-88411857D02*
X91562857Y-88483285D01*
X91491428Y-88554714D01*
X91420000Y-88697571D01*
X91420000Y-88911857D01*
X91491428Y-89054714D01*
X91562857Y-89126142D01*
X91705714Y-89197571D01*
X92277142Y-89197571D01*
X92277142Y-87697571D01*
X91777142Y-87697571D01*
X91634285Y-87769000D01*
X91562857Y-87840428D01*
X91491428Y-87983285D01*
X91491428Y-88126142D01*
X91562857Y-88269000D01*
X91634285Y-88340428D01*
X91777142Y-88411857D01*
X92277142Y-88411857D01*
X90562857Y-89197571D02*
X90705714Y-89126142D01*
X90777142Y-88983285D01*
X90777142Y-87697571D01*
X89348571Y-88197571D02*
X89348571Y-89197571D01*
X89991428Y-88197571D02*
X89991428Y-88983285D01*
X89920000Y-89126142D01*
X89777142Y-89197571D01*
X89562857Y-89197571D01*
X89420000Y-89126142D01*
X89348571Y-89054714D01*
X88062857Y-89126142D02*
X88205714Y-89197571D01*
X88491428Y-89197571D01*
X88634285Y-89126142D01*
X88705714Y-88983285D01*
X88705714Y-88411857D01*
X88634285Y-88269000D01*
X88491428Y-88197571D01*
X88205714Y-88197571D01*
X88062857Y-88269000D01*
X87991428Y-88411857D01*
X87991428Y-88554714D01*
X88705714Y-88697571D01*
X86077857Y-88483285D02*
X86077857Y-89197571D01*
X86577857Y-87697571D02*
X86077857Y-88483285D01*
X85577857Y-87697571D01*
X84506428Y-89126142D02*
X84649285Y-89197571D01*
X84935000Y-89197571D01*
X85077857Y-89126142D01*
X85149285Y-88983285D01*
X85149285Y-88411857D01*
X85077857Y-88269000D01*
X84935000Y-88197571D01*
X84649285Y-88197571D01*
X84506428Y-88269000D01*
X84435000Y-88411857D01*
X84435000Y-88554714D01*
X85149285Y-88697571D01*
X83577857Y-89197571D02*
X83720714Y-89126142D01*
X83792142Y-88983285D01*
X83792142Y-87697571D01*
X82792142Y-89197571D02*
X82935000Y-89126142D01*
X83006428Y-88983285D01*
X83006428Y-87697571D01*
X82006428Y-89197571D02*
X82149285Y-89126142D01*
X82220714Y-89054714D01*
X82292142Y-88911857D01*
X82292142Y-88483285D01*
X82220714Y-88340428D01*
X82149285Y-88269000D01*
X82006428Y-88197571D01*
X81792142Y-88197571D01*
X81649285Y-88269000D01*
X81577857Y-88340428D01*
X81506428Y-88483285D01*
X81506428Y-88911857D01*
X81577857Y-89054714D01*
X81649285Y-89126142D01*
X81792142Y-89197571D01*
X82006428Y-89197571D01*
X81006428Y-88197571D02*
X80720714Y-89197571D01*
X80435000Y-88483285D01*
X80149285Y-89197571D01*
X79863571Y-88197571D01*
X90173714Y-75704000D02*
X90316571Y-75632571D01*
X90530857Y-75632571D01*
X90745142Y-75704000D01*
X90888000Y-75846857D01*
X90959428Y-75989714D01*
X91030857Y-76275428D01*
X91030857Y-76489714D01*
X90959428Y-76775428D01*
X90888000Y-76918285D01*
X90745142Y-77061142D01*
X90530857Y-77132571D01*
X90388000Y-77132571D01*
X90173714Y-77061142D01*
X90102285Y-76989714D01*
X90102285Y-76489714D01*
X90388000Y-76489714D01*
X89459428Y-77132571D02*
X89459428Y-76132571D01*
X89459428Y-76418285D02*
X89388000Y-76275428D01*
X89316571Y-76204000D01*
X89173714Y-76132571D01*
X89030857Y-76132571D01*
X87959428Y-77061142D02*
X88102285Y-77132571D01*
X88388000Y-77132571D01*
X88530857Y-77061142D01*
X88602285Y-76918285D01*
X88602285Y-76346857D01*
X88530857Y-76204000D01*
X88388000Y-76132571D01*
X88102285Y-76132571D01*
X87959428Y-76204000D01*
X87888000Y-76346857D01*
X87888000Y-76489714D01*
X88602285Y-76632571D01*
X86673714Y-77061142D02*
X86816571Y-77132571D01*
X87102285Y-77132571D01*
X87245142Y-77061142D01*
X87316571Y-76918285D01*
X87316571Y-76346857D01*
X87245142Y-76204000D01*
X87102285Y-76132571D01*
X86816571Y-76132571D01*
X86673714Y-76204000D01*
X86602285Y-76346857D01*
X86602285Y-76489714D01*
X87316571Y-76632571D01*
X85959428Y-76132571D02*
X85959428Y-77132571D01*
X85959428Y-76275428D02*
X85888000Y-76204000D01*
X85745142Y-76132571D01*
X85530857Y-76132571D01*
X85388000Y-76204000D01*
X85316571Y-76346857D01*
X85316571Y-77132571D01*
X83153142Y-77132571D02*
X83653142Y-76418285D01*
X84010285Y-77132571D02*
X84010285Y-75632571D01*
X83438857Y-75632571D01*
X83296000Y-75704000D01*
X83224571Y-75775428D01*
X83153142Y-75918285D01*
X83153142Y-76132571D01*
X83224571Y-76275428D01*
X83296000Y-76346857D01*
X83438857Y-76418285D01*
X84010285Y-76418285D01*
X81938857Y-77061142D02*
X82081714Y-77132571D01*
X82367428Y-77132571D01*
X82510285Y-77061142D01*
X82581714Y-76918285D01*
X82581714Y-76346857D01*
X82510285Y-76204000D01*
X82367428Y-76132571D01*
X82081714Y-76132571D01*
X81938857Y-76204000D01*
X81867428Y-76346857D01*
X81867428Y-76489714D01*
X82581714Y-76632571D01*
X80581714Y-77132571D02*
X80581714Y-75632571D01*
X80581714Y-77061142D02*
X80724571Y-77132571D01*
X81010285Y-77132571D01*
X81153142Y-77061142D01*
X81224571Y-76989714D01*
X81296000Y-76846857D01*
X81296000Y-76418285D01*
X81224571Y-76275428D01*
X81153142Y-76204000D01*
X81010285Y-76132571D01*
X80724571Y-76132571D01*
X80581714Y-76204000D01*
X112838857Y-60871571D02*
X112838857Y-59371571D01*
X111981714Y-60871571D01*
X111981714Y-59371571D01*
X110981714Y-59371571D02*
X110696000Y-59371571D01*
X110553142Y-59443000D01*
X110410285Y-59585857D01*
X110338857Y-59871571D01*
X110338857Y-60371571D01*
X110410285Y-60657285D01*
X110553142Y-60800142D01*
X110696000Y-60871571D01*
X110981714Y-60871571D01*
X111124571Y-60800142D01*
X111267428Y-60657285D01*
X111338857Y-60371571D01*
X111338857Y-59871571D01*
X111267428Y-59585857D01*
X111124571Y-59443000D01*
X110981714Y-59371571D01*
X108553142Y-60871571D02*
X108553142Y-59371571D01*
X108053142Y-60443000D01*
X107553142Y-59371571D01*
X107553142Y-60871571D01*
X106838857Y-60085857D02*
X106338857Y-60085857D01*
X106124571Y-60871571D02*
X106838857Y-60871571D01*
X106838857Y-59371571D01*
X106124571Y-59371571D01*
X105696000Y-59371571D02*
X104838857Y-59371571D01*
X105267428Y-60871571D02*
X105267428Y-59371571D01*
X104410285Y-60443000D02*
X103696000Y-60443000D01*
X104553142Y-60871571D02*
X104053142Y-59371571D01*
X103553142Y-60871571D01*
X102338857Y-60871571D02*
X103053142Y-60871571D01*
X103053142Y-59371571D01*
X110231714Y-63421571D02*
X110231714Y-61921571D01*
X110231714Y-62635857D02*
X109374571Y-62635857D01*
X109374571Y-63421571D02*
X109374571Y-61921571D01*
X108660285Y-62635857D02*
X108160285Y-62635857D01*
X107946000Y-63421571D02*
X108660285Y-63421571D01*
X108660285Y-61921571D01*
X107946000Y-61921571D01*
X106446000Y-63421571D02*
X106946000Y-62707285D01*
X107303142Y-63421571D02*
X107303142Y-61921571D01*
X106731714Y-61921571D01*
X106588857Y-61993000D01*
X106517428Y-62064428D01*
X106446000Y-62207285D01*
X106446000Y-62421571D01*
X106517428Y-62564428D01*
X106588857Y-62635857D01*
X106731714Y-62707285D01*
X107303142Y-62707285D01*
X105803142Y-62635857D02*
X105303142Y-62635857D01*
X105088857Y-63421571D02*
X105803142Y-63421571D01*
X105803142Y-61921571D01*
X105088857Y-61921571D01*
D11*
X158285000Y-105446000D02*
X158285000Y-108046000D01*
X147785000Y-102696000D02*
X147785000Y-102046000D01*
X156785000Y-107046000D02*
X157535000Y-107046000D01*
X148535000Y-107046000D02*
X148535000Y-108046000D01*
X157535000Y-107046000D02*
X157535000Y-108046000D01*
X148535000Y-107046000D02*
X149285000Y-107046000D01*
X147785000Y-108046000D02*
X148535000Y-108046000D01*
X158285000Y-108046000D02*
X157535000Y-108046000D01*
X147785000Y-102046000D02*
X158285000Y-102046000D01*
X147785000Y-108046000D02*
X147785000Y-105446000D01*
X158285000Y-102046000D02*
X158285000Y-102696000D01*
X139951000Y-109083000D02*
X140951000Y-109083000D01*
X139951000Y-112443000D02*
X140951000Y-112443000D01*
X84010163Y-64236870D02*
G75*
G03X84010000Y-66318961I1079837J-1041130D01*
G01*
X86169837Y-64236870D02*
G75*
G02X86170000Y-66318961I-1079837J-1041130D01*
G01*
X84011392Y-63605665D02*
G75*
G03X83854484Y-66838000I1078608J-1672335D01*
G01*
X86168608Y-63605665D02*
G75*
G02X86325516Y-66838000I-1078608J-1672335D01*
G01*
X84010000Y-66838000D02*
X83854000Y-66838000D01*
X86326000Y-66838000D02*
X86170000Y-66838000D01*
X85292000Y-93455748D02*
X85292000Y-93978252D01*
X83872000Y-93455748D02*
X83872000Y-93978252D01*
X88136000Y-92146000D02*
X86676000Y-92146000D01*
X88136000Y-95306000D02*
X85976000Y-95306000D01*
X88136000Y-95306000D02*
X88136000Y-94376000D01*
X88136000Y-92146000D02*
X88136000Y-93076000D01*
X95504000Y-67638000D02*
X95504000Y-108638000D01*
X95504000Y-108638000D02*
X144704000Y-108638000D01*
X95504000Y-67638000D02*
X144704000Y-67638000D01*
X144704000Y-67638000D02*
X144704000Y-108638000D01*
X105304000Y-99338000D02*
X105304000Y-71338000D01*
X105304000Y-99338000D02*
X140504000Y-99338000D01*
X140504000Y-99338000D02*
X140504000Y-71338000D01*
X140504000Y-71338000D02*
X105304000Y-71338000D01*
X122904000Y-108458000D02*
X122904000Y-67818000D01*
X99314000Y-85238000D02*
X141224000Y-85238000D01*
X90412000Y-69624000D02*
X88912000Y-69624000D01*
X90412000Y-73124000D02*
X90412000Y-69624000D01*
X88912000Y-73124000D02*
X90412000Y-73124000D01*
X88912000Y-69624000D02*
X88912000Y-73124000D01*
X91412000Y-75874000D02*
X91412000Y-74474000D01*
X87912000Y-75874000D02*
X87912000Y-74474000D01*
X91412000Y-75874000D02*
X87912000Y-75874000D01*
X91412000Y-68274000D02*
X91412000Y-66874000D01*
X87912000Y-66874000D02*
X87912000Y-68274000D01*
X91412000Y-66874000D02*
X87912000Y-66874000D01*
X86334870Y-80962837D02*
G75*
G03X88416961Y-80963000I1041130J1079837D01*
G01*
X86334870Y-78803163D02*
G75*
G02X88416961Y-78803000I1041130J-1079837D01*
G01*
X85703665Y-80961608D02*
G75*
G03X88936000Y-81118516I1672335J1078608D01*
G01*
X85703665Y-78804392D02*
G75*
G02X88936000Y-78647484I1672335J-1078608D01*
G01*
X88936000Y-80963000D02*
X88936000Y-81119000D01*
X88936000Y-78647000D02*
X88936000Y-78803000D01*
X86334870Y-86042837D02*
G75*
G03X88416961Y-86043000I1041130J1079837D01*
G01*
X86334870Y-83883163D02*
G75*
G02X88416961Y-83883000I1041130J-1079837D01*
G01*
X85703665Y-86041608D02*
G75*
G03X88936000Y-86198516I1672335J1078608D01*
G01*
X85703665Y-83884392D02*
G75*
G02X88936000Y-83727484I1672335J-1078608D01*
G01*
X88936000Y-86043000D02*
X88936000Y-86199000D01*
X88936000Y-83727000D02*
X88936000Y-83883000D01*
X81254870Y-80962837D02*
G75*
G03X83336961Y-80963000I1041130J1079837D01*
G01*
X81254870Y-78803163D02*
G75*
G02X83336961Y-78803000I1041130J-1079837D01*
G01*
X80623665Y-80961608D02*
G75*
G03X83856000Y-81118516I1672335J1078608D01*
G01*
X80623665Y-78804392D02*
G75*
G02X83856000Y-78647484I1672335J-1078608D01*
G01*
X83856000Y-80963000D02*
X83856000Y-81119000D01*
X83856000Y-78647000D02*
X83856000Y-78803000D01*
X81254870Y-86042837D02*
G75*
G03X83336961Y-86043000I1041130J1079837D01*
G01*
X81254870Y-83883163D02*
G75*
G02X83336961Y-83883000I1041130J-1079837D01*
G01*
X80623665Y-86041608D02*
G75*
G03X83856000Y-86198516I1672335J1078608D01*
G01*
X80623665Y-83884392D02*
G75*
G02X83856000Y-83727484I1672335J-1078608D01*
G01*
X83856000Y-86043000D02*
X83856000Y-86199000D01*
X83856000Y-83727000D02*
X83856000Y-83883000D01*
X167240000Y-110780000D02*
X167240000Y-104770000D01*
X160420000Y-108530000D02*
X160420000Y-104770000D01*
X167240000Y-104770000D02*
X165980000Y-104770000D01*
X160420000Y-104770000D02*
X161680000Y-104770000D01*
X140200748Y-112955000D02*
X140723252Y-112955000D01*
X140200748Y-114375000D02*
X140723252Y-114375000D01*
X129234000Y-110482748D02*
X129234000Y-111005252D01*
X127814000Y-110482748D02*
X127814000Y-111005252D01*
X131266000Y-110482748D02*
X131266000Y-111005252D01*
X129846000Y-110482748D02*
X129846000Y-111005252D01*
D12*
X156868333Y-100648380D02*
X156868333Y-101362666D01*
X156915952Y-101505523D01*
X157011190Y-101600761D01*
X157154047Y-101648380D01*
X157249285Y-101648380D01*
X156344523Y-101648380D02*
X156154047Y-101648380D01*
X156058809Y-101600761D01*
X156011190Y-101553142D01*
X155915952Y-101410285D01*
X155868333Y-101219809D01*
X155868333Y-100838857D01*
X155915952Y-100743619D01*
X155963571Y-100696000D01*
X156058809Y-100648380D01*
X156249285Y-100648380D01*
X156344523Y-100696000D01*
X156392142Y-100743619D01*
X156439761Y-100838857D01*
X156439761Y-101076952D01*
X156392142Y-101172190D01*
X156344523Y-101219809D01*
X156249285Y-101267428D01*
X156058809Y-101267428D01*
X155963571Y-101219809D01*
X155915952Y-101172190D01*
X155868333Y-101076952D01*
X144327476Y-109926380D02*
X144660809Y-109450190D01*
X144898904Y-109926380D02*
X144898904Y-108926380D01*
X144517952Y-108926380D01*
X144422714Y-108974000D01*
X144375095Y-109021619D01*
X144327476Y-109116857D01*
X144327476Y-109259714D01*
X144375095Y-109354952D01*
X144422714Y-109402571D01*
X144517952Y-109450190D01*
X144898904Y-109450190D01*
X143898904Y-109926380D02*
X143898904Y-108926380D01*
X143327476Y-109926380D01*
X143327476Y-108926380D01*
X142898904Y-109021619D02*
X142851285Y-108974000D01*
X142756047Y-108926380D01*
X142517952Y-108926380D01*
X142422714Y-108974000D01*
X142375095Y-109021619D01*
X142327476Y-109116857D01*
X142327476Y-109212095D01*
X142375095Y-109354952D01*
X142946523Y-109926380D01*
X142327476Y-109926380D01*
X88717380Y-64063714D02*
X87717380Y-64063714D01*
X87717380Y-64301809D01*
X87765000Y-64444666D01*
X87860238Y-64539904D01*
X87955476Y-64587523D01*
X88145952Y-64635142D01*
X88288809Y-64635142D01*
X88479285Y-64587523D01*
X88574523Y-64539904D01*
X88669761Y-64444666D01*
X88717380Y-64301809D01*
X88717380Y-64063714D01*
X88717380Y-65587523D02*
X88717380Y-65016095D01*
X88717380Y-65301809D02*
X87717380Y-65301809D01*
X87860238Y-65206571D01*
X87955476Y-65111333D01*
X88003095Y-65016095D01*
X88050714Y-66444666D02*
X88717380Y-66444666D01*
X87669761Y-66206571D02*
X88384047Y-65968476D01*
X88384047Y-66587523D01*
X83384380Y-93074142D02*
X82908190Y-92740809D01*
X83384380Y-92502714D02*
X82384380Y-92502714D01*
X82384380Y-92883666D01*
X82432000Y-92978904D01*
X82479619Y-93026523D01*
X82574857Y-93074142D01*
X82717714Y-93074142D01*
X82812952Y-93026523D01*
X82860571Y-92978904D01*
X82908190Y-92883666D01*
X82908190Y-92502714D01*
X83384380Y-94026523D02*
X83384380Y-93455095D01*
X83384380Y-93740809D02*
X82384380Y-93740809D01*
X82527238Y-93645571D01*
X82622476Y-93550333D01*
X82670095Y-93455095D01*
X82479619Y-94407476D02*
X82432000Y-94455095D01*
X82384380Y-94550333D01*
X82384380Y-94788428D01*
X82432000Y-94883666D01*
X82479619Y-94931285D01*
X82574857Y-94978904D01*
X82670095Y-94978904D01*
X82812952Y-94931285D01*
X83384380Y-94359857D01*
X83384380Y-94978904D01*
X87471238Y-96773619D02*
X87566476Y-96726000D01*
X87661714Y-96630761D01*
X87804571Y-96487904D01*
X87899809Y-96440285D01*
X87995047Y-96440285D01*
X87947428Y-96678380D02*
X88042666Y-96630761D01*
X88137904Y-96535523D01*
X88185523Y-96345047D01*
X88185523Y-96011714D01*
X88137904Y-95821238D01*
X88042666Y-95726000D01*
X87947428Y-95678380D01*
X87756952Y-95678380D01*
X87661714Y-95726000D01*
X87566476Y-95821238D01*
X87518857Y-96011714D01*
X87518857Y-96345047D01*
X87566476Y-96535523D01*
X87661714Y-96630761D01*
X87756952Y-96678380D01*
X87947428Y-96678380D01*
X86947428Y-96106952D02*
X87042666Y-96059333D01*
X87090285Y-96011714D01*
X87137904Y-95916476D01*
X87137904Y-95868857D01*
X87090285Y-95773619D01*
X87042666Y-95726000D01*
X86947428Y-95678380D01*
X86756952Y-95678380D01*
X86661714Y-95726000D01*
X86614095Y-95773619D01*
X86566476Y-95868857D01*
X86566476Y-95916476D01*
X86614095Y-96011714D01*
X86661714Y-96059333D01*
X86756952Y-96106952D01*
X86947428Y-96106952D01*
X87042666Y-96154571D01*
X87090285Y-96202190D01*
X87137904Y-96297428D01*
X87137904Y-96487904D01*
X87090285Y-96583142D01*
X87042666Y-96630761D01*
X86947428Y-96678380D01*
X86756952Y-96678380D01*
X86661714Y-96630761D01*
X86614095Y-96583142D01*
X86566476Y-96487904D01*
X86566476Y-96297428D01*
X86614095Y-96202190D01*
X86661714Y-96154571D01*
X86756952Y-96106952D01*
X98520095Y-76160380D02*
X98520095Y-76969904D01*
X98472476Y-77065142D01*
X98424857Y-77112761D01*
X98329619Y-77160380D01*
X98139142Y-77160380D01*
X98043904Y-77112761D01*
X97996285Y-77065142D01*
X97948666Y-76969904D01*
X97948666Y-76160380D01*
X96948666Y-77160380D02*
X97520095Y-77160380D01*
X97234380Y-77160380D02*
X97234380Y-76160380D01*
X97329619Y-76303238D01*
X97424857Y-76398476D01*
X97520095Y-76446095D01*
X96567714Y-76255619D02*
X96520095Y-76208000D01*
X96424857Y-76160380D01*
X96186761Y-76160380D01*
X96091523Y-76208000D01*
X96043904Y-76255619D01*
X95996285Y-76350857D01*
X95996285Y-76446095D01*
X96043904Y-76588952D01*
X96615333Y-77160380D01*
X95996285Y-77160380D01*
X92924380Y-67135476D02*
X93638666Y-67135476D01*
X93781523Y-67087857D01*
X93876761Y-66992619D01*
X93924380Y-66849761D01*
X93924380Y-66754523D01*
X93924380Y-68135476D02*
X93924380Y-67564047D01*
X93924380Y-67849761D02*
X92924380Y-67849761D01*
X93067238Y-67754523D01*
X93162476Y-67659285D01*
X93210095Y-67564047D01*
X93257714Y-68992619D02*
X93924380Y-68992619D01*
X92876761Y-68754523D02*
X93591047Y-68516428D01*
X93591047Y-69135476D01*
X168274904Y-103084380D02*
X168274904Y-103893904D01*
X168227285Y-103989142D01*
X168179666Y-104036761D01*
X168084428Y-104084380D01*
X167893952Y-104084380D01*
X167798714Y-104036761D01*
X167751095Y-103989142D01*
X167703476Y-103893904D01*
X167703476Y-103084380D01*
X167322523Y-103084380D02*
X166655857Y-103084380D01*
X167084428Y-104084380D01*
X141104857Y-115641380D02*
X141438190Y-115165190D01*
X141676285Y-115641380D02*
X141676285Y-114641380D01*
X141295333Y-114641380D01*
X141200095Y-114689000D01*
X141152476Y-114736619D01*
X141104857Y-114831857D01*
X141104857Y-114974714D01*
X141152476Y-115069952D01*
X141200095Y-115117571D01*
X141295333Y-115165190D01*
X141676285Y-115165190D01*
X140771523Y-114641380D02*
X140152476Y-114641380D01*
X140485809Y-115022333D01*
X140342952Y-115022333D01*
X140247714Y-115069952D01*
X140200095Y-115117571D01*
X140152476Y-115212809D01*
X140152476Y-115450904D01*
X140200095Y-115546142D01*
X140247714Y-115593761D01*
X140342952Y-115641380D01*
X140628666Y-115641380D01*
X140723904Y-115593761D01*
X140771523Y-115546142D01*
X139295333Y-114974714D02*
X139295333Y-115641380D01*
X139533428Y-114593761D02*
X139771523Y-115308047D01*
X139152476Y-115308047D01*
X128785857Y-113768142D02*
X128833476Y-113815761D01*
X128976333Y-113863380D01*
X129071571Y-113863380D01*
X129214428Y-113815761D01*
X129309666Y-113720523D01*
X129357285Y-113625285D01*
X129404904Y-113434809D01*
X129404904Y-113291952D01*
X129357285Y-113101476D01*
X129309666Y-113006238D01*
X129214428Y-112911000D01*
X129071571Y-112863380D01*
X128976333Y-112863380D01*
X128833476Y-112911000D01*
X128785857Y-112958619D01*
X128404904Y-112958619D02*
X128357285Y-112911000D01*
X128262047Y-112863380D01*
X128023952Y-112863380D01*
X127928714Y-112911000D01*
X127881095Y-112958619D01*
X127833476Y-113053857D01*
X127833476Y-113149095D01*
X127881095Y-113291952D01*
X128452523Y-113863380D01*
X127833476Y-113863380D01*
X126976333Y-112863380D02*
X127166809Y-112863380D01*
X127262047Y-112911000D01*
X127309666Y-112958619D01*
X127404904Y-113101476D01*
X127452523Y-113291952D01*
X127452523Y-113672904D01*
X127404904Y-113768142D01*
X127357285Y-113815761D01*
X127262047Y-113863380D01*
X127071571Y-113863380D01*
X126976333Y-113815761D01*
X126928714Y-113768142D01*
X126881095Y-113672904D01*
X126881095Y-113434809D01*
X126928714Y-113339571D01*
X126976333Y-113291952D01*
X127071571Y-113244333D01*
X127262047Y-113244333D01*
X127357285Y-113291952D01*
X127404904Y-113339571D01*
X127452523Y-113434809D01*
X126404714Y-109339238D02*
X127071380Y-109339238D01*
X126023761Y-109101142D02*
X126738047Y-108863047D01*
X126738047Y-109482095D01*
X126976142Y-109863047D02*
X127023761Y-109910666D01*
X127071380Y-109863047D01*
X127023761Y-109815428D01*
X126976142Y-109863047D01*
X127071380Y-109863047D01*
X126071380Y-110244000D02*
X126071380Y-110910666D01*
X127071380Y-110482095D01*
X126404714Y-111291619D02*
X127071380Y-111291619D01*
X126499952Y-111291619D02*
X126452333Y-111339238D01*
X126404714Y-111434476D01*
X126404714Y-111577333D01*
X126452333Y-111672571D01*
X126547571Y-111720190D01*
X127071380Y-111720190D01*
X126547571Y-112529714D02*
X126547571Y-112196380D01*
X127071380Y-112196380D02*
X126071380Y-112196380D01*
X126071380Y-112672571D01*
X131706857Y-113768142D02*
X131754476Y-113815761D01*
X131897333Y-113863380D01*
X131992571Y-113863380D01*
X132135428Y-113815761D01*
X132230666Y-113720523D01*
X132278285Y-113625285D01*
X132325904Y-113434809D01*
X132325904Y-113291952D01*
X132278285Y-113101476D01*
X132230666Y-113006238D01*
X132135428Y-112911000D01*
X131992571Y-112863380D01*
X131897333Y-112863380D01*
X131754476Y-112911000D01*
X131706857Y-112958619D01*
X131325904Y-112958619D02*
X131278285Y-112911000D01*
X131183047Y-112863380D01*
X130944952Y-112863380D01*
X130849714Y-112911000D01*
X130802095Y-112958619D01*
X130754476Y-113053857D01*
X130754476Y-113149095D01*
X130802095Y-113291952D01*
X131373523Y-113863380D01*
X130754476Y-113863380D01*
X129849714Y-112863380D02*
X130325904Y-112863380D01*
X130373523Y-113339571D01*
X130325904Y-113291952D01*
X130230666Y-113244333D01*
X129992571Y-113244333D01*
X129897333Y-113291952D01*
X129849714Y-113339571D01*
X129802095Y-113434809D01*
X129802095Y-113672904D01*
X129849714Y-113768142D01*
X129897333Y-113815761D01*
X129992571Y-113863380D01*
X130230666Y-113863380D01*
X130325904Y-113815761D01*
X130373523Y-113768142D01*
X131753619Y-109101142D02*
X131706000Y-109148761D01*
X131658380Y-109244000D01*
X131658380Y-109482095D01*
X131706000Y-109577333D01*
X131753619Y-109624952D01*
X131848857Y-109672571D01*
X131944095Y-109672571D01*
X132086952Y-109624952D01*
X132658380Y-109053523D01*
X132658380Y-109672571D01*
X131658380Y-110291619D02*
X131658380Y-110386857D01*
X131706000Y-110482095D01*
X131753619Y-110529714D01*
X131848857Y-110577333D01*
X132039333Y-110624952D01*
X132277428Y-110624952D01*
X132467904Y-110577333D01*
X132563142Y-110529714D01*
X132610761Y-110482095D01*
X132658380Y-110386857D01*
X132658380Y-110291619D01*
X132610761Y-110196380D01*
X132563142Y-110148761D01*
X132467904Y-110101142D01*
X132277428Y-110053523D01*
X132039333Y-110053523D01*
X131848857Y-110101142D01*
X131753619Y-110148761D01*
X131706000Y-110196380D01*
X131658380Y-110291619D01*
X131991714Y-111053523D02*
X132991714Y-111053523D01*
X132039333Y-111053523D02*
X131991714Y-111148761D01*
X131991714Y-111339238D01*
X132039333Y-111434476D01*
X132086952Y-111482095D01*
X132182190Y-111529714D01*
X132467904Y-111529714D01*
X132563142Y-111482095D01*
X132610761Y-111434476D01*
X132658380Y-111339238D01*
X132658380Y-111148761D01*
X132610761Y-111053523D01*
X132134571Y-112291619D02*
X132134571Y-111958285D01*
X132658380Y-111958285D02*
X131658380Y-111958285D01*
X131658380Y-112434476D01*
%LPC*%
D13*
X148085000Y-104046000D03*
X157985000Y-104046000D03*
D14*
X150035000Y-107696000D03*
X151535000Y-107696000D03*
X153035000Y-107696000D03*
X154535000Y-107696000D03*
X156035000Y-107696000D03*
D15*
X72898000Y-71374000D03*
X91948000Y-127000000D03*
X166116000Y-75692000D03*
D16*
X71882000Y-85725000D03*
X71882000Y-98742500D03*
D17*
X158952000Y-114964000D03*
X158952000Y-70964000D03*
X82752000Y-70964000D03*
X82752000Y-114964000D03*
D18*
X158952000Y-96774000D03*
X158952000Y-94234000D03*
X158952000Y-91694000D03*
D19*
G36*
X159398344Y-88342957D02*
G01*
X159437804Y-88348811D01*
X159476501Y-88358504D01*
X159514061Y-88371943D01*
X159550123Y-88388999D01*
X159584339Y-88409508D01*
X159616381Y-88433271D01*
X159645939Y-88460061D01*
X159672729Y-88489619D01*
X159696492Y-88521661D01*
X159717001Y-88555877D01*
X159734057Y-88591939D01*
X159747496Y-88629499D01*
X159757189Y-88668196D01*
X159763043Y-88707656D01*
X159765000Y-88747500D01*
X159765000Y-89560500D01*
X159763043Y-89600344D01*
X159757189Y-89639804D01*
X159747496Y-89678501D01*
X159734057Y-89716061D01*
X159717001Y-89752123D01*
X159696492Y-89786339D01*
X159672729Y-89818381D01*
X159645939Y-89847939D01*
X159616381Y-89874729D01*
X159584339Y-89898492D01*
X159550123Y-89919001D01*
X159514061Y-89936057D01*
X159476501Y-89949496D01*
X159437804Y-89959189D01*
X159398344Y-89965043D01*
X159358500Y-89967000D01*
X158545500Y-89967000D01*
X158505656Y-89965043D01*
X158466196Y-89959189D01*
X158427499Y-89949496D01*
X158389939Y-89936057D01*
X158353877Y-89919001D01*
X158319661Y-89898492D01*
X158287619Y-89874729D01*
X158258061Y-89847939D01*
X158231271Y-89818381D01*
X158207508Y-89786339D01*
X158186999Y-89752123D01*
X158169943Y-89716061D01*
X158156504Y-89678501D01*
X158146811Y-89639804D01*
X158140957Y-89600344D01*
X158139000Y-89560500D01*
X158139000Y-88747500D01*
X158140957Y-88707656D01*
X158146811Y-88668196D01*
X158156504Y-88629499D01*
X158169943Y-88591939D01*
X158186999Y-88555877D01*
X158207508Y-88521661D01*
X158231271Y-88489619D01*
X158258061Y-88460061D01*
X158287619Y-88433271D01*
X158319661Y-88409508D01*
X158353877Y-88388999D01*
X158389939Y-88371943D01*
X158427499Y-88358504D01*
X158466196Y-88348811D01*
X158505656Y-88342957D01*
X158545500Y-88341000D01*
X159358500Y-88341000D01*
X159398344Y-88342957D01*
X159398344Y-88342957D01*
G37*
D18*
X158952000Y-89154000D03*
X77672000Y-109474000D03*
X77672000Y-106934000D03*
X77672000Y-104394000D03*
X77672000Y-101854000D03*
X77672000Y-99314000D03*
X77672000Y-96774000D03*
X77672000Y-94234000D03*
X77672000Y-91694000D03*
X77672000Y-89154000D03*
X77672000Y-86614000D03*
X77672000Y-84074000D03*
X77672000Y-81534000D03*
X77672000Y-78994000D03*
D19*
G36*
X78118344Y-75642957D02*
G01*
X78157804Y-75648811D01*
X78196501Y-75658504D01*
X78234061Y-75671943D01*
X78270123Y-75688999D01*
X78304339Y-75709508D01*
X78336381Y-75733271D01*
X78365939Y-75760061D01*
X78392729Y-75789619D01*
X78416492Y-75821661D01*
X78437001Y-75855877D01*
X78454057Y-75891939D01*
X78467496Y-75929499D01*
X78477189Y-75968196D01*
X78483043Y-76007656D01*
X78485000Y-76047500D01*
X78485000Y-76860500D01*
X78483043Y-76900344D01*
X78477189Y-76939804D01*
X78467496Y-76978501D01*
X78454057Y-77016061D01*
X78437001Y-77052123D01*
X78416492Y-77086339D01*
X78392729Y-77118381D01*
X78365939Y-77147939D01*
X78336381Y-77174729D01*
X78304339Y-77198492D01*
X78270123Y-77219001D01*
X78234061Y-77236057D01*
X78196501Y-77249496D01*
X78157804Y-77259189D01*
X78118344Y-77265043D01*
X78078500Y-77267000D01*
X77265500Y-77267000D01*
X77225656Y-77265043D01*
X77186196Y-77259189D01*
X77147499Y-77249496D01*
X77109939Y-77236057D01*
X77073877Y-77219001D01*
X77039661Y-77198492D01*
X77007619Y-77174729D01*
X76978061Y-77147939D01*
X76951271Y-77118381D01*
X76927508Y-77086339D01*
X76906999Y-77052123D01*
X76889943Y-77016061D01*
X76876504Y-76978501D01*
X76866811Y-76939804D01*
X76860957Y-76900344D01*
X76859000Y-76860500D01*
X76859000Y-76047500D01*
X76860957Y-76007656D01*
X76866811Y-75968196D01*
X76876504Y-75929499D01*
X76889943Y-75891939D01*
X76906999Y-75855877D01*
X76927508Y-75821661D01*
X76951271Y-75789619D01*
X76978061Y-75760061D01*
X77007619Y-75733271D01*
X77039661Y-75709508D01*
X77073877Y-75688999D01*
X77109939Y-75671943D01*
X77147499Y-75658504D01*
X77186196Y-75648811D01*
X77225656Y-75642957D01*
X77265500Y-75641000D01*
X78078500Y-75641000D01*
X78118344Y-75642957D01*
X78118344Y-75642957D01*
G37*
D18*
X77672000Y-76454000D03*
D20*
X131064000Y-70612000D03*
D21*
X131064000Y-73152000D03*
X131064000Y-75692000D03*
X131064000Y-78232000D03*
D22*
X139551000Y-111963000D03*
D23*
X139551000Y-111163000D03*
D22*
X139551000Y-109563000D03*
D23*
X139551000Y-110363000D03*
D22*
X141351000Y-111963000D03*
D23*
X141351000Y-110363000D03*
X141351000Y-111163000D03*
D22*
X141351000Y-109563000D03*
D24*
X85090000Y-64008000D03*
D25*
X85090000Y-66548000D03*
D19*
G36*
X85087505Y-94117311D02*
G01*
X85113925Y-94121230D01*
X85139835Y-94127720D01*
X85164983Y-94136718D01*
X85189128Y-94148138D01*
X85212038Y-94161869D01*
X85233492Y-94177780D01*
X85253282Y-94195718D01*
X85271220Y-94215508D01*
X85287131Y-94236962D01*
X85300862Y-94259872D01*
X85312282Y-94284017D01*
X85321280Y-94309165D01*
X85327770Y-94335075D01*
X85331689Y-94361495D01*
X85333000Y-94388173D01*
X85333000Y-95095827D01*
X85331689Y-95122505D01*
X85327770Y-95148925D01*
X85321280Y-95174835D01*
X85312282Y-95199983D01*
X85300862Y-95224128D01*
X85287131Y-95247038D01*
X85271220Y-95268492D01*
X85253282Y-95288282D01*
X85233492Y-95306220D01*
X85212038Y-95322131D01*
X85189128Y-95335862D01*
X85164983Y-95347282D01*
X85139835Y-95356280D01*
X85113925Y-95362770D01*
X85087505Y-95366689D01*
X85060827Y-95368000D01*
X84103173Y-95368000D01*
X84076495Y-95366689D01*
X84050075Y-95362770D01*
X84024165Y-95356280D01*
X83999017Y-95347282D01*
X83974872Y-95335862D01*
X83951962Y-95322131D01*
X83930508Y-95306220D01*
X83910718Y-95288282D01*
X83892780Y-95268492D01*
X83876869Y-95247038D01*
X83863138Y-95224128D01*
X83851718Y-95199983D01*
X83842720Y-95174835D01*
X83836230Y-95148925D01*
X83832311Y-95122505D01*
X83831000Y-95095827D01*
X83831000Y-94388173D01*
X83832311Y-94361495D01*
X83836230Y-94335075D01*
X83842720Y-94309165D01*
X83851718Y-94284017D01*
X83863138Y-94259872D01*
X83876869Y-94236962D01*
X83892780Y-94215508D01*
X83910718Y-94195718D01*
X83930508Y-94177780D01*
X83951962Y-94161869D01*
X83974872Y-94148138D01*
X83999017Y-94136718D01*
X84024165Y-94127720D01*
X84050075Y-94121230D01*
X84076495Y-94117311D01*
X84103173Y-94116000D01*
X85060827Y-94116000D01*
X85087505Y-94117311D01*
X85087505Y-94117311D01*
G37*
D26*
X84582000Y-94742000D03*
D19*
G36*
X85087505Y-92067311D02*
G01*
X85113925Y-92071230D01*
X85139835Y-92077720D01*
X85164983Y-92086718D01*
X85189128Y-92098138D01*
X85212038Y-92111869D01*
X85233492Y-92127780D01*
X85253282Y-92145718D01*
X85271220Y-92165508D01*
X85287131Y-92186962D01*
X85300862Y-92209872D01*
X85312282Y-92234017D01*
X85321280Y-92259165D01*
X85327770Y-92285075D01*
X85331689Y-92311495D01*
X85333000Y-92338173D01*
X85333000Y-93045827D01*
X85331689Y-93072505D01*
X85327770Y-93098925D01*
X85321280Y-93124835D01*
X85312282Y-93149983D01*
X85300862Y-93174128D01*
X85287131Y-93197038D01*
X85271220Y-93218492D01*
X85253282Y-93238282D01*
X85233492Y-93256220D01*
X85212038Y-93272131D01*
X85189128Y-93285862D01*
X85164983Y-93297282D01*
X85139835Y-93306280D01*
X85113925Y-93312770D01*
X85087505Y-93316689D01*
X85060827Y-93318000D01*
X84103173Y-93318000D01*
X84076495Y-93316689D01*
X84050075Y-93312770D01*
X84024165Y-93306280D01*
X83999017Y-93297282D01*
X83974872Y-93285862D01*
X83951962Y-93272131D01*
X83930508Y-93256220D01*
X83910718Y-93238282D01*
X83892780Y-93218492D01*
X83876869Y-93197038D01*
X83863138Y-93174128D01*
X83851718Y-93149983D01*
X83842720Y-93124835D01*
X83836230Y-93098925D01*
X83832311Y-93072505D01*
X83831000Y-93045827D01*
X83831000Y-92338173D01*
X83832311Y-92311495D01*
X83836230Y-92285075D01*
X83842720Y-92259165D01*
X83851718Y-92234017D01*
X83863138Y-92209872D01*
X83876869Y-92186962D01*
X83892780Y-92165508D01*
X83910718Y-92145718D01*
X83930508Y-92127780D01*
X83951962Y-92111869D01*
X83974872Y-92098138D01*
X83999017Y-92086718D01*
X84024165Y-92077720D01*
X84050075Y-92071230D01*
X84076495Y-92067311D01*
X84103173Y-92066000D01*
X85060827Y-92066000D01*
X85087505Y-92067311D01*
X85087505Y-92067311D01*
G37*
D26*
X84582000Y-92692000D03*
D27*
X88376000Y-93726000D03*
X86376000Y-92776000D03*
X86376000Y-94676000D03*
D24*
X86959177Y-98755755D03*
X93959534Y-105897534D03*
D28*
X95504000Y-97028000D03*
X95504000Y-94488000D03*
X95504000Y-86868000D03*
X95504000Y-84328000D03*
X95504000Y-81788000D03*
X95504000Y-79248000D03*
X145034000Y-79248000D03*
X145034000Y-81788000D03*
X145034000Y-84328000D03*
X145034000Y-86868000D03*
X145034000Y-89408000D03*
X145034000Y-91948000D03*
X145034000Y-94488000D03*
X145034000Y-97028000D03*
X95504000Y-91948000D03*
X95504000Y-89408000D03*
D29*
X139446000Y-100076000D03*
X141986000Y-100076000D03*
X144526000Y-100076000D03*
X147066000Y-100076000D03*
D30*
X149606000Y-100076000D03*
D21*
X111252000Y-101600000D03*
X108712000Y-101600000D03*
X106172000Y-101600000D03*
D20*
X103632000Y-101600000D03*
D31*
X87962000Y-71374000D03*
X91362000Y-71374000D03*
X87962000Y-69374000D03*
X87962000Y-73374000D03*
X91362000Y-73374000D03*
D19*
G36*
X91829206Y-68525049D02*
G01*
X91870511Y-68531176D01*
X91911016Y-68541322D01*
X91950332Y-68555389D01*
X91988079Y-68573243D01*
X92023895Y-68594710D01*
X92057434Y-68619584D01*
X92088374Y-68647626D01*
X92116416Y-68678566D01*
X92141290Y-68712105D01*
X92162757Y-68747921D01*
X92180611Y-68785668D01*
X92194678Y-68824984D01*
X92204824Y-68865489D01*
X92210951Y-68906794D01*
X92213000Y-68948500D01*
X92213000Y-69799500D01*
X92210951Y-69841206D01*
X92204824Y-69882511D01*
X92194678Y-69923016D01*
X92180611Y-69962332D01*
X92162757Y-70000079D01*
X92141290Y-70035895D01*
X92116416Y-70069434D01*
X92088374Y-70100374D01*
X92057434Y-70128416D01*
X92023895Y-70153290D01*
X91988079Y-70174757D01*
X91950332Y-70192611D01*
X91911016Y-70206678D01*
X91870511Y-70216824D01*
X91829206Y-70222951D01*
X91787500Y-70225000D01*
X90936500Y-70225000D01*
X90894794Y-70222951D01*
X90853489Y-70216824D01*
X90812984Y-70206678D01*
X90773668Y-70192611D01*
X90735921Y-70174757D01*
X90700105Y-70153290D01*
X90666566Y-70128416D01*
X90635626Y-70100374D01*
X90607584Y-70069434D01*
X90582710Y-70035895D01*
X90561243Y-70000079D01*
X90543389Y-69962332D01*
X90529322Y-69923016D01*
X90519176Y-69882511D01*
X90513049Y-69841206D01*
X90511000Y-69799500D01*
X90511000Y-68948500D01*
X90513049Y-68906794D01*
X90519176Y-68865489D01*
X90529322Y-68824984D01*
X90543389Y-68785668D01*
X90561243Y-68747921D01*
X90582710Y-68712105D01*
X90607584Y-68678566D01*
X90635626Y-68647626D01*
X90666566Y-68619584D01*
X90700105Y-68594710D01*
X90735921Y-68573243D01*
X90773668Y-68555389D01*
X90812984Y-68541322D01*
X90853489Y-68531176D01*
X90894794Y-68525049D01*
X90936500Y-68523000D01*
X91787500Y-68523000D01*
X91829206Y-68525049D01*
X91829206Y-68525049D01*
G37*
D31*
X91362000Y-69374000D03*
D32*
X173414000Y-67958000D03*
X171414000Y-72758000D03*
X166414000Y-67958000D03*
D33*
X173414000Y-70358000D03*
X167414000Y-70358000D03*
D16*
X157922848Y-123951873D03*
X87884000Y-123951873D03*
X87884000Y-60430562D03*
X157923001Y-60430562D03*
D24*
X86106000Y-79883000D03*
D25*
X88646000Y-79883000D03*
D24*
X86106000Y-84963000D03*
D25*
X88646000Y-84963000D03*
D24*
X81026000Y-79883000D03*
D25*
X83566000Y-79883000D03*
D24*
X81026000Y-84963000D03*
D25*
X83566000Y-84963000D03*
D34*
X166130000Y-109830000D03*
X161530000Y-109830000D03*
X163830000Y-109830000D03*
D35*
X163830000Y-103530000D03*
D36*
X171505000Y-106785500D03*
X171505000Y-99335500D03*
D37*
X175305000Y-106935500D03*
X175305000Y-99185500D03*
D38*
X172555000Y-105560500D03*
X172555000Y-100560500D03*
D24*
X150876000Y-56896000D03*
D25*
X150876000Y-59436000D03*
D24*
X137668000Y-56896000D03*
D25*
X137668000Y-59436000D03*
D24*
X124460000Y-56896000D03*
D25*
X124460000Y-59436000D03*
D24*
X97536000Y-56896000D03*
D25*
X97536000Y-59436000D03*
D24*
X144272000Y-61976000D03*
D25*
X144272000Y-64516000D03*
D24*
X131064000Y-61976000D03*
D25*
X131064000Y-64516000D03*
D24*
X117856000Y-61976000D03*
D25*
X117856000Y-64516000D03*
D24*
X92964000Y-61976000D03*
D25*
X92964000Y-64516000D03*
D16*
X171958000Y-80264000D03*
X171958000Y-91694000D03*
D39*
X165608000Y-90424000D03*
D40*
X163068000Y-89154000D03*
X165608000Y-87884000D03*
X163068000Y-86614000D03*
X165608000Y-85344000D03*
X163068000Y-84074000D03*
X165608000Y-82804000D03*
X163068000Y-81534000D03*
D19*
G36*
X141867505Y-112915311D02*
G01*
X141893925Y-112919230D01*
X141919835Y-112925720D01*
X141944983Y-112934718D01*
X141969128Y-112946138D01*
X141992038Y-112959869D01*
X142013492Y-112975780D01*
X142033282Y-112993718D01*
X142051220Y-113013508D01*
X142067131Y-113034962D01*
X142080862Y-113057872D01*
X142092282Y-113082017D01*
X142101280Y-113107165D01*
X142107770Y-113133075D01*
X142111689Y-113159495D01*
X142113000Y-113186173D01*
X142113000Y-114143827D01*
X142111689Y-114170505D01*
X142107770Y-114196925D01*
X142101280Y-114222835D01*
X142092282Y-114247983D01*
X142080862Y-114272128D01*
X142067131Y-114295038D01*
X142051220Y-114316492D01*
X142033282Y-114336282D01*
X142013492Y-114354220D01*
X141992038Y-114370131D01*
X141969128Y-114383862D01*
X141944983Y-114395282D01*
X141919835Y-114404280D01*
X141893925Y-114410770D01*
X141867505Y-114414689D01*
X141840827Y-114416000D01*
X141133173Y-114416000D01*
X141106495Y-114414689D01*
X141080075Y-114410770D01*
X141054165Y-114404280D01*
X141029017Y-114395282D01*
X141004872Y-114383862D01*
X140981962Y-114370131D01*
X140960508Y-114354220D01*
X140940718Y-114336282D01*
X140922780Y-114316492D01*
X140906869Y-114295038D01*
X140893138Y-114272128D01*
X140881718Y-114247983D01*
X140872720Y-114222835D01*
X140866230Y-114196925D01*
X140862311Y-114170505D01*
X140861000Y-114143827D01*
X140861000Y-113186173D01*
X140862311Y-113159495D01*
X140866230Y-113133075D01*
X140872720Y-113107165D01*
X140881718Y-113082017D01*
X140893138Y-113057872D01*
X140906869Y-113034962D01*
X140922780Y-113013508D01*
X140940718Y-112993718D01*
X140960508Y-112975780D01*
X140981962Y-112959869D01*
X141004872Y-112946138D01*
X141029017Y-112934718D01*
X141054165Y-112925720D01*
X141080075Y-112919230D01*
X141106495Y-112915311D01*
X141133173Y-112914000D01*
X141840827Y-112914000D01*
X141867505Y-112915311D01*
X141867505Y-112915311D01*
G37*
D26*
X141487000Y-113665000D03*
D19*
G36*
X139817505Y-112915311D02*
G01*
X139843925Y-112919230D01*
X139869835Y-112925720D01*
X139894983Y-112934718D01*
X139919128Y-112946138D01*
X139942038Y-112959869D01*
X139963492Y-112975780D01*
X139983282Y-112993718D01*
X140001220Y-113013508D01*
X140017131Y-113034962D01*
X140030862Y-113057872D01*
X140042282Y-113082017D01*
X140051280Y-113107165D01*
X140057770Y-113133075D01*
X140061689Y-113159495D01*
X140063000Y-113186173D01*
X140063000Y-114143827D01*
X140061689Y-114170505D01*
X140057770Y-114196925D01*
X140051280Y-114222835D01*
X140042282Y-114247983D01*
X140030862Y-114272128D01*
X140017131Y-114295038D01*
X140001220Y-114316492D01*
X139983282Y-114336282D01*
X139963492Y-114354220D01*
X139942038Y-114370131D01*
X139919128Y-114383862D01*
X139894983Y-114395282D01*
X139869835Y-114404280D01*
X139843925Y-114410770D01*
X139817505Y-114414689D01*
X139790827Y-114416000D01*
X139083173Y-114416000D01*
X139056495Y-114414689D01*
X139030075Y-114410770D01*
X139004165Y-114404280D01*
X138979017Y-114395282D01*
X138954872Y-114383862D01*
X138931962Y-114370131D01*
X138910508Y-114354220D01*
X138890718Y-114336282D01*
X138872780Y-114316492D01*
X138856869Y-114295038D01*
X138843138Y-114272128D01*
X138831718Y-114247983D01*
X138822720Y-114222835D01*
X138816230Y-114196925D01*
X138812311Y-114170505D01*
X138811000Y-114143827D01*
X138811000Y-113186173D01*
X138812311Y-113159495D01*
X138816230Y-113133075D01*
X138822720Y-113107165D01*
X138831718Y-113082017D01*
X138843138Y-113057872D01*
X138856869Y-113034962D01*
X138872780Y-113013508D01*
X138890718Y-112993718D01*
X138910508Y-112975780D01*
X138931962Y-112959869D01*
X138954872Y-112946138D01*
X138979017Y-112934718D01*
X139004165Y-112925720D01*
X139030075Y-112919230D01*
X139056495Y-112915311D01*
X139083173Y-112914000D01*
X139790827Y-112914000D01*
X139817505Y-112915311D01*
X139817505Y-112915311D01*
G37*
D26*
X139437000Y-113665000D03*
D19*
G36*
X129029505Y-111144311D02*
G01*
X129055925Y-111148230D01*
X129081835Y-111154720D01*
X129106983Y-111163718D01*
X129131128Y-111175138D01*
X129154038Y-111188869D01*
X129175492Y-111204780D01*
X129195282Y-111222718D01*
X129213220Y-111242508D01*
X129229131Y-111263962D01*
X129242862Y-111286872D01*
X129254282Y-111311017D01*
X129263280Y-111336165D01*
X129269770Y-111362075D01*
X129273689Y-111388495D01*
X129275000Y-111415173D01*
X129275000Y-112122827D01*
X129273689Y-112149505D01*
X129269770Y-112175925D01*
X129263280Y-112201835D01*
X129254282Y-112226983D01*
X129242862Y-112251128D01*
X129229131Y-112274038D01*
X129213220Y-112295492D01*
X129195282Y-112315282D01*
X129175492Y-112333220D01*
X129154038Y-112349131D01*
X129131128Y-112362862D01*
X129106983Y-112374282D01*
X129081835Y-112383280D01*
X129055925Y-112389770D01*
X129029505Y-112393689D01*
X129002827Y-112395000D01*
X128045173Y-112395000D01*
X128018495Y-112393689D01*
X127992075Y-112389770D01*
X127966165Y-112383280D01*
X127941017Y-112374282D01*
X127916872Y-112362862D01*
X127893962Y-112349131D01*
X127872508Y-112333220D01*
X127852718Y-112315282D01*
X127834780Y-112295492D01*
X127818869Y-112274038D01*
X127805138Y-112251128D01*
X127793718Y-112226983D01*
X127784720Y-112201835D01*
X127778230Y-112175925D01*
X127774311Y-112149505D01*
X127773000Y-112122827D01*
X127773000Y-111415173D01*
X127774311Y-111388495D01*
X127778230Y-111362075D01*
X127784720Y-111336165D01*
X127793718Y-111311017D01*
X127805138Y-111286872D01*
X127818869Y-111263962D01*
X127834780Y-111242508D01*
X127852718Y-111222718D01*
X127872508Y-111204780D01*
X127893962Y-111188869D01*
X127916872Y-111175138D01*
X127941017Y-111163718D01*
X127966165Y-111154720D01*
X127992075Y-111148230D01*
X128018495Y-111144311D01*
X128045173Y-111143000D01*
X129002827Y-111143000D01*
X129029505Y-111144311D01*
X129029505Y-111144311D01*
G37*
D26*
X128524000Y-111769000D03*
D19*
G36*
X129029505Y-109094311D02*
G01*
X129055925Y-109098230D01*
X129081835Y-109104720D01*
X129106983Y-109113718D01*
X129131128Y-109125138D01*
X129154038Y-109138869D01*
X129175492Y-109154780D01*
X129195282Y-109172718D01*
X129213220Y-109192508D01*
X129229131Y-109213962D01*
X129242862Y-109236872D01*
X129254282Y-109261017D01*
X129263280Y-109286165D01*
X129269770Y-109312075D01*
X129273689Y-109338495D01*
X129275000Y-109365173D01*
X129275000Y-110072827D01*
X129273689Y-110099505D01*
X129269770Y-110125925D01*
X129263280Y-110151835D01*
X129254282Y-110176983D01*
X129242862Y-110201128D01*
X129229131Y-110224038D01*
X129213220Y-110245492D01*
X129195282Y-110265282D01*
X129175492Y-110283220D01*
X129154038Y-110299131D01*
X129131128Y-110312862D01*
X129106983Y-110324282D01*
X129081835Y-110333280D01*
X129055925Y-110339770D01*
X129029505Y-110343689D01*
X129002827Y-110345000D01*
X128045173Y-110345000D01*
X128018495Y-110343689D01*
X127992075Y-110339770D01*
X127966165Y-110333280D01*
X127941017Y-110324282D01*
X127916872Y-110312862D01*
X127893962Y-110299131D01*
X127872508Y-110283220D01*
X127852718Y-110265282D01*
X127834780Y-110245492D01*
X127818869Y-110224038D01*
X127805138Y-110201128D01*
X127793718Y-110176983D01*
X127784720Y-110151835D01*
X127778230Y-110125925D01*
X127774311Y-110099505D01*
X127773000Y-110072827D01*
X127773000Y-109365173D01*
X127774311Y-109338495D01*
X127778230Y-109312075D01*
X127784720Y-109286165D01*
X127793718Y-109261017D01*
X127805138Y-109236872D01*
X127818869Y-109213962D01*
X127834780Y-109192508D01*
X127852718Y-109172718D01*
X127872508Y-109154780D01*
X127893962Y-109138869D01*
X127916872Y-109125138D01*
X127941017Y-109113718D01*
X127966165Y-109104720D01*
X127992075Y-109098230D01*
X128018495Y-109094311D01*
X128045173Y-109093000D01*
X129002827Y-109093000D01*
X129029505Y-109094311D01*
X129029505Y-109094311D01*
G37*
D26*
X128524000Y-109719000D03*
D19*
G36*
X131061505Y-111144311D02*
G01*
X131087925Y-111148230D01*
X131113835Y-111154720D01*
X131138983Y-111163718D01*
X131163128Y-111175138D01*
X131186038Y-111188869D01*
X131207492Y-111204780D01*
X131227282Y-111222718D01*
X131245220Y-111242508D01*
X131261131Y-111263962D01*
X131274862Y-111286872D01*
X131286282Y-111311017D01*
X131295280Y-111336165D01*
X131301770Y-111362075D01*
X131305689Y-111388495D01*
X131307000Y-111415173D01*
X131307000Y-112122827D01*
X131305689Y-112149505D01*
X131301770Y-112175925D01*
X131295280Y-112201835D01*
X131286282Y-112226983D01*
X131274862Y-112251128D01*
X131261131Y-112274038D01*
X131245220Y-112295492D01*
X131227282Y-112315282D01*
X131207492Y-112333220D01*
X131186038Y-112349131D01*
X131163128Y-112362862D01*
X131138983Y-112374282D01*
X131113835Y-112383280D01*
X131087925Y-112389770D01*
X131061505Y-112393689D01*
X131034827Y-112395000D01*
X130077173Y-112395000D01*
X130050495Y-112393689D01*
X130024075Y-112389770D01*
X129998165Y-112383280D01*
X129973017Y-112374282D01*
X129948872Y-112362862D01*
X129925962Y-112349131D01*
X129904508Y-112333220D01*
X129884718Y-112315282D01*
X129866780Y-112295492D01*
X129850869Y-112274038D01*
X129837138Y-112251128D01*
X129825718Y-112226983D01*
X129816720Y-112201835D01*
X129810230Y-112175925D01*
X129806311Y-112149505D01*
X129805000Y-112122827D01*
X129805000Y-111415173D01*
X129806311Y-111388495D01*
X129810230Y-111362075D01*
X129816720Y-111336165D01*
X129825718Y-111311017D01*
X129837138Y-111286872D01*
X129850869Y-111263962D01*
X129866780Y-111242508D01*
X129884718Y-111222718D01*
X129904508Y-111204780D01*
X129925962Y-111188869D01*
X129948872Y-111175138D01*
X129973017Y-111163718D01*
X129998165Y-111154720D01*
X130024075Y-111148230D01*
X130050495Y-111144311D01*
X130077173Y-111143000D01*
X131034827Y-111143000D01*
X131061505Y-111144311D01*
X131061505Y-111144311D01*
G37*
D26*
X130556000Y-111769000D03*
D19*
G36*
X131061505Y-109094311D02*
G01*
X131087925Y-109098230D01*
X131113835Y-109104720D01*
X131138983Y-109113718D01*
X131163128Y-109125138D01*
X131186038Y-109138869D01*
X131207492Y-109154780D01*
X131227282Y-109172718D01*
X131245220Y-109192508D01*
X131261131Y-109213962D01*
X131274862Y-109236872D01*
X131286282Y-109261017D01*
X131295280Y-109286165D01*
X131301770Y-109312075D01*
X131305689Y-109338495D01*
X131307000Y-109365173D01*
X131307000Y-110072827D01*
X131305689Y-110099505D01*
X131301770Y-110125925D01*
X131295280Y-110151835D01*
X131286282Y-110176983D01*
X131274862Y-110201128D01*
X131261131Y-110224038D01*
X131245220Y-110245492D01*
X131227282Y-110265282D01*
X131207492Y-110283220D01*
X131186038Y-110299131D01*
X131163128Y-110312862D01*
X131138983Y-110324282D01*
X131113835Y-110333280D01*
X131087925Y-110339770D01*
X131061505Y-110343689D01*
X131034827Y-110345000D01*
X130077173Y-110345000D01*
X130050495Y-110343689D01*
X130024075Y-110339770D01*
X129998165Y-110333280D01*
X129973017Y-110324282D01*
X129948872Y-110312862D01*
X129925962Y-110299131D01*
X129904508Y-110283220D01*
X129884718Y-110265282D01*
X129866780Y-110245492D01*
X129850869Y-110224038D01*
X129837138Y-110201128D01*
X129825718Y-110176983D01*
X129816720Y-110151835D01*
X129810230Y-110125925D01*
X129806311Y-110099505D01*
X129805000Y-110072827D01*
X129805000Y-109365173D01*
X129806311Y-109338495D01*
X129810230Y-109312075D01*
X129816720Y-109286165D01*
X129825718Y-109261017D01*
X129837138Y-109236872D01*
X129850869Y-109213962D01*
X129866780Y-109192508D01*
X129884718Y-109172718D01*
X129904508Y-109154780D01*
X129925962Y-109138869D01*
X129948872Y-109125138D01*
X129973017Y-109113718D01*
X129998165Y-109104720D01*
X130024075Y-109098230D01*
X130050495Y-109094311D01*
X130077173Y-109093000D01*
X131034827Y-109093000D01*
X131061505Y-109094311D01*
X131061505Y-109094311D01*
G37*
D26*
X130556000Y-109719000D03*
D41*
X152160000Y-124968000D03*
D42*
X150260000Y-118618000D03*
X148990000Y-116078000D03*
X147720000Y-118618000D03*
X146450000Y-116078000D03*
X145180000Y-118618000D03*
D41*
X142000000Y-124968000D03*
D43*
X143910000Y-116078000D03*
D41*
X138810000Y-124968000D03*
D42*
X136910000Y-118618000D03*
X135640000Y-116078000D03*
X134370000Y-118618000D03*
X133100000Y-116078000D03*
X131830000Y-118618000D03*
D41*
X128650000Y-124968000D03*
D43*
X130560000Y-116078000D03*
D41*
X125460000Y-124968000D03*
D42*
X123560000Y-118618000D03*
X122290000Y-116078000D03*
X121020000Y-118618000D03*
X119750000Y-116078000D03*
X118480000Y-118618000D03*
D41*
X115300000Y-124968000D03*
D43*
X117210000Y-116078000D03*
D41*
X112110000Y-124968000D03*
D42*
X110210000Y-118618000D03*
X108940000Y-116078000D03*
X107670000Y-118618000D03*
X106400000Y-116078000D03*
X105130000Y-118618000D03*
D41*
X101950000Y-124968000D03*
D43*
X103860000Y-116078000D03*
M02*
