M48
; DRILL file {KiCad (5.1.0)-1} date 05/09/2019 23:41:31
; FORMAT={-:-/ absolute / metric / decimal}
; #@! TF.CreationDate,2019-09-05T23:41:31+02:00
; #@! TF.GenerationSoftware,Kicad,Pcbnew,(5.1.0)-1
; #@! TF.FileFunction,NonPlated,1,2,NPTH
FMAT,2
METRIC
T1C0.800
T2C1.200
T3C3.200
T4C3.250
T5C3.300
%
G90
G05
T1
X172.555Y-100.56
X172.555Y-105.56
T2
X167.414Y-70.358
X173.414Y-70.358
T3
X87.884Y-123.952
X171.958Y-80.264
X171.958Y-91.694
X71.882Y-98.742
X157.923Y-123.952
X157.923Y-60.431
X71.882Y-85.725
X87.884Y-60.431
T4
X128.65Y-124.968
X138.81Y-124.968
X142.0Y-124.968
X152.16Y-124.968
X101.95Y-124.968
X112.11Y-124.968
X115.3Y-124.968
X125.46Y-124.968
T5
X82.752Y-70.964
X82.752Y-114.964
X158.952Y-70.964
X158.952Y-114.964
T0
M30
