M48
; DRILL file {KiCad (5.1.0)-1} date 05/09/2019 23:41:31
; FORMAT={-:-/ absolute / metric / decimal}
; #@! TF.CreationDate,2019-09-05T23:41:31+02:00
; #@! TF.GenerationSoftware,Kicad,Pcbnew,(5.1.0)-1
; #@! TF.FileFunction,Plated,1,2,PTH
FMAT,2
METRIC
T1C0.400
T2C0.550
T3C0.760
T4C0.762
T5C0.800
T6C0.850
T7C0.900
T8C1.000
T9C1.001
%
G90
G05
T1
X76.2Y-71.374
X79.248Y-84.074
X79.248Y-86.868
X79.248Y-92.583
X79.248Y-98.552
X79.375Y-96.266
X80.01Y-103.124
X80.645Y-111.252
X81.854Y-110.048
X88.138Y-95.25
X89.09Y-113.728
X89.662Y-112.459
X89.916Y-106.426
X90.424Y-92.583
X91.186Y-104.14
X91.694Y-98.806
X91.821Y-92.202
X91.948Y-77.978
X91.948Y-80.772
X91.948Y-82.677
X92.075Y-89.916
X92.202Y-97.917
X92.583Y-94.488
X93.091Y-112.522
X93.916Y-101.092
X95.567Y-104.14
X95.885Y-76.454
X96.393Y-105.029
X96.52Y-119.38
X96.52Y-123.444
X96.901Y-112.459
X98.044Y-104.267
X98.679Y-91.249
X98.679Y-95.758
X99.695Y-101.536
X100.457Y-100.838
X101.219Y-101.536
X101.346Y-95.504
X101.981Y-100.838
X102.425Y-95.377
X103.505Y-95.377
X104.616Y-95.409
X105.156Y-123.444
X109.601Y-96.52
X109.982Y-110.109
X110.744Y-96.012
X111.633Y-109.855
X111.633Y-113.284
X113.792Y-93.345
X113.792Y-99.568
X116.713Y-100.266
X117.584Y-73.17
X118.11Y-96.774
X118.11Y-98.298
X118.523Y-101.378
X118.618Y-123.444
X122.618Y-89.98
X122.682Y-83.947
X125.73Y-80.772
X125.857Y-92.329
X127.508Y-73.66
X127.635Y-104.14
X128.524Y-80.772
X128.905Y-66.548
X128.905Y-107.696
X129.54Y-87.376
X130.175Y-107.696
X130.429Y-85.471
X130.683Y-88.138
X131.064Y-68.072
X131.445Y-107.696
X131.826Y-121.92
X132.715Y-107.696
X132.842Y-95.758
X133.858Y-77.47
X133.985Y-89.662
X133.985Y-107.696
X134.366Y-85.852
X134.366Y-95.758
X134.62Y-78.232
X134.874Y-97.028
X135.255Y-107.696
X135.382Y-78.994
X136.017Y-81.407
X136.144Y-79.756
X136.525Y-107.696
X137.16Y-81.407
X137.414Y-94.869
X138.176Y-83.82
X138.176Y-93.726
X138.684Y-78.994
X138.684Y-106.553
X138.938Y-84.836
X139.7Y-85.598
X139.7Y-88.646
X140.208Y-79.756
X140.462Y-106.553
X140.716Y-84.836
X140.716Y-89.154
X141.224Y-93.726
X141.224Y-94.869
X141.224Y-115.57
X141.478Y-83.312
X141.478Y-88.392
X141.605Y-89.916
X142.24Y-76.708
X145.288Y-121.158
X148.209Y-70.866
X148.336Y-76.454
X149.86Y-105.156
X151.384Y-70.612
X151.892Y-105.156
X154.432Y-92.964
X154.686Y-83.566
X160.274Y-78.232
X160.591Y-103.569
X161.544Y-111.506
X164.592Y-115.57
X166.116Y-106.68
X167.703Y-100.076
X167.894Y-109.22
X169.164Y-115.697
X170.18Y-101.092
X172.974Y-115.697
X173.228Y-102.108
T3
X130.56Y-116.078
X131.83Y-118.618
X133.1Y-116.078
X134.37Y-118.618
X135.64Y-116.078
X136.91Y-118.618
X163.068Y-81.534
X163.068Y-84.074
X163.068Y-86.614
X163.068Y-89.154
X165.608Y-82.804
X165.608Y-85.344
X165.608Y-87.884
X165.608Y-90.424
X143.91Y-116.078
X145.18Y-118.618
X146.45Y-116.078
X147.72Y-118.618
X148.99Y-116.078
X150.26Y-118.618
X103.86Y-116.078
X105.13Y-118.618
X106.4Y-116.078
X107.67Y-118.618
X108.94Y-116.078
X110.21Y-118.618
X117.21Y-116.078
X118.48Y-118.618
X119.75Y-116.078
X121.02Y-118.618
X122.29Y-116.078
X123.56Y-118.618
T4
X77.672Y-76.454
X77.672Y-78.994
X77.672Y-81.534
X77.672Y-84.074
X77.672Y-86.614
X77.672Y-89.154
X77.672Y-91.694
X77.672Y-94.234
X77.672Y-96.774
X77.672Y-99.314
X77.672Y-101.854
X77.672Y-104.394
X77.672Y-106.934
X77.672Y-109.474
X158.952Y-89.154
X158.952Y-91.694
X158.952Y-94.234
X158.952Y-96.774
T5
X139.446Y-100.076
X141.986Y-100.076
X144.526Y-100.076
X147.066Y-100.076
X149.606Y-100.076
T7
X144.272Y-61.976
X144.272Y-64.516
X92.964Y-61.976
X92.964Y-64.516
X150.876Y-56.896
X150.876Y-59.436
X81.026Y-79.883
X83.566Y-79.883
X97.536Y-56.896
X97.536Y-59.436
X117.856Y-61.976
X117.856Y-64.516
X86.106Y-84.963
X88.646Y-84.963
X124.46Y-56.896
X124.46Y-59.436
X85.09Y-64.008
X85.09Y-66.548
X131.064Y-61.976
X131.064Y-64.516
X86.106Y-79.883
X88.646Y-79.883
X87.962Y-69.374
X87.962Y-71.374
X87.962Y-73.374
X91.362Y-69.374
X91.362Y-71.374
X91.362Y-73.374
X137.668Y-56.896
X137.668Y-59.436
X81.026Y-84.963
X83.566Y-84.963
T8
X86.959Y-98.756
X93.96Y-105.898
X103.632Y-101.6
X106.172Y-101.6
X108.712Y-101.6
X111.252Y-101.6
X131.064Y-70.612
X131.064Y-73.152
X131.064Y-75.692
X131.064Y-78.232
T9
X166.116Y-75.692
X91.948Y-127.0
X72.898Y-71.374
T2
G00X174.98Y-99.185
M15
G01X175.63Y-99.185
M16
G05
G00X174.98Y-106.935
M15
G01X175.63Y-106.935
M16
G05
T5
G00X166.714Y-67.958
M15
G01X166.114Y-67.958
M16
G05
G00X171.714Y-72.758
M15
G01X171.114Y-72.758
M16
G05
G00X173.714Y-67.958
M15
G01X173.114Y-67.958
M16
G05
T6
G00X171.23Y-99.335
M15
G01X171.78Y-99.335
M16
G05
G00X171.23Y-106.785
M15
G01X171.78Y-106.785
M16
G05
T0
M30
