M48
; DRILL file {KiCad (5.1.0)-1} date 07/07/2019 19:15:57
; FORMAT={-:-/ absolute / metric / decimal}
; #@! TF.CreationDate,2019-07-07T19:15:57+02:00
; #@! TF.GenerationSoftware,Kicad,Pcbnew,(5.1.0)-1
; #@! TF.FileFunction,NonPlated,1,2,NPTH
FMAT,2
METRIC
T1C0.800
T2C1.200
T3C3.200
T4C3.250
T5C3.300
%
G90
G05
T1
X172.555Y-100.56
X172.555Y-105.56
T2
X169.319Y-91.567
X175.319Y-91.567
T3
X157.923Y-60.431
X87.884Y-60.431
X87.884Y-123.952
X171.196Y-68.58
X171.196Y-80.01
X157.923Y-123.952
T4
X125.217Y-124.968
X135.377Y-124.968
X139.695Y-124.968
X149.855Y-124.968
X96.261Y-124.968
X106.421Y-124.968
X110.739Y-124.968
X120.899Y-124.968
T5
X79.502Y-70.964
X79.502Y-114.964
X155.702Y-70.964
X155.702Y-114.964
T0
M30
