M48
; DRILL file {KiCad (5.1.0)-1} date 07/07/2019 19:12:37
; FORMAT={-:-/ absolute / metric / decimal}
; #@! TF.CreationDate,2019-07-07T19:12:37+02:00
; #@! TF.GenerationSoftware,Kicad,Pcbnew,(5.1.0)-1
; #@! TF.FileFunction,Plated,1,2,PTH
FMAT,2
METRIC
T1C0.400
T2C0.760
T3C0.800
T4C1.000
T5C1.520
%
G90
G05
T1
X54.102Y-70.358
X56.134Y-76.708
X61.468Y-76.2
T2
X54.102Y-58.928
X55.372Y-61.468
X56.642Y-58.928
X57.912Y-61.468
X59.182Y-58.928
X60.452Y-61.468
X54.234Y-88.646
X55.504Y-91.186
X56.774Y-88.646
X58.044Y-91.186
X59.314Y-88.646
X60.584Y-91.186
T3
X62.738Y-77.089
X62.738Y-84.709
X65.278Y-77.089
X65.278Y-84.709
X64.008Y-65.151
X64.008Y-72.771
X66.548Y-65.151
X66.548Y-72.771
T4
X67.564Y-88.9
X67.564Y-91.4
X67.564Y-58.42
X67.564Y-60.92
T5
X54.102Y-67.31
X59.182Y-67.31
T0
M30
