G04 #@! TF.GenerationSoftware,KiCad,Pcbnew,(5.1.0)-1*
G04 #@! TF.CreationDate,2019-09-10T00:52:53+02:00*
G04 #@! TF.ProjectId,big_button_v1,6269675f-6275-4747-946f-6e5f76312e6b,rev?*
G04 #@! TF.SameCoordinates,Original*
G04 #@! TF.FileFunction,Legend,Bot*
G04 #@! TF.FilePolarity,Positive*
%FSLAX46Y46*%
G04 Gerber Fmt 4.6, Leading zero omitted, Abs format (unit mm)*
G04 Created by KiCad (PCBNEW (5.1.0)-1) date 2019-09-10 00:52:53*
%MOMM*%
%LPD*%
G04 APERTURE LIST*
%ADD10C,0.120000*%
%ADD11C,0.150000*%
%ADD12R,1.622000X1.622000*%
%ADD13C,3.352000*%
%ADD14C,1.622000*%
%ADD15C,5.602000*%
%ADD16C,2.802000*%
%ADD17R,0.752000X1.162000*%
%ADD18C,3.102000*%
%ADD19R,3.102000X3.102000*%
%ADD20C,0.100000*%
%ADD21C,1.252000*%
%ADD22C,1.902000*%
%ADD23R,1.902000X1.902000*%
%ADD24C,1.778868*%
G04 APERTURE END LIST*
D10*
X141056000Y-88210000D02*
X141056000Y-90660000D01*
X137836000Y-90010000D02*
X137836000Y-88210000D01*
X137720000Y-85088252D02*
X137720000Y-84565748D01*
X139140000Y-85088252D02*
X139140000Y-84565748D01*
X135706000Y-93444252D02*
X135706000Y-92921748D01*
X137126000Y-93444252D02*
X137126000Y-92921748D01*
X139158000Y-92921748D02*
X139158000Y-93444252D01*
X137738000Y-92921748D02*
X137738000Y-93444252D01*
X139770000Y-93444252D02*
X139770000Y-92921748D01*
X141190000Y-93444252D02*
X141190000Y-92921748D01*
X128068000Y-84081252D02*
X128068000Y-83558748D01*
X129488000Y-84081252D02*
X129488000Y-83558748D01*
X125205748Y-87682000D02*
X125728252Y-87682000D01*
X125205748Y-89102000D02*
X125728252Y-89102000D01*
X121150748Y-87682000D02*
X121673252Y-87682000D01*
X121150748Y-89102000D02*
X121673252Y-89102000D01*
X135246000Y-97560000D02*
X130946000Y-97560000D01*
X130946000Y-97560000D02*
X130946000Y-90010000D01*
X135246000Y-97560000D02*
X135246000Y-90010000D01*
X143095000Y-86680748D02*
X143095000Y-87203252D01*
X141675000Y-86680748D02*
X141675000Y-87203252D01*
D11*
X142765904Y-90086380D02*
X142765904Y-90895904D01*
X142718285Y-90991142D01*
X142670666Y-91038761D01*
X142575428Y-91086380D01*
X142384952Y-91086380D01*
X142289714Y-91038761D01*
X142242095Y-90991142D01*
X142194476Y-90895904D01*
X142194476Y-90086380D01*
X141194476Y-91086380D02*
X141765904Y-91086380D01*
X141480190Y-91086380D02*
X141480190Y-90086380D01*
X141575428Y-90229238D01*
X141670666Y-90324476D01*
X141765904Y-90372095D01*
X138882380Y-81913952D02*
X138882380Y-81342523D01*
X138882380Y-81628238D02*
X137882380Y-81628238D01*
X138025238Y-81533000D01*
X138120476Y-81437761D01*
X138168095Y-81342523D01*
X138882380Y-82342523D02*
X137882380Y-82342523D01*
X138501428Y-82437761D02*
X138882380Y-82723476D01*
X138215714Y-82723476D02*
X138596666Y-82342523D01*
X136201714Y-95794523D02*
X136868380Y-95794523D01*
X135820761Y-95556428D02*
X136535047Y-95318333D01*
X136535047Y-95937380D01*
X136868380Y-96318333D02*
X135868380Y-96318333D01*
X136487428Y-96413571D02*
X136868380Y-96699285D01*
X136201714Y-96699285D02*
X136582666Y-96318333D01*
X135868380Y-97032619D02*
X135868380Y-97699285D01*
X136868380Y-97270714D01*
X138900380Y-95898761D02*
X138900380Y-95327333D01*
X138900380Y-95613047D02*
X137900380Y-95613047D01*
X138043238Y-95517809D01*
X138138476Y-95422571D01*
X138186095Y-95327333D01*
X137900380Y-96517809D02*
X137900380Y-96613047D01*
X137948000Y-96708285D01*
X137995619Y-96755904D01*
X138090857Y-96803523D01*
X138281333Y-96851142D01*
X138519428Y-96851142D01*
X138709904Y-96803523D01*
X138805142Y-96755904D01*
X138852761Y-96708285D01*
X138900380Y-96613047D01*
X138900380Y-96517809D01*
X138852761Y-96422571D01*
X138805142Y-96374952D01*
X138709904Y-96327333D01*
X138519428Y-96279714D01*
X138281333Y-96279714D01*
X138090857Y-96327333D01*
X137995619Y-96374952D01*
X137948000Y-96422571D01*
X137900380Y-96517809D01*
X138900380Y-97279714D02*
X137900380Y-97279714D01*
X138519428Y-97374952D02*
X138900380Y-97660666D01*
X138233714Y-97660666D02*
X138614666Y-97279714D01*
X140265714Y-95785523D02*
X140932380Y-95785523D01*
X139884761Y-95547428D02*
X140599047Y-95309333D01*
X140599047Y-95928380D01*
X140932380Y-96309333D02*
X139932380Y-96309333D01*
X140551428Y-96404571D02*
X140932380Y-96690285D01*
X140265714Y-96690285D02*
X140646666Y-96309333D01*
X139932380Y-97023619D02*
X139932380Y-97690285D01*
X140932380Y-97261714D01*
X126785714Y-82367523D02*
X127452380Y-82367523D01*
X126404761Y-82129428D02*
X127119047Y-81891333D01*
X127119047Y-82510380D01*
X127452380Y-82891333D02*
X126452380Y-82891333D01*
X127071428Y-82986571D02*
X127452380Y-83272285D01*
X126785714Y-83272285D02*
X127166666Y-82891333D01*
X126452380Y-83605619D02*
X126452380Y-84272285D01*
X127452380Y-83843714D01*
X129364238Y-88844380D02*
X129935666Y-88844380D01*
X129649952Y-88844380D02*
X129649952Y-87844380D01*
X129745190Y-87987238D01*
X129840428Y-88082476D01*
X129935666Y-88130095D01*
X128745190Y-87844380D02*
X128649952Y-87844380D01*
X128554714Y-87892000D01*
X128507095Y-87939619D01*
X128459476Y-88034857D01*
X128411857Y-88225333D01*
X128411857Y-88463428D01*
X128459476Y-88653904D01*
X128507095Y-88749142D01*
X128554714Y-88796761D01*
X128649952Y-88844380D01*
X128745190Y-88844380D01*
X128840428Y-88796761D01*
X128888047Y-88749142D01*
X128935666Y-88653904D01*
X128983285Y-88463428D01*
X128983285Y-88225333D01*
X128935666Y-88034857D01*
X128888047Y-87939619D01*
X128840428Y-87892000D01*
X128745190Y-87844380D01*
X127983285Y-88844380D02*
X127983285Y-87844380D01*
X127888047Y-88463428D02*
X127602333Y-88844380D01*
X127602333Y-88177714D02*
X127983285Y-88558666D01*
X118705238Y-88844380D02*
X119276666Y-88844380D01*
X118990952Y-88844380D02*
X118990952Y-87844380D01*
X119086190Y-87987238D01*
X119181428Y-88082476D01*
X119276666Y-88130095D01*
X118086190Y-87844380D02*
X117990952Y-87844380D01*
X117895714Y-87892000D01*
X117848095Y-87939619D01*
X117800476Y-88034857D01*
X117752857Y-88225333D01*
X117752857Y-88463428D01*
X117800476Y-88653904D01*
X117848095Y-88749142D01*
X117895714Y-88796761D01*
X117990952Y-88844380D01*
X118086190Y-88844380D01*
X118181428Y-88796761D01*
X118229047Y-88749142D01*
X118276666Y-88653904D01*
X118324285Y-88463428D01*
X118324285Y-88225333D01*
X118276666Y-88034857D01*
X118229047Y-87939619D01*
X118181428Y-87892000D01*
X118086190Y-87844380D01*
X117324285Y-88844380D02*
X117324285Y-87844380D01*
X117229047Y-88463428D02*
X116943333Y-88844380D01*
X116943333Y-88177714D02*
X117324285Y-88558666D01*
X130500380Y-95781904D02*
X129500380Y-95781904D01*
X129500380Y-96020000D01*
X129548000Y-96162857D01*
X129643238Y-96258095D01*
X129738476Y-96305714D01*
X129928952Y-96353333D01*
X130071809Y-96353333D01*
X130262285Y-96305714D01*
X130357523Y-96258095D01*
X130452761Y-96162857D01*
X130500380Y-96020000D01*
X130500380Y-95781904D01*
X130500380Y-97305714D02*
X130500380Y-96734285D01*
X130500380Y-97020000D02*
X129500380Y-97020000D01*
X129643238Y-96924761D01*
X129738476Y-96829523D01*
X129786095Y-96734285D01*
X141837380Y-82162714D02*
X141837380Y-82257952D01*
X141885000Y-82353190D01*
X141932619Y-82400809D01*
X142027857Y-82448428D01*
X142218333Y-82496047D01*
X142456428Y-82496047D01*
X142646904Y-82448428D01*
X142742142Y-82400809D01*
X142789761Y-82353190D01*
X142837380Y-82257952D01*
X142837380Y-82162714D01*
X142789761Y-82067476D01*
X142742142Y-82019857D01*
X142646904Y-81972238D01*
X142456428Y-81924619D01*
X142218333Y-81924619D01*
X142027857Y-81972238D01*
X141932619Y-82019857D01*
X141885000Y-82067476D01*
X141837380Y-82162714D01*
X142742142Y-82924619D02*
X142789761Y-82972238D01*
X142837380Y-82924619D01*
X142789761Y-82877000D01*
X142742142Y-82924619D01*
X142837380Y-82924619D01*
X142837380Y-83924619D02*
X142837380Y-83353190D01*
X142837380Y-83638904D02*
X141837380Y-83638904D01*
X141980238Y-83543666D01*
X142075476Y-83448428D01*
X142123095Y-83353190D01*
X142170714Y-84781761D02*
X142837380Y-84781761D01*
X142170714Y-84353190D02*
X142694523Y-84353190D01*
X142789761Y-84400809D01*
X142837380Y-84496047D01*
X142837380Y-84638904D01*
X142789761Y-84734142D01*
X142742142Y-84781761D01*
%LPC*%
D12*
X120250000Y-83000000D03*
D13*
X118340000Y-91890000D03*
D14*
X121520000Y-85540000D03*
X122790000Y-83000000D03*
X124060000Y-85540000D03*
X125330000Y-83000000D03*
X126600000Y-85540000D03*
D13*
X128500000Y-91890000D03*
D15*
X151750000Y-94750000D03*
D16*
X113250000Y-88000000D03*
D17*
X140396000Y-88010000D03*
X138496000Y-88010000D03*
X138496000Y-90210000D03*
X139446000Y-90210000D03*
X140396000Y-90210000D03*
D18*
X147170000Y-85090000D03*
D19*
X152250000Y-85090000D03*
D20*
G36*
X138935505Y-83177311D02*
G01*
X138961925Y-83181230D01*
X138987835Y-83187720D01*
X139012983Y-83196718D01*
X139037128Y-83208138D01*
X139060038Y-83221869D01*
X139081492Y-83237780D01*
X139101282Y-83255718D01*
X139119220Y-83275508D01*
X139135131Y-83296962D01*
X139148862Y-83319872D01*
X139160282Y-83344017D01*
X139169280Y-83369165D01*
X139175770Y-83395075D01*
X139179689Y-83421495D01*
X139181000Y-83448173D01*
X139181000Y-84155827D01*
X139179689Y-84182505D01*
X139175770Y-84208925D01*
X139169280Y-84234835D01*
X139160282Y-84259983D01*
X139148862Y-84284128D01*
X139135131Y-84307038D01*
X139119220Y-84328492D01*
X139101282Y-84348282D01*
X139081492Y-84366220D01*
X139060038Y-84382131D01*
X139037128Y-84395862D01*
X139012983Y-84407282D01*
X138987835Y-84416280D01*
X138961925Y-84422770D01*
X138935505Y-84426689D01*
X138908827Y-84428000D01*
X137951173Y-84428000D01*
X137924495Y-84426689D01*
X137898075Y-84422770D01*
X137872165Y-84416280D01*
X137847017Y-84407282D01*
X137822872Y-84395862D01*
X137799962Y-84382131D01*
X137778508Y-84366220D01*
X137758718Y-84348282D01*
X137740780Y-84328492D01*
X137724869Y-84307038D01*
X137711138Y-84284128D01*
X137699718Y-84259983D01*
X137690720Y-84234835D01*
X137684230Y-84208925D01*
X137680311Y-84182505D01*
X137679000Y-84155827D01*
X137679000Y-83448173D01*
X137680311Y-83421495D01*
X137684230Y-83395075D01*
X137690720Y-83369165D01*
X137699718Y-83344017D01*
X137711138Y-83319872D01*
X137724869Y-83296962D01*
X137740780Y-83275508D01*
X137758718Y-83255718D01*
X137778508Y-83237780D01*
X137799962Y-83221869D01*
X137822872Y-83208138D01*
X137847017Y-83196718D01*
X137872165Y-83187720D01*
X137898075Y-83181230D01*
X137924495Y-83177311D01*
X137951173Y-83176000D01*
X138908827Y-83176000D01*
X138935505Y-83177311D01*
X138935505Y-83177311D01*
G37*
D21*
X138430000Y-83802000D03*
D20*
G36*
X138935505Y-85227311D02*
G01*
X138961925Y-85231230D01*
X138987835Y-85237720D01*
X139012983Y-85246718D01*
X139037128Y-85258138D01*
X139060038Y-85271869D01*
X139081492Y-85287780D01*
X139101282Y-85305718D01*
X139119220Y-85325508D01*
X139135131Y-85346962D01*
X139148862Y-85369872D01*
X139160282Y-85394017D01*
X139169280Y-85419165D01*
X139175770Y-85445075D01*
X139179689Y-85471495D01*
X139181000Y-85498173D01*
X139181000Y-86205827D01*
X139179689Y-86232505D01*
X139175770Y-86258925D01*
X139169280Y-86284835D01*
X139160282Y-86309983D01*
X139148862Y-86334128D01*
X139135131Y-86357038D01*
X139119220Y-86378492D01*
X139101282Y-86398282D01*
X139081492Y-86416220D01*
X139060038Y-86432131D01*
X139037128Y-86445862D01*
X139012983Y-86457282D01*
X138987835Y-86466280D01*
X138961925Y-86472770D01*
X138935505Y-86476689D01*
X138908827Y-86478000D01*
X137951173Y-86478000D01*
X137924495Y-86476689D01*
X137898075Y-86472770D01*
X137872165Y-86466280D01*
X137847017Y-86457282D01*
X137822872Y-86445862D01*
X137799962Y-86432131D01*
X137778508Y-86416220D01*
X137758718Y-86398282D01*
X137740780Y-86378492D01*
X137724869Y-86357038D01*
X137711138Y-86334128D01*
X137699718Y-86309983D01*
X137690720Y-86284835D01*
X137684230Y-86258925D01*
X137680311Y-86232505D01*
X137679000Y-86205827D01*
X137679000Y-85498173D01*
X137680311Y-85471495D01*
X137684230Y-85445075D01*
X137690720Y-85419165D01*
X137699718Y-85394017D01*
X137711138Y-85369872D01*
X137724869Y-85346962D01*
X137740780Y-85325508D01*
X137758718Y-85305718D01*
X137778508Y-85287780D01*
X137799962Y-85271869D01*
X137822872Y-85258138D01*
X137847017Y-85246718D01*
X137872165Y-85237720D01*
X137898075Y-85231230D01*
X137924495Y-85227311D01*
X137951173Y-85226000D01*
X138908827Y-85226000D01*
X138935505Y-85227311D01*
X138935505Y-85227311D01*
G37*
D21*
X138430000Y-85852000D03*
D20*
G36*
X136921505Y-91533311D02*
G01*
X136947925Y-91537230D01*
X136973835Y-91543720D01*
X136998983Y-91552718D01*
X137023128Y-91564138D01*
X137046038Y-91577869D01*
X137067492Y-91593780D01*
X137087282Y-91611718D01*
X137105220Y-91631508D01*
X137121131Y-91652962D01*
X137134862Y-91675872D01*
X137146282Y-91700017D01*
X137155280Y-91725165D01*
X137161770Y-91751075D01*
X137165689Y-91777495D01*
X137167000Y-91804173D01*
X137167000Y-92511827D01*
X137165689Y-92538505D01*
X137161770Y-92564925D01*
X137155280Y-92590835D01*
X137146282Y-92615983D01*
X137134862Y-92640128D01*
X137121131Y-92663038D01*
X137105220Y-92684492D01*
X137087282Y-92704282D01*
X137067492Y-92722220D01*
X137046038Y-92738131D01*
X137023128Y-92751862D01*
X136998983Y-92763282D01*
X136973835Y-92772280D01*
X136947925Y-92778770D01*
X136921505Y-92782689D01*
X136894827Y-92784000D01*
X135937173Y-92784000D01*
X135910495Y-92782689D01*
X135884075Y-92778770D01*
X135858165Y-92772280D01*
X135833017Y-92763282D01*
X135808872Y-92751862D01*
X135785962Y-92738131D01*
X135764508Y-92722220D01*
X135744718Y-92704282D01*
X135726780Y-92684492D01*
X135710869Y-92663038D01*
X135697138Y-92640128D01*
X135685718Y-92615983D01*
X135676720Y-92590835D01*
X135670230Y-92564925D01*
X135666311Y-92538505D01*
X135665000Y-92511827D01*
X135665000Y-91804173D01*
X135666311Y-91777495D01*
X135670230Y-91751075D01*
X135676720Y-91725165D01*
X135685718Y-91700017D01*
X135697138Y-91675872D01*
X135710869Y-91652962D01*
X135726780Y-91631508D01*
X135744718Y-91611718D01*
X135764508Y-91593780D01*
X135785962Y-91577869D01*
X135808872Y-91564138D01*
X135833017Y-91552718D01*
X135858165Y-91543720D01*
X135884075Y-91537230D01*
X135910495Y-91533311D01*
X135937173Y-91532000D01*
X136894827Y-91532000D01*
X136921505Y-91533311D01*
X136921505Y-91533311D01*
G37*
D21*
X136416000Y-92158000D03*
D20*
G36*
X136921505Y-93583311D02*
G01*
X136947925Y-93587230D01*
X136973835Y-93593720D01*
X136998983Y-93602718D01*
X137023128Y-93614138D01*
X137046038Y-93627869D01*
X137067492Y-93643780D01*
X137087282Y-93661718D01*
X137105220Y-93681508D01*
X137121131Y-93702962D01*
X137134862Y-93725872D01*
X137146282Y-93750017D01*
X137155280Y-93775165D01*
X137161770Y-93801075D01*
X137165689Y-93827495D01*
X137167000Y-93854173D01*
X137167000Y-94561827D01*
X137165689Y-94588505D01*
X137161770Y-94614925D01*
X137155280Y-94640835D01*
X137146282Y-94665983D01*
X137134862Y-94690128D01*
X137121131Y-94713038D01*
X137105220Y-94734492D01*
X137087282Y-94754282D01*
X137067492Y-94772220D01*
X137046038Y-94788131D01*
X137023128Y-94801862D01*
X136998983Y-94813282D01*
X136973835Y-94822280D01*
X136947925Y-94828770D01*
X136921505Y-94832689D01*
X136894827Y-94834000D01*
X135937173Y-94834000D01*
X135910495Y-94832689D01*
X135884075Y-94828770D01*
X135858165Y-94822280D01*
X135833017Y-94813282D01*
X135808872Y-94801862D01*
X135785962Y-94788131D01*
X135764508Y-94772220D01*
X135744718Y-94754282D01*
X135726780Y-94734492D01*
X135710869Y-94713038D01*
X135697138Y-94690128D01*
X135685718Y-94665983D01*
X135676720Y-94640835D01*
X135670230Y-94614925D01*
X135666311Y-94588505D01*
X135665000Y-94561827D01*
X135665000Y-93854173D01*
X135666311Y-93827495D01*
X135670230Y-93801075D01*
X135676720Y-93775165D01*
X135685718Y-93750017D01*
X135697138Y-93725872D01*
X135710869Y-93702962D01*
X135726780Y-93681508D01*
X135744718Y-93661718D01*
X135764508Y-93643780D01*
X135785962Y-93627869D01*
X135808872Y-93614138D01*
X135833017Y-93602718D01*
X135858165Y-93593720D01*
X135884075Y-93587230D01*
X135910495Y-93583311D01*
X135937173Y-93582000D01*
X136894827Y-93582000D01*
X136921505Y-93583311D01*
X136921505Y-93583311D01*
G37*
D21*
X136416000Y-94208000D03*
D20*
G36*
X138953505Y-93583311D02*
G01*
X138979925Y-93587230D01*
X139005835Y-93593720D01*
X139030983Y-93602718D01*
X139055128Y-93614138D01*
X139078038Y-93627869D01*
X139099492Y-93643780D01*
X139119282Y-93661718D01*
X139137220Y-93681508D01*
X139153131Y-93702962D01*
X139166862Y-93725872D01*
X139178282Y-93750017D01*
X139187280Y-93775165D01*
X139193770Y-93801075D01*
X139197689Y-93827495D01*
X139199000Y-93854173D01*
X139199000Y-94561827D01*
X139197689Y-94588505D01*
X139193770Y-94614925D01*
X139187280Y-94640835D01*
X139178282Y-94665983D01*
X139166862Y-94690128D01*
X139153131Y-94713038D01*
X139137220Y-94734492D01*
X139119282Y-94754282D01*
X139099492Y-94772220D01*
X139078038Y-94788131D01*
X139055128Y-94801862D01*
X139030983Y-94813282D01*
X139005835Y-94822280D01*
X138979925Y-94828770D01*
X138953505Y-94832689D01*
X138926827Y-94834000D01*
X137969173Y-94834000D01*
X137942495Y-94832689D01*
X137916075Y-94828770D01*
X137890165Y-94822280D01*
X137865017Y-94813282D01*
X137840872Y-94801862D01*
X137817962Y-94788131D01*
X137796508Y-94772220D01*
X137776718Y-94754282D01*
X137758780Y-94734492D01*
X137742869Y-94713038D01*
X137729138Y-94690128D01*
X137717718Y-94665983D01*
X137708720Y-94640835D01*
X137702230Y-94614925D01*
X137698311Y-94588505D01*
X137697000Y-94561827D01*
X137697000Y-93854173D01*
X137698311Y-93827495D01*
X137702230Y-93801075D01*
X137708720Y-93775165D01*
X137717718Y-93750017D01*
X137729138Y-93725872D01*
X137742869Y-93702962D01*
X137758780Y-93681508D01*
X137776718Y-93661718D01*
X137796508Y-93643780D01*
X137817962Y-93627869D01*
X137840872Y-93614138D01*
X137865017Y-93602718D01*
X137890165Y-93593720D01*
X137916075Y-93587230D01*
X137942495Y-93583311D01*
X137969173Y-93582000D01*
X138926827Y-93582000D01*
X138953505Y-93583311D01*
X138953505Y-93583311D01*
G37*
D21*
X138448000Y-94208000D03*
D20*
G36*
X138953505Y-91533311D02*
G01*
X138979925Y-91537230D01*
X139005835Y-91543720D01*
X139030983Y-91552718D01*
X139055128Y-91564138D01*
X139078038Y-91577869D01*
X139099492Y-91593780D01*
X139119282Y-91611718D01*
X139137220Y-91631508D01*
X139153131Y-91652962D01*
X139166862Y-91675872D01*
X139178282Y-91700017D01*
X139187280Y-91725165D01*
X139193770Y-91751075D01*
X139197689Y-91777495D01*
X139199000Y-91804173D01*
X139199000Y-92511827D01*
X139197689Y-92538505D01*
X139193770Y-92564925D01*
X139187280Y-92590835D01*
X139178282Y-92615983D01*
X139166862Y-92640128D01*
X139153131Y-92663038D01*
X139137220Y-92684492D01*
X139119282Y-92704282D01*
X139099492Y-92722220D01*
X139078038Y-92738131D01*
X139055128Y-92751862D01*
X139030983Y-92763282D01*
X139005835Y-92772280D01*
X138979925Y-92778770D01*
X138953505Y-92782689D01*
X138926827Y-92784000D01*
X137969173Y-92784000D01*
X137942495Y-92782689D01*
X137916075Y-92778770D01*
X137890165Y-92772280D01*
X137865017Y-92763282D01*
X137840872Y-92751862D01*
X137817962Y-92738131D01*
X137796508Y-92722220D01*
X137776718Y-92704282D01*
X137758780Y-92684492D01*
X137742869Y-92663038D01*
X137729138Y-92640128D01*
X137717718Y-92615983D01*
X137708720Y-92590835D01*
X137702230Y-92564925D01*
X137698311Y-92538505D01*
X137697000Y-92511827D01*
X137697000Y-91804173D01*
X137698311Y-91777495D01*
X137702230Y-91751075D01*
X137708720Y-91725165D01*
X137717718Y-91700017D01*
X137729138Y-91675872D01*
X137742869Y-91652962D01*
X137758780Y-91631508D01*
X137776718Y-91611718D01*
X137796508Y-91593780D01*
X137817962Y-91577869D01*
X137840872Y-91564138D01*
X137865017Y-91552718D01*
X137890165Y-91543720D01*
X137916075Y-91537230D01*
X137942495Y-91533311D01*
X137969173Y-91532000D01*
X138926827Y-91532000D01*
X138953505Y-91533311D01*
X138953505Y-91533311D01*
G37*
D21*
X138448000Y-92158000D03*
D20*
G36*
X140985505Y-91533311D02*
G01*
X141011925Y-91537230D01*
X141037835Y-91543720D01*
X141062983Y-91552718D01*
X141087128Y-91564138D01*
X141110038Y-91577869D01*
X141131492Y-91593780D01*
X141151282Y-91611718D01*
X141169220Y-91631508D01*
X141185131Y-91652962D01*
X141198862Y-91675872D01*
X141210282Y-91700017D01*
X141219280Y-91725165D01*
X141225770Y-91751075D01*
X141229689Y-91777495D01*
X141231000Y-91804173D01*
X141231000Y-92511827D01*
X141229689Y-92538505D01*
X141225770Y-92564925D01*
X141219280Y-92590835D01*
X141210282Y-92615983D01*
X141198862Y-92640128D01*
X141185131Y-92663038D01*
X141169220Y-92684492D01*
X141151282Y-92704282D01*
X141131492Y-92722220D01*
X141110038Y-92738131D01*
X141087128Y-92751862D01*
X141062983Y-92763282D01*
X141037835Y-92772280D01*
X141011925Y-92778770D01*
X140985505Y-92782689D01*
X140958827Y-92784000D01*
X140001173Y-92784000D01*
X139974495Y-92782689D01*
X139948075Y-92778770D01*
X139922165Y-92772280D01*
X139897017Y-92763282D01*
X139872872Y-92751862D01*
X139849962Y-92738131D01*
X139828508Y-92722220D01*
X139808718Y-92704282D01*
X139790780Y-92684492D01*
X139774869Y-92663038D01*
X139761138Y-92640128D01*
X139749718Y-92615983D01*
X139740720Y-92590835D01*
X139734230Y-92564925D01*
X139730311Y-92538505D01*
X139729000Y-92511827D01*
X139729000Y-91804173D01*
X139730311Y-91777495D01*
X139734230Y-91751075D01*
X139740720Y-91725165D01*
X139749718Y-91700017D01*
X139761138Y-91675872D01*
X139774869Y-91652962D01*
X139790780Y-91631508D01*
X139808718Y-91611718D01*
X139828508Y-91593780D01*
X139849962Y-91577869D01*
X139872872Y-91564138D01*
X139897017Y-91552718D01*
X139922165Y-91543720D01*
X139948075Y-91537230D01*
X139974495Y-91533311D01*
X140001173Y-91532000D01*
X140958827Y-91532000D01*
X140985505Y-91533311D01*
X140985505Y-91533311D01*
G37*
D21*
X140480000Y-92158000D03*
D20*
G36*
X140985505Y-93583311D02*
G01*
X141011925Y-93587230D01*
X141037835Y-93593720D01*
X141062983Y-93602718D01*
X141087128Y-93614138D01*
X141110038Y-93627869D01*
X141131492Y-93643780D01*
X141151282Y-93661718D01*
X141169220Y-93681508D01*
X141185131Y-93702962D01*
X141198862Y-93725872D01*
X141210282Y-93750017D01*
X141219280Y-93775165D01*
X141225770Y-93801075D01*
X141229689Y-93827495D01*
X141231000Y-93854173D01*
X141231000Y-94561827D01*
X141229689Y-94588505D01*
X141225770Y-94614925D01*
X141219280Y-94640835D01*
X141210282Y-94665983D01*
X141198862Y-94690128D01*
X141185131Y-94713038D01*
X141169220Y-94734492D01*
X141151282Y-94754282D01*
X141131492Y-94772220D01*
X141110038Y-94788131D01*
X141087128Y-94801862D01*
X141062983Y-94813282D01*
X141037835Y-94822280D01*
X141011925Y-94828770D01*
X140985505Y-94832689D01*
X140958827Y-94834000D01*
X140001173Y-94834000D01*
X139974495Y-94832689D01*
X139948075Y-94828770D01*
X139922165Y-94822280D01*
X139897017Y-94813282D01*
X139872872Y-94801862D01*
X139849962Y-94788131D01*
X139828508Y-94772220D01*
X139808718Y-94754282D01*
X139790780Y-94734492D01*
X139774869Y-94713038D01*
X139761138Y-94690128D01*
X139749718Y-94665983D01*
X139740720Y-94640835D01*
X139734230Y-94614925D01*
X139730311Y-94588505D01*
X139729000Y-94561827D01*
X139729000Y-93854173D01*
X139730311Y-93827495D01*
X139734230Y-93801075D01*
X139740720Y-93775165D01*
X139749718Y-93750017D01*
X139761138Y-93725872D01*
X139774869Y-93702962D01*
X139790780Y-93681508D01*
X139808718Y-93661718D01*
X139828508Y-93643780D01*
X139849962Y-93627869D01*
X139872872Y-93614138D01*
X139897017Y-93602718D01*
X139922165Y-93593720D01*
X139948075Y-93587230D01*
X139974495Y-93583311D01*
X140001173Y-93582000D01*
X140958827Y-93582000D01*
X140985505Y-93583311D01*
X140985505Y-93583311D01*
G37*
D21*
X140480000Y-94208000D03*
D20*
G36*
X129283505Y-82170311D02*
G01*
X129309925Y-82174230D01*
X129335835Y-82180720D01*
X129360983Y-82189718D01*
X129385128Y-82201138D01*
X129408038Y-82214869D01*
X129429492Y-82230780D01*
X129449282Y-82248718D01*
X129467220Y-82268508D01*
X129483131Y-82289962D01*
X129496862Y-82312872D01*
X129508282Y-82337017D01*
X129517280Y-82362165D01*
X129523770Y-82388075D01*
X129527689Y-82414495D01*
X129529000Y-82441173D01*
X129529000Y-83148827D01*
X129527689Y-83175505D01*
X129523770Y-83201925D01*
X129517280Y-83227835D01*
X129508282Y-83252983D01*
X129496862Y-83277128D01*
X129483131Y-83300038D01*
X129467220Y-83321492D01*
X129449282Y-83341282D01*
X129429492Y-83359220D01*
X129408038Y-83375131D01*
X129385128Y-83388862D01*
X129360983Y-83400282D01*
X129335835Y-83409280D01*
X129309925Y-83415770D01*
X129283505Y-83419689D01*
X129256827Y-83421000D01*
X128299173Y-83421000D01*
X128272495Y-83419689D01*
X128246075Y-83415770D01*
X128220165Y-83409280D01*
X128195017Y-83400282D01*
X128170872Y-83388862D01*
X128147962Y-83375131D01*
X128126508Y-83359220D01*
X128106718Y-83341282D01*
X128088780Y-83321492D01*
X128072869Y-83300038D01*
X128059138Y-83277128D01*
X128047718Y-83252983D01*
X128038720Y-83227835D01*
X128032230Y-83201925D01*
X128028311Y-83175505D01*
X128027000Y-83148827D01*
X128027000Y-82441173D01*
X128028311Y-82414495D01*
X128032230Y-82388075D01*
X128038720Y-82362165D01*
X128047718Y-82337017D01*
X128059138Y-82312872D01*
X128072869Y-82289962D01*
X128088780Y-82268508D01*
X128106718Y-82248718D01*
X128126508Y-82230780D01*
X128147962Y-82214869D01*
X128170872Y-82201138D01*
X128195017Y-82189718D01*
X128220165Y-82180720D01*
X128246075Y-82174230D01*
X128272495Y-82170311D01*
X128299173Y-82169000D01*
X129256827Y-82169000D01*
X129283505Y-82170311D01*
X129283505Y-82170311D01*
G37*
D21*
X128778000Y-82795000D03*
D20*
G36*
X129283505Y-84220311D02*
G01*
X129309925Y-84224230D01*
X129335835Y-84230720D01*
X129360983Y-84239718D01*
X129385128Y-84251138D01*
X129408038Y-84264869D01*
X129429492Y-84280780D01*
X129449282Y-84298718D01*
X129467220Y-84318508D01*
X129483131Y-84339962D01*
X129496862Y-84362872D01*
X129508282Y-84387017D01*
X129517280Y-84412165D01*
X129523770Y-84438075D01*
X129527689Y-84464495D01*
X129529000Y-84491173D01*
X129529000Y-85198827D01*
X129527689Y-85225505D01*
X129523770Y-85251925D01*
X129517280Y-85277835D01*
X129508282Y-85302983D01*
X129496862Y-85327128D01*
X129483131Y-85350038D01*
X129467220Y-85371492D01*
X129449282Y-85391282D01*
X129429492Y-85409220D01*
X129408038Y-85425131D01*
X129385128Y-85438862D01*
X129360983Y-85450282D01*
X129335835Y-85459280D01*
X129309925Y-85465770D01*
X129283505Y-85469689D01*
X129256827Y-85471000D01*
X128299173Y-85471000D01*
X128272495Y-85469689D01*
X128246075Y-85465770D01*
X128220165Y-85459280D01*
X128195017Y-85450282D01*
X128170872Y-85438862D01*
X128147962Y-85425131D01*
X128126508Y-85409220D01*
X128106718Y-85391282D01*
X128088780Y-85371492D01*
X128072869Y-85350038D01*
X128059138Y-85327128D01*
X128047718Y-85302983D01*
X128038720Y-85277835D01*
X128032230Y-85251925D01*
X128028311Y-85225505D01*
X128027000Y-85198827D01*
X128027000Y-84491173D01*
X128028311Y-84464495D01*
X128032230Y-84438075D01*
X128038720Y-84412165D01*
X128047718Y-84387017D01*
X128059138Y-84362872D01*
X128072869Y-84339962D01*
X128088780Y-84318508D01*
X128106718Y-84298718D01*
X128126508Y-84280780D01*
X128147962Y-84264869D01*
X128170872Y-84251138D01*
X128195017Y-84239718D01*
X128220165Y-84230720D01*
X128246075Y-84224230D01*
X128272495Y-84220311D01*
X128299173Y-84219000D01*
X129256827Y-84219000D01*
X129283505Y-84220311D01*
X129283505Y-84220311D01*
G37*
D21*
X128778000Y-84845000D03*
D20*
G36*
X126872505Y-87642311D02*
G01*
X126898925Y-87646230D01*
X126924835Y-87652720D01*
X126949983Y-87661718D01*
X126974128Y-87673138D01*
X126997038Y-87686869D01*
X127018492Y-87702780D01*
X127038282Y-87720718D01*
X127056220Y-87740508D01*
X127072131Y-87761962D01*
X127085862Y-87784872D01*
X127097282Y-87809017D01*
X127106280Y-87834165D01*
X127112770Y-87860075D01*
X127116689Y-87886495D01*
X127118000Y-87913173D01*
X127118000Y-88870827D01*
X127116689Y-88897505D01*
X127112770Y-88923925D01*
X127106280Y-88949835D01*
X127097282Y-88974983D01*
X127085862Y-88999128D01*
X127072131Y-89022038D01*
X127056220Y-89043492D01*
X127038282Y-89063282D01*
X127018492Y-89081220D01*
X126997038Y-89097131D01*
X126974128Y-89110862D01*
X126949983Y-89122282D01*
X126924835Y-89131280D01*
X126898925Y-89137770D01*
X126872505Y-89141689D01*
X126845827Y-89143000D01*
X126138173Y-89143000D01*
X126111495Y-89141689D01*
X126085075Y-89137770D01*
X126059165Y-89131280D01*
X126034017Y-89122282D01*
X126009872Y-89110862D01*
X125986962Y-89097131D01*
X125965508Y-89081220D01*
X125945718Y-89063282D01*
X125927780Y-89043492D01*
X125911869Y-89022038D01*
X125898138Y-88999128D01*
X125886718Y-88974983D01*
X125877720Y-88949835D01*
X125871230Y-88923925D01*
X125867311Y-88897505D01*
X125866000Y-88870827D01*
X125866000Y-87913173D01*
X125867311Y-87886495D01*
X125871230Y-87860075D01*
X125877720Y-87834165D01*
X125886718Y-87809017D01*
X125898138Y-87784872D01*
X125911869Y-87761962D01*
X125927780Y-87740508D01*
X125945718Y-87720718D01*
X125965508Y-87702780D01*
X125986962Y-87686869D01*
X126009872Y-87673138D01*
X126034017Y-87661718D01*
X126059165Y-87652720D01*
X126085075Y-87646230D01*
X126111495Y-87642311D01*
X126138173Y-87641000D01*
X126845827Y-87641000D01*
X126872505Y-87642311D01*
X126872505Y-87642311D01*
G37*
D21*
X126492000Y-88392000D03*
D20*
G36*
X124822505Y-87642311D02*
G01*
X124848925Y-87646230D01*
X124874835Y-87652720D01*
X124899983Y-87661718D01*
X124924128Y-87673138D01*
X124947038Y-87686869D01*
X124968492Y-87702780D01*
X124988282Y-87720718D01*
X125006220Y-87740508D01*
X125022131Y-87761962D01*
X125035862Y-87784872D01*
X125047282Y-87809017D01*
X125056280Y-87834165D01*
X125062770Y-87860075D01*
X125066689Y-87886495D01*
X125068000Y-87913173D01*
X125068000Y-88870827D01*
X125066689Y-88897505D01*
X125062770Y-88923925D01*
X125056280Y-88949835D01*
X125047282Y-88974983D01*
X125035862Y-88999128D01*
X125022131Y-89022038D01*
X125006220Y-89043492D01*
X124988282Y-89063282D01*
X124968492Y-89081220D01*
X124947038Y-89097131D01*
X124924128Y-89110862D01*
X124899983Y-89122282D01*
X124874835Y-89131280D01*
X124848925Y-89137770D01*
X124822505Y-89141689D01*
X124795827Y-89143000D01*
X124088173Y-89143000D01*
X124061495Y-89141689D01*
X124035075Y-89137770D01*
X124009165Y-89131280D01*
X123984017Y-89122282D01*
X123959872Y-89110862D01*
X123936962Y-89097131D01*
X123915508Y-89081220D01*
X123895718Y-89063282D01*
X123877780Y-89043492D01*
X123861869Y-89022038D01*
X123848138Y-88999128D01*
X123836718Y-88974983D01*
X123827720Y-88949835D01*
X123821230Y-88923925D01*
X123817311Y-88897505D01*
X123816000Y-88870827D01*
X123816000Y-87913173D01*
X123817311Y-87886495D01*
X123821230Y-87860075D01*
X123827720Y-87834165D01*
X123836718Y-87809017D01*
X123848138Y-87784872D01*
X123861869Y-87761962D01*
X123877780Y-87740508D01*
X123895718Y-87720718D01*
X123915508Y-87702780D01*
X123936962Y-87686869D01*
X123959872Y-87673138D01*
X123984017Y-87661718D01*
X124009165Y-87652720D01*
X124035075Y-87646230D01*
X124061495Y-87642311D01*
X124088173Y-87641000D01*
X124795827Y-87641000D01*
X124822505Y-87642311D01*
X124822505Y-87642311D01*
G37*
D21*
X124442000Y-88392000D03*
D20*
G36*
X122817505Y-87642311D02*
G01*
X122843925Y-87646230D01*
X122869835Y-87652720D01*
X122894983Y-87661718D01*
X122919128Y-87673138D01*
X122942038Y-87686869D01*
X122963492Y-87702780D01*
X122983282Y-87720718D01*
X123001220Y-87740508D01*
X123017131Y-87761962D01*
X123030862Y-87784872D01*
X123042282Y-87809017D01*
X123051280Y-87834165D01*
X123057770Y-87860075D01*
X123061689Y-87886495D01*
X123063000Y-87913173D01*
X123063000Y-88870827D01*
X123061689Y-88897505D01*
X123057770Y-88923925D01*
X123051280Y-88949835D01*
X123042282Y-88974983D01*
X123030862Y-88999128D01*
X123017131Y-89022038D01*
X123001220Y-89043492D01*
X122983282Y-89063282D01*
X122963492Y-89081220D01*
X122942038Y-89097131D01*
X122919128Y-89110862D01*
X122894983Y-89122282D01*
X122869835Y-89131280D01*
X122843925Y-89137770D01*
X122817505Y-89141689D01*
X122790827Y-89143000D01*
X122083173Y-89143000D01*
X122056495Y-89141689D01*
X122030075Y-89137770D01*
X122004165Y-89131280D01*
X121979017Y-89122282D01*
X121954872Y-89110862D01*
X121931962Y-89097131D01*
X121910508Y-89081220D01*
X121890718Y-89063282D01*
X121872780Y-89043492D01*
X121856869Y-89022038D01*
X121843138Y-88999128D01*
X121831718Y-88974983D01*
X121822720Y-88949835D01*
X121816230Y-88923925D01*
X121812311Y-88897505D01*
X121811000Y-88870827D01*
X121811000Y-87913173D01*
X121812311Y-87886495D01*
X121816230Y-87860075D01*
X121822720Y-87834165D01*
X121831718Y-87809017D01*
X121843138Y-87784872D01*
X121856869Y-87761962D01*
X121872780Y-87740508D01*
X121890718Y-87720718D01*
X121910508Y-87702780D01*
X121931962Y-87686869D01*
X121954872Y-87673138D01*
X121979017Y-87661718D01*
X122004165Y-87652720D01*
X122030075Y-87646230D01*
X122056495Y-87642311D01*
X122083173Y-87641000D01*
X122790827Y-87641000D01*
X122817505Y-87642311D01*
X122817505Y-87642311D01*
G37*
D21*
X122437000Y-88392000D03*
D20*
G36*
X120767505Y-87642311D02*
G01*
X120793925Y-87646230D01*
X120819835Y-87652720D01*
X120844983Y-87661718D01*
X120869128Y-87673138D01*
X120892038Y-87686869D01*
X120913492Y-87702780D01*
X120933282Y-87720718D01*
X120951220Y-87740508D01*
X120967131Y-87761962D01*
X120980862Y-87784872D01*
X120992282Y-87809017D01*
X121001280Y-87834165D01*
X121007770Y-87860075D01*
X121011689Y-87886495D01*
X121013000Y-87913173D01*
X121013000Y-88870827D01*
X121011689Y-88897505D01*
X121007770Y-88923925D01*
X121001280Y-88949835D01*
X120992282Y-88974983D01*
X120980862Y-88999128D01*
X120967131Y-89022038D01*
X120951220Y-89043492D01*
X120933282Y-89063282D01*
X120913492Y-89081220D01*
X120892038Y-89097131D01*
X120869128Y-89110862D01*
X120844983Y-89122282D01*
X120819835Y-89131280D01*
X120793925Y-89137770D01*
X120767505Y-89141689D01*
X120740827Y-89143000D01*
X120033173Y-89143000D01*
X120006495Y-89141689D01*
X119980075Y-89137770D01*
X119954165Y-89131280D01*
X119929017Y-89122282D01*
X119904872Y-89110862D01*
X119881962Y-89097131D01*
X119860508Y-89081220D01*
X119840718Y-89063282D01*
X119822780Y-89043492D01*
X119806869Y-89022038D01*
X119793138Y-88999128D01*
X119781718Y-88974983D01*
X119772720Y-88949835D01*
X119766230Y-88923925D01*
X119762311Y-88897505D01*
X119761000Y-88870827D01*
X119761000Y-87913173D01*
X119762311Y-87886495D01*
X119766230Y-87860075D01*
X119772720Y-87834165D01*
X119781718Y-87809017D01*
X119793138Y-87784872D01*
X119806869Y-87761962D01*
X119822780Y-87740508D01*
X119840718Y-87720718D01*
X119860508Y-87702780D01*
X119881962Y-87686869D01*
X119904872Y-87673138D01*
X119929017Y-87661718D01*
X119954165Y-87652720D01*
X119980075Y-87646230D01*
X120006495Y-87642311D01*
X120033173Y-87641000D01*
X120740827Y-87641000D01*
X120767505Y-87642311D01*
X120767505Y-87642311D01*
G37*
D21*
X120387000Y-88392000D03*
D22*
X135382000Y-84582000D03*
D23*
X132842000Y-84582000D03*
D24*
X133096000Y-95610000D03*
D20*
G36*
X134306203Y-97461000D02*
G01*
X131885797Y-97461000D01*
X132502797Y-93759000D01*
X133689203Y-93759000D01*
X134306203Y-97461000D01*
X134306203Y-97461000D01*
G37*
D24*
X133096000Y-89810000D03*
D20*
G36*
X131885797Y-87959000D02*
G01*
X134306203Y-87959000D01*
X133689203Y-91661000D01*
X132502797Y-91661000D01*
X131885797Y-87959000D01*
X131885797Y-87959000D01*
G37*
G36*
X142890505Y-87342311D02*
G01*
X142916925Y-87346230D01*
X142942835Y-87352720D01*
X142967983Y-87361718D01*
X142992128Y-87373138D01*
X143015038Y-87386869D01*
X143036492Y-87402780D01*
X143056282Y-87420718D01*
X143074220Y-87440508D01*
X143090131Y-87461962D01*
X143103862Y-87484872D01*
X143115282Y-87509017D01*
X143124280Y-87534165D01*
X143130770Y-87560075D01*
X143134689Y-87586495D01*
X143136000Y-87613173D01*
X143136000Y-88320827D01*
X143134689Y-88347505D01*
X143130770Y-88373925D01*
X143124280Y-88399835D01*
X143115282Y-88424983D01*
X143103862Y-88449128D01*
X143090131Y-88472038D01*
X143074220Y-88493492D01*
X143056282Y-88513282D01*
X143036492Y-88531220D01*
X143015038Y-88547131D01*
X142992128Y-88560862D01*
X142967983Y-88572282D01*
X142942835Y-88581280D01*
X142916925Y-88587770D01*
X142890505Y-88591689D01*
X142863827Y-88593000D01*
X141906173Y-88593000D01*
X141879495Y-88591689D01*
X141853075Y-88587770D01*
X141827165Y-88581280D01*
X141802017Y-88572282D01*
X141777872Y-88560862D01*
X141754962Y-88547131D01*
X141733508Y-88531220D01*
X141713718Y-88513282D01*
X141695780Y-88493492D01*
X141679869Y-88472038D01*
X141666138Y-88449128D01*
X141654718Y-88424983D01*
X141645720Y-88399835D01*
X141639230Y-88373925D01*
X141635311Y-88347505D01*
X141634000Y-88320827D01*
X141634000Y-87613173D01*
X141635311Y-87586495D01*
X141639230Y-87560075D01*
X141645720Y-87534165D01*
X141654718Y-87509017D01*
X141666138Y-87484872D01*
X141679869Y-87461962D01*
X141695780Y-87440508D01*
X141713718Y-87420718D01*
X141733508Y-87402780D01*
X141754962Y-87386869D01*
X141777872Y-87373138D01*
X141802017Y-87361718D01*
X141827165Y-87352720D01*
X141853075Y-87346230D01*
X141879495Y-87342311D01*
X141906173Y-87341000D01*
X142863827Y-87341000D01*
X142890505Y-87342311D01*
X142890505Y-87342311D01*
G37*
D21*
X142385000Y-87967000D03*
D20*
G36*
X142890505Y-85292311D02*
G01*
X142916925Y-85296230D01*
X142942835Y-85302720D01*
X142967983Y-85311718D01*
X142992128Y-85323138D01*
X143015038Y-85336869D01*
X143036492Y-85352780D01*
X143056282Y-85370718D01*
X143074220Y-85390508D01*
X143090131Y-85411962D01*
X143103862Y-85434872D01*
X143115282Y-85459017D01*
X143124280Y-85484165D01*
X143130770Y-85510075D01*
X143134689Y-85536495D01*
X143136000Y-85563173D01*
X143136000Y-86270827D01*
X143134689Y-86297505D01*
X143130770Y-86323925D01*
X143124280Y-86349835D01*
X143115282Y-86374983D01*
X143103862Y-86399128D01*
X143090131Y-86422038D01*
X143074220Y-86443492D01*
X143056282Y-86463282D01*
X143036492Y-86481220D01*
X143015038Y-86497131D01*
X142992128Y-86510862D01*
X142967983Y-86522282D01*
X142942835Y-86531280D01*
X142916925Y-86537770D01*
X142890505Y-86541689D01*
X142863827Y-86543000D01*
X141906173Y-86543000D01*
X141879495Y-86541689D01*
X141853075Y-86537770D01*
X141827165Y-86531280D01*
X141802017Y-86522282D01*
X141777872Y-86510862D01*
X141754962Y-86497131D01*
X141733508Y-86481220D01*
X141713718Y-86463282D01*
X141695780Y-86443492D01*
X141679869Y-86422038D01*
X141666138Y-86399128D01*
X141654718Y-86374983D01*
X141645720Y-86349835D01*
X141639230Y-86323925D01*
X141635311Y-86297505D01*
X141634000Y-86270827D01*
X141634000Y-85563173D01*
X141635311Y-85536495D01*
X141639230Y-85510075D01*
X141645720Y-85484165D01*
X141654718Y-85459017D01*
X141666138Y-85434872D01*
X141679869Y-85411962D01*
X141695780Y-85390508D01*
X141713718Y-85370718D01*
X141733508Y-85352780D01*
X141754962Y-85336869D01*
X141777872Y-85323138D01*
X141802017Y-85311718D01*
X141827165Y-85302720D01*
X141853075Y-85296230D01*
X141879495Y-85292311D01*
X141906173Y-85291000D01*
X142863827Y-85291000D01*
X142890505Y-85292311D01*
X142890505Y-85292311D01*
G37*
D21*
X142385000Y-85917000D03*
M02*
