G04 #@! TF.GenerationSoftware,KiCad,Pcbnew,(5.1.0)-1*
G04 #@! TF.CreationDate,2019-07-07T19:12:32+02:00*
G04 #@! TF.ProjectId,big_button_v1,6269675f-6275-4747-946f-6e5f76312e6b,rev?*
G04 #@! TF.SameCoordinates,Original*
G04 #@! TF.FileFunction,Copper,L1,Top*
G04 #@! TF.FilePolarity,Positive*
%FSLAX46Y46*%
G04 Gerber Fmt 4.6, Leading zero omitted, Abs format (unit mm)*
G04 Created by KiCad (PCBNEW (5.1.0)-1) date 2019-07-07 19:12:32*
%MOMM*%
%LPD*%
G04 APERTURE LIST*
%ADD10O,1.600000X1.600000*%
%ADD11R,1.600000X1.600000*%
%ADD12C,3.000000*%
%ADD13R,3.000000X3.000000*%
%ADD14O,2.000000X1.700000*%
%ADD15C,0.100000*%
%ADD16C,1.700000*%
%ADD17R,1.520000X1.520000*%
%ADD18C,1.520000*%
%ADD19C,0.800000*%
%ADD20C,0.250000*%
%ADD21C,0.254000*%
G04 APERTURE END LIST*
D10*
X64008000Y-65151000D03*
X66548000Y-72771000D03*
X66548000Y-65151000D03*
D11*
X64008000Y-72771000D03*
D10*
X65278000Y-84709000D03*
X62738000Y-77089000D03*
X62738000Y-84709000D03*
D11*
X65278000Y-77089000D03*
D12*
X54102000Y-67310000D03*
D13*
X59182000Y-67310000D03*
D14*
X67564000Y-60920000D03*
D15*
G36*
X68338504Y-57571204D02*
G01*
X68362773Y-57574804D01*
X68386571Y-57580765D01*
X68409671Y-57589030D01*
X68431849Y-57599520D01*
X68452893Y-57612133D01*
X68472598Y-57626747D01*
X68490777Y-57643223D01*
X68507253Y-57661402D01*
X68521867Y-57681107D01*
X68534480Y-57702151D01*
X68544970Y-57724329D01*
X68553235Y-57747429D01*
X68559196Y-57771227D01*
X68562796Y-57795496D01*
X68564000Y-57820000D01*
X68564000Y-59020000D01*
X68562796Y-59044504D01*
X68559196Y-59068773D01*
X68553235Y-59092571D01*
X68544970Y-59115671D01*
X68534480Y-59137849D01*
X68521867Y-59158893D01*
X68507253Y-59178598D01*
X68490777Y-59196777D01*
X68472598Y-59213253D01*
X68452893Y-59227867D01*
X68431849Y-59240480D01*
X68409671Y-59250970D01*
X68386571Y-59259235D01*
X68362773Y-59265196D01*
X68338504Y-59268796D01*
X68314000Y-59270000D01*
X66814000Y-59270000D01*
X66789496Y-59268796D01*
X66765227Y-59265196D01*
X66741429Y-59259235D01*
X66718329Y-59250970D01*
X66696151Y-59240480D01*
X66675107Y-59227867D01*
X66655402Y-59213253D01*
X66637223Y-59196777D01*
X66620747Y-59178598D01*
X66606133Y-59158893D01*
X66593520Y-59137849D01*
X66583030Y-59115671D01*
X66574765Y-59092571D01*
X66568804Y-59068773D01*
X66565204Y-59044504D01*
X66564000Y-59020000D01*
X66564000Y-57820000D01*
X66565204Y-57795496D01*
X66568804Y-57771227D01*
X66574765Y-57747429D01*
X66583030Y-57724329D01*
X66593520Y-57702151D01*
X66606133Y-57681107D01*
X66620747Y-57661402D01*
X66637223Y-57643223D01*
X66655402Y-57626747D01*
X66675107Y-57612133D01*
X66696151Y-57599520D01*
X66718329Y-57589030D01*
X66741429Y-57580765D01*
X66765227Y-57574804D01*
X66789496Y-57571204D01*
X66814000Y-57570000D01*
X68314000Y-57570000D01*
X68338504Y-57571204D01*
X68338504Y-57571204D01*
G37*
D16*
X67564000Y-58420000D03*
D14*
X67564000Y-91400000D03*
D15*
G36*
X68338504Y-88051204D02*
G01*
X68362773Y-88054804D01*
X68386571Y-88060765D01*
X68409671Y-88069030D01*
X68431849Y-88079520D01*
X68452893Y-88092133D01*
X68472598Y-88106747D01*
X68490777Y-88123223D01*
X68507253Y-88141402D01*
X68521867Y-88161107D01*
X68534480Y-88182151D01*
X68544970Y-88204329D01*
X68553235Y-88227429D01*
X68559196Y-88251227D01*
X68562796Y-88275496D01*
X68564000Y-88300000D01*
X68564000Y-89500000D01*
X68562796Y-89524504D01*
X68559196Y-89548773D01*
X68553235Y-89572571D01*
X68544970Y-89595671D01*
X68534480Y-89617849D01*
X68521867Y-89638893D01*
X68507253Y-89658598D01*
X68490777Y-89676777D01*
X68472598Y-89693253D01*
X68452893Y-89707867D01*
X68431849Y-89720480D01*
X68409671Y-89730970D01*
X68386571Y-89739235D01*
X68362773Y-89745196D01*
X68338504Y-89748796D01*
X68314000Y-89750000D01*
X66814000Y-89750000D01*
X66789496Y-89748796D01*
X66765227Y-89745196D01*
X66741429Y-89739235D01*
X66718329Y-89730970D01*
X66696151Y-89720480D01*
X66675107Y-89707867D01*
X66655402Y-89693253D01*
X66637223Y-89676777D01*
X66620747Y-89658598D01*
X66606133Y-89638893D01*
X66593520Y-89617849D01*
X66583030Y-89595671D01*
X66574765Y-89572571D01*
X66568804Y-89548773D01*
X66565204Y-89524504D01*
X66564000Y-89500000D01*
X66564000Y-88300000D01*
X66565204Y-88275496D01*
X66568804Y-88251227D01*
X66574765Y-88227429D01*
X66583030Y-88204329D01*
X66593520Y-88182151D01*
X66606133Y-88161107D01*
X66620747Y-88141402D01*
X66637223Y-88123223D01*
X66655402Y-88106747D01*
X66675107Y-88092133D01*
X66696151Y-88079520D01*
X66718329Y-88069030D01*
X66741429Y-88060765D01*
X66765227Y-88054804D01*
X66789496Y-88051204D01*
X66814000Y-88050000D01*
X68314000Y-88050000D01*
X68338504Y-88051204D01*
X68338504Y-88051204D01*
G37*
D16*
X67564000Y-88900000D03*
D17*
X54234000Y-88646000D03*
D18*
X55504000Y-91186000D03*
X56774000Y-88646000D03*
X58044000Y-91186000D03*
X59314000Y-88646000D03*
X60584000Y-91186000D03*
D17*
X60452000Y-61468000D03*
D18*
X59182000Y-58928000D03*
X57912000Y-61468000D03*
X56642000Y-58928000D03*
X55372000Y-61468000D03*
X54102000Y-58928000D03*
D19*
X56134000Y-76708000D03*
X61468000Y-76200000D03*
X54102000Y-70358000D03*
D20*
X59182000Y-60198000D02*
X60452000Y-61468000D01*
X52070000Y-60198000D02*
X59182000Y-60198000D01*
X51054000Y-61214000D02*
X52070000Y-60198000D01*
X54234000Y-88646000D02*
X51054000Y-85466000D01*
X51054000Y-85466000D02*
X51054000Y-61214000D01*
X58806000Y-92964000D02*
X60584000Y-91186000D01*
X53086000Y-92964000D02*
X58806000Y-92964000D01*
X50546000Y-90424000D02*
X53086000Y-92964000D01*
X50546000Y-60960000D02*
X50546000Y-90424000D01*
X54102000Y-58928000D02*
X52578000Y-58928000D01*
X52578000Y-58928000D02*
X50546000Y-60960000D01*
D21*
G36*
X60921334Y-50822544D02*
G01*
X60606544Y-51137334D01*
X60359214Y-51507489D01*
X60188851Y-51918782D01*
X60102000Y-52355409D01*
X60102000Y-52800591D01*
X60188851Y-53237218D01*
X60359214Y-53648511D01*
X60606544Y-54018666D01*
X60921334Y-54333456D01*
X61291489Y-54580786D01*
X61702782Y-54751149D01*
X62139409Y-54838000D01*
X62584591Y-54838000D01*
X63021218Y-54751149D01*
X63432511Y-54580786D01*
X63802666Y-54333456D01*
X64117456Y-54018666D01*
X64364786Y-53648511D01*
X64535149Y-53237218D01*
X64622000Y-52800591D01*
X64622000Y-52355409D01*
X64535149Y-51918782D01*
X64364786Y-51507489D01*
X64117456Y-51137334D01*
X63802666Y-50822544D01*
X63611783Y-50695000D01*
X69305001Y-50695000D01*
X69305000Y-99305000D01*
X63904396Y-99305000D01*
X63924666Y-99291456D01*
X64239456Y-98976666D01*
X64486786Y-98606511D01*
X64657149Y-98195218D01*
X64744000Y-97758591D01*
X64744000Y-97313409D01*
X64657149Y-96876782D01*
X64486786Y-96465489D01*
X64239456Y-96095334D01*
X63924666Y-95780544D01*
X63554511Y-95533214D01*
X63143218Y-95362851D01*
X62706591Y-95276000D01*
X62261409Y-95276000D01*
X61824782Y-95362851D01*
X61413489Y-95533214D01*
X61043334Y-95780544D01*
X60728544Y-96095334D01*
X60481214Y-96465489D01*
X60310851Y-96876782D01*
X60224000Y-97313409D01*
X60224000Y-97758591D01*
X60310851Y-98195218D01*
X60481214Y-98606511D01*
X60728544Y-98976666D01*
X61043334Y-99291456D01*
X61063604Y-99305000D01*
X53744396Y-99305000D01*
X53764666Y-99291456D01*
X54079456Y-98976666D01*
X54326786Y-98606511D01*
X54497149Y-98195218D01*
X54584000Y-97758591D01*
X54584000Y-97313409D01*
X54497149Y-96876782D01*
X54326786Y-96465489D01*
X54079456Y-96095334D01*
X53764666Y-95780544D01*
X53394511Y-95533214D01*
X52983218Y-95362851D01*
X52546591Y-95276000D01*
X52101409Y-95276000D01*
X51664782Y-95362851D01*
X51253489Y-95533214D01*
X50883334Y-95780544D01*
X50695000Y-95968878D01*
X50695000Y-91647802D01*
X52522205Y-93475008D01*
X52545999Y-93504001D01*
X52574992Y-93527795D01*
X52574996Y-93527799D01*
X52645685Y-93585811D01*
X52661724Y-93598974D01*
X52793753Y-93669546D01*
X52937014Y-93713003D01*
X53048667Y-93724000D01*
X53048676Y-93724000D01*
X53085999Y-93727676D01*
X53123322Y-93724000D01*
X58768678Y-93724000D01*
X58806000Y-93727676D01*
X58843322Y-93724000D01*
X58843333Y-93724000D01*
X58954986Y-93713003D01*
X59098247Y-93669546D01*
X59230276Y-93598974D01*
X59346001Y-93504001D01*
X59369804Y-93474997D01*
X60294130Y-92550671D01*
X60446604Y-92581000D01*
X60721396Y-92581000D01*
X60990907Y-92527391D01*
X61244780Y-92422233D01*
X61473261Y-92269567D01*
X61667567Y-92075261D01*
X61820233Y-91846780D01*
X61925391Y-91592907D01*
X61963762Y-91400000D01*
X65921815Y-91400000D01*
X65950487Y-91691111D01*
X66035401Y-91971034D01*
X66173294Y-92229014D01*
X66358866Y-92455134D01*
X66584986Y-92640706D01*
X66842966Y-92778599D01*
X67122889Y-92863513D01*
X67341050Y-92885000D01*
X67786950Y-92885000D01*
X68005111Y-92863513D01*
X68285034Y-92778599D01*
X68543014Y-92640706D01*
X68769134Y-92455134D01*
X68954706Y-92229014D01*
X69092599Y-91971034D01*
X69177513Y-91691111D01*
X69206185Y-91400000D01*
X69177513Y-91108889D01*
X69092599Y-90828966D01*
X68954706Y-90570986D01*
X68769134Y-90344866D01*
X68705663Y-90292777D01*
X68807386Y-90238405D01*
X68941962Y-90127962D01*
X69052405Y-89993386D01*
X69134472Y-89839850D01*
X69185008Y-89673254D01*
X69202072Y-89500000D01*
X69202072Y-88300000D01*
X69185008Y-88126746D01*
X69134472Y-87960150D01*
X69052405Y-87806614D01*
X68941962Y-87672038D01*
X68807386Y-87561595D01*
X68653850Y-87479528D01*
X68487254Y-87428992D01*
X68314000Y-87411928D01*
X66814000Y-87411928D01*
X66640746Y-87428992D01*
X66474150Y-87479528D01*
X66320614Y-87561595D01*
X66186038Y-87672038D01*
X66075595Y-87806614D01*
X65993528Y-87960150D01*
X65942992Y-88126746D01*
X65925928Y-88300000D01*
X65925928Y-89500000D01*
X65942992Y-89673254D01*
X65993528Y-89839850D01*
X66075595Y-89993386D01*
X66186038Y-90127962D01*
X66320614Y-90238405D01*
X66422337Y-90292777D01*
X66358866Y-90344866D01*
X66173294Y-90570986D01*
X66035401Y-90828966D01*
X65950487Y-91108889D01*
X65921815Y-91400000D01*
X61963762Y-91400000D01*
X61979000Y-91323396D01*
X61979000Y-91048604D01*
X61925391Y-90779093D01*
X61820233Y-90525220D01*
X61667567Y-90296739D01*
X61473261Y-90102433D01*
X61244780Y-89949767D01*
X60990907Y-89844609D01*
X60721396Y-89791000D01*
X60446604Y-89791000D01*
X60177093Y-89844609D01*
X59923220Y-89949767D01*
X59694739Y-90102433D01*
X59500433Y-90296739D01*
X59347767Y-90525220D01*
X59314000Y-90606740D01*
X59280233Y-90525220D01*
X59127567Y-90296739D01*
X58933261Y-90102433D01*
X58704780Y-89949767D01*
X58450907Y-89844609D01*
X58181396Y-89791000D01*
X57906604Y-89791000D01*
X57637093Y-89844609D01*
X57383220Y-89949767D01*
X57154739Y-90102433D01*
X56960433Y-90296739D01*
X56807767Y-90525220D01*
X56774000Y-90606740D01*
X56740233Y-90525220D01*
X56587567Y-90296739D01*
X56393261Y-90102433D01*
X56164780Y-89949767D01*
X55910907Y-89844609D01*
X55641396Y-89791000D01*
X55499501Y-89791000D01*
X55524537Y-89760494D01*
X55583502Y-89650180D01*
X55619812Y-89530482D01*
X55628474Y-89442533D01*
X55690433Y-89535261D01*
X55884739Y-89729567D01*
X56113220Y-89882233D01*
X56367093Y-89987391D01*
X56636604Y-90041000D01*
X56911396Y-90041000D01*
X57180907Y-89987391D01*
X57434780Y-89882233D01*
X57663261Y-89729567D01*
X57782691Y-89610137D01*
X58529469Y-89610137D01*
X58596206Y-89850025D01*
X58844892Y-89966924D01*
X59111606Y-90033061D01*
X59386097Y-90045895D01*
X59657817Y-90004931D01*
X59916326Y-89911744D01*
X60031794Y-89850025D01*
X60098531Y-89610137D01*
X59314000Y-88825605D01*
X58529469Y-89610137D01*
X57782691Y-89610137D01*
X57857567Y-89535261D01*
X58010233Y-89306780D01*
X58041830Y-89230499D01*
X58048256Y-89248326D01*
X58109975Y-89363794D01*
X58349863Y-89430531D01*
X59134395Y-88646000D01*
X59493605Y-88646000D01*
X60278137Y-89430531D01*
X60518025Y-89363794D01*
X60634924Y-89115108D01*
X60701061Y-88848394D01*
X60713895Y-88573903D01*
X60672931Y-88302183D01*
X60579744Y-88043674D01*
X60518025Y-87928206D01*
X60278137Y-87861469D01*
X59493605Y-88646000D01*
X59134395Y-88646000D01*
X58349863Y-87861469D01*
X58109975Y-87928206D01*
X58044400Y-88067707D01*
X58010233Y-87985220D01*
X57857567Y-87756739D01*
X57782691Y-87681863D01*
X58529469Y-87681863D01*
X59314000Y-88466395D01*
X60098531Y-87681863D01*
X60031794Y-87441975D01*
X59783108Y-87325076D01*
X59516394Y-87258939D01*
X59241903Y-87246105D01*
X58970183Y-87287069D01*
X58711674Y-87380256D01*
X58596206Y-87441975D01*
X58529469Y-87681863D01*
X57782691Y-87681863D01*
X57663261Y-87562433D01*
X57434780Y-87409767D01*
X57180907Y-87304609D01*
X56911396Y-87251000D01*
X56636604Y-87251000D01*
X56367093Y-87304609D01*
X56113220Y-87409767D01*
X55884739Y-87562433D01*
X55690433Y-87756739D01*
X55628474Y-87849467D01*
X55619812Y-87761518D01*
X55583502Y-87641820D01*
X55524537Y-87531506D01*
X55445185Y-87434815D01*
X55348494Y-87355463D01*
X55238180Y-87296498D01*
X55118482Y-87260188D01*
X54994000Y-87247928D01*
X53910730Y-87247928D01*
X51814000Y-85151199D01*
X51814000Y-84709000D01*
X61296057Y-84709000D01*
X61323764Y-84990309D01*
X61405818Y-85260808D01*
X61539068Y-85510101D01*
X61718392Y-85728608D01*
X61936899Y-85907932D01*
X62186192Y-86041182D01*
X62456691Y-86123236D01*
X62667508Y-86144000D01*
X62808492Y-86144000D01*
X63019309Y-86123236D01*
X63289808Y-86041182D01*
X63539101Y-85907932D01*
X63757608Y-85728608D01*
X63936932Y-85510101D01*
X64008000Y-85377142D01*
X64079068Y-85510101D01*
X64258392Y-85728608D01*
X64476899Y-85907932D01*
X64726192Y-86041182D01*
X64996691Y-86123236D01*
X65207508Y-86144000D01*
X65348492Y-86144000D01*
X65559309Y-86123236D01*
X65829808Y-86041182D01*
X66079101Y-85907932D01*
X66297608Y-85728608D01*
X66476932Y-85510101D01*
X66610182Y-85260808D01*
X66692236Y-84990309D01*
X66719943Y-84709000D01*
X66692236Y-84427691D01*
X66610182Y-84157192D01*
X66476932Y-83907899D01*
X66297608Y-83689392D01*
X66079101Y-83510068D01*
X65829808Y-83376818D01*
X65559309Y-83294764D01*
X65348492Y-83274000D01*
X65207508Y-83274000D01*
X64996691Y-83294764D01*
X64726192Y-83376818D01*
X64476899Y-83510068D01*
X64258392Y-83689392D01*
X64079068Y-83907899D01*
X64008000Y-84040858D01*
X63936932Y-83907899D01*
X63757608Y-83689392D01*
X63539101Y-83510068D01*
X63289808Y-83376818D01*
X63019309Y-83294764D01*
X62808492Y-83274000D01*
X62667508Y-83274000D01*
X62456691Y-83294764D01*
X62186192Y-83376818D01*
X61936899Y-83510068D01*
X61718392Y-83689392D01*
X61539068Y-83907899D01*
X61405818Y-84157192D01*
X61323764Y-84427691D01*
X61296057Y-84709000D01*
X51814000Y-84709000D01*
X51814000Y-77089000D01*
X61296057Y-77089000D01*
X61323764Y-77370309D01*
X61405818Y-77640808D01*
X61539068Y-77890101D01*
X61718392Y-78108608D01*
X61936899Y-78287932D01*
X62186192Y-78421182D01*
X62456691Y-78503236D01*
X62667508Y-78524000D01*
X62808492Y-78524000D01*
X63019309Y-78503236D01*
X63289808Y-78421182D01*
X63539101Y-78287932D01*
X63757608Y-78108608D01*
X63850419Y-77995518D01*
X63852188Y-78013482D01*
X63888498Y-78133180D01*
X63947463Y-78243494D01*
X64026815Y-78340185D01*
X64123506Y-78419537D01*
X64233820Y-78478502D01*
X64353518Y-78514812D01*
X64478000Y-78527072D01*
X66078000Y-78527072D01*
X66202482Y-78514812D01*
X66322180Y-78478502D01*
X66432494Y-78419537D01*
X66529185Y-78340185D01*
X66608537Y-78243494D01*
X66667502Y-78133180D01*
X66703812Y-78013482D01*
X66716072Y-77889000D01*
X66716072Y-76289000D01*
X66703812Y-76164518D01*
X66667502Y-76044820D01*
X66608537Y-75934506D01*
X66529185Y-75837815D01*
X66432494Y-75758463D01*
X66322180Y-75699498D01*
X66202482Y-75663188D01*
X66078000Y-75650928D01*
X64478000Y-75650928D01*
X64353518Y-75663188D01*
X64233820Y-75699498D01*
X64123506Y-75758463D01*
X64026815Y-75837815D01*
X63947463Y-75934506D01*
X63888498Y-76044820D01*
X63852188Y-76164518D01*
X63850419Y-76182482D01*
X63757608Y-76069392D01*
X63539101Y-75890068D01*
X63289808Y-75756818D01*
X63019309Y-75674764D01*
X62808492Y-75654000D01*
X62667508Y-75654000D01*
X62456691Y-75674764D01*
X62186192Y-75756818D01*
X61936899Y-75890068D01*
X61718392Y-76069392D01*
X61539068Y-76287899D01*
X61405818Y-76537192D01*
X61323764Y-76807691D01*
X61296057Y-77089000D01*
X51814000Y-77089000D01*
X51814000Y-71971000D01*
X62569928Y-71971000D01*
X62569928Y-73571000D01*
X62582188Y-73695482D01*
X62618498Y-73815180D01*
X62677463Y-73925494D01*
X62756815Y-74022185D01*
X62853506Y-74101537D01*
X62963820Y-74160502D01*
X63083518Y-74196812D01*
X63208000Y-74209072D01*
X64808000Y-74209072D01*
X64932482Y-74196812D01*
X65052180Y-74160502D01*
X65162494Y-74101537D01*
X65259185Y-74022185D01*
X65338537Y-73925494D01*
X65397502Y-73815180D01*
X65433812Y-73695482D01*
X65435581Y-73677518D01*
X65528392Y-73790608D01*
X65746899Y-73969932D01*
X65996192Y-74103182D01*
X66266691Y-74185236D01*
X66477508Y-74206000D01*
X66618492Y-74206000D01*
X66829309Y-74185236D01*
X67099808Y-74103182D01*
X67349101Y-73969932D01*
X67567608Y-73790608D01*
X67746932Y-73572101D01*
X67880182Y-73322808D01*
X67962236Y-73052309D01*
X67989943Y-72771000D01*
X67962236Y-72489691D01*
X67880182Y-72219192D01*
X67746932Y-71969899D01*
X67567608Y-71751392D01*
X67349101Y-71572068D01*
X67099808Y-71438818D01*
X66829309Y-71356764D01*
X66618492Y-71336000D01*
X66477508Y-71336000D01*
X66266691Y-71356764D01*
X65996192Y-71438818D01*
X65746899Y-71572068D01*
X65528392Y-71751392D01*
X65435581Y-71864482D01*
X65433812Y-71846518D01*
X65397502Y-71726820D01*
X65338537Y-71616506D01*
X65259185Y-71519815D01*
X65162494Y-71440463D01*
X65052180Y-71381498D01*
X64932482Y-71345188D01*
X64808000Y-71332928D01*
X63208000Y-71332928D01*
X63083518Y-71345188D01*
X62963820Y-71381498D01*
X62853506Y-71440463D01*
X62756815Y-71519815D01*
X62677463Y-71616506D01*
X62618498Y-71726820D01*
X62582188Y-71846518D01*
X62569928Y-71971000D01*
X51814000Y-71971000D01*
X51814000Y-67099721D01*
X51967000Y-67099721D01*
X51967000Y-67520279D01*
X52049047Y-67932756D01*
X52209988Y-68321302D01*
X52443637Y-68670983D01*
X52741017Y-68968363D01*
X53090698Y-69202012D01*
X53479244Y-69362953D01*
X53891721Y-69445000D01*
X54312279Y-69445000D01*
X54724756Y-69362953D01*
X55113302Y-69202012D01*
X55462983Y-68968363D01*
X55760363Y-68670983D01*
X55994012Y-68321302D01*
X56154953Y-67932756D01*
X56237000Y-67520279D01*
X56237000Y-67099721D01*
X56154953Y-66687244D01*
X55994012Y-66298698D01*
X55760363Y-65949017D01*
X55621346Y-65810000D01*
X57043928Y-65810000D01*
X57043928Y-68810000D01*
X57056188Y-68934482D01*
X57092498Y-69054180D01*
X57151463Y-69164494D01*
X57230815Y-69261185D01*
X57327506Y-69340537D01*
X57437820Y-69399502D01*
X57557518Y-69435812D01*
X57682000Y-69448072D01*
X60682000Y-69448072D01*
X60806482Y-69435812D01*
X60926180Y-69399502D01*
X61036494Y-69340537D01*
X61133185Y-69261185D01*
X61212537Y-69164494D01*
X61271502Y-69054180D01*
X61307812Y-68934482D01*
X61320072Y-68810000D01*
X61320072Y-65810000D01*
X61307812Y-65685518D01*
X61271502Y-65565820D01*
X61212537Y-65455506D01*
X61133185Y-65358815D01*
X61036494Y-65279463D01*
X60926180Y-65220498D01*
X60806482Y-65184188D01*
X60682000Y-65171928D01*
X57682000Y-65171928D01*
X57557518Y-65184188D01*
X57437820Y-65220498D01*
X57327506Y-65279463D01*
X57230815Y-65358815D01*
X57151463Y-65455506D01*
X57092498Y-65565820D01*
X57056188Y-65685518D01*
X57043928Y-65810000D01*
X55621346Y-65810000D01*
X55462983Y-65651637D01*
X55113302Y-65417988D01*
X54724756Y-65257047D01*
X54312279Y-65175000D01*
X53891721Y-65175000D01*
X53479244Y-65257047D01*
X53090698Y-65417988D01*
X52741017Y-65651637D01*
X52443637Y-65949017D01*
X52209988Y-66298698D01*
X52049047Y-66687244D01*
X51967000Y-67099721D01*
X51814000Y-67099721D01*
X51814000Y-65151000D01*
X62566057Y-65151000D01*
X62593764Y-65432309D01*
X62675818Y-65702808D01*
X62809068Y-65952101D01*
X62988392Y-66170608D01*
X63206899Y-66349932D01*
X63456192Y-66483182D01*
X63726691Y-66565236D01*
X63937508Y-66586000D01*
X64078492Y-66586000D01*
X64289309Y-66565236D01*
X64559808Y-66483182D01*
X64809101Y-66349932D01*
X65027608Y-66170608D01*
X65206932Y-65952101D01*
X65278000Y-65819142D01*
X65349068Y-65952101D01*
X65528392Y-66170608D01*
X65746899Y-66349932D01*
X65996192Y-66483182D01*
X66266691Y-66565236D01*
X66477508Y-66586000D01*
X66618492Y-66586000D01*
X66829309Y-66565236D01*
X67099808Y-66483182D01*
X67349101Y-66349932D01*
X67567608Y-66170608D01*
X67746932Y-65952101D01*
X67880182Y-65702808D01*
X67962236Y-65432309D01*
X67989943Y-65151000D01*
X67962236Y-64869691D01*
X67880182Y-64599192D01*
X67746932Y-64349899D01*
X67567608Y-64131392D01*
X67349101Y-63952068D01*
X67099808Y-63818818D01*
X66829309Y-63736764D01*
X66618492Y-63716000D01*
X66477508Y-63716000D01*
X66266691Y-63736764D01*
X65996192Y-63818818D01*
X65746899Y-63952068D01*
X65528392Y-64131392D01*
X65349068Y-64349899D01*
X65278000Y-64482858D01*
X65206932Y-64349899D01*
X65027608Y-64131392D01*
X64809101Y-63952068D01*
X64559808Y-63818818D01*
X64289309Y-63736764D01*
X64078492Y-63716000D01*
X63937508Y-63716000D01*
X63726691Y-63736764D01*
X63456192Y-63818818D01*
X63206899Y-63952068D01*
X62988392Y-64131392D01*
X62809068Y-64349899D01*
X62675818Y-64599192D01*
X62593764Y-64869691D01*
X62566057Y-65151000D01*
X51814000Y-65151000D01*
X51814000Y-62432137D01*
X54587469Y-62432137D01*
X54654206Y-62672025D01*
X54902892Y-62788924D01*
X55169606Y-62855061D01*
X55444097Y-62867895D01*
X55715817Y-62826931D01*
X55974326Y-62733744D01*
X56089794Y-62672025D01*
X56156531Y-62432137D01*
X55372000Y-61647605D01*
X54587469Y-62432137D01*
X51814000Y-62432137D01*
X51814000Y-61528801D01*
X52384802Y-60958000D01*
X54070298Y-60958000D01*
X54051076Y-60998892D01*
X53984939Y-61265606D01*
X53972105Y-61540097D01*
X54013069Y-61811817D01*
X54106256Y-62070326D01*
X54167975Y-62185794D01*
X54407863Y-62252531D01*
X55192395Y-61468000D01*
X55178252Y-61453858D01*
X55357858Y-61274253D01*
X55372000Y-61288395D01*
X55386143Y-61274253D01*
X55565748Y-61453858D01*
X55551605Y-61468000D01*
X56336137Y-62252531D01*
X56576025Y-62185794D01*
X56641600Y-62046293D01*
X56675767Y-62128780D01*
X56828433Y-62357261D01*
X57022739Y-62551567D01*
X57251220Y-62704233D01*
X57505093Y-62809391D01*
X57774604Y-62863000D01*
X58049396Y-62863000D01*
X58318907Y-62809391D01*
X58572780Y-62704233D01*
X58801261Y-62551567D01*
X58995567Y-62357261D01*
X59057526Y-62264533D01*
X59066188Y-62352482D01*
X59102498Y-62472180D01*
X59161463Y-62582494D01*
X59240815Y-62679185D01*
X59337506Y-62758537D01*
X59447820Y-62817502D01*
X59567518Y-62853812D01*
X59692000Y-62866072D01*
X61212000Y-62866072D01*
X61336482Y-62853812D01*
X61456180Y-62817502D01*
X61566494Y-62758537D01*
X61663185Y-62679185D01*
X61742537Y-62582494D01*
X61801502Y-62472180D01*
X61837812Y-62352482D01*
X61850072Y-62228000D01*
X61850072Y-60920000D01*
X65921815Y-60920000D01*
X65950487Y-61211111D01*
X66035401Y-61491034D01*
X66173294Y-61749014D01*
X66358866Y-61975134D01*
X66584986Y-62160706D01*
X66842966Y-62298599D01*
X67122889Y-62383513D01*
X67341050Y-62405000D01*
X67786950Y-62405000D01*
X68005111Y-62383513D01*
X68285034Y-62298599D01*
X68543014Y-62160706D01*
X68769134Y-61975134D01*
X68954706Y-61749014D01*
X69092599Y-61491034D01*
X69177513Y-61211111D01*
X69206185Y-60920000D01*
X69177513Y-60628889D01*
X69092599Y-60348966D01*
X68954706Y-60090986D01*
X68769134Y-59864866D01*
X68705663Y-59812777D01*
X68807386Y-59758405D01*
X68941962Y-59647962D01*
X69052405Y-59513386D01*
X69134472Y-59359850D01*
X69185008Y-59193254D01*
X69202072Y-59020000D01*
X69202072Y-57820000D01*
X69185008Y-57646746D01*
X69134472Y-57480150D01*
X69052405Y-57326614D01*
X68941962Y-57192038D01*
X68807386Y-57081595D01*
X68653850Y-56999528D01*
X68487254Y-56948992D01*
X68314000Y-56931928D01*
X66814000Y-56931928D01*
X66640746Y-56948992D01*
X66474150Y-56999528D01*
X66320614Y-57081595D01*
X66186038Y-57192038D01*
X66075595Y-57326614D01*
X65993528Y-57480150D01*
X65942992Y-57646746D01*
X65925928Y-57820000D01*
X65925928Y-59020000D01*
X65942992Y-59193254D01*
X65993528Y-59359850D01*
X66075595Y-59513386D01*
X66186038Y-59647962D01*
X66320614Y-59758405D01*
X66422337Y-59812777D01*
X66358866Y-59864866D01*
X66173294Y-60090986D01*
X66035401Y-60348966D01*
X65950487Y-60628889D01*
X65921815Y-60920000D01*
X61850072Y-60920000D01*
X61850072Y-60708000D01*
X61837812Y-60583518D01*
X61801502Y-60463820D01*
X61742537Y-60353506D01*
X61663185Y-60256815D01*
X61566494Y-60177463D01*
X61456180Y-60118498D01*
X61336482Y-60082188D01*
X61212000Y-60069928D01*
X60128729Y-60069928D01*
X60070726Y-60011925D01*
X60071261Y-60011567D01*
X60265567Y-59817261D01*
X60418233Y-59588780D01*
X60523391Y-59334907D01*
X60577000Y-59065396D01*
X60577000Y-58790604D01*
X60523391Y-58521093D01*
X60418233Y-58267220D01*
X60265567Y-58038739D01*
X60071261Y-57844433D01*
X59842780Y-57691767D01*
X59588907Y-57586609D01*
X59319396Y-57533000D01*
X59044604Y-57533000D01*
X58775093Y-57586609D01*
X58521220Y-57691767D01*
X58292739Y-57844433D01*
X58098433Y-58038739D01*
X57945767Y-58267220D01*
X57912000Y-58348740D01*
X57878233Y-58267220D01*
X57725567Y-58038739D01*
X57531261Y-57844433D01*
X57302780Y-57691767D01*
X57048907Y-57586609D01*
X56779396Y-57533000D01*
X56504604Y-57533000D01*
X56235093Y-57586609D01*
X55981220Y-57691767D01*
X55752739Y-57844433D01*
X55558433Y-58038739D01*
X55405767Y-58267220D01*
X55372000Y-58348740D01*
X55338233Y-58267220D01*
X55185567Y-58038739D01*
X54991261Y-57844433D01*
X54762780Y-57691767D01*
X54508907Y-57586609D01*
X54239396Y-57533000D01*
X53964604Y-57533000D01*
X53695093Y-57586609D01*
X53441220Y-57691767D01*
X53212739Y-57844433D01*
X53018433Y-58038739D01*
X52932064Y-58168000D01*
X52615323Y-58168000D01*
X52578000Y-58164324D01*
X52540677Y-58168000D01*
X52540667Y-58168000D01*
X52429014Y-58178997D01*
X52285753Y-58222454D01*
X52153723Y-58293026D01*
X52070083Y-58361668D01*
X52037999Y-58387999D01*
X52014201Y-58416997D01*
X50695000Y-59736199D01*
X50695000Y-54267122D01*
X50761334Y-54333456D01*
X51131489Y-54580786D01*
X51542782Y-54751149D01*
X51979409Y-54838000D01*
X52424591Y-54838000D01*
X52861218Y-54751149D01*
X53272511Y-54580786D01*
X53642666Y-54333456D01*
X53957456Y-54018666D01*
X54204786Y-53648511D01*
X54375149Y-53237218D01*
X54462000Y-52800591D01*
X54462000Y-52355409D01*
X54375149Y-51918782D01*
X54204786Y-51507489D01*
X53957456Y-51137334D01*
X53642666Y-50822544D01*
X53451783Y-50695000D01*
X61112217Y-50695000D01*
X60921334Y-50822544D01*
X60921334Y-50822544D01*
G37*
X60921334Y-50822544D02*
X60606544Y-51137334D01*
X60359214Y-51507489D01*
X60188851Y-51918782D01*
X60102000Y-52355409D01*
X60102000Y-52800591D01*
X60188851Y-53237218D01*
X60359214Y-53648511D01*
X60606544Y-54018666D01*
X60921334Y-54333456D01*
X61291489Y-54580786D01*
X61702782Y-54751149D01*
X62139409Y-54838000D01*
X62584591Y-54838000D01*
X63021218Y-54751149D01*
X63432511Y-54580786D01*
X63802666Y-54333456D01*
X64117456Y-54018666D01*
X64364786Y-53648511D01*
X64535149Y-53237218D01*
X64622000Y-52800591D01*
X64622000Y-52355409D01*
X64535149Y-51918782D01*
X64364786Y-51507489D01*
X64117456Y-51137334D01*
X63802666Y-50822544D01*
X63611783Y-50695000D01*
X69305001Y-50695000D01*
X69305000Y-99305000D01*
X63904396Y-99305000D01*
X63924666Y-99291456D01*
X64239456Y-98976666D01*
X64486786Y-98606511D01*
X64657149Y-98195218D01*
X64744000Y-97758591D01*
X64744000Y-97313409D01*
X64657149Y-96876782D01*
X64486786Y-96465489D01*
X64239456Y-96095334D01*
X63924666Y-95780544D01*
X63554511Y-95533214D01*
X63143218Y-95362851D01*
X62706591Y-95276000D01*
X62261409Y-95276000D01*
X61824782Y-95362851D01*
X61413489Y-95533214D01*
X61043334Y-95780544D01*
X60728544Y-96095334D01*
X60481214Y-96465489D01*
X60310851Y-96876782D01*
X60224000Y-97313409D01*
X60224000Y-97758591D01*
X60310851Y-98195218D01*
X60481214Y-98606511D01*
X60728544Y-98976666D01*
X61043334Y-99291456D01*
X61063604Y-99305000D01*
X53744396Y-99305000D01*
X53764666Y-99291456D01*
X54079456Y-98976666D01*
X54326786Y-98606511D01*
X54497149Y-98195218D01*
X54584000Y-97758591D01*
X54584000Y-97313409D01*
X54497149Y-96876782D01*
X54326786Y-96465489D01*
X54079456Y-96095334D01*
X53764666Y-95780544D01*
X53394511Y-95533214D01*
X52983218Y-95362851D01*
X52546591Y-95276000D01*
X52101409Y-95276000D01*
X51664782Y-95362851D01*
X51253489Y-95533214D01*
X50883334Y-95780544D01*
X50695000Y-95968878D01*
X50695000Y-91647802D01*
X52522205Y-93475008D01*
X52545999Y-93504001D01*
X52574992Y-93527795D01*
X52574996Y-93527799D01*
X52645685Y-93585811D01*
X52661724Y-93598974D01*
X52793753Y-93669546D01*
X52937014Y-93713003D01*
X53048667Y-93724000D01*
X53048676Y-93724000D01*
X53085999Y-93727676D01*
X53123322Y-93724000D01*
X58768678Y-93724000D01*
X58806000Y-93727676D01*
X58843322Y-93724000D01*
X58843333Y-93724000D01*
X58954986Y-93713003D01*
X59098247Y-93669546D01*
X59230276Y-93598974D01*
X59346001Y-93504001D01*
X59369804Y-93474997D01*
X60294130Y-92550671D01*
X60446604Y-92581000D01*
X60721396Y-92581000D01*
X60990907Y-92527391D01*
X61244780Y-92422233D01*
X61473261Y-92269567D01*
X61667567Y-92075261D01*
X61820233Y-91846780D01*
X61925391Y-91592907D01*
X61963762Y-91400000D01*
X65921815Y-91400000D01*
X65950487Y-91691111D01*
X66035401Y-91971034D01*
X66173294Y-92229014D01*
X66358866Y-92455134D01*
X66584986Y-92640706D01*
X66842966Y-92778599D01*
X67122889Y-92863513D01*
X67341050Y-92885000D01*
X67786950Y-92885000D01*
X68005111Y-92863513D01*
X68285034Y-92778599D01*
X68543014Y-92640706D01*
X68769134Y-92455134D01*
X68954706Y-92229014D01*
X69092599Y-91971034D01*
X69177513Y-91691111D01*
X69206185Y-91400000D01*
X69177513Y-91108889D01*
X69092599Y-90828966D01*
X68954706Y-90570986D01*
X68769134Y-90344866D01*
X68705663Y-90292777D01*
X68807386Y-90238405D01*
X68941962Y-90127962D01*
X69052405Y-89993386D01*
X69134472Y-89839850D01*
X69185008Y-89673254D01*
X69202072Y-89500000D01*
X69202072Y-88300000D01*
X69185008Y-88126746D01*
X69134472Y-87960150D01*
X69052405Y-87806614D01*
X68941962Y-87672038D01*
X68807386Y-87561595D01*
X68653850Y-87479528D01*
X68487254Y-87428992D01*
X68314000Y-87411928D01*
X66814000Y-87411928D01*
X66640746Y-87428992D01*
X66474150Y-87479528D01*
X66320614Y-87561595D01*
X66186038Y-87672038D01*
X66075595Y-87806614D01*
X65993528Y-87960150D01*
X65942992Y-88126746D01*
X65925928Y-88300000D01*
X65925928Y-89500000D01*
X65942992Y-89673254D01*
X65993528Y-89839850D01*
X66075595Y-89993386D01*
X66186038Y-90127962D01*
X66320614Y-90238405D01*
X66422337Y-90292777D01*
X66358866Y-90344866D01*
X66173294Y-90570986D01*
X66035401Y-90828966D01*
X65950487Y-91108889D01*
X65921815Y-91400000D01*
X61963762Y-91400000D01*
X61979000Y-91323396D01*
X61979000Y-91048604D01*
X61925391Y-90779093D01*
X61820233Y-90525220D01*
X61667567Y-90296739D01*
X61473261Y-90102433D01*
X61244780Y-89949767D01*
X60990907Y-89844609D01*
X60721396Y-89791000D01*
X60446604Y-89791000D01*
X60177093Y-89844609D01*
X59923220Y-89949767D01*
X59694739Y-90102433D01*
X59500433Y-90296739D01*
X59347767Y-90525220D01*
X59314000Y-90606740D01*
X59280233Y-90525220D01*
X59127567Y-90296739D01*
X58933261Y-90102433D01*
X58704780Y-89949767D01*
X58450907Y-89844609D01*
X58181396Y-89791000D01*
X57906604Y-89791000D01*
X57637093Y-89844609D01*
X57383220Y-89949767D01*
X57154739Y-90102433D01*
X56960433Y-90296739D01*
X56807767Y-90525220D01*
X56774000Y-90606740D01*
X56740233Y-90525220D01*
X56587567Y-90296739D01*
X56393261Y-90102433D01*
X56164780Y-89949767D01*
X55910907Y-89844609D01*
X55641396Y-89791000D01*
X55499501Y-89791000D01*
X55524537Y-89760494D01*
X55583502Y-89650180D01*
X55619812Y-89530482D01*
X55628474Y-89442533D01*
X55690433Y-89535261D01*
X55884739Y-89729567D01*
X56113220Y-89882233D01*
X56367093Y-89987391D01*
X56636604Y-90041000D01*
X56911396Y-90041000D01*
X57180907Y-89987391D01*
X57434780Y-89882233D01*
X57663261Y-89729567D01*
X57782691Y-89610137D01*
X58529469Y-89610137D01*
X58596206Y-89850025D01*
X58844892Y-89966924D01*
X59111606Y-90033061D01*
X59386097Y-90045895D01*
X59657817Y-90004931D01*
X59916326Y-89911744D01*
X60031794Y-89850025D01*
X60098531Y-89610137D01*
X59314000Y-88825605D01*
X58529469Y-89610137D01*
X57782691Y-89610137D01*
X57857567Y-89535261D01*
X58010233Y-89306780D01*
X58041830Y-89230499D01*
X58048256Y-89248326D01*
X58109975Y-89363794D01*
X58349863Y-89430531D01*
X59134395Y-88646000D01*
X59493605Y-88646000D01*
X60278137Y-89430531D01*
X60518025Y-89363794D01*
X60634924Y-89115108D01*
X60701061Y-88848394D01*
X60713895Y-88573903D01*
X60672931Y-88302183D01*
X60579744Y-88043674D01*
X60518025Y-87928206D01*
X60278137Y-87861469D01*
X59493605Y-88646000D01*
X59134395Y-88646000D01*
X58349863Y-87861469D01*
X58109975Y-87928206D01*
X58044400Y-88067707D01*
X58010233Y-87985220D01*
X57857567Y-87756739D01*
X57782691Y-87681863D01*
X58529469Y-87681863D01*
X59314000Y-88466395D01*
X60098531Y-87681863D01*
X60031794Y-87441975D01*
X59783108Y-87325076D01*
X59516394Y-87258939D01*
X59241903Y-87246105D01*
X58970183Y-87287069D01*
X58711674Y-87380256D01*
X58596206Y-87441975D01*
X58529469Y-87681863D01*
X57782691Y-87681863D01*
X57663261Y-87562433D01*
X57434780Y-87409767D01*
X57180907Y-87304609D01*
X56911396Y-87251000D01*
X56636604Y-87251000D01*
X56367093Y-87304609D01*
X56113220Y-87409767D01*
X55884739Y-87562433D01*
X55690433Y-87756739D01*
X55628474Y-87849467D01*
X55619812Y-87761518D01*
X55583502Y-87641820D01*
X55524537Y-87531506D01*
X55445185Y-87434815D01*
X55348494Y-87355463D01*
X55238180Y-87296498D01*
X55118482Y-87260188D01*
X54994000Y-87247928D01*
X53910730Y-87247928D01*
X51814000Y-85151199D01*
X51814000Y-84709000D01*
X61296057Y-84709000D01*
X61323764Y-84990309D01*
X61405818Y-85260808D01*
X61539068Y-85510101D01*
X61718392Y-85728608D01*
X61936899Y-85907932D01*
X62186192Y-86041182D01*
X62456691Y-86123236D01*
X62667508Y-86144000D01*
X62808492Y-86144000D01*
X63019309Y-86123236D01*
X63289808Y-86041182D01*
X63539101Y-85907932D01*
X63757608Y-85728608D01*
X63936932Y-85510101D01*
X64008000Y-85377142D01*
X64079068Y-85510101D01*
X64258392Y-85728608D01*
X64476899Y-85907932D01*
X64726192Y-86041182D01*
X64996691Y-86123236D01*
X65207508Y-86144000D01*
X65348492Y-86144000D01*
X65559309Y-86123236D01*
X65829808Y-86041182D01*
X66079101Y-85907932D01*
X66297608Y-85728608D01*
X66476932Y-85510101D01*
X66610182Y-85260808D01*
X66692236Y-84990309D01*
X66719943Y-84709000D01*
X66692236Y-84427691D01*
X66610182Y-84157192D01*
X66476932Y-83907899D01*
X66297608Y-83689392D01*
X66079101Y-83510068D01*
X65829808Y-83376818D01*
X65559309Y-83294764D01*
X65348492Y-83274000D01*
X65207508Y-83274000D01*
X64996691Y-83294764D01*
X64726192Y-83376818D01*
X64476899Y-83510068D01*
X64258392Y-83689392D01*
X64079068Y-83907899D01*
X64008000Y-84040858D01*
X63936932Y-83907899D01*
X63757608Y-83689392D01*
X63539101Y-83510068D01*
X63289808Y-83376818D01*
X63019309Y-83294764D01*
X62808492Y-83274000D01*
X62667508Y-83274000D01*
X62456691Y-83294764D01*
X62186192Y-83376818D01*
X61936899Y-83510068D01*
X61718392Y-83689392D01*
X61539068Y-83907899D01*
X61405818Y-84157192D01*
X61323764Y-84427691D01*
X61296057Y-84709000D01*
X51814000Y-84709000D01*
X51814000Y-77089000D01*
X61296057Y-77089000D01*
X61323764Y-77370309D01*
X61405818Y-77640808D01*
X61539068Y-77890101D01*
X61718392Y-78108608D01*
X61936899Y-78287932D01*
X62186192Y-78421182D01*
X62456691Y-78503236D01*
X62667508Y-78524000D01*
X62808492Y-78524000D01*
X63019309Y-78503236D01*
X63289808Y-78421182D01*
X63539101Y-78287932D01*
X63757608Y-78108608D01*
X63850419Y-77995518D01*
X63852188Y-78013482D01*
X63888498Y-78133180D01*
X63947463Y-78243494D01*
X64026815Y-78340185D01*
X64123506Y-78419537D01*
X64233820Y-78478502D01*
X64353518Y-78514812D01*
X64478000Y-78527072D01*
X66078000Y-78527072D01*
X66202482Y-78514812D01*
X66322180Y-78478502D01*
X66432494Y-78419537D01*
X66529185Y-78340185D01*
X66608537Y-78243494D01*
X66667502Y-78133180D01*
X66703812Y-78013482D01*
X66716072Y-77889000D01*
X66716072Y-76289000D01*
X66703812Y-76164518D01*
X66667502Y-76044820D01*
X66608537Y-75934506D01*
X66529185Y-75837815D01*
X66432494Y-75758463D01*
X66322180Y-75699498D01*
X66202482Y-75663188D01*
X66078000Y-75650928D01*
X64478000Y-75650928D01*
X64353518Y-75663188D01*
X64233820Y-75699498D01*
X64123506Y-75758463D01*
X64026815Y-75837815D01*
X63947463Y-75934506D01*
X63888498Y-76044820D01*
X63852188Y-76164518D01*
X63850419Y-76182482D01*
X63757608Y-76069392D01*
X63539101Y-75890068D01*
X63289808Y-75756818D01*
X63019309Y-75674764D01*
X62808492Y-75654000D01*
X62667508Y-75654000D01*
X62456691Y-75674764D01*
X62186192Y-75756818D01*
X61936899Y-75890068D01*
X61718392Y-76069392D01*
X61539068Y-76287899D01*
X61405818Y-76537192D01*
X61323764Y-76807691D01*
X61296057Y-77089000D01*
X51814000Y-77089000D01*
X51814000Y-71971000D01*
X62569928Y-71971000D01*
X62569928Y-73571000D01*
X62582188Y-73695482D01*
X62618498Y-73815180D01*
X62677463Y-73925494D01*
X62756815Y-74022185D01*
X62853506Y-74101537D01*
X62963820Y-74160502D01*
X63083518Y-74196812D01*
X63208000Y-74209072D01*
X64808000Y-74209072D01*
X64932482Y-74196812D01*
X65052180Y-74160502D01*
X65162494Y-74101537D01*
X65259185Y-74022185D01*
X65338537Y-73925494D01*
X65397502Y-73815180D01*
X65433812Y-73695482D01*
X65435581Y-73677518D01*
X65528392Y-73790608D01*
X65746899Y-73969932D01*
X65996192Y-74103182D01*
X66266691Y-74185236D01*
X66477508Y-74206000D01*
X66618492Y-74206000D01*
X66829309Y-74185236D01*
X67099808Y-74103182D01*
X67349101Y-73969932D01*
X67567608Y-73790608D01*
X67746932Y-73572101D01*
X67880182Y-73322808D01*
X67962236Y-73052309D01*
X67989943Y-72771000D01*
X67962236Y-72489691D01*
X67880182Y-72219192D01*
X67746932Y-71969899D01*
X67567608Y-71751392D01*
X67349101Y-71572068D01*
X67099808Y-71438818D01*
X66829309Y-71356764D01*
X66618492Y-71336000D01*
X66477508Y-71336000D01*
X66266691Y-71356764D01*
X65996192Y-71438818D01*
X65746899Y-71572068D01*
X65528392Y-71751392D01*
X65435581Y-71864482D01*
X65433812Y-71846518D01*
X65397502Y-71726820D01*
X65338537Y-71616506D01*
X65259185Y-71519815D01*
X65162494Y-71440463D01*
X65052180Y-71381498D01*
X64932482Y-71345188D01*
X64808000Y-71332928D01*
X63208000Y-71332928D01*
X63083518Y-71345188D01*
X62963820Y-71381498D01*
X62853506Y-71440463D01*
X62756815Y-71519815D01*
X62677463Y-71616506D01*
X62618498Y-71726820D01*
X62582188Y-71846518D01*
X62569928Y-71971000D01*
X51814000Y-71971000D01*
X51814000Y-67099721D01*
X51967000Y-67099721D01*
X51967000Y-67520279D01*
X52049047Y-67932756D01*
X52209988Y-68321302D01*
X52443637Y-68670983D01*
X52741017Y-68968363D01*
X53090698Y-69202012D01*
X53479244Y-69362953D01*
X53891721Y-69445000D01*
X54312279Y-69445000D01*
X54724756Y-69362953D01*
X55113302Y-69202012D01*
X55462983Y-68968363D01*
X55760363Y-68670983D01*
X55994012Y-68321302D01*
X56154953Y-67932756D01*
X56237000Y-67520279D01*
X56237000Y-67099721D01*
X56154953Y-66687244D01*
X55994012Y-66298698D01*
X55760363Y-65949017D01*
X55621346Y-65810000D01*
X57043928Y-65810000D01*
X57043928Y-68810000D01*
X57056188Y-68934482D01*
X57092498Y-69054180D01*
X57151463Y-69164494D01*
X57230815Y-69261185D01*
X57327506Y-69340537D01*
X57437820Y-69399502D01*
X57557518Y-69435812D01*
X57682000Y-69448072D01*
X60682000Y-69448072D01*
X60806482Y-69435812D01*
X60926180Y-69399502D01*
X61036494Y-69340537D01*
X61133185Y-69261185D01*
X61212537Y-69164494D01*
X61271502Y-69054180D01*
X61307812Y-68934482D01*
X61320072Y-68810000D01*
X61320072Y-65810000D01*
X61307812Y-65685518D01*
X61271502Y-65565820D01*
X61212537Y-65455506D01*
X61133185Y-65358815D01*
X61036494Y-65279463D01*
X60926180Y-65220498D01*
X60806482Y-65184188D01*
X60682000Y-65171928D01*
X57682000Y-65171928D01*
X57557518Y-65184188D01*
X57437820Y-65220498D01*
X57327506Y-65279463D01*
X57230815Y-65358815D01*
X57151463Y-65455506D01*
X57092498Y-65565820D01*
X57056188Y-65685518D01*
X57043928Y-65810000D01*
X55621346Y-65810000D01*
X55462983Y-65651637D01*
X55113302Y-65417988D01*
X54724756Y-65257047D01*
X54312279Y-65175000D01*
X53891721Y-65175000D01*
X53479244Y-65257047D01*
X53090698Y-65417988D01*
X52741017Y-65651637D01*
X52443637Y-65949017D01*
X52209988Y-66298698D01*
X52049047Y-66687244D01*
X51967000Y-67099721D01*
X51814000Y-67099721D01*
X51814000Y-65151000D01*
X62566057Y-65151000D01*
X62593764Y-65432309D01*
X62675818Y-65702808D01*
X62809068Y-65952101D01*
X62988392Y-66170608D01*
X63206899Y-66349932D01*
X63456192Y-66483182D01*
X63726691Y-66565236D01*
X63937508Y-66586000D01*
X64078492Y-66586000D01*
X64289309Y-66565236D01*
X64559808Y-66483182D01*
X64809101Y-66349932D01*
X65027608Y-66170608D01*
X65206932Y-65952101D01*
X65278000Y-65819142D01*
X65349068Y-65952101D01*
X65528392Y-66170608D01*
X65746899Y-66349932D01*
X65996192Y-66483182D01*
X66266691Y-66565236D01*
X66477508Y-66586000D01*
X66618492Y-66586000D01*
X66829309Y-66565236D01*
X67099808Y-66483182D01*
X67349101Y-66349932D01*
X67567608Y-66170608D01*
X67746932Y-65952101D01*
X67880182Y-65702808D01*
X67962236Y-65432309D01*
X67989943Y-65151000D01*
X67962236Y-64869691D01*
X67880182Y-64599192D01*
X67746932Y-64349899D01*
X67567608Y-64131392D01*
X67349101Y-63952068D01*
X67099808Y-63818818D01*
X66829309Y-63736764D01*
X66618492Y-63716000D01*
X66477508Y-63716000D01*
X66266691Y-63736764D01*
X65996192Y-63818818D01*
X65746899Y-63952068D01*
X65528392Y-64131392D01*
X65349068Y-64349899D01*
X65278000Y-64482858D01*
X65206932Y-64349899D01*
X65027608Y-64131392D01*
X64809101Y-63952068D01*
X64559808Y-63818818D01*
X64289309Y-63736764D01*
X64078492Y-63716000D01*
X63937508Y-63716000D01*
X63726691Y-63736764D01*
X63456192Y-63818818D01*
X63206899Y-63952068D01*
X62988392Y-64131392D01*
X62809068Y-64349899D01*
X62675818Y-64599192D01*
X62593764Y-64869691D01*
X62566057Y-65151000D01*
X51814000Y-65151000D01*
X51814000Y-62432137D01*
X54587469Y-62432137D01*
X54654206Y-62672025D01*
X54902892Y-62788924D01*
X55169606Y-62855061D01*
X55444097Y-62867895D01*
X55715817Y-62826931D01*
X55974326Y-62733744D01*
X56089794Y-62672025D01*
X56156531Y-62432137D01*
X55372000Y-61647605D01*
X54587469Y-62432137D01*
X51814000Y-62432137D01*
X51814000Y-61528801D01*
X52384802Y-60958000D01*
X54070298Y-60958000D01*
X54051076Y-60998892D01*
X53984939Y-61265606D01*
X53972105Y-61540097D01*
X54013069Y-61811817D01*
X54106256Y-62070326D01*
X54167975Y-62185794D01*
X54407863Y-62252531D01*
X55192395Y-61468000D01*
X55178252Y-61453858D01*
X55357858Y-61274253D01*
X55372000Y-61288395D01*
X55386143Y-61274253D01*
X55565748Y-61453858D01*
X55551605Y-61468000D01*
X56336137Y-62252531D01*
X56576025Y-62185794D01*
X56641600Y-62046293D01*
X56675767Y-62128780D01*
X56828433Y-62357261D01*
X57022739Y-62551567D01*
X57251220Y-62704233D01*
X57505093Y-62809391D01*
X57774604Y-62863000D01*
X58049396Y-62863000D01*
X58318907Y-62809391D01*
X58572780Y-62704233D01*
X58801261Y-62551567D01*
X58995567Y-62357261D01*
X59057526Y-62264533D01*
X59066188Y-62352482D01*
X59102498Y-62472180D01*
X59161463Y-62582494D01*
X59240815Y-62679185D01*
X59337506Y-62758537D01*
X59447820Y-62817502D01*
X59567518Y-62853812D01*
X59692000Y-62866072D01*
X61212000Y-62866072D01*
X61336482Y-62853812D01*
X61456180Y-62817502D01*
X61566494Y-62758537D01*
X61663185Y-62679185D01*
X61742537Y-62582494D01*
X61801502Y-62472180D01*
X61837812Y-62352482D01*
X61850072Y-62228000D01*
X61850072Y-60920000D01*
X65921815Y-60920000D01*
X65950487Y-61211111D01*
X66035401Y-61491034D01*
X66173294Y-61749014D01*
X66358866Y-61975134D01*
X66584986Y-62160706D01*
X66842966Y-62298599D01*
X67122889Y-62383513D01*
X67341050Y-62405000D01*
X67786950Y-62405000D01*
X68005111Y-62383513D01*
X68285034Y-62298599D01*
X68543014Y-62160706D01*
X68769134Y-61975134D01*
X68954706Y-61749014D01*
X69092599Y-61491034D01*
X69177513Y-61211111D01*
X69206185Y-60920000D01*
X69177513Y-60628889D01*
X69092599Y-60348966D01*
X68954706Y-60090986D01*
X68769134Y-59864866D01*
X68705663Y-59812777D01*
X68807386Y-59758405D01*
X68941962Y-59647962D01*
X69052405Y-59513386D01*
X69134472Y-59359850D01*
X69185008Y-59193254D01*
X69202072Y-59020000D01*
X69202072Y-57820000D01*
X69185008Y-57646746D01*
X69134472Y-57480150D01*
X69052405Y-57326614D01*
X68941962Y-57192038D01*
X68807386Y-57081595D01*
X68653850Y-56999528D01*
X68487254Y-56948992D01*
X68314000Y-56931928D01*
X66814000Y-56931928D01*
X66640746Y-56948992D01*
X66474150Y-56999528D01*
X66320614Y-57081595D01*
X66186038Y-57192038D01*
X66075595Y-57326614D01*
X65993528Y-57480150D01*
X65942992Y-57646746D01*
X65925928Y-57820000D01*
X65925928Y-59020000D01*
X65942992Y-59193254D01*
X65993528Y-59359850D01*
X66075595Y-59513386D01*
X66186038Y-59647962D01*
X66320614Y-59758405D01*
X66422337Y-59812777D01*
X66358866Y-59864866D01*
X66173294Y-60090986D01*
X66035401Y-60348966D01*
X65950487Y-60628889D01*
X65921815Y-60920000D01*
X61850072Y-60920000D01*
X61850072Y-60708000D01*
X61837812Y-60583518D01*
X61801502Y-60463820D01*
X61742537Y-60353506D01*
X61663185Y-60256815D01*
X61566494Y-60177463D01*
X61456180Y-60118498D01*
X61336482Y-60082188D01*
X61212000Y-60069928D01*
X60128729Y-60069928D01*
X60070726Y-60011925D01*
X60071261Y-60011567D01*
X60265567Y-59817261D01*
X60418233Y-59588780D01*
X60523391Y-59334907D01*
X60577000Y-59065396D01*
X60577000Y-58790604D01*
X60523391Y-58521093D01*
X60418233Y-58267220D01*
X60265567Y-58038739D01*
X60071261Y-57844433D01*
X59842780Y-57691767D01*
X59588907Y-57586609D01*
X59319396Y-57533000D01*
X59044604Y-57533000D01*
X58775093Y-57586609D01*
X58521220Y-57691767D01*
X58292739Y-57844433D01*
X58098433Y-58038739D01*
X57945767Y-58267220D01*
X57912000Y-58348740D01*
X57878233Y-58267220D01*
X57725567Y-58038739D01*
X57531261Y-57844433D01*
X57302780Y-57691767D01*
X57048907Y-57586609D01*
X56779396Y-57533000D01*
X56504604Y-57533000D01*
X56235093Y-57586609D01*
X55981220Y-57691767D01*
X55752739Y-57844433D01*
X55558433Y-58038739D01*
X55405767Y-58267220D01*
X55372000Y-58348740D01*
X55338233Y-58267220D01*
X55185567Y-58038739D01*
X54991261Y-57844433D01*
X54762780Y-57691767D01*
X54508907Y-57586609D01*
X54239396Y-57533000D01*
X53964604Y-57533000D01*
X53695093Y-57586609D01*
X53441220Y-57691767D01*
X53212739Y-57844433D01*
X53018433Y-58038739D01*
X52932064Y-58168000D01*
X52615323Y-58168000D01*
X52578000Y-58164324D01*
X52540677Y-58168000D01*
X52540667Y-58168000D01*
X52429014Y-58178997D01*
X52285753Y-58222454D01*
X52153723Y-58293026D01*
X52070083Y-58361668D01*
X52037999Y-58387999D01*
X52014201Y-58416997D01*
X50695000Y-59736199D01*
X50695000Y-54267122D01*
X50761334Y-54333456D01*
X51131489Y-54580786D01*
X51542782Y-54751149D01*
X51979409Y-54838000D01*
X52424591Y-54838000D01*
X52861218Y-54751149D01*
X53272511Y-54580786D01*
X53642666Y-54333456D01*
X53957456Y-54018666D01*
X54204786Y-53648511D01*
X54375149Y-53237218D01*
X54462000Y-52800591D01*
X54462000Y-52355409D01*
X54375149Y-51918782D01*
X54204786Y-51507489D01*
X53957456Y-51137334D01*
X53642666Y-50822544D01*
X53451783Y-50695000D01*
X61112217Y-50695000D01*
X60921334Y-50822544D01*
M02*
