G04 #@! TF.GenerationSoftware,KiCad,Pcbnew,(5.1.0)-1*
G04 #@! TF.CreationDate,2019-09-10T00:52:53+02:00*
G04 #@! TF.ProjectId,big_button_v1,6269675f-6275-4747-946f-6e5f76312e6b,rev?*
G04 #@! TF.SameCoordinates,Original*
G04 #@! TF.FileFunction,Paste,Bot*
G04 #@! TF.FilePolarity,Positive*
%FSLAX46Y46*%
G04 Gerber Fmt 4.6, Leading zero omitted, Abs format (unit mm)*
G04 Created by KiCad (PCBNEW (5.1.0)-1) date 2019-09-10 00:52:53*
%MOMM*%
%LPD*%
G04 APERTURE LIST*
%ADD10R,0.650000X1.060000*%
%ADD11C,0.100000*%
%ADD12C,1.150000*%
%ADD13C,1.676868*%
G04 APERTURE END LIST*
D10*
X140396000Y-88010000D03*
X138496000Y-88010000D03*
X138496000Y-90210000D03*
X139446000Y-90210000D03*
X140396000Y-90210000D03*
D11*
G36*
X138904505Y-83228204D02*
G01*
X138928773Y-83231804D01*
X138952572Y-83237765D01*
X138975671Y-83246030D01*
X138997850Y-83256520D01*
X139018893Y-83269132D01*
X139038599Y-83283747D01*
X139056777Y-83300223D01*
X139073253Y-83318401D01*
X139087868Y-83338107D01*
X139100480Y-83359150D01*
X139110970Y-83381329D01*
X139119235Y-83404428D01*
X139125196Y-83428227D01*
X139128796Y-83452495D01*
X139130000Y-83476999D01*
X139130000Y-84127001D01*
X139128796Y-84151505D01*
X139125196Y-84175773D01*
X139119235Y-84199572D01*
X139110970Y-84222671D01*
X139100480Y-84244850D01*
X139087868Y-84265893D01*
X139073253Y-84285599D01*
X139056777Y-84303777D01*
X139038599Y-84320253D01*
X139018893Y-84334868D01*
X138997850Y-84347480D01*
X138975671Y-84357970D01*
X138952572Y-84366235D01*
X138928773Y-84372196D01*
X138904505Y-84375796D01*
X138880001Y-84377000D01*
X137979999Y-84377000D01*
X137955495Y-84375796D01*
X137931227Y-84372196D01*
X137907428Y-84366235D01*
X137884329Y-84357970D01*
X137862150Y-84347480D01*
X137841107Y-84334868D01*
X137821401Y-84320253D01*
X137803223Y-84303777D01*
X137786747Y-84285599D01*
X137772132Y-84265893D01*
X137759520Y-84244850D01*
X137749030Y-84222671D01*
X137740765Y-84199572D01*
X137734804Y-84175773D01*
X137731204Y-84151505D01*
X137730000Y-84127001D01*
X137730000Y-83476999D01*
X137731204Y-83452495D01*
X137734804Y-83428227D01*
X137740765Y-83404428D01*
X137749030Y-83381329D01*
X137759520Y-83359150D01*
X137772132Y-83338107D01*
X137786747Y-83318401D01*
X137803223Y-83300223D01*
X137821401Y-83283747D01*
X137841107Y-83269132D01*
X137862150Y-83256520D01*
X137884329Y-83246030D01*
X137907428Y-83237765D01*
X137931227Y-83231804D01*
X137955495Y-83228204D01*
X137979999Y-83227000D01*
X138880001Y-83227000D01*
X138904505Y-83228204D01*
X138904505Y-83228204D01*
G37*
D12*
X138430000Y-83802000D03*
D11*
G36*
X138904505Y-85278204D02*
G01*
X138928773Y-85281804D01*
X138952572Y-85287765D01*
X138975671Y-85296030D01*
X138997850Y-85306520D01*
X139018893Y-85319132D01*
X139038599Y-85333747D01*
X139056777Y-85350223D01*
X139073253Y-85368401D01*
X139087868Y-85388107D01*
X139100480Y-85409150D01*
X139110970Y-85431329D01*
X139119235Y-85454428D01*
X139125196Y-85478227D01*
X139128796Y-85502495D01*
X139130000Y-85526999D01*
X139130000Y-86177001D01*
X139128796Y-86201505D01*
X139125196Y-86225773D01*
X139119235Y-86249572D01*
X139110970Y-86272671D01*
X139100480Y-86294850D01*
X139087868Y-86315893D01*
X139073253Y-86335599D01*
X139056777Y-86353777D01*
X139038599Y-86370253D01*
X139018893Y-86384868D01*
X138997850Y-86397480D01*
X138975671Y-86407970D01*
X138952572Y-86416235D01*
X138928773Y-86422196D01*
X138904505Y-86425796D01*
X138880001Y-86427000D01*
X137979999Y-86427000D01*
X137955495Y-86425796D01*
X137931227Y-86422196D01*
X137907428Y-86416235D01*
X137884329Y-86407970D01*
X137862150Y-86397480D01*
X137841107Y-86384868D01*
X137821401Y-86370253D01*
X137803223Y-86353777D01*
X137786747Y-86335599D01*
X137772132Y-86315893D01*
X137759520Y-86294850D01*
X137749030Y-86272671D01*
X137740765Y-86249572D01*
X137734804Y-86225773D01*
X137731204Y-86201505D01*
X137730000Y-86177001D01*
X137730000Y-85526999D01*
X137731204Y-85502495D01*
X137734804Y-85478227D01*
X137740765Y-85454428D01*
X137749030Y-85431329D01*
X137759520Y-85409150D01*
X137772132Y-85388107D01*
X137786747Y-85368401D01*
X137803223Y-85350223D01*
X137821401Y-85333747D01*
X137841107Y-85319132D01*
X137862150Y-85306520D01*
X137884329Y-85296030D01*
X137907428Y-85287765D01*
X137931227Y-85281804D01*
X137955495Y-85278204D01*
X137979999Y-85277000D01*
X138880001Y-85277000D01*
X138904505Y-85278204D01*
X138904505Y-85278204D01*
G37*
D12*
X138430000Y-85852000D03*
D11*
G36*
X136890505Y-91584204D02*
G01*
X136914773Y-91587804D01*
X136938572Y-91593765D01*
X136961671Y-91602030D01*
X136983850Y-91612520D01*
X137004893Y-91625132D01*
X137024599Y-91639747D01*
X137042777Y-91656223D01*
X137059253Y-91674401D01*
X137073868Y-91694107D01*
X137086480Y-91715150D01*
X137096970Y-91737329D01*
X137105235Y-91760428D01*
X137111196Y-91784227D01*
X137114796Y-91808495D01*
X137116000Y-91832999D01*
X137116000Y-92483001D01*
X137114796Y-92507505D01*
X137111196Y-92531773D01*
X137105235Y-92555572D01*
X137096970Y-92578671D01*
X137086480Y-92600850D01*
X137073868Y-92621893D01*
X137059253Y-92641599D01*
X137042777Y-92659777D01*
X137024599Y-92676253D01*
X137004893Y-92690868D01*
X136983850Y-92703480D01*
X136961671Y-92713970D01*
X136938572Y-92722235D01*
X136914773Y-92728196D01*
X136890505Y-92731796D01*
X136866001Y-92733000D01*
X135965999Y-92733000D01*
X135941495Y-92731796D01*
X135917227Y-92728196D01*
X135893428Y-92722235D01*
X135870329Y-92713970D01*
X135848150Y-92703480D01*
X135827107Y-92690868D01*
X135807401Y-92676253D01*
X135789223Y-92659777D01*
X135772747Y-92641599D01*
X135758132Y-92621893D01*
X135745520Y-92600850D01*
X135735030Y-92578671D01*
X135726765Y-92555572D01*
X135720804Y-92531773D01*
X135717204Y-92507505D01*
X135716000Y-92483001D01*
X135716000Y-91832999D01*
X135717204Y-91808495D01*
X135720804Y-91784227D01*
X135726765Y-91760428D01*
X135735030Y-91737329D01*
X135745520Y-91715150D01*
X135758132Y-91694107D01*
X135772747Y-91674401D01*
X135789223Y-91656223D01*
X135807401Y-91639747D01*
X135827107Y-91625132D01*
X135848150Y-91612520D01*
X135870329Y-91602030D01*
X135893428Y-91593765D01*
X135917227Y-91587804D01*
X135941495Y-91584204D01*
X135965999Y-91583000D01*
X136866001Y-91583000D01*
X136890505Y-91584204D01*
X136890505Y-91584204D01*
G37*
D12*
X136416000Y-92158000D03*
D11*
G36*
X136890505Y-93634204D02*
G01*
X136914773Y-93637804D01*
X136938572Y-93643765D01*
X136961671Y-93652030D01*
X136983850Y-93662520D01*
X137004893Y-93675132D01*
X137024599Y-93689747D01*
X137042777Y-93706223D01*
X137059253Y-93724401D01*
X137073868Y-93744107D01*
X137086480Y-93765150D01*
X137096970Y-93787329D01*
X137105235Y-93810428D01*
X137111196Y-93834227D01*
X137114796Y-93858495D01*
X137116000Y-93882999D01*
X137116000Y-94533001D01*
X137114796Y-94557505D01*
X137111196Y-94581773D01*
X137105235Y-94605572D01*
X137096970Y-94628671D01*
X137086480Y-94650850D01*
X137073868Y-94671893D01*
X137059253Y-94691599D01*
X137042777Y-94709777D01*
X137024599Y-94726253D01*
X137004893Y-94740868D01*
X136983850Y-94753480D01*
X136961671Y-94763970D01*
X136938572Y-94772235D01*
X136914773Y-94778196D01*
X136890505Y-94781796D01*
X136866001Y-94783000D01*
X135965999Y-94783000D01*
X135941495Y-94781796D01*
X135917227Y-94778196D01*
X135893428Y-94772235D01*
X135870329Y-94763970D01*
X135848150Y-94753480D01*
X135827107Y-94740868D01*
X135807401Y-94726253D01*
X135789223Y-94709777D01*
X135772747Y-94691599D01*
X135758132Y-94671893D01*
X135745520Y-94650850D01*
X135735030Y-94628671D01*
X135726765Y-94605572D01*
X135720804Y-94581773D01*
X135717204Y-94557505D01*
X135716000Y-94533001D01*
X135716000Y-93882999D01*
X135717204Y-93858495D01*
X135720804Y-93834227D01*
X135726765Y-93810428D01*
X135735030Y-93787329D01*
X135745520Y-93765150D01*
X135758132Y-93744107D01*
X135772747Y-93724401D01*
X135789223Y-93706223D01*
X135807401Y-93689747D01*
X135827107Y-93675132D01*
X135848150Y-93662520D01*
X135870329Y-93652030D01*
X135893428Y-93643765D01*
X135917227Y-93637804D01*
X135941495Y-93634204D01*
X135965999Y-93633000D01*
X136866001Y-93633000D01*
X136890505Y-93634204D01*
X136890505Y-93634204D01*
G37*
D12*
X136416000Y-94208000D03*
D11*
G36*
X138922505Y-93634204D02*
G01*
X138946773Y-93637804D01*
X138970572Y-93643765D01*
X138993671Y-93652030D01*
X139015850Y-93662520D01*
X139036893Y-93675132D01*
X139056599Y-93689747D01*
X139074777Y-93706223D01*
X139091253Y-93724401D01*
X139105868Y-93744107D01*
X139118480Y-93765150D01*
X139128970Y-93787329D01*
X139137235Y-93810428D01*
X139143196Y-93834227D01*
X139146796Y-93858495D01*
X139148000Y-93882999D01*
X139148000Y-94533001D01*
X139146796Y-94557505D01*
X139143196Y-94581773D01*
X139137235Y-94605572D01*
X139128970Y-94628671D01*
X139118480Y-94650850D01*
X139105868Y-94671893D01*
X139091253Y-94691599D01*
X139074777Y-94709777D01*
X139056599Y-94726253D01*
X139036893Y-94740868D01*
X139015850Y-94753480D01*
X138993671Y-94763970D01*
X138970572Y-94772235D01*
X138946773Y-94778196D01*
X138922505Y-94781796D01*
X138898001Y-94783000D01*
X137997999Y-94783000D01*
X137973495Y-94781796D01*
X137949227Y-94778196D01*
X137925428Y-94772235D01*
X137902329Y-94763970D01*
X137880150Y-94753480D01*
X137859107Y-94740868D01*
X137839401Y-94726253D01*
X137821223Y-94709777D01*
X137804747Y-94691599D01*
X137790132Y-94671893D01*
X137777520Y-94650850D01*
X137767030Y-94628671D01*
X137758765Y-94605572D01*
X137752804Y-94581773D01*
X137749204Y-94557505D01*
X137748000Y-94533001D01*
X137748000Y-93882999D01*
X137749204Y-93858495D01*
X137752804Y-93834227D01*
X137758765Y-93810428D01*
X137767030Y-93787329D01*
X137777520Y-93765150D01*
X137790132Y-93744107D01*
X137804747Y-93724401D01*
X137821223Y-93706223D01*
X137839401Y-93689747D01*
X137859107Y-93675132D01*
X137880150Y-93662520D01*
X137902329Y-93652030D01*
X137925428Y-93643765D01*
X137949227Y-93637804D01*
X137973495Y-93634204D01*
X137997999Y-93633000D01*
X138898001Y-93633000D01*
X138922505Y-93634204D01*
X138922505Y-93634204D01*
G37*
D12*
X138448000Y-94208000D03*
D11*
G36*
X138922505Y-91584204D02*
G01*
X138946773Y-91587804D01*
X138970572Y-91593765D01*
X138993671Y-91602030D01*
X139015850Y-91612520D01*
X139036893Y-91625132D01*
X139056599Y-91639747D01*
X139074777Y-91656223D01*
X139091253Y-91674401D01*
X139105868Y-91694107D01*
X139118480Y-91715150D01*
X139128970Y-91737329D01*
X139137235Y-91760428D01*
X139143196Y-91784227D01*
X139146796Y-91808495D01*
X139148000Y-91832999D01*
X139148000Y-92483001D01*
X139146796Y-92507505D01*
X139143196Y-92531773D01*
X139137235Y-92555572D01*
X139128970Y-92578671D01*
X139118480Y-92600850D01*
X139105868Y-92621893D01*
X139091253Y-92641599D01*
X139074777Y-92659777D01*
X139056599Y-92676253D01*
X139036893Y-92690868D01*
X139015850Y-92703480D01*
X138993671Y-92713970D01*
X138970572Y-92722235D01*
X138946773Y-92728196D01*
X138922505Y-92731796D01*
X138898001Y-92733000D01*
X137997999Y-92733000D01*
X137973495Y-92731796D01*
X137949227Y-92728196D01*
X137925428Y-92722235D01*
X137902329Y-92713970D01*
X137880150Y-92703480D01*
X137859107Y-92690868D01*
X137839401Y-92676253D01*
X137821223Y-92659777D01*
X137804747Y-92641599D01*
X137790132Y-92621893D01*
X137777520Y-92600850D01*
X137767030Y-92578671D01*
X137758765Y-92555572D01*
X137752804Y-92531773D01*
X137749204Y-92507505D01*
X137748000Y-92483001D01*
X137748000Y-91832999D01*
X137749204Y-91808495D01*
X137752804Y-91784227D01*
X137758765Y-91760428D01*
X137767030Y-91737329D01*
X137777520Y-91715150D01*
X137790132Y-91694107D01*
X137804747Y-91674401D01*
X137821223Y-91656223D01*
X137839401Y-91639747D01*
X137859107Y-91625132D01*
X137880150Y-91612520D01*
X137902329Y-91602030D01*
X137925428Y-91593765D01*
X137949227Y-91587804D01*
X137973495Y-91584204D01*
X137997999Y-91583000D01*
X138898001Y-91583000D01*
X138922505Y-91584204D01*
X138922505Y-91584204D01*
G37*
D12*
X138448000Y-92158000D03*
D11*
G36*
X140954505Y-91584204D02*
G01*
X140978773Y-91587804D01*
X141002572Y-91593765D01*
X141025671Y-91602030D01*
X141047850Y-91612520D01*
X141068893Y-91625132D01*
X141088599Y-91639747D01*
X141106777Y-91656223D01*
X141123253Y-91674401D01*
X141137868Y-91694107D01*
X141150480Y-91715150D01*
X141160970Y-91737329D01*
X141169235Y-91760428D01*
X141175196Y-91784227D01*
X141178796Y-91808495D01*
X141180000Y-91832999D01*
X141180000Y-92483001D01*
X141178796Y-92507505D01*
X141175196Y-92531773D01*
X141169235Y-92555572D01*
X141160970Y-92578671D01*
X141150480Y-92600850D01*
X141137868Y-92621893D01*
X141123253Y-92641599D01*
X141106777Y-92659777D01*
X141088599Y-92676253D01*
X141068893Y-92690868D01*
X141047850Y-92703480D01*
X141025671Y-92713970D01*
X141002572Y-92722235D01*
X140978773Y-92728196D01*
X140954505Y-92731796D01*
X140930001Y-92733000D01*
X140029999Y-92733000D01*
X140005495Y-92731796D01*
X139981227Y-92728196D01*
X139957428Y-92722235D01*
X139934329Y-92713970D01*
X139912150Y-92703480D01*
X139891107Y-92690868D01*
X139871401Y-92676253D01*
X139853223Y-92659777D01*
X139836747Y-92641599D01*
X139822132Y-92621893D01*
X139809520Y-92600850D01*
X139799030Y-92578671D01*
X139790765Y-92555572D01*
X139784804Y-92531773D01*
X139781204Y-92507505D01*
X139780000Y-92483001D01*
X139780000Y-91832999D01*
X139781204Y-91808495D01*
X139784804Y-91784227D01*
X139790765Y-91760428D01*
X139799030Y-91737329D01*
X139809520Y-91715150D01*
X139822132Y-91694107D01*
X139836747Y-91674401D01*
X139853223Y-91656223D01*
X139871401Y-91639747D01*
X139891107Y-91625132D01*
X139912150Y-91612520D01*
X139934329Y-91602030D01*
X139957428Y-91593765D01*
X139981227Y-91587804D01*
X140005495Y-91584204D01*
X140029999Y-91583000D01*
X140930001Y-91583000D01*
X140954505Y-91584204D01*
X140954505Y-91584204D01*
G37*
D12*
X140480000Y-92158000D03*
D11*
G36*
X140954505Y-93634204D02*
G01*
X140978773Y-93637804D01*
X141002572Y-93643765D01*
X141025671Y-93652030D01*
X141047850Y-93662520D01*
X141068893Y-93675132D01*
X141088599Y-93689747D01*
X141106777Y-93706223D01*
X141123253Y-93724401D01*
X141137868Y-93744107D01*
X141150480Y-93765150D01*
X141160970Y-93787329D01*
X141169235Y-93810428D01*
X141175196Y-93834227D01*
X141178796Y-93858495D01*
X141180000Y-93882999D01*
X141180000Y-94533001D01*
X141178796Y-94557505D01*
X141175196Y-94581773D01*
X141169235Y-94605572D01*
X141160970Y-94628671D01*
X141150480Y-94650850D01*
X141137868Y-94671893D01*
X141123253Y-94691599D01*
X141106777Y-94709777D01*
X141088599Y-94726253D01*
X141068893Y-94740868D01*
X141047850Y-94753480D01*
X141025671Y-94763970D01*
X141002572Y-94772235D01*
X140978773Y-94778196D01*
X140954505Y-94781796D01*
X140930001Y-94783000D01*
X140029999Y-94783000D01*
X140005495Y-94781796D01*
X139981227Y-94778196D01*
X139957428Y-94772235D01*
X139934329Y-94763970D01*
X139912150Y-94753480D01*
X139891107Y-94740868D01*
X139871401Y-94726253D01*
X139853223Y-94709777D01*
X139836747Y-94691599D01*
X139822132Y-94671893D01*
X139809520Y-94650850D01*
X139799030Y-94628671D01*
X139790765Y-94605572D01*
X139784804Y-94581773D01*
X139781204Y-94557505D01*
X139780000Y-94533001D01*
X139780000Y-93882999D01*
X139781204Y-93858495D01*
X139784804Y-93834227D01*
X139790765Y-93810428D01*
X139799030Y-93787329D01*
X139809520Y-93765150D01*
X139822132Y-93744107D01*
X139836747Y-93724401D01*
X139853223Y-93706223D01*
X139871401Y-93689747D01*
X139891107Y-93675132D01*
X139912150Y-93662520D01*
X139934329Y-93652030D01*
X139957428Y-93643765D01*
X139981227Y-93637804D01*
X140005495Y-93634204D01*
X140029999Y-93633000D01*
X140930001Y-93633000D01*
X140954505Y-93634204D01*
X140954505Y-93634204D01*
G37*
D12*
X140480000Y-94208000D03*
D11*
G36*
X129252505Y-82221204D02*
G01*
X129276773Y-82224804D01*
X129300572Y-82230765D01*
X129323671Y-82239030D01*
X129345850Y-82249520D01*
X129366893Y-82262132D01*
X129386599Y-82276747D01*
X129404777Y-82293223D01*
X129421253Y-82311401D01*
X129435868Y-82331107D01*
X129448480Y-82352150D01*
X129458970Y-82374329D01*
X129467235Y-82397428D01*
X129473196Y-82421227D01*
X129476796Y-82445495D01*
X129478000Y-82469999D01*
X129478000Y-83120001D01*
X129476796Y-83144505D01*
X129473196Y-83168773D01*
X129467235Y-83192572D01*
X129458970Y-83215671D01*
X129448480Y-83237850D01*
X129435868Y-83258893D01*
X129421253Y-83278599D01*
X129404777Y-83296777D01*
X129386599Y-83313253D01*
X129366893Y-83327868D01*
X129345850Y-83340480D01*
X129323671Y-83350970D01*
X129300572Y-83359235D01*
X129276773Y-83365196D01*
X129252505Y-83368796D01*
X129228001Y-83370000D01*
X128327999Y-83370000D01*
X128303495Y-83368796D01*
X128279227Y-83365196D01*
X128255428Y-83359235D01*
X128232329Y-83350970D01*
X128210150Y-83340480D01*
X128189107Y-83327868D01*
X128169401Y-83313253D01*
X128151223Y-83296777D01*
X128134747Y-83278599D01*
X128120132Y-83258893D01*
X128107520Y-83237850D01*
X128097030Y-83215671D01*
X128088765Y-83192572D01*
X128082804Y-83168773D01*
X128079204Y-83144505D01*
X128078000Y-83120001D01*
X128078000Y-82469999D01*
X128079204Y-82445495D01*
X128082804Y-82421227D01*
X128088765Y-82397428D01*
X128097030Y-82374329D01*
X128107520Y-82352150D01*
X128120132Y-82331107D01*
X128134747Y-82311401D01*
X128151223Y-82293223D01*
X128169401Y-82276747D01*
X128189107Y-82262132D01*
X128210150Y-82249520D01*
X128232329Y-82239030D01*
X128255428Y-82230765D01*
X128279227Y-82224804D01*
X128303495Y-82221204D01*
X128327999Y-82220000D01*
X129228001Y-82220000D01*
X129252505Y-82221204D01*
X129252505Y-82221204D01*
G37*
D12*
X128778000Y-82795000D03*
D11*
G36*
X129252505Y-84271204D02*
G01*
X129276773Y-84274804D01*
X129300572Y-84280765D01*
X129323671Y-84289030D01*
X129345850Y-84299520D01*
X129366893Y-84312132D01*
X129386599Y-84326747D01*
X129404777Y-84343223D01*
X129421253Y-84361401D01*
X129435868Y-84381107D01*
X129448480Y-84402150D01*
X129458970Y-84424329D01*
X129467235Y-84447428D01*
X129473196Y-84471227D01*
X129476796Y-84495495D01*
X129478000Y-84519999D01*
X129478000Y-85170001D01*
X129476796Y-85194505D01*
X129473196Y-85218773D01*
X129467235Y-85242572D01*
X129458970Y-85265671D01*
X129448480Y-85287850D01*
X129435868Y-85308893D01*
X129421253Y-85328599D01*
X129404777Y-85346777D01*
X129386599Y-85363253D01*
X129366893Y-85377868D01*
X129345850Y-85390480D01*
X129323671Y-85400970D01*
X129300572Y-85409235D01*
X129276773Y-85415196D01*
X129252505Y-85418796D01*
X129228001Y-85420000D01*
X128327999Y-85420000D01*
X128303495Y-85418796D01*
X128279227Y-85415196D01*
X128255428Y-85409235D01*
X128232329Y-85400970D01*
X128210150Y-85390480D01*
X128189107Y-85377868D01*
X128169401Y-85363253D01*
X128151223Y-85346777D01*
X128134747Y-85328599D01*
X128120132Y-85308893D01*
X128107520Y-85287850D01*
X128097030Y-85265671D01*
X128088765Y-85242572D01*
X128082804Y-85218773D01*
X128079204Y-85194505D01*
X128078000Y-85170001D01*
X128078000Y-84519999D01*
X128079204Y-84495495D01*
X128082804Y-84471227D01*
X128088765Y-84447428D01*
X128097030Y-84424329D01*
X128107520Y-84402150D01*
X128120132Y-84381107D01*
X128134747Y-84361401D01*
X128151223Y-84343223D01*
X128169401Y-84326747D01*
X128189107Y-84312132D01*
X128210150Y-84299520D01*
X128232329Y-84289030D01*
X128255428Y-84280765D01*
X128279227Y-84274804D01*
X128303495Y-84271204D01*
X128327999Y-84270000D01*
X129228001Y-84270000D01*
X129252505Y-84271204D01*
X129252505Y-84271204D01*
G37*
D12*
X128778000Y-84845000D03*
D11*
G36*
X126841505Y-87693204D02*
G01*
X126865773Y-87696804D01*
X126889572Y-87702765D01*
X126912671Y-87711030D01*
X126934850Y-87721520D01*
X126955893Y-87734132D01*
X126975599Y-87748747D01*
X126993777Y-87765223D01*
X127010253Y-87783401D01*
X127024868Y-87803107D01*
X127037480Y-87824150D01*
X127047970Y-87846329D01*
X127056235Y-87869428D01*
X127062196Y-87893227D01*
X127065796Y-87917495D01*
X127067000Y-87941999D01*
X127067000Y-88842001D01*
X127065796Y-88866505D01*
X127062196Y-88890773D01*
X127056235Y-88914572D01*
X127047970Y-88937671D01*
X127037480Y-88959850D01*
X127024868Y-88980893D01*
X127010253Y-89000599D01*
X126993777Y-89018777D01*
X126975599Y-89035253D01*
X126955893Y-89049868D01*
X126934850Y-89062480D01*
X126912671Y-89072970D01*
X126889572Y-89081235D01*
X126865773Y-89087196D01*
X126841505Y-89090796D01*
X126817001Y-89092000D01*
X126166999Y-89092000D01*
X126142495Y-89090796D01*
X126118227Y-89087196D01*
X126094428Y-89081235D01*
X126071329Y-89072970D01*
X126049150Y-89062480D01*
X126028107Y-89049868D01*
X126008401Y-89035253D01*
X125990223Y-89018777D01*
X125973747Y-89000599D01*
X125959132Y-88980893D01*
X125946520Y-88959850D01*
X125936030Y-88937671D01*
X125927765Y-88914572D01*
X125921804Y-88890773D01*
X125918204Y-88866505D01*
X125917000Y-88842001D01*
X125917000Y-87941999D01*
X125918204Y-87917495D01*
X125921804Y-87893227D01*
X125927765Y-87869428D01*
X125936030Y-87846329D01*
X125946520Y-87824150D01*
X125959132Y-87803107D01*
X125973747Y-87783401D01*
X125990223Y-87765223D01*
X126008401Y-87748747D01*
X126028107Y-87734132D01*
X126049150Y-87721520D01*
X126071329Y-87711030D01*
X126094428Y-87702765D01*
X126118227Y-87696804D01*
X126142495Y-87693204D01*
X126166999Y-87692000D01*
X126817001Y-87692000D01*
X126841505Y-87693204D01*
X126841505Y-87693204D01*
G37*
D12*
X126492000Y-88392000D03*
D11*
G36*
X124791505Y-87693204D02*
G01*
X124815773Y-87696804D01*
X124839572Y-87702765D01*
X124862671Y-87711030D01*
X124884850Y-87721520D01*
X124905893Y-87734132D01*
X124925599Y-87748747D01*
X124943777Y-87765223D01*
X124960253Y-87783401D01*
X124974868Y-87803107D01*
X124987480Y-87824150D01*
X124997970Y-87846329D01*
X125006235Y-87869428D01*
X125012196Y-87893227D01*
X125015796Y-87917495D01*
X125017000Y-87941999D01*
X125017000Y-88842001D01*
X125015796Y-88866505D01*
X125012196Y-88890773D01*
X125006235Y-88914572D01*
X124997970Y-88937671D01*
X124987480Y-88959850D01*
X124974868Y-88980893D01*
X124960253Y-89000599D01*
X124943777Y-89018777D01*
X124925599Y-89035253D01*
X124905893Y-89049868D01*
X124884850Y-89062480D01*
X124862671Y-89072970D01*
X124839572Y-89081235D01*
X124815773Y-89087196D01*
X124791505Y-89090796D01*
X124767001Y-89092000D01*
X124116999Y-89092000D01*
X124092495Y-89090796D01*
X124068227Y-89087196D01*
X124044428Y-89081235D01*
X124021329Y-89072970D01*
X123999150Y-89062480D01*
X123978107Y-89049868D01*
X123958401Y-89035253D01*
X123940223Y-89018777D01*
X123923747Y-89000599D01*
X123909132Y-88980893D01*
X123896520Y-88959850D01*
X123886030Y-88937671D01*
X123877765Y-88914572D01*
X123871804Y-88890773D01*
X123868204Y-88866505D01*
X123867000Y-88842001D01*
X123867000Y-87941999D01*
X123868204Y-87917495D01*
X123871804Y-87893227D01*
X123877765Y-87869428D01*
X123886030Y-87846329D01*
X123896520Y-87824150D01*
X123909132Y-87803107D01*
X123923747Y-87783401D01*
X123940223Y-87765223D01*
X123958401Y-87748747D01*
X123978107Y-87734132D01*
X123999150Y-87721520D01*
X124021329Y-87711030D01*
X124044428Y-87702765D01*
X124068227Y-87696804D01*
X124092495Y-87693204D01*
X124116999Y-87692000D01*
X124767001Y-87692000D01*
X124791505Y-87693204D01*
X124791505Y-87693204D01*
G37*
D12*
X124442000Y-88392000D03*
D11*
G36*
X122786505Y-87693204D02*
G01*
X122810773Y-87696804D01*
X122834572Y-87702765D01*
X122857671Y-87711030D01*
X122879850Y-87721520D01*
X122900893Y-87734132D01*
X122920599Y-87748747D01*
X122938777Y-87765223D01*
X122955253Y-87783401D01*
X122969868Y-87803107D01*
X122982480Y-87824150D01*
X122992970Y-87846329D01*
X123001235Y-87869428D01*
X123007196Y-87893227D01*
X123010796Y-87917495D01*
X123012000Y-87941999D01*
X123012000Y-88842001D01*
X123010796Y-88866505D01*
X123007196Y-88890773D01*
X123001235Y-88914572D01*
X122992970Y-88937671D01*
X122982480Y-88959850D01*
X122969868Y-88980893D01*
X122955253Y-89000599D01*
X122938777Y-89018777D01*
X122920599Y-89035253D01*
X122900893Y-89049868D01*
X122879850Y-89062480D01*
X122857671Y-89072970D01*
X122834572Y-89081235D01*
X122810773Y-89087196D01*
X122786505Y-89090796D01*
X122762001Y-89092000D01*
X122111999Y-89092000D01*
X122087495Y-89090796D01*
X122063227Y-89087196D01*
X122039428Y-89081235D01*
X122016329Y-89072970D01*
X121994150Y-89062480D01*
X121973107Y-89049868D01*
X121953401Y-89035253D01*
X121935223Y-89018777D01*
X121918747Y-89000599D01*
X121904132Y-88980893D01*
X121891520Y-88959850D01*
X121881030Y-88937671D01*
X121872765Y-88914572D01*
X121866804Y-88890773D01*
X121863204Y-88866505D01*
X121862000Y-88842001D01*
X121862000Y-87941999D01*
X121863204Y-87917495D01*
X121866804Y-87893227D01*
X121872765Y-87869428D01*
X121881030Y-87846329D01*
X121891520Y-87824150D01*
X121904132Y-87803107D01*
X121918747Y-87783401D01*
X121935223Y-87765223D01*
X121953401Y-87748747D01*
X121973107Y-87734132D01*
X121994150Y-87721520D01*
X122016329Y-87711030D01*
X122039428Y-87702765D01*
X122063227Y-87696804D01*
X122087495Y-87693204D01*
X122111999Y-87692000D01*
X122762001Y-87692000D01*
X122786505Y-87693204D01*
X122786505Y-87693204D01*
G37*
D12*
X122437000Y-88392000D03*
D11*
G36*
X120736505Y-87693204D02*
G01*
X120760773Y-87696804D01*
X120784572Y-87702765D01*
X120807671Y-87711030D01*
X120829850Y-87721520D01*
X120850893Y-87734132D01*
X120870599Y-87748747D01*
X120888777Y-87765223D01*
X120905253Y-87783401D01*
X120919868Y-87803107D01*
X120932480Y-87824150D01*
X120942970Y-87846329D01*
X120951235Y-87869428D01*
X120957196Y-87893227D01*
X120960796Y-87917495D01*
X120962000Y-87941999D01*
X120962000Y-88842001D01*
X120960796Y-88866505D01*
X120957196Y-88890773D01*
X120951235Y-88914572D01*
X120942970Y-88937671D01*
X120932480Y-88959850D01*
X120919868Y-88980893D01*
X120905253Y-89000599D01*
X120888777Y-89018777D01*
X120870599Y-89035253D01*
X120850893Y-89049868D01*
X120829850Y-89062480D01*
X120807671Y-89072970D01*
X120784572Y-89081235D01*
X120760773Y-89087196D01*
X120736505Y-89090796D01*
X120712001Y-89092000D01*
X120061999Y-89092000D01*
X120037495Y-89090796D01*
X120013227Y-89087196D01*
X119989428Y-89081235D01*
X119966329Y-89072970D01*
X119944150Y-89062480D01*
X119923107Y-89049868D01*
X119903401Y-89035253D01*
X119885223Y-89018777D01*
X119868747Y-89000599D01*
X119854132Y-88980893D01*
X119841520Y-88959850D01*
X119831030Y-88937671D01*
X119822765Y-88914572D01*
X119816804Y-88890773D01*
X119813204Y-88866505D01*
X119812000Y-88842001D01*
X119812000Y-87941999D01*
X119813204Y-87917495D01*
X119816804Y-87893227D01*
X119822765Y-87869428D01*
X119831030Y-87846329D01*
X119841520Y-87824150D01*
X119854132Y-87803107D01*
X119868747Y-87783401D01*
X119885223Y-87765223D01*
X119903401Y-87748747D01*
X119923107Y-87734132D01*
X119944150Y-87721520D01*
X119966329Y-87711030D01*
X119989428Y-87702765D01*
X120013227Y-87696804D01*
X120037495Y-87693204D01*
X120061999Y-87692000D01*
X120712001Y-87692000D01*
X120736505Y-87693204D01*
X120736505Y-87693204D01*
G37*
D12*
X120387000Y-88392000D03*
D13*
X133096000Y-95610000D03*
D11*
G36*
X134246000Y-97410000D02*
G01*
X131946000Y-97410000D01*
X132546000Y-93810000D01*
X133646000Y-93810000D01*
X134246000Y-97410000D01*
X134246000Y-97410000D01*
G37*
D13*
X133096000Y-89810000D03*
D11*
G36*
X131946000Y-88010000D02*
G01*
X134246000Y-88010000D01*
X133646000Y-91610000D01*
X132546000Y-91610000D01*
X131946000Y-88010000D01*
X131946000Y-88010000D01*
G37*
G36*
X142859505Y-87393204D02*
G01*
X142883773Y-87396804D01*
X142907572Y-87402765D01*
X142930671Y-87411030D01*
X142952850Y-87421520D01*
X142973893Y-87434132D01*
X142993599Y-87448747D01*
X143011777Y-87465223D01*
X143028253Y-87483401D01*
X143042868Y-87503107D01*
X143055480Y-87524150D01*
X143065970Y-87546329D01*
X143074235Y-87569428D01*
X143080196Y-87593227D01*
X143083796Y-87617495D01*
X143085000Y-87641999D01*
X143085000Y-88292001D01*
X143083796Y-88316505D01*
X143080196Y-88340773D01*
X143074235Y-88364572D01*
X143065970Y-88387671D01*
X143055480Y-88409850D01*
X143042868Y-88430893D01*
X143028253Y-88450599D01*
X143011777Y-88468777D01*
X142993599Y-88485253D01*
X142973893Y-88499868D01*
X142952850Y-88512480D01*
X142930671Y-88522970D01*
X142907572Y-88531235D01*
X142883773Y-88537196D01*
X142859505Y-88540796D01*
X142835001Y-88542000D01*
X141934999Y-88542000D01*
X141910495Y-88540796D01*
X141886227Y-88537196D01*
X141862428Y-88531235D01*
X141839329Y-88522970D01*
X141817150Y-88512480D01*
X141796107Y-88499868D01*
X141776401Y-88485253D01*
X141758223Y-88468777D01*
X141741747Y-88450599D01*
X141727132Y-88430893D01*
X141714520Y-88409850D01*
X141704030Y-88387671D01*
X141695765Y-88364572D01*
X141689804Y-88340773D01*
X141686204Y-88316505D01*
X141685000Y-88292001D01*
X141685000Y-87641999D01*
X141686204Y-87617495D01*
X141689804Y-87593227D01*
X141695765Y-87569428D01*
X141704030Y-87546329D01*
X141714520Y-87524150D01*
X141727132Y-87503107D01*
X141741747Y-87483401D01*
X141758223Y-87465223D01*
X141776401Y-87448747D01*
X141796107Y-87434132D01*
X141817150Y-87421520D01*
X141839329Y-87411030D01*
X141862428Y-87402765D01*
X141886227Y-87396804D01*
X141910495Y-87393204D01*
X141934999Y-87392000D01*
X142835001Y-87392000D01*
X142859505Y-87393204D01*
X142859505Y-87393204D01*
G37*
D12*
X142385000Y-87967000D03*
D11*
G36*
X142859505Y-85343204D02*
G01*
X142883773Y-85346804D01*
X142907572Y-85352765D01*
X142930671Y-85361030D01*
X142952850Y-85371520D01*
X142973893Y-85384132D01*
X142993599Y-85398747D01*
X143011777Y-85415223D01*
X143028253Y-85433401D01*
X143042868Y-85453107D01*
X143055480Y-85474150D01*
X143065970Y-85496329D01*
X143074235Y-85519428D01*
X143080196Y-85543227D01*
X143083796Y-85567495D01*
X143085000Y-85591999D01*
X143085000Y-86242001D01*
X143083796Y-86266505D01*
X143080196Y-86290773D01*
X143074235Y-86314572D01*
X143065970Y-86337671D01*
X143055480Y-86359850D01*
X143042868Y-86380893D01*
X143028253Y-86400599D01*
X143011777Y-86418777D01*
X142993599Y-86435253D01*
X142973893Y-86449868D01*
X142952850Y-86462480D01*
X142930671Y-86472970D01*
X142907572Y-86481235D01*
X142883773Y-86487196D01*
X142859505Y-86490796D01*
X142835001Y-86492000D01*
X141934999Y-86492000D01*
X141910495Y-86490796D01*
X141886227Y-86487196D01*
X141862428Y-86481235D01*
X141839329Y-86472970D01*
X141817150Y-86462480D01*
X141796107Y-86449868D01*
X141776401Y-86435253D01*
X141758223Y-86418777D01*
X141741747Y-86400599D01*
X141727132Y-86380893D01*
X141714520Y-86359850D01*
X141704030Y-86337671D01*
X141695765Y-86314572D01*
X141689804Y-86290773D01*
X141686204Y-86266505D01*
X141685000Y-86242001D01*
X141685000Y-85591999D01*
X141686204Y-85567495D01*
X141689804Y-85543227D01*
X141695765Y-85519428D01*
X141704030Y-85496329D01*
X141714520Y-85474150D01*
X141727132Y-85453107D01*
X141741747Y-85433401D01*
X141758223Y-85415223D01*
X141776401Y-85398747D01*
X141796107Y-85384132D01*
X141817150Y-85371520D01*
X141839329Y-85361030D01*
X141862428Y-85352765D01*
X141886227Y-85346804D01*
X141910495Y-85343204D01*
X141934999Y-85342000D01*
X142835001Y-85342000D01*
X142859505Y-85343204D01*
X142859505Y-85343204D01*
G37*
D12*
X142385000Y-85917000D03*
M02*
