G04 #@! TF.GenerationSoftware,KiCad,Pcbnew,(5.1.0)-1*
G04 #@! TF.CreationDate,2019-07-07T19:12:32+02:00*
G04 #@! TF.ProjectId,big_button_v1,6269675f-6275-4747-946f-6e5f76312e6b,rev?*
G04 #@! TF.SameCoordinates,Original*
G04 #@! TF.FileFunction,Copper,L2,Bot*
G04 #@! TF.FilePolarity,Positive*
%FSLAX46Y46*%
G04 Gerber Fmt 4.6, Leading zero omitted, Abs format (unit mm)*
G04 Created by KiCad (PCBNEW (5.1.0)-1) date 2019-07-07 19:12:32*
%MOMM*%
%LPD*%
G04 APERTURE LIST*
%ADD10O,1.600000X1.600000*%
%ADD11R,1.600000X1.600000*%
%ADD12C,0.100000*%
%ADD13C,0.650000*%
%ADD14C,3.000000*%
%ADD15R,3.000000X3.000000*%
%ADD16C,1.150000*%
%ADD17O,2.000000X1.700000*%
%ADD18C,1.700000*%
%ADD19R,1.520000X1.520000*%
%ADD20C,1.520000*%
%ADD21C,0.800000*%
%ADD22C,0.250000*%
%ADD23C,0.400000*%
%ADD24C,1.000000*%
%ADD25C,0.254000*%
G04 APERTURE END LIST*
D10*
X64008000Y-65151000D03*
X66548000Y-72771000D03*
X66548000Y-65151000D03*
D11*
X64008000Y-72771000D03*
D10*
X65278000Y-84709000D03*
X62738000Y-77089000D03*
X62738000Y-84709000D03*
D11*
X65278000Y-77089000D03*
D12*
G36*
X60122428Y-72165282D02*
G01*
X60138202Y-72167622D01*
X60153671Y-72171497D01*
X60168686Y-72176870D01*
X60183102Y-72183688D01*
X60196780Y-72191886D01*
X60209589Y-72201386D01*
X60221405Y-72212095D01*
X60232114Y-72223911D01*
X60241614Y-72236720D01*
X60249812Y-72250398D01*
X60256630Y-72264814D01*
X60262003Y-72279829D01*
X60265878Y-72295298D01*
X60268218Y-72311072D01*
X60269000Y-72327000D01*
X60269000Y-73977000D01*
X60268218Y-73992928D01*
X60265878Y-74008702D01*
X60262003Y-74024171D01*
X60256630Y-74039186D01*
X60249812Y-74053602D01*
X60241614Y-74067280D01*
X60232114Y-74080089D01*
X60221405Y-74091905D01*
X60209589Y-74102614D01*
X60196780Y-74112114D01*
X60183102Y-74120312D01*
X60168686Y-74127130D01*
X60153671Y-74132503D01*
X60138202Y-74136378D01*
X60122428Y-74138718D01*
X60106500Y-74139500D01*
X59781500Y-74139500D01*
X59765572Y-74138718D01*
X59749798Y-74136378D01*
X59734329Y-74132503D01*
X59719314Y-74127130D01*
X59704898Y-74120312D01*
X59691220Y-74112114D01*
X59678411Y-74102614D01*
X59666595Y-74091905D01*
X59655886Y-74080089D01*
X59646386Y-74067280D01*
X59638188Y-74053602D01*
X59631370Y-74039186D01*
X59625997Y-74024171D01*
X59622122Y-74008702D01*
X59619782Y-73992928D01*
X59619000Y-73977000D01*
X59619000Y-72327000D01*
X59619782Y-72311072D01*
X59622122Y-72295298D01*
X59625997Y-72279829D01*
X59631370Y-72264814D01*
X59638188Y-72250398D01*
X59646386Y-72236720D01*
X59655886Y-72223911D01*
X59666595Y-72212095D01*
X59678411Y-72201386D01*
X59691220Y-72191886D01*
X59704898Y-72183688D01*
X59719314Y-72176870D01*
X59734329Y-72171497D01*
X59749798Y-72167622D01*
X59765572Y-72165282D01*
X59781500Y-72164500D01*
X60106500Y-72164500D01*
X60122428Y-72165282D01*
X60122428Y-72165282D01*
G37*
D13*
X59944000Y-73152000D03*
D12*
G36*
X58852428Y-72165282D02*
G01*
X58868202Y-72167622D01*
X58883671Y-72171497D01*
X58898686Y-72176870D01*
X58913102Y-72183688D01*
X58926780Y-72191886D01*
X58939589Y-72201386D01*
X58951405Y-72212095D01*
X58962114Y-72223911D01*
X58971614Y-72236720D01*
X58979812Y-72250398D01*
X58986630Y-72264814D01*
X58992003Y-72279829D01*
X58995878Y-72295298D01*
X58998218Y-72311072D01*
X58999000Y-72327000D01*
X58999000Y-73977000D01*
X58998218Y-73992928D01*
X58995878Y-74008702D01*
X58992003Y-74024171D01*
X58986630Y-74039186D01*
X58979812Y-74053602D01*
X58971614Y-74067280D01*
X58962114Y-74080089D01*
X58951405Y-74091905D01*
X58939589Y-74102614D01*
X58926780Y-74112114D01*
X58913102Y-74120312D01*
X58898686Y-74127130D01*
X58883671Y-74132503D01*
X58868202Y-74136378D01*
X58852428Y-74138718D01*
X58836500Y-74139500D01*
X58511500Y-74139500D01*
X58495572Y-74138718D01*
X58479798Y-74136378D01*
X58464329Y-74132503D01*
X58449314Y-74127130D01*
X58434898Y-74120312D01*
X58421220Y-74112114D01*
X58408411Y-74102614D01*
X58396595Y-74091905D01*
X58385886Y-74080089D01*
X58376386Y-74067280D01*
X58368188Y-74053602D01*
X58361370Y-74039186D01*
X58355997Y-74024171D01*
X58352122Y-74008702D01*
X58349782Y-73992928D01*
X58349000Y-73977000D01*
X58349000Y-72327000D01*
X58349782Y-72311072D01*
X58352122Y-72295298D01*
X58355997Y-72279829D01*
X58361370Y-72264814D01*
X58368188Y-72250398D01*
X58376386Y-72236720D01*
X58385886Y-72223911D01*
X58396595Y-72212095D01*
X58408411Y-72201386D01*
X58421220Y-72191886D01*
X58434898Y-72183688D01*
X58449314Y-72176870D01*
X58464329Y-72171497D01*
X58479798Y-72167622D01*
X58495572Y-72165282D01*
X58511500Y-72164500D01*
X58836500Y-72164500D01*
X58852428Y-72165282D01*
X58852428Y-72165282D01*
G37*
D13*
X58674000Y-73152000D03*
D12*
G36*
X57582428Y-72165282D02*
G01*
X57598202Y-72167622D01*
X57613671Y-72171497D01*
X57628686Y-72176870D01*
X57643102Y-72183688D01*
X57656780Y-72191886D01*
X57669589Y-72201386D01*
X57681405Y-72212095D01*
X57692114Y-72223911D01*
X57701614Y-72236720D01*
X57709812Y-72250398D01*
X57716630Y-72264814D01*
X57722003Y-72279829D01*
X57725878Y-72295298D01*
X57728218Y-72311072D01*
X57729000Y-72327000D01*
X57729000Y-73977000D01*
X57728218Y-73992928D01*
X57725878Y-74008702D01*
X57722003Y-74024171D01*
X57716630Y-74039186D01*
X57709812Y-74053602D01*
X57701614Y-74067280D01*
X57692114Y-74080089D01*
X57681405Y-74091905D01*
X57669589Y-74102614D01*
X57656780Y-74112114D01*
X57643102Y-74120312D01*
X57628686Y-74127130D01*
X57613671Y-74132503D01*
X57598202Y-74136378D01*
X57582428Y-74138718D01*
X57566500Y-74139500D01*
X57241500Y-74139500D01*
X57225572Y-74138718D01*
X57209798Y-74136378D01*
X57194329Y-74132503D01*
X57179314Y-74127130D01*
X57164898Y-74120312D01*
X57151220Y-74112114D01*
X57138411Y-74102614D01*
X57126595Y-74091905D01*
X57115886Y-74080089D01*
X57106386Y-74067280D01*
X57098188Y-74053602D01*
X57091370Y-74039186D01*
X57085997Y-74024171D01*
X57082122Y-74008702D01*
X57079782Y-73992928D01*
X57079000Y-73977000D01*
X57079000Y-72327000D01*
X57079782Y-72311072D01*
X57082122Y-72295298D01*
X57085997Y-72279829D01*
X57091370Y-72264814D01*
X57098188Y-72250398D01*
X57106386Y-72236720D01*
X57115886Y-72223911D01*
X57126595Y-72212095D01*
X57138411Y-72201386D01*
X57151220Y-72191886D01*
X57164898Y-72183688D01*
X57179314Y-72176870D01*
X57194329Y-72171497D01*
X57209798Y-72167622D01*
X57225572Y-72165282D01*
X57241500Y-72164500D01*
X57566500Y-72164500D01*
X57582428Y-72165282D01*
X57582428Y-72165282D01*
G37*
D13*
X57404000Y-73152000D03*
D12*
G36*
X56312428Y-72165282D02*
G01*
X56328202Y-72167622D01*
X56343671Y-72171497D01*
X56358686Y-72176870D01*
X56373102Y-72183688D01*
X56386780Y-72191886D01*
X56399589Y-72201386D01*
X56411405Y-72212095D01*
X56422114Y-72223911D01*
X56431614Y-72236720D01*
X56439812Y-72250398D01*
X56446630Y-72264814D01*
X56452003Y-72279829D01*
X56455878Y-72295298D01*
X56458218Y-72311072D01*
X56459000Y-72327000D01*
X56459000Y-73977000D01*
X56458218Y-73992928D01*
X56455878Y-74008702D01*
X56452003Y-74024171D01*
X56446630Y-74039186D01*
X56439812Y-74053602D01*
X56431614Y-74067280D01*
X56422114Y-74080089D01*
X56411405Y-74091905D01*
X56399589Y-74102614D01*
X56386780Y-74112114D01*
X56373102Y-74120312D01*
X56358686Y-74127130D01*
X56343671Y-74132503D01*
X56328202Y-74136378D01*
X56312428Y-74138718D01*
X56296500Y-74139500D01*
X55971500Y-74139500D01*
X55955572Y-74138718D01*
X55939798Y-74136378D01*
X55924329Y-74132503D01*
X55909314Y-74127130D01*
X55894898Y-74120312D01*
X55881220Y-74112114D01*
X55868411Y-74102614D01*
X55856595Y-74091905D01*
X55845886Y-74080089D01*
X55836386Y-74067280D01*
X55828188Y-74053602D01*
X55821370Y-74039186D01*
X55815997Y-74024171D01*
X55812122Y-74008702D01*
X55809782Y-73992928D01*
X55809000Y-73977000D01*
X55809000Y-72327000D01*
X55809782Y-72311072D01*
X55812122Y-72295298D01*
X55815997Y-72279829D01*
X55821370Y-72264814D01*
X55828188Y-72250398D01*
X55836386Y-72236720D01*
X55845886Y-72223911D01*
X55856595Y-72212095D01*
X55868411Y-72201386D01*
X55881220Y-72191886D01*
X55894898Y-72183688D01*
X55909314Y-72176870D01*
X55924329Y-72171497D01*
X55939798Y-72167622D01*
X55955572Y-72165282D01*
X55971500Y-72164500D01*
X56296500Y-72164500D01*
X56312428Y-72165282D01*
X56312428Y-72165282D01*
G37*
D13*
X56134000Y-73152000D03*
D12*
G36*
X56312428Y-77240282D02*
G01*
X56328202Y-77242622D01*
X56343671Y-77246497D01*
X56358686Y-77251870D01*
X56373102Y-77258688D01*
X56386780Y-77266886D01*
X56399589Y-77276386D01*
X56411405Y-77287095D01*
X56422114Y-77298911D01*
X56431614Y-77311720D01*
X56439812Y-77325398D01*
X56446630Y-77339814D01*
X56452003Y-77354829D01*
X56455878Y-77370298D01*
X56458218Y-77386072D01*
X56459000Y-77402000D01*
X56459000Y-79052000D01*
X56458218Y-79067928D01*
X56455878Y-79083702D01*
X56452003Y-79099171D01*
X56446630Y-79114186D01*
X56439812Y-79128602D01*
X56431614Y-79142280D01*
X56422114Y-79155089D01*
X56411405Y-79166905D01*
X56399589Y-79177614D01*
X56386780Y-79187114D01*
X56373102Y-79195312D01*
X56358686Y-79202130D01*
X56343671Y-79207503D01*
X56328202Y-79211378D01*
X56312428Y-79213718D01*
X56296500Y-79214500D01*
X55971500Y-79214500D01*
X55955572Y-79213718D01*
X55939798Y-79211378D01*
X55924329Y-79207503D01*
X55909314Y-79202130D01*
X55894898Y-79195312D01*
X55881220Y-79187114D01*
X55868411Y-79177614D01*
X55856595Y-79166905D01*
X55845886Y-79155089D01*
X55836386Y-79142280D01*
X55828188Y-79128602D01*
X55821370Y-79114186D01*
X55815997Y-79099171D01*
X55812122Y-79083702D01*
X55809782Y-79067928D01*
X55809000Y-79052000D01*
X55809000Y-77402000D01*
X55809782Y-77386072D01*
X55812122Y-77370298D01*
X55815997Y-77354829D01*
X55821370Y-77339814D01*
X55828188Y-77325398D01*
X55836386Y-77311720D01*
X55845886Y-77298911D01*
X55856595Y-77287095D01*
X55868411Y-77276386D01*
X55881220Y-77266886D01*
X55894898Y-77258688D01*
X55909314Y-77251870D01*
X55924329Y-77246497D01*
X55939798Y-77242622D01*
X55955572Y-77240282D01*
X55971500Y-77239500D01*
X56296500Y-77239500D01*
X56312428Y-77240282D01*
X56312428Y-77240282D01*
G37*
D13*
X56134000Y-78227000D03*
D12*
G36*
X57582428Y-77240282D02*
G01*
X57598202Y-77242622D01*
X57613671Y-77246497D01*
X57628686Y-77251870D01*
X57643102Y-77258688D01*
X57656780Y-77266886D01*
X57669589Y-77276386D01*
X57681405Y-77287095D01*
X57692114Y-77298911D01*
X57701614Y-77311720D01*
X57709812Y-77325398D01*
X57716630Y-77339814D01*
X57722003Y-77354829D01*
X57725878Y-77370298D01*
X57728218Y-77386072D01*
X57729000Y-77402000D01*
X57729000Y-79052000D01*
X57728218Y-79067928D01*
X57725878Y-79083702D01*
X57722003Y-79099171D01*
X57716630Y-79114186D01*
X57709812Y-79128602D01*
X57701614Y-79142280D01*
X57692114Y-79155089D01*
X57681405Y-79166905D01*
X57669589Y-79177614D01*
X57656780Y-79187114D01*
X57643102Y-79195312D01*
X57628686Y-79202130D01*
X57613671Y-79207503D01*
X57598202Y-79211378D01*
X57582428Y-79213718D01*
X57566500Y-79214500D01*
X57241500Y-79214500D01*
X57225572Y-79213718D01*
X57209798Y-79211378D01*
X57194329Y-79207503D01*
X57179314Y-79202130D01*
X57164898Y-79195312D01*
X57151220Y-79187114D01*
X57138411Y-79177614D01*
X57126595Y-79166905D01*
X57115886Y-79155089D01*
X57106386Y-79142280D01*
X57098188Y-79128602D01*
X57091370Y-79114186D01*
X57085997Y-79099171D01*
X57082122Y-79083702D01*
X57079782Y-79067928D01*
X57079000Y-79052000D01*
X57079000Y-77402000D01*
X57079782Y-77386072D01*
X57082122Y-77370298D01*
X57085997Y-77354829D01*
X57091370Y-77339814D01*
X57098188Y-77325398D01*
X57106386Y-77311720D01*
X57115886Y-77298911D01*
X57126595Y-77287095D01*
X57138411Y-77276386D01*
X57151220Y-77266886D01*
X57164898Y-77258688D01*
X57179314Y-77251870D01*
X57194329Y-77246497D01*
X57209798Y-77242622D01*
X57225572Y-77240282D01*
X57241500Y-77239500D01*
X57566500Y-77239500D01*
X57582428Y-77240282D01*
X57582428Y-77240282D01*
G37*
D13*
X57404000Y-78227000D03*
D12*
G36*
X58852428Y-77240282D02*
G01*
X58868202Y-77242622D01*
X58883671Y-77246497D01*
X58898686Y-77251870D01*
X58913102Y-77258688D01*
X58926780Y-77266886D01*
X58939589Y-77276386D01*
X58951405Y-77287095D01*
X58962114Y-77298911D01*
X58971614Y-77311720D01*
X58979812Y-77325398D01*
X58986630Y-77339814D01*
X58992003Y-77354829D01*
X58995878Y-77370298D01*
X58998218Y-77386072D01*
X58999000Y-77402000D01*
X58999000Y-79052000D01*
X58998218Y-79067928D01*
X58995878Y-79083702D01*
X58992003Y-79099171D01*
X58986630Y-79114186D01*
X58979812Y-79128602D01*
X58971614Y-79142280D01*
X58962114Y-79155089D01*
X58951405Y-79166905D01*
X58939589Y-79177614D01*
X58926780Y-79187114D01*
X58913102Y-79195312D01*
X58898686Y-79202130D01*
X58883671Y-79207503D01*
X58868202Y-79211378D01*
X58852428Y-79213718D01*
X58836500Y-79214500D01*
X58511500Y-79214500D01*
X58495572Y-79213718D01*
X58479798Y-79211378D01*
X58464329Y-79207503D01*
X58449314Y-79202130D01*
X58434898Y-79195312D01*
X58421220Y-79187114D01*
X58408411Y-79177614D01*
X58396595Y-79166905D01*
X58385886Y-79155089D01*
X58376386Y-79142280D01*
X58368188Y-79128602D01*
X58361370Y-79114186D01*
X58355997Y-79099171D01*
X58352122Y-79083702D01*
X58349782Y-79067928D01*
X58349000Y-79052000D01*
X58349000Y-77402000D01*
X58349782Y-77386072D01*
X58352122Y-77370298D01*
X58355997Y-77354829D01*
X58361370Y-77339814D01*
X58368188Y-77325398D01*
X58376386Y-77311720D01*
X58385886Y-77298911D01*
X58396595Y-77287095D01*
X58408411Y-77276386D01*
X58421220Y-77266886D01*
X58434898Y-77258688D01*
X58449314Y-77251870D01*
X58464329Y-77246497D01*
X58479798Y-77242622D01*
X58495572Y-77240282D01*
X58511500Y-77239500D01*
X58836500Y-77239500D01*
X58852428Y-77240282D01*
X58852428Y-77240282D01*
G37*
D13*
X58674000Y-78227000D03*
D12*
G36*
X60122428Y-77240282D02*
G01*
X60138202Y-77242622D01*
X60153671Y-77246497D01*
X60168686Y-77251870D01*
X60183102Y-77258688D01*
X60196780Y-77266886D01*
X60209589Y-77276386D01*
X60221405Y-77287095D01*
X60232114Y-77298911D01*
X60241614Y-77311720D01*
X60249812Y-77325398D01*
X60256630Y-77339814D01*
X60262003Y-77354829D01*
X60265878Y-77370298D01*
X60268218Y-77386072D01*
X60269000Y-77402000D01*
X60269000Y-79052000D01*
X60268218Y-79067928D01*
X60265878Y-79083702D01*
X60262003Y-79099171D01*
X60256630Y-79114186D01*
X60249812Y-79128602D01*
X60241614Y-79142280D01*
X60232114Y-79155089D01*
X60221405Y-79166905D01*
X60209589Y-79177614D01*
X60196780Y-79187114D01*
X60183102Y-79195312D01*
X60168686Y-79202130D01*
X60153671Y-79207503D01*
X60138202Y-79211378D01*
X60122428Y-79213718D01*
X60106500Y-79214500D01*
X59781500Y-79214500D01*
X59765572Y-79213718D01*
X59749798Y-79211378D01*
X59734329Y-79207503D01*
X59719314Y-79202130D01*
X59704898Y-79195312D01*
X59691220Y-79187114D01*
X59678411Y-79177614D01*
X59666595Y-79166905D01*
X59655886Y-79155089D01*
X59646386Y-79142280D01*
X59638188Y-79128602D01*
X59631370Y-79114186D01*
X59625997Y-79099171D01*
X59622122Y-79083702D01*
X59619782Y-79067928D01*
X59619000Y-79052000D01*
X59619000Y-77402000D01*
X59619782Y-77386072D01*
X59622122Y-77370298D01*
X59625997Y-77354829D01*
X59631370Y-77339814D01*
X59638188Y-77325398D01*
X59646386Y-77311720D01*
X59655886Y-77298911D01*
X59666595Y-77287095D01*
X59678411Y-77276386D01*
X59691220Y-77266886D01*
X59704898Y-77258688D01*
X59719314Y-77251870D01*
X59734329Y-77246497D01*
X59749798Y-77242622D01*
X59765572Y-77240282D01*
X59781500Y-77239500D01*
X60106500Y-77239500D01*
X60122428Y-77240282D01*
X60122428Y-77240282D01*
G37*
D13*
X59944000Y-78227000D03*
D14*
X54102000Y-67310000D03*
D15*
X59182000Y-67310000D03*
D12*
G36*
X59268505Y-69913204D02*
G01*
X59292773Y-69916804D01*
X59316572Y-69922765D01*
X59339671Y-69931030D01*
X59361850Y-69941520D01*
X59382893Y-69954132D01*
X59402599Y-69968747D01*
X59420777Y-69985223D01*
X59437253Y-70003401D01*
X59451868Y-70023107D01*
X59464480Y-70044150D01*
X59474970Y-70066329D01*
X59483235Y-70089428D01*
X59489196Y-70113227D01*
X59492796Y-70137495D01*
X59494000Y-70161999D01*
X59494000Y-71062001D01*
X59492796Y-71086505D01*
X59489196Y-71110773D01*
X59483235Y-71134572D01*
X59474970Y-71157671D01*
X59464480Y-71179850D01*
X59451868Y-71200893D01*
X59437253Y-71220599D01*
X59420777Y-71238777D01*
X59402599Y-71255253D01*
X59382893Y-71269868D01*
X59361850Y-71282480D01*
X59339671Y-71292970D01*
X59316572Y-71301235D01*
X59292773Y-71307196D01*
X59268505Y-71310796D01*
X59244001Y-71312000D01*
X58593999Y-71312000D01*
X58569495Y-71310796D01*
X58545227Y-71307196D01*
X58521428Y-71301235D01*
X58498329Y-71292970D01*
X58476150Y-71282480D01*
X58455107Y-71269868D01*
X58435401Y-71255253D01*
X58417223Y-71238777D01*
X58400747Y-71220599D01*
X58386132Y-71200893D01*
X58373520Y-71179850D01*
X58363030Y-71157671D01*
X58354765Y-71134572D01*
X58348804Y-71110773D01*
X58345204Y-71086505D01*
X58344000Y-71062001D01*
X58344000Y-70161999D01*
X58345204Y-70137495D01*
X58348804Y-70113227D01*
X58354765Y-70089428D01*
X58363030Y-70066329D01*
X58373520Y-70044150D01*
X58386132Y-70023107D01*
X58400747Y-70003401D01*
X58417223Y-69985223D01*
X58435401Y-69968747D01*
X58455107Y-69954132D01*
X58476150Y-69941520D01*
X58498329Y-69931030D01*
X58521428Y-69922765D01*
X58545227Y-69916804D01*
X58569495Y-69913204D01*
X58593999Y-69912000D01*
X59244001Y-69912000D01*
X59268505Y-69913204D01*
X59268505Y-69913204D01*
G37*
D16*
X58919000Y-70612000D03*
D12*
G36*
X61318505Y-69913204D02*
G01*
X61342773Y-69916804D01*
X61366572Y-69922765D01*
X61389671Y-69931030D01*
X61411850Y-69941520D01*
X61432893Y-69954132D01*
X61452599Y-69968747D01*
X61470777Y-69985223D01*
X61487253Y-70003401D01*
X61501868Y-70023107D01*
X61514480Y-70044150D01*
X61524970Y-70066329D01*
X61533235Y-70089428D01*
X61539196Y-70113227D01*
X61542796Y-70137495D01*
X61544000Y-70161999D01*
X61544000Y-71062001D01*
X61542796Y-71086505D01*
X61539196Y-71110773D01*
X61533235Y-71134572D01*
X61524970Y-71157671D01*
X61514480Y-71179850D01*
X61501868Y-71200893D01*
X61487253Y-71220599D01*
X61470777Y-71238777D01*
X61452599Y-71255253D01*
X61432893Y-71269868D01*
X61411850Y-71282480D01*
X61389671Y-71292970D01*
X61366572Y-71301235D01*
X61342773Y-71307196D01*
X61318505Y-71310796D01*
X61294001Y-71312000D01*
X60643999Y-71312000D01*
X60619495Y-71310796D01*
X60595227Y-71307196D01*
X60571428Y-71301235D01*
X60548329Y-71292970D01*
X60526150Y-71282480D01*
X60505107Y-71269868D01*
X60485401Y-71255253D01*
X60467223Y-71238777D01*
X60450747Y-71220599D01*
X60436132Y-71200893D01*
X60423520Y-71179850D01*
X60413030Y-71157671D01*
X60404765Y-71134572D01*
X60398804Y-71110773D01*
X60395204Y-71086505D01*
X60394000Y-71062001D01*
X60394000Y-70161999D01*
X60395204Y-70137495D01*
X60398804Y-70113227D01*
X60404765Y-70089428D01*
X60413030Y-70066329D01*
X60423520Y-70044150D01*
X60436132Y-70023107D01*
X60450747Y-70003401D01*
X60467223Y-69985223D01*
X60485401Y-69968747D01*
X60505107Y-69954132D01*
X60526150Y-69941520D01*
X60548329Y-69931030D01*
X60571428Y-69922765D01*
X60595227Y-69916804D01*
X60619495Y-69913204D01*
X60643999Y-69912000D01*
X61294001Y-69912000D01*
X61318505Y-69913204D01*
X61318505Y-69913204D01*
G37*
D16*
X60969000Y-70612000D03*
D12*
G36*
X62325505Y-78803204D02*
G01*
X62349773Y-78806804D01*
X62373572Y-78812765D01*
X62396671Y-78821030D01*
X62418850Y-78831520D01*
X62439893Y-78844132D01*
X62459599Y-78858747D01*
X62477777Y-78875223D01*
X62494253Y-78893401D01*
X62508868Y-78913107D01*
X62521480Y-78934150D01*
X62531970Y-78956329D01*
X62540235Y-78979428D01*
X62546196Y-79003227D01*
X62549796Y-79027495D01*
X62551000Y-79051999D01*
X62551000Y-79952001D01*
X62549796Y-79976505D01*
X62546196Y-80000773D01*
X62540235Y-80024572D01*
X62531970Y-80047671D01*
X62521480Y-80069850D01*
X62508868Y-80090893D01*
X62494253Y-80110599D01*
X62477777Y-80128777D01*
X62459599Y-80145253D01*
X62439893Y-80159868D01*
X62418850Y-80172480D01*
X62396671Y-80182970D01*
X62373572Y-80191235D01*
X62349773Y-80197196D01*
X62325505Y-80200796D01*
X62301001Y-80202000D01*
X61650999Y-80202000D01*
X61626495Y-80200796D01*
X61602227Y-80197196D01*
X61578428Y-80191235D01*
X61555329Y-80182970D01*
X61533150Y-80172480D01*
X61512107Y-80159868D01*
X61492401Y-80145253D01*
X61474223Y-80128777D01*
X61457747Y-80110599D01*
X61443132Y-80090893D01*
X61430520Y-80069850D01*
X61420030Y-80047671D01*
X61411765Y-80024572D01*
X61405804Y-80000773D01*
X61402204Y-79976505D01*
X61401000Y-79952001D01*
X61401000Y-79051999D01*
X61402204Y-79027495D01*
X61405804Y-79003227D01*
X61411765Y-78979428D01*
X61420030Y-78956329D01*
X61430520Y-78934150D01*
X61443132Y-78913107D01*
X61457747Y-78893401D01*
X61474223Y-78875223D01*
X61492401Y-78858747D01*
X61512107Y-78844132D01*
X61533150Y-78831520D01*
X61555329Y-78821030D01*
X61578428Y-78812765D01*
X61602227Y-78806804D01*
X61626495Y-78803204D01*
X61650999Y-78802000D01*
X62301001Y-78802000D01*
X62325505Y-78803204D01*
X62325505Y-78803204D01*
G37*
D16*
X61976000Y-79502000D03*
D12*
G36*
X64375505Y-78803204D02*
G01*
X64399773Y-78806804D01*
X64423572Y-78812765D01*
X64446671Y-78821030D01*
X64468850Y-78831520D01*
X64489893Y-78844132D01*
X64509599Y-78858747D01*
X64527777Y-78875223D01*
X64544253Y-78893401D01*
X64558868Y-78913107D01*
X64571480Y-78934150D01*
X64581970Y-78956329D01*
X64590235Y-78979428D01*
X64596196Y-79003227D01*
X64599796Y-79027495D01*
X64601000Y-79051999D01*
X64601000Y-79952001D01*
X64599796Y-79976505D01*
X64596196Y-80000773D01*
X64590235Y-80024572D01*
X64581970Y-80047671D01*
X64571480Y-80069850D01*
X64558868Y-80090893D01*
X64544253Y-80110599D01*
X64527777Y-80128777D01*
X64509599Y-80145253D01*
X64489893Y-80159868D01*
X64468850Y-80172480D01*
X64446671Y-80182970D01*
X64423572Y-80191235D01*
X64399773Y-80197196D01*
X64375505Y-80200796D01*
X64351001Y-80202000D01*
X63700999Y-80202000D01*
X63676495Y-80200796D01*
X63652227Y-80197196D01*
X63628428Y-80191235D01*
X63605329Y-80182970D01*
X63583150Y-80172480D01*
X63562107Y-80159868D01*
X63542401Y-80145253D01*
X63524223Y-80128777D01*
X63507747Y-80110599D01*
X63493132Y-80090893D01*
X63480520Y-80069850D01*
X63470030Y-80047671D01*
X63461765Y-80024572D01*
X63455804Y-80000773D01*
X63452204Y-79976505D01*
X63451000Y-79952001D01*
X63451000Y-79051999D01*
X63452204Y-79027495D01*
X63455804Y-79003227D01*
X63461765Y-78979428D01*
X63470030Y-78956329D01*
X63480520Y-78934150D01*
X63493132Y-78913107D01*
X63507747Y-78893401D01*
X63524223Y-78875223D01*
X63542401Y-78858747D01*
X63562107Y-78844132D01*
X63583150Y-78831520D01*
X63605329Y-78821030D01*
X63628428Y-78812765D01*
X63652227Y-78806804D01*
X63676495Y-78803204D01*
X63700999Y-78802000D01*
X64351001Y-78802000D01*
X64375505Y-78803204D01*
X64375505Y-78803204D01*
G37*
D16*
X64026000Y-79502000D03*
D12*
G36*
X54576505Y-71816204D02*
G01*
X54600773Y-71819804D01*
X54624572Y-71825765D01*
X54647671Y-71834030D01*
X54669850Y-71844520D01*
X54690893Y-71857132D01*
X54710599Y-71871747D01*
X54728777Y-71888223D01*
X54745253Y-71906401D01*
X54759868Y-71926107D01*
X54772480Y-71947150D01*
X54782970Y-71969329D01*
X54791235Y-71992428D01*
X54797196Y-72016227D01*
X54800796Y-72040495D01*
X54802000Y-72064999D01*
X54802000Y-72715001D01*
X54800796Y-72739505D01*
X54797196Y-72763773D01*
X54791235Y-72787572D01*
X54782970Y-72810671D01*
X54772480Y-72832850D01*
X54759868Y-72853893D01*
X54745253Y-72873599D01*
X54728777Y-72891777D01*
X54710599Y-72908253D01*
X54690893Y-72922868D01*
X54669850Y-72935480D01*
X54647671Y-72945970D01*
X54624572Y-72954235D01*
X54600773Y-72960196D01*
X54576505Y-72963796D01*
X54552001Y-72965000D01*
X53651999Y-72965000D01*
X53627495Y-72963796D01*
X53603227Y-72960196D01*
X53579428Y-72954235D01*
X53556329Y-72945970D01*
X53534150Y-72935480D01*
X53513107Y-72922868D01*
X53493401Y-72908253D01*
X53475223Y-72891777D01*
X53458747Y-72873599D01*
X53444132Y-72853893D01*
X53431520Y-72832850D01*
X53421030Y-72810671D01*
X53412765Y-72787572D01*
X53406804Y-72763773D01*
X53403204Y-72739505D01*
X53402000Y-72715001D01*
X53402000Y-72064999D01*
X53403204Y-72040495D01*
X53406804Y-72016227D01*
X53412765Y-71992428D01*
X53421030Y-71969329D01*
X53431520Y-71947150D01*
X53444132Y-71926107D01*
X53458747Y-71906401D01*
X53475223Y-71888223D01*
X53493401Y-71871747D01*
X53513107Y-71857132D01*
X53534150Y-71844520D01*
X53556329Y-71834030D01*
X53579428Y-71825765D01*
X53603227Y-71819804D01*
X53627495Y-71816204D01*
X53651999Y-71815000D01*
X54552001Y-71815000D01*
X54576505Y-71816204D01*
X54576505Y-71816204D01*
G37*
D16*
X54102000Y-72390000D03*
D12*
G36*
X54576505Y-73866204D02*
G01*
X54600773Y-73869804D01*
X54624572Y-73875765D01*
X54647671Y-73884030D01*
X54669850Y-73894520D01*
X54690893Y-73907132D01*
X54710599Y-73921747D01*
X54728777Y-73938223D01*
X54745253Y-73956401D01*
X54759868Y-73976107D01*
X54772480Y-73997150D01*
X54782970Y-74019329D01*
X54791235Y-74042428D01*
X54797196Y-74066227D01*
X54800796Y-74090495D01*
X54802000Y-74114999D01*
X54802000Y-74765001D01*
X54800796Y-74789505D01*
X54797196Y-74813773D01*
X54791235Y-74837572D01*
X54782970Y-74860671D01*
X54772480Y-74882850D01*
X54759868Y-74903893D01*
X54745253Y-74923599D01*
X54728777Y-74941777D01*
X54710599Y-74958253D01*
X54690893Y-74972868D01*
X54669850Y-74985480D01*
X54647671Y-74995970D01*
X54624572Y-75004235D01*
X54600773Y-75010196D01*
X54576505Y-75013796D01*
X54552001Y-75015000D01*
X53651999Y-75015000D01*
X53627495Y-75013796D01*
X53603227Y-75010196D01*
X53579428Y-75004235D01*
X53556329Y-74995970D01*
X53534150Y-74985480D01*
X53513107Y-74972868D01*
X53493401Y-74958253D01*
X53475223Y-74941777D01*
X53458747Y-74923599D01*
X53444132Y-74903893D01*
X53431520Y-74882850D01*
X53421030Y-74860671D01*
X53412765Y-74837572D01*
X53406804Y-74813773D01*
X53403204Y-74789505D01*
X53402000Y-74765001D01*
X53402000Y-74114999D01*
X53403204Y-74090495D01*
X53406804Y-74066227D01*
X53412765Y-74042428D01*
X53421030Y-74019329D01*
X53431520Y-73997150D01*
X53444132Y-73976107D01*
X53458747Y-73956401D01*
X53475223Y-73938223D01*
X53493401Y-73921747D01*
X53513107Y-73907132D01*
X53534150Y-73894520D01*
X53556329Y-73884030D01*
X53579428Y-73875765D01*
X53603227Y-73869804D01*
X53627495Y-73866204D01*
X53651999Y-73865000D01*
X54552001Y-73865000D01*
X54576505Y-73866204D01*
X54576505Y-73866204D01*
G37*
D16*
X54102000Y-74440000D03*
D12*
G36*
X54576505Y-75617204D02*
G01*
X54600773Y-75620804D01*
X54624572Y-75626765D01*
X54647671Y-75635030D01*
X54669850Y-75645520D01*
X54690893Y-75658132D01*
X54710599Y-75672747D01*
X54728777Y-75689223D01*
X54745253Y-75707401D01*
X54759868Y-75727107D01*
X54772480Y-75748150D01*
X54782970Y-75770329D01*
X54791235Y-75793428D01*
X54797196Y-75817227D01*
X54800796Y-75841495D01*
X54802000Y-75865999D01*
X54802000Y-76516001D01*
X54800796Y-76540505D01*
X54797196Y-76564773D01*
X54791235Y-76588572D01*
X54782970Y-76611671D01*
X54772480Y-76633850D01*
X54759868Y-76654893D01*
X54745253Y-76674599D01*
X54728777Y-76692777D01*
X54710599Y-76709253D01*
X54690893Y-76723868D01*
X54669850Y-76736480D01*
X54647671Y-76746970D01*
X54624572Y-76755235D01*
X54600773Y-76761196D01*
X54576505Y-76764796D01*
X54552001Y-76766000D01*
X53651999Y-76766000D01*
X53627495Y-76764796D01*
X53603227Y-76761196D01*
X53579428Y-76755235D01*
X53556329Y-76746970D01*
X53534150Y-76736480D01*
X53513107Y-76723868D01*
X53493401Y-76709253D01*
X53475223Y-76692777D01*
X53458747Y-76674599D01*
X53444132Y-76654893D01*
X53431520Y-76633850D01*
X53421030Y-76611671D01*
X53412765Y-76588572D01*
X53406804Y-76564773D01*
X53403204Y-76540505D01*
X53402000Y-76516001D01*
X53402000Y-75865999D01*
X53403204Y-75841495D01*
X53406804Y-75817227D01*
X53412765Y-75793428D01*
X53421030Y-75770329D01*
X53431520Y-75748150D01*
X53444132Y-75727107D01*
X53458747Y-75707401D01*
X53475223Y-75689223D01*
X53493401Y-75672747D01*
X53513107Y-75658132D01*
X53534150Y-75645520D01*
X53556329Y-75635030D01*
X53579428Y-75626765D01*
X53603227Y-75620804D01*
X53627495Y-75617204D01*
X53651999Y-75616000D01*
X54552001Y-75616000D01*
X54576505Y-75617204D01*
X54576505Y-75617204D01*
G37*
D16*
X54102000Y-76191000D03*
D12*
G36*
X54576505Y-77667204D02*
G01*
X54600773Y-77670804D01*
X54624572Y-77676765D01*
X54647671Y-77685030D01*
X54669850Y-77695520D01*
X54690893Y-77708132D01*
X54710599Y-77722747D01*
X54728777Y-77739223D01*
X54745253Y-77757401D01*
X54759868Y-77777107D01*
X54772480Y-77798150D01*
X54782970Y-77820329D01*
X54791235Y-77843428D01*
X54797196Y-77867227D01*
X54800796Y-77891495D01*
X54802000Y-77915999D01*
X54802000Y-78566001D01*
X54800796Y-78590505D01*
X54797196Y-78614773D01*
X54791235Y-78638572D01*
X54782970Y-78661671D01*
X54772480Y-78683850D01*
X54759868Y-78704893D01*
X54745253Y-78724599D01*
X54728777Y-78742777D01*
X54710599Y-78759253D01*
X54690893Y-78773868D01*
X54669850Y-78786480D01*
X54647671Y-78796970D01*
X54624572Y-78805235D01*
X54600773Y-78811196D01*
X54576505Y-78814796D01*
X54552001Y-78816000D01*
X53651999Y-78816000D01*
X53627495Y-78814796D01*
X53603227Y-78811196D01*
X53579428Y-78805235D01*
X53556329Y-78796970D01*
X53534150Y-78786480D01*
X53513107Y-78773868D01*
X53493401Y-78759253D01*
X53475223Y-78742777D01*
X53458747Y-78724599D01*
X53444132Y-78704893D01*
X53431520Y-78683850D01*
X53421030Y-78661671D01*
X53412765Y-78638572D01*
X53406804Y-78614773D01*
X53403204Y-78590505D01*
X53402000Y-78566001D01*
X53402000Y-77915999D01*
X53403204Y-77891495D01*
X53406804Y-77867227D01*
X53412765Y-77843428D01*
X53421030Y-77820329D01*
X53431520Y-77798150D01*
X53444132Y-77777107D01*
X53458747Y-77757401D01*
X53475223Y-77739223D01*
X53493401Y-77722747D01*
X53513107Y-77708132D01*
X53534150Y-77695520D01*
X53556329Y-77685030D01*
X53579428Y-77676765D01*
X53603227Y-77670804D01*
X53627495Y-77667204D01*
X53651999Y-77666000D01*
X54552001Y-77666000D01*
X54576505Y-77667204D01*
X54576505Y-77667204D01*
G37*
D16*
X54102000Y-78241000D03*
D12*
G36*
X54576505Y-79427204D02*
G01*
X54600773Y-79430804D01*
X54624572Y-79436765D01*
X54647671Y-79445030D01*
X54669850Y-79455520D01*
X54690893Y-79468132D01*
X54710599Y-79482747D01*
X54728777Y-79499223D01*
X54745253Y-79517401D01*
X54759868Y-79537107D01*
X54772480Y-79558150D01*
X54782970Y-79580329D01*
X54791235Y-79603428D01*
X54797196Y-79627227D01*
X54800796Y-79651495D01*
X54802000Y-79675999D01*
X54802000Y-80326001D01*
X54800796Y-80350505D01*
X54797196Y-80374773D01*
X54791235Y-80398572D01*
X54782970Y-80421671D01*
X54772480Y-80443850D01*
X54759868Y-80464893D01*
X54745253Y-80484599D01*
X54728777Y-80502777D01*
X54710599Y-80519253D01*
X54690893Y-80533868D01*
X54669850Y-80546480D01*
X54647671Y-80556970D01*
X54624572Y-80565235D01*
X54600773Y-80571196D01*
X54576505Y-80574796D01*
X54552001Y-80576000D01*
X53651999Y-80576000D01*
X53627495Y-80574796D01*
X53603227Y-80571196D01*
X53579428Y-80565235D01*
X53556329Y-80556970D01*
X53534150Y-80546480D01*
X53513107Y-80533868D01*
X53493401Y-80519253D01*
X53475223Y-80502777D01*
X53458747Y-80484599D01*
X53444132Y-80464893D01*
X53431520Y-80443850D01*
X53421030Y-80421671D01*
X53412765Y-80398572D01*
X53406804Y-80374773D01*
X53403204Y-80350505D01*
X53402000Y-80326001D01*
X53402000Y-79675999D01*
X53403204Y-79651495D01*
X53406804Y-79627227D01*
X53412765Y-79603428D01*
X53421030Y-79580329D01*
X53431520Y-79558150D01*
X53444132Y-79537107D01*
X53458747Y-79517401D01*
X53475223Y-79499223D01*
X53493401Y-79482747D01*
X53513107Y-79468132D01*
X53534150Y-79455520D01*
X53556329Y-79445030D01*
X53579428Y-79436765D01*
X53603227Y-79430804D01*
X53627495Y-79427204D01*
X53651999Y-79426000D01*
X54552001Y-79426000D01*
X54576505Y-79427204D01*
X54576505Y-79427204D01*
G37*
D16*
X54102000Y-80001000D03*
D12*
G36*
X54576505Y-81477204D02*
G01*
X54600773Y-81480804D01*
X54624572Y-81486765D01*
X54647671Y-81495030D01*
X54669850Y-81505520D01*
X54690893Y-81518132D01*
X54710599Y-81532747D01*
X54728777Y-81549223D01*
X54745253Y-81567401D01*
X54759868Y-81587107D01*
X54772480Y-81608150D01*
X54782970Y-81630329D01*
X54791235Y-81653428D01*
X54797196Y-81677227D01*
X54800796Y-81701495D01*
X54802000Y-81725999D01*
X54802000Y-82376001D01*
X54800796Y-82400505D01*
X54797196Y-82424773D01*
X54791235Y-82448572D01*
X54782970Y-82471671D01*
X54772480Y-82493850D01*
X54759868Y-82514893D01*
X54745253Y-82534599D01*
X54728777Y-82552777D01*
X54710599Y-82569253D01*
X54690893Y-82583868D01*
X54669850Y-82596480D01*
X54647671Y-82606970D01*
X54624572Y-82615235D01*
X54600773Y-82621196D01*
X54576505Y-82624796D01*
X54552001Y-82626000D01*
X53651999Y-82626000D01*
X53627495Y-82624796D01*
X53603227Y-82621196D01*
X53579428Y-82615235D01*
X53556329Y-82606970D01*
X53534150Y-82596480D01*
X53513107Y-82583868D01*
X53493401Y-82569253D01*
X53475223Y-82552777D01*
X53458747Y-82534599D01*
X53444132Y-82514893D01*
X53431520Y-82493850D01*
X53421030Y-82471671D01*
X53412765Y-82448572D01*
X53406804Y-82424773D01*
X53403204Y-82400505D01*
X53402000Y-82376001D01*
X53402000Y-81725999D01*
X53403204Y-81701495D01*
X53406804Y-81677227D01*
X53412765Y-81653428D01*
X53421030Y-81630329D01*
X53431520Y-81608150D01*
X53444132Y-81587107D01*
X53458747Y-81567401D01*
X53475223Y-81549223D01*
X53493401Y-81532747D01*
X53513107Y-81518132D01*
X53534150Y-81505520D01*
X53556329Y-81495030D01*
X53579428Y-81486765D01*
X53603227Y-81480804D01*
X53627495Y-81477204D01*
X53651999Y-81476000D01*
X54552001Y-81476000D01*
X54576505Y-81477204D01*
X54576505Y-81477204D01*
G37*
D16*
X54102000Y-82051000D03*
D12*
G36*
X54941505Y-55943204D02*
G01*
X54965773Y-55946804D01*
X54989572Y-55952765D01*
X55012671Y-55961030D01*
X55034850Y-55971520D01*
X55055893Y-55984132D01*
X55075599Y-55998747D01*
X55093777Y-56015223D01*
X55110253Y-56033401D01*
X55124868Y-56053107D01*
X55137480Y-56074150D01*
X55147970Y-56096329D01*
X55156235Y-56119428D01*
X55162196Y-56143227D01*
X55165796Y-56167495D01*
X55167000Y-56191999D01*
X55167000Y-57092001D01*
X55165796Y-57116505D01*
X55162196Y-57140773D01*
X55156235Y-57164572D01*
X55147970Y-57187671D01*
X55137480Y-57209850D01*
X55124868Y-57230893D01*
X55110253Y-57250599D01*
X55093777Y-57268777D01*
X55075599Y-57285253D01*
X55055893Y-57299868D01*
X55034850Y-57312480D01*
X55012671Y-57322970D01*
X54989572Y-57331235D01*
X54965773Y-57337196D01*
X54941505Y-57340796D01*
X54917001Y-57342000D01*
X54266999Y-57342000D01*
X54242495Y-57340796D01*
X54218227Y-57337196D01*
X54194428Y-57331235D01*
X54171329Y-57322970D01*
X54149150Y-57312480D01*
X54128107Y-57299868D01*
X54108401Y-57285253D01*
X54090223Y-57268777D01*
X54073747Y-57250599D01*
X54059132Y-57230893D01*
X54046520Y-57209850D01*
X54036030Y-57187671D01*
X54027765Y-57164572D01*
X54021804Y-57140773D01*
X54018204Y-57116505D01*
X54017000Y-57092001D01*
X54017000Y-56191999D01*
X54018204Y-56167495D01*
X54021804Y-56143227D01*
X54027765Y-56119428D01*
X54036030Y-56096329D01*
X54046520Y-56074150D01*
X54059132Y-56053107D01*
X54073747Y-56033401D01*
X54090223Y-56015223D01*
X54108401Y-55998747D01*
X54128107Y-55984132D01*
X54149150Y-55971520D01*
X54171329Y-55961030D01*
X54194428Y-55952765D01*
X54218227Y-55946804D01*
X54242495Y-55943204D01*
X54266999Y-55942000D01*
X54917001Y-55942000D01*
X54941505Y-55943204D01*
X54941505Y-55943204D01*
G37*
D16*
X54592000Y-56642000D03*
D12*
G36*
X56991505Y-55943204D02*
G01*
X57015773Y-55946804D01*
X57039572Y-55952765D01*
X57062671Y-55961030D01*
X57084850Y-55971520D01*
X57105893Y-55984132D01*
X57125599Y-55998747D01*
X57143777Y-56015223D01*
X57160253Y-56033401D01*
X57174868Y-56053107D01*
X57187480Y-56074150D01*
X57197970Y-56096329D01*
X57206235Y-56119428D01*
X57212196Y-56143227D01*
X57215796Y-56167495D01*
X57217000Y-56191999D01*
X57217000Y-57092001D01*
X57215796Y-57116505D01*
X57212196Y-57140773D01*
X57206235Y-57164572D01*
X57197970Y-57187671D01*
X57187480Y-57209850D01*
X57174868Y-57230893D01*
X57160253Y-57250599D01*
X57143777Y-57268777D01*
X57125599Y-57285253D01*
X57105893Y-57299868D01*
X57084850Y-57312480D01*
X57062671Y-57322970D01*
X57039572Y-57331235D01*
X57015773Y-57337196D01*
X56991505Y-57340796D01*
X56967001Y-57342000D01*
X56316999Y-57342000D01*
X56292495Y-57340796D01*
X56268227Y-57337196D01*
X56244428Y-57331235D01*
X56221329Y-57322970D01*
X56199150Y-57312480D01*
X56178107Y-57299868D01*
X56158401Y-57285253D01*
X56140223Y-57268777D01*
X56123747Y-57250599D01*
X56109132Y-57230893D01*
X56096520Y-57209850D01*
X56086030Y-57187671D01*
X56077765Y-57164572D01*
X56071804Y-57140773D01*
X56068204Y-57116505D01*
X56067000Y-57092001D01*
X56067000Y-56191999D01*
X56068204Y-56167495D01*
X56071804Y-56143227D01*
X56077765Y-56119428D01*
X56086030Y-56096329D01*
X56096520Y-56074150D01*
X56109132Y-56053107D01*
X56123747Y-56033401D01*
X56140223Y-56015223D01*
X56158401Y-55998747D01*
X56178107Y-55984132D01*
X56199150Y-55971520D01*
X56221329Y-55961030D01*
X56244428Y-55952765D01*
X56268227Y-55946804D01*
X56292495Y-55943204D01*
X56316999Y-55942000D01*
X56967001Y-55942000D01*
X56991505Y-55943204D01*
X56991505Y-55943204D01*
G37*
D16*
X56642000Y-56642000D03*
D12*
G36*
X56211505Y-53657204D02*
G01*
X56235773Y-53660804D01*
X56259572Y-53666765D01*
X56282671Y-53675030D01*
X56304850Y-53685520D01*
X56325893Y-53698132D01*
X56345599Y-53712747D01*
X56363777Y-53729223D01*
X56380253Y-53747401D01*
X56394868Y-53767107D01*
X56407480Y-53788150D01*
X56417970Y-53810329D01*
X56426235Y-53833428D01*
X56432196Y-53857227D01*
X56435796Y-53881495D01*
X56437000Y-53905999D01*
X56437000Y-54806001D01*
X56435796Y-54830505D01*
X56432196Y-54854773D01*
X56426235Y-54878572D01*
X56417970Y-54901671D01*
X56407480Y-54923850D01*
X56394868Y-54944893D01*
X56380253Y-54964599D01*
X56363777Y-54982777D01*
X56345599Y-54999253D01*
X56325893Y-55013868D01*
X56304850Y-55026480D01*
X56282671Y-55036970D01*
X56259572Y-55045235D01*
X56235773Y-55051196D01*
X56211505Y-55054796D01*
X56187001Y-55056000D01*
X55536999Y-55056000D01*
X55512495Y-55054796D01*
X55488227Y-55051196D01*
X55464428Y-55045235D01*
X55441329Y-55036970D01*
X55419150Y-55026480D01*
X55398107Y-55013868D01*
X55378401Y-54999253D01*
X55360223Y-54982777D01*
X55343747Y-54964599D01*
X55329132Y-54944893D01*
X55316520Y-54923850D01*
X55306030Y-54901671D01*
X55297765Y-54878572D01*
X55291804Y-54854773D01*
X55288204Y-54830505D01*
X55287000Y-54806001D01*
X55287000Y-53905999D01*
X55288204Y-53881495D01*
X55291804Y-53857227D01*
X55297765Y-53833428D01*
X55306030Y-53810329D01*
X55316520Y-53788150D01*
X55329132Y-53767107D01*
X55343747Y-53747401D01*
X55360223Y-53729223D01*
X55378401Y-53712747D01*
X55398107Y-53698132D01*
X55419150Y-53685520D01*
X55441329Y-53675030D01*
X55464428Y-53666765D01*
X55488227Y-53660804D01*
X55512495Y-53657204D01*
X55536999Y-53656000D01*
X56187001Y-53656000D01*
X56211505Y-53657204D01*
X56211505Y-53657204D01*
G37*
D16*
X55862000Y-54356000D03*
D12*
G36*
X58261505Y-53657204D02*
G01*
X58285773Y-53660804D01*
X58309572Y-53666765D01*
X58332671Y-53675030D01*
X58354850Y-53685520D01*
X58375893Y-53698132D01*
X58395599Y-53712747D01*
X58413777Y-53729223D01*
X58430253Y-53747401D01*
X58444868Y-53767107D01*
X58457480Y-53788150D01*
X58467970Y-53810329D01*
X58476235Y-53833428D01*
X58482196Y-53857227D01*
X58485796Y-53881495D01*
X58487000Y-53905999D01*
X58487000Y-54806001D01*
X58485796Y-54830505D01*
X58482196Y-54854773D01*
X58476235Y-54878572D01*
X58467970Y-54901671D01*
X58457480Y-54923850D01*
X58444868Y-54944893D01*
X58430253Y-54964599D01*
X58413777Y-54982777D01*
X58395599Y-54999253D01*
X58375893Y-55013868D01*
X58354850Y-55026480D01*
X58332671Y-55036970D01*
X58309572Y-55045235D01*
X58285773Y-55051196D01*
X58261505Y-55054796D01*
X58237001Y-55056000D01*
X57586999Y-55056000D01*
X57562495Y-55054796D01*
X57538227Y-55051196D01*
X57514428Y-55045235D01*
X57491329Y-55036970D01*
X57469150Y-55026480D01*
X57448107Y-55013868D01*
X57428401Y-54999253D01*
X57410223Y-54982777D01*
X57393747Y-54964599D01*
X57379132Y-54944893D01*
X57366520Y-54923850D01*
X57356030Y-54901671D01*
X57347765Y-54878572D01*
X57341804Y-54854773D01*
X57338204Y-54830505D01*
X57337000Y-54806001D01*
X57337000Y-53905999D01*
X57338204Y-53881495D01*
X57341804Y-53857227D01*
X57347765Y-53833428D01*
X57356030Y-53810329D01*
X57366520Y-53788150D01*
X57379132Y-53767107D01*
X57393747Y-53747401D01*
X57410223Y-53729223D01*
X57428401Y-53712747D01*
X57448107Y-53698132D01*
X57469150Y-53685520D01*
X57491329Y-53675030D01*
X57514428Y-53666765D01*
X57538227Y-53660804D01*
X57562495Y-53657204D01*
X57586999Y-53656000D01*
X58237001Y-53656000D01*
X58261505Y-53657204D01*
X58261505Y-53657204D01*
G37*
D16*
X57912000Y-54356000D03*
D12*
G36*
X58760505Y-55943204D02*
G01*
X58784773Y-55946804D01*
X58808572Y-55952765D01*
X58831671Y-55961030D01*
X58853850Y-55971520D01*
X58874893Y-55984132D01*
X58894599Y-55998747D01*
X58912777Y-56015223D01*
X58929253Y-56033401D01*
X58943868Y-56053107D01*
X58956480Y-56074150D01*
X58966970Y-56096329D01*
X58975235Y-56119428D01*
X58981196Y-56143227D01*
X58984796Y-56167495D01*
X58986000Y-56191999D01*
X58986000Y-57092001D01*
X58984796Y-57116505D01*
X58981196Y-57140773D01*
X58975235Y-57164572D01*
X58966970Y-57187671D01*
X58956480Y-57209850D01*
X58943868Y-57230893D01*
X58929253Y-57250599D01*
X58912777Y-57268777D01*
X58894599Y-57285253D01*
X58874893Y-57299868D01*
X58853850Y-57312480D01*
X58831671Y-57322970D01*
X58808572Y-57331235D01*
X58784773Y-57337196D01*
X58760505Y-57340796D01*
X58736001Y-57342000D01*
X58085999Y-57342000D01*
X58061495Y-57340796D01*
X58037227Y-57337196D01*
X58013428Y-57331235D01*
X57990329Y-57322970D01*
X57968150Y-57312480D01*
X57947107Y-57299868D01*
X57927401Y-57285253D01*
X57909223Y-57268777D01*
X57892747Y-57250599D01*
X57878132Y-57230893D01*
X57865520Y-57209850D01*
X57855030Y-57187671D01*
X57846765Y-57164572D01*
X57840804Y-57140773D01*
X57837204Y-57116505D01*
X57836000Y-57092001D01*
X57836000Y-56191999D01*
X57837204Y-56167495D01*
X57840804Y-56143227D01*
X57846765Y-56119428D01*
X57855030Y-56096329D01*
X57865520Y-56074150D01*
X57878132Y-56053107D01*
X57892747Y-56033401D01*
X57909223Y-56015223D01*
X57927401Y-55998747D01*
X57947107Y-55984132D01*
X57968150Y-55971520D01*
X57990329Y-55961030D01*
X58013428Y-55952765D01*
X58037227Y-55946804D01*
X58061495Y-55943204D01*
X58085999Y-55942000D01*
X58736001Y-55942000D01*
X58760505Y-55943204D01*
X58760505Y-55943204D01*
G37*
D16*
X58411000Y-56642000D03*
D12*
G36*
X60810505Y-55943204D02*
G01*
X60834773Y-55946804D01*
X60858572Y-55952765D01*
X60881671Y-55961030D01*
X60903850Y-55971520D01*
X60924893Y-55984132D01*
X60944599Y-55998747D01*
X60962777Y-56015223D01*
X60979253Y-56033401D01*
X60993868Y-56053107D01*
X61006480Y-56074150D01*
X61016970Y-56096329D01*
X61025235Y-56119428D01*
X61031196Y-56143227D01*
X61034796Y-56167495D01*
X61036000Y-56191999D01*
X61036000Y-57092001D01*
X61034796Y-57116505D01*
X61031196Y-57140773D01*
X61025235Y-57164572D01*
X61016970Y-57187671D01*
X61006480Y-57209850D01*
X60993868Y-57230893D01*
X60979253Y-57250599D01*
X60962777Y-57268777D01*
X60944599Y-57285253D01*
X60924893Y-57299868D01*
X60903850Y-57312480D01*
X60881671Y-57322970D01*
X60858572Y-57331235D01*
X60834773Y-57337196D01*
X60810505Y-57340796D01*
X60786001Y-57342000D01*
X60135999Y-57342000D01*
X60111495Y-57340796D01*
X60087227Y-57337196D01*
X60063428Y-57331235D01*
X60040329Y-57322970D01*
X60018150Y-57312480D01*
X59997107Y-57299868D01*
X59977401Y-57285253D01*
X59959223Y-57268777D01*
X59942747Y-57250599D01*
X59928132Y-57230893D01*
X59915520Y-57209850D01*
X59905030Y-57187671D01*
X59896765Y-57164572D01*
X59890804Y-57140773D01*
X59887204Y-57116505D01*
X59886000Y-57092001D01*
X59886000Y-56191999D01*
X59887204Y-56167495D01*
X59890804Y-56143227D01*
X59896765Y-56119428D01*
X59905030Y-56096329D01*
X59915520Y-56074150D01*
X59928132Y-56053107D01*
X59942747Y-56033401D01*
X59959223Y-56015223D01*
X59977401Y-55998747D01*
X59997107Y-55984132D01*
X60018150Y-55971520D01*
X60040329Y-55961030D01*
X60063428Y-55952765D01*
X60087227Y-55946804D01*
X60111495Y-55943204D01*
X60135999Y-55942000D01*
X60786001Y-55942000D01*
X60810505Y-55943204D01*
X60810505Y-55943204D01*
G37*
D16*
X60461000Y-56642000D03*
D17*
X67564000Y-60920000D03*
D12*
G36*
X68338504Y-57571204D02*
G01*
X68362773Y-57574804D01*
X68386571Y-57580765D01*
X68409671Y-57589030D01*
X68431849Y-57599520D01*
X68452893Y-57612133D01*
X68472598Y-57626747D01*
X68490777Y-57643223D01*
X68507253Y-57661402D01*
X68521867Y-57681107D01*
X68534480Y-57702151D01*
X68544970Y-57724329D01*
X68553235Y-57747429D01*
X68559196Y-57771227D01*
X68562796Y-57795496D01*
X68564000Y-57820000D01*
X68564000Y-59020000D01*
X68562796Y-59044504D01*
X68559196Y-59068773D01*
X68553235Y-59092571D01*
X68544970Y-59115671D01*
X68534480Y-59137849D01*
X68521867Y-59158893D01*
X68507253Y-59178598D01*
X68490777Y-59196777D01*
X68472598Y-59213253D01*
X68452893Y-59227867D01*
X68431849Y-59240480D01*
X68409671Y-59250970D01*
X68386571Y-59259235D01*
X68362773Y-59265196D01*
X68338504Y-59268796D01*
X68314000Y-59270000D01*
X66814000Y-59270000D01*
X66789496Y-59268796D01*
X66765227Y-59265196D01*
X66741429Y-59259235D01*
X66718329Y-59250970D01*
X66696151Y-59240480D01*
X66675107Y-59227867D01*
X66655402Y-59213253D01*
X66637223Y-59196777D01*
X66620747Y-59178598D01*
X66606133Y-59158893D01*
X66593520Y-59137849D01*
X66583030Y-59115671D01*
X66574765Y-59092571D01*
X66568804Y-59068773D01*
X66565204Y-59044504D01*
X66564000Y-59020000D01*
X66564000Y-57820000D01*
X66565204Y-57795496D01*
X66568804Y-57771227D01*
X66574765Y-57747429D01*
X66583030Y-57724329D01*
X66593520Y-57702151D01*
X66606133Y-57681107D01*
X66620747Y-57661402D01*
X66637223Y-57643223D01*
X66655402Y-57626747D01*
X66675107Y-57612133D01*
X66696151Y-57599520D01*
X66718329Y-57589030D01*
X66741429Y-57580765D01*
X66765227Y-57574804D01*
X66789496Y-57571204D01*
X66814000Y-57570000D01*
X68314000Y-57570000D01*
X68338504Y-57571204D01*
X68338504Y-57571204D01*
G37*
D18*
X67564000Y-58420000D03*
D17*
X67564000Y-91400000D03*
D12*
G36*
X68338504Y-88051204D02*
G01*
X68362773Y-88054804D01*
X68386571Y-88060765D01*
X68409671Y-88069030D01*
X68431849Y-88079520D01*
X68452893Y-88092133D01*
X68472598Y-88106747D01*
X68490777Y-88123223D01*
X68507253Y-88141402D01*
X68521867Y-88161107D01*
X68534480Y-88182151D01*
X68544970Y-88204329D01*
X68553235Y-88227429D01*
X68559196Y-88251227D01*
X68562796Y-88275496D01*
X68564000Y-88300000D01*
X68564000Y-89500000D01*
X68562796Y-89524504D01*
X68559196Y-89548773D01*
X68553235Y-89572571D01*
X68544970Y-89595671D01*
X68534480Y-89617849D01*
X68521867Y-89638893D01*
X68507253Y-89658598D01*
X68490777Y-89676777D01*
X68472598Y-89693253D01*
X68452893Y-89707867D01*
X68431849Y-89720480D01*
X68409671Y-89730970D01*
X68386571Y-89739235D01*
X68362773Y-89745196D01*
X68338504Y-89748796D01*
X68314000Y-89750000D01*
X66814000Y-89750000D01*
X66789496Y-89748796D01*
X66765227Y-89745196D01*
X66741429Y-89739235D01*
X66718329Y-89730970D01*
X66696151Y-89720480D01*
X66675107Y-89707867D01*
X66655402Y-89693253D01*
X66637223Y-89676777D01*
X66620747Y-89658598D01*
X66606133Y-89638893D01*
X66593520Y-89617849D01*
X66583030Y-89595671D01*
X66574765Y-89572571D01*
X66568804Y-89548773D01*
X66565204Y-89524504D01*
X66564000Y-89500000D01*
X66564000Y-88300000D01*
X66565204Y-88275496D01*
X66568804Y-88251227D01*
X66574765Y-88227429D01*
X66583030Y-88204329D01*
X66593520Y-88182151D01*
X66606133Y-88161107D01*
X66620747Y-88141402D01*
X66637223Y-88123223D01*
X66655402Y-88106747D01*
X66675107Y-88092133D01*
X66696151Y-88079520D01*
X66718329Y-88069030D01*
X66741429Y-88060765D01*
X66765227Y-88054804D01*
X66789496Y-88051204D01*
X66814000Y-88050000D01*
X68314000Y-88050000D01*
X68338504Y-88051204D01*
X68338504Y-88051204D01*
G37*
D18*
X67564000Y-88900000D03*
D19*
X54234000Y-88646000D03*
D20*
X55504000Y-91186000D03*
X56774000Y-88646000D03*
X58044000Y-91186000D03*
X59314000Y-88646000D03*
X60584000Y-91186000D03*
D19*
X60452000Y-61468000D03*
D20*
X59182000Y-58928000D03*
X57912000Y-61468000D03*
X56642000Y-58928000D03*
X55372000Y-61468000D03*
X54102000Y-58928000D03*
D12*
G36*
X62450505Y-74356204D02*
G01*
X62474773Y-74359804D01*
X62498572Y-74365765D01*
X62521671Y-74374030D01*
X62543850Y-74384520D01*
X62564893Y-74397132D01*
X62584599Y-74411747D01*
X62602777Y-74428223D01*
X62619253Y-74446401D01*
X62633868Y-74466107D01*
X62646480Y-74487150D01*
X62656970Y-74509329D01*
X62665235Y-74532428D01*
X62671196Y-74556227D01*
X62674796Y-74580495D01*
X62676000Y-74604999D01*
X62676000Y-75255001D01*
X62674796Y-75279505D01*
X62671196Y-75303773D01*
X62665235Y-75327572D01*
X62656970Y-75350671D01*
X62646480Y-75372850D01*
X62633868Y-75393893D01*
X62619253Y-75413599D01*
X62602777Y-75431777D01*
X62584599Y-75448253D01*
X62564893Y-75462868D01*
X62543850Y-75475480D01*
X62521671Y-75485970D01*
X62498572Y-75494235D01*
X62474773Y-75500196D01*
X62450505Y-75503796D01*
X62426001Y-75505000D01*
X61525999Y-75505000D01*
X61501495Y-75503796D01*
X61477227Y-75500196D01*
X61453428Y-75494235D01*
X61430329Y-75485970D01*
X61408150Y-75475480D01*
X61387107Y-75462868D01*
X61367401Y-75448253D01*
X61349223Y-75431777D01*
X61332747Y-75413599D01*
X61318132Y-75393893D01*
X61305520Y-75372850D01*
X61295030Y-75350671D01*
X61286765Y-75327572D01*
X61280804Y-75303773D01*
X61277204Y-75279505D01*
X61276000Y-75255001D01*
X61276000Y-74604999D01*
X61277204Y-74580495D01*
X61280804Y-74556227D01*
X61286765Y-74532428D01*
X61295030Y-74509329D01*
X61305520Y-74487150D01*
X61318132Y-74466107D01*
X61332747Y-74446401D01*
X61349223Y-74428223D01*
X61367401Y-74411747D01*
X61387107Y-74397132D01*
X61408150Y-74384520D01*
X61430329Y-74374030D01*
X61453428Y-74365765D01*
X61477227Y-74359804D01*
X61501495Y-74356204D01*
X61525999Y-74355000D01*
X62426001Y-74355000D01*
X62450505Y-74356204D01*
X62450505Y-74356204D01*
G37*
D16*
X61976000Y-74930000D03*
D12*
G36*
X62450505Y-72306204D02*
G01*
X62474773Y-72309804D01*
X62498572Y-72315765D01*
X62521671Y-72324030D01*
X62543850Y-72334520D01*
X62564893Y-72347132D01*
X62584599Y-72361747D01*
X62602777Y-72378223D01*
X62619253Y-72396401D01*
X62633868Y-72416107D01*
X62646480Y-72437150D01*
X62656970Y-72459329D01*
X62665235Y-72482428D01*
X62671196Y-72506227D01*
X62674796Y-72530495D01*
X62676000Y-72554999D01*
X62676000Y-73205001D01*
X62674796Y-73229505D01*
X62671196Y-73253773D01*
X62665235Y-73277572D01*
X62656970Y-73300671D01*
X62646480Y-73322850D01*
X62633868Y-73343893D01*
X62619253Y-73363599D01*
X62602777Y-73381777D01*
X62584599Y-73398253D01*
X62564893Y-73412868D01*
X62543850Y-73425480D01*
X62521671Y-73435970D01*
X62498572Y-73444235D01*
X62474773Y-73450196D01*
X62450505Y-73453796D01*
X62426001Y-73455000D01*
X61525999Y-73455000D01*
X61501495Y-73453796D01*
X61477227Y-73450196D01*
X61453428Y-73444235D01*
X61430329Y-73435970D01*
X61408150Y-73425480D01*
X61387107Y-73412868D01*
X61367401Y-73398253D01*
X61349223Y-73381777D01*
X61332747Y-73363599D01*
X61318132Y-73343893D01*
X61305520Y-73322850D01*
X61295030Y-73300671D01*
X61286765Y-73277572D01*
X61280804Y-73253773D01*
X61277204Y-73229505D01*
X61276000Y-73205001D01*
X61276000Y-72554999D01*
X61277204Y-72530495D01*
X61280804Y-72506227D01*
X61286765Y-72482428D01*
X61295030Y-72459329D01*
X61305520Y-72437150D01*
X61318132Y-72416107D01*
X61332747Y-72396401D01*
X61349223Y-72378223D01*
X61367401Y-72361747D01*
X61387107Y-72347132D01*
X61408150Y-72334520D01*
X61430329Y-72324030D01*
X61453428Y-72315765D01*
X61477227Y-72309804D01*
X61501495Y-72306204D01*
X61525999Y-72305000D01*
X62426001Y-72305000D01*
X62450505Y-72306204D01*
X62450505Y-72306204D01*
G37*
D16*
X61976000Y-72880000D03*
D21*
X56134000Y-76708000D03*
X61468000Y-76200000D03*
X54102000Y-70358000D03*
D22*
X56134000Y-78227000D02*
X56134000Y-76708000D01*
X61976000Y-74930000D02*
X61976000Y-75692000D01*
X61976000Y-75692000D02*
X61468000Y-76200000D01*
X54102000Y-70358000D02*
X54102000Y-72390000D01*
X54592000Y-57386000D02*
X54592000Y-56642000D01*
X55372000Y-61468000D02*
X55372000Y-58166000D01*
X55372000Y-58166000D02*
X54592000Y-57386000D01*
X54592000Y-56152000D02*
X54592000Y-56642000D01*
X55862000Y-54356000D02*
X55862000Y-54882000D01*
X55862000Y-54882000D02*
X54592000Y-56152000D01*
X60960000Y-77216000D02*
X60198000Y-76454000D01*
X62992000Y-78740000D02*
X62484000Y-78232000D01*
X62992000Y-80772000D02*
X62992000Y-78740000D01*
X62484000Y-78232000D02*
X61976000Y-78232000D01*
X61976000Y-78232000D02*
X60960000Y-77216000D01*
X62085000Y-72771000D02*
X61976000Y-72880000D01*
X64008000Y-72771000D02*
X62085000Y-72771000D01*
X61704000Y-73152000D02*
X61976000Y-72880000D01*
X59944000Y-73152000D02*
X61704000Y-73152000D01*
X59944000Y-68072000D02*
X59182000Y-67310000D01*
X59944000Y-73152000D02*
X59944000Y-68072000D01*
X55504000Y-91186000D02*
X55880000Y-91186000D01*
X55880000Y-91186000D02*
X57912000Y-89154000D01*
X57912000Y-89154000D02*
X57912000Y-87122000D01*
X54102000Y-83312000D02*
X54102000Y-82051000D01*
X57912000Y-87122000D02*
X54102000Y-83312000D01*
X65278000Y-80518000D02*
X58674000Y-87122000D01*
X65278000Y-77089000D02*
X65278000Y-80518000D01*
X58674000Y-87122000D02*
X57912000Y-87122000D01*
D23*
X59182000Y-58928000D02*
X59944000Y-58166000D01*
X59944000Y-58166000D02*
X61214000Y-58166000D01*
D22*
X56642000Y-58928000D02*
X56642000Y-56642000D01*
X56642000Y-58928000D02*
X56642000Y-62230000D01*
X54102000Y-64770000D02*
X54102000Y-67310000D01*
X56642000Y-62230000D02*
X54102000Y-64770000D01*
X52324000Y-69088000D02*
X54102000Y-67310000D01*
X58044000Y-91186000D02*
X56520000Y-92710000D01*
X56520000Y-92710000D02*
X54864000Y-92710000D01*
X54864000Y-92710000D02*
X54102000Y-91948000D01*
X54102000Y-91948000D02*
X54102000Y-90678000D01*
X54102000Y-90678000D02*
X54864000Y-89916000D01*
X54864000Y-89916000D02*
X55118000Y-89916000D01*
X55118000Y-89916000D02*
X55499000Y-89535000D01*
X55499000Y-89535000D02*
X55499000Y-86741000D01*
X52324000Y-83566000D02*
X52324000Y-69088000D01*
X55499000Y-86741000D02*
X52324000Y-83566000D01*
D24*
X66508000Y-91400000D02*
X67564000Y-91400000D01*
X65532000Y-90424000D02*
X66508000Y-91400000D01*
X62738000Y-84709000D02*
X65532000Y-87503000D01*
X65532000Y-87503000D02*
X65532000Y-90424000D01*
X67564000Y-86995000D02*
X65278000Y-84709000D01*
X67564000Y-88900000D02*
X67564000Y-86995000D01*
X67564000Y-64135000D02*
X67564000Y-60920000D01*
X66548000Y-65151000D02*
X67564000Y-64135000D01*
X66548000Y-58420000D02*
X67564000Y-58420000D01*
X65532000Y-59436000D02*
X66548000Y-58420000D01*
X64008000Y-65151000D02*
X65532000Y-63627000D01*
X65532000Y-63627000D02*
X65532000Y-59436000D01*
D22*
X54102000Y-78241000D02*
X54102000Y-80001000D01*
X54102000Y-80001000D02*
X58175000Y-80001000D01*
X58674000Y-79502000D02*
X58674000Y-78227000D01*
X58175000Y-80001000D02*
X58674000Y-79502000D01*
X54102000Y-76191000D02*
X54102000Y-74440000D01*
X54102000Y-74440000D02*
X55862000Y-74440000D01*
X56134000Y-74168000D02*
X56134000Y-73152000D01*
X55862000Y-74440000D02*
X56134000Y-74168000D01*
X64026000Y-78377000D02*
X64026000Y-79502000D01*
X62738000Y-77089000D02*
X64026000Y-78377000D01*
X64389000Y-70612000D02*
X66548000Y-72771000D01*
X60969000Y-70612000D02*
X64389000Y-70612000D01*
X60198000Y-79502000D02*
X61976000Y-79502000D01*
X59944000Y-78227000D02*
X59944000Y-79248000D01*
X59944000Y-79248000D02*
X60198000Y-79502000D01*
X58674000Y-70857000D02*
X58919000Y-70612000D01*
X58674000Y-73152000D02*
X58674000Y-70857000D01*
X57912000Y-54356000D02*
X57912000Y-55118000D01*
X58411000Y-55617000D02*
X58411000Y-56642000D01*
X57912000Y-55118000D02*
X58411000Y-55617000D01*
X57404000Y-75692000D02*
X57404000Y-73152000D01*
X57404000Y-78227000D02*
X57404000Y-75692000D01*
X56774000Y-87000000D02*
X56774000Y-88646000D01*
X52832000Y-83058000D02*
X56774000Y-87000000D01*
X52832000Y-77470000D02*
X52832000Y-83058000D01*
X55880000Y-75692000D02*
X55372000Y-76200000D01*
X57404000Y-75692000D02*
X55880000Y-75692000D01*
X55372000Y-76200000D02*
X55372000Y-76708000D01*
X55372000Y-76708000D02*
X54864000Y-77216000D01*
X54864000Y-77216000D02*
X53086000Y-77216000D01*
X53086000Y-77216000D02*
X52832000Y-77470000D01*
X57404000Y-71374000D02*
X57404000Y-73152000D01*
X56515000Y-70485000D02*
X57404000Y-71374000D01*
X56515000Y-64770000D02*
X56515000Y-70485000D01*
X57912000Y-61468000D02*
X57912000Y-63373000D01*
X57912000Y-63373000D02*
X56515000Y-64770000D01*
X57912000Y-58166000D02*
X57912000Y-61468000D01*
X58420000Y-57658000D02*
X57912000Y-58166000D01*
X58411000Y-56642000D02*
X58420000Y-56651000D01*
X58420000Y-56651000D02*
X58420000Y-57658000D01*
D25*
G36*
X60921334Y-50822544D02*
G01*
X60606544Y-51137334D01*
X60359214Y-51507489D01*
X60188851Y-51918782D01*
X60102000Y-52355409D01*
X60102000Y-52800591D01*
X60188851Y-53237218D01*
X60359214Y-53648511D01*
X60606544Y-54018666D01*
X60921334Y-54333456D01*
X61291489Y-54580786D01*
X61702782Y-54751149D01*
X62139409Y-54838000D01*
X62584591Y-54838000D01*
X63021218Y-54751149D01*
X63432511Y-54580786D01*
X63802666Y-54333456D01*
X64117456Y-54018666D01*
X64364786Y-53648511D01*
X64535149Y-53237218D01*
X64622000Y-52800591D01*
X64622000Y-52355409D01*
X64535149Y-51918782D01*
X64364786Y-51507489D01*
X64117456Y-51137334D01*
X63802666Y-50822544D01*
X63611783Y-50695000D01*
X69305001Y-50695000D01*
X69305000Y-99305000D01*
X63904396Y-99305000D01*
X63924666Y-99291456D01*
X64239456Y-98976666D01*
X64486786Y-98606511D01*
X64657149Y-98195218D01*
X64744000Y-97758591D01*
X64744000Y-97313409D01*
X64657149Y-96876782D01*
X64486786Y-96465489D01*
X64239456Y-96095334D01*
X63924666Y-95780544D01*
X63554511Y-95533214D01*
X63143218Y-95362851D01*
X62706591Y-95276000D01*
X62261409Y-95276000D01*
X61824782Y-95362851D01*
X61413489Y-95533214D01*
X61043334Y-95780544D01*
X60728544Y-96095334D01*
X60481214Y-96465489D01*
X60310851Y-96876782D01*
X60224000Y-97313409D01*
X60224000Y-97758591D01*
X60310851Y-98195218D01*
X60481214Y-98606511D01*
X60728544Y-98976666D01*
X61043334Y-99291456D01*
X61063604Y-99305000D01*
X53744396Y-99305000D01*
X53764666Y-99291456D01*
X54079456Y-98976666D01*
X54326786Y-98606511D01*
X54497149Y-98195218D01*
X54584000Y-97758591D01*
X54584000Y-97313409D01*
X54497149Y-96876782D01*
X54326786Y-96465489D01*
X54079456Y-96095334D01*
X53764666Y-95780544D01*
X53394511Y-95533214D01*
X52983218Y-95362851D01*
X52546591Y-95276000D01*
X52101409Y-95276000D01*
X51664782Y-95362851D01*
X51253489Y-95533214D01*
X50883334Y-95780544D01*
X50695000Y-95968878D01*
X50695000Y-69088000D01*
X51560324Y-69088000D01*
X51564001Y-69125332D01*
X51564000Y-83528678D01*
X51560324Y-83566000D01*
X51564000Y-83603322D01*
X51564000Y-83603332D01*
X51574997Y-83714985D01*
X51589728Y-83763546D01*
X51618454Y-83858246D01*
X51689026Y-83990276D01*
X51728871Y-84038826D01*
X51783999Y-84106001D01*
X51813003Y-84129804D01*
X54739001Y-87055803D01*
X54739001Y-87247928D01*
X53474000Y-87247928D01*
X53349518Y-87260188D01*
X53229820Y-87296498D01*
X53119506Y-87355463D01*
X53022815Y-87434815D01*
X52943463Y-87531506D01*
X52884498Y-87641820D01*
X52848188Y-87761518D01*
X52835928Y-87886000D01*
X52835928Y-89406000D01*
X52848188Y-89530482D01*
X52884498Y-89650180D01*
X52943463Y-89760494D01*
X53022815Y-89857185D01*
X53119506Y-89936537D01*
X53229820Y-89995502D01*
X53349518Y-90031812D01*
X53474000Y-90044072D01*
X53661127Y-90044072D01*
X53590998Y-90114201D01*
X53562000Y-90137999D01*
X53538202Y-90166997D01*
X53538201Y-90166998D01*
X53467026Y-90253724D01*
X53396454Y-90385754D01*
X53352998Y-90529015D01*
X53338324Y-90678000D01*
X53342001Y-90715332D01*
X53342000Y-91910677D01*
X53338324Y-91948000D01*
X53342000Y-91985322D01*
X53342000Y-91985332D01*
X53352997Y-92096985D01*
X53383942Y-92198998D01*
X53396454Y-92240246D01*
X53467026Y-92372276D01*
X53504348Y-92417753D01*
X53561999Y-92488001D01*
X53591002Y-92511803D01*
X54300201Y-93221002D01*
X54323999Y-93250001D01*
X54439724Y-93344974D01*
X54571753Y-93415546D01*
X54715014Y-93459003D01*
X54826667Y-93470000D01*
X54826675Y-93470000D01*
X54864000Y-93473676D01*
X54901325Y-93470000D01*
X56482678Y-93470000D01*
X56520000Y-93473676D01*
X56557322Y-93470000D01*
X56557333Y-93470000D01*
X56668986Y-93459003D01*
X56812247Y-93415546D01*
X56944276Y-93344974D01*
X57060001Y-93250001D01*
X57083803Y-93220998D01*
X57754131Y-92550671D01*
X57906604Y-92581000D01*
X58181396Y-92581000D01*
X58450907Y-92527391D01*
X58704780Y-92422233D01*
X58933261Y-92269567D01*
X59127567Y-92075261D01*
X59280233Y-91846780D01*
X59314000Y-91765260D01*
X59347767Y-91846780D01*
X59500433Y-92075261D01*
X59694739Y-92269567D01*
X59923220Y-92422233D01*
X60177093Y-92527391D01*
X60446604Y-92581000D01*
X60721396Y-92581000D01*
X60990907Y-92527391D01*
X61244780Y-92422233D01*
X61473261Y-92269567D01*
X61667567Y-92075261D01*
X61820233Y-91846780D01*
X61925391Y-91592907D01*
X61979000Y-91323396D01*
X61979000Y-91048604D01*
X61925391Y-90779093D01*
X61820233Y-90525220D01*
X61667567Y-90296739D01*
X61473261Y-90102433D01*
X61244780Y-89949767D01*
X60990907Y-89844609D01*
X60721396Y-89791000D01*
X60446604Y-89791000D01*
X60177093Y-89844609D01*
X59923220Y-89949767D01*
X59694739Y-90102433D01*
X59500433Y-90296739D01*
X59347767Y-90525220D01*
X59314000Y-90606740D01*
X59280233Y-90525220D01*
X59127567Y-90296739D01*
X58933261Y-90102433D01*
X58704780Y-89949767D01*
X58450907Y-89844609D01*
X58181396Y-89791000D01*
X57906604Y-89791000D01*
X57637093Y-89844609D01*
X57383220Y-89949767D01*
X57154739Y-90102433D01*
X56960433Y-90296739D01*
X56807767Y-90525220D01*
X56776170Y-90601501D01*
X56769744Y-90583674D01*
X56708025Y-90468206D01*
X56468137Y-90401469D01*
X55683605Y-91186000D01*
X55697748Y-91200142D01*
X55518142Y-91379748D01*
X55504000Y-91365605D01*
X55489858Y-91379748D01*
X55310253Y-91200143D01*
X55324395Y-91186000D01*
X55310253Y-91171858D01*
X55489858Y-90992252D01*
X55504000Y-91006395D01*
X56288531Y-90221863D01*
X56221794Y-89981975D01*
X56141912Y-89944425D01*
X56163928Y-89903237D01*
X56367093Y-89987391D01*
X56636604Y-90041000D01*
X56911396Y-90041000D01*
X57180907Y-89987391D01*
X57434780Y-89882233D01*
X57663261Y-89729567D01*
X57857567Y-89535261D01*
X58010233Y-89306780D01*
X58044000Y-89225260D01*
X58077767Y-89306780D01*
X58230433Y-89535261D01*
X58424739Y-89729567D01*
X58653220Y-89882233D01*
X58907093Y-89987391D01*
X59176604Y-90041000D01*
X59451396Y-90041000D01*
X59720907Y-89987391D01*
X59974780Y-89882233D01*
X60203261Y-89729567D01*
X60397567Y-89535261D01*
X60550233Y-89306780D01*
X60655391Y-89052907D01*
X60709000Y-88783396D01*
X60709000Y-88508604D01*
X60655391Y-88239093D01*
X60550233Y-87985220D01*
X60397567Y-87756739D01*
X60203261Y-87562433D01*
X59974780Y-87409767D01*
X59720907Y-87304609D01*
X59451396Y-87251000D01*
X59176604Y-87251000D01*
X58907093Y-87304609D01*
X58653220Y-87409767D01*
X58424739Y-87562433D01*
X58230433Y-87756739D01*
X58077767Y-87985220D01*
X58044000Y-88066740D01*
X58010233Y-87985220D01*
X57857567Y-87756739D01*
X57663261Y-87562433D01*
X57534000Y-87476064D01*
X57534000Y-87037323D01*
X57537676Y-87000000D01*
X57534000Y-86962677D01*
X57534000Y-86962667D01*
X57523003Y-86851014D01*
X57479546Y-86707753D01*
X57408974Y-86575724D01*
X57314001Y-86459999D01*
X57285004Y-86436202D01*
X55557802Y-84709000D01*
X61296057Y-84709000D01*
X61323764Y-84990309D01*
X61405818Y-85260808D01*
X61539068Y-85510101D01*
X61718392Y-85728608D01*
X61936899Y-85907932D01*
X62186192Y-86041182D01*
X62456691Y-86123236D01*
X62556983Y-86133114D01*
X64397000Y-87973133D01*
X64397001Y-90368239D01*
X64391509Y-90424000D01*
X64413423Y-90646498D01*
X64478324Y-90860446D01*
X64478325Y-90860447D01*
X64583717Y-91057623D01*
X64725552Y-91230449D01*
X64768860Y-91265991D01*
X65666008Y-92163140D01*
X65701551Y-92206449D01*
X65874377Y-92348284D01*
X66071553Y-92453676D01*
X66285501Y-92518577D01*
X66452248Y-92535000D01*
X66452257Y-92535000D01*
X66456718Y-92535439D01*
X66584986Y-92640706D01*
X66842966Y-92778599D01*
X67122889Y-92863513D01*
X67341050Y-92885000D01*
X67786950Y-92885000D01*
X68005111Y-92863513D01*
X68285034Y-92778599D01*
X68543014Y-92640706D01*
X68769134Y-92455134D01*
X68954706Y-92229014D01*
X69092599Y-91971034D01*
X69177513Y-91691111D01*
X69206185Y-91400000D01*
X69177513Y-91108889D01*
X69092599Y-90828966D01*
X68954706Y-90570986D01*
X68769134Y-90344866D01*
X68705663Y-90292777D01*
X68807386Y-90238405D01*
X68941962Y-90127962D01*
X69052405Y-89993386D01*
X69134472Y-89839850D01*
X69185008Y-89673254D01*
X69202072Y-89500000D01*
X69202072Y-88300000D01*
X69185008Y-88126746D01*
X69134472Y-87960150D01*
X69052405Y-87806614D01*
X68941962Y-87672038D01*
X68807386Y-87561595D01*
X68699000Y-87503661D01*
X68699000Y-87050743D01*
X68704490Y-86994999D01*
X68699000Y-86939255D01*
X68699000Y-86939248D01*
X68682577Y-86772501D01*
X68617676Y-86558553D01*
X68512284Y-86361377D01*
X68370449Y-86188551D01*
X68327141Y-86153009D01*
X66702114Y-84527983D01*
X66692236Y-84427691D01*
X66610182Y-84157192D01*
X66476932Y-83907899D01*
X66297608Y-83689392D01*
X66079101Y-83510068D01*
X65829808Y-83376818D01*
X65559309Y-83294764D01*
X65348492Y-83274000D01*
X65207508Y-83274000D01*
X64996691Y-83294764D01*
X64726192Y-83376818D01*
X64476899Y-83510068D01*
X64258392Y-83689392D01*
X64079068Y-83907899D01*
X64008000Y-84040858D01*
X63936932Y-83907899D01*
X63757608Y-83689392D01*
X63539101Y-83510068D01*
X63289808Y-83376818D01*
X63019309Y-83294764D01*
X62808492Y-83274000D01*
X62667508Y-83274000D01*
X62456691Y-83294764D01*
X62186192Y-83376818D01*
X61936899Y-83510068D01*
X61718392Y-83689392D01*
X61539068Y-83907899D01*
X61405818Y-84157192D01*
X61323764Y-84427691D01*
X61296057Y-84709000D01*
X55557802Y-84709000D01*
X54109802Y-83261000D01*
X54229002Y-83261000D01*
X54229002Y-83102252D01*
X54387750Y-83261000D01*
X54802000Y-83264072D01*
X54926482Y-83251812D01*
X55046180Y-83215502D01*
X55156494Y-83156537D01*
X55253185Y-83077185D01*
X55332537Y-82980494D01*
X55391502Y-82870180D01*
X55427812Y-82750482D01*
X55440072Y-82626000D01*
X55437000Y-82336750D01*
X55278250Y-82178000D01*
X54229000Y-82178000D01*
X54229000Y-82198000D01*
X53975000Y-82198000D01*
X53975000Y-82178000D01*
X53955000Y-82178000D01*
X53955000Y-81924000D01*
X53975000Y-81924000D01*
X53975000Y-81904000D01*
X54229000Y-81904000D01*
X54229000Y-81924000D01*
X55278250Y-81924000D01*
X55437000Y-81765250D01*
X55440072Y-81476000D01*
X55427812Y-81351518D01*
X55391502Y-81231820D01*
X55332537Y-81121506D01*
X55253185Y-81024815D01*
X55173406Y-80959342D01*
X55179962Y-80953962D01*
X55290405Y-80819387D01*
X55321614Y-80761000D01*
X58137678Y-80761000D01*
X58175000Y-80764676D01*
X58212322Y-80761000D01*
X58212333Y-80761000D01*
X58323986Y-80750003D01*
X58467247Y-80706546D01*
X58599276Y-80635974D01*
X58715001Y-80541001D01*
X58738804Y-80511997D01*
X59184998Y-80065803D01*
X59214001Y-80042001D01*
X59308974Y-79926276D01*
X59379546Y-79794247D01*
X59387529Y-79767931D01*
X59404000Y-79788001D01*
X59432998Y-79811799D01*
X59634196Y-80012997D01*
X59657999Y-80042001D01*
X59773724Y-80136974D01*
X59905753Y-80207546D01*
X60049014Y-80251003D01*
X60160667Y-80262000D01*
X60160676Y-80262000D01*
X60197999Y-80265676D01*
X60235322Y-80262000D01*
X60821473Y-80262000D01*
X60830528Y-80291851D01*
X60912595Y-80445387D01*
X61023038Y-80579962D01*
X61157613Y-80690405D01*
X61311149Y-80772472D01*
X61477745Y-80823008D01*
X61650999Y-80840072D01*
X62301001Y-80840072D01*
X62474255Y-80823008D01*
X62640851Y-80772472D01*
X62794387Y-80690405D01*
X62928962Y-80579962D01*
X63001000Y-80492184D01*
X63073038Y-80579962D01*
X63207613Y-80690405D01*
X63361149Y-80772472D01*
X63527745Y-80823008D01*
X63700999Y-80840072D01*
X64351001Y-80840072D01*
X64524255Y-80823008D01*
X64690851Y-80772472D01*
X64844387Y-80690405D01*
X64978962Y-80579962D01*
X65089405Y-80445387D01*
X65171472Y-80291851D01*
X65222008Y-80125255D01*
X65239072Y-79952001D01*
X65239072Y-79051999D01*
X65222008Y-78878745D01*
X65171472Y-78712149D01*
X65089405Y-78558613D01*
X65030010Y-78486240D01*
X65151000Y-78365250D01*
X65151000Y-77216000D01*
X65405000Y-77216000D01*
X65405000Y-78365250D01*
X65563750Y-78524000D01*
X66078000Y-78527072D01*
X66202482Y-78514812D01*
X66322180Y-78478502D01*
X66432494Y-78419537D01*
X66529185Y-78340185D01*
X66608537Y-78243494D01*
X66667502Y-78133180D01*
X66703812Y-78013482D01*
X66716072Y-77889000D01*
X66713000Y-77374750D01*
X66554250Y-77216000D01*
X65405000Y-77216000D01*
X65151000Y-77216000D01*
X65131000Y-77216000D01*
X65131000Y-76962000D01*
X65151000Y-76962000D01*
X65151000Y-75812750D01*
X65405000Y-75812750D01*
X65405000Y-76962000D01*
X66554250Y-76962000D01*
X66713000Y-76803250D01*
X66716072Y-76289000D01*
X66703812Y-76164518D01*
X66667502Y-76044820D01*
X66608537Y-75934506D01*
X66529185Y-75837815D01*
X66432494Y-75758463D01*
X66322180Y-75699498D01*
X66202482Y-75663188D01*
X66078000Y-75650928D01*
X65563750Y-75654000D01*
X65405000Y-75812750D01*
X65151000Y-75812750D01*
X64992250Y-75654000D01*
X64478000Y-75650928D01*
X64353518Y-75663188D01*
X64233820Y-75699498D01*
X64123506Y-75758463D01*
X64026815Y-75837815D01*
X63947463Y-75934506D01*
X63888498Y-76044820D01*
X63852188Y-76164518D01*
X63850419Y-76182482D01*
X63757608Y-76069392D01*
X63539101Y-75890068D01*
X63289808Y-75756818D01*
X63178023Y-75722909D01*
X63246472Y-75594851D01*
X63297008Y-75428255D01*
X63314072Y-75255001D01*
X63314072Y-74604999D01*
X63297008Y-74431745D01*
X63246472Y-74265149D01*
X63216471Y-74209021D01*
X63722250Y-74206000D01*
X63881000Y-74047250D01*
X63881000Y-72898000D01*
X62731750Y-72898000D01*
X62622750Y-73007000D01*
X62103000Y-73007000D01*
X62103000Y-73027000D01*
X61849000Y-73027000D01*
X61849000Y-73007000D01*
X61829000Y-73007000D01*
X61829000Y-72753000D01*
X61849000Y-72753000D01*
X61849000Y-71828750D01*
X61805659Y-71785409D01*
X61921962Y-71689962D01*
X62032405Y-71555387D01*
X62114472Y-71401851D01*
X62123527Y-71372000D01*
X62995131Y-71372000D01*
X62963820Y-71381498D01*
X62853506Y-71440463D01*
X62756815Y-71519815D01*
X62677463Y-71616506D01*
X62650410Y-71667118D01*
X62261750Y-71670000D01*
X62103000Y-71828750D01*
X62103000Y-72753000D01*
X63152250Y-72753000D01*
X63261250Y-72644000D01*
X63881000Y-72644000D01*
X63881000Y-72624000D01*
X64135000Y-72624000D01*
X64135000Y-72644000D01*
X64155000Y-72644000D01*
X64155000Y-72898000D01*
X64135000Y-72898000D01*
X64135000Y-74047250D01*
X64293750Y-74206000D01*
X64808000Y-74209072D01*
X64932482Y-74196812D01*
X65052180Y-74160502D01*
X65162494Y-74101537D01*
X65259185Y-74022185D01*
X65338537Y-73925494D01*
X65397502Y-73815180D01*
X65433812Y-73695482D01*
X65435581Y-73677518D01*
X65528392Y-73790608D01*
X65746899Y-73969932D01*
X65996192Y-74103182D01*
X66266691Y-74185236D01*
X66477508Y-74206000D01*
X66618492Y-74206000D01*
X66829309Y-74185236D01*
X67099808Y-74103182D01*
X67349101Y-73969932D01*
X67567608Y-73790608D01*
X67746932Y-73572101D01*
X67880182Y-73322808D01*
X67962236Y-73052309D01*
X67989943Y-72771000D01*
X67962236Y-72489691D01*
X67880182Y-72219192D01*
X67746932Y-71969899D01*
X67567608Y-71751392D01*
X67349101Y-71572068D01*
X67099808Y-71438818D01*
X66829309Y-71356764D01*
X66618492Y-71336000D01*
X66477508Y-71336000D01*
X66266691Y-71356764D01*
X66222094Y-71370292D01*
X64952804Y-70101003D01*
X64929001Y-70071999D01*
X64813276Y-69977026D01*
X64681247Y-69906454D01*
X64537986Y-69862997D01*
X64426333Y-69852000D01*
X64426322Y-69852000D01*
X64389000Y-69848324D01*
X64351678Y-69852000D01*
X62123527Y-69852000D01*
X62114472Y-69822149D01*
X62032405Y-69668613D01*
X61921962Y-69534038D01*
X61787387Y-69423595D01*
X61633851Y-69341528D01*
X61467255Y-69290992D01*
X61294001Y-69273928D01*
X61117658Y-69273928D01*
X61133185Y-69261185D01*
X61212537Y-69164494D01*
X61271502Y-69054180D01*
X61307812Y-68934482D01*
X61320072Y-68810000D01*
X61317000Y-67595750D01*
X61158250Y-67437000D01*
X59309000Y-67437000D01*
X59309000Y-67457000D01*
X59055000Y-67457000D01*
X59055000Y-67437000D01*
X59035000Y-67437000D01*
X59035000Y-67183000D01*
X59055000Y-67183000D01*
X59055000Y-65333750D01*
X59309000Y-65333750D01*
X59309000Y-67183000D01*
X61158250Y-67183000D01*
X61317000Y-67024250D01*
X61320072Y-65810000D01*
X61307812Y-65685518D01*
X61271502Y-65565820D01*
X61212537Y-65455506D01*
X61133185Y-65358815D01*
X61036494Y-65279463D01*
X60926180Y-65220498D01*
X60806482Y-65184188D01*
X60682000Y-65171928D01*
X59467750Y-65175000D01*
X59309000Y-65333750D01*
X59055000Y-65333750D01*
X58896250Y-65175000D01*
X57682000Y-65171928D01*
X57557518Y-65184188D01*
X57437820Y-65220498D01*
X57327506Y-65279463D01*
X57275000Y-65322553D01*
X57275000Y-65151000D01*
X62566057Y-65151000D01*
X62593764Y-65432309D01*
X62675818Y-65702808D01*
X62809068Y-65952101D01*
X62988392Y-66170608D01*
X63206899Y-66349932D01*
X63456192Y-66483182D01*
X63726691Y-66565236D01*
X63937508Y-66586000D01*
X64078492Y-66586000D01*
X64289309Y-66565236D01*
X64559808Y-66483182D01*
X64809101Y-66349932D01*
X65027608Y-66170608D01*
X65206932Y-65952101D01*
X65278000Y-65819142D01*
X65349068Y-65952101D01*
X65528392Y-66170608D01*
X65746899Y-66349932D01*
X65996192Y-66483182D01*
X66266691Y-66565236D01*
X66477508Y-66586000D01*
X66618492Y-66586000D01*
X66829309Y-66565236D01*
X67099808Y-66483182D01*
X67349101Y-66349932D01*
X67567608Y-66170608D01*
X67746932Y-65952101D01*
X67880182Y-65702808D01*
X67962236Y-65432309D01*
X67972114Y-65332018D01*
X68327140Y-64976992D01*
X68370449Y-64941449D01*
X68512284Y-64768623D01*
X68617676Y-64571447D01*
X68682577Y-64357499D01*
X68699000Y-64190752D01*
X68699000Y-64190751D01*
X68704491Y-64135000D01*
X68699000Y-64079249D01*
X68699000Y-62032692D01*
X68769134Y-61975134D01*
X68954706Y-61749014D01*
X69092599Y-61491034D01*
X69177513Y-61211111D01*
X69206185Y-60920000D01*
X69177513Y-60628889D01*
X69092599Y-60348966D01*
X68954706Y-60090986D01*
X68769134Y-59864866D01*
X68705663Y-59812777D01*
X68807386Y-59758405D01*
X68941962Y-59647962D01*
X69052405Y-59513386D01*
X69134472Y-59359850D01*
X69185008Y-59193254D01*
X69202072Y-59020000D01*
X69202072Y-57820000D01*
X69185008Y-57646746D01*
X69134472Y-57480150D01*
X69052405Y-57326614D01*
X68941962Y-57192038D01*
X68807386Y-57081595D01*
X68653850Y-56999528D01*
X68487254Y-56948992D01*
X68314000Y-56931928D01*
X66814000Y-56931928D01*
X66640746Y-56948992D01*
X66474150Y-56999528D01*
X66320614Y-57081595D01*
X66186038Y-57192038D01*
X66075595Y-57326614D01*
X66031498Y-57409114D01*
X65914377Y-57471716D01*
X65741551Y-57613551D01*
X65706008Y-57656860D01*
X64768860Y-58594009D01*
X64725552Y-58629551D01*
X64583717Y-58802377D01*
X64555107Y-58855903D01*
X64478324Y-58999554D01*
X64413423Y-59213502D01*
X64391509Y-59436000D01*
X64397001Y-59491761D01*
X64397000Y-63156868D01*
X63826983Y-63726886D01*
X63726691Y-63736764D01*
X63456192Y-63818818D01*
X63206899Y-63952068D01*
X62988392Y-64131392D01*
X62809068Y-64349899D01*
X62675818Y-64599192D01*
X62593764Y-64869691D01*
X62566057Y-65151000D01*
X57275000Y-65151000D01*
X57275000Y-65084801D01*
X58423003Y-63936799D01*
X58452001Y-63913001D01*
X58546974Y-63797276D01*
X58617546Y-63665247D01*
X58661003Y-63521986D01*
X58672000Y-63410333D01*
X58672000Y-63410324D01*
X58675676Y-63373001D01*
X58672000Y-63335678D01*
X58672000Y-62637936D01*
X58801261Y-62551567D01*
X58995567Y-62357261D01*
X59057526Y-62264533D01*
X59066188Y-62352482D01*
X59102498Y-62472180D01*
X59161463Y-62582494D01*
X59240815Y-62679185D01*
X59337506Y-62758537D01*
X59447820Y-62817502D01*
X59567518Y-62853812D01*
X59692000Y-62866072D01*
X61212000Y-62866072D01*
X61336482Y-62853812D01*
X61456180Y-62817502D01*
X61566494Y-62758537D01*
X61663185Y-62679185D01*
X61742537Y-62582494D01*
X61801502Y-62472180D01*
X61837812Y-62352482D01*
X61850072Y-62228000D01*
X61850072Y-60708000D01*
X61837812Y-60583518D01*
X61801502Y-60463820D01*
X61742537Y-60353506D01*
X61663185Y-60256815D01*
X61566494Y-60177463D01*
X61456180Y-60118498D01*
X61336482Y-60082188D01*
X61212000Y-60069928D01*
X59917069Y-60069928D01*
X59966531Y-59892137D01*
X59182000Y-59107605D01*
X59167858Y-59121748D01*
X58988253Y-58942143D01*
X59002395Y-58928000D01*
X58988253Y-58913858D01*
X59167858Y-58734252D01*
X59182000Y-58748395D01*
X59196142Y-58734252D01*
X59375748Y-58913858D01*
X59361605Y-58928000D01*
X60146137Y-59712531D01*
X60386025Y-59645794D01*
X60502924Y-59397108D01*
X60569061Y-59130394D01*
X60581895Y-58855903D01*
X60540931Y-58584183D01*
X60447744Y-58325674D01*
X60386025Y-58210206D01*
X60146139Y-58143469D01*
X60262556Y-58027052D01*
X60193877Y-57958373D01*
X60334000Y-57818250D01*
X60334000Y-56769000D01*
X60588000Y-56769000D01*
X60588000Y-57818250D01*
X60746750Y-57977000D01*
X61036000Y-57980072D01*
X61160482Y-57967812D01*
X61280180Y-57931502D01*
X61390494Y-57872537D01*
X61487185Y-57793185D01*
X61566537Y-57696494D01*
X61625502Y-57586180D01*
X61661812Y-57466482D01*
X61674072Y-57342000D01*
X61671000Y-56927750D01*
X61512250Y-56769000D01*
X60588000Y-56769000D01*
X60334000Y-56769000D01*
X60314000Y-56769000D01*
X60314000Y-56515000D01*
X60334000Y-56515000D01*
X60334000Y-55465750D01*
X60588000Y-55465750D01*
X60588000Y-56515000D01*
X61512250Y-56515000D01*
X61671000Y-56356250D01*
X61674072Y-55942000D01*
X61661812Y-55817518D01*
X61625502Y-55697820D01*
X61566537Y-55587506D01*
X61487185Y-55490815D01*
X61390494Y-55411463D01*
X61280180Y-55352498D01*
X61160482Y-55316188D01*
X61036000Y-55303928D01*
X60746750Y-55307000D01*
X60588000Y-55465750D01*
X60334000Y-55465750D01*
X60175250Y-55307000D01*
X59886000Y-55303928D01*
X59761518Y-55316188D01*
X59641820Y-55352498D01*
X59531506Y-55411463D01*
X59434815Y-55490815D01*
X59369342Y-55570594D01*
X59363962Y-55564038D01*
X59229387Y-55453595D01*
X59141356Y-55406541D01*
X59116546Y-55324753D01*
X59045974Y-55192724D01*
X59037765Y-55182721D01*
X59057472Y-55145851D01*
X59108008Y-54979255D01*
X59125072Y-54806001D01*
X59125072Y-53905999D01*
X59108008Y-53732745D01*
X59057472Y-53566149D01*
X58975405Y-53412613D01*
X58864962Y-53278038D01*
X58730387Y-53167595D01*
X58576851Y-53085528D01*
X58410255Y-53034992D01*
X58237001Y-53017928D01*
X57586999Y-53017928D01*
X57413745Y-53034992D01*
X57247149Y-53085528D01*
X57093613Y-53167595D01*
X56959038Y-53278038D01*
X56887000Y-53365816D01*
X56814962Y-53278038D01*
X56680387Y-53167595D01*
X56526851Y-53085528D01*
X56360255Y-53034992D01*
X56187001Y-53017928D01*
X55536999Y-53017928D01*
X55363745Y-53034992D01*
X55197149Y-53085528D01*
X55043613Y-53167595D01*
X54909038Y-53278038D01*
X54798595Y-53412613D01*
X54716528Y-53566149D01*
X54665992Y-53732745D01*
X54648928Y-53905999D01*
X54648928Y-54806001D01*
X54665992Y-54979255D01*
X54671567Y-54997632D01*
X54365271Y-55303928D01*
X54266999Y-55303928D01*
X54093745Y-55320992D01*
X53927149Y-55371528D01*
X53773613Y-55453595D01*
X53639038Y-55564038D01*
X53528595Y-55698613D01*
X53446528Y-55852149D01*
X53395992Y-56018745D01*
X53378928Y-56191999D01*
X53378928Y-57092001D01*
X53395992Y-57265255D01*
X53446528Y-57431851D01*
X53528595Y-57585387D01*
X53571583Y-57637769D01*
X53441220Y-57691767D01*
X53212739Y-57844433D01*
X53018433Y-58038739D01*
X52865767Y-58267220D01*
X52760609Y-58521093D01*
X52707000Y-58790604D01*
X52707000Y-59065396D01*
X52760609Y-59334907D01*
X52865767Y-59588780D01*
X53018433Y-59817261D01*
X53212739Y-60011567D01*
X53441220Y-60164233D01*
X53695093Y-60269391D01*
X53964604Y-60323000D01*
X54239396Y-60323000D01*
X54508907Y-60269391D01*
X54612000Y-60226688D01*
X54612000Y-60298063D01*
X54482739Y-60384433D01*
X54288433Y-60578739D01*
X54135767Y-60807220D01*
X54030609Y-61061093D01*
X53977000Y-61330604D01*
X53977000Y-61605396D01*
X54030609Y-61874907D01*
X54135767Y-62128780D01*
X54288433Y-62357261D01*
X54482739Y-62551567D01*
X54711220Y-62704233D01*
X54965093Y-62809391D01*
X54984038Y-62813159D01*
X53591003Y-64206196D01*
X53561999Y-64229999D01*
X53506871Y-64297174D01*
X53467026Y-64345724D01*
X53443283Y-64390144D01*
X53396454Y-64477754D01*
X53352997Y-64621015D01*
X53342000Y-64732668D01*
X53342000Y-64732678D01*
X53338324Y-64770000D01*
X53342000Y-64807323D01*
X53342000Y-65313895D01*
X53090698Y-65417988D01*
X52741017Y-65651637D01*
X52443637Y-65949017D01*
X52209988Y-66298698D01*
X52049047Y-66687244D01*
X51967000Y-67099721D01*
X51967000Y-67520279D01*
X52049047Y-67932756D01*
X52153140Y-68184059D01*
X51812998Y-68524201D01*
X51784000Y-68547999D01*
X51760202Y-68576997D01*
X51760201Y-68576998D01*
X51689026Y-68663724D01*
X51618454Y-68795754D01*
X51574998Y-68939015D01*
X51560324Y-69088000D01*
X50695000Y-69088000D01*
X50695000Y-54267122D01*
X50761334Y-54333456D01*
X51131489Y-54580786D01*
X51542782Y-54751149D01*
X51979409Y-54838000D01*
X52424591Y-54838000D01*
X52861218Y-54751149D01*
X53272511Y-54580786D01*
X53642666Y-54333456D01*
X53957456Y-54018666D01*
X54204786Y-53648511D01*
X54375149Y-53237218D01*
X54462000Y-52800591D01*
X54462000Y-52355409D01*
X54375149Y-51918782D01*
X54204786Y-51507489D01*
X53957456Y-51137334D01*
X53642666Y-50822544D01*
X53451783Y-50695000D01*
X61112217Y-50695000D01*
X60921334Y-50822544D01*
X60921334Y-50822544D01*
G37*
X60921334Y-50822544D02*
X60606544Y-51137334D01*
X60359214Y-51507489D01*
X60188851Y-51918782D01*
X60102000Y-52355409D01*
X60102000Y-52800591D01*
X60188851Y-53237218D01*
X60359214Y-53648511D01*
X60606544Y-54018666D01*
X60921334Y-54333456D01*
X61291489Y-54580786D01*
X61702782Y-54751149D01*
X62139409Y-54838000D01*
X62584591Y-54838000D01*
X63021218Y-54751149D01*
X63432511Y-54580786D01*
X63802666Y-54333456D01*
X64117456Y-54018666D01*
X64364786Y-53648511D01*
X64535149Y-53237218D01*
X64622000Y-52800591D01*
X64622000Y-52355409D01*
X64535149Y-51918782D01*
X64364786Y-51507489D01*
X64117456Y-51137334D01*
X63802666Y-50822544D01*
X63611783Y-50695000D01*
X69305001Y-50695000D01*
X69305000Y-99305000D01*
X63904396Y-99305000D01*
X63924666Y-99291456D01*
X64239456Y-98976666D01*
X64486786Y-98606511D01*
X64657149Y-98195218D01*
X64744000Y-97758591D01*
X64744000Y-97313409D01*
X64657149Y-96876782D01*
X64486786Y-96465489D01*
X64239456Y-96095334D01*
X63924666Y-95780544D01*
X63554511Y-95533214D01*
X63143218Y-95362851D01*
X62706591Y-95276000D01*
X62261409Y-95276000D01*
X61824782Y-95362851D01*
X61413489Y-95533214D01*
X61043334Y-95780544D01*
X60728544Y-96095334D01*
X60481214Y-96465489D01*
X60310851Y-96876782D01*
X60224000Y-97313409D01*
X60224000Y-97758591D01*
X60310851Y-98195218D01*
X60481214Y-98606511D01*
X60728544Y-98976666D01*
X61043334Y-99291456D01*
X61063604Y-99305000D01*
X53744396Y-99305000D01*
X53764666Y-99291456D01*
X54079456Y-98976666D01*
X54326786Y-98606511D01*
X54497149Y-98195218D01*
X54584000Y-97758591D01*
X54584000Y-97313409D01*
X54497149Y-96876782D01*
X54326786Y-96465489D01*
X54079456Y-96095334D01*
X53764666Y-95780544D01*
X53394511Y-95533214D01*
X52983218Y-95362851D01*
X52546591Y-95276000D01*
X52101409Y-95276000D01*
X51664782Y-95362851D01*
X51253489Y-95533214D01*
X50883334Y-95780544D01*
X50695000Y-95968878D01*
X50695000Y-69088000D01*
X51560324Y-69088000D01*
X51564001Y-69125332D01*
X51564000Y-83528678D01*
X51560324Y-83566000D01*
X51564000Y-83603322D01*
X51564000Y-83603332D01*
X51574997Y-83714985D01*
X51589728Y-83763546D01*
X51618454Y-83858246D01*
X51689026Y-83990276D01*
X51728871Y-84038826D01*
X51783999Y-84106001D01*
X51813003Y-84129804D01*
X54739001Y-87055803D01*
X54739001Y-87247928D01*
X53474000Y-87247928D01*
X53349518Y-87260188D01*
X53229820Y-87296498D01*
X53119506Y-87355463D01*
X53022815Y-87434815D01*
X52943463Y-87531506D01*
X52884498Y-87641820D01*
X52848188Y-87761518D01*
X52835928Y-87886000D01*
X52835928Y-89406000D01*
X52848188Y-89530482D01*
X52884498Y-89650180D01*
X52943463Y-89760494D01*
X53022815Y-89857185D01*
X53119506Y-89936537D01*
X53229820Y-89995502D01*
X53349518Y-90031812D01*
X53474000Y-90044072D01*
X53661127Y-90044072D01*
X53590998Y-90114201D01*
X53562000Y-90137999D01*
X53538202Y-90166997D01*
X53538201Y-90166998D01*
X53467026Y-90253724D01*
X53396454Y-90385754D01*
X53352998Y-90529015D01*
X53338324Y-90678000D01*
X53342001Y-90715332D01*
X53342000Y-91910677D01*
X53338324Y-91948000D01*
X53342000Y-91985322D01*
X53342000Y-91985332D01*
X53352997Y-92096985D01*
X53383942Y-92198998D01*
X53396454Y-92240246D01*
X53467026Y-92372276D01*
X53504348Y-92417753D01*
X53561999Y-92488001D01*
X53591002Y-92511803D01*
X54300201Y-93221002D01*
X54323999Y-93250001D01*
X54439724Y-93344974D01*
X54571753Y-93415546D01*
X54715014Y-93459003D01*
X54826667Y-93470000D01*
X54826675Y-93470000D01*
X54864000Y-93473676D01*
X54901325Y-93470000D01*
X56482678Y-93470000D01*
X56520000Y-93473676D01*
X56557322Y-93470000D01*
X56557333Y-93470000D01*
X56668986Y-93459003D01*
X56812247Y-93415546D01*
X56944276Y-93344974D01*
X57060001Y-93250001D01*
X57083803Y-93220998D01*
X57754131Y-92550671D01*
X57906604Y-92581000D01*
X58181396Y-92581000D01*
X58450907Y-92527391D01*
X58704780Y-92422233D01*
X58933261Y-92269567D01*
X59127567Y-92075261D01*
X59280233Y-91846780D01*
X59314000Y-91765260D01*
X59347767Y-91846780D01*
X59500433Y-92075261D01*
X59694739Y-92269567D01*
X59923220Y-92422233D01*
X60177093Y-92527391D01*
X60446604Y-92581000D01*
X60721396Y-92581000D01*
X60990907Y-92527391D01*
X61244780Y-92422233D01*
X61473261Y-92269567D01*
X61667567Y-92075261D01*
X61820233Y-91846780D01*
X61925391Y-91592907D01*
X61979000Y-91323396D01*
X61979000Y-91048604D01*
X61925391Y-90779093D01*
X61820233Y-90525220D01*
X61667567Y-90296739D01*
X61473261Y-90102433D01*
X61244780Y-89949767D01*
X60990907Y-89844609D01*
X60721396Y-89791000D01*
X60446604Y-89791000D01*
X60177093Y-89844609D01*
X59923220Y-89949767D01*
X59694739Y-90102433D01*
X59500433Y-90296739D01*
X59347767Y-90525220D01*
X59314000Y-90606740D01*
X59280233Y-90525220D01*
X59127567Y-90296739D01*
X58933261Y-90102433D01*
X58704780Y-89949767D01*
X58450907Y-89844609D01*
X58181396Y-89791000D01*
X57906604Y-89791000D01*
X57637093Y-89844609D01*
X57383220Y-89949767D01*
X57154739Y-90102433D01*
X56960433Y-90296739D01*
X56807767Y-90525220D01*
X56776170Y-90601501D01*
X56769744Y-90583674D01*
X56708025Y-90468206D01*
X56468137Y-90401469D01*
X55683605Y-91186000D01*
X55697748Y-91200142D01*
X55518142Y-91379748D01*
X55504000Y-91365605D01*
X55489858Y-91379748D01*
X55310253Y-91200143D01*
X55324395Y-91186000D01*
X55310253Y-91171858D01*
X55489858Y-90992252D01*
X55504000Y-91006395D01*
X56288531Y-90221863D01*
X56221794Y-89981975D01*
X56141912Y-89944425D01*
X56163928Y-89903237D01*
X56367093Y-89987391D01*
X56636604Y-90041000D01*
X56911396Y-90041000D01*
X57180907Y-89987391D01*
X57434780Y-89882233D01*
X57663261Y-89729567D01*
X57857567Y-89535261D01*
X58010233Y-89306780D01*
X58044000Y-89225260D01*
X58077767Y-89306780D01*
X58230433Y-89535261D01*
X58424739Y-89729567D01*
X58653220Y-89882233D01*
X58907093Y-89987391D01*
X59176604Y-90041000D01*
X59451396Y-90041000D01*
X59720907Y-89987391D01*
X59974780Y-89882233D01*
X60203261Y-89729567D01*
X60397567Y-89535261D01*
X60550233Y-89306780D01*
X60655391Y-89052907D01*
X60709000Y-88783396D01*
X60709000Y-88508604D01*
X60655391Y-88239093D01*
X60550233Y-87985220D01*
X60397567Y-87756739D01*
X60203261Y-87562433D01*
X59974780Y-87409767D01*
X59720907Y-87304609D01*
X59451396Y-87251000D01*
X59176604Y-87251000D01*
X58907093Y-87304609D01*
X58653220Y-87409767D01*
X58424739Y-87562433D01*
X58230433Y-87756739D01*
X58077767Y-87985220D01*
X58044000Y-88066740D01*
X58010233Y-87985220D01*
X57857567Y-87756739D01*
X57663261Y-87562433D01*
X57534000Y-87476064D01*
X57534000Y-87037323D01*
X57537676Y-87000000D01*
X57534000Y-86962677D01*
X57534000Y-86962667D01*
X57523003Y-86851014D01*
X57479546Y-86707753D01*
X57408974Y-86575724D01*
X57314001Y-86459999D01*
X57285004Y-86436202D01*
X55557802Y-84709000D01*
X61296057Y-84709000D01*
X61323764Y-84990309D01*
X61405818Y-85260808D01*
X61539068Y-85510101D01*
X61718392Y-85728608D01*
X61936899Y-85907932D01*
X62186192Y-86041182D01*
X62456691Y-86123236D01*
X62556983Y-86133114D01*
X64397000Y-87973133D01*
X64397001Y-90368239D01*
X64391509Y-90424000D01*
X64413423Y-90646498D01*
X64478324Y-90860446D01*
X64478325Y-90860447D01*
X64583717Y-91057623D01*
X64725552Y-91230449D01*
X64768860Y-91265991D01*
X65666008Y-92163140D01*
X65701551Y-92206449D01*
X65874377Y-92348284D01*
X66071553Y-92453676D01*
X66285501Y-92518577D01*
X66452248Y-92535000D01*
X66452257Y-92535000D01*
X66456718Y-92535439D01*
X66584986Y-92640706D01*
X66842966Y-92778599D01*
X67122889Y-92863513D01*
X67341050Y-92885000D01*
X67786950Y-92885000D01*
X68005111Y-92863513D01*
X68285034Y-92778599D01*
X68543014Y-92640706D01*
X68769134Y-92455134D01*
X68954706Y-92229014D01*
X69092599Y-91971034D01*
X69177513Y-91691111D01*
X69206185Y-91400000D01*
X69177513Y-91108889D01*
X69092599Y-90828966D01*
X68954706Y-90570986D01*
X68769134Y-90344866D01*
X68705663Y-90292777D01*
X68807386Y-90238405D01*
X68941962Y-90127962D01*
X69052405Y-89993386D01*
X69134472Y-89839850D01*
X69185008Y-89673254D01*
X69202072Y-89500000D01*
X69202072Y-88300000D01*
X69185008Y-88126746D01*
X69134472Y-87960150D01*
X69052405Y-87806614D01*
X68941962Y-87672038D01*
X68807386Y-87561595D01*
X68699000Y-87503661D01*
X68699000Y-87050743D01*
X68704490Y-86994999D01*
X68699000Y-86939255D01*
X68699000Y-86939248D01*
X68682577Y-86772501D01*
X68617676Y-86558553D01*
X68512284Y-86361377D01*
X68370449Y-86188551D01*
X68327141Y-86153009D01*
X66702114Y-84527983D01*
X66692236Y-84427691D01*
X66610182Y-84157192D01*
X66476932Y-83907899D01*
X66297608Y-83689392D01*
X66079101Y-83510068D01*
X65829808Y-83376818D01*
X65559309Y-83294764D01*
X65348492Y-83274000D01*
X65207508Y-83274000D01*
X64996691Y-83294764D01*
X64726192Y-83376818D01*
X64476899Y-83510068D01*
X64258392Y-83689392D01*
X64079068Y-83907899D01*
X64008000Y-84040858D01*
X63936932Y-83907899D01*
X63757608Y-83689392D01*
X63539101Y-83510068D01*
X63289808Y-83376818D01*
X63019309Y-83294764D01*
X62808492Y-83274000D01*
X62667508Y-83274000D01*
X62456691Y-83294764D01*
X62186192Y-83376818D01*
X61936899Y-83510068D01*
X61718392Y-83689392D01*
X61539068Y-83907899D01*
X61405818Y-84157192D01*
X61323764Y-84427691D01*
X61296057Y-84709000D01*
X55557802Y-84709000D01*
X54109802Y-83261000D01*
X54229002Y-83261000D01*
X54229002Y-83102252D01*
X54387750Y-83261000D01*
X54802000Y-83264072D01*
X54926482Y-83251812D01*
X55046180Y-83215502D01*
X55156494Y-83156537D01*
X55253185Y-83077185D01*
X55332537Y-82980494D01*
X55391502Y-82870180D01*
X55427812Y-82750482D01*
X55440072Y-82626000D01*
X55437000Y-82336750D01*
X55278250Y-82178000D01*
X54229000Y-82178000D01*
X54229000Y-82198000D01*
X53975000Y-82198000D01*
X53975000Y-82178000D01*
X53955000Y-82178000D01*
X53955000Y-81924000D01*
X53975000Y-81924000D01*
X53975000Y-81904000D01*
X54229000Y-81904000D01*
X54229000Y-81924000D01*
X55278250Y-81924000D01*
X55437000Y-81765250D01*
X55440072Y-81476000D01*
X55427812Y-81351518D01*
X55391502Y-81231820D01*
X55332537Y-81121506D01*
X55253185Y-81024815D01*
X55173406Y-80959342D01*
X55179962Y-80953962D01*
X55290405Y-80819387D01*
X55321614Y-80761000D01*
X58137678Y-80761000D01*
X58175000Y-80764676D01*
X58212322Y-80761000D01*
X58212333Y-80761000D01*
X58323986Y-80750003D01*
X58467247Y-80706546D01*
X58599276Y-80635974D01*
X58715001Y-80541001D01*
X58738804Y-80511997D01*
X59184998Y-80065803D01*
X59214001Y-80042001D01*
X59308974Y-79926276D01*
X59379546Y-79794247D01*
X59387529Y-79767931D01*
X59404000Y-79788001D01*
X59432998Y-79811799D01*
X59634196Y-80012997D01*
X59657999Y-80042001D01*
X59773724Y-80136974D01*
X59905753Y-80207546D01*
X60049014Y-80251003D01*
X60160667Y-80262000D01*
X60160676Y-80262000D01*
X60197999Y-80265676D01*
X60235322Y-80262000D01*
X60821473Y-80262000D01*
X60830528Y-80291851D01*
X60912595Y-80445387D01*
X61023038Y-80579962D01*
X61157613Y-80690405D01*
X61311149Y-80772472D01*
X61477745Y-80823008D01*
X61650999Y-80840072D01*
X62301001Y-80840072D01*
X62474255Y-80823008D01*
X62640851Y-80772472D01*
X62794387Y-80690405D01*
X62928962Y-80579962D01*
X63001000Y-80492184D01*
X63073038Y-80579962D01*
X63207613Y-80690405D01*
X63361149Y-80772472D01*
X63527745Y-80823008D01*
X63700999Y-80840072D01*
X64351001Y-80840072D01*
X64524255Y-80823008D01*
X64690851Y-80772472D01*
X64844387Y-80690405D01*
X64978962Y-80579962D01*
X65089405Y-80445387D01*
X65171472Y-80291851D01*
X65222008Y-80125255D01*
X65239072Y-79952001D01*
X65239072Y-79051999D01*
X65222008Y-78878745D01*
X65171472Y-78712149D01*
X65089405Y-78558613D01*
X65030010Y-78486240D01*
X65151000Y-78365250D01*
X65151000Y-77216000D01*
X65405000Y-77216000D01*
X65405000Y-78365250D01*
X65563750Y-78524000D01*
X66078000Y-78527072D01*
X66202482Y-78514812D01*
X66322180Y-78478502D01*
X66432494Y-78419537D01*
X66529185Y-78340185D01*
X66608537Y-78243494D01*
X66667502Y-78133180D01*
X66703812Y-78013482D01*
X66716072Y-77889000D01*
X66713000Y-77374750D01*
X66554250Y-77216000D01*
X65405000Y-77216000D01*
X65151000Y-77216000D01*
X65131000Y-77216000D01*
X65131000Y-76962000D01*
X65151000Y-76962000D01*
X65151000Y-75812750D01*
X65405000Y-75812750D01*
X65405000Y-76962000D01*
X66554250Y-76962000D01*
X66713000Y-76803250D01*
X66716072Y-76289000D01*
X66703812Y-76164518D01*
X66667502Y-76044820D01*
X66608537Y-75934506D01*
X66529185Y-75837815D01*
X66432494Y-75758463D01*
X66322180Y-75699498D01*
X66202482Y-75663188D01*
X66078000Y-75650928D01*
X65563750Y-75654000D01*
X65405000Y-75812750D01*
X65151000Y-75812750D01*
X64992250Y-75654000D01*
X64478000Y-75650928D01*
X64353518Y-75663188D01*
X64233820Y-75699498D01*
X64123506Y-75758463D01*
X64026815Y-75837815D01*
X63947463Y-75934506D01*
X63888498Y-76044820D01*
X63852188Y-76164518D01*
X63850419Y-76182482D01*
X63757608Y-76069392D01*
X63539101Y-75890068D01*
X63289808Y-75756818D01*
X63178023Y-75722909D01*
X63246472Y-75594851D01*
X63297008Y-75428255D01*
X63314072Y-75255001D01*
X63314072Y-74604999D01*
X63297008Y-74431745D01*
X63246472Y-74265149D01*
X63216471Y-74209021D01*
X63722250Y-74206000D01*
X63881000Y-74047250D01*
X63881000Y-72898000D01*
X62731750Y-72898000D01*
X62622750Y-73007000D01*
X62103000Y-73007000D01*
X62103000Y-73027000D01*
X61849000Y-73027000D01*
X61849000Y-73007000D01*
X61829000Y-73007000D01*
X61829000Y-72753000D01*
X61849000Y-72753000D01*
X61849000Y-71828750D01*
X61805659Y-71785409D01*
X61921962Y-71689962D01*
X62032405Y-71555387D01*
X62114472Y-71401851D01*
X62123527Y-71372000D01*
X62995131Y-71372000D01*
X62963820Y-71381498D01*
X62853506Y-71440463D01*
X62756815Y-71519815D01*
X62677463Y-71616506D01*
X62650410Y-71667118D01*
X62261750Y-71670000D01*
X62103000Y-71828750D01*
X62103000Y-72753000D01*
X63152250Y-72753000D01*
X63261250Y-72644000D01*
X63881000Y-72644000D01*
X63881000Y-72624000D01*
X64135000Y-72624000D01*
X64135000Y-72644000D01*
X64155000Y-72644000D01*
X64155000Y-72898000D01*
X64135000Y-72898000D01*
X64135000Y-74047250D01*
X64293750Y-74206000D01*
X64808000Y-74209072D01*
X64932482Y-74196812D01*
X65052180Y-74160502D01*
X65162494Y-74101537D01*
X65259185Y-74022185D01*
X65338537Y-73925494D01*
X65397502Y-73815180D01*
X65433812Y-73695482D01*
X65435581Y-73677518D01*
X65528392Y-73790608D01*
X65746899Y-73969932D01*
X65996192Y-74103182D01*
X66266691Y-74185236D01*
X66477508Y-74206000D01*
X66618492Y-74206000D01*
X66829309Y-74185236D01*
X67099808Y-74103182D01*
X67349101Y-73969932D01*
X67567608Y-73790608D01*
X67746932Y-73572101D01*
X67880182Y-73322808D01*
X67962236Y-73052309D01*
X67989943Y-72771000D01*
X67962236Y-72489691D01*
X67880182Y-72219192D01*
X67746932Y-71969899D01*
X67567608Y-71751392D01*
X67349101Y-71572068D01*
X67099808Y-71438818D01*
X66829309Y-71356764D01*
X66618492Y-71336000D01*
X66477508Y-71336000D01*
X66266691Y-71356764D01*
X66222094Y-71370292D01*
X64952804Y-70101003D01*
X64929001Y-70071999D01*
X64813276Y-69977026D01*
X64681247Y-69906454D01*
X64537986Y-69862997D01*
X64426333Y-69852000D01*
X64426322Y-69852000D01*
X64389000Y-69848324D01*
X64351678Y-69852000D01*
X62123527Y-69852000D01*
X62114472Y-69822149D01*
X62032405Y-69668613D01*
X61921962Y-69534038D01*
X61787387Y-69423595D01*
X61633851Y-69341528D01*
X61467255Y-69290992D01*
X61294001Y-69273928D01*
X61117658Y-69273928D01*
X61133185Y-69261185D01*
X61212537Y-69164494D01*
X61271502Y-69054180D01*
X61307812Y-68934482D01*
X61320072Y-68810000D01*
X61317000Y-67595750D01*
X61158250Y-67437000D01*
X59309000Y-67437000D01*
X59309000Y-67457000D01*
X59055000Y-67457000D01*
X59055000Y-67437000D01*
X59035000Y-67437000D01*
X59035000Y-67183000D01*
X59055000Y-67183000D01*
X59055000Y-65333750D01*
X59309000Y-65333750D01*
X59309000Y-67183000D01*
X61158250Y-67183000D01*
X61317000Y-67024250D01*
X61320072Y-65810000D01*
X61307812Y-65685518D01*
X61271502Y-65565820D01*
X61212537Y-65455506D01*
X61133185Y-65358815D01*
X61036494Y-65279463D01*
X60926180Y-65220498D01*
X60806482Y-65184188D01*
X60682000Y-65171928D01*
X59467750Y-65175000D01*
X59309000Y-65333750D01*
X59055000Y-65333750D01*
X58896250Y-65175000D01*
X57682000Y-65171928D01*
X57557518Y-65184188D01*
X57437820Y-65220498D01*
X57327506Y-65279463D01*
X57275000Y-65322553D01*
X57275000Y-65151000D01*
X62566057Y-65151000D01*
X62593764Y-65432309D01*
X62675818Y-65702808D01*
X62809068Y-65952101D01*
X62988392Y-66170608D01*
X63206899Y-66349932D01*
X63456192Y-66483182D01*
X63726691Y-66565236D01*
X63937508Y-66586000D01*
X64078492Y-66586000D01*
X64289309Y-66565236D01*
X64559808Y-66483182D01*
X64809101Y-66349932D01*
X65027608Y-66170608D01*
X65206932Y-65952101D01*
X65278000Y-65819142D01*
X65349068Y-65952101D01*
X65528392Y-66170608D01*
X65746899Y-66349932D01*
X65996192Y-66483182D01*
X66266691Y-66565236D01*
X66477508Y-66586000D01*
X66618492Y-66586000D01*
X66829309Y-66565236D01*
X67099808Y-66483182D01*
X67349101Y-66349932D01*
X67567608Y-66170608D01*
X67746932Y-65952101D01*
X67880182Y-65702808D01*
X67962236Y-65432309D01*
X67972114Y-65332018D01*
X68327140Y-64976992D01*
X68370449Y-64941449D01*
X68512284Y-64768623D01*
X68617676Y-64571447D01*
X68682577Y-64357499D01*
X68699000Y-64190752D01*
X68699000Y-64190751D01*
X68704491Y-64135000D01*
X68699000Y-64079249D01*
X68699000Y-62032692D01*
X68769134Y-61975134D01*
X68954706Y-61749014D01*
X69092599Y-61491034D01*
X69177513Y-61211111D01*
X69206185Y-60920000D01*
X69177513Y-60628889D01*
X69092599Y-60348966D01*
X68954706Y-60090986D01*
X68769134Y-59864866D01*
X68705663Y-59812777D01*
X68807386Y-59758405D01*
X68941962Y-59647962D01*
X69052405Y-59513386D01*
X69134472Y-59359850D01*
X69185008Y-59193254D01*
X69202072Y-59020000D01*
X69202072Y-57820000D01*
X69185008Y-57646746D01*
X69134472Y-57480150D01*
X69052405Y-57326614D01*
X68941962Y-57192038D01*
X68807386Y-57081595D01*
X68653850Y-56999528D01*
X68487254Y-56948992D01*
X68314000Y-56931928D01*
X66814000Y-56931928D01*
X66640746Y-56948992D01*
X66474150Y-56999528D01*
X66320614Y-57081595D01*
X66186038Y-57192038D01*
X66075595Y-57326614D01*
X66031498Y-57409114D01*
X65914377Y-57471716D01*
X65741551Y-57613551D01*
X65706008Y-57656860D01*
X64768860Y-58594009D01*
X64725552Y-58629551D01*
X64583717Y-58802377D01*
X64555107Y-58855903D01*
X64478324Y-58999554D01*
X64413423Y-59213502D01*
X64391509Y-59436000D01*
X64397001Y-59491761D01*
X64397000Y-63156868D01*
X63826983Y-63726886D01*
X63726691Y-63736764D01*
X63456192Y-63818818D01*
X63206899Y-63952068D01*
X62988392Y-64131392D01*
X62809068Y-64349899D01*
X62675818Y-64599192D01*
X62593764Y-64869691D01*
X62566057Y-65151000D01*
X57275000Y-65151000D01*
X57275000Y-65084801D01*
X58423003Y-63936799D01*
X58452001Y-63913001D01*
X58546974Y-63797276D01*
X58617546Y-63665247D01*
X58661003Y-63521986D01*
X58672000Y-63410333D01*
X58672000Y-63410324D01*
X58675676Y-63373001D01*
X58672000Y-63335678D01*
X58672000Y-62637936D01*
X58801261Y-62551567D01*
X58995567Y-62357261D01*
X59057526Y-62264533D01*
X59066188Y-62352482D01*
X59102498Y-62472180D01*
X59161463Y-62582494D01*
X59240815Y-62679185D01*
X59337506Y-62758537D01*
X59447820Y-62817502D01*
X59567518Y-62853812D01*
X59692000Y-62866072D01*
X61212000Y-62866072D01*
X61336482Y-62853812D01*
X61456180Y-62817502D01*
X61566494Y-62758537D01*
X61663185Y-62679185D01*
X61742537Y-62582494D01*
X61801502Y-62472180D01*
X61837812Y-62352482D01*
X61850072Y-62228000D01*
X61850072Y-60708000D01*
X61837812Y-60583518D01*
X61801502Y-60463820D01*
X61742537Y-60353506D01*
X61663185Y-60256815D01*
X61566494Y-60177463D01*
X61456180Y-60118498D01*
X61336482Y-60082188D01*
X61212000Y-60069928D01*
X59917069Y-60069928D01*
X59966531Y-59892137D01*
X59182000Y-59107605D01*
X59167858Y-59121748D01*
X58988253Y-58942143D01*
X59002395Y-58928000D01*
X58988253Y-58913858D01*
X59167858Y-58734252D01*
X59182000Y-58748395D01*
X59196142Y-58734252D01*
X59375748Y-58913858D01*
X59361605Y-58928000D01*
X60146137Y-59712531D01*
X60386025Y-59645794D01*
X60502924Y-59397108D01*
X60569061Y-59130394D01*
X60581895Y-58855903D01*
X60540931Y-58584183D01*
X60447744Y-58325674D01*
X60386025Y-58210206D01*
X60146139Y-58143469D01*
X60262556Y-58027052D01*
X60193877Y-57958373D01*
X60334000Y-57818250D01*
X60334000Y-56769000D01*
X60588000Y-56769000D01*
X60588000Y-57818250D01*
X60746750Y-57977000D01*
X61036000Y-57980072D01*
X61160482Y-57967812D01*
X61280180Y-57931502D01*
X61390494Y-57872537D01*
X61487185Y-57793185D01*
X61566537Y-57696494D01*
X61625502Y-57586180D01*
X61661812Y-57466482D01*
X61674072Y-57342000D01*
X61671000Y-56927750D01*
X61512250Y-56769000D01*
X60588000Y-56769000D01*
X60334000Y-56769000D01*
X60314000Y-56769000D01*
X60314000Y-56515000D01*
X60334000Y-56515000D01*
X60334000Y-55465750D01*
X60588000Y-55465750D01*
X60588000Y-56515000D01*
X61512250Y-56515000D01*
X61671000Y-56356250D01*
X61674072Y-55942000D01*
X61661812Y-55817518D01*
X61625502Y-55697820D01*
X61566537Y-55587506D01*
X61487185Y-55490815D01*
X61390494Y-55411463D01*
X61280180Y-55352498D01*
X61160482Y-55316188D01*
X61036000Y-55303928D01*
X60746750Y-55307000D01*
X60588000Y-55465750D01*
X60334000Y-55465750D01*
X60175250Y-55307000D01*
X59886000Y-55303928D01*
X59761518Y-55316188D01*
X59641820Y-55352498D01*
X59531506Y-55411463D01*
X59434815Y-55490815D01*
X59369342Y-55570594D01*
X59363962Y-55564038D01*
X59229387Y-55453595D01*
X59141356Y-55406541D01*
X59116546Y-55324753D01*
X59045974Y-55192724D01*
X59037765Y-55182721D01*
X59057472Y-55145851D01*
X59108008Y-54979255D01*
X59125072Y-54806001D01*
X59125072Y-53905999D01*
X59108008Y-53732745D01*
X59057472Y-53566149D01*
X58975405Y-53412613D01*
X58864962Y-53278038D01*
X58730387Y-53167595D01*
X58576851Y-53085528D01*
X58410255Y-53034992D01*
X58237001Y-53017928D01*
X57586999Y-53017928D01*
X57413745Y-53034992D01*
X57247149Y-53085528D01*
X57093613Y-53167595D01*
X56959038Y-53278038D01*
X56887000Y-53365816D01*
X56814962Y-53278038D01*
X56680387Y-53167595D01*
X56526851Y-53085528D01*
X56360255Y-53034992D01*
X56187001Y-53017928D01*
X55536999Y-53017928D01*
X55363745Y-53034992D01*
X55197149Y-53085528D01*
X55043613Y-53167595D01*
X54909038Y-53278038D01*
X54798595Y-53412613D01*
X54716528Y-53566149D01*
X54665992Y-53732745D01*
X54648928Y-53905999D01*
X54648928Y-54806001D01*
X54665992Y-54979255D01*
X54671567Y-54997632D01*
X54365271Y-55303928D01*
X54266999Y-55303928D01*
X54093745Y-55320992D01*
X53927149Y-55371528D01*
X53773613Y-55453595D01*
X53639038Y-55564038D01*
X53528595Y-55698613D01*
X53446528Y-55852149D01*
X53395992Y-56018745D01*
X53378928Y-56191999D01*
X53378928Y-57092001D01*
X53395992Y-57265255D01*
X53446528Y-57431851D01*
X53528595Y-57585387D01*
X53571583Y-57637769D01*
X53441220Y-57691767D01*
X53212739Y-57844433D01*
X53018433Y-58038739D01*
X52865767Y-58267220D01*
X52760609Y-58521093D01*
X52707000Y-58790604D01*
X52707000Y-59065396D01*
X52760609Y-59334907D01*
X52865767Y-59588780D01*
X53018433Y-59817261D01*
X53212739Y-60011567D01*
X53441220Y-60164233D01*
X53695093Y-60269391D01*
X53964604Y-60323000D01*
X54239396Y-60323000D01*
X54508907Y-60269391D01*
X54612000Y-60226688D01*
X54612000Y-60298063D01*
X54482739Y-60384433D01*
X54288433Y-60578739D01*
X54135767Y-60807220D01*
X54030609Y-61061093D01*
X53977000Y-61330604D01*
X53977000Y-61605396D01*
X54030609Y-61874907D01*
X54135767Y-62128780D01*
X54288433Y-62357261D01*
X54482739Y-62551567D01*
X54711220Y-62704233D01*
X54965093Y-62809391D01*
X54984038Y-62813159D01*
X53591003Y-64206196D01*
X53561999Y-64229999D01*
X53506871Y-64297174D01*
X53467026Y-64345724D01*
X53443283Y-64390144D01*
X53396454Y-64477754D01*
X53352997Y-64621015D01*
X53342000Y-64732668D01*
X53342000Y-64732678D01*
X53338324Y-64770000D01*
X53342000Y-64807323D01*
X53342000Y-65313895D01*
X53090698Y-65417988D01*
X52741017Y-65651637D01*
X52443637Y-65949017D01*
X52209988Y-66298698D01*
X52049047Y-66687244D01*
X51967000Y-67099721D01*
X51967000Y-67520279D01*
X52049047Y-67932756D01*
X52153140Y-68184059D01*
X51812998Y-68524201D01*
X51784000Y-68547999D01*
X51760202Y-68576997D01*
X51760201Y-68576998D01*
X51689026Y-68663724D01*
X51618454Y-68795754D01*
X51574998Y-68939015D01*
X51560324Y-69088000D01*
X50695000Y-69088000D01*
X50695000Y-54267122D01*
X50761334Y-54333456D01*
X51131489Y-54580786D01*
X51542782Y-54751149D01*
X51979409Y-54838000D01*
X52424591Y-54838000D01*
X52861218Y-54751149D01*
X53272511Y-54580786D01*
X53642666Y-54333456D01*
X53957456Y-54018666D01*
X54204786Y-53648511D01*
X54375149Y-53237218D01*
X54462000Y-52800591D01*
X54462000Y-52355409D01*
X54375149Y-51918782D01*
X54204786Y-51507489D01*
X53957456Y-51137334D01*
X53642666Y-50822544D01*
X53451783Y-50695000D01*
X61112217Y-50695000D01*
X60921334Y-50822544D01*
G36*
X53974998Y-83126196D02*
G01*
X53963026Y-83114224D01*
X53974998Y-83102252D01*
X53974998Y-83126196D01*
X53974998Y-83126196D01*
G37*
X53974998Y-83126196D02*
X53963026Y-83114224D01*
X53974998Y-83102252D01*
X53974998Y-83126196D01*
G36*
X60808226Y-77003937D02*
G01*
X60977744Y-77117205D01*
X61166102Y-77195226D01*
X61309325Y-77223715D01*
X61323764Y-77370309D01*
X61405818Y-77640808D01*
X61539068Y-77890101D01*
X61718392Y-78108608D01*
X61785800Y-78163928D01*
X61650999Y-78163928D01*
X61477745Y-78180992D01*
X61311149Y-78231528D01*
X61157613Y-78313595D01*
X61023038Y-78424038D01*
X60912595Y-78558613D01*
X60907072Y-78568946D01*
X60907072Y-77402000D01*
X60891689Y-77245816D01*
X60846132Y-77095634D01*
X60784364Y-76980075D01*
X60808226Y-77003937D01*
X60808226Y-77003937D01*
G37*
X60808226Y-77003937D02*
X60977744Y-77117205D01*
X61166102Y-77195226D01*
X61309325Y-77223715D01*
X61323764Y-77370309D01*
X61405818Y-77640808D01*
X61539068Y-77890101D01*
X61718392Y-78108608D01*
X61785800Y-78163928D01*
X61650999Y-78163928D01*
X61477745Y-78180992D01*
X61311149Y-78231528D01*
X61157613Y-78313595D01*
X61023038Y-78424038D01*
X60912595Y-78558613D01*
X60907072Y-78568946D01*
X60907072Y-77402000D01*
X60891689Y-77245816D01*
X60846132Y-77095634D01*
X60784364Y-76980075D01*
X60808226Y-77003937D01*
G36*
X63001000Y-78511816D02*
G01*
X62995854Y-78505546D01*
X63007051Y-78504443D01*
X63001000Y-78511816D01*
X63001000Y-78511816D01*
G37*
X63001000Y-78511816D02*
X62995854Y-78505546D01*
X63007051Y-78504443D01*
X63001000Y-78511816D01*
G36*
X60071000Y-73025000D02*
G01*
X60091000Y-73025000D01*
X60091000Y-73279000D01*
X60071000Y-73279000D01*
X60071000Y-74615750D01*
X60229750Y-74774500D01*
X60269000Y-74777572D01*
X60393482Y-74765312D01*
X60513180Y-74729002D01*
X60623494Y-74670037D01*
X60637928Y-74658191D01*
X60637928Y-75255001D01*
X60654992Y-75428255D01*
X60683164Y-75521125D01*
X60664063Y-75540226D01*
X60550795Y-75709744D01*
X60472774Y-75898102D01*
X60433000Y-76098061D01*
X60433000Y-76301939D01*
X60472774Y-76501898D01*
X60550795Y-76690256D01*
X60618405Y-76791442D01*
X60551274Y-76736349D01*
X60412866Y-76662368D01*
X60262684Y-76616811D01*
X60106500Y-76601428D01*
X59781500Y-76601428D01*
X59625316Y-76616811D01*
X59475134Y-76662368D01*
X59336726Y-76736349D01*
X59309000Y-76759103D01*
X59281274Y-76736349D01*
X59142866Y-76662368D01*
X58992684Y-76616811D01*
X58836500Y-76601428D01*
X58511500Y-76601428D01*
X58355316Y-76616811D01*
X58205134Y-76662368D01*
X58164000Y-76684355D01*
X58164000Y-75729332D01*
X58167677Y-75692000D01*
X58164000Y-75654667D01*
X58164000Y-74694645D01*
X58205134Y-74716632D01*
X58355316Y-74762189D01*
X58511500Y-74777572D01*
X58836500Y-74777572D01*
X58992684Y-74762189D01*
X59142866Y-74716632D01*
X59250911Y-74658880D01*
X59264506Y-74670037D01*
X59374820Y-74729002D01*
X59494518Y-74765312D01*
X59619000Y-74777572D01*
X59658250Y-74774500D01*
X59817000Y-74615750D01*
X59817000Y-73279000D01*
X59797000Y-73279000D01*
X59797000Y-73025000D01*
X59817000Y-73025000D01*
X59817000Y-73005000D01*
X60071000Y-73005000D01*
X60071000Y-73025000D01*
X60071000Y-73025000D01*
G37*
X60071000Y-73025000D02*
X60091000Y-73025000D01*
X60091000Y-73279000D01*
X60071000Y-73279000D01*
X60071000Y-74615750D01*
X60229750Y-74774500D01*
X60269000Y-74777572D01*
X60393482Y-74765312D01*
X60513180Y-74729002D01*
X60623494Y-74670037D01*
X60637928Y-74658191D01*
X60637928Y-75255001D01*
X60654992Y-75428255D01*
X60683164Y-75521125D01*
X60664063Y-75540226D01*
X60550795Y-75709744D01*
X60472774Y-75898102D01*
X60433000Y-76098061D01*
X60433000Y-76301939D01*
X60472774Y-76501898D01*
X60550795Y-76690256D01*
X60618405Y-76791442D01*
X60551274Y-76736349D01*
X60412866Y-76662368D01*
X60262684Y-76616811D01*
X60106500Y-76601428D01*
X59781500Y-76601428D01*
X59625316Y-76616811D01*
X59475134Y-76662368D01*
X59336726Y-76736349D01*
X59309000Y-76759103D01*
X59281274Y-76736349D01*
X59142866Y-76662368D01*
X58992684Y-76616811D01*
X58836500Y-76601428D01*
X58511500Y-76601428D01*
X58355316Y-76616811D01*
X58205134Y-76662368D01*
X58164000Y-76684355D01*
X58164000Y-75729332D01*
X58167677Y-75692000D01*
X58164000Y-75654667D01*
X58164000Y-74694645D01*
X58205134Y-74716632D01*
X58355316Y-74762189D01*
X58511500Y-74777572D01*
X58836500Y-74777572D01*
X58992684Y-74762189D01*
X59142866Y-74716632D01*
X59250911Y-74658880D01*
X59264506Y-74670037D01*
X59374820Y-74729002D01*
X59494518Y-74765312D01*
X59619000Y-74777572D01*
X59658250Y-74774500D01*
X59817000Y-74615750D01*
X59817000Y-73279000D01*
X59797000Y-73279000D01*
X59797000Y-73025000D01*
X59817000Y-73025000D01*
X59817000Y-73005000D01*
X60071000Y-73005000D01*
X60071000Y-73025000D01*
M02*
