G04 #@! TF.GenerationSoftware,KiCad,Pcbnew,(5.1.0)-1*
G04 #@! TF.CreationDate,2019-09-10T00:52:53+02:00*
G04 #@! TF.ProjectId,big_button_v1,6269675f-6275-4747-946f-6e5f76312e6b,rev?*
G04 #@! TF.SameCoordinates,Original*
G04 #@! TF.FileFunction,Soldermask,Top*
G04 #@! TF.FilePolarity,Negative*
%FSLAX46Y46*%
G04 Gerber Fmt 4.6, Leading zero omitted, Abs format (unit mm)*
G04 Created by KiCad (PCBNEW (5.1.0)-1) date 2019-09-10 00:52:53*
%MOMM*%
%LPD*%
G04 APERTURE LIST*
%ADD10C,0.100000*%
G04 APERTURE END LIST*
D10*
G36*
X152567021Y-92056640D02*
G01*
X153076769Y-92267785D01*
X153076771Y-92267786D01*
X153535534Y-92574321D01*
X153925679Y-92964466D01*
X154232214Y-93423229D01*
X154232215Y-93423231D01*
X154443360Y-93932979D01*
X154551000Y-94474124D01*
X154551000Y-95025876D01*
X154443360Y-95567021D01*
X154232215Y-96076769D01*
X154232214Y-96076771D01*
X153925679Y-96535534D01*
X153535534Y-96925679D01*
X153076771Y-97232214D01*
X153076770Y-97232215D01*
X153076769Y-97232215D01*
X152567021Y-97443360D01*
X152025876Y-97551000D01*
X151474124Y-97551000D01*
X150932979Y-97443360D01*
X150423231Y-97232215D01*
X150423230Y-97232215D01*
X150423229Y-97232214D01*
X149964466Y-96925679D01*
X149574321Y-96535534D01*
X149267786Y-96076771D01*
X149267785Y-96076769D01*
X149056640Y-95567021D01*
X148949000Y-95025876D01*
X148949000Y-94474124D01*
X149056640Y-93932979D01*
X149267785Y-93423231D01*
X149267786Y-93423229D01*
X149574321Y-92964466D01*
X149964466Y-92574321D01*
X150423229Y-92267786D01*
X150423231Y-92267785D01*
X150932979Y-92056640D01*
X151474124Y-91949000D01*
X152025876Y-91949000D01*
X152567021Y-92056640D01*
X152567021Y-92056640D01*
G37*
G36*
X128988871Y-90278408D02*
G01*
X129293883Y-90404748D01*
X129568387Y-90588166D01*
X129801834Y-90821613D01*
X129985252Y-91096117D01*
X130111592Y-91401129D01*
X130176000Y-91724928D01*
X130176000Y-92055072D01*
X130111592Y-92378871D01*
X129985252Y-92683883D01*
X129801834Y-92958387D01*
X129568387Y-93191834D01*
X129293883Y-93375252D01*
X128988871Y-93501592D01*
X128826971Y-93533796D01*
X128665073Y-93566000D01*
X128334927Y-93566000D01*
X128173029Y-93533796D01*
X128011129Y-93501592D01*
X127706117Y-93375252D01*
X127431613Y-93191834D01*
X127198166Y-92958387D01*
X127014748Y-92683883D01*
X126888408Y-92378871D01*
X126824000Y-92055072D01*
X126824000Y-91724928D01*
X126888408Y-91401129D01*
X127014748Y-91096117D01*
X127198166Y-90821613D01*
X127431613Y-90588166D01*
X127706117Y-90404748D01*
X128011129Y-90278408D01*
X128173029Y-90246204D01*
X128334927Y-90214000D01*
X128665073Y-90214000D01*
X128988871Y-90278408D01*
X128988871Y-90278408D01*
G37*
G36*
X118828871Y-90278408D02*
G01*
X119133883Y-90404748D01*
X119408387Y-90588166D01*
X119641834Y-90821613D01*
X119825252Y-91096117D01*
X119951592Y-91401129D01*
X120016000Y-91724928D01*
X120016000Y-92055072D01*
X119951592Y-92378871D01*
X119825252Y-92683883D01*
X119641834Y-92958387D01*
X119408387Y-93191834D01*
X119133883Y-93375252D01*
X118828871Y-93501592D01*
X118666971Y-93533796D01*
X118505073Y-93566000D01*
X118174927Y-93566000D01*
X118013029Y-93533796D01*
X117851129Y-93501592D01*
X117546117Y-93375252D01*
X117271613Y-93191834D01*
X117038166Y-92958387D01*
X116854748Y-92683883D01*
X116728408Y-92378871D01*
X116664000Y-92055072D01*
X116664000Y-91724928D01*
X116728408Y-91401129D01*
X116854748Y-91096117D01*
X117038166Y-90821613D01*
X117271613Y-90588166D01*
X117546117Y-90404748D01*
X117851129Y-90278408D01*
X118013029Y-90246204D01*
X118174927Y-90214000D01*
X118505073Y-90214000D01*
X118828871Y-90278408D01*
X118828871Y-90278408D01*
G37*
G36*
X113568433Y-86634893D02*
G01*
X113658657Y-86652839D01*
X113764267Y-86696585D01*
X113913621Y-86758449D01*
X113913622Y-86758450D01*
X114143086Y-86911772D01*
X114338228Y-87106914D01*
X114440675Y-87260237D01*
X114491551Y-87336379D01*
X114597161Y-87591344D01*
X114651000Y-87862012D01*
X114651000Y-88137988D01*
X114597161Y-88408656D01*
X114491551Y-88663621D01*
X114491550Y-88663622D01*
X114338228Y-88893086D01*
X114143086Y-89088228D01*
X113989763Y-89190675D01*
X113913621Y-89241551D01*
X113764267Y-89303415D01*
X113658657Y-89347161D01*
X113568433Y-89365107D01*
X113387988Y-89401000D01*
X113112012Y-89401000D01*
X112931567Y-89365107D01*
X112841343Y-89347161D01*
X112735733Y-89303415D01*
X112586379Y-89241551D01*
X112510237Y-89190675D01*
X112356914Y-89088228D01*
X112161772Y-88893086D01*
X112008450Y-88663622D01*
X112008449Y-88663621D01*
X111902839Y-88408656D01*
X111849000Y-88137988D01*
X111849000Y-87862012D01*
X111902839Y-87591344D01*
X112008449Y-87336379D01*
X112059325Y-87260237D01*
X112161772Y-87106914D01*
X112356914Y-86911772D01*
X112586378Y-86758450D01*
X112586379Y-86758449D01*
X112735733Y-86696585D01*
X112841343Y-86652839D01*
X112931567Y-86634893D01*
X113112012Y-86599000D01*
X113387988Y-86599000D01*
X113568433Y-86634893D01*
X113568433Y-86634893D01*
G37*
G36*
X153801000Y-86641000D02*
G01*
X150699000Y-86641000D01*
X150699000Y-83539000D01*
X153801000Y-83539000D01*
X153801000Y-86641000D01*
X153801000Y-86641000D01*
G37*
G36*
X147472585Y-83568802D02*
G01*
X147622410Y-83598604D01*
X147904674Y-83715521D01*
X148158705Y-83885259D01*
X148374741Y-84101295D01*
X148544479Y-84355326D01*
X148661396Y-84637590D01*
X148721000Y-84937240D01*
X148721000Y-85242760D01*
X148661396Y-85542410D01*
X148544479Y-85824674D01*
X148374741Y-86078705D01*
X148158705Y-86294741D01*
X147904674Y-86464479D01*
X147622410Y-86581396D01*
X147472585Y-86611198D01*
X147322761Y-86641000D01*
X147017239Y-86641000D01*
X146867415Y-86611198D01*
X146717590Y-86581396D01*
X146435326Y-86464479D01*
X146181295Y-86294741D01*
X145965259Y-86078705D01*
X145795521Y-85824674D01*
X145678604Y-85542410D01*
X145619000Y-85242760D01*
X145619000Y-84937240D01*
X145678604Y-84637590D01*
X145795521Y-84355326D01*
X145965259Y-84101295D01*
X146181295Y-83885259D01*
X146435326Y-83715521D01*
X146717590Y-83598604D01*
X146867415Y-83568802D01*
X147017239Y-83539000D01*
X147322761Y-83539000D01*
X147472585Y-83568802D01*
X147472585Y-83568802D01*
G37*
G36*
X126836560Y-84760166D02*
G01*
X126984153Y-84821301D01*
X127041164Y-84859395D01*
X127116982Y-84910055D01*
X127229945Y-85023018D01*
X127318700Y-85155849D01*
X127332111Y-85188227D01*
X127379834Y-85303440D01*
X127411000Y-85460123D01*
X127411000Y-85619877D01*
X127379834Y-85776560D01*
X127318699Y-85924153D01*
X127229945Y-86056982D01*
X127116982Y-86169945D01*
X126984153Y-86258699D01*
X126984152Y-86258700D01*
X126984151Y-86258700D01*
X126836560Y-86319834D01*
X126679878Y-86351000D01*
X126520122Y-86351000D01*
X126363440Y-86319834D01*
X126215849Y-86258700D01*
X126215848Y-86258700D01*
X126215847Y-86258699D01*
X126083018Y-86169945D01*
X125970055Y-86056982D01*
X125881301Y-85924153D01*
X125820166Y-85776560D01*
X125789000Y-85619877D01*
X125789000Y-85460123D01*
X125820166Y-85303440D01*
X125867889Y-85188227D01*
X125881300Y-85155849D01*
X125970055Y-85023018D01*
X126083018Y-84910055D01*
X126158836Y-84859395D01*
X126215847Y-84821301D01*
X126363440Y-84760166D01*
X126520122Y-84729000D01*
X126679878Y-84729000D01*
X126836560Y-84760166D01*
X126836560Y-84760166D01*
G37*
G36*
X124296560Y-84760166D02*
G01*
X124444153Y-84821301D01*
X124501164Y-84859395D01*
X124576982Y-84910055D01*
X124689945Y-85023018D01*
X124778700Y-85155849D01*
X124792111Y-85188227D01*
X124839834Y-85303440D01*
X124871000Y-85460123D01*
X124871000Y-85619877D01*
X124839834Y-85776560D01*
X124778699Y-85924153D01*
X124689945Y-86056982D01*
X124576982Y-86169945D01*
X124444153Y-86258699D01*
X124444152Y-86258700D01*
X124444151Y-86258700D01*
X124296560Y-86319834D01*
X124139878Y-86351000D01*
X123980122Y-86351000D01*
X123823440Y-86319834D01*
X123675849Y-86258700D01*
X123675848Y-86258700D01*
X123675847Y-86258699D01*
X123543018Y-86169945D01*
X123430055Y-86056982D01*
X123341301Y-85924153D01*
X123280166Y-85776560D01*
X123249000Y-85619877D01*
X123249000Y-85460123D01*
X123280166Y-85303440D01*
X123327889Y-85188227D01*
X123341300Y-85155849D01*
X123430055Y-85023018D01*
X123543018Y-84910055D01*
X123618836Y-84859395D01*
X123675847Y-84821301D01*
X123823440Y-84760166D01*
X123980122Y-84729000D01*
X124139878Y-84729000D01*
X124296560Y-84760166D01*
X124296560Y-84760166D01*
G37*
G36*
X121756560Y-84760166D02*
G01*
X121904153Y-84821301D01*
X121961164Y-84859395D01*
X122036982Y-84910055D01*
X122149945Y-85023018D01*
X122238700Y-85155849D01*
X122252111Y-85188227D01*
X122299834Y-85303440D01*
X122331000Y-85460123D01*
X122331000Y-85619877D01*
X122299834Y-85776560D01*
X122238699Y-85924153D01*
X122149945Y-86056982D01*
X122036982Y-86169945D01*
X121904153Y-86258699D01*
X121904152Y-86258700D01*
X121904151Y-86258700D01*
X121756560Y-86319834D01*
X121599878Y-86351000D01*
X121440122Y-86351000D01*
X121283440Y-86319834D01*
X121135849Y-86258700D01*
X121135848Y-86258700D01*
X121135847Y-86258699D01*
X121003018Y-86169945D01*
X120890055Y-86056982D01*
X120801301Y-85924153D01*
X120740166Y-85776560D01*
X120709000Y-85619877D01*
X120709000Y-85460123D01*
X120740166Y-85303440D01*
X120787889Y-85188227D01*
X120801300Y-85155849D01*
X120890055Y-85023018D01*
X121003018Y-84910055D01*
X121078836Y-84859395D01*
X121135847Y-84821301D01*
X121283440Y-84760166D01*
X121440122Y-84729000D01*
X121599878Y-84729000D01*
X121756560Y-84760166D01*
X121756560Y-84760166D01*
G37*
G36*
X135659395Y-83667546D02*
G01*
X135832466Y-83739234D01*
X135832467Y-83739235D01*
X135988227Y-83843310D01*
X136120690Y-83975773D01*
X136120691Y-83975775D01*
X136224766Y-84131534D01*
X136296454Y-84304605D01*
X136333000Y-84488333D01*
X136333000Y-84675667D01*
X136296454Y-84859395D01*
X136224766Y-85032466D01*
X136224765Y-85032467D01*
X136120690Y-85188227D01*
X135988227Y-85320690D01*
X135909818Y-85373081D01*
X135832466Y-85424766D01*
X135659395Y-85496454D01*
X135475667Y-85533000D01*
X135288333Y-85533000D01*
X135104605Y-85496454D01*
X134931534Y-85424766D01*
X134854182Y-85373081D01*
X134775773Y-85320690D01*
X134643310Y-85188227D01*
X134539235Y-85032467D01*
X134539234Y-85032466D01*
X134467546Y-84859395D01*
X134431000Y-84675667D01*
X134431000Y-84488333D01*
X134467546Y-84304605D01*
X134539234Y-84131534D01*
X134643309Y-83975775D01*
X134643310Y-83975773D01*
X134775773Y-83843310D01*
X134931533Y-83739235D01*
X134931534Y-83739234D01*
X135104605Y-83667546D01*
X135288333Y-83631000D01*
X135475667Y-83631000D01*
X135659395Y-83667546D01*
X135659395Y-83667546D01*
G37*
G36*
X133793000Y-85533000D02*
G01*
X131891000Y-85533000D01*
X131891000Y-83631000D01*
X133793000Y-83631000D01*
X133793000Y-85533000D01*
X133793000Y-85533000D01*
G37*
G36*
X125566560Y-82220166D02*
G01*
X125714153Y-82281301D01*
X125846982Y-82370055D01*
X125959945Y-82483018D01*
X126048699Y-82615847D01*
X126109834Y-82763440D01*
X126141000Y-82920123D01*
X126141000Y-83079877D01*
X126109834Y-83236560D01*
X126048699Y-83384153D01*
X125959945Y-83516982D01*
X125846982Y-83629945D01*
X125714153Y-83718699D01*
X125714152Y-83718700D01*
X125714151Y-83718700D01*
X125566560Y-83779834D01*
X125409878Y-83811000D01*
X125250122Y-83811000D01*
X125093440Y-83779834D01*
X124945849Y-83718700D01*
X124945848Y-83718700D01*
X124945847Y-83718699D01*
X124813018Y-83629945D01*
X124700055Y-83516982D01*
X124611301Y-83384153D01*
X124550166Y-83236560D01*
X124519000Y-83079877D01*
X124519000Y-82920123D01*
X124550166Y-82763440D01*
X124611301Y-82615847D01*
X124700055Y-82483018D01*
X124813018Y-82370055D01*
X124945847Y-82281301D01*
X125093440Y-82220166D01*
X125250122Y-82189000D01*
X125409878Y-82189000D01*
X125566560Y-82220166D01*
X125566560Y-82220166D01*
G37*
G36*
X123026560Y-82220166D02*
G01*
X123174153Y-82281301D01*
X123306982Y-82370055D01*
X123419945Y-82483018D01*
X123508699Y-82615847D01*
X123569834Y-82763440D01*
X123601000Y-82920123D01*
X123601000Y-83079877D01*
X123569834Y-83236560D01*
X123508699Y-83384153D01*
X123419945Y-83516982D01*
X123306982Y-83629945D01*
X123174153Y-83718699D01*
X123174152Y-83718700D01*
X123174151Y-83718700D01*
X123026560Y-83779834D01*
X122869878Y-83811000D01*
X122710122Y-83811000D01*
X122553440Y-83779834D01*
X122405849Y-83718700D01*
X122405848Y-83718700D01*
X122405847Y-83718699D01*
X122273018Y-83629945D01*
X122160055Y-83516982D01*
X122071301Y-83384153D01*
X122010166Y-83236560D01*
X121979000Y-83079877D01*
X121979000Y-82920123D01*
X122010166Y-82763440D01*
X122071301Y-82615847D01*
X122160055Y-82483018D01*
X122273018Y-82370055D01*
X122405847Y-82281301D01*
X122553440Y-82220166D01*
X122710122Y-82189000D01*
X122869878Y-82189000D01*
X123026560Y-82220166D01*
X123026560Y-82220166D01*
G37*
G36*
X121061000Y-83811000D02*
G01*
X119439000Y-83811000D01*
X119439000Y-82189000D01*
X121061000Y-82189000D01*
X121061000Y-83811000D01*
X121061000Y-83811000D01*
G37*
M02*
