G04 #@! TF.GenerationSoftware,KiCad,Pcbnew,(5.1.0)-1*
G04 #@! TF.CreationDate,2019-09-10T00:52:53+02:00*
G04 #@! TF.ProjectId,big_button_v1,6269675f-6275-4747-946f-6e5f76312e6b,rev?*
G04 #@! TF.SameCoordinates,Original*
G04 #@! TF.FileFunction,Copper,L1,Top*
G04 #@! TF.FilePolarity,Positive*
%FSLAX46Y46*%
G04 Gerber Fmt 4.6, Leading zero omitted, Abs format (unit mm)*
G04 Created by KiCad (PCBNEW (5.1.0)-1) date 2019-09-10 00:52:53*
%MOMM*%
%LPD*%
G04 APERTURE LIST*
%ADD10R,1.520000X1.520000*%
%ADD11C,1.520000*%
%ADD12C,3.000000*%
%ADD13R,3.000000X3.000000*%
%ADD14C,1.800000*%
%ADD15R,1.800000X1.800000*%
%ADD16C,0.800000*%
%ADD17C,0.254000*%
G04 APERTURE END LIST*
D10*
X120250000Y-83000000D03*
D11*
X121520000Y-85540000D03*
X122790000Y-83000000D03*
X124060000Y-85540000D03*
X125330000Y-83000000D03*
X126600000Y-85540000D03*
D12*
X147170000Y-85090000D03*
D13*
X152250000Y-85090000D03*
D14*
X135382000Y-84582000D03*
D15*
X132842000Y-84582000D03*
D16*
X142004000Y-94190000D03*
X139464000Y-89110000D03*
X143782000Y-86062000D03*
D17*
G36*
X119135506Y-81709463D02*
G01*
X119038815Y-81788815D01*
X118959463Y-81885506D01*
X118900498Y-81995820D01*
X118864188Y-82115518D01*
X118851928Y-82240000D01*
X118851928Y-83760000D01*
X118864188Y-83884482D01*
X118900498Y-84004180D01*
X118959463Y-84114494D01*
X119038815Y-84211185D01*
X119135506Y-84290537D01*
X119245820Y-84349502D01*
X119365518Y-84385812D01*
X119490000Y-84398072D01*
X120784931Y-84398072D01*
X120735469Y-84575863D01*
X121520000Y-85360395D01*
X122304531Y-84575863D01*
X122237794Y-84335975D01*
X121989108Y-84219076D01*
X121722394Y-84152939D01*
X121516872Y-84143330D01*
X121540537Y-84114494D01*
X121599502Y-84004180D01*
X121635812Y-83884482D01*
X121644474Y-83796533D01*
X121706433Y-83889261D01*
X121900739Y-84083567D01*
X122129220Y-84236233D01*
X122383093Y-84341391D01*
X122652604Y-84395000D01*
X122927396Y-84395000D01*
X123196907Y-84341391D01*
X123450780Y-84236233D01*
X123679261Y-84083567D01*
X123873567Y-83889261D01*
X124026233Y-83660780D01*
X124060000Y-83579260D01*
X124093767Y-83660780D01*
X124246433Y-83889261D01*
X124440739Y-84083567D01*
X124669220Y-84236233D01*
X124923093Y-84341391D01*
X125192604Y-84395000D01*
X125467396Y-84395000D01*
X125736907Y-84341391D01*
X125990780Y-84236233D01*
X126219261Y-84083567D01*
X126413567Y-83889261D01*
X126552054Y-83682000D01*
X131303928Y-83682000D01*
X131303928Y-85482000D01*
X131316188Y-85606482D01*
X131352498Y-85726180D01*
X131411463Y-85836494D01*
X131490815Y-85933185D01*
X131587506Y-86012537D01*
X131697820Y-86071502D01*
X131817518Y-86107812D01*
X131942000Y-86120072D01*
X133742000Y-86120072D01*
X133866482Y-86107812D01*
X133986180Y-86071502D01*
X134096494Y-86012537D01*
X134193185Y-85933185D01*
X134272537Y-85836494D01*
X134331502Y-85726180D01*
X134337056Y-85707873D01*
X134403495Y-85774312D01*
X134654905Y-85942299D01*
X134934257Y-86058011D01*
X135230816Y-86117000D01*
X135533184Y-86117000D01*
X135829743Y-86058011D01*
X136109095Y-85942299D01*
X136360505Y-85774312D01*
X136574312Y-85560505D01*
X136742299Y-85309095D01*
X136858011Y-85029743D01*
X136887852Y-84879721D01*
X145035000Y-84879721D01*
X145035000Y-85300279D01*
X145117047Y-85712756D01*
X145277988Y-86101302D01*
X145511637Y-86450983D01*
X145809017Y-86748363D01*
X146158698Y-86982012D01*
X146547244Y-87142953D01*
X146959721Y-87225000D01*
X147380279Y-87225000D01*
X147792756Y-87142953D01*
X148181302Y-86982012D01*
X148530983Y-86748363D01*
X148689346Y-86590000D01*
X150111928Y-86590000D01*
X150124188Y-86714482D01*
X150160498Y-86834180D01*
X150219463Y-86944494D01*
X150298815Y-87041185D01*
X150395506Y-87120537D01*
X150505820Y-87179502D01*
X150625518Y-87215812D01*
X150750000Y-87228072D01*
X151964250Y-87225000D01*
X152123000Y-87066250D01*
X152123000Y-85217000D01*
X150273750Y-85217000D01*
X150115000Y-85375750D01*
X150111928Y-86590000D01*
X148689346Y-86590000D01*
X148828363Y-86450983D01*
X149062012Y-86101302D01*
X149222953Y-85712756D01*
X149305000Y-85300279D01*
X149305000Y-84879721D01*
X149222953Y-84467244D01*
X149062012Y-84078698D01*
X148828363Y-83729017D01*
X148689346Y-83590000D01*
X150111928Y-83590000D01*
X150115000Y-84804250D01*
X150273750Y-84963000D01*
X152123000Y-84963000D01*
X152123000Y-83113750D01*
X151964250Y-82955000D01*
X150750000Y-82951928D01*
X150625518Y-82964188D01*
X150505820Y-83000498D01*
X150395506Y-83059463D01*
X150298815Y-83138815D01*
X150219463Y-83235506D01*
X150160498Y-83345820D01*
X150124188Y-83465518D01*
X150111928Y-83590000D01*
X148689346Y-83590000D01*
X148530983Y-83431637D01*
X148181302Y-83197988D01*
X147792756Y-83037047D01*
X147380279Y-82955000D01*
X146959721Y-82955000D01*
X146547244Y-83037047D01*
X146158698Y-83197988D01*
X145809017Y-83431637D01*
X145511637Y-83729017D01*
X145277988Y-84078698D01*
X145117047Y-84467244D01*
X145035000Y-84879721D01*
X136887852Y-84879721D01*
X136917000Y-84733184D01*
X136917000Y-84430816D01*
X136858011Y-84134257D01*
X136742299Y-83854905D01*
X136574312Y-83603495D01*
X136360505Y-83389688D01*
X136109095Y-83221701D01*
X135829743Y-83105989D01*
X135533184Y-83047000D01*
X135230816Y-83047000D01*
X134934257Y-83105989D01*
X134654905Y-83221701D01*
X134403495Y-83389688D01*
X134337056Y-83456127D01*
X134331502Y-83437820D01*
X134272537Y-83327506D01*
X134193185Y-83230815D01*
X134096494Y-83151463D01*
X133986180Y-83092498D01*
X133866482Y-83056188D01*
X133742000Y-83043928D01*
X131942000Y-83043928D01*
X131817518Y-83056188D01*
X131697820Y-83092498D01*
X131587506Y-83151463D01*
X131490815Y-83230815D01*
X131411463Y-83327506D01*
X131352498Y-83437820D01*
X131316188Y-83557518D01*
X131303928Y-83682000D01*
X126552054Y-83682000D01*
X126566233Y-83660780D01*
X126671391Y-83406907D01*
X126725000Y-83137396D01*
X126725000Y-82862604D01*
X126671391Y-82593093D01*
X126566233Y-82339220D01*
X126413567Y-82110739D01*
X126219261Y-81916433D01*
X125990780Y-81763767D01*
X125824762Y-81695000D01*
X154305001Y-81695000D01*
X154305001Y-83281274D01*
X154280537Y-83235506D01*
X154201185Y-83138815D01*
X154104494Y-83059463D01*
X153994180Y-83000498D01*
X153874482Y-82964188D01*
X153750000Y-82951928D01*
X152535750Y-82955000D01*
X152377000Y-83113750D01*
X152377000Y-84963000D01*
X152397000Y-84963000D01*
X152397000Y-85217000D01*
X152377000Y-85217000D01*
X152377000Y-87066250D01*
X152535750Y-87225000D01*
X153750000Y-87228072D01*
X153874482Y-87215812D01*
X153994180Y-87179502D01*
X154104494Y-87120537D01*
X154201185Y-87041185D01*
X154280537Y-86944494D01*
X154305001Y-86898726D01*
X154305000Y-92517886D01*
X153907812Y-92120698D01*
X153353399Y-91750252D01*
X152737368Y-91495083D01*
X152083393Y-91365000D01*
X151416607Y-91365000D01*
X150762632Y-91495083D01*
X150146601Y-91750252D01*
X149592188Y-92120698D01*
X149120698Y-92592188D01*
X148750252Y-93146601D01*
X148495083Y-93762632D01*
X148365000Y-94416607D01*
X148365000Y-95083393D01*
X148495083Y-95737368D01*
X148750252Y-96353399D01*
X149120698Y-96907812D01*
X149517886Y-97305000D01*
X110695000Y-97305000D01*
X110695000Y-91667409D01*
X116080000Y-91667409D01*
X116080000Y-92112591D01*
X116166851Y-92549218D01*
X116337214Y-92960511D01*
X116584544Y-93330666D01*
X116899334Y-93645456D01*
X117269489Y-93892786D01*
X117680782Y-94063149D01*
X118117409Y-94150000D01*
X118562591Y-94150000D01*
X118999218Y-94063149D01*
X119410511Y-93892786D01*
X119780666Y-93645456D01*
X120095456Y-93330666D01*
X120342786Y-92960511D01*
X120513149Y-92549218D01*
X120600000Y-92112591D01*
X120600000Y-91667409D01*
X126240000Y-91667409D01*
X126240000Y-92112591D01*
X126326851Y-92549218D01*
X126497214Y-92960511D01*
X126744544Y-93330666D01*
X127059334Y-93645456D01*
X127429489Y-93892786D01*
X127840782Y-94063149D01*
X128277409Y-94150000D01*
X128722591Y-94150000D01*
X129159218Y-94063149D01*
X129570511Y-93892786D01*
X129940666Y-93645456D01*
X130255456Y-93330666D01*
X130502786Y-92960511D01*
X130673149Y-92549218D01*
X130760000Y-92112591D01*
X130760000Y-91667409D01*
X130673149Y-91230782D01*
X130502786Y-90819489D01*
X130255456Y-90449334D01*
X129940666Y-90134544D01*
X129570511Y-89887214D01*
X129159218Y-89716851D01*
X128722591Y-89630000D01*
X128277409Y-89630000D01*
X127840782Y-89716851D01*
X127429489Y-89887214D01*
X127059334Y-90134544D01*
X126744544Y-90449334D01*
X126497214Y-90819489D01*
X126326851Y-91230782D01*
X126240000Y-91667409D01*
X120600000Y-91667409D01*
X120513149Y-91230782D01*
X120342786Y-90819489D01*
X120095456Y-90449334D01*
X119780666Y-90134544D01*
X119410511Y-89887214D01*
X118999218Y-89716851D01*
X118562591Y-89630000D01*
X118117409Y-89630000D01*
X117680782Y-89716851D01*
X117269489Y-89887214D01*
X116899334Y-90134544D01*
X116584544Y-90449334D01*
X116337214Y-90819489D01*
X116166851Y-91230782D01*
X116080000Y-91667409D01*
X110695000Y-91667409D01*
X110695000Y-87804495D01*
X111265000Y-87804495D01*
X111265000Y-88195505D01*
X111341282Y-88579003D01*
X111490915Y-88940250D01*
X111708149Y-89265364D01*
X111984636Y-89541851D01*
X112309750Y-89759085D01*
X112670997Y-89908718D01*
X113054495Y-89985000D01*
X113445505Y-89985000D01*
X113829003Y-89908718D01*
X114190250Y-89759085D01*
X114515364Y-89541851D01*
X114791851Y-89265364D01*
X115009085Y-88940250D01*
X115158718Y-88579003D01*
X115235000Y-88195505D01*
X115235000Y-87804495D01*
X115158718Y-87420997D01*
X115009085Y-87059750D01*
X114791851Y-86734636D01*
X114561352Y-86504137D01*
X120735469Y-86504137D01*
X120802206Y-86744025D01*
X121050892Y-86860924D01*
X121317606Y-86927061D01*
X121592097Y-86939895D01*
X121863817Y-86898931D01*
X122122326Y-86805744D01*
X122237794Y-86744025D01*
X122304531Y-86504137D01*
X121520000Y-85719605D01*
X120735469Y-86504137D01*
X114561352Y-86504137D01*
X114515364Y-86458149D01*
X114190250Y-86240915D01*
X113829003Y-86091282D01*
X113445505Y-86015000D01*
X113054495Y-86015000D01*
X112670997Y-86091282D01*
X112309750Y-86240915D01*
X111984636Y-86458149D01*
X111708149Y-86734636D01*
X111490915Y-87059750D01*
X111341282Y-87420997D01*
X111265000Y-87804495D01*
X110695000Y-87804495D01*
X110695000Y-85612097D01*
X120120105Y-85612097D01*
X120161069Y-85883817D01*
X120254256Y-86142326D01*
X120315975Y-86257794D01*
X120555863Y-86324531D01*
X121340395Y-85540000D01*
X121699605Y-85540000D01*
X122484137Y-86324531D01*
X122724025Y-86257794D01*
X122789600Y-86118293D01*
X122823767Y-86200780D01*
X122976433Y-86429261D01*
X123170739Y-86623567D01*
X123399220Y-86776233D01*
X123653093Y-86881391D01*
X123922604Y-86935000D01*
X124197396Y-86935000D01*
X124466907Y-86881391D01*
X124720780Y-86776233D01*
X124949261Y-86623567D01*
X125143567Y-86429261D01*
X125296233Y-86200780D01*
X125330000Y-86119260D01*
X125363767Y-86200780D01*
X125516433Y-86429261D01*
X125710739Y-86623567D01*
X125939220Y-86776233D01*
X126193093Y-86881391D01*
X126462604Y-86935000D01*
X126737396Y-86935000D01*
X127006907Y-86881391D01*
X127260780Y-86776233D01*
X127489261Y-86623567D01*
X127683567Y-86429261D01*
X127836233Y-86200780D01*
X127941391Y-85946907D01*
X127995000Y-85677396D01*
X127995000Y-85402604D01*
X127941391Y-85133093D01*
X127836233Y-84879220D01*
X127683567Y-84650739D01*
X127489261Y-84456433D01*
X127260780Y-84303767D01*
X127006907Y-84198609D01*
X126737396Y-84145000D01*
X126462604Y-84145000D01*
X126193093Y-84198609D01*
X125939220Y-84303767D01*
X125710739Y-84456433D01*
X125516433Y-84650739D01*
X125363767Y-84879220D01*
X125330000Y-84960740D01*
X125296233Y-84879220D01*
X125143567Y-84650739D01*
X124949261Y-84456433D01*
X124720780Y-84303767D01*
X124466907Y-84198609D01*
X124197396Y-84145000D01*
X123922604Y-84145000D01*
X123653093Y-84198609D01*
X123399220Y-84303767D01*
X123170739Y-84456433D01*
X122976433Y-84650739D01*
X122823767Y-84879220D01*
X122792170Y-84955501D01*
X122785744Y-84937674D01*
X122724025Y-84822206D01*
X122484137Y-84755469D01*
X121699605Y-85540000D01*
X121340395Y-85540000D01*
X120555863Y-84755469D01*
X120315975Y-84822206D01*
X120199076Y-85070892D01*
X120132939Y-85337606D01*
X120120105Y-85612097D01*
X110695000Y-85612097D01*
X110695000Y-81695000D01*
X119162564Y-81695000D01*
X119135506Y-81709463D01*
X119135506Y-81709463D01*
G37*
X119135506Y-81709463D02*
X119038815Y-81788815D01*
X118959463Y-81885506D01*
X118900498Y-81995820D01*
X118864188Y-82115518D01*
X118851928Y-82240000D01*
X118851928Y-83760000D01*
X118864188Y-83884482D01*
X118900498Y-84004180D01*
X118959463Y-84114494D01*
X119038815Y-84211185D01*
X119135506Y-84290537D01*
X119245820Y-84349502D01*
X119365518Y-84385812D01*
X119490000Y-84398072D01*
X120784931Y-84398072D01*
X120735469Y-84575863D01*
X121520000Y-85360395D01*
X122304531Y-84575863D01*
X122237794Y-84335975D01*
X121989108Y-84219076D01*
X121722394Y-84152939D01*
X121516872Y-84143330D01*
X121540537Y-84114494D01*
X121599502Y-84004180D01*
X121635812Y-83884482D01*
X121644474Y-83796533D01*
X121706433Y-83889261D01*
X121900739Y-84083567D01*
X122129220Y-84236233D01*
X122383093Y-84341391D01*
X122652604Y-84395000D01*
X122927396Y-84395000D01*
X123196907Y-84341391D01*
X123450780Y-84236233D01*
X123679261Y-84083567D01*
X123873567Y-83889261D01*
X124026233Y-83660780D01*
X124060000Y-83579260D01*
X124093767Y-83660780D01*
X124246433Y-83889261D01*
X124440739Y-84083567D01*
X124669220Y-84236233D01*
X124923093Y-84341391D01*
X125192604Y-84395000D01*
X125467396Y-84395000D01*
X125736907Y-84341391D01*
X125990780Y-84236233D01*
X126219261Y-84083567D01*
X126413567Y-83889261D01*
X126552054Y-83682000D01*
X131303928Y-83682000D01*
X131303928Y-85482000D01*
X131316188Y-85606482D01*
X131352498Y-85726180D01*
X131411463Y-85836494D01*
X131490815Y-85933185D01*
X131587506Y-86012537D01*
X131697820Y-86071502D01*
X131817518Y-86107812D01*
X131942000Y-86120072D01*
X133742000Y-86120072D01*
X133866482Y-86107812D01*
X133986180Y-86071502D01*
X134096494Y-86012537D01*
X134193185Y-85933185D01*
X134272537Y-85836494D01*
X134331502Y-85726180D01*
X134337056Y-85707873D01*
X134403495Y-85774312D01*
X134654905Y-85942299D01*
X134934257Y-86058011D01*
X135230816Y-86117000D01*
X135533184Y-86117000D01*
X135829743Y-86058011D01*
X136109095Y-85942299D01*
X136360505Y-85774312D01*
X136574312Y-85560505D01*
X136742299Y-85309095D01*
X136858011Y-85029743D01*
X136887852Y-84879721D01*
X145035000Y-84879721D01*
X145035000Y-85300279D01*
X145117047Y-85712756D01*
X145277988Y-86101302D01*
X145511637Y-86450983D01*
X145809017Y-86748363D01*
X146158698Y-86982012D01*
X146547244Y-87142953D01*
X146959721Y-87225000D01*
X147380279Y-87225000D01*
X147792756Y-87142953D01*
X148181302Y-86982012D01*
X148530983Y-86748363D01*
X148689346Y-86590000D01*
X150111928Y-86590000D01*
X150124188Y-86714482D01*
X150160498Y-86834180D01*
X150219463Y-86944494D01*
X150298815Y-87041185D01*
X150395506Y-87120537D01*
X150505820Y-87179502D01*
X150625518Y-87215812D01*
X150750000Y-87228072D01*
X151964250Y-87225000D01*
X152123000Y-87066250D01*
X152123000Y-85217000D01*
X150273750Y-85217000D01*
X150115000Y-85375750D01*
X150111928Y-86590000D01*
X148689346Y-86590000D01*
X148828363Y-86450983D01*
X149062012Y-86101302D01*
X149222953Y-85712756D01*
X149305000Y-85300279D01*
X149305000Y-84879721D01*
X149222953Y-84467244D01*
X149062012Y-84078698D01*
X148828363Y-83729017D01*
X148689346Y-83590000D01*
X150111928Y-83590000D01*
X150115000Y-84804250D01*
X150273750Y-84963000D01*
X152123000Y-84963000D01*
X152123000Y-83113750D01*
X151964250Y-82955000D01*
X150750000Y-82951928D01*
X150625518Y-82964188D01*
X150505820Y-83000498D01*
X150395506Y-83059463D01*
X150298815Y-83138815D01*
X150219463Y-83235506D01*
X150160498Y-83345820D01*
X150124188Y-83465518D01*
X150111928Y-83590000D01*
X148689346Y-83590000D01*
X148530983Y-83431637D01*
X148181302Y-83197988D01*
X147792756Y-83037047D01*
X147380279Y-82955000D01*
X146959721Y-82955000D01*
X146547244Y-83037047D01*
X146158698Y-83197988D01*
X145809017Y-83431637D01*
X145511637Y-83729017D01*
X145277988Y-84078698D01*
X145117047Y-84467244D01*
X145035000Y-84879721D01*
X136887852Y-84879721D01*
X136917000Y-84733184D01*
X136917000Y-84430816D01*
X136858011Y-84134257D01*
X136742299Y-83854905D01*
X136574312Y-83603495D01*
X136360505Y-83389688D01*
X136109095Y-83221701D01*
X135829743Y-83105989D01*
X135533184Y-83047000D01*
X135230816Y-83047000D01*
X134934257Y-83105989D01*
X134654905Y-83221701D01*
X134403495Y-83389688D01*
X134337056Y-83456127D01*
X134331502Y-83437820D01*
X134272537Y-83327506D01*
X134193185Y-83230815D01*
X134096494Y-83151463D01*
X133986180Y-83092498D01*
X133866482Y-83056188D01*
X133742000Y-83043928D01*
X131942000Y-83043928D01*
X131817518Y-83056188D01*
X131697820Y-83092498D01*
X131587506Y-83151463D01*
X131490815Y-83230815D01*
X131411463Y-83327506D01*
X131352498Y-83437820D01*
X131316188Y-83557518D01*
X131303928Y-83682000D01*
X126552054Y-83682000D01*
X126566233Y-83660780D01*
X126671391Y-83406907D01*
X126725000Y-83137396D01*
X126725000Y-82862604D01*
X126671391Y-82593093D01*
X126566233Y-82339220D01*
X126413567Y-82110739D01*
X126219261Y-81916433D01*
X125990780Y-81763767D01*
X125824762Y-81695000D01*
X154305001Y-81695000D01*
X154305001Y-83281274D01*
X154280537Y-83235506D01*
X154201185Y-83138815D01*
X154104494Y-83059463D01*
X153994180Y-83000498D01*
X153874482Y-82964188D01*
X153750000Y-82951928D01*
X152535750Y-82955000D01*
X152377000Y-83113750D01*
X152377000Y-84963000D01*
X152397000Y-84963000D01*
X152397000Y-85217000D01*
X152377000Y-85217000D01*
X152377000Y-87066250D01*
X152535750Y-87225000D01*
X153750000Y-87228072D01*
X153874482Y-87215812D01*
X153994180Y-87179502D01*
X154104494Y-87120537D01*
X154201185Y-87041185D01*
X154280537Y-86944494D01*
X154305001Y-86898726D01*
X154305000Y-92517886D01*
X153907812Y-92120698D01*
X153353399Y-91750252D01*
X152737368Y-91495083D01*
X152083393Y-91365000D01*
X151416607Y-91365000D01*
X150762632Y-91495083D01*
X150146601Y-91750252D01*
X149592188Y-92120698D01*
X149120698Y-92592188D01*
X148750252Y-93146601D01*
X148495083Y-93762632D01*
X148365000Y-94416607D01*
X148365000Y-95083393D01*
X148495083Y-95737368D01*
X148750252Y-96353399D01*
X149120698Y-96907812D01*
X149517886Y-97305000D01*
X110695000Y-97305000D01*
X110695000Y-91667409D01*
X116080000Y-91667409D01*
X116080000Y-92112591D01*
X116166851Y-92549218D01*
X116337214Y-92960511D01*
X116584544Y-93330666D01*
X116899334Y-93645456D01*
X117269489Y-93892786D01*
X117680782Y-94063149D01*
X118117409Y-94150000D01*
X118562591Y-94150000D01*
X118999218Y-94063149D01*
X119410511Y-93892786D01*
X119780666Y-93645456D01*
X120095456Y-93330666D01*
X120342786Y-92960511D01*
X120513149Y-92549218D01*
X120600000Y-92112591D01*
X120600000Y-91667409D01*
X126240000Y-91667409D01*
X126240000Y-92112591D01*
X126326851Y-92549218D01*
X126497214Y-92960511D01*
X126744544Y-93330666D01*
X127059334Y-93645456D01*
X127429489Y-93892786D01*
X127840782Y-94063149D01*
X128277409Y-94150000D01*
X128722591Y-94150000D01*
X129159218Y-94063149D01*
X129570511Y-93892786D01*
X129940666Y-93645456D01*
X130255456Y-93330666D01*
X130502786Y-92960511D01*
X130673149Y-92549218D01*
X130760000Y-92112591D01*
X130760000Y-91667409D01*
X130673149Y-91230782D01*
X130502786Y-90819489D01*
X130255456Y-90449334D01*
X129940666Y-90134544D01*
X129570511Y-89887214D01*
X129159218Y-89716851D01*
X128722591Y-89630000D01*
X128277409Y-89630000D01*
X127840782Y-89716851D01*
X127429489Y-89887214D01*
X127059334Y-90134544D01*
X126744544Y-90449334D01*
X126497214Y-90819489D01*
X126326851Y-91230782D01*
X126240000Y-91667409D01*
X120600000Y-91667409D01*
X120513149Y-91230782D01*
X120342786Y-90819489D01*
X120095456Y-90449334D01*
X119780666Y-90134544D01*
X119410511Y-89887214D01*
X118999218Y-89716851D01*
X118562591Y-89630000D01*
X118117409Y-89630000D01*
X117680782Y-89716851D01*
X117269489Y-89887214D01*
X116899334Y-90134544D01*
X116584544Y-90449334D01*
X116337214Y-90819489D01*
X116166851Y-91230782D01*
X116080000Y-91667409D01*
X110695000Y-91667409D01*
X110695000Y-87804495D01*
X111265000Y-87804495D01*
X111265000Y-88195505D01*
X111341282Y-88579003D01*
X111490915Y-88940250D01*
X111708149Y-89265364D01*
X111984636Y-89541851D01*
X112309750Y-89759085D01*
X112670997Y-89908718D01*
X113054495Y-89985000D01*
X113445505Y-89985000D01*
X113829003Y-89908718D01*
X114190250Y-89759085D01*
X114515364Y-89541851D01*
X114791851Y-89265364D01*
X115009085Y-88940250D01*
X115158718Y-88579003D01*
X115235000Y-88195505D01*
X115235000Y-87804495D01*
X115158718Y-87420997D01*
X115009085Y-87059750D01*
X114791851Y-86734636D01*
X114561352Y-86504137D01*
X120735469Y-86504137D01*
X120802206Y-86744025D01*
X121050892Y-86860924D01*
X121317606Y-86927061D01*
X121592097Y-86939895D01*
X121863817Y-86898931D01*
X122122326Y-86805744D01*
X122237794Y-86744025D01*
X122304531Y-86504137D01*
X121520000Y-85719605D01*
X120735469Y-86504137D01*
X114561352Y-86504137D01*
X114515364Y-86458149D01*
X114190250Y-86240915D01*
X113829003Y-86091282D01*
X113445505Y-86015000D01*
X113054495Y-86015000D01*
X112670997Y-86091282D01*
X112309750Y-86240915D01*
X111984636Y-86458149D01*
X111708149Y-86734636D01*
X111490915Y-87059750D01*
X111341282Y-87420997D01*
X111265000Y-87804495D01*
X110695000Y-87804495D01*
X110695000Y-85612097D01*
X120120105Y-85612097D01*
X120161069Y-85883817D01*
X120254256Y-86142326D01*
X120315975Y-86257794D01*
X120555863Y-86324531D01*
X121340395Y-85540000D01*
X121699605Y-85540000D01*
X122484137Y-86324531D01*
X122724025Y-86257794D01*
X122789600Y-86118293D01*
X122823767Y-86200780D01*
X122976433Y-86429261D01*
X123170739Y-86623567D01*
X123399220Y-86776233D01*
X123653093Y-86881391D01*
X123922604Y-86935000D01*
X124197396Y-86935000D01*
X124466907Y-86881391D01*
X124720780Y-86776233D01*
X124949261Y-86623567D01*
X125143567Y-86429261D01*
X125296233Y-86200780D01*
X125330000Y-86119260D01*
X125363767Y-86200780D01*
X125516433Y-86429261D01*
X125710739Y-86623567D01*
X125939220Y-86776233D01*
X126193093Y-86881391D01*
X126462604Y-86935000D01*
X126737396Y-86935000D01*
X127006907Y-86881391D01*
X127260780Y-86776233D01*
X127489261Y-86623567D01*
X127683567Y-86429261D01*
X127836233Y-86200780D01*
X127941391Y-85946907D01*
X127995000Y-85677396D01*
X127995000Y-85402604D01*
X127941391Y-85133093D01*
X127836233Y-84879220D01*
X127683567Y-84650739D01*
X127489261Y-84456433D01*
X127260780Y-84303767D01*
X127006907Y-84198609D01*
X126737396Y-84145000D01*
X126462604Y-84145000D01*
X126193093Y-84198609D01*
X125939220Y-84303767D01*
X125710739Y-84456433D01*
X125516433Y-84650739D01*
X125363767Y-84879220D01*
X125330000Y-84960740D01*
X125296233Y-84879220D01*
X125143567Y-84650739D01*
X124949261Y-84456433D01*
X124720780Y-84303767D01*
X124466907Y-84198609D01*
X124197396Y-84145000D01*
X123922604Y-84145000D01*
X123653093Y-84198609D01*
X123399220Y-84303767D01*
X123170739Y-84456433D01*
X122976433Y-84650739D01*
X122823767Y-84879220D01*
X122792170Y-84955501D01*
X122785744Y-84937674D01*
X122724025Y-84822206D01*
X122484137Y-84755469D01*
X121699605Y-85540000D01*
X121340395Y-85540000D01*
X120555863Y-84755469D01*
X120315975Y-84822206D01*
X120199076Y-85070892D01*
X120132939Y-85337606D01*
X120120105Y-85612097D01*
X110695000Y-85612097D01*
X110695000Y-81695000D01*
X119162564Y-81695000D01*
X119135506Y-81709463D01*
M02*
