<?xml version="1.0" encoding="UTF-8" standalone="no"?>
<svg
   xmlns:dc="http://purl.org/dc/elements/1.1/"
   xmlns:cc="http://creativecommons.org/ns#"
   xmlns:rdf="http://www.w3.org/1999/02/22-rdf-syntax-ns#"
   xmlns:svg="http://www.w3.org/2000/svg"
   xmlns="http://www.w3.org/2000/svg"
   xmlns:sodipodi="http://sodipodi.sourceforge.net/DTD/sodipodi-0.dtd"
   xmlns:inkscape="http://www.inkscape.org/namespaces/inkscape"
   sodipodi:docname="button_20.svg"
   inkscape:version="1.0 (4035a4fb49, 2020-05-01)"
   id="svg8"
   version="1.1"
   viewBox="0 0 33.866664 16.933333"
   height="63.999996"
   width="127.99999">
  <defs
     id="defs2" />
  <sodipodi:namedview
     inkscape:window-maximized="1"
     inkscape:window-y="-7"
     inkscape:window-x="2552"
     inkscape:window-height="1138"
     inkscape:window-width="1920"
     fit-margin-bottom="0"
     fit-margin-right="0"
     fit-margin-left="0"
     fit-margin-top="0"
     units="px"
     showgrid="false"
     inkscape:document-rotation="0"
     inkscape:current-layer="g847"
     inkscape:document-units="mm"
     inkscape:cy="28.196561"
     inkscape:cx="56.482033"
     inkscape:zoom="3.959798"
     inkscape:pageshadow="2"
     inkscape:pageopacity="0.0"
     borderopacity="1.0"
     bordercolor="#666666"
     pagecolor="#ffffff"
     id="base" />
  <metadata
     id="metadata5">
    <rdf:RDF>
      <cc:Work
         rdf:about="">
        <dc:format>image/svg+xml</dc:format>
        <dc:type
           rdf:resource="http://purl.org/dc/dcmitype/StillImage" />
        <dc:title />
      </cc:Work>
    </rdf:RDF>
  </metadata>
  <g
     transform="translate(7.7069421,-18.369873)"
     id="layer1"
     inkscape:groupmode="layer"
     inkscape:label="Layer 1">
    <g
       id="g842">
      <g
         id="g847">
        <g
           style="font-style:normal;font-weight:normal;font-size:13.9927px;line-height:1.25;font-family:sans-serif;fill:#000000;fill-opacity:1;stroke:none;stroke-width:0.264583"
           id="text835"
           aria-label="20">
          <path
             id="path835"
             style="stroke-width:0.264583"
             d="m 2.9816015,30.768569 h 4.8168228 v 1.161504 H 1.3213349 v -1.161504 q 0.7857228,-0.813052 2.1385327,-2.179527 1.3596422,-1.373306 1.7080932,-1.769584 0.6627401,-0.744729 0.9223703,-1.257157 0.2664626,-0.51926 0.2664626,-1.018023 0,-0.813053 -0.5739194,-1.325481 -0.5670869,-0.512428 -1.4826249,-0.512428 -0.6490754,0 -1.3733069,0.225469 -0.7173992,0.225468 -1.5372839,0.683237 v -1.393804 q 0.8335495,-0.334786 1.557781,-0.505596 0.7242315,-0.170809 1.3254803,-0.170809 1.5851105,0 2.527978,0.792555 0.9428674,0.792556 0.9428674,2.118036 0,0.628578 -0.239133,1.195665 -0.2323007,0.560255 -0.8540466,1.32548 -0.1708093,0.198139 -1.0863473,1.147839 -0.915538,0.942868 -2.5826369,2.644128 z" />
          <path
             id="path837"
             style="stroke-width:0.264583"
             d="m 13.653768,22.638046 q -1.06585,0 -1.605608,1.052185 -0.532925,1.045353 -0.532925,3.149724 0,2.097538 0.532925,3.149724 0.539758,1.045353 1.605608,1.045353 1.072682,0 1.605608,-1.045353 0.539757,-1.052186 0.539757,-3.149724 0,-2.104371 -0.539757,-3.149724 -0.532926,-1.052185 -1.605608,-1.052185 z m 0,-1.09318 q 1.714926,0 2.616799,1.359642 0.908705,1.35281 0.908705,3.935447 0,2.575805 -0.908705,3.935447 -0.901873,1.35281 -2.616799,1.35281 -1.714926,0 -2.623631,-1.35281 -0.901873,-1.359642 -0.901873,-3.935447 0,-2.582637 0.901873,-3.935447 0.908705,-1.359642 2.623631,-1.359642 z" />
        </g>
        <rect
           rx="2.1144786"
           y="18.369873"
           x="-7.7069421"
           height="16.933332"
           width="33.866665"
           id="rect837"
           style="opacity:0.565359;fill:none;stroke:none;stroke-width:4.233;stroke-miterlimit:4;stroke-dasharray:none" />
      </g>
    </g>
  </g>
</svg>
