<?xml version="1.0" encoding="UTF-8" standalone="no"?>
<svg
   xmlns:dc="http://purl.org/dc/elements/1.1/"
   xmlns:cc="http://creativecommons.org/ns#"
   xmlns:rdf="http://www.w3.org/1999/02/22-rdf-syntax-ns#"
   xmlns:svg="http://www.w3.org/2000/svg"
   xmlns="http://www.w3.org/2000/svg"
   xmlns:sodipodi="http://sodipodi.sourceforge.net/DTD/sodipodi-0.dtd"
   xmlns:inkscape="http://www.inkscape.org/namespaces/inkscape"
   sodipodi:docname="button_stop_en.svg"
   inkscape:version="1.0 (4035a4fb49, 2020-05-01)"
   id="svg8"
   version="1.1"
   viewBox="0 0 33.866664 16.933333"
   height="63.999996"
   width="127.99999">
  <defs
     id="defs2" />
  <sodipodi:namedview
     inkscape:window-maximized="1"
     inkscape:window-y="-7"
     inkscape:window-x="2552"
     inkscape:window-height="1138"
     inkscape:window-width="1920"
     fit-margin-bottom="0"
     fit-margin-right="0"
     fit-margin-left="0"
     fit-margin-top="0"
     units="px"
     showgrid="false"
     inkscape:document-rotation="0"
     inkscape:current-layer="g838"
     inkscape:document-units="mm"
     inkscape:cy="28.196561"
     inkscape:cx="53.810762"
     inkscape:zoom="3.959798"
     inkscape:pageshadow="2"
     inkscape:pageopacity="0.0"
     borderopacity="1.0"
     bordercolor="#666666"
     pagecolor="#ffffff"
     id="base" />
  <metadata
     id="metadata5">
    <rdf:RDF>
      <cc:Work
         rdf:about="">
        <dc:format>image/svg+xml</dc:format>
        <dc:type
           rdf:resource="http://purl.org/dc/dcmitype/StillImage" />
        <dc:title />
      </cc:Work>
    </rdf:RDF>
  </metadata>
  <g
     transform="translate(7.0001683,-18.369873)"
     id="layer1"
     inkscape:groupmode="layer"
     inkscape:label="Layer 1">
    <g
       id="g842">
      <g
         id="g847">
        <g
           id="g838">
          <g
             style="font-style:normal;font-weight:normal;font-size:13.9927px;line-height:1.25;font-family:sans-serif;fill:#000000;fill-opacity:1;stroke:none;stroke-width:0.264583"
             id="text835"
             aria-label="Stop">
            <path
               id="path836"
               style="stroke-width:0.264583"
               d="m 1.4371084,20.794597 v 1.345977 Q 0.65138552,21.764794 -0.04551651,21.58032 -0.74241854,21.395846 -1.391494,21.395846 q -1.1273415,0 -1.742255,0.437272 -0.6080812,0.437272 -0.6080812,1.243492 0,0.676404 0.40311,1.024855 0.4099423,0.341619 1.5441162,0.553423 l 0.83354953,0.170809 q 1.54411626,0.293792 2.27518017,1.038521 0.7378963,0.737896 0.7378963,1.981388 0,1.482625 -0.9975265,2.24785 -0.99069404,0.765226 -2.9105908,0.765226 -0.7242315,0 -1.5441163,-0.163977 -0.8130524,-0.163977 -1.6875961,-0.485098 v -1.421134 q 0.8403819,0.471434 1.6466019,0.710567 0.80622,0.239133 1.5851105,0.239133 1.18200049,0 1.82424354,-0.464601 0.64224304,-0.464602 0.64224304,-1.325481 0,-0.751561 -0.46460135,-1.175168 -0.45776898,-0.423607 -1.50995443,-0.63541 l -0.8403818,-0.163977 q -1.5441163,-0.307457 -2.234186,-0.963365 -0.6900696,-0.655908 -0.6900696,-1.824243 0,-1.35281 0.9496998,-2.131701 0.9565322,-0.77889 2.6304636,-0.77889 0.71739911,0 1.46212775,0.129815 0.74472864,0.129815 1.52361915,0.389445 z" />
            <path
               id="path838"
               style="stroke-width:0.264583"
               d="m 5.3930524,20.835591 v 2.172695 h 2.5894693 v 0.977029 H 5.3930524 v 4.154083 q 0,0.936035 0.2527978,1.202497 0.2596302,0.266463 1.0453531,0.266463 h 1.2913184 v 1.052185 H 6.6912033 q -1.4552955,0 -2.0087177,-0.539757 -0.5534222,-0.54659 -0.5534222,-1.981388 V 23.985315 H 3.2066931 v -0.977029 h 0.9223703 v -2.172695 z" />
            <path
               id="path840"
               style="stroke-width:0.264583"
               d="m 12.608038,23.889662 q -1.011191,0 -1.598775,0.792555 -0.587584,0.785723 -0.587584,2.15903 0,1.373307 0.580752,2.165862 0.587584,0.785723 1.605607,0.785723 1.004359,0 1.591943,-0.792555 0.587584,-0.792555 0.587584,-2.15903 0,-1.359642 -0.587584,-2.152197 -0.587584,-0.799388 -1.591943,-0.799388 z m 0,-1.06585 q 1.63977,0 2.575805,1.06585 0.936035,1.06585 0.936035,2.951585 0,1.878903 -0.936035,2.951585 -0.936035,1.06585 -2.575805,1.06585 -1.646602,0 -2.582637,-1.06585 -0.9292023,-1.072682 -0.9292023,-2.951585 0,-1.885735 0.9292023,-2.951585 0.936035,-1.06585 2.582637,-1.06585 z" />
            <path
               id="path842"
               style="stroke-width:0.264583"
               d="m 19.413081,29.512705 v 4.058429 H 18.149092 V 23.008286 h 1.263989 v 1.161503 q 0.396278,-0.683237 0.997527,-1.011191 0.608081,-0.334786 1.448463,-0.334786 1.393804,0 2.261515,1.106844 0.874544,1.106845 0.874544,2.910591 0,1.803746 -0.874544,2.910591 -0.867711,1.106844 -2.261515,1.106844 -0.840382,0 -1.448463,-0.327954 -0.601249,-0.334786 -0.997527,-1.018023 z m 4.277066,-2.671458 q 0,-1.386972 -0.573919,-2.172695 -0.567087,-0.792555 -1.564614,-0.792555 -0.997526,0 -1.571446,0.792555 -0.567087,0.785723 -0.567087,2.172695 0,1.386972 0.567087,2.179527 0.57392,0.785723 1.571446,0.785723 0.997527,0 1.564614,-0.785723 0.573919,-0.792555 0.573919,-2.179527 z" />
          </g>
          <rect
             style="opacity:0.565359;fill:none;stroke:none;stroke-width:4.233;stroke-miterlimit:4;stroke-dasharray:none"
             id="rect837"
             width="33.866665"
             height="16.933332"
             x="-7.0001683"
             y="18.369873"
             rx="2.1144786" />
        </g>
      </g>
    </g>
  </g>
</svg>
