%TF.GenerationSoftware,KiCad,Pcbnew,(5.1.6)-1*%
%TF.CreationDate,2021-04-28T12:53:02+02:00*%
%TF.ProjectId,start_leds_v1,73746172-745f-46c6-9564-735f76312e6b,rev?*%
%TF.SameCoordinates,Original*%
%TF.FileFunction,Soldermask,Top*%
%TF.FilePolarity,Negative*%
%FSLAX46Y46*%
G04 Gerber Fmt 4.6, Leading zero omitted, Abs format (unit mm)*
G04 Created by KiCad (PCBNEW (5.1.6)-1) date 2021-04-28 12:53:02*
%MOMM*%
%LPD*%
G01*
G04 APERTURE LIST*
%ADD10C,0.100000*%
%ADD11C,2.599360*%
%ADD12O,1.800000X1.800000*%
%ADD13R,1.800000X1.800000*%
%ADD14R,2.700000X1.600000*%
G04 APERTURE END LIST*
D10*
G36*
X151000000Y-65750000D02*
G01*
X89000000Y-65750000D01*
X89000000Y-64000000D01*
X151000000Y-64000000D01*
X151000000Y-65750000D01*
G37*
X151000000Y-65750000D02*
X89000000Y-65750000D01*
X89000000Y-64000000D01*
X151000000Y-64000000D01*
X151000000Y-65750000D01*
D11*
%TO.C,REF\u002A\u002A*%
X153250000Y-56250000D03*
%TD*%
%TO.C,REF\u002A\u002A*%
X90000000Y-61500000D03*
%TD*%
%TO.C,R2*%
G36*
G01*
X144521738Y-60900000D02*
X145478262Y-60900000D01*
G75*
G02*
X145750000Y-61171738I0J-271738D01*
G01*
X145750000Y-61878262D01*
G75*
G02*
X145478262Y-62150000I-271738J0D01*
G01*
X144521738Y-62150000D01*
G75*
G02*
X144250000Y-61878262I0J271738D01*
G01*
X144250000Y-61171738D01*
G75*
G02*
X144521738Y-60900000I271738J0D01*
G01*
G37*
G36*
G01*
X144521738Y-58850000D02*
X145478262Y-58850000D01*
G75*
G02*
X145750000Y-59121738I0J-271738D01*
G01*
X145750000Y-59828262D01*
G75*
G02*
X145478262Y-60100000I-271738J0D01*
G01*
X144521738Y-60100000D01*
G75*
G02*
X144250000Y-59828262I0J271738D01*
G01*
X144250000Y-59121738D01*
G75*
G02*
X144521738Y-58850000I271738J0D01*
G01*
G37*
%TD*%
%TO.C,R1*%
G36*
G01*
X146521738Y-60900000D02*
X147478262Y-60900000D01*
G75*
G02*
X147750000Y-61171738I0J-271738D01*
G01*
X147750000Y-61878262D01*
G75*
G02*
X147478262Y-62150000I-271738J0D01*
G01*
X146521738Y-62150000D01*
G75*
G02*
X146250000Y-61878262I0J271738D01*
G01*
X146250000Y-61171738D01*
G75*
G02*
X146521738Y-60900000I271738J0D01*
G01*
G37*
G36*
G01*
X146521738Y-58850000D02*
X147478262Y-58850000D01*
G75*
G02*
X147750000Y-59121738I0J-271738D01*
G01*
X147750000Y-59828262D01*
G75*
G02*
X147478262Y-60100000I-271738J0D01*
G01*
X146521738Y-60100000D01*
G75*
G02*
X146250000Y-59828262I0J271738D01*
G01*
X146250000Y-59121738D01*
G75*
G02*
X146521738Y-58850000I271738J0D01*
G01*
G37*
%TD*%
D12*
%TO.C,J2*%
X92540000Y-56000000D03*
D13*
X90000000Y-56000000D03*
%TD*%
D12*
%TO.C,J1*%
X153000000Y-64540000D03*
D13*
X153000000Y-62000000D03*
%TD*%
D14*
%TO.C,D8*%
X102000000Y-56500000D03*
X102000000Y-59500000D03*
%TD*%
%TO.C,D7*%
X94000000Y-59500000D03*
X94000000Y-62500000D03*
%TD*%
%TO.C,D6*%
X118000000Y-56500000D03*
X118000000Y-59500000D03*
%TD*%
%TO.C,D5*%
X110000000Y-59500000D03*
X110000000Y-62500000D03*
%TD*%
%TO.C,D4*%
X134000000Y-56500000D03*
X134000000Y-59500000D03*
%TD*%
%TO.C,D3*%
X126000000Y-59500000D03*
X126000000Y-62500000D03*
%TD*%
%TO.C,D2*%
X150000000Y-56500000D03*
X150000000Y-59500000D03*
%TD*%
%TO.C,D1*%
X142000000Y-59500000D03*
X142000000Y-62500000D03*
%TD*%
M02*
