%TF.GenerationSoftware,KiCad,Pcbnew,(5.1.6)-1*%
%TF.CreationDate,2021-04-28T12:53:02+02:00*%
%TF.ProjectId,start_leds_v1,73746172-745f-46c6-9564-735f76312e6b,rev?*%
%TF.SameCoordinates,Original*%
%TF.FileFunction,Legend,Bot*%
%TF.FilePolarity,Positive*%
%FSLAX46Y46*%
G04 Gerber Fmt 4.6, Leading zero omitted, Abs format (unit mm)*
G04 Created by KiCad (PCBNEW (5.1.6)-1) date 2021-04-28 12:53:02*
%MOMM*%
%LPD*%
G01*
G04 APERTURE LIST*
%ADD10C,0.120000*%
%ADD11C,0.150000*%
G04 APERTURE END LIST*
D10*
%TO.C,J2*%
X88670000Y-54670000D02*
X88670000Y-56000000D01*
X90000000Y-54670000D02*
X88670000Y-54670000D01*
X91270000Y-54670000D02*
X91270000Y-57330000D01*
X91270000Y-57330000D02*
X93870000Y-57330000D01*
X91270000Y-54670000D02*
X93870000Y-54670000D01*
X93870000Y-54670000D02*
X93870000Y-57330000D01*
%TO.C,J1*%
X154330000Y-60670000D02*
X153000000Y-60670000D01*
X154330000Y-62000000D02*
X154330000Y-60670000D01*
X154330000Y-63270000D02*
X151670000Y-63270000D01*
X151670000Y-63270000D02*
X151670000Y-65870000D01*
X154330000Y-63270000D02*
X154330000Y-65870000D01*
X154330000Y-65870000D02*
X151670000Y-65870000D01*
%TO.C,J2*%
D11*
X87122380Y-55666666D02*
X87836666Y-55666666D01*
X87979523Y-55619047D01*
X88074761Y-55523809D01*
X88122380Y-55380952D01*
X88122380Y-55285714D01*
X87217619Y-56095238D02*
X87170000Y-56142857D01*
X87122380Y-56238095D01*
X87122380Y-56476190D01*
X87170000Y-56571428D01*
X87217619Y-56619047D01*
X87312857Y-56666666D01*
X87408095Y-56666666D01*
X87550952Y-56619047D01*
X88122380Y-56047619D01*
X88122380Y-56666666D01*
%TO.C,J1*%
X153333333Y-59122380D02*
X153333333Y-59836666D01*
X153380952Y-59979523D01*
X153476190Y-60074761D01*
X153619047Y-60122380D01*
X153714285Y-60122380D01*
X152333333Y-60122380D02*
X152904761Y-60122380D01*
X152619047Y-60122380D02*
X152619047Y-59122380D01*
X152714285Y-59265238D01*
X152809523Y-59360476D01*
X152904761Y-59408095D01*
%TD*%
M02*
