M48
; DRILL file {KiCad (5.1.6)-1} date 04/28/21 12:53:06
; FORMAT={-:-/ absolute / inch / decimal}
; #@! TF.CreationDate,2021-04-28T12:53:06+02:00
; #@! TF.GenerationSoftware,Kicad,Pcbnew,(5.1.6)-1
; #@! TF.FileFunction,Plated,1,2,PTH
FMAT,2
INCH
T1C0.0157
T2C0.0394
T3C0.0394
%
G90
G05
T1
X3.5433Y-2.5591
X3.7008Y-2.5591
X3.8583Y-2.5591
X4.0157Y-2.5591
X4.1732Y-2.5591
X4.3307Y-2.5591
X4.4882Y-2.5591
X4.6457Y-2.5591
X4.8031Y-2.5591
X4.9606Y-2.5591
X5.1181Y-2.5591
X5.2756Y-2.5591
X5.4331Y-2.5591
X5.5906Y-2.5591
X5.748Y-2.5591
X5.9055Y-2.5591
T2
X6.0236Y-2.4409
X6.0236Y-2.5409
X3.5433Y-2.2047
X3.6433Y-2.2047
T3
X3.5433Y-2.4213
X6.0335Y-2.2146
T0
M30
