%TF.GenerationSoftware,KiCad,Pcbnew,(5.1.6)-1*%
%TF.CreationDate,2021-04-28T12:53:02+02:00*%
%TF.ProjectId,start_leds_v1,73746172-745f-46c6-9564-735f76312e6b,rev?*%
%TF.SameCoordinates,Original*%
%TF.FileFunction,Legend,Top*%
%TF.FilePolarity,Positive*%
%FSLAX46Y46*%
G04 Gerber Fmt 4.6, Leading zero omitted, Abs format (unit mm)*
G04 Created by KiCad (PCBNEW (5.1.6)-1) date 2021-04-28 12:53:02*
%MOMM*%
%LPD*%
G01*
G04 APERTURE LIST*
%ADD10C,0.120000*%
%ADD11C,0.150000*%
G04 APERTURE END LIST*
D10*
X137000000Y-60000000D02*
X139000000Y-60000000D01*
X138000000Y-60000000D02*
X137000000Y-58000000D01*
X139000000Y-58000000D02*
X138000000Y-60000000D01*
X137000000Y-58000000D02*
X139000000Y-58000000D01*
X138000000Y-57000000D02*
X138000000Y-61000000D01*
%TO.C,R2*%
X144290000Y-60238748D02*
X144290000Y-60761252D01*
X145710000Y-60238748D02*
X145710000Y-60761252D01*
%TO.C,R1*%
X146290000Y-60238748D02*
X146290000Y-60761252D01*
X147710000Y-60238748D02*
X147710000Y-60761252D01*
%TO.C,D8*%
X100400000Y-60400000D02*
X101200000Y-60400000D01*
X100400000Y-55750000D02*
X100400000Y-60400000D01*
X103600000Y-55750000D02*
X103600000Y-60400000D01*
%TO.C,D7*%
X92400000Y-63400000D02*
X93200000Y-63400000D01*
X92400000Y-58750000D02*
X92400000Y-63400000D01*
X95600000Y-58750000D02*
X95600000Y-63400000D01*
%TO.C,D6*%
X116400000Y-60400000D02*
X117200000Y-60400000D01*
X116400000Y-55750000D02*
X116400000Y-60400000D01*
X119600000Y-55750000D02*
X119600000Y-60400000D01*
%TO.C,D5*%
X108400000Y-63400000D02*
X109200000Y-63400000D01*
X108400000Y-58750000D02*
X108400000Y-63400000D01*
X111600000Y-58750000D02*
X111600000Y-63400000D01*
%TO.C,D4*%
X132400000Y-60400000D02*
X133200000Y-60400000D01*
X132400000Y-55750000D02*
X132400000Y-60400000D01*
X135600000Y-55750000D02*
X135600000Y-60400000D01*
%TO.C,D3*%
X124400000Y-63400000D02*
X125200000Y-63400000D01*
X124400000Y-58750000D02*
X124400000Y-63400000D01*
X127600000Y-58750000D02*
X127600000Y-63400000D01*
%TO.C,D2*%
X148400000Y-60400000D02*
X149200000Y-60400000D01*
X148400000Y-55750000D02*
X148400000Y-60400000D01*
X151600000Y-55750000D02*
X151600000Y-60400000D01*
%TO.C,D1*%
X140400000Y-63400000D02*
X141200000Y-63400000D01*
X140400000Y-58750000D02*
X140400000Y-63400000D01*
X143600000Y-58750000D02*
X143600000Y-63400000D01*
%TO.C,REF\u002A\u002A*%
D11*
X152011904Y-59202380D02*
X152011904Y-58202380D01*
X152583333Y-59202380D01*
X152583333Y-58202380D01*
X153059523Y-58678571D02*
X153392857Y-58678571D01*
X153535714Y-59202380D02*
X153059523Y-59202380D01*
X153059523Y-58202380D01*
X153535714Y-58202380D01*
X154488095Y-58250000D02*
X154392857Y-58202380D01*
X154250000Y-58202380D01*
X154107142Y-58250000D01*
X154011904Y-58345238D01*
X153964285Y-58440476D01*
X153916666Y-58630952D01*
X153916666Y-58773809D01*
X153964285Y-58964285D01*
X154011904Y-59059523D01*
X154107142Y-59154761D01*
X154250000Y-59202380D01*
X154345238Y-59202380D01*
X154488095Y-59154761D01*
X154535714Y-59107142D01*
X154535714Y-58773809D01*
X154345238Y-58773809D01*
X88738095Y-59412380D02*
X88738095Y-58412380D01*
X89119047Y-58412380D01*
X89214285Y-58460000D01*
X89261904Y-58507619D01*
X89309523Y-58602857D01*
X89309523Y-58745714D01*
X89261904Y-58840952D01*
X89214285Y-58888571D01*
X89119047Y-58936190D01*
X88738095Y-58936190D01*
X89928571Y-58412380D02*
X90119047Y-58412380D01*
X90214285Y-58460000D01*
X90309523Y-58555238D01*
X90357142Y-58745714D01*
X90357142Y-59079047D01*
X90309523Y-59269523D01*
X90214285Y-59364761D01*
X90119047Y-59412380D01*
X89928571Y-59412380D01*
X89833333Y-59364761D01*
X89738095Y-59269523D01*
X89690476Y-59079047D01*
X89690476Y-58745714D01*
X89738095Y-58555238D01*
X89833333Y-58460000D01*
X89928571Y-58412380D01*
X90738095Y-59364761D02*
X90880952Y-59412380D01*
X91119047Y-59412380D01*
X91214285Y-59364761D01*
X91261904Y-59317142D01*
X91309523Y-59221904D01*
X91309523Y-59126666D01*
X91261904Y-59031428D01*
X91214285Y-58983809D01*
X91119047Y-58936190D01*
X90928571Y-58888571D01*
X90833333Y-58840952D01*
X90785714Y-58793333D01*
X90738095Y-58698095D01*
X90738095Y-58602857D01*
X90785714Y-58507619D01*
X90833333Y-58460000D01*
X90928571Y-58412380D01*
X91166666Y-58412380D01*
X91309523Y-58460000D01*
%TO.C,R2*%
X144833333Y-58452380D02*
X144500000Y-57976190D01*
X144261904Y-58452380D02*
X144261904Y-57452380D01*
X144642857Y-57452380D01*
X144738095Y-57500000D01*
X144785714Y-57547619D01*
X144833333Y-57642857D01*
X144833333Y-57785714D01*
X144785714Y-57880952D01*
X144738095Y-57928571D01*
X144642857Y-57976190D01*
X144261904Y-57976190D01*
X145214285Y-57547619D02*
X145261904Y-57500000D01*
X145357142Y-57452380D01*
X145595238Y-57452380D01*
X145690476Y-57500000D01*
X145738095Y-57547619D01*
X145785714Y-57642857D01*
X145785714Y-57738095D01*
X145738095Y-57880952D01*
X145166666Y-58452380D01*
X145785714Y-58452380D01*
%TO.C,R1*%
X146873333Y-58452380D02*
X146540000Y-57976190D01*
X146301904Y-58452380D02*
X146301904Y-57452380D01*
X146682857Y-57452380D01*
X146778095Y-57500000D01*
X146825714Y-57547619D01*
X146873333Y-57642857D01*
X146873333Y-57785714D01*
X146825714Y-57880952D01*
X146778095Y-57928571D01*
X146682857Y-57976190D01*
X146301904Y-57976190D01*
X147825714Y-58452380D02*
X147254285Y-58452380D01*
X147540000Y-58452380D02*
X147540000Y-57452380D01*
X147444761Y-57595238D01*
X147349523Y-57690476D01*
X147254285Y-57738095D01*
%TO.C,D8*%
X101261904Y-61952380D02*
X101261904Y-60952380D01*
X101500000Y-60952380D01*
X101642857Y-61000000D01*
X101738095Y-61095238D01*
X101785714Y-61190476D01*
X101833333Y-61380952D01*
X101833333Y-61523809D01*
X101785714Y-61714285D01*
X101738095Y-61809523D01*
X101642857Y-61904761D01*
X101500000Y-61952380D01*
X101261904Y-61952380D01*
X102404761Y-61380952D02*
X102309523Y-61333333D01*
X102261904Y-61285714D01*
X102214285Y-61190476D01*
X102214285Y-61142857D01*
X102261904Y-61047619D01*
X102309523Y-61000000D01*
X102404761Y-60952380D01*
X102595238Y-60952380D01*
X102690476Y-61000000D01*
X102738095Y-61047619D01*
X102785714Y-61142857D01*
X102785714Y-61190476D01*
X102738095Y-61285714D01*
X102690476Y-61333333D01*
X102595238Y-61380952D01*
X102404761Y-61380952D01*
X102309523Y-61428571D01*
X102261904Y-61476190D01*
X102214285Y-61571428D01*
X102214285Y-61761904D01*
X102261904Y-61857142D01*
X102309523Y-61904761D01*
X102404761Y-61952380D01*
X102595238Y-61952380D01*
X102690476Y-61904761D01*
X102738095Y-61857142D01*
X102785714Y-61761904D01*
X102785714Y-61571428D01*
X102738095Y-61476190D01*
X102690476Y-61428571D01*
X102595238Y-61380952D01*
%TO.C,D7*%
X96261904Y-59452380D02*
X96261904Y-58452380D01*
X96500000Y-58452380D01*
X96642857Y-58500000D01*
X96738095Y-58595238D01*
X96785714Y-58690476D01*
X96833333Y-58880952D01*
X96833333Y-59023809D01*
X96785714Y-59214285D01*
X96738095Y-59309523D01*
X96642857Y-59404761D01*
X96500000Y-59452380D01*
X96261904Y-59452380D01*
X97166666Y-58452380D02*
X97833333Y-58452380D01*
X97404761Y-59452380D01*
%TO.C,D6*%
X117261904Y-61952380D02*
X117261904Y-60952380D01*
X117500000Y-60952380D01*
X117642857Y-61000000D01*
X117738095Y-61095238D01*
X117785714Y-61190476D01*
X117833333Y-61380952D01*
X117833333Y-61523809D01*
X117785714Y-61714285D01*
X117738095Y-61809523D01*
X117642857Y-61904761D01*
X117500000Y-61952380D01*
X117261904Y-61952380D01*
X118690476Y-60952380D02*
X118500000Y-60952380D01*
X118404761Y-61000000D01*
X118357142Y-61047619D01*
X118261904Y-61190476D01*
X118214285Y-61380952D01*
X118214285Y-61761904D01*
X118261904Y-61857142D01*
X118309523Y-61904761D01*
X118404761Y-61952380D01*
X118595238Y-61952380D01*
X118690476Y-61904761D01*
X118738095Y-61857142D01*
X118785714Y-61761904D01*
X118785714Y-61523809D01*
X118738095Y-61428571D01*
X118690476Y-61380952D01*
X118595238Y-61333333D01*
X118404761Y-61333333D01*
X118309523Y-61380952D01*
X118261904Y-61428571D01*
X118214285Y-61523809D01*
%TO.C,D5*%
X109261904Y-57952380D02*
X109261904Y-56952380D01*
X109500000Y-56952380D01*
X109642857Y-57000000D01*
X109738095Y-57095238D01*
X109785714Y-57190476D01*
X109833333Y-57380952D01*
X109833333Y-57523809D01*
X109785714Y-57714285D01*
X109738095Y-57809523D01*
X109642857Y-57904761D01*
X109500000Y-57952380D01*
X109261904Y-57952380D01*
X110738095Y-56952380D02*
X110261904Y-56952380D01*
X110214285Y-57428571D01*
X110261904Y-57380952D01*
X110357142Y-57333333D01*
X110595238Y-57333333D01*
X110690476Y-57380952D01*
X110738095Y-57428571D01*
X110785714Y-57523809D01*
X110785714Y-57761904D01*
X110738095Y-57857142D01*
X110690476Y-57904761D01*
X110595238Y-57952380D01*
X110357142Y-57952380D01*
X110261904Y-57904761D01*
X110214285Y-57857142D01*
%TO.C,D4*%
X133261904Y-61952380D02*
X133261904Y-60952380D01*
X133500000Y-60952380D01*
X133642857Y-61000000D01*
X133738095Y-61095238D01*
X133785714Y-61190476D01*
X133833333Y-61380952D01*
X133833333Y-61523809D01*
X133785714Y-61714285D01*
X133738095Y-61809523D01*
X133642857Y-61904761D01*
X133500000Y-61952380D01*
X133261904Y-61952380D01*
X134690476Y-61285714D02*
X134690476Y-61952380D01*
X134452380Y-60904761D02*
X134214285Y-61619047D01*
X134833333Y-61619047D01*
%TO.C,D3*%
X125261904Y-57952380D02*
X125261904Y-56952380D01*
X125500000Y-56952380D01*
X125642857Y-57000000D01*
X125738095Y-57095238D01*
X125785714Y-57190476D01*
X125833333Y-57380952D01*
X125833333Y-57523809D01*
X125785714Y-57714285D01*
X125738095Y-57809523D01*
X125642857Y-57904761D01*
X125500000Y-57952380D01*
X125261904Y-57952380D01*
X126166666Y-56952380D02*
X126785714Y-56952380D01*
X126452380Y-57333333D01*
X126595238Y-57333333D01*
X126690476Y-57380952D01*
X126738095Y-57428571D01*
X126785714Y-57523809D01*
X126785714Y-57761904D01*
X126738095Y-57857142D01*
X126690476Y-57904761D01*
X126595238Y-57952380D01*
X126309523Y-57952380D01*
X126214285Y-57904761D01*
X126166666Y-57857142D01*
%TO.C,D2*%
X146261904Y-55952380D02*
X146261904Y-54952380D01*
X146500000Y-54952380D01*
X146642857Y-55000000D01*
X146738095Y-55095238D01*
X146785714Y-55190476D01*
X146833333Y-55380952D01*
X146833333Y-55523809D01*
X146785714Y-55714285D01*
X146738095Y-55809523D01*
X146642857Y-55904761D01*
X146500000Y-55952380D01*
X146261904Y-55952380D01*
X147214285Y-55047619D02*
X147261904Y-55000000D01*
X147357142Y-54952380D01*
X147595238Y-54952380D01*
X147690476Y-55000000D01*
X147738095Y-55047619D01*
X147785714Y-55142857D01*
X147785714Y-55238095D01*
X147738095Y-55380952D01*
X147166666Y-55952380D01*
X147785714Y-55952380D01*
%TO.C,D1*%
X141261904Y-57952380D02*
X141261904Y-56952380D01*
X141500000Y-56952380D01*
X141642857Y-57000000D01*
X141738095Y-57095238D01*
X141785714Y-57190476D01*
X141833333Y-57380952D01*
X141833333Y-57523809D01*
X141785714Y-57714285D01*
X141738095Y-57809523D01*
X141642857Y-57904761D01*
X141500000Y-57952380D01*
X141261904Y-57952380D01*
X142785714Y-57952380D02*
X142214285Y-57952380D01*
X142500000Y-57952380D02*
X142500000Y-56952380D01*
X142404761Y-57095238D01*
X142309523Y-57190476D01*
X142214285Y-57238095D01*
%TD*%
M02*
