G04 #@! TF.GenerationSoftware,KiCad,Pcbnew,(5.1.6)-1*
G04 #@! TF.CreationDate,2021-04-28T12:57:51+02:00*
G04 #@! TF.ProjectId,led_display_v1,6c65645f-6469-4737-906c-61795f76312e,rev?*
G04 #@! TF.SameCoordinates,Original*
G04 #@! TF.FileFunction,Paste,Top*
G04 #@! TF.FilePolarity,Positive*
%FSLAX46Y46*%
G04 Gerber Fmt 4.6, Leading zero omitted, Abs format (unit mm)*
G04 Created by KiCad (PCBNEW (5.1.6)-1) date 2021-04-28 12:57:51*
%MOMM*%
%LPD*%
G01*
G04 APERTURE LIST*
%ADD10R,0.600000X1.500000*%
%ADD11R,1.500000X0.600000*%
G04 APERTURE END LIST*
G36*
G01*
X112007000Y-58673250D02*
X112007000Y-57760750D01*
G75*
G02*
X112250750Y-57517000I243750J0D01*
G01*
X112738250Y-57517000D01*
G75*
G02*
X112982000Y-57760750I0J-243750D01*
G01*
X112982000Y-58673250D01*
G75*
G02*
X112738250Y-58917000I-243750J0D01*
G01*
X112250750Y-58917000D01*
G75*
G02*
X112007000Y-58673250I0J243750D01*
G01*
G37*
G36*
G01*
X110132000Y-58673250D02*
X110132000Y-57760750D01*
G75*
G02*
X110375750Y-57517000I243750J0D01*
G01*
X110863250Y-57517000D01*
G75*
G02*
X111107000Y-57760750I0J-243750D01*
G01*
X111107000Y-58673250D01*
G75*
G02*
X110863250Y-58917000I-243750J0D01*
G01*
X110375750Y-58917000D01*
G75*
G02*
X110132000Y-58673250I0J243750D01*
G01*
G37*
G36*
G01*
X106044250Y-81071500D02*
X105131750Y-81071500D01*
G75*
G02*
X104888000Y-80827750I0J243750D01*
G01*
X104888000Y-80340250D01*
G75*
G02*
X105131750Y-80096500I243750J0D01*
G01*
X106044250Y-80096500D01*
G75*
G02*
X106288000Y-80340250I0J-243750D01*
G01*
X106288000Y-80827750D01*
G75*
G02*
X106044250Y-81071500I-243750J0D01*
G01*
G37*
G36*
G01*
X106044250Y-82946500D02*
X105131750Y-82946500D01*
G75*
G02*
X104888000Y-82702750I0J243750D01*
G01*
X104888000Y-82215250D01*
G75*
G02*
X105131750Y-81971500I243750J0D01*
G01*
X106044250Y-81971500D01*
G75*
G02*
X106288000Y-82215250I0J-243750D01*
G01*
X106288000Y-82702750D01*
G75*
G02*
X106044250Y-82946500I-243750J0D01*
G01*
G37*
G36*
G01*
X106292000Y-79120250D02*
X106292000Y-78207750D01*
G75*
G02*
X106535750Y-77964000I243750J0D01*
G01*
X107023250Y-77964000D01*
G75*
G02*
X107267000Y-78207750I0J-243750D01*
G01*
X107267000Y-79120250D01*
G75*
G02*
X107023250Y-79364000I-243750J0D01*
G01*
X106535750Y-79364000D01*
G75*
G02*
X106292000Y-79120250I0J243750D01*
G01*
G37*
G36*
G01*
X104417000Y-79120250D02*
X104417000Y-78207750D01*
G75*
G02*
X104660750Y-77964000I243750J0D01*
G01*
X105148250Y-77964000D01*
G75*
G02*
X105392000Y-78207750I0J-243750D01*
G01*
X105392000Y-79120250D01*
G75*
G02*
X105148250Y-79364000I-243750J0D01*
G01*
X104660750Y-79364000D01*
G75*
G02*
X104417000Y-79120250I0J243750D01*
G01*
G37*
G36*
G01*
X163194250Y-93454000D02*
X162281750Y-93454000D01*
G75*
G02*
X162038000Y-93210250I0J243750D01*
G01*
X162038000Y-92722750D01*
G75*
G02*
X162281750Y-92479000I243750J0D01*
G01*
X163194250Y-92479000D01*
G75*
G02*
X163438000Y-92722750I0J-243750D01*
G01*
X163438000Y-93210250D01*
G75*
G02*
X163194250Y-93454000I-243750J0D01*
G01*
G37*
G36*
G01*
X163194250Y-95329000D02*
X162281750Y-95329000D01*
G75*
G02*
X162038000Y-95085250I0J243750D01*
G01*
X162038000Y-94597750D01*
G75*
G02*
X162281750Y-94354000I243750J0D01*
G01*
X163194250Y-94354000D01*
G75*
G02*
X163438000Y-94597750I0J-243750D01*
G01*
X163438000Y-95085250D01*
G75*
G02*
X163194250Y-95329000I-243750J0D01*
G01*
G37*
G36*
G01*
X145668250Y-93121500D02*
X144755750Y-93121500D01*
G75*
G02*
X144512000Y-92877750I0J243750D01*
G01*
X144512000Y-92390250D01*
G75*
G02*
X144755750Y-92146500I243750J0D01*
G01*
X145668250Y-92146500D01*
G75*
G02*
X145912000Y-92390250I0J-243750D01*
G01*
X145912000Y-92877750D01*
G75*
G02*
X145668250Y-93121500I-243750J0D01*
G01*
G37*
G36*
G01*
X145668250Y-94996500D02*
X144755750Y-94996500D01*
G75*
G02*
X144512000Y-94752750I0J243750D01*
G01*
X144512000Y-94265250D01*
G75*
G02*
X144755750Y-94021500I243750J0D01*
G01*
X145668250Y-94021500D01*
G75*
G02*
X145912000Y-94265250I0J-243750D01*
G01*
X145912000Y-94752750D01*
G75*
G02*
X145668250Y-94996500I-243750J0D01*
G01*
G37*
G36*
G01*
X111234000Y-72365750D02*
X111234000Y-73278250D01*
G75*
G02*
X110990250Y-73522000I-243750J0D01*
G01*
X110502750Y-73522000D01*
G75*
G02*
X110259000Y-73278250I0J243750D01*
G01*
X110259000Y-72365750D01*
G75*
G02*
X110502750Y-72122000I243750J0D01*
G01*
X110990250Y-72122000D01*
G75*
G02*
X111234000Y-72365750I0J-243750D01*
G01*
G37*
G36*
G01*
X113109000Y-72365750D02*
X113109000Y-73278250D01*
G75*
G02*
X112865250Y-73522000I-243750J0D01*
G01*
X112377750Y-73522000D01*
G75*
G02*
X112134000Y-73278250I0J243750D01*
G01*
X112134000Y-72365750D01*
G75*
G02*
X112377750Y-72122000I243750J0D01*
G01*
X112865250Y-72122000D01*
G75*
G02*
X113109000Y-72365750I0J-243750D01*
G01*
G37*
G36*
G01*
X106292000Y-63880250D02*
X106292000Y-62967750D01*
G75*
G02*
X106535750Y-62724000I243750J0D01*
G01*
X107023250Y-62724000D01*
G75*
G02*
X107267000Y-62967750I0J-243750D01*
G01*
X107267000Y-63880250D01*
G75*
G02*
X107023250Y-64124000I-243750J0D01*
G01*
X106535750Y-64124000D01*
G75*
G02*
X106292000Y-63880250I0J243750D01*
G01*
G37*
G36*
G01*
X104417000Y-63880250D02*
X104417000Y-62967750D01*
G75*
G02*
X104660750Y-62724000I243750J0D01*
G01*
X105148250Y-62724000D01*
G75*
G02*
X105392000Y-62967750I0J-243750D01*
G01*
X105392000Y-63880250D01*
G75*
G02*
X105148250Y-64124000I-243750J0D01*
G01*
X104660750Y-64124000D01*
G75*
G02*
X104417000Y-63880250I0J243750D01*
G01*
G37*
G36*
G01*
X106292000Y-66420250D02*
X106292000Y-65507750D01*
G75*
G02*
X106535750Y-65264000I243750J0D01*
G01*
X107023250Y-65264000D01*
G75*
G02*
X107267000Y-65507750I0J-243750D01*
G01*
X107267000Y-66420250D01*
G75*
G02*
X107023250Y-66664000I-243750J0D01*
G01*
X106535750Y-66664000D01*
G75*
G02*
X106292000Y-66420250I0J243750D01*
G01*
G37*
G36*
G01*
X104417000Y-66420250D02*
X104417000Y-65507750D01*
G75*
G02*
X104660750Y-65264000I243750J0D01*
G01*
X105148250Y-65264000D01*
G75*
G02*
X105392000Y-65507750I0J-243750D01*
G01*
X105392000Y-66420250D01*
G75*
G02*
X105148250Y-66664000I-243750J0D01*
G01*
X104660750Y-66664000D01*
G75*
G02*
X104417000Y-66420250I0J243750D01*
G01*
G37*
G36*
G01*
X106292000Y-74040250D02*
X106292000Y-73127750D01*
G75*
G02*
X106535750Y-72884000I243750J0D01*
G01*
X107023250Y-72884000D01*
G75*
G02*
X107267000Y-73127750I0J-243750D01*
G01*
X107267000Y-74040250D01*
G75*
G02*
X107023250Y-74284000I-243750J0D01*
G01*
X106535750Y-74284000D01*
G75*
G02*
X106292000Y-74040250I0J243750D01*
G01*
G37*
G36*
G01*
X104417000Y-74040250D02*
X104417000Y-73127750D01*
G75*
G02*
X104660750Y-72884000I243750J0D01*
G01*
X105148250Y-72884000D01*
G75*
G02*
X105392000Y-73127750I0J-243750D01*
G01*
X105392000Y-74040250D01*
G75*
G02*
X105148250Y-74284000I-243750J0D01*
G01*
X104660750Y-74284000D01*
G75*
G02*
X104417000Y-74040250I0J243750D01*
G01*
G37*
G36*
G01*
X176148250Y-92946000D02*
X175235750Y-92946000D01*
G75*
G02*
X174992000Y-92702250I0J243750D01*
G01*
X174992000Y-92214750D01*
G75*
G02*
X175235750Y-91971000I243750J0D01*
G01*
X176148250Y-91971000D01*
G75*
G02*
X176392000Y-92214750I0J-243750D01*
G01*
X176392000Y-92702250D01*
G75*
G02*
X176148250Y-92946000I-243750J0D01*
G01*
G37*
G36*
G01*
X176148250Y-94821000D02*
X175235750Y-94821000D01*
G75*
G02*
X174992000Y-94577250I0J243750D01*
G01*
X174992000Y-94089750D01*
G75*
G02*
X175235750Y-93846000I243750J0D01*
G01*
X176148250Y-93846000D01*
G75*
G02*
X176392000Y-94089750I0J-243750D01*
G01*
X176392000Y-94577250D01*
G75*
G02*
X176148250Y-94821000I-243750J0D01*
G01*
G37*
G36*
G01*
X166242250Y-92946000D02*
X165329750Y-92946000D01*
G75*
G02*
X165086000Y-92702250I0J243750D01*
G01*
X165086000Y-92214750D01*
G75*
G02*
X165329750Y-91971000I243750J0D01*
G01*
X166242250Y-91971000D01*
G75*
G02*
X166486000Y-92214750I0J-243750D01*
G01*
X166486000Y-92702250D01*
G75*
G02*
X166242250Y-92946000I-243750J0D01*
G01*
G37*
G36*
G01*
X166242250Y-94821000D02*
X165329750Y-94821000D01*
G75*
G02*
X165086000Y-94577250I0J243750D01*
G01*
X165086000Y-94089750D01*
G75*
G02*
X165329750Y-93846000I243750J0D01*
G01*
X166242250Y-93846000D01*
G75*
G02*
X166486000Y-94089750I0J-243750D01*
G01*
X166486000Y-94577250D01*
G75*
G02*
X166242250Y-94821000I-243750J0D01*
G01*
G37*
G36*
G01*
X174116250Y-92946000D02*
X173203750Y-92946000D01*
G75*
G02*
X172960000Y-92702250I0J243750D01*
G01*
X172960000Y-92214750D01*
G75*
G02*
X173203750Y-91971000I243750J0D01*
G01*
X174116250Y-91971000D01*
G75*
G02*
X174360000Y-92214750I0J-243750D01*
G01*
X174360000Y-92702250D01*
G75*
G02*
X174116250Y-92946000I-243750J0D01*
G01*
G37*
G36*
G01*
X174116250Y-94821000D02*
X173203750Y-94821000D01*
G75*
G02*
X172960000Y-94577250I0J243750D01*
G01*
X172960000Y-94089750D01*
G75*
G02*
X173203750Y-93846000I243750J0D01*
G01*
X174116250Y-93846000D01*
G75*
G02*
X174360000Y-94089750I0J-243750D01*
G01*
X174360000Y-94577250D01*
G75*
G02*
X174116250Y-94821000I-243750J0D01*
G01*
G37*
G36*
G01*
X166358750Y-56762000D02*
X167271250Y-56762000D01*
G75*
G02*
X167515000Y-57005750I0J-243750D01*
G01*
X167515000Y-57493250D01*
G75*
G02*
X167271250Y-57737000I-243750J0D01*
G01*
X166358750Y-57737000D01*
G75*
G02*
X166115000Y-57493250I0J243750D01*
G01*
X166115000Y-57005750D01*
G75*
G02*
X166358750Y-56762000I243750J0D01*
G01*
G37*
G36*
G01*
X166358750Y-54887000D02*
X167271250Y-54887000D01*
G75*
G02*
X167515000Y-55130750I0J-243750D01*
G01*
X167515000Y-55618250D01*
G75*
G02*
X167271250Y-55862000I-243750J0D01*
G01*
X166358750Y-55862000D01*
G75*
G02*
X166115000Y-55618250I0J243750D01*
G01*
X166115000Y-55130750D01*
G75*
G02*
X166358750Y-54887000I243750J0D01*
G01*
G37*
G36*
G01*
X170155750Y-56762000D02*
X171068250Y-56762000D01*
G75*
G02*
X171312000Y-57005750I0J-243750D01*
G01*
X171312000Y-57493250D01*
G75*
G02*
X171068250Y-57737000I-243750J0D01*
G01*
X170155750Y-57737000D01*
G75*
G02*
X169912000Y-57493250I0J243750D01*
G01*
X169912000Y-57005750D01*
G75*
G02*
X170155750Y-56762000I243750J0D01*
G01*
G37*
G36*
G01*
X170155750Y-54887000D02*
X171068250Y-54887000D01*
G75*
G02*
X171312000Y-55130750I0J-243750D01*
G01*
X171312000Y-55618250D01*
G75*
G02*
X171068250Y-55862000I-243750J0D01*
G01*
X170155750Y-55862000D01*
G75*
G02*
X169912000Y-55618250I0J243750D01*
G01*
X169912000Y-55130750D01*
G75*
G02*
X170155750Y-54887000I243750J0D01*
G01*
G37*
G36*
G01*
X175883750Y-56762000D02*
X176796250Y-56762000D01*
G75*
G02*
X177040000Y-57005750I0J-243750D01*
G01*
X177040000Y-57493250D01*
G75*
G02*
X176796250Y-57737000I-243750J0D01*
G01*
X175883750Y-57737000D01*
G75*
G02*
X175640000Y-57493250I0J243750D01*
G01*
X175640000Y-57005750D01*
G75*
G02*
X175883750Y-56762000I243750J0D01*
G01*
G37*
G36*
G01*
X175883750Y-54887000D02*
X176796250Y-54887000D01*
G75*
G02*
X177040000Y-55130750I0J-243750D01*
G01*
X177040000Y-55618250D01*
G75*
G02*
X176796250Y-55862000I-243750J0D01*
G01*
X175883750Y-55862000D01*
G75*
G02*
X175640000Y-55618250I0J243750D01*
G01*
X175640000Y-55130750D01*
G75*
G02*
X175883750Y-54887000I243750J0D01*
G01*
G37*
G36*
G01*
X167361750Y-93846000D02*
X168274250Y-93846000D01*
G75*
G02*
X168518000Y-94089750I0J-243750D01*
G01*
X168518000Y-94577250D01*
G75*
G02*
X168274250Y-94821000I-243750J0D01*
G01*
X167361750Y-94821000D01*
G75*
G02*
X167118000Y-94577250I0J243750D01*
G01*
X167118000Y-94089750D01*
G75*
G02*
X167361750Y-93846000I243750J0D01*
G01*
G37*
G36*
G01*
X167361750Y-91971000D02*
X168274250Y-91971000D01*
G75*
G02*
X168518000Y-92214750I0J-243750D01*
G01*
X168518000Y-92702250D01*
G75*
G02*
X168274250Y-92946000I-243750J0D01*
G01*
X167361750Y-92946000D01*
G75*
G02*
X167118000Y-92702250I0J243750D01*
G01*
X167118000Y-92214750D01*
G75*
G02*
X167361750Y-91971000I243750J0D01*
G01*
G37*
G36*
G01*
X169393750Y-93846000D02*
X170306250Y-93846000D01*
G75*
G02*
X170550000Y-94089750I0J-243750D01*
G01*
X170550000Y-94577250D01*
G75*
G02*
X170306250Y-94821000I-243750J0D01*
G01*
X169393750Y-94821000D01*
G75*
G02*
X169150000Y-94577250I0J243750D01*
G01*
X169150000Y-94089750D01*
G75*
G02*
X169393750Y-93846000I243750J0D01*
G01*
G37*
G36*
G01*
X169393750Y-91971000D02*
X170306250Y-91971000D01*
G75*
G02*
X170550000Y-92214750I0J-243750D01*
G01*
X170550000Y-92702250D01*
G75*
G02*
X170306250Y-92946000I-243750J0D01*
G01*
X169393750Y-92946000D01*
G75*
G02*
X169150000Y-92702250I0J243750D01*
G01*
X169150000Y-92214750D01*
G75*
G02*
X169393750Y-91971000I243750J0D01*
G01*
G37*
G36*
G01*
X171171750Y-93846000D02*
X172084250Y-93846000D01*
G75*
G02*
X172328000Y-94089750I0J-243750D01*
G01*
X172328000Y-94577250D01*
G75*
G02*
X172084250Y-94821000I-243750J0D01*
G01*
X171171750Y-94821000D01*
G75*
G02*
X170928000Y-94577250I0J243750D01*
G01*
X170928000Y-94089750D01*
G75*
G02*
X171171750Y-93846000I243750J0D01*
G01*
G37*
G36*
G01*
X171171750Y-91971000D02*
X172084250Y-91971000D01*
G75*
G02*
X172328000Y-92214750I0J-243750D01*
G01*
X172328000Y-92702250D01*
G75*
G02*
X172084250Y-92946000I-243750J0D01*
G01*
X171171750Y-92946000D01*
G75*
G02*
X170928000Y-92702250I0J243750D01*
G01*
X170928000Y-92214750D01*
G75*
G02*
X171171750Y-91971000I243750J0D01*
G01*
G37*
G36*
G01*
X172986250Y-55862000D02*
X172073750Y-55862000D01*
G75*
G02*
X171830000Y-55618250I0J243750D01*
G01*
X171830000Y-55130750D01*
G75*
G02*
X172073750Y-54887000I243750J0D01*
G01*
X172986250Y-54887000D01*
G75*
G02*
X173230000Y-55130750I0J-243750D01*
G01*
X173230000Y-55618250D01*
G75*
G02*
X172986250Y-55862000I-243750J0D01*
G01*
G37*
G36*
G01*
X172986250Y-57737000D02*
X172073750Y-57737000D01*
G75*
G02*
X171830000Y-57493250I0J243750D01*
G01*
X171830000Y-57005750D01*
G75*
G02*
X172073750Y-56762000I243750J0D01*
G01*
X172986250Y-56762000D01*
G75*
G02*
X173230000Y-57005750I0J-243750D01*
G01*
X173230000Y-57493250D01*
G75*
G02*
X172986250Y-57737000I-243750J0D01*
G01*
G37*
G36*
G01*
X169176250Y-55862000D02*
X168263750Y-55862000D01*
G75*
G02*
X168020000Y-55618250I0J243750D01*
G01*
X168020000Y-55130750D01*
G75*
G02*
X168263750Y-54887000I243750J0D01*
G01*
X169176250Y-54887000D01*
G75*
G02*
X169420000Y-55130750I0J-243750D01*
G01*
X169420000Y-55618250D01*
G75*
G02*
X169176250Y-55862000I-243750J0D01*
G01*
G37*
G36*
G01*
X169176250Y-57737000D02*
X168263750Y-57737000D01*
G75*
G02*
X168020000Y-57493250I0J243750D01*
G01*
X168020000Y-57005750D01*
G75*
G02*
X168263750Y-56762000I243750J0D01*
G01*
X169176250Y-56762000D01*
G75*
G02*
X169420000Y-57005750I0J-243750D01*
G01*
X169420000Y-57493250D01*
G75*
G02*
X169176250Y-57737000I-243750J0D01*
G01*
G37*
G36*
G01*
X174891250Y-55862000D02*
X173978750Y-55862000D01*
G75*
G02*
X173735000Y-55618250I0J243750D01*
G01*
X173735000Y-55130750D01*
G75*
G02*
X173978750Y-54887000I243750J0D01*
G01*
X174891250Y-54887000D01*
G75*
G02*
X175135000Y-55130750I0J-243750D01*
G01*
X175135000Y-55618250D01*
G75*
G02*
X174891250Y-55862000I-243750J0D01*
G01*
G37*
G36*
G01*
X174891250Y-57737000D02*
X173978750Y-57737000D01*
G75*
G02*
X173735000Y-57493250I0J243750D01*
G01*
X173735000Y-57005750D01*
G75*
G02*
X173978750Y-56762000I243750J0D01*
G01*
X174891250Y-56762000D01*
G75*
G02*
X175135000Y-57005750I0J-243750D01*
G01*
X175135000Y-57493250D01*
G75*
G02*
X174891250Y-57737000I-243750J0D01*
G01*
G37*
G36*
G01*
X174256250Y-78360000D02*
X173343750Y-78360000D01*
G75*
G02*
X173100000Y-78116250I0J243750D01*
G01*
X173100000Y-77628750D01*
G75*
G02*
X173343750Y-77385000I243750J0D01*
G01*
X174256250Y-77385000D01*
G75*
G02*
X174500000Y-77628750I0J-243750D01*
G01*
X174500000Y-78116250D01*
G75*
G02*
X174256250Y-78360000I-243750J0D01*
G01*
G37*
G36*
G01*
X174256250Y-80235000D02*
X173343750Y-80235000D01*
G75*
G02*
X173100000Y-79991250I0J243750D01*
G01*
X173100000Y-79503750D01*
G75*
G02*
X173343750Y-79260000I243750J0D01*
G01*
X174256250Y-79260000D01*
G75*
G02*
X174500000Y-79503750I0J-243750D01*
G01*
X174500000Y-79991250D01*
G75*
G02*
X174256250Y-80235000I-243750J0D01*
G01*
G37*
G36*
G01*
X169176250Y-78360000D02*
X168263750Y-78360000D01*
G75*
G02*
X168020000Y-78116250I0J243750D01*
G01*
X168020000Y-77628750D01*
G75*
G02*
X168263750Y-77385000I243750J0D01*
G01*
X169176250Y-77385000D01*
G75*
G02*
X169420000Y-77628750I0J-243750D01*
G01*
X169420000Y-78116250D01*
G75*
G02*
X169176250Y-78360000I-243750J0D01*
G01*
G37*
G36*
G01*
X169176250Y-80235000D02*
X168263750Y-80235000D01*
G75*
G02*
X168020000Y-79991250I0J243750D01*
G01*
X168020000Y-79503750D01*
G75*
G02*
X168263750Y-79260000I243750J0D01*
G01*
X169176250Y-79260000D01*
G75*
G02*
X169420000Y-79503750I0J-243750D01*
G01*
X169420000Y-79991250D01*
G75*
G02*
X169176250Y-80235000I-243750J0D01*
G01*
G37*
G36*
G01*
X174256250Y-88520000D02*
X173343750Y-88520000D01*
G75*
G02*
X173100000Y-88276250I0J243750D01*
G01*
X173100000Y-87788750D01*
G75*
G02*
X173343750Y-87545000I243750J0D01*
G01*
X174256250Y-87545000D01*
G75*
G02*
X174500000Y-87788750I0J-243750D01*
G01*
X174500000Y-88276250D01*
G75*
G02*
X174256250Y-88520000I-243750J0D01*
G01*
G37*
G36*
G01*
X174256250Y-90395000D02*
X173343750Y-90395000D01*
G75*
G02*
X173100000Y-90151250I0J243750D01*
G01*
X173100000Y-89663750D01*
G75*
G02*
X173343750Y-89420000I243750J0D01*
G01*
X174256250Y-89420000D01*
G75*
G02*
X174500000Y-89663750I0J-243750D01*
G01*
X174500000Y-90151250D01*
G75*
G02*
X174256250Y-90395000I-243750J0D01*
G01*
G37*
G36*
G01*
X169176250Y-70740000D02*
X168263750Y-70740000D01*
G75*
G02*
X168020000Y-70496250I0J243750D01*
G01*
X168020000Y-70008750D01*
G75*
G02*
X168263750Y-69765000I243750J0D01*
G01*
X169176250Y-69765000D01*
G75*
G02*
X169420000Y-70008750I0J-243750D01*
G01*
X169420000Y-70496250D01*
G75*
G02*
X169176250Y-70740000I-243750J0D01*
G01*
G37*
G36*
G01*
X169176250Y-72615000D02*
X168263750Y-72615000D01*
G75*
G02*
X168020000Y-72371250I0J243750D01*
G01*
X168020000Y-71883750D01*
G75*
G02*
X168263750Y-71640000I243750J0D01*
G01*
X169176250Y-71640000D01*
G75*
G02*
X169420000Y-71883750I0J-243750D01*
G01*
X169420000Y-72371250D01*
G75*
G02*
X169176250Y-72615000I-243750J0D01*
G01*
G37*
G36*
G01*
X169176250Y-65660000D02*
X168263750Y-65660000D01*
G75*
G02*
X168020000Y-65416250I0J243750D01*
G01*
X168020000Y-64928750D01*
G75*
G02*
X168263750Y-64685000I243750J0D01*
G01*
X169176250Y-64685000D01*
G75*
G02*
X169420000Y-64928750I0J-243750D01*
G01*
X169420000Y-65416250D01*
G75*
G02*
X169176250Y-65660000I-243750J0D01*
G01*
G37*
G36*
G01*
X169176250Y-67535000D02*
X168263750Y-67535000D01*
G75*
G02*
X168020000Y-67291250I0J243750D01*
G01*
X168020000Y-66803750D01*
G75*
G02*
X168263750Y-66560000I243750J0D01*
G01*
X169176250Y-66560000D01*
G75*
G02*
X169420000Y-66803750I0J-243750D01*
G01*
X169420000Y-67291250D01*
G75*
G02*
X169176250Y-67535000I-243750J0D01*
G01*
G37*
G36*
G01*
X174256250Y-70740000D02*
X173343750Y-70740000D01*
G75*
G02*
X173100000Y-70496250I0J243750D01*
G01*
X173100000Y-70008750D01*
G75*
G02*
X173343750Y-69765000I243750J0D01*
G01*
X174256250Y-69765000D01*
G75*
G02*
X174500000Y-70008750I0J-243750D01*
G01*
X174500000Y-70496250D01*
G75*
G02*
X174256250Y-70740000I-243750J0D01*
G01*
G37*
G36*
G01*
X174256250Y-72615000D02*
X173343750Y-72615000D01*
G75*
G02*
X173100000Y-72371250I0J243750D01*
G01*
X173100000Y-71883750D01*
G75*
G02*
X173343750Y-71640000I243750J0D01*
G01*
X174256250Y-71640000D01*
G75*
G02*
X174500000Y-71883750I0J-243750D01*
G01*
X174500000Y-72371250D01*
G75*
G02*
X174256250Y-72615000I-243750J0D01*
G01*
G37*
G36*
G01*
X169176250Y-83440000D02*
X168263750Y-83440000D01*
G75*
G02*
X168020000Y-83196250I0J243750D01*
G01*
X168020000Y-82708750D01*
G75*
G02*
X168263750Y-82465000I243750J0D01*
G01*
X169176250Y-82465000D01*
G75*
G02*
X169420000Y-82708750I0J-243750D01*
G01*
X169420000Y-83196250D01*
G75*
G02*
X169176250Y-83440000I-243750J0D01*
G01*
G37*
G36*
G01*
X169176250Y-85315000D02*
X168263750Y-85315000D01*
G75*
G02*
X168020000Y-85071250I0J243750D01*
G01*
X168020000Y-84583750D01*
G75*
G02*
X168263750Y-84340000I243750J0D01*
G01*
X169176250Y-84340000D01*
G75*
G02*
X169420000Y-84583750I0J-243750D01*
G01*
X169420000Y-85071250D01*
G75*
G02*
X169176250Y-85315000I-243750J0D01*
G01*
G37*
G36*
G01*
X169176250Y-88520000D02*
X168263750Y-88520000D01*
G75*
G02*
X168020000Y-88276250I0J243750D01*
G01*
X168020000Y-87788750D01*
G75*
G02*
X168263750Y-87545000I243750J0D01*
G01*
X169176250Y-87545000D01*
G75*
G02*
X169420000Y-87788750I0J-243750D01*
G01*
X169420000Y-88276250D01*
G75*
G02*
X169176250Y-88520000I-243750J0D01*
G01*
G37*
G36*
G01*
X169176250Y-90395000D02*
X168263750Y-90395000D01*
G75*
G02*
X168020000Y-90151250I0J243750D01*
G01*
X168020000Y-89663750D01*
G75*
G02*
X168263750Y-89420000I243750J0D01*
G01*
X169176250Y-89420000D01*
G75*
G02*
X169420000Y-89663750I0J-243750D01*
G01*
X169420000Y-90151250D01*
G75*
G02*
X169176250Y-90395000I-243750J0D01*
G01*
G37*
G36*
G01*
X174256250Y-83440000D02*
X173343750Y-83440000D01*
G75*
G02*
X173100000Y-83196250I0J243750D01*
G01*
X173100000Y-82708750D01*
G75*
G02*
X173343750Y-82465000I243750J0D01*
G01*
X174256250Y-82465000D01*
G75*
G02*
X174500000Y-82708750I0J-243750D01*
G01*
X174500000Y-83196250D01*
G75*
G02*
X174256250Y-83440000I-243750J0D01*
G01*
G37*
G36*
G01*
X174256250Y-85315000D02*
X173343750Y-85315000D01*
G75*
G02*
X173100000Y-85071250I0J243750D01*
G01*
X173100000Y-84583750D01*
G75*
G02*
X173343750Y-84340000I243750J0D01*
G01*
X174256250Y-84340000D01*
G75*
G02*
X174500000Y-84583750I0J-243750D01*
G01*
X174500000Y-85071250D01*
G75*
G02*
X174256250Y-85315000I-243750J0D01*
G01*
G37*
G36*
G01*
X174256250Y-60580000D02*
X173343750Y-60580000D01*
G75*
G02*
X173100000Y-60336250I0J243750D01*
G01*
X173100000Y-59848750D01*
G75*
G02*
X173343750Y-59605000I243750J0D01*
G01*
X174256250Y-59605000D01*
G75*
G02*
X174500000Y-59848750I0J-243750D01*
G01*
X174500000Y-60336250D01*
G75*
G02*
X174256250Y-60580000I-243750J0D01*
G01*
G37*
G36*
G01*
X174256250Y-62455000D02*
X173343750Y-62455000D01*
G75*
G02*
X173100000Y-62211250I0J243750D01*
G01*
X173100000Y-61723750D01*
G75*
G02*
X173343750Y-61480000I243750J0D01*
G01*
X174256250Y-61480000D01*
G75*
G02*
X174500000Y-61723750I0J-243750D01*
G01*
X174500000Y-62211250D01*
G75*
G02*
X174256250Y-62455000I-243750J0D01*
G01*
G37*
G36*
G01*
X169176250Y-60580000D02*
X168263750Y-60580000D01*
G75*
G02*
X168020000Y-60336250I0J243750D01*
G01*
X168020000Y-59848750D01*
G75*
G02*
X168263750Y-59605000I243750J0D01*
G01*
X169176250Y-59605000D01*
G75*
G02*
X169420000Y-59848750I0J-243750D01*
G01*
X169420000Y-60336250D01*
G75*
G02*
X169176250Y-60580000I-243750J0D01*
G01*
G37*
G36*
G01*
X169176250Y-62455000D02*
X168263750Y-62455000D01*
G75*
G02*
X168020000Y-62211250I0J243750D01*
G01*
X168020000Y-61723750D01*
G75*
G02*
X168263750Y-61480000I243750J0D01*
G01*
X169176250Y-61480000D01*
G75*
G02*
X169420000Y-61723750I0J-243750D01*
G01*
X169420000Y-62211250D01*
G75*
G02*
X169176250Y-62455000I-243750J0D01*
G01*
G37*
G36*
G01*
X174256250Y-65660000D02*
X173343750Y-65660000D01*
G75*
G02*
X173100000Y-65416250I0J243750D01*
G01*
X173100000Y-64928750D01*
G75*
G02*
X173343750Y-64685000I243750J0D01*
G01*
X174256250Y-64685000D01*
G75*
G02*
X174500000Y-64928750I0J-243750D01*
G01*
X174500000Y-65416250D01*
G75*
G02*
X174256250Y-65660000I-243750J0D01*
G01*
G37*
G36*
G01*
X174256250Y-67535000D02*
X173343750Y-67535000D01*
G75*
G02*
X173100000Y-67291250I0J243750D01*
G01*
X173100000Y-66803750D01*
G75*
G02*
X173343750Y-66560000I243750J0D01*
G01*
X174256250Y-66560000D01*
G75*
G02*
X174500000Y-66803750I0J-243750D01*
G01*
X174500000Y-67291250D01*
G75*
G02*
X174256250Y-67535000I-243750J0D01*
G01*
G37*
G36*
G01*
X122543750Y-93230000D02*
X123456250Y-93230000D01*
G75*
G02*
X123700000Y-93473750I0J-243750D01*
G01*
X123700000Y-93961250D01*
G75*
G02*
X123456250Y-94205000I-243750J0D01*
G01*
X122543750Y-94205000D01*
G75*
G02*
X122300000Y-93961250I0J243750D01*
G01*
X122300000Y-93473750D01*
G75*
G02*
X122543750Y-93230000I243750J0D01*
G01*
G37*
G36*
G01*
X122543750Y-91355000D02*
X123456250Y-91355000D01*
G75*
G02*
X123700000Y-91598750I0J-243750D01*
G01*
X123700000Y-92086250D01*
G75*
G02*
X123456250Y-92330000I-243750J0D01*
G01*
X122543750Y-92330000D01*
G75*
G02*
X122300000Y-92086250I0J243750D01*
G01*
X122300000Y-91598750D01*
G75*
G02*
X122543750Y-91355000I243750J0D01*
G01*
G37*
G36*
G01*
X125083750Y-93230000D02*
X125996250Y-93230000D01*
G75*
G02*
X126240000Y-93473750I0J-243750D01*
G01*
X126240000Y-93961250D01*
G75*
G02*
X125996250Y-94205000I-243750J0D01*
G01*
X125083750Y-94205000D01*
G75*
G02*
X124840000Y-93961250I0J243750D01*
G01*
X124840000Y-93473750D01*
G75*
G02*
X125083750Y-93230000I243750J0D01*
G01*
G37*
G36*
G01*
X125083750Y-91355000D02*
X125996250Y-91355000D01*
G75*
G02*
X126240000Y-91598750I0J-243750D01*
G01*
X126240000Y-92086250D01*
G75*
G02*
X125996250Y-92330000I-243750J0D01*
G01*
X125083750Y-92330000D01*
G75*
G02*
X124840000Y-92086250I0J243750D01*
G01*
X124840000Y-91598750D01*
G75*
G02*
X125083750Y-91355000I243750J0D01*
G01*
G37*
G36*
G01*
X127623750Y-93230000D02*
X128536250Y-93230000D01*
G75*
G02*
X128780000Y-93473750I0J-243750D01*
G01*
X128780000Y-93961250D01*
G75*
G02*
X128536250Y-94205000I-243750J0D01*
G01*
X127623750Y-94205000D01*
G75*
G02*
X127380000Y-93961250I0J243750D01*
G01*
X127380000Y-93473750D01*
G75*
G02*
X127623750Y-93230000I243750J0D01*
G01*
G37*
G36*
G01*
X127623750Y-91355000D02*
X128536250Y-91355000D01*
G75*
G02*
X128780000Y-91598750I0J-243750D01*
G01*
X128780000Y-92086250D01*
G75*
G02*
X128536250Y-92330000I-243750J0D01*
G01*
X127623750Y-92330000D01*
G75*
G02*
X127380000Y-92086250I0J243750D01*
G01*
X127380000Y-91598750D01*
G75*
G02*
X127623750Y-91355000I243750J0D01*
G01*
G37*
G36*
G01*
X125996250Y-56770000D02*
X125083750Y-56770000D01*
G75*
G02*
X124840000Y-56526250I0J243750D01*
G01*
X124840000Y-56038750D01*
G75*
G02*
X125083750Y-55795000I243750J0D01*
G01*
X125996250Y-55795000D01*
G75*
G02*
X126240000Y-56038750I0J-243750D01*
G01*
X126240000Y-56526250D01*
G75*
G02*
X125996250Y-56770000I-243750J0D01*
G01*
G37*
G36*
G01*
X125996250Y-58645000D02*
X125083750Y-58645000D01*
G75*
G02*
X124840000Y-58401250I0J243750D01*
G01*
X124840000Y-57913750D01*
G75*
G02*
X125083750Y-57670000I243750J0D01*
G01*
X125996250Y-57670000D01*
G75*
G02*
X126240000Y-57913750I0J-243750D01*
G01*
X126240000Y-58401250D01*
G75*
G02*
X125996250Y-58645000I-243750J0D01*
G01*
G37*
G36*
G01*
X123456250Y-56770000D02*
X122543750Y-56770000D01*
G75*
G02*
X122300000Y-56526250I0J243750D01*
G01*
X122300000Y-56038750D01*
G75*
G02*
X122543750Y-55795000I243750J0D01*
G01*
X123456250Y-55795000D01*
G75*
G02*
X123700000Y-56038750I0J-243750D01*
G01*
X123700000Y-56526250D01*
G75*
G02*
X123456250Y-56770000I-243750J0D01*
G01*
G37*
G36*
G01*
X123456250Y-58645000D02*
X122543750Y-58645000D01*
G75*
G02*
X122300000Y-58401250I0J243750D01*
G01*
X122300000Y-57913750D01*
G75*
G02*
X122543750Y-57670000I243750J0D01*
G01*
X123456250Y-57670000D01*
G75*
G02*
X123700000Y-57913750I0J-243750D01*
G01*
X123700000Y-58401250D01*
G75*
G02*
X123456250Y-58645000I-243750J0D01*
G01*
G37*
G36*
G01*
X128536250Y-56770000D02*
X127623750Y-56770000D01*
G75*
G02*
X127380000Y-56526250I0J243750D01*
G01*
X127380000Y-56038750D01*
G75*
G02*
X127623750Y-55795000I243750J0D01*
G01*
X128536250Y-55795000D01*
G75*
G02*
X128780000Y-56038750I0J-243750D01*
G01*
X128780000Y-56526250D01*
G75*
G02*
X128536250Y-56770000I-243750J0D01*
G01*
G37*
G36*
G01*
X128536250Y-58645000D02*
X127623750Y-58645000D01*
G75*
G02*
X127380000Y-58401250I0J243750D01*
G01*
X127380000Y-57913750D01*
G75*
G02*
X127623750Y-57670000I243750J0D01*
G01*
X128536250Y-57670000D01*
G75*
G02*
X128780000Y-57913750I0J-243750D01*
G01*
X128780000Y-58401250D01*
G75*
G02*
X128536250Y-58645000I-243750J0D01*
G01*
G37*
G36*
G01*
X123456250Y-83440000D02*
X122543750Y-83440000D01*
G75*
G02*
X122300000Y-83196250I0J243750D01*
G01*
X122300000Y-82708750D01*
G75*
G02*
X122543750Y-82465000I243750J0D01*
G01*
X123456250Y-82465000D01*
G75*
G02*
X123700000Y-82708750I0J-243750D01*
G01*
X123700000Y-83196250D01*
G75*
G02*
X123456250Y-83440000I-243750J0D01*
G01*
G37*
G36*
G01*
X123456250Y-85315000D02*
X122543750Y-85315000D01*
G75*
G02*
X122300000Y-85071250I0J243750D01*
G01*
X122300000Y-84583750D01*
G75*
G02*
X122543750Y-84340000I243750J0D01*
G01*
X123456250Y-84340000D01*
G75*
G02*
X123700000Y-84583750I0J-243750D01*
G01*
X123700000Y-85071250D01*
G75*
G02*
X123456250Y-85315000I-243750J0D01*
G01*
G37*
G36*
G01*
X128536250Y-78360000D02*
X127623750Y-78360000D01*
G75*
G02*
X127380000Y-78116250I0J243750D01*
G01*
X127380000Y-77628750D01*
G75*
G02*
X127623750Y-77385000I243750J0D01*
G01*
X128536250Y-77385000D01*
G75*
G02*
X128780000Y-77628750I0J-243750D01*
G01*
X128780000Y-78116250D01*
G75*
G02*
X128536250Y-78360000I-243750J0D01*
G01*
G37*
G36*
G01*
X128536250Y-80235000D02*
X127623750Y-80235000D01*
G75*
G02*
X127380000Y-79991250I0J243750D01*
G01*
X127380000Y-79503750D01*
G75*
G02*
X127623750Y-79260000I243750J0D01*
G01*
X128536250Y-79260000D01*
G75*
G02*
X128780000Y-79503750I0J-243750D01*
G01*
X128780000Y-79991250D01*
G75*
G02*
X128536250Y-80235000I-243750J0D01*
G01*
G37*
G36*
G01*
X128536250Y-83440000D02*
X127623750Y-83440000D01*
G75*
G02*
X127380000Y-83196250I0J243750D01*
G01*
X127380000Y-82708750D01*
G75*
G02*
X127623750Y-82465000I243750J0D01*
G01*
X128536250Y-82465000D01*
G75*
G02*
X128780000Y-82708750I0J-243750D01*
G01*
X128780000Y-83196250D01*
G75*
G02*
X128536250Y-83440000I-243750J0D01*
G01*
G37*
G36*
G01*
X128536250Y-85315000D02*
X127623750Y-85315000D01*
G75*
G02*
X127380000Y-85071250I0J243750D01*
G01*
X127380000Y-84583750D01*
G75*
G02*
X127623750Y-84340000I243750J0D01*
G01*
X128536250Y-84340000D01*
G75*
G02*
X128780000Y-84583750I0J-243750D01*
G01*
X128780000Y-85071250D01*
G75*
G02*
X128536250Y-85315000I-243750J0D01*
G01*
G37*
G36*
G01*
X128536250Y-70740000D02*
X127623750Y-70740000D01*
G75*
G02*
X127380000Y-70496250I0J243750D01*
G01*
X127380000Y-70008750D01*
G75*
G02*
X127623750Y-69765000I243750J0D01*
G01*
X128536250Y-69765000D01*
G75*
G02*
X128780000Y-70008750I0J-243750D01*
G01*
X128780000Y-70496250D01*
G75*
G02*
X128536250Y-70740000I-243750J0D01*
G01*
G37*
G36*
G01*
X128536250Y-72615000D02*
X127623750Y-72615000D01*
G75*
G02*
X127380000Y-72371250I0J243750D01*
G01*
X127380000Y-71883750D01*
G75*
G02*
X127623750Y-71640000I243750J0D01*
G01*
X128536250Y-71640000D01*
G75*
G02*
X128780000Y-71883750I0J-243750D01*
G01*
X128780000Y-72371250D01*
G75*
G02*
X128536250Y-72615000I-243750J0D01*
G01*
G37*
G36*
G01*
X123456250Y-65660000D02*
X122543750Y-65660000D01*
G75*
G02*
X122300000Y-65416250I0J243750D01*
G01*
X122300000Y-64928750D01*
G75*
G02*
X122543750Y-64685000I243750J0D01*
G01*
X123456250Y-64685000D01*
G75*
G02*
X123700000Y-64928750I0J-243750D01*
G01*
X123700000Y-65416250D01*
G75*
G02*
X123456250Y-65660000I-243750J0D01*
G01*
G37*
G36*
G01*
X123456250Y-67535000D02*
X122543750Y-67535000D01*
G75*
G02*
X122300000Y-67291250I0J243750D01*
G01*
X122300000Y-66803750D01*
G75*
G02*
X122543750Y-66560000I243750J0D01*
G01*
X123456250Y-66560000D01*
G75*
G02*
X123700000Y-66803750I0J-243750D01*
G01*
X123700000Y-67291250D01*
G75*
G02*
X123456250Y-67535000I-243750J0D01*
G01*
G37*
G36*
G01*
X128536250Y-65660000D02*
X127623750Y-65660000D01*
G75*
G02*
X127380000Y-65416250I0J243750D01*
G01*
X127380000Y-64928750D01*
G75*
G02*
X127623750Y-64685000I243750J0D01*
G01*
X128536250Y-64685000D01*
G75*
G02*
X128780000Y-64928750I0J-243750D01*
G01*
X128780000Y-65416250D01*
G75*
G02*
X128536250Y-65660000I-243750J0D01*
G01*
G37*
G36*
G01*
X128536250Y-67535000D02*
X127623750Y-67535000D01*
G75*
G02*
X127380000Y-67291250I0J243750D01*
G01*
X127380000Y-66803750D01*
G75*
G02*
X127623750Y-66560000I243750J0D01*
G01*
X128536250Y-66560000D01*
G75*
G02*
X128780000Y-66803750I0J-243750D01*
G01*
X128780000Y-67291250D01*
G75*
G02*
X128536250Y-67535000I-243750J0D01*
G01*
G37*
G36*
G01*
X123456250Y-88520000D02*
X122543750Y-88520000D01*
G75*
G02*
X122300000Y-88276250I0J243750D01*
G01*
X122300000Y-87788750D01*
G75*
G02*
X122543750Y-87545000I243750J0D01*
G01*
X123456250Y-87545000D01*
G75*
G02*
X123700000Y-87788750I0J-243750D01*
G01*
X123700000Y-88276250D01*
G75*
G02*
X123456250Y-88520000I-243750J0D01*
G01*
G37*
G36*
G01*
X123456250Y-90395000D02*
X122543750Y-90395000D01*
G75*
G02*
X122300000Y-90151250I0J243750D01*
G01*
X122300000Y-89663750D01*
G75*
G02*
X122543750Y-89420000I243750J0D01*
G01*
X123456250Y-89420000D01*
G75*
G02*
X123700000Y-89663750I0J-243750D01*
G01*
X123700000Y-90151250D01*
G75*
G02*
X123456250Y-90395000I-243750J0D01*
G01*
G37*
G36*
G01*
X123456250Y-78360000D02*
X122543750Y-78360000D01*
G75*
G02*
X122300000Y-78116250I0J243750D01*
G01*
X122300000Y-77628750D01*
G75*
G02*
X122543750Y-77385000I243750J0D01*
G01*
X123456250Y-77385000D01*
G75*
G02*
X123700000Y-77628750I0J-243750D01*
G01*
X123700000Y-78116250D01*
G75*
G02*
X123456250Y-78360000I-243750J0D01*
G01*
G37*
G36*
G01*
X123456250Y-80235000D02*
X122543750Y-80235000D01*
G75*
G02*
X122300000Y-79991250I0J243750D01*
G01*
X122300000Y-79503750D01*
G75*
G02*
X122543750Y-79260000I243750J0D01*
G01*
X123456250Y-79260000D01*
G75*
G02*
X123700000Y-79503750I0J-243750D01*
G01*
X123700000Y-79991250D01*
G75*
G02*
X123456250Y-80235000I-243750J0D01*
G01*
G37*
G36*
G01*
X128536250Y-88520000D02*
X127623750Y-88520000D01*
G75*
G02*
X127380000Y-88276250I0J243750D01*
G01*
X127380000Y-87788750D01*
G75*
G02*
X127623750Y-87545000I243750J0D01*
G01*
X128536250Y-87545000D01*
G75*
G02*
X128780000Y-87788750I0J-243750D01*
G01*
X128780000Y-88276250D01*
G75*
G02*
X128536250Y-88520000I-243750J0D01*
G01*
G37*
G36*
G01*
X128536250Y-90395000D02*
X127623750Y-90395000D01*
G75*
G02*
X127380000Y-90151250I0J243750D01*
G01*
X127380000Y-89663750D01*
G75*
G02*
X127623750Y-89420000I243750J0D01*
G01*
X128536250Y-89420000D01*
G75*
G02*
X128780000Y-89663750I0J-243750D01*
G01*
X128780000Y-90151250D01*
G75*
G02*
X128536250Y-90395000I-243750J0D01*
G01*
G37*
G36*
G01*
X123456250Y-70740000D02*
X122543750Y-70740000D01*
G75*
G02*
X122300000Y-70496250I0J243750D01*
G01*
X122300000Y-70008750D01*
G75*
G02*
X122543750Y-69765000I243750J0D01*
G01*
X123456250Y-69765000D01*
G75*
G02*
X123700000Y-70008750I0J-243750D01*
G01*
X123700000Y-70496250D01*
G75*
G02*
X123456250Y-70740000I-243750J0D01*
G01*
G37*
G36*
G01*
X123456250Y-72615000D02*
X122543750Y-72615000D01*
G75*
G02*
X122300000Y-72371250I0J243750D01*
G01*
X122300000Y-71883750D01*
G75*
G02*
X122543750Y-71640000I243750J0D01*
G01*
X123456250Y-71640000D01*
G75*
G02*
X123700000Y-71883750I0J-243750D01*
G01*
X123700000Y-72371250D01*
G75*
G02*
X123456250Y-72615000I-243750J0D01*
G01*
G37*
G36*
G01*
X123456250Y-60580000D02*
X122543750Y-60580000D01*
G75*
G02*
X122300000Y-60336250I0J243750D01*
G01*
X122300000Y-59848750D01*
G75*
G02*
X122543750Y-59605000I243750J0D01*
G01*
X123456250Y-59605000D01*
G75*
G02*
X123700000Y-59848750I0J-243750D01*
G01*
X123700000Y-60336250D01*
G75*
G02*
X123456250Y-60580000I-243750J0D01*
G01*
G37*
G36*
G01*
X123456250Y-62455000D02*
X122543750Y-62455000D01*
G75*
G02*
X122300000Y-62211250I0J243750D01*
G01*
X122300000Y-61723750D01*
G75*
G02*
X122543750Y-61480000I243750J0D01*
G01*
X123456250Y-61480000D01*
G75*
G02*
X123700000Y-61723750I0J-243750D01*
G01*
X123700000Y-62211250D01*
G75*
G02*
X123456250Y-62455000I-243750J0D01*
G01*
G37*
G36*
G01*
X128536250Y-60580000D02*
X127623750Y-60580000D01*
G75*
G02*
X127380000Y-60336250I0J243750D01*
G01*
X127380000Y-59848750D01*
G75*
G02*
X127623750Y-59605000I243750J0D01*
G01*
X128536250Y-59605000D01*
G75*
G02*
X128780000Y-59848750I0J-243750D01*
G01*
X128780000Y-60336250D01*
G75*
G02*
X128536250Y-60580000I-243750J0D01*
G01*
G37*
G36*
G01*
X128536250Y-62455000D02*
X127623750Y-62455000D01*
G75*
G02*
X127380000Y-62211250I0J243750D01*
G01*
X127380000Y-61723750D01*
G75*
G02*
X127623750Y-61480000I243750J0D01*
G01*
X128536250Y-61480000D01*
G75*
G02*
X128780000Y-61723750I0J-243750D01*
G01*
X128780000Y-62211250D01*
G75*
G02*
X128536250Y-62455000I-243750J0D01*
G01*
G37*
G36*
G01*
X154661750Y-83843000D02*
X155574250Y-83843000D01*
G75*
G02*
X155818000Y-84086750I0J-243750D01*
G01*
X155818000Y-84574250D01*
G75*
G02*
X155574250Y-84818000I-243750J0D01*
G01*
X154661750Y-84818000D01*
G75*
G02*
X154418000Y-84574250I0J243750D01*
G01*
X154418000Y-84086750D01*
G75*
G02*
X154661750Y-83843000I243750J0D01*
G01*
G37*
G36*
G01*
X154661750Y-85718000D02*
X155574250Y-85718000D01*
G75*
G02*
X155818000Y-85961750I0J-243750D01*
G01*
X155818000Y-86449250D01*
G75*
G02*
X155574250Y-86693000I-243750J0D01*
G01*
X154661750Y-86693000D01*
G75*
G02*
X154418000Y-86449250I0J243750D01*
G01*
X154418000Y-85961750D01*
G75*
G02*
X154661750Y-85718000I243750J0D01*
G01*
G37*
G36*
G01*
X152629750Y-83843000D02*
X153542250Y-83843000D01*
G75*
G02*
X153786000Y-84086750I0J-243750D01*
G01*
X153786000Y-84574250D01*
G75*
G02*
X153542250Y-84818000I-243750J0D01*
G01*
X152629750Y-84818000D01*
G75*
G02*
X152386000Y-84574250I0J243750D01*
G01*
X152386000Y-84086750D01*
G75*
G02*
X152629750Y-83843000I243750J0D01*
G01*
G37*
G36*
G01*
X152629750Y-85718000D02*
X153542250Y-85718000D01*
G75*
G02*
X153786000Y-85961750I0J-243750D01*
G01*
X153786000Y-86449250D01*
G75*
G02*
X153542250Y-86693000I-243750J0D01*
G01*
X152629750Y-86693000D01*
G75*
G02*
X152386000Y-86449250I0J243750D01*
G01*
X152386000Y-85961750D01*
G75*
G02*
X152629750Y-85718000I243750J0D01*
G01*
G37*
G36*
G01*
X150597750Y-83843000D02*
X151510250Y-83843000D01*
G75*
G02*
X151754000Y-84086750I0J-243750D01*
G01*
X151754000Y-84574250D01*
G75*
G02*
X151510250Y-84818000I-243750J0D01*
G01*
X150597750Y-84818000D01*
G75*
G02*
X150354000Y-84574250I0J243750D01*
G01*
X150354000Y-84086750D01*
G75*
G02*
X150597750Y-83843000I243750J0D01*
G01*
G37*
G36*
G01*
X150597750Y-85718000D02*
X151510250Y-85718000D01*
G75*
G02*
X151754000Y-85961750I0J-243750D01*
G01*
X151754000Y-86449250D01*
G75*
G02*
X151510250Y-86693000I-243750J0D01*
G01*
X150597750Y-86693000D01*
G75*
G02*
X150354000Y-86449250I0J243750D01*
G01*
X150354000Y-85961750D01*
G75*
G02*
X150597750Y-85718000I243750J0D01*
G01*
G37*
G36*
G01*
X156693750Y-83843000D02*
X157606250Y-83843000D01*
G75*
G02*
X157850000Y-84086750I0J-243750D01*
G01*
X157850000Y-84574250D01*
G75*
G02*
X157606250Y-84818000I-243750J0D01*
G01*
X156693750Y-84818000D01*
G75*
G02*
X156450000Y-84574250I0J243750D01*
G01*
X156450000Y-84086750D01*
G75*
G02*
X156693750Y-83843000I243750J0D01*
G01*
G37*
G36*
G01*
X156693750Y-85718000D02*
X157606250Y-85718000D01*
G75*
G02*
X157850000Y-85961750I0J-243750D01*
G01*
X157850000Y-86449250D01*
G75*
G02*
X157606250Y-86693000I-243750J0D01*
G01*
X156693750Y-86693000D01*
G75*
G02*
X156450000Y-86449250I0J243750D01*
G01*
X156450000Y-85961750D01*
G75*
G02*
X156693750Y-85718000I243750J0D01*
G01*
G37*
G36*
G01*
X158725750Y-83843000D02*
X159638250Y-83843000D01*
G75*
G02*
X159882000Y-84086750I0J-243750D01*
G01*
X159882000Y-84574250D01*
G75*
G02*
X159638250Y-84818000I-243750J0D01*
G01*
X158725750Y-84818000D01*
G75*
G02*
X158482000Y-84574250I0J243750D01*
G01*
X158482000Y-84086750D01*
G75*
G02*
X158725750Y-83843000I243750J0D01*
G01*
G37*
G36*
G01*
X158725750Y-85718000D02*
X159638250Y-85718000D01*
G75*
G02*
X159882000Y-85961750I0J-243750D01*
G01*
X159882000Y-86449250D01*
G75*
G02*
X159638250Y-86693000I-243750J0D01*
G01*
X158725750Y-86693000D01*
G75*
G02*
X158482000Y-86449250I0J243750D01*
G01*
X158482000Y-85961750D01*
G75*
G02*
X158725750Y-85718000I243750J0D01*
G01*
G37*
G36*
G01*
X160757750Y-83843000D02*
X161670250Y-83843000D01*
G75*
G02*
X161914000Y-84086750I0J-243750D01*
G01*
X161914000Y-84574250D01*
G75*
G02*
X161670250Y-84818000I-243750J0D01*
G01*
X160757750Y-84818000D01*
G75*
G02*
X160514000Y-84574250I0J243750D01*
G01*
X160514000Y-84086750D01*
G75*
G02*
X160757750Y-83843000I243750J0D01*
G01*
G37*
G36*
G01*
X160757750Y-85718000D02*
X161670250Y-85718000D01*
G75*
G02*
X161914000Y-85961750I0J-243750D01*
G01*
X161914000Y-86449250D01*
G75*
G02*
X161670250Y-86693000I-243750J0D01*
G01*
X160757750Y-86693000D01*
G75*
G02*
X160514000Y-86449250I0J243750D01*
G01*
X160514000Y-85961750D01*
G75*
G02*
X160757750Y-85718000I243750J0D01*
G01*
G37*
G36*
G01*
X162789750Y-83843000D02*
X163702250Y-83843000D01*
G75*
G02*
X163946000Y-84086750I0J-243750D01*
G01*
X163946000Y-84574250D01*
G75*
G02*
X163702250Y-84818000I-243750J0D01*
G01*
X162789750Y-84818000D01*
G75*
G02*
X162546000Y-84574250I0J243750D01*
G01*
X162546000Y-84086750D01*
G75*
G02*
X162789750Y-83843000I243750J0D01*
G01*
G37*
G36*
G01*
X162789750Y-85718000D02*
X163702250Y-85718000D01*
G75*
G02*
X163946000Y-85961750I0J-243750D01*
G01*
X163946000Y-86449250D01*
G75*
G02*
X163702250Y-86693000I-243750J0D01*
G01*
X162789750Y-86693000D01*
G75*
G02*
X162546000Y-86449250I0J243750D01*
G01*
X162546000Y-85961750D01*
G75*
G02*
X162789750Y-85718000I243750J0D01*
G01*
G37*
G36*
G01*
X158089500Y-68960250D02*
X158089500Y-68047750D01*
G75*
G02*
X158333250Y-67804000I243750J0D01*
G01*
X158820750Y-67804000D01*
G75*
G02*
X159064500Y-68047750I0J-243750D01*
G01*
X159064500Y-68960250D01*
G75*
G02*
X158820750Y-69204000I-243750J0D01*
G01*
X158333250Y-69204000D01*
G75*
G02*
X158089500Y-68960250I0J243750D01*
G01*
G37*
G36*
G01*
X159964500Y-68960250D02*
X159964500Y-68047750D01*
G75*
G02*
X160208250Y-67804000I243750J0D01*
G01*
X160695750Y-67804000D01*
G75*
G02*
X160939500Y-68047750I0J-243750D01*
G01*
X160939500Y-68960250D01*
G75*
G02*
X160695750Y-69204000I-243750J0D01*
G01*
X160208250Y-69204000D01*
G75*
G02*
X159964500Y-68960250I0J243750D01*
G01*
G37*
G36*
G01*
X152272250Y-73485000D02*
X151359750Y-73485000D01*
G75*
G02*
X151116000Y-73241250I0J243750D01*
G01*
X151116000Y-72753750D01*
G75*
G02*
X151359750Y-72510000I243750J0D01*
G01*
X152272250Y-72510000D01*
G75*
G02*
X152516000Y-72753750I0J-243750D01*
G01*
X152516000Y-73241250D01*
G75*
G02*
X152272250Y-73485000I-243750J0D01*
G01*
G37*
G36*
G01*
X152272250Y-71610000D02*
X151359750Y-71610000D01*
G75*
G02*
X151116000Y-71366250I0J243750D01*
G01*
X151116000Y-70878750D01*
G75*
G02*
X151359750Y-70635000I243750J0D01*
G01*
X152272250Y-70635000D01*
G75*
G02*
X152516000Y-70878750I0J-243750D01*
G01*
X152516000Y-71366250D01*
G75*
G02*
X152272250Y-71610000I-243750J0D01*
G01*
G37*
G36*
G01*
X153288250Y-61293000D02*
X152375750Y-61293000D01*
G75*
G02*
X152132000Y-61049250I0J243750D01*
G01*
X152132000Y-60561750D01*
G75*
G02*
X152375750Y-60318000I243750J0D01*
G01*
X153288250Y-60318000D01*
G75*
G02*
X153532000Y-60561750I0J-243750D01*
G01*
X153532000Y-61049250D01*
G75*
G02*
X153288250Y-61293000I-243750J0D01*
G01*
G37*
G36*
G01*
X153288250Y-59418000D02*
X152375750Y-59418000D01*
G75*
G02*
X152132000Y-59174250I0J243750D01*
G01*
X152132000Y-58686750D01*
G75*
G02*
X152375750Y-58443000I243750J0D01*
G01*
X153288250Y-58443000D01*
G75*
G02*
X153532000Y-58686750I0J-243750D01*
G01*
X153532000Y-59174250D01*
G75*
G02*
X153288250Y-59418000I-243750J0D01*
G01*
G37*
G36*
G01*
X156995000Y-80644250D02*
X156995000Y-79731750D01*
G75*
G02*
X157238750Y-79488000I243750J0D01*
G01*
X157726250Y-79488000D01*
G75*
G02*
X157970000Y-79731750I0J-243750D01*
G01*
X157970000Y-80644250D01*
G75*
G02*
X157726250Y-80888000I-243750J0D01*
G01*
X157238750Y-80888000D01*
G75*
G02*
X156995000Y-80644250I0J243750D01*
G01*
G37*
G36*
G01*
X158870000Y-80644250D02*
X158870000Y-79731750D01*
G75*
G02*
X159113750Y-79488000I243750J0D01*
G01*
X159601250Y-79488000D01*
G75*
G02*
X159845000Y-79731750I0J-243750D01*
G01*
X159845000Y-80644250D01*
G75*
G02*
X159601250Y-80888000I-243750J0D01*
G01*
X159113750Y-80888000D01*
G75*
G02*
X158870000Y-80644250I0J243750D01*
G01*
G37*
G36*
G01*
X161924250Y-73485000D02*
X161011750Y-73485000D01*
G75*
G02*
X160768000Y-73241250I0J243750D01*
G01*
X160768000Y-72753750D01*
G75*
G02*
X161011750Y-72510000I243750J0D01*
G01*
X161924250Y-72510000D01*
G75*
G02*
X162168000Y-72753750I0J-243750D01*
G01*
X162168000Y-73241250D01*
G75*
G02*
X161924250Y-73485000I-243750J0D01*
G01*
G37*
G36*
G01*
X161924250Y-71610000D02*
X161011750Y-71610000D01*
G75*
G02*
X160768000Y-71366250I0J243750D01*
G01*
X160768000Y-70878750D01*
G75*
G02*
X161011750Y-70635000I243750J0D01*
G01*
X161924250Y-70635000D01*
G75*
G02*
X162168000Y-70878750I0J-243750D01*
G01*
X162168000Y-71366250D01*
G75*
G02*
X161924250Y-71610000I-243750J0D01*
G01*
G37*
G36*
G01*
X162940250Y-61293000D02*
X162027750Y-61293000D01*
G75*
G02*
X161784000Y-61049250I0J243750D01*
G01*
X161784000Y-60561750D01*
G75*
G02*
X162027750Y-60318000I243750J0D01*
G01*
X162940250Y-60318000D01*
G75*
G02*
X163184000Y-60561750I0J-243750D01*
G01*
X163184000Y-61049250D01*
G75*
G02*
X162940250Y-61293000I-243750J0D01*
G01*
G37*
G36*
G01*
X162940250Y-59418000D02*
X162027750Y-59418000D01*
G75*
G02*
X161784000Y-59174250I0J243750D01*
G01*
X161784000Y-58686750D01*
G75*
G02*
X162027750Y-58443000I243750J0D01*
G01*
X162940250Y-58443000D01*
G75*
G02*
X163184000Y-58686750I0J-243750D01*
G01*
X163184000Y-59174250D01*
G75*
G02*
X162940250Y-59418000I-243750J0D01*
G01*
G37*
G36*
G01*
X159027000Y-56768250D02*
X159027000Y-55855750D01*
G75*
G02*
X159270750Y-55612000I243750J0D01*
G01*
X159758250Y-55612000D01*
G75*
G02*
X160002000Y-55855750I0J-243750D01*
G01*
X160002000Y-56768250D01*
G75*
G02*
X159758250Y-57012000I-243750J0D01*
G01*
X159270750Y-57012000D01*
G75*
G02*
X159027000Y-56768250I0J243750D01*
G01*
G37*
G36*
G01*
X160902000Y-56768250D02*
X160902000Y-55855750D01*
G75*
G02*
X161145750Y-55612000I243750J0D01*
G01*
X161633250Y-55612000D01*
G75*
G02*
X161877000Y-55855750I0J-243750D01*
G01*
X161877000Y-56768250D01*
G75*
G02*
X161633250Y-57012000I-243750J0D01*
G01*
X161145750Y-57012000D01*
G75*
G02*
X160902000Y-56768250I0J243750D01*
G01*
G37*
G36*
G01*
X153517500Y-68960250D02*
X153517500Y-68047750D01*
G75*
G02*
X153761250Y-67804000I243750J0D01*
G01*
X154248750Y-67804000D01*
G75*
G02*
X154492500Y-68047750I0J-243750D01*
G01*
X154492500Y-68960250D01*
G75*
G02*
X154248750Y-69204000I-243750J0D01*
G01*
X153761250Y-69204000D01*
G75*
G02*
X153517500Y-68960250I0J243750D01*
G01*
G37*
G36*
G01*
X155392500Y-68960250D02*
X155392500Y-68047750D01*
G75*
G02*
X155636250Y-67804000I243750J0D01*
G01*
X156123750Y-67804000D01*
G75*
G02*
X156367500Y-68047750I0J-243750D01*
G01*
X156367500Y-68960250D01*
G75*
G02*
X156123750Y-69204000I-243750J0D01*
G01*
X155636250Y-69204000D01*
G75*
G02*
X155392500Y-68960250I0J243750D01*
G01*
G37*
G36*
G01*
X151764250Y-78057000D02*
X150851750Y-78057000D01*
G75*
G02*
X150608000Y-77813250I0J243750D01*
G01*
X150608000Y-77325750D01*
G75*
G02*
X150851750Y-77082000I243750J0D01*
G01*
X151764250Y-77082000D01*
G75*
G02*
X152008000Y-77325750I0J-243750D01*
G01*
X152008000Y-77813250D01*
G75*
G02*
X151764250Y-78057000I-243750J0D01*
G01*
G37*
G36*
G01*
X151764250Y-76182000D02*
X150851750Y-76182000D01*
G75*
G02*
X150608000Y-75938250I0J243750D01*
G01*
X150608000Y-75450750D01*
G75*
G02*
X150851750Y-75207000I243750J0D01*
G01*
X151764250Y-75207000D01*
G75*
G02*
X152008000Y-75450750I0J-243750D01*
G01*
X152008000Y-75938250D01*
G75*
G02*
X151764250Y-76182000I-243750J0D01*
G01*
G37*
G36*
G01*
X152780250Y-66373000D02*
X151867750Y-66373000D01*
G75*
G02*
X151624000Y-66129250I0J243750D01*
G01*
X151624000Y-65641750D01*
G75*
G02*
X151867750Y-65398000I243750J0D01*
G01*
X152780250Y-65398000D01*
G75*
G02*
X153024000Y-65641750I0J-243750D01*
G01*
X153024000Y-66129250D01*
G75*
G02*
X152780250Y-66373000I-243750J0D01*
G01*
G37*
G36*
G01*
X152780250Y-64498000D02*
X151867750Y-64498000D01*
G75*
G02*
X151624000Y-64254250I0J243750D01*
G01*
X151624000Y-63766750D01*
G75*
G02*
X151867750Y-63523000I243750J0D01*
G01*
X152780250Y-63523000D01*
G75*
G02*
X153024000Y-63766750I0J-243750D01*
G01*
X153024000Y-64254250D01*
G75*
G02*
X152780250Y-64498000I-243750J0D01*
G01*
G37*
G36*
G01*
X152423000Y-80644250D02*
X152423000Y-79731750D01*
G75*
G02*
X152666750Y-79488000I243750J0D01*
G01*
X153154250Y-79488000D01*
G75*
G02*
X153398000Y-79731750I0J-243750D01*
G01*
X153398000Y-80644250D01*
G75*
G02*
X153154250Y-80888000I-243750J0D01*
G01*
X152666750Y-80888000D01*
G75*
G02*
X152423000Y-80644250I0J243750D01*
G01*
G37*
G36*
G01*
X154298000Y-80644250D02*
X154298000Y-79731750D01*
G75*
G02*
X154541750Y-79488000I243750J0D01*
G01*
X155029250Y-79488000D01*
G75*
G02*
X155273000Y-79731750I0J-243750D01*
G01*
X155273000Y-80644250D01*
G75*
G02*
X155029250Y-80888000I-243750J0D01*
G01*
X154541750Y-80888000D01*
G75*
G02*
X154298000Y-80644250I0J243750D01*
G01*
G37*
G36*
G01*
X161416250Y-78057000D02*
X160503750Y-78057000D01*
G75*
G02*
X160260000Y-77813250I0J243750D01*
G01*
X160260000Y-77325750D01*
G75*
G02*
X160503750Y-77082000I243750J0D01*
G01*
X161416250Y-77082000D01*
G75*
G02*
X161660000Y-77325750I0J-243750D01*
G01*
X161660000Y-77813250D01*
G75*
G02*
X161416250Y-78057000I-243750J0D01*
G01*
G37*
G36*
G01*
X161416250Y-76182000D02*
X160503750Y-76182000D01*
G75*
G02*
X160260000Y-75938250I0J243750D01*
G01*
X160260000Y-75450750D01*
G75*
G02*
X160503750Y-75207000I243750J0D01*
G01*
X161416250Y-75207000D01*
G75*
G02*
X161660000Y-75450750I0J-243750D01*
G01*
X161660000Y-75938250D01*
G75*
G02*
X161416250Y-76182000I-243750J0D01*
G01*
G37*
G36*
G01*
X162432250Y-66373000D02*
X161519750Y-66373000D01*
G75*
G02*
X161276000Y-66129250I0J243750D01*
G01*
X161276000Y-65641750D01*
G75*
G02*
X161519750Y-65398000I243750J0D01*
G01*
X162432250Y-65398000D01*
G75*
G02*
X162676000Y-65641750I0J-243750D01*
G01*
X162676000Y-66129250D01*
G75*
G02*
X162432250Y-66373000I-243750J0D01*
G01*
G37*
G36*
G01*
X162432250Y-64498000D02*
X161519750Y-64498000D01*
G75*
G02*
X161276000Y-64254250I0J243750D01*
G01*
X161276000Y-63766750D01*
G75*
G02*
X161519750Y-63523000I243750J0D01*
G01*
X162432250Y-63523000D01*
G75*
G02*
X162676000Y-63766750I0J-243750D01*
G01*
X162676000Y-64254250D01*
G75*
G02*
X162432250Y-64498000I-243750J0D01*
G01*
G37*
G36*
G01*
X154455000Y-56768250D02*
X154455000Y-55855750D01*
G75*
G02*
X154698750Y-55612000I243750J0D01*
G01*
X155186250Y-55612000D01*
G75*
G02*
X155430000Y-55855750I0J-243750D01*
G01*
X155430000Y-56768250D01*
G75*
G02*
X155186250Y-57012000I-243750J0D01*
G01*
X154698750Y-57012000D01*
G75*
G02*
X154455000Y-56768250I0J243750D01*
G01*
G37*
G36*
G01*
X156330000Y-56768250D02*
X156330000Y-55855750D01*
G75*
G02*
X156573750Y-55612000I243750J0D01*
G01*
X157061250Y-55612000D01*
G75*
G02*
X157305000Y-55855750I0J-243750D01*
G01*
X157305000Y-56768250D01*
G75*
G02*
X157061250Y-57012000I-243750J0D01*
G01*
X156573750Y-57012000D01*
G75*
G02*
X156330000Y-56768250I0J243750D01*
G01*
G37*
G36*
G01*
X136881750Y-85718000D02*
X137794250Y-85718000D01*
G75*
G02*
X138038000Y-85961750I0J-243750D01*
G01*
X138038000Y-86449250D01*
G75*
G02*
X137794250Y-86693000I-243750J0D01*
G01*
X136881750Y-86693000D01*
G75*
G02*
X136638000Y-86449250I0J243750D01*
G01*
X136638000Y-85961750D01*
G75*
G02*
X136881750Y-85718000I243750J0D01*
G01*
G37*
G36*
G01*
X136881750Y-83843000D02*
X137794250Y-83843000D01*
G75*
G02*
X138038000Y-84086750I0J-243750D01*
G01*
X138038000Y-84574250D01*
G75*
G02*
X137794250Y-84818000I-243750J0D01*
G01*
X136881750Y-84818000D01*
G75*
G02*
X136638000Y-84574250I0J243750D01*
G01*
X136638000Y-84086750D01*
G75*
G02*
X136881750Y-83843000I243750J0D01*
G01*
G37*
G36*
G01*
X134849750Y-85718000D02*
X135762250Y-85718000D01*
G75*
G02*
X136006000Y-85961750I0J-243750D01*
G01*
X136006000Y-86449250D01*
G75*
G02*
X135762250Y-86693000I-243750J0D01*
G01*
X134849750Y-86693000D01*
G75*
G02*
X134606000Y-86449250I0J243750D01*
G01*
X134606000Y-85961750D01*
G75*
G02*
X134849750Y-85718000I243750J0D01*
G01*
G37*
G36*
G01*
X134849750Y-83843000D02*
X135762250Y-83843000D01*
G75*
G02*
X136006000Y-84086750I0J-243750D01*
G01*
X136006000Y-84574250D01*
G75*
G02*
X135762250Y-84818000I-243750J0D01*
G01*
X134849750Y-84818000D01*
G75*
G02*
X134606000Y-84574250I0J243750D01*
G01*
X134606000Y-84086750D01*
G75*
G02*
X134849750Y-83843000I243750J0D01*
G01*
G37*
G36*
G01*
X132817750Y-85718000D02*
X133730250Y-85718000D01*
G75*
G02*
X133974000Y-85961750I0J-243750D01*
G01*
X133974000Y-86449250D01*
G75*
G02*
X133730250Y-86693000I-243750J0D01*
G01*
X132817750Y-86693000D01*
G75*
G02*
X132574000Y-86449250I0J243750D01*
G01*
X132574000Y-85961750D01*
G75*
G02*
X132817750Y-85718000I243750J0D01*
G01*
G37*
G36*
G01*
X132817750Y-83843000D02*
X133730250Y-83843000D01*
G75*
G02*
X133974000Y-84086750I0J-243750D01*
G01*
X133974000Y-84574250D01*
G75*
G02*
X133730250Y-84818000I-243750J0D01*
G01*
X132817750Y-84818000D01*
G75*
G02*
X132574000Y-84574250I0J243750D01*
G01*
X132574000Y-84086750D01*
G75*
G02*
X132817750Y-83843000I243750J0D01*
G01*
G37*
G36*
G01*
X138913750Y-85718000D02*
X139826250Y-85718000D01*
G75*
G02*
X140070000Y-85961750I0J-243750D01*
G01*
X140070000Y-86449250D01*
G75*
G02*
X139826250Y-86693000I-243750J0D01*
G01*
X138913750Y-86693000D01*
G75*
G02*
X138670000Y-86449250I0J243750D01*
G01*
X138670000Y-85961750D01*
G75*
G02*
X138913750Y-85718000I243750J0D01*
G01*
G37*
G36*
G01*
X138913750Y-83843000D02*
X139826250Y-83843000D01*
G75*
G02*
X140070000Y-84086750I0J-243750D01*
G01*
X140070000Y-84574250D01*
G75*
G02*
X139826250Y-84818000I-243750J0D01*
G01*
X138913750Y-84818000D01*
G75*
G02*
X138670000Y-84574250I0J243750D01*
G01*
X138670000Y-84086750D01*
G75*
G02*
X138913750Y-83843000I243750J0D01*
G01*
G37*
G36*
G01*
X140945750Y-85718000D02*
X141858250Y-85718000D01*
G75*
G02*
X142102000Y-85961750I0J-243750D01*
G01*
X142102000Y-86449250D01*
G75*
G02*
X141858250Y-86693000I-243750J0D01*
G01*
X140945750Y-86693000D01*
G75*
G02*
X140702000Y-86449250I0J243750D01*
G01*
X140702000Y-85961750D01*
G75*
G02*
X140945750Y-85718000I243750J0D01*
G01*
G37*
G36*
G01*
X140945750Y-83843000D02*
X141858250Y-83843000D01*
G75*
G02*
X142102000Y-84086750I0J-243750D01*
G01*
X142102000Y-84574250D01*
G75*
G02*
X141858250Y-84818000I-243750J0D01*
G01*
X140945750Y-84818000D01*
G75*
G02*
X140702000Y-84574250I0J243750D01*
G01*
X140702000Y-84086750D01*
G75*
G02*
X140945750Y-83843000I243750J0D01*
G01*
G37*
G36*
G01*
X142977750Y-85718000D02*
X143890250Y-85718000D01*
G75*
G02*
X144134000Y-85961750I0J-243750D01*
G01*
X144134000Y-86449250D01*
G75*
G02*
X143890250Y-86693000I-243750J0D01*
G01*
X142977750Y-86693000D01*
G75*
G02*
X142734000Y-86449250I0J243750D01*
G01*
X142734000Y-85961750D01*
G75*
G02*
X142977750Y-85718000I243750J0D01*
G01*
G37*
G36*
G01*
X142977750Y-83843000D02*
X143890250Y-83843000D01*
G75*
G02*
X144134000Y-84086750I0J-243750D01*
G01*
X144134000Y-84574250D01*
G75*
G02*
X143890250Y-84818000I-243750J0D01*
G01*
X142977750Y-84818000D01*
G75*
G02*
X142734000Y-84574250I0J243750D01*
G01*
X142734000Y-84086750D01*
G75*
G02*
X142977750Y-83843000I243750J0D01*
G01*
G37*
G36*
G01*
X145009750Y-85718000D02*
X145922250Y-85718000D01*
G75*
G02*
X146166000Y-85961750I0J-243750D01*
G01*
X146166000Y-86449250D01*
G75*
G02*
X145922250Y-86693000I-243750J0D01*
G01*
X145009750Y-86693000D01*
G75*
G02*
X144766000Y-86449250I0J243750D01*
G01*
X144766000Y-85961750D01*
G75*
G02*
X145009750Y-85718000I243750J0D01*
G01*
G37*
G36*
G01*
X145009750Y-83843000D02*
X145922250Y-83843000D01*
G75*
G02*
X146166000Y-84086750I0J-243750D01*
G01*
X146166000Y-84574250D01*
G75*
G02*
X145922250Y-84818000I-243750J0D01*
G01*
X145009750Y-84818000D01*
G75*
G02*
X144766000Y-84574250I0J243750D01*
G01*
X144766000Y-84086750D01*
G75*
G02*
X145009750Y-83843000I243750J0D01*
G01*
G37*
G36*
G01*
X140309500Y-68960250D02*
X140309500Y-68047750D01*
G75*
G02*
X140553250Y-67804000I243750J0D01*
G01*
X141040750Y-67804000D01*
G75*
G02*
X141284500Y-68047750I0J-243750D01*
G01*
X141284500Y-68960250D01*
G75*
G02*
X141040750Y-69204000I-243750J0D01*
G01*
X140553250Y-69204000D01*
G75*
G02*
X140309500Y-68960250I0J243750D01*
G01*
G37*
G36*
G01*
X142184500Y-68960250D02*
X142184500Y-68047750D01*
G75*
G02*
X142428250Y-67804000I243750J0D01*
G01*
X142915750Y-67804000D01*
G75*
G02*
X143159500Y-68047750I0J-243750D01*
G01*
X143159500Y-68960250D01*
G75*
G02*
X142915750Y-69204000I-243750J0D01*
G01*
X142428250Y-69204000D01*
G75*
G02*
X142184500Y-68960250I0J243750D01*
G01*
G37*
G36*
G01*
X134492250Y-73485000D02*
X133579750Y-73485000D01*
G75*
G02*
X133336000Y-73241250I0J243750D01*
G01*
X133336000Y-72753750D01*
G75*
G02*
X133579750Y-72510000I243750J0D01*
G01*
X134492250Y-72510000D01*
G75*
G02*
X134736000Y-72753750I0J-243750D01*
G01*
X134736000Y-73241250D01*
G75*
G02*
X134492250Y-73485000I-243750J0D01*
G01*
G37*
G36*
G01*
X134492250Y-71610000D02*
X133579750Y-71610000D01*
G75*
G02*
X133336000Y-71366250I0J243750D01*
G01*
X133336000Y-70878750D01*
G75*
G02*
X133579750Y-70635000I243750J0D01*
G01*
X134492250Y-70635000D01*
G75*
G02*
X134736000Y-70878750I0J-243750D01*
G01*
X134736000Y-71366250D01*
G75*
G02*
X134492250Y-71610000I-243750J0D01*
G01*
G37*
G36*
G01*
X135508250Y-61293000D02*
X134595750Y-61293000D01*
G75*
G02*
X134352000Y-61049250I0J243750D01*
G01*
X134352000Y-60561750D01*
G75*
G02*
X134595750Y-60318000I243750J0D01*
G01*
X135508250Y-60318000D01*
G75*
G02*
X135752000Y-60561750I0J-243750D01*
G01*
X135752000Y-61049250D01*
G75*
G02*
X135508250Y-61293000I-243750J0D01*
G01*
G37*
G36*
G01*
X135508250Y-59418000D02*
X134595750Y-59418000D01*
G75*
G02*
X134352000Y-59174250I0J243750D01*
G01*
X134352000Y-58686750D01*
G75*
G02*
X134595750Y-58443000I243750J0D01*
G01*
X135508250Y-58443000D01*
G75*
G02*
X135752000Y-58686750I0J-243750D01*
G01*
X135752000Y-59174250D01*
G75*
G02*
X135508250Y-59418000I-243750J0D01*
G01*
G37*
G36*
G01*
X139215000Y-80644250D02*
X139215000Y-79731750D01*
G75*
G02*
X139458750Y-79488000I243750J0D01*
G01*
X139946250Y-79488000D01*
G75*
G02*
X140190000Y-79731750I0J-243750D01*
G01*
X140190000Y-80644250D01*
G75*
G02*
X139946250Y-80888000I-243750J0D01*
G01*
X139458750Y-80888000D01*
G75*
G02*
X139215000Y-80644250I0J243750D01*
G01*
G37*
G36*
G01*
X141090000Y-80644250D02*
X141090000Y-79731750D01*
G75*
G02*
X141333750Y-79488000I243750J0D01*
G01*
X141821250Y-79488000D01*
G75*
G02*
X142065000Y-79731750I0J-243750D01*
G01*
X142065000Y-80644250D01*
G75*
G02*
X141821250Y-80888000I-243750J0D01*
G01*
X141333750Y-80888000D01*
G75*
G02*
X141090000Y-80644250I0J243750D01*
G01*
G37*
G36*
G01*
X144144250Y-73485000D02*
X143231750Y-73485000D01*
G75*
G02*
X142988000Y-73241250I0J243750D01*
G01*
X142988000Y-72753750D01*
G75*
G02*
X143231750Y-72510000I243750J0D01*
G01*
X144144250Y-72510000D01*
G75*
G02*
X144388000Y-72753750I0J-243750D01*
G01*
X144388000Y-73241250D01*
G75*
G02*
X144144250Y-73485000I-243750J0D01*
G01*
G37*
G36*
G01*
X144144250Y-71610000D02*
X143231750Y-71610000D01*
G75*
G02*
X142988000Y-71366250I0J243750D01*
G01*
X142988000Y-70878750D01*
G75*
G02*
X143231750Y-70635000I243750J0D01*
G01*
X144144250Y-70635000D01*
G75*
G02*
X144388000Y-70878750I0J-243750D01*
G01*
X144388000Y-71366250D01*
G75*
G02*
X144144250Y-71610000I-243750J0D01*
G01*
G37*
G36*
G01*
X145160250Y-61293000D02*
X144247750Y-61293000D01*
G75*
G02*
X144004000Y-61049250I0J243750D01*
G01*
X144004000Y-60561750D01*
G75*
G02*
X144247750Y-60318000I243750J0D01*
G01*
X145160250Y-60318000D01*
G75*
G02*
X145404000Y-60561750I0J-243750D01*
G01*
X145404000Y-61049250D01*
G75*
G02*
X145160250Y-61293000I-243750J0D01*
G01*
G37*
G36*
G01*
X145160250Y-59418000D02*
X144247750Y-59418000D01*
G75*
G02*
X144004000Y-59174250I0J243750D01*
G01*
X144004000Y-58686750D01*
G75*
G02*
X144247750Y-58443000I243750J0D01*
G01*
X145160250Y-58443000D01*
G75*
G02*
X145404000Y-58686750I0J-243750D01*
G01*
X145404000Y-59174250D01*
G75*
G02*
X145160250Y-59418000I-243750J0D01*
G01*
G37*
G36*
G01*
X141247000Y-56768250D02*
X141247000Y-55855750D01*
G75*
G02*
X141490750Y-55612000I243750J0D01*
G01*
X141978250Y-55612000D01*
G75*
G02*
X142222000Y-55855750I0J-243750D01*
G01*
X142222000Y-56768250D01*
G75*
G02*
X141978250Y-57012000I-243750J0D01*
G01*
X141490750Y-57012000D01*
G75*
G02*
X141247000Y-56768250I0J243750D01*
G01*
G37*
G36*
G01*
X143122000Y-56768250D02*
X143122000Y-55855750D01*
G75*
G02*
X143365750Y-55612000I243750J0D01*
G01*
X143853250Y-55612000D01*
G75*
G02*
X144097000Y-55855750I0J-243750D01*
G01*
X144097000Y-56768250D01*
G75*
G02*
X143853250Y-57012000I-243750J0D01*
G01*
X143365750Y-57012000D01*
G75*
G02*
X143122000Y-56768250I0J243750D01*
G01*
G37*
G36*
G01*
X135659000Y-68960250D02*
X135659000Y-68047750D01*
G75*
G02*
X135902750Y-67804000I243750J0D01*
G01*
X136390250Y-67804000D01*
G75*
G02*
X136634000Y-68047750I0J-243750D01*
G01*
X136634000Y-68960250D01*
G75*
G02*
X136390250Y-69204000I-243750J0D01*
G01*
X135902750Y-69204000D01*
G75*
G02*
X135659000Y-68960250I0J243750D01*
G01*
G37*
G36*
G01*
X137534000Y-68960250D02*
X137534000Y-68047750D01*
G75*
G02*
X137777750Y-67804000I243750J0D01*
G01*
X138265250Y-67804000D01*
G75*
G02*
X138509000Y-68047750I0J-243750D01*
G01*
X138509000Y-68960250D01*
G75*
G02*
X138265250Y-69204000I-243750J0D01*
G01*
X137777750Y-69204000D01*
G75*
G02*
X137534000Y-68960250I0J243750D01*
G01*
G37*
G36*
G01*
X133984250Y-78057000D02*
X133071750Y-78057000D01*
G75*
G02*
X132828000Y-77813250I0J243750D01*
G01*
X132828000Y-77325750D01*
G75*
G02*
X133071750Y-77082000I243750J0D01*
G01*
X133984250Y-77082000D01*
G75*
G02*
X134228000Y-77325750I0J-243750D01*
G01*
X134228000Y-77813250D01*
G75*
G02*
X133984250Y-78057000I-243750J0D01*
G01*
G37*
G36*
G01*
X133984250Y-76182000D02*
X133071750Y-76182000D01*
G75*
G02*
X132828000Y-75938250I0J243750D01*
G01*
X132828000Y-75450750D01*
G75*
G02*
X133071750Y-75207000I243750J0D01*
G01*
X133984250Y-75207000D01*
G75*
G02*
X134228000Y-75450750I0J-243750D01*
G01*
X134228000Y-75938250D01*
G75*
G02*
X133984250Y-76182000I-243750J0D01*
G01*
G37*
G36*
G01*
X135000250Y-66373000D02*
X134087750Y-66373000D01*
G75*
G02*
X133844000Y-66129250I0J243750D01*
G01*
X133844000Y-65641750D01*
G75*
G02*
X134087750Y-65398000I243750J0D01*
G01*
X135000250Y-65398000D01*
G75*
G02*
X135244000Y-65641750I0J-243750D01*
G01*
X135244000Y-66129250D01*
G75*
G02*
X135000250Y-66373000I-243750J0D01*
G01*
G37*
G36*
G01*
X135000250Y-64498000D02*
X134087750Y-64498000D01*
G75*
G02*
X133844000Y-64254250I0J243750D01*
G01*
X133844000Y-63766750D01*
G75*
G02*
X134087750Y-63523000I243750J0D01*
G01*
X135000250Y-63523000D01*
G75*
G02*
X135244000Y-63766750I0J-243750D01*
G01*
X135244000Y-64254250D01*
G75*
G02*
X135000250Y-64498000I-243750J0D01*
G01*
G37*
G36*
G01*
X134643000Y-80644250D02*
X134643000Y-79731750D01*
G75*
G02*
X134886750Y-79488000I243750J0D01*
G01*
X135374250Y-79488000D01*
G75*
G02*
X135618000Y-79731750I0J-243750D01*
G01*
X135618000Y-80644250D01*
G75*
G02*
X135374250Y-80888000I-243750J0D01*
G01*
X134886750Y-80888000D01*
G75*
G02*
X134643000Y-80644250I0J243750D01*
G01*
G37*
G36*
G01*
X136518000Y-80644250D02*
X136518000Y-79731750D01*
G75*
G02*
X136761750Y-79488000I243750J0D01*
G01*
X137249250Y-79488000D01*
G75*
G02*
X137493000Y-79731750I0J-243750D01*
G01*
X137493000Y-80644250D01*
G75*
G02*
X137249250Y-80888000I-243750J0D01*
G01*
X136761750Y-80888000D01*
G75*
G02*
X136518000Y-80644250I0J243750D01*
G01*
G37*
G36*
G01*
X143636250Y-78057000D02*
X142723750Y-78057000D01*
G75*
G02*
X142480000Y-77813250I0J243750D01*
G01*
X142480000Y-77325750D01*
G75*
G02*
X142723750Y-77082000I243750J0D01*
G01*
X143636250Y-77082000D01*
G75*
G02*
X143880000Y-77325750I0J-243750D01*
G01*
X143880000Y-77813250D01*
G75*
G02*
X143636250Y-78057000I-243750J0D01*
G01*
G37*
G36*
G01*
X143636250Y-76182000D02*
X142723750Y-76182000D01*
G75*
G02*
X142480000Y-75938250I0J243750D01*
G01*
X142480000Y-75450750D01*
G75*
G02*
X142723750Y-75207000I243750J0D01*
G01*
X143636250Y-75207000D01*
G75*
G02*
X143880000Y-75450750I0J-243750D01*
G01*
X143880000Y-75938250D01*
G75*
G02*
X143636250Y-76182000I-243750J0D01*
G01*
G37*
G36*
G01*
X144652250Y-66373000D02*
X143739750Y-66373000D01*
G75*
G02*
X143496000Y-66129250I0J243750D01*
G01*
X143496000Y-65641750D01*
G75*
G02*
X143739750Y-65398000I243750J0D01*
G01*
X144652250Y-65398000D01*
G75*
G02*
X144896000Y-65641750I0J-243750D01*
G01*
X144896000Y-66129250D01*
G75*
G02*
X144652250Y-66373000I-243750J0D01*
G01*
G37*
G36*
G01*
X144652250Y-64498000D02*
X143739750Y-64498000D01*
G75*
G02*
X143496000Y-64254250I0J243750D01*
G01*
X143496000Y-63766750D01*
G75*
G02*
X143739750Y-63523000I243750J0D01*
G01*
X144652250Y-63523000D01*
G75*
G02*
X144896000Y-63766750I0J-243750D01*
G01*
X144896000Y-64254250D01*
G75*
G02*
X144652250Y-64498000I-243750J0D01*
G01*
G37*
G36*
G01*
X136675000Y-56768250D02*
X136675000Y-55855750D01*
G75*
G02*
X136918750Y-55612000I243750J0D01*
G01*
X137406250Y-55612000D01*
G75*
G02*
X137650000Y-55855750I0J-243750D01*
G01*
X137650000Y-56768250D01*
G75*
G02*
X137406250Y-57012000I-243750J0D01*
G01*
X136918750Y-57012000D01*
G75*
G02*
X136675000Y-56768250I0J243750D01*
G01*
G37*
G36*
G01*
X138550000Y-56768250D02*
X138550000Y-55855750D01*
G75*
G02*
X138793750Y-55612000I243750J0D01*
G01*
X139281250Y-55612000D01*
G75*
G02*
X139525000Y-55855750I0J-243750D01*
G01*
X139525000Y-56768250D01*
G75*
G02*
X139281250Y-57012000I-243750J0D01*
G01*
X138793750Y-57012000D01*
G75*
G02*
X138550000Y-56768250I0J243750D01*
G01*
G37*
G36*
G01*
X105392000Y-70587750D02*
X105392000Y-71500250D01*
G75*
G02*
X105148250Y-71744000I-243750J0D01*
G01*
X104660750Y-71744000D01*
G75*
G02*
X104417000Y-71500250I0J243750D01*
G01*
X104417000Y-70587750D01*
G75*
G02*
X104660750Y-70344000I243750J0D01*
G01*
X105148250Y-70344000D01*
G75*
G02*
X105392000Y-70587750I0J-243750D01*
G01*
G37*
G36*
G01*
X107267000Y-70587750D02*
X107267000Y-71500250D01*
G75*
G02*
X107023250Y-71744000I-243750J0D01*
G01*
X106535750Y-71744000D01*
G75*
G02*
X106292000Y-71500250I0J243750D01*
G01*
X106292000Y-70587750D01*
G75*
G02*
X106535750Y-70344000I243750J0D01*
G01*
X107023250Y-70344000D01*
G75*
G02*
X107267000Y-70587750I0J-243750D01*
G01*
G37*
D10*
X160833000Y-94318000D03*
X159563000Y-94318000D03*
X158293000Y-94318000D03*
X157023000Y-94318000D03*
X155753000Y-94318000D03*
X154483000Y-94318000D03*
X153213000Y-94318000D03*
X151943000Y-94318000D03*
X151943000Y-88918000D03*
X153213000Y-88918000D03*
X154483000Y-88918000D03*
X155753000Y-88918000D03*
X157023000Y-88918000D03*
X158293000Y-88918000D03*
X159563000Y-88918000D03*
X160833000Y-88918000D03*
X143053000Y-94318000D03*
X141783000Y-94318000D03*
X140513000Y-94318000D03*
X139243000Y-94318000D03*
X137973000Y-94318000D03*
X136703000Y-94318000D03*
X135433000Y-94318000D03*
X134163000Y-94318000D03*
X134163000Y-88918000D03*
X135433000Y-88918000D03*
X136703000Y-88918000D03*
X137973000Y-88918000D03*
X139243000Y-88918000D03*
X140513000Y-88918000D03*
X141783000Y-88918000D03*
X143053000Y-88918000D03*
D11*
X111524000Y-70409000D03*
X111524000Y-69139000D03*
X111524000Y-67869000D03*
X111524000Y-66599000D03*
X111524000Y-65329000D03*
X111524000Y-64059000D03*
X111524000Y-62789000D03*
X111524000Y-61519000D03*
X116924000Y-61519000D03*
X116924000Y-62789000D03*
X116924000Y-64059000D03*
X116924000Y-65329000D03*
X116924000Y-66599000D03*
X116924000Y-67869000D03*
X116924000Y-69139000D03*
X116924000Y-70409000D03*
M02*
