M48
; DRILL file {KiCad (5.1.6)-1} date 04/28/21 12:57:53
; FORMAT={-:-/ absolute / inch / decimal}
; #@! TF.CreationDate,2021-04-28T12:57:53+02:00
; #@! TF.GenerationSoftware,Kicad,Pcbnew,(5.1.6)-1
; #@! TF.FileFunction,Plated,1,2,PTH
FMAT,2
INCH
T1C0.0157
T2C0.0300
T3C0.0315
%
G90
G05
T1
X4.157Y-3.2995
X4.307Y-2.867
X4.317Y-2.527
X4.317Y-2.757
X4.432Y-3.162
X4.437Y-3.217
X4.4555Y-2.757
X4.457Y-2.367
X4.5155Y-2.597
X4.5185Y-2.892
X4.527Y-3.167
X4.607Y-2.367
X4.6185Y-3.217
X4.837Y-3.397
X4.847Y-2.687
X4.987Y-2.837
X4.987Y-3.137
X5.037Y-2.687
X5.037Y-3.397
X5.227Y-3.497
X5.245Y-3.775
X5.277Y-2.922
X5.317Y-2.447
X5.34Y-3.7724
X5.387Y-3.767
X5.437Y-3.7719
X5.447Y-3.157
X5.4577Y-3.6423
X5.497Y-2.697
X5.527Y-2.217
X5.55Y-3.605
X5.602Y-3.602
X5.657Y-2.927
X5.677Y-3.7719
X5.697Y-2.447
X5.777Y-3.647
X5.787Y-3.727
X5.927Y-3.497
X5.937Y-3.7719
X5.977Y-2.917
X6.017Y-2.447
X6.127Y-3.7719
X6.147Y-3.157
X6.192Y-2.697
X6.227Y-2.217
X6.277Y-3.807
X6.357Y-2.927
X6.397Y-2.457
X6.407Y-3.607
X6.647Y-3.587
X6.647Y-2.487
X6.647Y-2.687
X6.647Y-3.187
X6.647Y-3.387
X6.697Y-2.837
X6.837Y-2.487
X6.837Y-2.687
X6.837Y-3.187
X6.837Y-3.387
X6.897Y-2.837
X6.897Y-3.537
T2
X4.0551Y-2.3028
X4.0551Y-2.4028
X4.0551Y-2.5028
X4.0551Y-2.6028
X4.0551Y-2.7028
X4.0551Y-2.8028
X4.0551Y-2.9028
X4.0551Y-3.0028
X4.0551Y-3.1028
X4.0551Y-3.2028
X4.0551Y-3.3028
X4.0551Y-3.4028
X4.0551Y-3.5028
X4.0551Y-3.6028
X7.2551Y-2.3528
X7.2551Y-2.4528
X7.2551Y-2.5528
X7.2551Y-2.8028
X7.2551Y-2.9028
X7.2551Y-3.0028
X7.2551Y-3.1028
T3
X4.537Y-2.187
X4.512Y-3.837
X4.237Y-2.337
T0
M30
