M48
; DRILL file {KiCad (5.1.0)-1} date 18/05/2020 11:45:07
; FORMAT={-:-/ absolute / metric / decimal}
; #@! TF.CreationDate,2020-05-18T11:45:07+02:00
; #@! TF.GenerationSoftware,Kicad,Pcbnew,(5.1.0)-1
; #@! TF.FileFunction,Plated,1,2,PTH
FMAT,2
METRIC
T1C0.400
T2C0.762
T3C0.800
%
G90
G05
T1
X109.398Y-72.822
X109.652Y-64.186
X109.652Y-70.028
X113.17Y-70.028
X113.17Y-80.442
X113.17Y-81.712
X113.208Y-60.122
X114.986Y-80.442
X117.018Y-60.122
X117.31Y-81.712
X122.86Y-86.284
X123.114Y-68.25
X126.67Y-72.06
X126.67Y-79.68
X127.94Y-68.25
X127.94Y-86.284
X132.766Y-88.824
X134.036Y-74.219
X135.052Y-62.154
X136.83Y-95.682
X138.1Y-95.806
X138.354Y-80.188
X139.624Y-68.504
X140.386Y-56.312
X141.91Y-92.126
X143.688Y-74.346
X144.196Y-95.806
X144.704Y-62.154
X146.736Y-92.634
X146.99Y-94.666
X150.546Y-88.824
X150.8Y-95.806
X151.816Y-74.092
X152.832Y-62.154
X155.626Y-95.806
X156.134Y-80.188
X157.277Y-68.504
X158.166Y-56.312
X159.436Y-96.698
X161.468Y-74.346
X162.484Y-62.408
X162.738Y-91.618
X168.834Y-91.11
X168.834Y-63.17
X168.834Y-68.25
X168.834Y-80.95
X168.834Y-86.03
X170.104Y-72.06
X173.66Y-63.17
X173.66Y-68.25
X173.66Y-80.95
X173.66Y-86.03
X175.184Y-72.06
X175.184Y-89.84
T2
X103.0Y-58.49
X103.0Y-61.03
X103.0Y-63.57
X103.0Y-66.11
X103.0Y-68.65
X103.0Y-71.19
X103.0Y-73.73
X103.0Y-76.27
X103.0Y-78.81
X103.0Y-81.35
X103.0Y-83.89
X103.0Y-86.43
X103.0Y-88.97
X103.0Y-91.51
X184.28Y-59.76
X184.28Y-62.3
X184.28Y-64.84
X184.28Y-71.19
X184.28Y-73.73
X184.28Y-76.27
X184.28Y-78.81
T3
X107.62Y-59.36
X115.24Y-55.55
X114.605Y-97.46
T0
M30
