G04 #@! TF.GenerationSoftware,KiCad,Pcbnew,(5.1.0)-1*
G04 #@! TF.CreationDate,2020-05-18T11:58:26+02:00*
G04 #@! TF.ProjectId,led_display_v1,6c65645f-6469-4737-906c-61795f76312e,rev?*
G04 #@! TF.SameCoordinates,Original*
G04 #@! TF.FileFunction,Legend,Bot*
G04 #@! TF.FilePolarity,Positive*
%FSLAX46Y46*%
G04 Gerber Fmt 4.6, Leading zero omitted, Abs format (unit mm)*
G04 Created by KiCad (PCBNEW (5.1.0)-1) date 2020-05-18 11:58:26*
%MOMM*%
%LPD*%
G04 APERTURE LIST*
%ADD10C,0.100000*%
%ADD11C,1.626000*%
%ADD12C,3.402000*%
%ADD13C,2.100980*%
G04 APERTURE END LIST*
%LPC*%
D10*
G36*
X103446344Y-57678957D02*
G01*
X103485804Y-57684811D01*
X103524501Y-57694504D01*
X103562061Y-57707943D01*
X103598123Y-57724999D01*
X103632339Y-57745508D01*
X103664381Y-57769271D01*
X103693939Y-57796061D01*
X103720729Y-57825619D01*
X103744492Y-57857661D01*
X103765001Y-57891877D01*
X103782057Y-57927939D01*
X103795496Y-57965499D01*
X103805189Y-58004196D01*
X103811043Y-58043656D01*
X103813000Y-58083500D01*
X103813000Y-58896500D01*
X103811043Y-58936344D01*
X103805189Y-58975804D01*
X103795496Y-59014501D01*
X103782057Y-59052061D01*
X103765001Y-59088123D01*
X103744492Y-59122339D01*
X103720729Y-59154381D01*
X103693939Y-59183939D01*
X103664381Y-59210729D01*
X103632339Y-59234492D01*
X103598123Y-59255001D01*
X103562061Y-59272057D01*
X103524501Y-59285496D01*
X103485804Y-59295189D01*
X103446344Y-59301043D01*
X103406500Y-59303000D01*
X102593500Y-59303000D01*
X102553656Y-59301043D01*
X102514196Y-59295189D01*
X102475499Y-59285496D01*
X102437939Y-59272057D01*
X102401877Y-59255001D01*
X102367661Y-59234492D01*
X102335619Y-59210729D01*
X102306061Y-59183939D01*
X102279271Y-59154381D01*
X102255508Y-59122339D01*
X102234999Y-59088123D01*
X102217943Y-59052061D01*
X102204504Y-59014501D01*
X102194811Y-58975804D01*
X102188957Y-58936344D01*
X102187000Y-58896500D01*
X102187000Y-58083500D01*
X102188957Y-58043656D01*
X102194811Y-58004196D01*
X102204504Y-57965499D01*
X102217943Y-57927939D01*
X102234999Y-57891877D01*
X102255508Y-57857661D01*
X102279271Y-57825619D01*
X102306061Y-57796061D01*
X102335619Y-57769271D01*
X102367661Y-57745508D01*
X102401877Y-57724999D01*
X102437939Y-57707943D01*
X102475499Y-57694504D01*
X102514196Y-57684811D01*
X102553656Y-57678957D01*
X102593500Y-57677000D01*
X103406500Y-57677000D01*
X103446344Y-57678957D01*
X103446344Y-57678957D01*
G37*
D11*
X103000000Y-58490000D03*
X103000000Y-61030000D03*
X103000000Y-63570000D03*
X103000000Y-66110000D03*
X103000000Y-68650000D03*
X103000000Y-71190000D03*
X103000000Y-73730000D03*
X103000000Y-76270000D03*
X103000000Y-78810000D03*
X103000000Y-81350000D03*
X103000000Y-83890000D03*
X103000000Y-86430000D03*
X103000000Y-88970000D03*
X103000000Y-91510000D03*
D10*
G36*
X184726344Y-70378957D02*
G01*
X184765804Y-70384811D01*
X184804501Y-70394504D01*
X184842061Y-70407943D01*
X184878123Y-70424999D01*
X184912339Y-70445508D01*
X184944381Y-70469271D01*
X184973939Y-70496061D01*
X185000729Y-70525619D01*
X185024492Y-70557661D01*
X185045001Y-70591877D01*
X185062057Y-70627939D01*
X185075496Y-70665499D01*
X185085189Y-70704196D01*
X185091043Y-70743656D01*
X185093000Y-70783500D01*
X185093000Y-71596500D01*
X185091043Y-71636344D01*
X185085189Y-71675804D01*
X185075496Y-71714501D01*
X185062057Y-71752061D01*
X185045001Y-71788123D01*
X185024492Y-71822339D01*
X185000729Y-71854381D01*
X184973939Y-71883939D01*
X184944381Y-71910729D01*
X184912339Y-71934492D01*
X184878123Y-71955001D01*
X184842061Y-71972057D01*
X184804501Y-71985496D01*
X184765804Y-71995189D01*
X184726344Y-72001043D01*
X184686500Y-72003000D01*
X183873500Y-72003000D01*
X183833656Y-72001043D01*
X183794196Y-71995189D01*
X183755499Y-71985496D01*
X183717939Y-71972057D01*
X183681877Y-71955001D01*
X183647661Y-71934492D01*
X183615619Y-71910729D01*
X183586061Y-71883939D01*
X183559271Y-71854381D01*
X183535508Y-71822339D01*
X183514999Y-71788123D01*
X183497943Y-71752061D01*
X183484504Y-71714501D01*
X183474811Y-71675804D01*
X183468957Y-71636344D01*
X183467000Y-71596500D01*
X183467000Y-70783500D01*
X183468957Y-70743656D01*
X183474811Y-70704196D01*
X183484504Y-70665499D01*
X183497943Y-70627939D01*
X183514999Y-70591877D01*
X183535508Y-70557661D01*
X183559271Y-70525619D01*
X183586061Y-70496061D01*
X183615619Y-70469271D01*
X183647661Y-70445508D01*
X183681877Y-70424999D01*
X183717939Y-70407943D01*
X183755499Y-70394504D01*
X183794196Y-70384811D01*
X183833656Y-70378957D01*
X183873500Y-70377000D01*
X184686500Y-70377000D01*
X184726344Y-70378957D01*
X184726344Y-70378957D01*
G37*
D11*
X184280000Y-71190000D03*
X184280000Y-73730000D03*
X184280000Y-76270000D03*
X184280000Y-78810000D03*
D12*
X108080000Y-97000000D03*
X108080000Y-53000000D03*
X184280000Y-53000000D03*
X184280000Y-97000000D03*
D10*
G36*
X184726344Y-58948957D02*
G01*
X184765804Y-58954811D01*
X184804501Y-58964504D01*
X184842061Y-58977943D01*
X184878123Y-58994999D01*
X184912339Y-59015508D01*
X184944381Y-59039271D01*
X184973939Y-59066061D01*
X185000729Y-59095619D01*
X185024492Y-59127661D01*
X185045001Y-59161877D01*
X185062057Y-59197939D01*
X185075496Y-59235499D01*
X185085189Y-59274196D01*
X185091043Y-59313656D01*
X185093000Y-59353500D01*
X185093000Y-60166500D01*
X185091043Y-60206344D01*
X185085189Y-60245804D01*
X185075496Y-60284501D01*
X185062057Y-60322061D01*
X185045001Y-60358123D01*
X185024492Y-60392339D01*
X185000729Y-60424381D01*
X184973939Y-60453939D01*
X184944381Y-60480729D01*
X184912339Y-60504492D01*
X184878123Y-60525001D01*
X184842061Y-60542057D01*
X184804501Y-60555496D01*
X184765804Y-60565189D01*
X184726344Y-60571043D01*
X184686500Y-60573000D01*
X183873500Y-60573000D01*
X183833656Y-60571043D01*
X183794196Y-60565189D01*
X183755499Y-60555496D01*
X183717939Y-60542057D01*
X183681877Y-60525001D01*
X183647661Y-60504492D01*
X183615619Y-60480729D01*
X183586061Y-60453939D01*
X183559271Y-60424381D01*
X183535508Y-60392339D01*
X183514999Y-60358123D01*
X183497943Y-60322061D01*
X183484504Y-60284501D01*
X183474811Y-60245804D01*
X183468957Y-60206344D01*
X183467000Y-60166500D01*
X183467000Y-59353500D01*
X183468957Y-59313656D01*
X183474811Y-59274196D01*
X183484504Y-59235499D01*
X183497943Y-59197939D01*
X183514999Y-59161877D01*
X183535508Y-59127661D01*
X183559271Y-59095619D01*
X183586061Y-59066061D01*
X183615619Y-59039271D01*
X183647661Y-59015508D01*
X183681877Y-58994999D01*
X183717939Y-58977943D01*
X183755499Y-58964504D01*
X183794196Y-58954811D01*
X183833656Y-58948957D01*
X183873500Y-58947000D01*
X184686500Y-58947000D01*
X184726344Y-58948957D01*
X184726344Y-58948957D01*
G37*
D11*
X184280000Y-59760000D03*
X184280000Y-62300000D03*
X184280000Y-64840000D03*
D13*
X114605000Y-97460000D03*
X115240000Y-55550000D03*
X107620000Y-59360000D03*
M02*
