%TF.GenerationSoftware,KiCad,Pcbnew,(5.1.6)-1*%
%TF.CreationDate,2021-04-28T12:41:24+02:00*%
%TF.ProjectId,combi_button,636f6d62-695f-4627-9574-746f6e2e6b69,rev?*%
%TF.SameCoordinates,Original*%
%TF.FileFunction,Soldermask,Top*%
%TF.FilePolarity,Negative*%
%FSLAX46Y46*%
G04 Gerber Fmt 4.6, Leading zero omitted, Abs format (unit mm)*
G04 Created by KiCad (PCBNEW (5.1.6)-1) date 2021-04-28 12:41:24*
%MOMM*%
%LPD*%
G01*
G04 APERTURE LIST*
%ADD10R,1.000000X1.300000*%
%ADD11O,1.700000X1.700000*%
%ADD12R,1.700000X1.700000*%
%ADD13O,1.800000X1.800000*%
%ADD14R,1.800000X1.800000*%
%ADD15R,2.600000X2.600000*%
%ADD16C,2.300000*%
%ADD17R,1.000000X0.900000*%
%ADD18C,1.900000*%
%ADD19R,1.900000X1.900000*%
%ADD20R,2.200000X2.200000*%
%ADD21R,3.600000X3.600000*%
%ADD22C,3.350000*%
%ADD23C,1.620000*%
%ADD24R,1.620000X1.620000*%
G04 APERTURE END LIST*
%TO.C,R20*%
G36*
G01*
X76232000Y-116539738D02*
X76232000Y-117496262D01*
G75*
G02*
X75960262Y-117768000I-271738J0D01*
G01*
X75253738Y-117768000D01*
G75*
G02*
X74982000Y-117496262I0J271738D01*
G01*
X74982000Y-116539738D01*
G75*
G02*
X75253738Y-116268000I271738J0D01*
G01*
X75960262Y-116268000D01*
G75*
G02*
X76232000Y-116539738I0J-271738D01*
G01*
G37*
G36*
G01*
X78282000Y-116539738D02*
X78282000Y-117496262D01*
G75*
G02*
X78010262Y-117768000I-271738J0D01*
G01*
X77303738Y-117768000D01*
G75*
G02*
X77032000Y-117496262I0J271738D01*
G01*
X77032000Y-116539738D01*
G75*
G02*
X77303738Y-116268000I271738J0D01*
G01*
X78010262Y-116268000D01*
G75*
G02*
X78282000Y-116539738I0J-271738D01*
G01*
G37*
%TD*%
D10*
%TO.C,D6*%
X74728000Y-119304000D03*
X78028000Y-119304000D03*
%TD*%
D11*
%TO.C,U6*%
X83744000Y-79172000D03*
X86284000Y-86792000D03*
X86284000Y-79172000D03*
D12*
X83744000Y-86792000D03*
%TD*%
%TO.C,R19*%
G36*
G01*
X77502000Y-89107738D02*
X77502000Y-90064262D01*
G75*
G02*
X77230262Y-90336000I-271738J0D01*
G01*
X76523738Y-90336000D01*
G75*
G02*
X76252000Y-90064262I0J271738D01*
G01*
X76252000Y-89107738D01*
G75*
G02*
X76523738Y-88836000I271738J0D01*
G01*
X77230262Y-88836000D01*
G75*
G02*
X77502000Y-89107738I0J-271738D01*
G01*
G37*
G36*
G01*
X79552000Y-89107738D02*
X79552000Y-90064262D01*
G75*
G02*
X79280262Y-90336000I-271738J0D01*
G01*
X78573738Y-90336000D01*
G75*
G02*
X78302000Y-90064262I0J271738D01*
G01*
X78302000Y-89107738D01*
G75*
G02*
X78573738Y-88836000I271738J0D01*
G01*
X79280262Y-88836000D01*
G75*
G02*
X79552000Y-89107738I0J-271738D01*
G01*
G37*
%TD*%
D13*
%TO.C,J14*%
X77140000Y-80950000D03*
D14*
X79680000Y-80950000D03*
%TD*%
D13*
%TO.C,J13*%
X122860000Y-119050000D03*
D14*
X120320000Y-119050000D03*
%TD*%
%TO.C,R18*%
G36*
G01*
X124530000Y-82190262D02*
X124530000Y-81233738D01*
G75*
G02*
X124801738Y-80962000I271738J0D01*
G01*
X125508262Y-80962000D01*
G75*
G02*
X125780000Y-81233738I0J-271738D01*
G01*
X125780000Y-82190262D01*
G75*
G02*
X125508262Y-82462000I-271738J0D01*
G01*
X124801738Y-82462000D01*
G75*
G02*
X124530000Y-82190262I0J271738D01*
G01*
G37*
G36*
G01*
X122480000Y-82190262D02*
X122480000Y-81233738D01*
G75*
G02*
X122751738Y-80962000I271738J0D01*
G01*
X123458262Y-80962000D01*
G75*
G02*
X123730000Y-81233738I0J-271738D01*
G01*
X123730000Y-82190262D01*
G75*
G02*
X123458262Y-82462000I-271738J0D01*
G01*
X122751738Y-82462000D01*
G75*
G02*
X122480000Y-82190262I0J271738D01*
G01*
G37*
%TD*%
D10*
%TO.C,D5*%
X125272000Y-79426000D03*
X121972000Y-79426000D03*
%TD*%
D14*
%TO.C,J6*%
X102540000Y-116510000D03*
D13*
X105080000Y-116510000D03*
X107620000Y-116510000D03*
X110160000Y-116510000D03*
%TD*%
D15*
%TO.C,REF\u002A\u002A*%
X72000000Y-81000000D03*
%TD*%
%TO.C,REF\u002A\u002A*%
X126000000Y-119000000D03*
%TD*%
D14*
%TO.C,J12*%
X79680000Y-83490000D03*
D13*
X79680000Y-86030000D03*
X77140000Y-83490000D03*
X77140000Y-86030000D03*
%TD*%
D14*
%TO.C,J11*%
X120320000Y-116510000D03*
D13*
X120320000Y-113970000D03*
X122860000Y-116510000D03*
X122860000Y-113970000D03*
%TD*%
%TO.C,R17*%
G36*
G01*
X83636000Y-113178262D02*
X83636000Y-112221738D01*
G75*
G02*
X83907738Y-111950000I271738J0D01*
G01*
X84614262Y-111950000D01*
G75*
G02*
X84886000Y-112221738I0J-271738D01*
G01*
X84886000Y-113178262D01*
G75*
G02*
X84614262Y-113450000I-271738J0D01*
G01*
X83907738Y-113450000D01*
G75*
G02*
X83636000Y-113178262I0J271738D01*
G01*
G37*
G36*
G01*
X81586000Y-113178262D02*
X81586000Y-112221738D01*
G75*
G02*
X81857738Y-111950000I271738J0D01*
G01*
X82564262Y-111950000D01*
G75*
G02*
X82836000Y-112221738I0J-271738D01*
G01*
X82836000Y-113178262D01*
G75*
G02*
X82564262Y-113450000I-271738J0D01*
G01*
X81857738Y-113450000D01*
G75*
G02*
X81586000Y-113178262I0J271738D01*
G01*
G37*
%TD*%
%TO.C,R16*%
G36*
G01*
X79046000Y-115464262D02*
X79046000Y-114507738D01*
G75*
G02*
X79317738Y-114236000I271738J0D01*
G01*
X80024262Y-114236000D01*
G75*
G02*
X80296000Y-114507738I0J-271738D01*
G01*
X80296000Y-115464262D01*
G75*
G02*
X80024262Y-115736000I-271738J0D01*
G01*
X79317738Y-115736000D01*
G75*
G02*
X79046000Y-115464262I0J271738D01*
G01*
G37*
G36*
G01*
X81096000Y-115464262D02*
X81096000Y-114507738D01*
G75*
G02*
X81367738Y-114236000I271738J0D01*
G01*
X82074262Y-114236000D01*
G75*
G02*
X82346000Y-114507738I0J-271738D01*
G01*
X82346000Y-115464262D01*
G75*
G02*
X82074262Y-115736000I-271738J0D01*
G01*
X81367738Y-115736000D01*
G75*
G02*
X81096000Y-115464262I0J271738D01*
G01*
G37*
%TD*%
%TO.C,R15*%
G36*
G01*
X81096000Y-117496262D02*
X81096000Y-116539738D01*
G75*
G02*
X81367738Y-116268000I271738J0D01*
G01*
X82074262Y-116268000D01*
G75*
G02*
X82346000Y-116539738I0J-271738D01*
G01*
X82346000Y-117496262D01*
G75*
G02*
X82074262Y-117768000I-271738J0D01*
G01*
X81367738Y-117768000D01*
G75*
G02*
X81096000Y-117496262I0J271738D01*
G01*
G37*
G36*
G01*
X79046000Y-117496262D02*
X79046000Y-116539738D01*
G75*
G02*
X79317738Y-116268000I271738J0D01*
G01*
X80024262Y-116268000D01*
G75*
G02*
X80296000Y-116539738I0J-271738D01*
G01*
X80296000Y-117496262D01*
G75*
G02*
X80024262Y-117768000I-271738J0D01*
G01*
X79317738Y-117768000D01*
G75*
G02*
X79046000Y-117496262I0J271738D01*
G01*
G37*
%TD*%
D16*
%TO.C,J10*%
X94500000Y-115500000D03*
G36*
G01*
X90075000Y-120150000D02*
X88925000Y-120150000D01*
G75*
G02*
X88350000Y-119575000I0J575000D01*
G01*
X88350000Y-118425000D01*
G75*
G02*
X88925000Y-117850000I575000J0D01*
G01*
X90075000Y-117850000D01*
G75*
G02*
X90650000Y-118425000I0J-575000D01*
G01*
X90650000Y-119575000D01*
G75*
G02*
X90075000Y-120150000I-575000J0D01*
G01*
G37*
%TD*%
%TO.C,J9*%
X105500000Y-84500000D03*
G36*
G01*
X109925000Y-79850000D02*
X111075000Y-79850000D01*
G75*
G02*
X111650000Y-80425000I0J-575000D01*
G01*
X111650000Y-81575000D01*
G75*
G02*
X111075000Y-82150000I-575000J0D01*
G01*
X109925000Y-82150000D01*
G75*
G02*
X109350000Y-81575000I0J575000D01*
G01*
X109350000Y-80425000D01*
G75*
G02*
X109925000Y-79850000I575000J0D01*
G01*
G37*
%TD*%
D11*
%TO.C,U5*%
X116000000Y-120620000D03*
X113460000Y-113000000D03*
X113460000Y-120620000D03*
D12*
X116000000Y-113000000D03*
%TD*%
%TO.C,R14*%
G36*
G01*
X120702000Y-111146262D02*
X120702000Y-110189738D01*
G75*
G02*
X120973738Y-109918000I271738J0D01*
G01*
X121680262Y-109918000D01*
G75*
G02*
X121952000Y-110189738I0J-271738D01*
G01*
X121952000Y-111146262D01*
G75*
G02*
X121680262Y-111418000I-271738J0D01*
G01*
X120973738Y-111418000D01*
G75*
G02*
X120702000Y-111146262I0J271738D01*
G01*
G37*
G36*
G01*
X122752000Y-111146262D02*
X122752000Y-110189738D01*
G75*
G02*
X123023738Y-109918000I271738J0D01*
G01*
X123730262Y-109918000D01*
G75*
G02*
X124002000Y-110189738I0J-271738D01*
G01*
X124002000Y-111146262D01*
G75*
G02*
X123730262Y-111418000I-271738J0D01*
G01*
X123023738Y-111418000D01*
G75*
G02*
X122752000Y-111146262I0J271738D01*
G01*
G37*
%TD*%
%TO.C,R13*%
G36*
G01*
X118171000Y-86508262D02*
X118171000Y-85551738D01*
G75*
G02*
X118442738Y-85280000I271738J0D01*
G01*
X119149262Y-85280000D01*
G75*
G02*
X119421000Y-85551738I0J-271738D01*
G01*
X119421000Y-86508262D01*
G75*
G02*
X119149262Y-86780000I-271738J0D01*
G01*
X118442738Y-86780000D01*
G75*
G02*
X118171000Y-86508262I0J271738D01*
G01*
G37*
G36*
G01*
X116121000Y-86508262D02*
X116121000Y-85551738D01*
G75*
G02*
X116392738Y-85280000I271738J0D01*
G01*
X117099262Y-85280000D01*
G75*
G02*
X117371000Y-85551738I0J-271738D01*
G01*
X117371000Y-86508262D01*
G75*
G02*
X117099262Y-86780000I-271738J0D01*
G01*
X116392738Y-86780000D01*
G75*
G02*
X116121000Y-86508262I0J271738D01*
G01*
G37*
%TD*%
%TO.C,R12*%
G36*
G01*
X117371000Y-83519738D02*
X117371000Y-84476262D01*
G75*
G02*
X117099262Y-84748000I-271738J0D01*
G01*
X116392738Y-84748000D01*
G75*
G02*
X116121000Y-84476262I0J271738D01*
G01*
X116121000Y-83519738D01*
G75*
G02*
X116392738Y-83248000I271738J0D01*
G01*
X117099262Y-83248000D01*
G75*
G02*
X117371000Y-83519738I0J-271738D01*
G01*
G37*
G36*
G01*
X119421000Y-83519738D02*
X119421000Y-84476262D01*
G75*
G02*
X119149262Y-84748000I-271738J0D01*
G01*
X118442738Y-84748000D01*
G75*
G02*
X118171000Y-84476262I0J271738D01*
G01*
X118171000Y-83519738D01*
G75*
G02*
X118442738Y-83248000I271738J0D01*
G01*
X119149262Y-83248000D01*
G75*
G02*
X119421000Y-83519738I0J-271738D01*
G01*
G37*
%TD*%
%TO.C,R11*%
G36*
G01*
X118189000Y-82444262D02*
X118189000Y-81487738D01*
G75*
G02*
X118460738Y-81216000I271738J0D01*
G01*
X119167262Y-81216000D01*
G75*
G02*
X119439000Y-81487738I0J-271738D01*
G01*
X119439000Y-82444262D01*
G75*
G02*
X119167262Y-82716000I-271738J0D01*
G01*
X118460738Y-82716000D01*
G75*
G02*
X118189000Y-82444262I0J271738D01*
G01*
G37*
G36*
G01*
X116139000Y-82444262D02*
X116139000Y-81487738D01*
G75*
G02*
X116410738Y-81216000I271738J0D01*
G01*
X117117262Y-81216000D01*
G75*
G02*
X117389000Y-81487738I0J-271738D01*
G01*
X117389000Y-82444262D01*
G75*
G02*
X117117262Y-82716000I-271738J0D01*
G01*
X116410738Y-82716000D01*
G75*
G02*
X116139000Y-82444262I0J271738D01*
G01*
G37*
%TD*%
%TO.C,R10*%
G36*
G01*
X81096000Y-119528262D02*
X81096000Y-118571738D01*
G75*
G02*
X81367738Y-118300000I271738J0D01*
G01*
X82074262Y-118300000D01*
G75*
G02*
X82346000Y-118571738I0J-271738D01*
G01*
X82346000Y-119528262D01*
G75*
G02*
X82074262Y-119800000I-271738J0D01*
G01*
X81367738Y-119800000D01*
G75*
G02*
X81096000Y-119528262I0J271738D01*
G01*
G37*
G36*
G01*
X79046000Y-119528262D02*
X79046000Y-118571738D01*
G75*
G02*
X79317738Y-118300000I271738J0D01*
G01*
X80024262Y-118300000D01*
G75*
G02*
X80296000Y-118571738I0J-271738D01*
G01*
X80296000Y-119528262D01*
G75*
G02*
X80024262Y-119800000I-271738J0D01*
G01*
X79317738Y-119800000D01*
G75*
G02*
X79046000Y-119528262I0J271738D01*
G01*
G37*
%TD*%
%TO.C,R9*%
G36*
G01*
X117371000Y-78947738D02*
X117371000Y-79904262D01*
G75*
G02*
X117099262Y-80176000I-271738J0D01*
G01*
X116392738Y-80176000D01*
G75*
G02*
X116121000Y-79904262I0J271738D01*
G01*
X116121000Y-78947738D01*
G75*
G02*
X116392738Y-78676000I271738J0D01*
G01*
X117099262Y-78676000D01*
G75*
G02*
X117371000Y-78947738I0J-271738D01*
G01*
G37*
G36*
G01*
X119421000Y-78947738D02*
X119421000Y-79904262D01*
G75*
G02*
X119149262Y-80176000I-271738J0D01*
G01*
X118442738Y-80176000D01*
G75*
G02*
X118171000Y-79904262I0J271738D01*
G01*
X118171000Y-78947738D01*
G75*
G02*
X118442738Y-78676000I271738J0D01*
G01*
X119149262Y-78676000D01*
G75*
G02*
X119421000Y-78947738I0J-271738D01*
G01*
G37*
%TD*%
%TO.C,R8*%
G36*
G01*
X77502000Y-101807738D02*
X77502000Y-102764262D01*
G75*
G02*
X77230262Y-103036000I-271738J0D01*
G01*
X76523738Y-103036000D01*
G75*
G02*
X76252000Y-102764262I0J271738D01*
G01*
X76252000Y-101807738D01*
G75*
G02*
X76523738Y-101536000I271738J0D01*
G01*
X77230262Y-101536000D01*
G75*
G02*
X77502000Y-101807738I0J-271738D01*
G01*
G37*
G36*
G01*
X79552000Y-101807738D02*
X79552000Y-102764262D01*
G75*
G02*
X79280262Y-103036000I-271738J0D01*
G01*
X78573738Y-103036000D01*
G75*
G02*
X78302000Y-102764262I0J271738D01*
G01*
X78302000Y-101807738D01*
G75*
G02*
X78573738Y-101536000I271738J0D01*
G01*
X79280262Y-101536000D01*
G75*
G02*
X79552000Y-101807738I0J-271738D01*
G01*
G37*
%TD*%
%TO.C,R7*%
G36*
G01*
X122244000Y-98192262D02*
X122244000Y-97235738D01*
G75*
G02*
X122515738Y-96964000I271738J0D01*
G01*
X123222262Y-96964000D01*
G75*
G02*
X123494000Y-97235738I0J-271738D01*
G01*
X123494000Y-98192262D01*
G75*
G02*
X123222262Y-98464000I-271738J0D01*
G01*
X122515738Y-98464000D01*
G75*
G02*
X122244000Y-98192262I0J271738D01*
G01*
G37*
G36*
G01*
X120194000Y-98192262D02*
X120194000Y-97235738D01*
G75*
G02*
X120465738Y-96964000I271738J0D01*
G01*
X121172262Y-96964000D01*
G75*
G02*
X121444000Y-97235738I0J-271738D01*
G01*
X121444000Y-98192262D01*
G75*
G02*
X121172262Y-98464000I-271738J0D01*
G01*
X120465738Y-98464000D01*
G75*
G02*
X120194000Y-98192262I0J271738D01*
G01*
G37*
%TD*%
D17*
%TO.C,Q2*%
X71314000Y-118542000D03*
X73314000Y-117592000D03*
X73314000Y-119492000D03*
%TD*%
%TO.C,Q1*%
X128940000Y-80188000D03*
X126940000Y-81138000D03*
X126940000Y-79238000D03*
%TD*%
D11*
%TO.C,U4*%
X76378000Y-92380000D03*
X78918000Y-100000000D03*
X78918000Y-92380000D03*
D12*
X76378000Y-100000000D03*
%TD*%
D11*
%TO.C,U3*%
X123622000Y-107620000D03*
X121082000Y-100000000D03*
X121082000Y-107620000D03*
D12*
X123622000Y-100000000D03*
%TD*%
%TO.C,U2*%
G36*
G01*
X76680000Y-107948000D02*
X76330000Y-107948000D01*
G75*
G02*
X76155000Y-107773000I0J175000D01*
G01*
X76155000Y-106073000D01*
G75*
G02*
X76330000Y-105898000I175000J0D01*
G01*
X76680000Y-105898000D01*
G75*
G02*
X76855000Y-106073000I0J-175000D01*
G01*
X76855000Y-107773000D01*
G75*
G02*
X76680000Y-107948000I-175000J0D01*
G01*
G37*
G36*
G01*
X77950000Y-107948000D02*
X77600000Y-107948000D01*
G75*
G02*
X77425000Y-107773000I0J175000D01*
G01*
X77425000Y-106073000D01*
G75*
G02*
X77600000Y-105898000I175000J0D01*
G01*
X77950000Y-105898000D01*
G75*
G02*
X78125000Y-106073000I0J-175000D01*
G01*
X78125000Y-107773000D01*
G75*
G02*
X77950000Y-107948000I-175000J0D01*
G01*
G37*
G36*
G01*
X79220000Y-107948000D02*
X78870000Y-107948000D01*
G75*
G02*
X78695000Y-107773000I0J175000D01*
G01*
X78695000Y-106073000D01*
G75*
G02*
X78870000Y-105898000I175000J0D01*
G01*
X79220000Y-105898000D01*
G75*
G02*
X79395000Y-106073000I0J-175000D01*
G01*
X79395000Y-107773000D01*
G75*
G02*
X79220000Y-107948000I-175000J0D01*
G01*
G37*
G36*
G01*
X80490000Y-107948000D02*
X80140000Y-107948000D01*
G75*
G02*
X79965000Y-107773000I0J175000D01*
G01*
X79965000Y-106073000D01*
G75*
G02*
X80140000Y-105898000I175000J0D01*
G01*
X80490000Y-105898000D01*
G75*
G02*
X80665000Y-106073000I0J-175000D01*
G01*
X80665000Y-107773000D01*
G75*
G02*
X80490000Y-107948000I-175000J0D01*
G01*
G37*
G36*
G01*
X80490000Y-112898000D02*
X80140000Y-112898000D01*
G75*
G02*
X79965000Y-112723000I0J175000D01*
G01*
X79965000Y-111023000D01*
G75*
G02*
X80140000Y-110848000I175000J0D01*
G01*
X80490000Y-110848000D01*
G75*
G02*
X80665000Y-111023000I0J-175000D01*
G01*
X80665000Y-112723000D01*
G75*
G02*
X80490000Y-112898000I-175000J0D01*
G01*
G37*
G36*
G01*
X79220000Y-112898000D02*
X78870000Y-112898000D01*
G75*
G02*
X78695000Y-112723000I0J175000D01*
G01*
X78695000Y-111023000D01*
G75*
G02*
X78870000Y-110848000I175000J0D01*
G01*
X79220000Y-110848000D01*
G75*
G02*
X79395000Y-111023000I0J-175000D01*
G01*
X79395000Y-112723000D01*
G75*
G02*
X79220000Y-112898000I-175000J0D01*
G01*
G37*
G36*
G01*
X77950000Y-112898000D02*
X77600000Y-112898000D01*
G75*
G02*
X77425000Y-112723000I0J175000D01*
G01*
X77425000Y-111023000D01*
G75*
G02*
X77600000Y-110848000I175000J0D01*
G01*
X77950000Y-110848000D01*
G75*
G02*
X78125000Y-111023000I0J-175000D01*
G01*
X78125000Y-112723000D01*
G75*
G02*
X77950000Y-112898000I-175000J0D01*
G01*
G37*
G36*
G01*
X76680000Y-112898000D02*
X76330000Y-112898000D01*
G75*
G02*
X76155000Y-112723000I0J175000D01*
G01*
X76155000Y-111023000D01*
G75*
G02*
X76330000Y-110848000I175000J0D01*
G01*
X76680000Y-110848000D01*
G75*
G02*
X76855000Y-111023000I0J-175000D01*
G01*
X76855000Y-112723000D01*
G75*
G02*
X76680000Y-112898000I-175000J0D01*
G01*
G37*
%TD*%
%TO.C,C2*%
G36*
G01*
X77286000Y-104796262D02*
X77286000Y-103839738D01*
G75*
G02*
X77557738Y-103568000I271738J0D01*
G01*
X78264262Y-103568000D01*
G75*
G02*
X78536000Y-103839738I0J-271738D01*
G01*
X78536000Y-104796262D01*
G75*
G02*
X78264262Y-105068000I-271738J0D01*
G01*
X77557738Y-105068000D01*
G75*
G02*
X77286000Y-104796262I0J271738D01*
G01*
G37*
G36*
G01*
X75236000Y-104796262D02*
X75236000Y-103839738D01*
G75*
G02*
X75507738Y-103568000I271738J0D01*
G01*
X76214262Y-103568000D01*
G75*
G02*
X76486000Y-103839738I0J-271738D01*
G01*
X76486000Y-104796262D01*
G75*
G02*
X76214262Y-105068000I-271738J0D01*
G01*
X75507738Y-105068000D01*
G75*
G02*
X75236000Y-104796262I0J271738D01*
G01*
G37*
%TD*%
%TO.C,U1*%
G36*
G01*
X123574000Y-92306000D02*
X123924000Y-92306000D01*
G75*
G02*
X124099000Y-92481000I0J-175000D01*
G01*
X124099000Y-94181000D01*
G75*
G02*
X123924000Y-94356000I-175000J0D01*
G01*
X123574000Y-94356000D01*
G75*
G02*
X123399000Y-94181000I0J175000D01*
G01*
X123399000Y-92481000D01*
G75*
G02*
X123574000Y-92306000I175000J0D01*
G01*
G37*
G36*
G01*
X122304000Y-92306000D02*
X122654000Y-92306000D01*
G75*
G02*
X122829000Y-92481000I0J-175000D01*
G01*
X122829000Y-94181000D01*
G75*
G02*
X122654000Y-94356000I-175000J0D01*
G01*
X122304000Y-94356000D01*
G75*
G02*
X122129000Y-94181000I0J175000D01*
G01*
X122129000Y-92481000D01*
G75*
G02*
X122304000Y-92306000I175000J0D01*
G01*
G37*
G36*
G01*
X121034000Y-92306000D02*
X121384000Y-92306000D01*
G75*
G02*
X121559000Y-92481000I0J-175000D01*
G01*
X121559000Y-94181000D01*
G75*
G02*
X121384000Y-94356000I-175000J0D01*
G01*
X121034000Y-94356000D01*
G75*
G02*
X120859000Y-94181000I0J175000D01*
G01*
X120859000Y-92481000D01*
G75*
G02*
X121034000Y-92306000I175000J0D01*
G01*
G37*
G36*
G01*
X119764000Y-92306000D02*
X120114000Y-92306000D01*
G75*
G02*
X120289000Y-92481000I0J-175000D01*
G01*
X120289000Y-94181000D01*
G75*
G02*
X120114000Y-94356000I-175000J0D01*
G01*
X119764000Y-94356000D01*
G75*
G02*
X119589000Y-94181000I0J175000D01*
G01*
X119589000Y-92481000D01*
G75*
G02*
X119764000Y-92306000I175000J0D01*
G01*
G37*
G36*
G01*
X119764000Y-87356000D02*
X120114000Y-87356000D01*
G75*
G02*
X120289000Y-87531000I0J-175000D01*
G01*
X120289000Y-89231000D01*
G75*
G02*
X120114000Y-89406000I-175000J0D01*
G01*
X119764000Y-89406000D01*
G75*
G02*
X119589000Y-89231000I0J175000D01*
G01*
X119589000Y-87531000D01*
G75*
G02*
X119764000Y-87356000I175000J0D01*
G01*
G37*
G36*
G01*
X121034000Y-87356000D02*
X121384000Y-87356000D01*
G75*
G02*
X121559000Y-87531000I0J-175000D01*
G01*
X121559000Y-89231000D01*
G75*
G02*
X121384000Y-89406000I-175000J0D01*
G01*
X121034000Y-89406000D01*
G75*
G02*
X120859000Y-89231000I0J175000D01*
G01*
X120859000Y-87531000D01*
G75*
G02*
X121034000Y-87356000I175000J0D01*
G01*
G37*
G36*
G01*
X122304000Y-87356000D02*
X122654000Y-87356000D01*
G75*
G02*
X122829000Y-87531000I0J-175000D01*
G01*
X122829000Y-89231000D01*
G75*
G02*
X122654000Y-89406000I-175000J0D01*
G01*
X122304000Y-89406000D01*
G75*
G02*
X122129000Y-89231000I0J175000D01*
G01*
X122129000Y-87531000D01*
G75*
G02*
X122304000Y-87356000I175000J0D01*
G01*
G37*
G36*
G01*
X123574000Y-87356000D02*
X123924000Y-87356000D01*
G75*
G02*
X124099000Y-87531000I0J-175000D01*
G01*
X124099000Y-89231000D01*
G75*
G02*
X123924000Y-89406000I-175000J0D01*
G01*
X123574000Y-89406000D01*
G75*
G02*
X123399000Y-89231000I0J175000D01*
G01*
X123399000Y-87531000D01*
G75*
G02*
X123574000Y-87356000I175000J0D01*
G01*
G37*
%TD*%
%TO.C,C1*%
G36*
G01*
X122968000Y-95203738D02*
X122968000Y-96160262D01*
G75*
G02*
X122696262Y-96432000I-271738J0D01*
G01*
X121989738Y-96432000D01*
G75*
G02*
X121718000Y-96160262I0J271738D01*
G01*
X121718000Y-95203738D01*
G75*
G02*
X121989738Y-94932000I271738J0D01*
G01*
X122696262Y-94932000D01*
G75*
G02*
X122968000Y-95203738I0J-271738D01*
G01*
G37*
G36*
G01*
X125018000Y-95203738D02*
X125018000Y-96160262D01*
G75*
G02*
X124746262Y-96432000I-271738J0D01*
G01*
X124039738Y-96432000D01*
G75*
G02*
X123768000Y-96160262I0J271738D01*
G01*
X123768000Y-95203738D01*
G75*
G02*
X124039738Y-94932000I271738J0D01*
G01*
X124746262Y-94932000D01*
G75*
G02*
X125018000Y-95203738I0J-271738D01*
G01*
G37*
%TD*%
%TO.C,R6*%
G36*
G01*
X86635262Y-114586000D02*
X85678738Y-114586000D01*
G75*
G02*
X85407000Y-114314262I0J271738D01*
G01*
X85407000Y-113607738D01*
G75*
G02*
X85678738Y-113336000I271738J0D01*
G01*
X86635262Y-113336000D01*
G75*
G02*
X86907000Y-113607738I0J-271738D01*
G01*
X86907000Y-114314262D01*
G75*
G02*
X86635262Y-114586000I-271738J0D01*
G01*
G37*
G36*
G01*
X86635262Y-116636000D02*
X85678738Y-116636000D01*
G75*
G02*
X85407000Y-116364262I0J271738D01*
G01*
X85407000Y-115657738D01*
G75*
G02*
X85678738Y-115386000I271738J0D01*
G01*
X86635262Y-115386000D01*
G75*
G02*
X86907000Y-115657738I0J-271738D01*
G01*
X86907000Y-116364262D01*
G75*
G02*
X86635262Y-116636000I-271738J0D01*
G01*
G37*
%TD*%
%TO.C,R5*%
G36*
G01*
X86635262Y-118396000D02*
X85678738Y-118396000D01*
G75*
G02*
X85407000Y-118124262I0J271738D01*
G01*
X85407000Y-117417738D01*
G75*
G02*
X85678738Y-117146000I271738J0D01*
G01*
X86635262Y-117146000D01*
G75*
G02*
X86907000Y-117417738I0J-271738D01*
G01*
X86907000Y-118124262D01*
G75*
G02*
X86635262Y-118396000I-271738J0D01*
G01*
G37*
G36*
G01*
X86635262Y-120446000D02*
X85678738Y-120446000D01*
G75*
G02*
X85407000Y-120174262I0J271738D01*
G01*
X85407000Y-119467738D01*
G75*
G02*
X85678738Y-119196000I271738J0D01*
G01*
X86635262Y-119196000D01*
G75*
G02*
X86907000Y-119467738I0J-271738D01*
G01*
X86907000Y-120174262D01*
G75*
G02*
X86635262Y-120446000I-271738J0D01*
G01*
G37*
%TD*%
%TO.C,R4*%
G36*
G01*
X121444000Y-85551738D02*
X121444000Y-86508262D01*
G75*
G02*
X121172262Y-86780000I-271738J0D01*
G01*
X120465738Y-86780000D01*
G75*
G02*
X120194000Y-86508262I0J271738D01*
G01*
X120194000Y-85551738D01*
G75*
G02*
X120465738Y-85280000I271738J0D01*
G01*
X121172262Y-85280000D01*
G75*
G02*
X121444000Y-85551738I0J-271738D01*
G01*
G37*
G36*
G01*
X123494000Y-85551738D02*
X123494000Y-86508262D01*
G75*
G02*
X123222262Y-86780000I-271738J0D01*
G01*
X122515738Y-86780000D01*
G75*
G02*
X122244000Y-86508262I0J271738D01*
G01*
X122244000Y-85551738D01*
G75*
G02*
X122515738Y-85280000I271738J0D01*
G01*
X123222262Y-85280000D01*
G75*
G02*
X123494000Y-85551738I0J-271738D01*
G01*
G37*
%TD*%
%TO.C,R3*%
G36*
G01*
X122235000Y-84476262D02*
X122235000Y-83519738D01*
G75*
G02*
X122506738Y-83248000I271738J0D01*
G01*
X123213262Y-83248000D01*
G75*
G02*
X123485000Y-83519738I0J-271738D01*
G01*
X123485000Y-84476262D01*
G75*
G02*
X123213262Y-84748000I-271738J0D01*
G01*
X122506738Y-84748000D01*
G75*
G02*
X122235000Y-84476262I0J271738D01*
G01*
G37*
G36*
G01*
X120185000Y-84476262D02*
X120185000Y-83519738D01*
G75*
G02*
X120456738Y-83248000I271738J0D01*
G01*
X121163262Y-83248000D01*
G75*
G02*
X121435000Y-83519738I0J-271738D01*
G01*
X121435000Y-84476262D01*
G75*
G02*
X121163262Y-84748000I-271738J0D01*
G01*
X120456738Y-84748000D01*
G75*
G02*
X120185000Y-84476262I0J271738D01*
G01*
G37*
%TD*%
%TO.C,R2*%
G36*
G01*
X131200000Y-79721738D02*
X131200000Y-80678262D01*
G75*
G02*
X130928262Y-80950000I-271738J0D01*
G01*
X130221738Y-80950000D01*
G75*
G02*
X129950000Y-80678262I0J271738D01*
G01*
X129950000Y-79721738D01*
G75*
G02*
X130221738Y-79450000I271738J0D01*
G01*
X130928262Y-79450000D01*
G75*
G02*
X131200000Y-79721738I0J-271738D01*
G01*
G37*
G36*
G01*
X133250000Y-79721738D02*
X133250000Y-80678262D01*
G75*
G02*
X132978262Y-80950000I-271738J0D01*
G01*
X132271738Y-80950000D01*
G75*
G02*
X132000000Y-80678262I0J271738D01*
G01*
X132000000Y-79721738D01*
G75*
G02*
X132271738Y-79450000I271738J0D01*
G01*
X132978262Y-79450000D01*
G75*
G02*
X133250000Y-79721738I0J-271738D01*
G01*
G37*
%TD*%
%TO.C,R1*%
G36*
G01*
X69000000Y-120278262D02*
X69000000Y-119321738D01*
G75*
G02*
X69271738Y-119050000I271738J0D01*
G01*
X69978262Y-119050000D01*
G75*
G02*
X70250000Y-119321738I0J-271738D01*
G01*
X70250000Y-120278262D01*
G75*
G02*
X69978262Y-120550000I-271738J0D01*
G01*
X69271738Y-120550000D01*
G75*
G02*
X69000000Y-120278262I0J271738D01*
G01*
G37*
G36*
G01*
X66950000Y-120278262D02*
X66950000Y-119321738D01*
G75*
G02*
X67221738Y-119050000I271738J0D01*
G01*
X67928262Y-119050000D01*
G75*
G02*
X68200000Y-119321738I0J-271738D01*
G01*
X68200000Y-120278262D01*
G75*
G02*
X67928262Y-120550000I-271738J0D01*
G01*
X67221738Y-120550000D01*
G75*
G02*
X66950000Y-120278262I0J271738D01*
G01*
G37*
%TD*%
D18*
%TO.C,D2*%
X134800000Y-80060000D03*
D19*
X134800000Y-82600000D03*
%TD*%
D18*
%TO.C,D1*%
X65200000Y-119540000D03*
D19*
X65200000Y-117000000D03*
%TD*%
%TO.C,J8*%
G36*
G01*
X63800000Y-85050000D02*
X63800000Y-83950000D01*
G75*
G02*
X64350000Y-83400000I550000J0D01*
G01*
X65450000Y-83400000D01*
G75*
G02*
X66000000Y-83950000I0J-550000D01*
G01*
X66000000Y-85050000D01*
G75*
G02*
X65450000Y-85600000I-550000J0D01*
G01*
X64350000Y-85600000D01*
G75*
G02*
X63800000Y-85050000I0J550000D01*
G01*
G37*
G36*
G01*
X61300000Y-82350000D02*
X61300000Y-81250000D01*
G75*
G02*
X61850000Y-80700000I550000J0D01*
G01*
X62950000Y-80700000D01*
G75*
G02*
X63500000Y-81250000I0J-550000D01*
G01*
X63500000Y-82350000D01*
G75*
G02*
X62950000Y-82900000I-550000J0D01*
G01*
X61850000Y-82900000D01*
G75*
G02*
X61300000Y-82350000I0J550000D01*
G01*
G37*
D20*
X67400000Y-81800000D03*
%TD*%
D14*
%TO.C,J7*%
X97460000Y-83490000D03*
D13*
X94920000Y-83490000D03*
X92380000Y-83490000D03*
X89840000Y-83490000D03*
%TD*%
%TO.C,J5*%
G36*
G01*
X134800000Y-113000000D02*
X134800000Y-114800000D01*
G75*
G02*
X133900000Y-115700000I-900000J0D01*
G01*
X132100000Y-115700000D01*
G75*
G02*
X131200000Y-114800000I0J900000D01*
G01*
X131200000Y-113000000D01*
G75*
G02*
X132100000Y-112100000I900000J0D01*
G01*
X133900000Y-112100000D01*
G75*
G02*
X134800000Y-113000000I0J-900000D01*
G01*
G37*
G36*
G01*
X137550000Y-117575000D02*
X137550000Y-119625000D01*
G75*
G02*
X136775000Y-120400000I-775000J0D01*
G01*
X135225000Y-120400000D01*
G75*
G02*
X134450000Y-119625000I0J775000D01*
G01*
X134450000Y-117575000D01*
G75*
G02*
X135225000Y-116800000I775000J0D01*
G01*
X136775000Y-116800000D01*
G75*
G02*
X137550000Y-117575000I0J-775000D01*
G01*
G37*
D21*
X130000000Y-118600000D03*
%TD*%
D22*
%TO.C,J4*%
X64110000Y-113585000D03*
D23*
X70460000Y-111685000D03*
X73000000Y-110415000D03*
X70460000Y-109145000D03*
X73000000Y-107875000D03*
X70460000Y-106605000D03*
D22*
X64110000Y-103425000D03*
D24*
X73000000Y-105335000D03*
%TD*%
D22*
%TO.C,J3*%
X64110000Y-100250000D03*
D23*
X70460000Y-98350000D03*
X73000000Y-97080000D03*
X70460000Y-95810000D03*
X73000000Y-94540000D03*
X70460000Y-93270000D03*
D22*
X64110000Y-90090000D03*
D24*
X73000000Y-92000000D03*
%TD*%
D22*
%TO.C,J2*%
X135890000Y-86415000D03*
D23*
X129540000Y-88315000D03*
X127000000Y-89585000D03*
X129540000Y-90855000D03*
X127000000Y-92125000D03*
X129540000Y-93395000D03*
D22*
X135890000Y-96575000D03*
D24*
X127000000Y-94665000D03*
%TD*%
D22*
%TO.C,J1*%
X135890000Y-99750000D03*
D23*
X129540000Y-101650000D03*
X127000000Y-102920000D03*
X129540000Y-104190000D03*
X127000000Y-105460000D03*
X129540000Y-106730000D03*
D22*
X135890000Y-109910000D03*
D24*
X127000000Y-108000000D03*
%TD*%
M02*
