%TF.GenerationSoftware,KiCad,Pcbnew,(5.1.6)-1*%
%TF.CreationDate,2021-04-28T12:41:24+02:00*%
%TF.ProjectId,combi_button,636f6d62-695f-4627-9574-746f6e2e6b69,rev?*%
%TF.SameCoordinates,Original*%
%TF.FileFunction,Soldermask,Bot*%
%TF.FilePolarity,Negative*%
%FSLAX46Y46*%
G04 Gerber Fmt 4.6, Leading zero omitted, Abs format (unit mm)*
G04 Created by KiCad (PCBNEW (5.1.6)-1) date 2021-04-28 12:41:24*
%MOMM*%
%LPD*%
G01*
G04 APERTURE LIST*
%ADD10O,1.700000X1.700000*%
%ADD11R,1.700000X1.700000*%
%ADD12O,1.800000X1.800000*%
%ADD13R,1.800000X1.800000*%
%ADD14C,2.300000*%
%ADD15C,0.100000*%
%ADD16C,1.900000*%
%ADD17R,1.900000X1.900000*%
%ADD18R,2.200000X2.200000*%
%ADD19R,3.600000X3.600000*%
%ADD20C,3.350000*%
%ADD21C,1.620000*%
%ADD22R,1.620000X1.620000*%
G04 APERTURE END LIST*
D10*
%TO.C,U6*%
X83744000Y-79172000D03*
X86284000Y-86792000D03*
X86284000Y-79172000D03*
D11*
X83744000Y-86792000D03*
%TD*%
D12*
%TO.C,J14*%
X77140000Y-80950000D03*
D13*
X79680000Y-80950000D03*
%TD*%
D12*
%TO.C,J13*%
X122860000Y-119050000D03*
D13*
X120320000Y-119050000D03*
%TD*%
%TO.C,J6*%
X102540000Y-116510000D03*
D12*
X105080000Y-116510000D03*
X107620000Y-116510000D03*
X110160000Y-116510000D03*
%TD*%
D13*
%TO.C,J12*%
X79680000Y-83490000D03*
D12*
X79680000Y-86030000D03*
X77140000Y-83490000D03*
X77140000Y-86030000D03*
%TD*%
D13*
%TO.C,J11*%
X120320000Y-116510000D03*
D12*
X120320000Y-113970000D03*
X122860000Y-116510000D03*
X122860000Y-113970000D03*
%TD*%
D14*
%TO.C,J10*%
X94500000Y-115500000D03*
G36*
G01*
X90075000Y-120150000D02*
X88925000Y-120150000D01*
G75*
G02*
X88350000Y-119575000I0J575000D01*
G01*
X88350000Y-118425000D01*
G75*
G02*
X88925000Y-117850000I575000J0D01*
G01*
X90075000Y-117850000D01*
G75*
G02*
X90650000Y-118425000I0J-575000D01*
G01*
X90650000Y-119575000D01*
G75*
G02*
X90075000Y-120150000I-575000J0D01*
G01*
G37*
%TD*%
%TO.C,J9*%
X105500000Y-84500000D03*
G36*
G01*
X109925000Y-79850000D02*
X111075000Y-79850000D01*
G75*
G02*
X111650000Y-80425000I0J-575000D01*
G01*
X111650000Y-81575000D01*
G75*
G02*
X111075000Y-82150000I-575000J0D01*
G01*
X109925000Y-82150000D01*
G75*
G02*
X109350000Y-81575000I0J575000D01*
G01*
X109350000Y-80425000D01*
G75*
G02*
X109925000Y-79850000I575000J0D01*
G01*
G37*
%TD*%
D10*
%TO.C,U5*%
X116000000Y-120620000D03*
X113460000Y-113000000D03*
X113460000Y-120620000D03*
D11*
X116000000Y-113000000D03*
%TD*%
D15*
%TO.C,D3*%
G36*
X120290977Y-81250000D02*
G01*
X122709023Y-81250000D01*
X122092357Y-84950000D01*
X120907643Y-84950000D01*
X120290977Y-81250000D01*
G37*
G36*
X122709023Y-90750000D02*
G01*
X120290977Y-90750000D01*
X120907643Y-87050000D01*
X122092357Y-87050000D01*
X122709023Y-90750000D01*
G37*
%TD*%
%TO.C,D4*%
G36*
X78857023Y-119990000D02*
G01*
X76438977Y-119990000D01*
X77055643Y-116290000D01*
X78240357Y-116290000D01*
X78857023Y-119990000D01*
G37*
G36*
X76438977Y-110490000D02*
G01*
X78857023Y-110490000D01*
X78240357Y-114190000D01*
X77055643Y-114190000D01*
X76438977Y-110490000D01*
G37*
%TD*%
D10*
%TO.C,U4*%
X76378000Y-92380000D03*
X78918000Y-100000000D03*
X78918000Y-92380000D03*
D11*
X76378000Y-100000000D03*
%TD*%
D10*
%TO.C,U3*%
X123622000Y-107620000D03*
X121082000Y-100000000D03*
X121082000Y-107620000D03*
D11*
X123622000Y-100000000D03*
%TD*%
D16*
%TO.C,D2*%
X134800000Y-80060000D03*
D17*
X134800000Y-82600000D03*
%TD*%
D16*
%TO.C,D1*%
X65200000Y-119540000D03*
D17*
X65200000Y-117000000D03*
%TD*%
%TO.C,J8*%
G36*
G01*
X63800000Y-85050000D02*
X63800000Y-83950000D01*
G75*
G02*
X64350000Y-83400000I550000J0D01*
G01*
X65450000Y-83400000D01*
G75*
G02*
X66000000Y-83950000I0J-550000D01*
G01*
X66000000Y-85050000D01*
G75*
G02*
X65450000Y-85600000I-550000J0D01*
G01*
X64350000Y-85600000D01*
G75*
G02*
X63800000Y-85050000I0J550000D01*
G01*
G37*
G36*
G01*
X61300000Y-82350000D02*
X61300000Y-81250000D01*
G75*
G02*
X61850000Y-80700000I550000J0D01*
G01*
X62950000Y-80700000D01*
G75*
G02*
X63500000Y-81250000I0J-550000D01*
G01*
X63500000Y-82350000D01*
G75*
G02*
X62950000Y-82900000I-550000J0D01*
G01*
X61850000Y-82900000D01*
G75*
G02*
X61300000Y-82350000I0J550000D01*
G01*
G37*
D18*
X67400000Y-81800000D03*
%TD*%
D13*
%TO.C,J7*%
X97460000Y-83490000D03*
D12*
X94920000Y-83490000D03*
X92380000Y-83490000D03*
X89840000Y-83490000D03*
%TD*%
%TO.C,J5*%
G36*
G01*
X134800000Y-113000000D02*
X134800000Y-114800000D01*
G75*
G02*
X133900000Y-115700000I-900000J0D01*
G01*
X132100000Y-115700000D01*
G75*
G02*
X131200000Y-114800000I0J900000D01*
G01*
X131200000Y-113000000D01*
G75*
G02*
X132100000Y-112100000I900000J0D01*
G01*
X133900000Y-112100000D01*
G75*
G02*
X134800000Y-113000000I0J-900000D01*
G01*
G37*
G36*
G01*
X137550000Y-117575000D02*
X137550000Y-119625000D01*
G75*
G02*
X136775000Y-120400000I-775000J0D01*
G01*
X135225000Y-120400000D01*
G75*
G02*
X134450000Y-119625000I0J775000D01*
G01*
X134450000Y-117575000D01*
G75*
G02*
X135225000Y-116800000I775000J0D01*
G01*
X136775000Y-116800000D01*
G75*
G02*
X137550000Y-117575000I0J-775000D01*
G01*
G37*
D19*
X130000000Y-118600000D03*
%TD*%
D20*
%TO.C,J4*%
X64110000Y-113585000D03*
D21*
X70460000Y-111685000D03*
X73000000Y-110415000D03*
X70460000Y-109145000D03*
X73000000Y-107875000D03*
X70460000Y-106605000D03*
D20*
X64110000Y-103425000D03*
D22*
X73000000Y-105335000D03*
%TD*%
D20*
%TO.C,J3*%
X64110000Y-100250000D03*
D21*
X70460000Y-98350000D03*
X73000000Y-97080000D03*
X70460000Y-95810000D03*
X73000000Y-94540000D03*
X70460000Y-93270000D03*
D20*
X64110000Y-90090000D03*
D22*
X73000000Y-92000000D03*
%TD*%
D20*
%TO.C,J2*%
X135890000Y-86415000D03*
D21*
X129540000Y-88315000D03*
X127000000Y-89585000D03*
X129540000Y-90855000D03*
X127000000Y-92125000D03*
X129540000Y-93395000D03*
D20*
X135890000Y-96575000D03*
D22*
X127000000Y-94665000D03*
%TD*%
D20*
%TO.C,J1*%
X135890000Y-99750000D03*
D21*
X129540000Y-101650000D03*
X127000000Y-102920000D03*
X129540000Y-104190000D03*
X127000000Y-105460000D03*
X129540000Y-106730000D03*
D20*
X135890000Y-109910000D03*
D22*
X127000000Y-108000000D03*
%TD*%
M02*
