M48
; DRILL file {KiCad (5.1.6)-1} date 04/28/21 12:41:22
; FORMAT={-:-/ absolute / inch / decimal}
; #@! TF.CreationDate,2021-04-28T12:41:22+02:00
; #@! TF.GenerationSoftware,Kicad,Pcbnew,(5.1.6)-1
; #@! TF.FileFunction,Plated,1,2,PTH
FMAT,2
INCH
T1C0.0157
T2C0.0299
T3C0.0315
T4C0.0354
T5C0.0394
T6C0.0472
%
G90
G05
T1
X2.687Y-4.287
X2.9397Y-4.2144
X2.947Y-4.3285
X2.967Y-4.367
X2.9785Y-3.827
X2.987Y-4.217
X2.997Y-3.727
X3.057Y-4.547
X3.077Y-4.297
X3.117Y-4.107
X3.137Y-4.647
X3.157Y-4.2655
X3.157Y-4.337
X3.227Y-4.297
X3.237Y-4.257
X3.317Y-4.487
X3.347Y-3.567
X3.677Y-3.4557
X3.937Y-3.097
X3.937Y-3.1496
X3.937Y-3.437
X3.937Y-4.4094
X3.937Y-4.7244
X3.997Y-4.4647
X4.3179Y-4.3899
X4.467Y-3.267
X4.537Y-3.267
X4.5519Y-4.2827
X4.6234Y-3.597
X4.677Y-3.457
X4.722Y-3.602
X4.75Y-3.18
X4.777Y-3.757
X4.837Y-4.097
X4.85Y-3.18
X4.85Y-3.61
X4.89Y-3.41
X4.8988Y-3.6174
X4.9134Y-3.546
X4.937Y-4.097
X5.1Y-3.834
X5.157Y-3.527
X5.2221Y-3.837
T2
X2.774Y-3.672
X2.774Y-3.772
X2.774Y-3.872
X2.874Y-3.622
X2.874Y-3.722
X2.874Y-3.822
X5.0Y-4.052
X5.0Y-4.152
X5.0Y-4.252
X5.1Y-4.002
X5.1Y-4.102
X5.1Y-4.202
X2.774Y-4.197
X2.774Y-4.297
X2.774Y-4.397
X2.874Y-4.147
X2.874Y-4.247
X2.874Y-4.347
X5.0Y-3.527
X5.0Y-3.627
X5.0Y-3.727
X5.1Y-3.477
X5.1Y-3.577
X5.1Y-3.677
T3
X3.007Y-3.637
X3.007Y-3.937
X3.107Y-3.637
X3.107Y-3.937
X3.297Y-3.117
X3.297Y-3.417
X3.397Y-3.117
X3.397Y-3.417
X4.4669Y-4.4488
X4.4669Y-4.7488
X4.5669Y-4.4488
X4.5669Y-4.7488
X4.767Y-3.937
X4.767Y-4.237
X4.867Y-3.937
X4.867Y-4.237
T4
X2.5669Y-4.6063
X2.5669Y-4.7063
X5.3071Y-3.152
X5.3071Y-3.252
T5
X3.037Y-3.287
X3.037Y-3.387
X3.137Y-3.287
X3.137Y-3.387
X3.037Y-3.187
X3.137Y-3.187
X3.537Y-3.287
X3.637Y-3.287
X3.737Y-3.287
X3.837Y-3.287
X4.037Y-4.587
X4.137Y-4.587
X4.237Y-4.587
X4.337Y-4.587
X4.737Y-4.487
X4.737Y-4.587
X4.837Y-4.487
X4.837Y-4.587
X4.737Y-4.687
X4.837Y-4.687
T6
X4.1535Y-3.3268
X4.3504Y-3.189
X3.5236Y-4.685
X3.7205Y-4.5472
T3
G00X2.4567Y-3.2067
M15
G01X2.4567Y-3.2343
M16
G05
G00X2.5413Y-3.3268
M15
G01X2.5689Y-3.3268
M16
G05
G00X2.6535Y-3.2067
M15
G01X2.6535Y-3.2343
M16
G05
T5
G00X5.1181Y-4.7087
M15
G01X5.1181Y-4.6299
M16
G05
G00X5.2756Y-4.4843
M15
G01X5.1969Y-4.4843
M16
G05
G00X5.3543Y-4.7087
M15
G01X5.3543Y-4.6299
M16
G05
T0
M30
