%TF.GenerationSoftware,KiCad,Pcbnew,(5.1.6)-1*%
%TF.CreationDate,2021-04-28T12:41:24+02:00*%
%TF.ProjectId,combi_button,636f6d62-695f-4627-9574-746f6e2e6b69,rev?*%
%TF.SameCoordinates,Original*%
%TF.FileFunction,Legend,Top*%
%TF.FilePolarity,Positive*%
%FSLAX46Y46*%
G04 Gerber Fmt 4.6, Leading zero omitted, Abs format (unit mm)*
G04 Created by KiCad (PCBNEW (5.1.6)-1) date 2021-04-28 12:41:24*
%MOMM*%
%LPD*%
G01*
G04 APERTURE LIST*
%ADD10C,0.300000*%
%ADD11C,0.150000*%
%ADD12C,0.120000*%
%ADD13C,0.200000*%
%ADD14C,0.100000*%
G04 APERTURE END LIST*
D10*
X61821428Y-106750000D02*
X61821428Y-107035714D01*
X61750000Y-107178571D01*
X61607142Y-107321428D01*
X61321428Y-107392857D01*
X60821428Y-107392857D01*
X60535714Y-107321428D01*
X60392857Y-107178571D01*
X60321428Y-107035714D01*
X60321428Y-106750000D01*
X60392857Y-106607142D01*
X60535714Y-106464285D01*
X60821428Y-106392857D01*
X61321428Y-106392857D01*
X61607142Y-106464285D01*
X61750000Y-106607142D01*
X61821428Y-106750000D01*
X61321428Y-108678571D02*
X60321428Y-108678571D01*
X61321428Y-108035714D02*
X60535714Y-108035714D01*
X60392857Y-108107142D01*
X60321428Y-108250000D01*
X60321428Y-108464285D01*
X60392857Y-108607142D01*
X60464285Y-108678571D01*
X61321428Y-109178571D02*
X61321428Y-109750000D01*
X61821428Y-109392857D02*
X60535714Y-109392857D01*
X60392857Y-109464285D01*
X60321428Y-109607142D01*
X60321428Y-109750000D01*
X138178571Y-93250000D02*
X138178571Y-92964285D01*
X138250000Y-92821428D01*
X138392857Y-92678571D01*
X138678571Y-92607142D01*
X139178571Y-92607142D01*
X139464285Y-92678571D01*
X139607142Y-92821428D01*
X139678571Y-92964285D01*
X139678571Y-93250000D01*
X139607142Y-93392857D01*
X139464285Y-93535714D01*
X139178571Y-93607142D01*
X138678571Y-93607142D01*
X138392857Y-93535714D01*
X138250000Y-93392857D01*
X138178571Y-93250000D01*
X138678571Y-91321428D02*
X139678571Y-91321428D01*
X138678571Y-91964285D02*
X139464285Y-91964285D01*
X139607142Y-91892857D01*
X139678571Y-91750000D01*
X139678571Y-91535714D01*
X139607142Y-91392857D01*
X139535714Y-91321428D01*
X138678571Y-90821428D02*
X138678571Y-90250000D01*
X138178571Y-90607142D02*
X139464285Y-90607142D01*
X139607142Y-90535714D01*
X139678571Y-90392857D01*
X139678571Y-90250000D01*
X60321428Y-94321428D02*
X61821428Y-94321428D01*
X61321428Y-95035714D02*
X60321428Y-95035714D01*
X61178571Y-95035714D02*
X61250000Y-95107142D01*
X61321428Y-95250000D01*
X61321428Y-95464285D01*
X61250000Y-95607142D01*
X61107142Y-95678571D01*
X60321428Y-95678571D01*
X139678571Y-105678571D02*
X138178571Y-105678571D01*
X138678571Y-104964285D02*
X139678571Y-104964285D01*
X138821428Y-104964285D02*
X138750000Y-104892857D01*
X138678571Y-104750000D01*
X138678571Y-104535714D01*
X138750000Y-104392857D01*
X138892857Y-104321428D01*
X139678571Y-104321428D01*
D11*
X89237333Y-85784000D02*
X89142095Y-85736380D01*
X88999238Y-85736380D01*
X88856380Y-85784000D01*
X88761142Y-85879238D01*
X88713523Y-85974476D01*
X88665904Y-86164952D01*
X88665904Y-86307809D01*
X88713523Y-86498285D01*
X88761142Y-86593523D01*
X88856380Y-86688761D01*
X88999238Y-86736380D01*
X89094476Y-86736380D01*
X89237333Y-86688761D01*
X89284952Y-86641142D01*
X89284952Y-86307809D01*
X89094476Y-86307809D01*
X89713523Y-86736380D02*
X89713523Y-85736380D01*
X90284952Y-86736380D01*
X90284952Y-85736380D01*
X90761142Y-86736380D02*
X90761142Y-85736380D01*
X90999238Y-85736380D01*
X91142095Y-85784000D01*
X91237333Y-85879238D01*
X91284952Y-85974476D01*
X91332571Y-86164952D01*
X91332571Y-86307809D01*
X91284952Y-86498285D01*
X91237333Y-86593523D01*
X91142095Y-86688761D01*
X90999238Y-86736380D01*
X90761142Y-86736380D01*
X92523047Y-86212571D02*
X92856380Y-86212571D01*
X92999238Y-86736380D02*
X92523047Y-86736380D01*
X92523047Y-85736380D01*
X92999238Y-85736380D01*
X94761142Y-86641142D02*
X94713523Y-86688761D01*
X94570666Y-86736380D01*
X94475428Y-86736380D01*
X94332571Y-86688761D01*
X94237333Y-86593523D01*
X94189714Y-86498285D01*
X94142095Y-86307809D01*
X94142095Y-86164952D01*
X94189714Y-85974476D01*
X94237333Y-85879238D01*
X94332571Y-85784000D01*
X94475428Y-85736380D01*
X94570666Y-85736380D01*
X94713523Y-85784000D01*
X94761142Y-85831619D01*
X95808761Y-85736380D02*
X96142095Y-86736380D01*
X96475428Y-85736380D01*
X97380190Y-86641142D02*
X97332571Y-86688761D01*
X97189714Y-86736380D01*
X97094476Y-86736380D01*
X96951619Y-86688761D01*
X96856380Y-86593523D01*
X96808761Y-86498285D01*
X96761142Y-86307809D01*
X96761142Y-86164952D01*
X96808761Y-85974476D01*
X96856380Y-85879238D01*
X96951619Y-85784000D01*
X97094476Y-85736380D01*
X97189714Y-85736380D01*
X97332571Y-85784000D01*
X97380190Y-85831619D01*
X98380190Y-86641142D02*
X98332571Y-86688761D01*
X98189714Y-86736380D01*
X98094476Y-86736380D01*
X97951619Y-86688761D01*
X97856380Y-86593523D01*
X97808761Y-86498285D01*
X97761142Y-86307809D01*
X97761142Y-86164952D01*
X97808761Y-85974476D01*
X97856380Y-85879238D01*
X97951619Y-85784000D01*
X98094476Y-85736380D01*
X98189714Y-85736380D01*
X98332571Y-85784000D01*
X98380190Y-85831619D01*
X101651619Y-113168380D02*
X101984952Y-114168380D01*
X102318285Y-113168380D01*
X103223047Y-114073142D02*
X103175428Y-114120761D01*
X103032571Y-114168380D01*
X102937333Y-114168380D01*
X102794476Y-114120761D01*
X102699238Y-114025523D01*
X102651619Y-113930285D01*
X102604000Y-113739809D01*
X102604000Y-113596952D01*
X102651619Y-113406476D01*
X102699238Y-113311238D01*
X102794476Y-113216000D01*
X102937333Y-113168380D01*
X103032571Y-113168380D01*
X103175428Y-113216000D01*
X103223047Y-113263619D01*
X104223047Y-114073142D02*
X104175428Y-114120761D01*
X104032571Y-114168380D01*
X103937333Y-114168380D01*
X103794476Y-114120761D01*
X103699238Y-114025523D01*
X103651619Y-113930285D01*
X103604000Y-113739809D01*
X103604000Y-113596952D01*
X103651619Y-113406476D01*
X103699238Y-113311238D01*
X103794476Y-113216000D01*
X103937333Y-113168380D01*
X104032571Y-113168380D01*
X104175428Y-113216000D01*
X104223047Y-113263619D01*
X105984952Y-114073142D02*
X105937333Y-114120761D01*
X105794476Y-114168380D01*
X105699238Y-114168380D01*
X105556380Y-114120761D01*
X105461142Y-114025523D01*
X105413523Y-113930285D01*
X105365904Y-113739809D01*
X105365904Y-113596952D01*
X105413523Y-113406476D01*
X105461142Y-113311238D01*
X105556380Y-113216000D01*
X105699238Y-113168380D01*
X105794476Y-113168380D01*
X105937333Y-113216000D01*
X105984952Y-113263619D01*
X107175428Y-113644571D02*
X107508761Y-113644571D01*
X107651619Y-114168380D02*
X107175428Y-114168380D01*
X107175428Y-113168380D01*
X107651619Y-113168380D01*
X109365904Y-113216000D02*
X109270666Y-113168380D01*
X109127809Y-113168380D01*
X108984952Y-113216000D01*
X108889714Y-113311238D01*
X108842095Y-113406476D01*
X108794476Y-113596952D01*
X108794476Y-113739809D01*
X108842095Y-113930285D01*
X108889714Y-114025523D01*
X108984952Y-114120761D01*
X109127809Y-114168380D01*
X109223047Y-114168380D01*
X109365904Y-114120761D01*
X109413523Y-114073142D01*
X109413523Y-113739809D01*
X109223047Y-113739809D01*
X109842095Y-114168380D02*
X109842095Y-113168380D01*
X110413523Y-114168380D01*
X110413523Y-113168380D01*
X110889714Y-114168380D02*
X110889714Y-113168380D01*
X111127809Y-113168380D01*
X111270666Y-113216000D01*
X111365904Y-113311238D01*
X111413523Y-113406476D01*
X111461142Y-113596952D01*
X111461142Y-113739809D01*
X111413523Y-113930285D01*
X111365904Y-114025523D01*
X111270666Y-114120761D01*
X111127809Y-114168380D01*
X110889714Y-114168380D01*
D12*
X100000000Y-113000000D02*
X100000000Y-119000000D01*
X100000000Y-86284000D02*
X100000000Y-81000000D01*
D13*
X129700000Y-86000000D02*
G75*
G03*
X129700000Y-86000000I-2700000J0D01*
G01*
X129700000Y-114000000D02*
G75*
G03*
X129700000Y-114000000I-2700000J0D01*
G01*
X75700000Y-114000000D02*
G75*
G03*
X75700000Y-114000000I-2700000J0D01*
G01*
X75700000Y-86000000D02*
G75*
G03*
X75700000Y-86000000I-2700000J0D01*
G01*
D12*
%TO.C,R20*%
X76893252Y-117728000D02*
X76370748Y-117728000D01*
X76893252Y-116308000D02*
X76370748Y-116308000D01*
%TO.C,D6*%
X78628000Y-120304000D02*
X78628000Y-118304000D01*
X78628000Y-118304000D02*
X74728000Y-118304000D01*
X78628000Y-120304000D02*
X74728000Y-120304000D01*
%TO.C,U6*%
X82414000Y-83982000D02*
X82414000Y-85632000D01*
X82414000Y-85632000D02*
X87614000Y-85632000D01*
X87614000Y-85632000D02*
X87614000Y-80332000D01*
X87614000Y-80332000D02*
X82414000Y-80332000D01*
X82414000Y-80332000D02*
X82414000Y-81982000D01*
X82414000Y-81982000D02*
G75*
G02*
X82414000Y-83982000I0J-1000000D01*
G01*
%TO.C,R19*%
X78163252Y-90296000D02*
X77640748Y-90296000D01*
X78163252Y-88876000D02*
X77640748Y-88876000D01*
%TO.C,J14*%
X78410000Y-79620000D02*
X78410000Y-82280000D01*
X78410000Y-79620000D02*
X75810000Y-79620000D01*
X75810000Y-79620000D02*
X75810000Y-82280000D01*
X78410000Y-82280000D02*
X75810000Y-82280000D01*
X81010000Y-82280000D02*
X79680000Y-82280000D01*
X81010000Y-80950000D02*
X81010000Y-82280000D01*
%TO.C,J13*%
X121590000Y-120380000D02*
X121590000Y-117720000D01*
X121590000Y-120380000D02*
X124190000Y-120380000D01*
X124190000Y-120380000D02*
X124190000Y-117720000D01*
X121590000Y-117720000D02*
X124190000Y-117720000D01*
X118990000Y-117720000D02*
X120320000Y-117720000D01*
X118990000Y-119050000D02*
X118990000Y-117720000D01*
%TO.C,R18*%
X123868748Y-81002000D02*
X124391252Y-81002000D01*
X123868748Y-82422000D02*
X124391252Y-82422000D01*
%TO.C,D5*%
X121372000Y-78426000D02*
X121372000Y-80426000D01*
X121372000Y-80426000D02*
X125272000Y-80426000D01*
X121372000Y-78426000D02*
X125272000Y-78426000D01*
%TO.C,J6*%
X101210000Y-117840000D02*
X101210000Y-116510000D01*
X102540000Y-117840000D02*
X101210000Y-117840000D01*
X103810000Y-117840000D02*
X103810000Y-115180000D01*
X103810000Y-115180000D02*
X111490000Y-115180000D01*
X103810000Y-117840000D02*
X111490000Y-117840000D01*
X111490000Y-117840000D02*
X111490000Y-115180000D01*
%TO.C,REF\u002A\u002A*%
X70550000Y-82450000D02*
X70550000Y-79550000D01*
X73450000Y-82450000D02*
X70550000Y-82450000D01*
X73450000Y-79550000D02*
X73450000Y-82450000D01*
X70550000Y-79550000D02*
X73450000Y-79550000D01*
X124550000Y-120450000D02*
X124550000Y-117550000D01*
X127450000Y-120450000D02*
X124550000Y-120450000D01*
X127450000Y-117550000D02*
X127450000Y-120450000D01*
X124550000Y-117550000D02*
X127450000Y-117550000D01*
%TO.C,J12*%
X81010000Y-82160000D02*
X81010000Y-83490000D01*
X79680000Y-82160000D02*
X81010000Y-82160000D01*
X81010000Y-84760000D02*
X81010000Y-87360000D01*
X78410000Y-84760000D02*
X81010000Y-84760000D01*
X78410000Y-82160000D02*
X78410000Y-84760000D01*
X81010000Y-87360000D02*
X75810000Y-87360000D01*
X78410000Y-82160000D02*
X75810000Y-82160000D01*
X75810000Y-82160000D02*
X75810000Y-87360000D01*
%TO.C,J11*%
X118990000Y-117840000D02*
X118990000Y-116510000D01*
X120320000Y-117840000D02*
X118990000Y-117840000D01*
X118990000Y-115240000D02*
X118990000Y-112640000D01*
X121590000Y-115240000D02*
X118990000Y-115240000D01*
X121590000Y-117840000D02*
X121590000Y-115240000D01*
X118990000Y-112640000D02*
X124190000Y-112640000D01*
X121590000Y-117840000D02*
X124190000Y-117840000D01*
X124190000Y-117840000D02*
X124190000Y-112640000D01*
%TO.C,R17*%
X82974748Y-111990000D02*
X83497252Y-111990000D01*
X82974748Y-113410000D02*
X83497252Y-113410000D01*
%TO.C,R16*%
X80434748Y-115696000D02*
X80957252Y-115696000D01*
X80434748Y-114276000D02*
X80957252Y-114276000D01*
%TO.C,R15*%
X80434748Y-116308000D02*
X80957252Y-116308000D01*
X80434748Y-117728000D02*
X80957252Y-117728000D01*
%TO.C,J10*%
X87300000Y-113100000D02*
X87300000Y-121700000D01*
X99300000Y-113100000D02*
X87300000Y-113100000D01*
X99300000Y-121700000D02*
X99300000Y-113100000D01*
X87300000Y-121700000D02*
X99300000Y-121700000D01*
%TO.C,J9*%
X112700000Y-86900000D02*
X112700000Y-78300000D01*
X100700000Y-86900000D02*
X112700000Y-86900000D01*
X100700000Y-78300000D02*
X100700000Y-86900000D01*
X112700000Y-78300000D02*
X100700000Y-78300000D01*
%TO.C,U5*%
X117330000Y-119460000D02*
X117330000Y-117810000D01*
X112130000Y-119460000D02*
X117330000Y-119460000D01*
X112130000Y-114160000D02*
X112130000Y-119460000D01*
X117330000Y-114160000D02*
X112130000Y-114160000D01*
X117330000Y-115810000D02*
X117330000Y-114160000D01*
X117330000Y-117810000D02*
G75*
G02*
X117330000Y-115810000I0J1000000D01*
G01*
%TO.C,R14*%
X122090748Y-109958000D02*
X122613252Y-109958000D01*
X122090748Y-111378000D02*
X122613252Y-111378000D01*
%TO.C,R13*%
X117509748Y-86740000D02*
X118032252Y-86740000D01*
X117509748Y-85320000D02*
X118032252Y-85320000D01*
%TO.C,R12*%
X118032252Y-83288000D02*
X117509748Y-83288000D01*
X118032252Y-84708000D02*
X117509748Y-84708000D01*
%TO.C,R11*%
X117527748Y-82676000D02*
X118050252Y-82676000D01*
X117527748Y-81256000D02*
X118050252Y-81256000D01*
%TO.C,R10*%
X80434748Y-119760000D02*
X80957252Y-119760000D01*
X80434748Y-118340000D02*
X80957252Y-118340000D01*
%TO.C,R9*%
X118032252Y-78716000D02*
X117509748Y-78716000D01*
X118032252Y-80136000D02*
X117509748Y-80136000D01*
%TO.C,R8*%
X78163252Y-102996000D02*
X77640748Y-102996000D01*
X78163252Y-101576000D02*
X77640748Y-101576000D01*
%TO.C,R7*%
X121582748Y-97004000D02*
X122105252Y-97004000D01*
X121582748Y-98424000D02*
X122105252Y-98424000D01*
%TO.C,Q2*%
X71554000Y-116962000D02*
X71554000Y-117892000D01*
X71554000Y-120122000D02*
X71554000Y-119192000D01*
X71554000Y-120122000D02*
X73714000Y-120122000D01*
X71554000Y-116962000D02*
X73014000Y-116962000D01*
%TO.C,Q1*%
X128700000Y-81768000D02*
X128700000Y-80838000D01*
X128700000Y-78608000D02*
X128700000Y-79538000D01*
X128700000Y-78608000D02*
X126540000Y-78608000D01*
X128700000Y-81768000D02*
X127240000Y-81768000D01*
%TO.C,U4*%
X75048000Y-97190000D02*
X75048000Y-98840000D01*
X75048000Y-98840000D02*
X80248000Y-98840000D01*
X80248000Y-98840000D02*
X80248000Y-93540000D01*
X80248000Y-93540000D02*
X75048000Y-93540000D01*
X75048000Y-93540000D02*
X75048000Y-95190000D01*
X75048000Y-95190000D02*
G75*
G02*
X75048000Y-97190000I0J-1000000D01*
G01*
%TO.C,U3*%
X124952000Y-102810000D02*
X124952000Y-101160000D01*
X124952000Y-101160000D02*
X119752000Y-101160000D01*
X119752000Y-101160000D02*
X119752000Y-106460000D01*
X119752000Y-106460000D02*
X124952000Y-106460000D01*
X124952000Y-106460000D02*
X124952000Y-104810000D01*
X124952000Y-104810000D02*
G75*
G02*
X124952000Y-102810000I0J1000000D01*
G01*
%TO.C,U2*%
X80970000Y-109398000D02*
X80970000Y-107448000D01*
X80970000Y-109398000D02*
X80970000Y-111348000D01*
X75850000Y-109398000D02*
X75850000Y-107448000D01*
X75850000Y-109398000D02*
X75850000Y-112848000D01*
%TO.C,C2*%
X76624748Y-103608000D02*
X77147252Y-103608000D01*
X76624748Y-105028000D02*
X77147252Y-105028000D01*
%TO.C,U1*%
X119284000Y-90856000D02*
X119284000Y-92806000D01*
X119284000Y-90856000D02*
X119284000Y-88906000D01*
X124404000Y-90856000D02*
X124404000Y-92806000D01*
X124404000Y-90856000D02*
X124404000Y-87406000D01*
%TO.C,C1*%
X123629252Y-96392000D02*
X123106748Y-96392000D01*
X123629252Y-94972000D02*
X123106748Y-94972000D01*
%TO.C,R6*%
X85447000Y-115247252D02*
X85447000Y-114724748D01*
X86867000Y-115247252D02*
X86867000Y-114724748D01*
%TO.C,R5*%
X85447000Y-119057252D02*
X85447000Y-118534748D01*
X86867000Y-119057252D02*
X86867000Y-118534748D01*
%TO.C,R4*%
X122105252Y-86740000D02*
X121582748Y-86740000D01*
X122105252Y-85320000D02*
X121582748Y-85320000D01*
%TO.C,R3*%
X121573748Y-83288000D02*
X122096252Y-83288000D01*
X121573748Y-84708000D02*
X122096252Y-84708000D01*
%TO.C,R2*%
X131861252Y-80910000D02*
X131338748Y-80910000D01*
X131861252Y-79490000D02*
X131338748Y-79490000D01*
%TO.C,R1*%
X68338748Y-119090000D02*
X68861252Y-119090000D01*
X68338748Y-120510000D02*
X68861252Y-120510000D01*
%TO.C,D2*%
X138550000Y-82890000D02*
X142410000Y-82890000D01*
X138550000Y-79770000D02*
X142410000Y-79770000D01*
X138550000Y-82890000D02*
X138550000Y-79770000D01*
X138550000Y-79370000D02*
X139670000Y-79370000D01*
X139670000Y-79370000D02*
X139670000Y-79770000D01*
X139670000Y-79770000D02*
X138550000Y-79770000D01*
X138550000Y-79770000D02*
X138550000Y-79370000D01*
X135880000Y-82600000D02*
X138550000Y-82600000D01*
X138550000Y-82600000D02*
X138550000Y-82600000D01*
X138550000Y-82600000D02*
X135880000Y-82600000D01*
X135880000Y-82600000D02*
X135880000Y-82600000D01*
X135880000Y-80060000D02*
X138550000Y-80060000D01*
X138550000Y-80060000D02*
X138550000Y-80060000D01*
X138550000Y-80060000D02*
X135880000Y-80060000D01*
X135880000Y-80060000D02*
X135880000Y-80060000D01*
X142410000Y-79770000D02*
G75*
G02*
X142410000Y-82890000I0J-1560000D01*
G01*
%TO.C,D1*%
X61450000Y-116710000D02*
X57590000Y-116710000D01*
X61450000Y-119830000D02*
X57590000Y-119830000D01*
X61450000Y-116710000D02*
X61450000Y-119830000D01*
X61450000Y-120230000D02*
X60330000Y-120230000D01*
X60330000Y-120230000D02*
X60330000Y-119830000D01*
X60330000Y-119830000D02*
X61450000Y-119830000D01*
X61450000Y-119830000D02*
X61450000Y-120230000D01*
X64120000Y-117000000D02*
X61450000Y-117000000D01*
X61450000Y-117000000D02*
X61450000Y-117000000D01*
X61450000Y-117000000D02*
X64120000Y-117000000D01*
X64120000Y-117000000D02*
X64120000Y-117000000D01*
X64120000Y-119540000D02*
X61450000Y-119540000D01*
X61450000Y-119540000D02*
X61450000Y-119540000D01*
X61450000Y-119540000D02*
X64120000Y-119540000D01*
X64120000Y-119540000D02*
X64120000Y-119540000D01*
X57590000Y-119830000D02*
G75*
G02*
X57590000Y-116710000I0J1560000D01*
G01*
%TO.C,J8*%
X68500000Y-79100000D02*
X68500000Y-79900000D01*
X68500000Y-79100000D02*
X67700000Y-79100000D01*
X63400000Y-84300000D02*
X56000000Y-84300000D01*
X56000000Y-84300000D02*
X56000000Y-79300000D01*
X68300000Y-83400000D02*
X68300000Y-84300000D01*
X68300000Y-84300000D02*
X66400000Y-84300000D01*
X56000000Y-79300000D02*
X68300000Y-79300000D01*
X68300000Y-79300000D02*
X68300000Y-80200000D01*
X57700000Y-84300000D02*
X57700000Y-79300000D01*
%TO.C,J7*%
X98790000Y-82160000D02*
X98790000Y-83490000D01*
X97460000Y-82160000D02*
X98790000Y-82160000D01*
X96190000Y-82160000D02*
X96190000Y-84820000D01*
X96190000Y-84820000D02*
X88510000Y-84820000D01*
X96190000Y-82160000D02*
X88510000Y-82160000D01*
X88510000Y-82160000D02*
X88510000Y-84820000D01*
%TO.C,J5*%
X128900000Y-122350000D02*
X128900000Y-123400000D01*
X129950000Y-123400000D02*
X128900000Y-123400000D01*
X135000000Y-114000000D02*
X143800000Y-114000000D01*
X143800000Y-114000000D02*
X143800000Y-123200000D01*
X129100000Y-116700000D02*
X129100000Y-114000000D01*
X129100000Y-114000000D02*
X131000000Y-114000000D01*
X143800000Y-123200000D02*
X129100000Y-123200000D01*
X129100000Y-123200000D02*
X129100000Y-120600000D01*
%TO.C,J4*%
X72230000Y-101435000D02*
X73760000Y-101435000D01*
X65210000Y-101905000D02*
X74230000Y-101905000D01*
D14*
X65280000Y-101905000D02*
X65210000Y-101905000D01*
D12*
X56230000Y-101905000D02*
X63010000Y-101905000D01*
X56230000Y-115105000D02*
X56230000Y-101905000D01*
D14*
X56240000Y-115105000D02*
X56230000Y-115105000D01*
D12*
X56230000Y-115105000D02*
X63010000Y-115105000D01*
D14*
X56350000Y-115105000D02*
X56230000Y-115105000D01*
D12*
X74230000Y-115105000D02*
X65210000Y-115105000D01*
X74230000Y-101905000D02*
X74230000Y-115105000D01*
%TO.C,J3*%
X72230000Y-88100000D02*
X73760000Y-88100000D01*
X65210000Y-88570000D02*
X74230000Y-88570000D01*
D14*
X65280000Y-88570000D02*
X65210000Y-88570000D01*
D12*
X56230000Y-88570000D02*
X63010000Y-88570000D01*
X56230000Y-101770000D02*
X56230000Y-88570000D01*
D14*
X56240000Y-101770000D02*
X56230000Y-101770000D01*
D12*
X56230000Y-101770000D02*
X63010000Y-101770000D01*
D14*
X56350000Y-101770000D02*
X56230000Y-101770000D01*
D12*
X74230000Y-101770000D02*
X65210000Y-101770000D01*
X74230000Y-88570000D02*
X74230000Y-101770000D01*
%TO.C,J2*%
X127770000Y-98565000D02*
X126240000Y-98565000D01*
X134790000Y-98095000D02*
X125770000Y-98095000D01*
D14*
X134720000Y-98095000D02*
X134790000Y-98095000D01*
D12*
X143770000Y-98095000D02*
X136990000Y-98095000D01*
X143770000Y-84895000D02*
X143770000Y-98095000D01*
D14*
X143760000Y-84895000D02*
X143770000Y-84895000D01*
D12*
X143770000Y-84895000D02*
X136990000Y-84895000D01*
D14*
X143650000Y-84895000D02*
X143770000Y-84895000D01*
D12*
X125770000Y-84895000D02*
X134790000Y-84895000D01*
X125770000Y-98095000D02*
X125770000Y-84895000D01*
%TO.C,J1*%
X127770000Y-111900000D02*
X126240000Y-111900000D01*
X134790000Y-111430000D02*
X125770000Y-111430000D01*
D14*
X134720000Y-111430000D02*
X134790000Y-111430000D01*
D12*
X143770000Y-111430000D02*
X136990000Y-111430000D01*
X143770000Y-98230000D02*
X143770000Y-111430000D01*
D14*
X143760000Y-98230000D02*
X143770000Y-98230000D01*
D12*
X143770000Y-98230000D02*
X136990000Y-98230000D01*
D14*
X143650000Y-98230000D02*
X143770000Y-98230000D01*
D12*
X125770000Y-98230000D02*
X134790000Y-98230000D01*
X125770000Y-111430000D02*
X125770000Y-98230000D01*
%TO.C,R20*%
D11*
X75989142Y-115946380D02*
X75655809Y-115470190D01*
X75417714Y-115946380D02*
X75417714Y-114946380D01*
X75798666Y-114946380D01*
X75893904Y-114994000D01*
X75941523Y-115041619D01*
X75989142Y-115136857D01*
X75989142Y-115279714D01*
X75941523Y-115374952D01*
X75893904Y-115422571D01*
X75798666Y-115470190D01*
X75417714Y-115470190D01*
X76370095Y-115041619D02*
X76417714Y-114994000D01*
X76512952Y-114946380D01*
X76751047Y-114946380D01*
X76846285Y-114994000D01*
X76893904Y-115041619D01*
X76941523Y-115136857D01*
X76941523Y-115232095D01*
X76893904Y-115374952D01*
X76322476Y-115946380D01*
X76941523Y-115946380D01*
X77560571Y-114946380D02*
X77655809Y-114946380D01*
X77751047Y-114994000D01*
X77798666Y-115041619D01*
X77846285Y-115136857D01*
X77893904Y-115327333D01*
X77893904Y-115565428D01*
X77846285Y-115755904D01*
X77798666Y-115851142D01*
X77751047Y-115898761D01*
X77655809Y-115946380D01*
X77560571Y-115946380D01*
X77465333Y-115898761D01*
X77417714Y-115851142D01*
X77370095Y-115755904D01*
X77322476Y-115565428D01*
X77322476Y-115327333D01*
X77370095Y-115136857D01*
X77417714Y-115041619D01*
X77465333Y-114994000D01*
X77560571Y-114946380D01*
%TO.C,D6*%
X75639904Y-121756380D02*
X75639904Y-120756380D01*
X75878000Y-120756380D01*
X76020857Y-120804000D01*
X76116095Y-120899238D01*
X76163714Y-120994476D01*
X76211333Y-121184952D01*
X76211333Y-121327809D01*
X76163714Y-121518285D01*
X76116095Y-121613523D01*
X76020857Y-121708761D01*
X75878000Y-121756380D01*
X75639904Y-121756380D01*
X77068476Y-120756380D02*
X76878000Y-120756380D01*
X76782761Y-120804000D01*
X76735142Y-120851619D01*
X76639904Y-120994476D01*
X76592285Y-121184952D01*
X76592285Y-121565904D01*
X76639904Y-121661142D01*
X76687523Y-121708761D01*
X76782761Y-121756380D01*
X76973238Y-121756380D01*
X77068476Y-121708761D01*
X77116095Y-121661142D01*
X77163714Y-121565904D01*
X77163714Y-121327809D01*
X77116095Y-121232571D01*
X77068476Y-121184952D01*
X76973238Y-121137333D01*
X76782761Y-121137333D01*
X76687523Y-121184952D01*
X76639904Y-121232571D01*
X76592285Y-121327809D01*
%TO.C,U6*%
X84212380Y-83743904D02*
X85021904Y-83743904D01*
X85117142Y-83696285D01*
X85164761Y-83648666D01*
X85212380Y-83553428D01*
X85212380Y-83362952D01*
X85164761Y-83267714D01*
X85117142Y-83220095D01*
X85021904Y-83172476D01*
X84212380Y-83172476D01*
X84212380Y-82267714D02*
X84212380Y-82458190D01*
X84260000Y-82553428D01*
X84307619Y-82601047D01*
X84450476Y-82696285D01*
X84640952Y-82743904D01*
X85021904Y-82743904D01*
X85117142Y-82696285D01*
X85164761Y-82648666D01*
X85212380Y-82553428D01*
X85212380Y-82362952D01*
X85164761Y-82267714D01*
X85117142Y-82220095D01*
X85021904Y-82172476D01*
X84783809Y-82172476D01*
X84688571Y-82220095D01*
X84640952Y-82267714D01*
X84593333Y-82362952D01*
X84593333Y-82553428D01*
X84640952Y-82648666D01*
X84688571Y-82696285D01*
X84783809Y-82743904D01*
%TO.C,R19*%
X80561142Y-90038380D02*
X80227809Y-89562190D01*
X79989714Y-90038380D02*
X79989714Y-89038380D01*
X80370666Y-89038380D01*
X80465904Y-89086000D01*
X80513523Y-89133619D01*
X80561142Y-89228857D01*
X80561142Y-89371714D01*
X80513523Y-89466952D01*
X80465904Y-89514571D01*
X80370666Y-89562190D01*
X79989714Y-89562190D01*
X81513523Y-90038380D02*
X80942095Y-90038380D01*
X81227809Y-90038380D02*
X81227809Y-89038380D01*
X81132571Y-89181238D01*
X81037333Y-89276476D01*
X80942095Y-89324095D01*
X81989714Y-90038380D02*
X82180190Y-90038380D01*
X82275428Y-89990761D01*
X82323047Y-89943142D01*
X82418285Y-89800285D01*
X82465904Y-89609809D01*
X82465904Y-89228857D01*
X82418285Y-89133619D01*
X82370666Y-89086000D01*
X82275428Y-89038380D01*
X82084952Y-89038380D01*
X81989714Y-89086000D01*
X81942095Y-89133619D01*
X81894476Y-89228857D01*
X81894476Y-89466952D01*
X81942095Y-89562190D01*
X81989714Y-89609809D01*
X82084952Y-89657428D01*
X82275428Y-89657428D01*
X82370666Y-89609809D01*
X82418285Y-89562190D01*
X82465904Y-89466952D01*
%TO.C,J14*%
X81164380Y-81759523D02*
X81878666Y-81759523D01*
X82021523Y-81807142D01*
X82116761Y-81902380D01*
X82164380Y-82045238D01*
X82164380Y-82140476D01*
X82164380Y-80759523D02*
X82164380Y-81330952D01*
X82164380Y-81045238D02*
X81164380Y-81045238D01*
X81307238Y-81140476D01*
X81402476Y-81235714D01*
X81450095Y-81330952D01*
X81497714Y-79902380D02*
X82164380Y-79902380D01*
X81116761Y-80140476D02*
X81831047Y-80378571D01*
X81831047Y-79759523D01*
%TO.C,J13*%
X117740380Y-120113523D02*
X118454666Y-120113523D01*
X118597523Y-120161142D01*
X118692761Y-120256380D01*
X118740380Y-120399238D01*
X118740380Y-120494476D01*
X118740380Y-119113523D02*
X118740380Y-119684952D01*
X118740380Y-119399238D02*
X117740380Y-119399238D01*
X117883238Y-119494476D01*
X117978476Y-119589714D01*
X118026095Y-119684952D01*
X117740380Y-118780190D02*
X117740380Y-118161142D01*
X118121333Y-118494476D01*
X118121333Y-118351619D01*
X118168952Y-118256380D01*
X118216571Y-118208761D01*
X118311809Y-118161142D01*
X118549904Y-118161142D01*
X118645142Y-118208761D01*
X118692761Y-118256380D01*
X118740380Y-118351619D01*
X118740380Y-118637333D01*
X118692761Y-118732571D01*
X118645142Y-118780190D01*
%TO.C,R18*%
X120261142Y-82240380D02*
X119927809Y-81764190D01*
X119689714Y-82240380D02*
X119689714Y-81240380D01*
X120070666Y-81240380D01*
X120165904Y-81288000D01*
X120213523Y-81335619D01*
X120261142Y-81430857D01*
X120261142Y-81573714D01*
X120213523Y-81668952D01*
X120165904Y-81716571D01*
X120070666Y-81764190D01*
X119689714Y-81764190D01*
X121213523Y-82240380D02*
X120642095Y-82240380D01*
X120927809Y-82240380D02*
X120927809Y-81240380D01*
X120832571Y-81383238D01*
X120737333Y-81478476D01*
X120642095Y-81526095D01*
X121784952Y-81668952D02*
X121689714Y-81621333D01*
X121642095Y-81573714D01*
X121594476Y-81478476D01*
X121594476Y-81430857D01*
X121642095Y-81335619D01*
X121689714Y-81288000D01*
X121784952Y-81240380D01*
X121975428Y-81240380D01*
X122070666Y-81288000D01*
X122118285Y-81335619D01*
X122165904Y-81430857D01*
X122165904Y-81478476D01*
X122118285Y-81573714D01*
X122070666Y-81621333D01*
X121975428Y-81668952D01*
X121784952Y-81668952D01*
X121689714Y-81716571D01*
X121642095Y-81764190D01*
X121594476Y-81859428D01*
X121594476Y-82049904D01*
X121642095Y-82145142D01*
X121689714Y-82192761D01*
X121784952Y-82240380D01*
X121975428Y-82240380D01*
X122070666Y-82192761D01*
X122118285Y-82145142D01*
X122165904Y-82049904D01*
X122165904Y-81859428D01*
X122118285Y-81764190D01*
X122070666Y-81716571D01*
X121975428Y-81668952D01*
%TO.C,D5*%
X119657904Y-79954380D02*
X119657904Y-78954380D01*
X119896000Y-78954380D01*
X120038857Y-79002000D01*
X120134095Y-79097238D01*
X120181714Y-79192476D01*
X120229333Y-79382952D01*
X120229333Y-79525809D01*
X120181714Y-79716285D01*
X120134095Y-79811523D01*
X120038857Y-79906761D01*
X119896000Y-79954380D01*
X119657904Y-79954380D01*
X121134095Y-78954380D02*
X120657904Y-78954380D01*
X120610285Y-79430571D01*
X120657904Y-79382952D01*
X120753142Y-79335333D01*
X120991238Y-79335333D01*
X121086476Y-79382952D01*
X121134095Y-79430571D01*
X121181714Y-79525809D01*
X121181714Y-79763904D01*
X121134095Y-79859142D01*
X121086476Y-79906761D01*
X120991238Y-79954380D01*
X120753142Y-79954380D01*
X120657904Y-79906761D01*
X120610285Y-79859142D01*
%TO.C,J6*%
X102206666Y-118462380D02*
X102206666Y-119176666D01*
X102159047Y-119319523D01*
X102063809Y-119414761D01*
X101920952Y-119462380D01*
X101825714Y-119462380D01*
X103111428Y-118462380D02*
X102920952Y-118462380D01*
X102825714Y-118510000D01*
X102778095Y-118557619D01*
X102682857Y-118700476D01*
X102635238Y-118890952D01*
X102635238Y-119271904D01*
X102682857Y-119367142D01*
X102730476Y-119414761D01*
X102825714Y-119462380D01*
X103016190Y-119462380D01*
X103111428Y-119414761D01*
X103159047Y-119367142D01*
X103206666Y-119271904D01*
X103206666Y-119033809D01*
X103159047Y-118938571D01*
X103111428Y-118890952D01*
X103016190Y-118843333D01*
X102825714Y-118843333D01*
X102730476Y-118890952D01*
X102682857Y-118938571D01*
X102635238Y-119033809D01*
%TO.C,J12*%
X81164380Y-86585523D02*
X81878666Y-86585523D01*
X82021523Y-86633142D01*
X82116761Y-86728380D01*
X82164380Y-86871238D01*
X82164380Y-86966476D01*
X82164380Y-85585523D02*
X82164380Y-86156952D01*
X82164380Y-85871238D02*
X81164380Y-85871238D01*
X81307238Y-85966476D01*
X81402476Y-86061714D01*
X81450095Y-86156952D01*
X81259619Y-85204571D02*
X81212000Y-85156952D01*
X81164380Y-85061714D01*
X81164380Y-84823619D01*
X81212000Y-84728380D01*
X81259619Y-84680761D01*
X81354857Y-84633142D01*
X81450095Y-84633142D01*
X81592952Y-84680761D01*
X82164380Y-85252190D01*
X82164380Y-84633142D01*
%TO.C,J11*%
X117740380Y-116049523D02*
X118454666Y-116049523D01*
X118597523Y-116097142D01*
X118692761Y-116192380D01*
X118740380Y-116335238D01*
X118740380Y-116430476D01*
X118740380Y-115049523D02*
X118740380Y-115620952D01*
X118740380Y-115335238D02*
X117740380Y-115335238D01*
X117883238Y-115430476D01*
X117978476Y-115525714D01*
X118026095Y-115620952D01*
X118740380Y-114097142D02*
X118740380Y-114668571D01*
X118740380Y-114382857D02*
X117740380Y-114382857D01*
X117883238Y-114478095D01*
X117978476Y-114573333D01*
X118026095Y-114668571D01*
%TO.C,R17*%
X82085142Y-111628380D02*
X81751809Y-111152190D01*
X81513714Y-111628380D02*
X81513714Y-110628380D01*
X81894666Y-110628380D01*
X81989904Y-110676000D01*
X82037523Y-110723619D01*
X82085142Y-110818857D01*
X82085142Y-110961714D01*
X82037523Y-111056952D01*
X81989904Y-111104571D01*
X81894666Y-111152190D01*
X81513714Y-111152190D01*
X83037523Y-111628380D02*
X82466095Y-111628380D01*
X82751809Y-111628380D02*
X82751809Y-110628380D01*
X82656571Y-110771238D01*
X82561333Y-110866476D01*
X82466095Y-110914095D01*
X83370857Y-110628380D02*
X84037523Y-110628380D01*
X83608952Y-111628380D01*
%TO.C,R16*%
X83228142Y-115438380D02*
X82894809Y-114962190D01*
X82656714Y-115438380D02*
X82656714Y-114438380D01*
X83037666Y-114438380D01*
X83132904Y-114486000D01*
X83180523Y-114533619D01*
X83228142Y-114628857D01*
X83228142Y-114771714D01*
X83180523Y-114866952D01*
X83132904Y-114914571D01*
X83037666Y-114962190D01*
X82656714Y-114962190D01*
X84180523Y-115438380D02*
X83609095Y-115438380D01*
X83894809Y-115438380D02*
X83894809Y-114438380D01*
X83799571Y-114581238D01*
X83704333Y-114676476D01*
X83609095Y-114724095D01*
X85037666Y-114438380D02*
X84847190Y-114438380D01*
X84751952Y-114486000D01*
X84704333Y-114533619D01*
X84609095Y-114676476D01*
X84561476Y-114866952D01*
X84561476Y-115247904D01*
X84609095Y-115343142D01*
X84656714Y-115390761D01*
X84751952Y-115438380D01*
X84942428Y-115438380D01*
X85037666Y-115390761D01*
X85085285Y-115343142D01*
X85132904Y-115247904D01*
X85132904Y-115009809D01*
X85085285Y-114914571D01*
X85037666Y-114866952D01*
X84942428Y-114819333D01*
X84751952Y-114819333D01*
X84656714Y-114866952D01*
X84609095Y-114914571D01*
X84561476Y-115009809D01*
%TO.C,R15*%
X83228142Y-117470380D02*
X82894809Y-116994190D01*
X82656714Y-117470380D02*
X82656714Y-116470380D01*
X83037666Y-116470380D01*
X83132904Y-116518000D01*
X83180523Y-116565619D01*
X83228142Y-116660857D01*
X83228142Y-116803714D01*
X83180523Y-116898952D01*
X83132904Y-116946571D01*
X83037666Y-116994190D01*
X82656714Y-116994190D01*
X84180523Y-117470380D02*
X83609095Y-117470380D01*
X83894809Y-117470380D02*
X83894809Y-116470380D01*
X83799571Y-116613238D01*
X83704333Y-116708476D01*
X83609095Y-116756095D01*
X85085285Y-116470380D02*
X84609095Y-116470380D01*
X84561476Y-116946571D01*
X84609095Y-116898952D01*
X84704333Y-116851333D01*
X84942428Y-116851333D01*
X85037666Y-116898952D01*
X85085285Y-116946571D01*
X85132904Y-117041809D01*
X85132904Y-117279904D01*
X85085285Y-117375142D01*
X85037666Y-117422761D01*
X84942428Y-117470380D01*
X84704333Y-117470380D01*
X84609095Y-117422761D01*
X84561476Y-117375142D01*
%TO.C,J10*%
X92078476Y-118502380D02*
X92078476Y-119216666D01*
X92030857Y-119359523D01*
X91935619Y-119454761D01*
X91792761Y-119502380D01*
X91697523Y-119502380D01*
X93078476Y-119502380D02*
X92507047Y-119502380D01*
X92792761Y-119502380D02*
X92792761Y-118502380D01*
X92697523Y-118645238D01*
X92602285Y-118740476D01*
X92507047Y-118788095D01*
X93697523Y-118502380D02*
X93792761Y-118502380D01*
X93888000Y-118550000D01*
X93935619Y-118597619D01*
X93983238Y-118692857D01*
X94030857Y-118883333D01*
X94030857Y-119121428D01*
X93983238Y-119311904D01*
X93935619Y-119407142D01*
X93888000Y-119454761D01*
X93792761Y-119502380D01*
X93697523Y-119502380D01*
X93602285Y-119454761D01*
X93554666Y-119407142D01*
X93507047Y-119311904D01*
X93459428Y-119121428D01*
X93459428Y-118883333D01*
X93507047Y-118692857D01*
X93554666Y-118597619D01*
X93602285Y-118550000D01*
X93697523Y-118502380D01*
%TO.C,J9*%
X101698666Y-87260380D02*
X101698666Y-87974666D01*
X101651047Y-88117523D01*
X101555809Y-88212761D01*
X101412952Y-88260380D01*
X101317714Y-88260380D01*
X102222476Y-88260380D02*
X102412952Y-88260380D01*
X102508190Y-88212761D01*
X102555809Y-88165142D01*
X102651047Y-88022285D01*
X102698666Y-87831809D01*
X102698666Y-87450857D01*
X102651047Y-87355619D01*
X102603428Y-87308000D01*
X102508190Y-87260380D01*
X102317714Y-87260380D01*
X102222476Y-87308000D01*
X102174857Y-87355619D01*
X102127238Y-87450857D01*
X102127238Y-87688952D01*
X102174857Y-87784190D01*
X102222476Y-87831809D01*
X102317714Y-87879428D01*
X102508190Y-87879428D01*
X102603428Y-87831809D01*
X102651047Y-87784190D01*
X102698666Y-87688952D01*
%TO.C,U5*%
X114182380Y-117571904D02*
X114991904Y-117571904D01*
X115087142Y-117524285D01*
X115134761Y-117476666D01*
X115182380Y-117381428D01*
X115182380Y-117190952D01*
X115134761Y-117095714D01*
X115087142Y-117048095D01*
X114991904Y-117000476D01*
X114182380Y-117000476D01*
X114182380Y-116048095D02*
X114182380Y-116524285D01*
X114658571Y-116571904D01*
X114610952Y-116524285D01*
X114563333Y-116429047D01*
X114563333Y-116190952D01*
X114610952Y-116095714D01*
X114658571Y-116048095D01*
X114753809Y-116000476D01*
X114991904Y-116000476D01*
X115087142Y-116048095D01*
X115134761Y-116095714D01*
X115182380Y-116190952D01*
X115182380Y-116429047D01*
X115134761Y-116524285D01*
X115087142Y-116571904D01*
%TO.C,R14*%
X118407142Y-111120380D02*
X118073809Y-110644190D01*
X117835714Y-111120380D02*
X117835714Y-110120380D01*
X118216666Y-110120380D01*
X118311904Y-110168000D01*
X118359523Y-110215619D01*
X118407142Y-110310857D01*
X118407142Y-110453714D01*
X118359523Y-110548952D01*
X118311904Y-110596571D01*
X118216666Y-110644190D01*
X117835714Y-110644190D01*
X119359523Y-111120380D02*
X118788095Y-111120380D01*
X119073809Y-111120380D02*
X119073809Y-110120380D01*
X118978571Y-110263238D01*
X118883333Y-110358476D01*
X118788095Y-110406095D01*
X120216666Y-110453714D02*
X120216666Y-111120380D01*
X119978571Y-110072761D02*
X119740476Y-110787047D01*
X120359523Y-110787047D01*
%TO.C,R13*%
X113826142Y-86482380D02*
X113492809Y-86006190D01*
X113254714Y-86482380D02*
X113254714Y-85482380D01*
X113635666Y-85482380D01*
X113730904Y-85530000D01*
X113778523Y-85577619D01*
X113826142Y-85672857D01*
X113826142Y-85815714D01*
X113778523Y-85910952D01*
X113730904Y-85958571D01*
X113635666Y-86006190D01*
X113254714Y-86006190D01*
X114778523Y-86482380D02*
X114207095Y-86482380D01*
X114492809Y-86482380D02*
X114492809Y-85482380D01*
X114397571Y-85625238D01*
X114302333Y-85720476D01*
X114207095Y-85768095D01*
X115111857Y-85482380D02*
X115730904Y-85482380D01*
X115397571Y-85863333D01*
X115540428Y-85863333D01*
X115635666Y-85910952D01*
X115683285Y-85958571D01*
X115730904Y-86053809D01*
X115730904Y-86291904D01*
X115683285Y-86387142D01*
X115635666Y-86434761D01*
X115540428Y-86482380D01*
X115254714Y-86482380D01*
X115159476Y-86434761D01*
X115111857Y-86387142D01*
%TO.C,R12*%
X113826142Y-84450380D02*
X113492809Y-83974190D01*
X113254714Y-84450380D02*
X113254714Y-83450380D01*
X113635666Y-83450380D01*
X113730904Y-83498000D01*
X113778523Y-83545619D01*
X113826142Y-83640857D01*
X113826142Y-83783714D01*
X113778523Y-83878952D01*
X113730904Y-83926571D01*
X113635666Y-83974190D01*
X113254714Y-83974190D01*
X114778523Y-84450380D02*
X114207095Y-84450380D01*
X114492809Y-84450380D02*
X114492809Y-83450380D01*
X114397571Y-83593238D01*
X114302333Y-83688476D01*
X114207095Y-83736095D01*
X115159476Y-83545619D02*
X115207095Y-83498000D01*
X115302333Y-83450380D01*
X115540428Y-83450380D01*
X115635666Y-83498000D01*
X115683285Y-83545619D01*
X115730904Y-83640857D01*
X115730904Y-83736095D01*
X115683285Y-83878952D01*
X115111857Y-84450380D01*
X115730904Y-84450380D01*
%TO.C,R11*%
X113844142Y-82418380D02*
X113510809Y-81942190D01*
X113272714Y-82418380D02*
X113272714Y-81418380D01*
X113653666Y-81418380D01*
X113748904Y-81466000D01*
X113796523Y-81513619D01*
X113844142Y-81608857D01*
X113844142Y-81751714D01*
X113796523Y-81846952D01*
X113748904Y-81894571D01*
X113653666Y-81942190D01*
X113272714Y-81942190D01*
X114796523Y-82418380D02*
X114225095Y-82418380D01*
X114510809Y-82418380D02*
X114510809Y-81418380D01*
X114415571Y-81561238D01*
X114320333Y-81656476D01*
X114225095Y-81704095D01*
X115748904Y-82418380D02*
X115177476Y-82418380D01*
X115463190Y-82418380D02*
X115463190Y-81418380D01*
X115367952Y-81561238D01*
X115272714Y-81656476D01*
X115177476Y-81704095D01*
%TO.C,R10*%
X83228142Y-119502380D02*
X82894809Y-119026190D01*
X82656714Y-119502380D02*
X82656714Y-118502380D01*
X83037666Y-118502380D01*
X83132904Y-118550000D01*
X83180523Y-118597619D01*
X83228142Y-118692857D01*
X83228142Y-118835714D01*
X83180523Y-118930952D01*
X83132904Y-118978571D01*
X83037666Y-119026190D01*
X82656714Y-119026190D01*
X84180523Y-119502380D02*
X83609095Y-119502380D01*
X83894809Y-119502380D02*
X83894809Y-118502380D01*
X83799571Y-118645238D01*
X83704333Y-118740476D01*
X83609095Y-118788095D01*
X84799571Y-118502380D02*
X84894809Y-118502380D01*
X84990047Y-118550000D01*
X85037666Y-118597619D01*
X85085285Y-118692857D01*
X85132904Y-118883333D01*
X85132904Y-119121428D01*
X85085285Y-119311904D01*
X85037666Y-119407142D01*
X84990047Y-119454761D01*
X84894809Y-119502380D01*
X84799571Y-119502380D01*
X84704333Y-119454761D01*
X84656714Y-119407142D01*
X84609095Y-119311904D01*
X84561476Y-119121428D01*
X84561476Y-118883333D01*
X84609095Y-118692857D01*
X84656714Y-118597619D01*
X84704333Y-118550000D01*
X84799571Y-118502380D01*
%TO.C,R9*%
X114556333Y-79878380D02*
X114223000Y-79402190D01*
X113984904Y-79878380D02*
X113984904Y-78878380D01*
X114365857Y-78878380D01*
X114461095Y-78926000D01*
X114508714Y-78973619D01*
X114556333Y-79068857D01*
X114556333Y-79211714D01*
X114508714Y-79306952D01*
X114461095Y-79354571D01*
X114365857Y-79402190D01*
X113984904Y-79402190D01*
X115032523Y-79878380D02*
X115223000Y-79878380D01*
X115318238Y-79830761D01*
X115365857Y-79783142D01*
X115461095Y-79640285D01*
X115508714Y-79449809D01*
X115508714Y-79068857D01*
X115461095Y-78973619D01*
X115413476Y-78926000D01*
X115318238Y-78878380D01*
X115127761Y-78878380D01*
X115032523Y-78926000D01*
X114984904Y-78973619D01*
X114937285Y-79068857D01*
X114937285Y-79306952D01*
X114984904Y-79402190D01*
X115032523Y-79449809D01*
X115127761Y-79497428D01*
X115318238Y-79497428D01*
X115413476Y-79449809D01*
X115461095Y-79402190D01*
X115508714Y-79306952D01*
%TO.C,R8*%
X74950333Y-102738380D02*
X74617000Y-102262190D01*
X74378904Y-102738380D02*
X74378904Y-101738380D01*
X74759857Y-101738380D01*
X74855095Y-101786000D01*
X74902714Y-101833619D01*
X74950333Y-101928857D01*
X74950333Y-102071714D01*
X74902714Y-102166952D01*
X74855095Y-102214571D01*
X74759857Y-102262190D01*
X74378904Y-102262190D01*
X75521761Y-102166952D02*
X75426523Y-102119333D01*
X75378904Y-102071714D01*
X75331285Y-101976476D01*
X75331285Y-101928857D01*
X75378904Y-101833619D01*
X75426523Y-101786000D01*
X75521761Y-101738380D01*
X75712238Y-101738380D01*
X75807476Y-101786000D01*
X75855095Y-101833619D01*
X75902714Y-101928857D01*
X75902714Y-101976476D01*
X75855095Y-102071714D01*
X75807476Y-102119333D01*
X75712238Y-102166952D01*
X75521761Y-102166952D01*
X75426523Y-102214571D01*
X75378904Y-102262190D01*
X75331285Y-102357428D01*
X75331285Y-102547904D01*
X75378904Y-102643142D01*
X75426523Y-102690761D01*
X75521761Y-102738380D01*
X75712238Y-102738380D01*
X75807476Y-102690761D01*
X75855095Y-102643142D01*
X75902714Y-102547904D01*
X75902714Y-102357428D01*
X75855095Y-102262190D01*
X75807476Y-102214571D01*
X75712238Y-102166952D01*
%TO.C,R7*%
X124471333Y-98166380D02*
X124138000Y-97690190D01*
X123899904Y-98166380D02*
X123899904Y-97166380D01*
X124280857Y-97166380D01*
X124376095Y-97214000D01*
X124423714Y-97261619D01*
X124471333Y-97356857D01*
X124471333Y-97499714D01*
X124423714Y-97594952D01*
X124376095Y-97642571D01*
X124280857Y-97690190D01*
X123899904Y-97690190D01*
X124804666Y-97166380D02*
X125471333Y-97166380D01*
X125042761Y-98166380D01*
%TO.C,Q2*%
X72218761Y-121589619D02*
X72123523Y-121542000D01*
X72028285Y-121446761D01*
X71885428Y-121303904D01*
X71790190Y-121256285D01*
X71694952Y-121256285D01*
X71742571Y-121494380D02*
X71647333Y-121446761D01*
X71552095Y-121351523D01*
X71504476Y-121161047D01*
X71504476Y-120827714D01*
X71552095Y-120637238D01*
X71647333Y-120542000D01*
X71742571Y-120494380D01*
X71933047Y-120494380D01*
X72028285Y-120542000D01*
X72123523Y-120637238D01*
X72171142Y-120827714D01*
X72171142Y-121161047D01*
X72123523Y-121351523D01*
X72028285Y-121446761D01*
X71933047Y-121494380D01*
X71742571Y-121494380D01*
X72552095Y-120589619D02*
X72599714Y-120542000D01*
X72694952Y-120494380D01*
X72933047Y-120494380D01*
X73028285Y-120542000D01*
X73075904Y-120589619D01*
X73123523Y-120684857D01*
X73123523Y-120780095D01*
X73075904Y-120922952D01*
X72504476Y-121494380D01*
X73123523Y-121494380D01*
%TO.C,Q1*%
X127920761Y-83097619D02*
X127825523Y-83050000D01*
X127730285Y-82954761D01*
X127587428Y-82811904D01*
X127492190Y-82764285D01*
X127396952Y-82764285D01*
X127444571Y-83002380D02*
X127349333Y-82954761D01*
X127254095Y-82859523D01*
X127206476Y-82669047D01*
X127206476Y-82335714D01*
X127254095Y-82145238D01*
X127349333Y-82050000D01*
X127444571Y-82002380D01*
X127635047Y-82002380D01*
X127730285Y-82050000D01*
X127825523Y-82145238D01*
X127873142Y-82335714D01*
X127873142Y-82669047D01*
X127825523Y-82859523D01*
X127730285Y-82954761D01*
X127635047Y-83002380D01*
X127444571Y-83002380D01*
X128825523Y-83002380D02*
X128254095Y-83002380D01*
X128539809Y-83002380D02*
X128539809Y-82002380D01*
X128444571Y-82145238D01*
X128349333Y-82240476D01*
X128254095Y-82288095D01*
%TO.C,U4*%
X77100380Y-96951904D02*
X77909904Y-96951904D01*
X78005142Y-96904285D01*
X78052761Y-96856666D01*
X78100380Y-96761428D01*
X78100380Y-96570952D01*
X78052761Y-96475714D01*
X78005142Y-96428095D01*
X77909904Y-96380476D01*
X77100380Y-96380476D01*
X77433714Y-95475714D02*
X78100380Y-95475714D01*
X77052761Y-95713809D02*
X77767047Y-95951904D01*
X77767047Y-95332857D01*
%TO.C,U3*%
X121804380Y-104571904D02*
X122613904Y-104571904D01*
X122709142Y-104524285D01*
X122756761Y-104476666D01*
X122804380Y-104381428D01*
X122804380Y-104190952D01*
X122756761Y-104095714D01*
X122709142Y-104048095D01*
X122613904Y-104000476D01*
X121804380Y-104000476D01*
X121804380Y-103619523D02*
X121804380Y-103000476D01*
X122185333Y-103333809D01*
X122185333Y-103190952D01*
X122232952Y-103095714D01*
X122280571Y-103048095D01*
X122375809Y-103000476D01*
X122613904Y-103000476D01*
X122709142Y-103048095D01*
X122756761Y-103095714D01*
X122804380Y-103190952D01*
X122804380Y-103476666D01*
X122756761Y-103571904D01*
X122709142Y-103619523D01*
%TO.C,U2*%
X77735380Y-110163904D02*
X78544904Y-110163904D01*
X78640142Y-110116285D01*
X78687761Y-110068666D01*
X78735380Y-109973428D01*
X78735380Y-109782952D01*
X78687761Y-109687714D01*
X78640142Y-109640095D01*
X78544904Y-109592476D01*
X77735380Y-109592476D01*
X77830619Y-109163904D02*
X77783000Y-109116285D01*
X77735380Y-109021047D01*
X77735380Y-108782952D01*
X77783000Y-108687714D01*
X77830619Y-108640095D01*
X77925857Y-108592476D01*
X78021095Y-108592476D01*
X78163952Y-108640095D01*
X78735380Y-109211523D01*
X78735380Y-108592476D01*
%TO.C,C2*%
X79513333Y-104675142D02*
X79465714Y-104722761D01*
X79322857Y-104770380D01*
X79227619Y-104770380D01*
X79084761Y-104722761D01*
X78989523Y-104627523D01*
X78941904Y-104532285D01*
X78894285Y-104341809D01*
X78894285Y-104198952D01*
X78941904Y-104008476D01*
X78989523Y-103913238D01*
X79084761Y-103818000D01*
X79227619Y-103770380D01*
X79322857Y-103770380D01*
X79465714Y-103818000D01*
X79513333Y-103865619D01*
X79894285Y-103865619D02*
X79941904Y-103818000D01*
X80037142Y-103770380D01*
X80275238Y-103770380D01*
X80370476Y-103818000D01*
X80418095Y-103865619D01*
X80465714Y-103960857D01*
X80465714Y-104056095D01*
X80418095Y-104198952D01*
X79846666Y-104770380D01*
X80465714Y-104770380D01*
%TO.C,U1*%
X124674380Y-89407904D02*
X125483904Y-89407904D01*
X125579142Y-89360285D01*
X125626761Y-89312666D01*
X125674380Y-89217428D01*
X125674380Y-89026952D01*
X125626761Y-88931714D01*
X125579142Y-88884095D01*
X125483904Y-88836476D01*
X124674380Y-88836476D01*
X125674380Y-87836476D02*
X125674380Y-88407904D01*
X125674380Y-88122190D02*
X124674380Y-88122190D01*
X124817238Y-88217428D01*
X124912476Y-88312666D01*
X124960095Y-88407904D01*
%TO.C,C1*%
X120162333Y-96039142D02*
X120114714Y-96086761D01*
X119971857Y-96134380D01*
X119876619Y-96134380D01*
X119733761Y-96086761D01*
X119638523Y-95991523D01*
X119590904Y-95896285D01*
X119543285Y-95705809D01*
X119543285Y-95562952D01*
X119590904Y-95372476D01*
X119638523Y-95277238D01*
X119733761Y-95182000D01*
X119876619Y-95134380D01*
X119971857Y-95134380D01*
X120114714Y-95182000D01*
X120162333Y-95229619D01*
X121114714Y-96134380D02*
X120543285Y-96134380D01*
X120829000Y-96134380D02*
X120829000Y-95134380D01*
X120733761Y-95277238D01*
X120638523Y-95372476D01*
X120543285Y-95420095D01*
%TO.C,R6*%
X86244333Y-112898380D02*
X85911000Y-112422190D01*
X85672904Y-112898380D02*
X85672904Y-111898380D01*
X86053857Y-111898380D01*
X86149095Y-111946000D01*
X86196714Y-111993619D01*
X86244333Y-112088857D01*
X86244333Y-112231714D01*
X86196714Y-112326952D01*
X86149095Y-112374571D01*
X86053857Y-112422190D01*
X85672904Y-112422190D01*
X87101476Y-111898380D02*
X86911000Y-111898380D01*
X86815761Y-111946000D01*
X86768142Y-111993619D01*
X86672904Y-112136476D01*
X86625285Y-112326952D01*
X86625285Y-112707904D01*
X86672904Y-112803142D01*
X86720523Y-112850761D01*
X86815761Y-112898380D01*
X87006238Y-112898380D01*
X87101476Y-112850761D01*
X87149095Y-112803142D01*
X87196714Y-112707904D01*
X87196714Y-112469809D01*
X87149095Y-112374571D01*
X87101476Y-112326952D01*
X87006238Y-112279333D01*
X86815761Y-112279333D01*
X86720523Y-112326952D01*
X86672904Y-112374571D01*
X86625285Y-112469809D01*
%TO.C,R5*%
X85990333Y-121788380D02*
X85657000Y-121312190D01*
X85418904Y-121788380D02*
X85418904Y-120788380D01*
X85799857Y-120788380D01*
X85895095Y-120836000D01*
X85942714Y-120883619D01*
X85990333Y-120978857D01*
X85990333Y-121121714D01*
X85942714Y-121216952D01*
X85895095Y-121264571D01*
X85799857Y-121312190D01*
X85418904Y-121312190D01*
X86895095Y-120788380D02*
X86418904Y-120788380D01*
X86371285Y-121264571D01*
X86418904Y-121216952D01*
X86514142Y-121169333D01*
X86752238Y-121169333D01*
X86847476Y-121216952D01*
X86895095Y-121264571D01*
X86942714Y-121359809D01*
X86942714Y-121597904D01*
X86895095Y-121693142D01*
X86847476Y-121740761D01*
X86752238Y-121788380D01*
X86514142Y-121788380D01*
X86418904Y-121740761D01*
X86371285Y-121693142D01*
%TO.C,R4*%
X124836380Y-86196666D02*
X124360190Y-86530000D01*
X124836380Y-86768095D02*
X123836380Y-86768095D01*
X123836380Y-86387142D01*
X123884000Y-86291904D01*
X123931619Y-86244285D01*
X124026857Y-86196666D01*
X124169714Y-86196666D01*
X124264952Y-86244285D01*
X124312571Y-86291904D01*
X124360190Y-86387142D01*
X124360190Y-86768095D01*
X124169714Y-85339523D02*
X124836380Y-85339523D01*
X123788761Y-85577619D02*
X124503047Y-85815714D01*
X124503047Y-85196666D01*
%TO.C,R3*%
X124952380Y-84166666D02*
X124476190Y-84500000D01*
X124952380Y-84738095D02*
X123952380Y-84738095D01*
X123952380Y-84357142D01*
X124000000Y-84261904D01*
X124047619Y-84214285D01*
X124142857Y-84166666D01*
X124285714Y-84166666D01*
X124380952Y-84214285D01*
X124428571Y-84261904D01*
X124476190Y-84357142D01*
X124476190Y-84738095D01*
X123952380Y-83833333D02*
X123952380Y-83214285D01*
X124333333Y-83547619D01*
X124333333Y-83404761D01*
X124380952Y-83309523D01*
X124428571Y-83261904D01*
X124523809Y-83214285D01*
X124761904Y-83214285D01*
X124857142Y-83261904D01*
X124904761Y-83309523D01*
X124952380Y-83404761D01*
X124952380Y-83690476D01*
X124904761Y-83785714D01*
X124857142Y-83833333D01*
%TO.C,R2*%
X131433333Y-82302380D02*
X131100000Y-81826190D01*
X130861904Y-82302380D02*
X130861904Y-81302380D01*
X131242857Y-81302380D01*
X131338095Y-81350000D01*
X131385714Y-81397619D01*
X131433333Y-81492857D01*
X131433333Y-81635714D01*
X131385714Y-81730952D01*
X131338095Y-81778571D01*
X131242857Y-81826190D01*
X130861904Y-81826190D01*
X131814285Y-81397619D02*
X131861904Y-81350000D01*
X131957142Y-81302380D01*
X132195238Y-81302380D01*
X132290476Y-81350000D01*
X132338095Y-81397619D01*
X132385714Y-81492857D01*
X132385714Y-81588095D01*
X132338095Y-81730952D01*
X131766666Y-82302380D01*
X132385714Y-82302380D01*
%TO.C,R1*%
X68433333Y-118602380D02*
X68100000Y-118126190D01*
X67861904Y-118602380D02*
X67861904Y-117602380D01*
X68242857Y-117602380D01*
X68338095Y-117650000D01*
X68385714Y-117697619D01*
X68433333Y-117792857D01*
X68433333Y-117935714D01*
X68385714Y-118030952D01*
X68338095Y-118078571D01*
X68242857Y-118126190D01*
X67861904Y-118126190D01*
X69385714Y-118602380D02*
X68814285Y-118602380D01*
X69100000Y-118602380D02*
X69100000Y-117602380D01*
X69004761Y-117745238D01*
X68909523Y-117840476D01*
X68814285Y-117888095D01*
%TO.C,D2*%
X137852380Y-81938095D02*
X136852380Y-81938095D01*
X136852380Y-81700000D01*
X136900000Y-81557142D01*
X136995238Y-81461904D01*
X137090476Y-81414285D01*
X137280952Y-81366666D01*
X137423809Y-81366666D01*
X137614285Y-81414285D01*
X137709523Y-81461904D01*
X137804761Y-81557142D01*
X137852380Y-81700000D01*
X137852380Y-81938095D01*
X136947619Y-80985714D02*
X136900000Y-80938095D01*
X136852380Y-80842857D01*
X136852380Y-80604761D01*
X136900000Y-80509523D01*
X136947619Y-80461904D01*
X137042857Y-80414285D01*
X137138095Y-80414285D01*
X137280952Y-80461904D01*
X137852380Y-81033333D01*
X137852380Y-80414285D01*
%TO.C,D1*%
X63052380Y-119008095D02*
X62052380Y-119008095D01*
X62052380Y-118770000D01*
X62100000Y-118627142D01*
X62195238Y-118531904D01*
X62290476Y-118484285D01*
X62480952Y-118436666D01*
X62623809Y-118436666D01*
X62814285Y-118484285D01*
X62909523Y-118531904D01*
X63004761Y-118627142D01*
X63052380Y-118770000D01*
X63052380Y-119008095D01*
X63052380Y-117484285D02*
X63052380Y-118055714D01*
X63052380Y-117770000D02*
X62052380Y-117770000D01*
X62195238Y-117865238D01*
X62290476Y-117960476D01*
X62338095Y-118055714D01*
%TO.C,J8*%
X60066666Y-84752380D02*
X60066666Y-85466666D01*
X60019047Y-85609523D01*
X59923809Y-85704761D01*
X59780952Y-85752380D01*
X59685714Y-85752380D01*
X60685714Y-85180952D02*
X60590476Y-85133333D01*
X60542857Y-85085714D01*
X60495238Y-84990476D01*
X60495238Y-84942857D01*
X60542857Y-84847619D01*
X60590476Y-84800000D01*
X60685714Y-84752380D01*
X60876190Y-84752380D01*
X60971428Y-84800000D01*
X61019047Y-84847619D01*
X61066666Y-84942857D01*
X61066666Y-84990476D01*
X61019047Y-85085714D01*
X60971428Y-85133333D01*
X60876190Y-85180952D01*
X60685714Y-85180952D01*
X60590476Y-85228571D01*
X60542857Y-85276190D01*
X60495238Y-85371428D01*
X60495238Y-85561904D01*
X60542857Y-85657142D01*
X60590476Y-85704761D01*
X60685714Y-85752380D01*
X60876190Y-85752380D01*
X60971428Y-85704761D01*
X61019047Y-85657142D01*
X61066666Y-85561904D01*
X61066666Y-85371428D01*
X61019047Y-85276190D01*
X60971428Y-85228571D01*
X60876190Y-85180952D01*
%TO.C,J7*%
X97126666Y-80442380D02*
X97126666Y-81156666D01*
X97079047Y-81299523D01*
X96983809Y-81394761D01*
X96840952Y-81442380D01*
X96745714Y-81442380D01*
X97507619Y-80442380D02*
X98174285Y-80442380D01*
X97745714Y-81442380D01*
%TO.C,J5*%
X138666666Y-112452380D02*
X138666666Y-113166666D01*
X138619047Y-113309523D01*
X138523809Y-113404761D01*
X138380952Y-113452380D01*
X138285714Y-113452380D01*
X139619047Y-112452380D02*
X139142857Y-112452380D01*
X139095238Y-112928571D01*
X139142857Y-112880952D01*
X139238095Y-112833333D01*
X139476190Y-112833333D01*
X139571428Y-112880952D01*
X139619047Y-112928571D01*
X139666666Y-113023809D01*
X139666666Y-113261904D01*
X139619047Y-113357142D01*
X139571428Y-113404761D01*
X139476190Y-113452380D01*
X139238095Y-113452380D01*
X139142857Y-113404761D01*
X139095238Y-113357142D01*
%TO.C,J4*%
X64654380Y-108715333D02*
X65368666Y-108715333D01*
X65511523Y-108762952D01*
X65606761Y-108858190D01*
X65654380Y-109001047D01*
X65654380Y-109096285D01*
X64987714Y-107810571D02*
X65654380Y-107810571D01*
X64606761Y-108048666D02*
X65321047Y-108286761D01*
X65321047Y-107667714D01*
%TO.C,J3*%
X64654380Y-95507333D02*
X65368666Y-95507333D01*
X65511523Y-95554952D01*
X65606761Y-95650190D01*
X65654380Y-95793047D01*
X65654380Y-95888285D01*
X64654380Y-95126380D02*
X64654380Y-94507333D01*
X65035333Y-94840666D01*
X65035333Y-94697809D01*
X65082952Y-94602571D01*
X65130571Y-94554952D01*
X65225809Y-94507333D01*
X65463904Y-94507333D01*
X65559142Y-94554952D01*
X65606761Y-94602571D01*
X65654380Y-94697809D01*
X65654380Y-94983523D01*
X65606761Y-95078761D01*
X65559142Y-95126380D01*
%TO.C,J2*%
X134250380Y-91951333D02*
X134964666Y-91951333D01*
X135107523Y-91998952D01*
X135202761Y-92094190D01*
X135250380Y-92237047D01*
X135250380Y-92332285D01*
X134345619Y-91522761D02*
X134298000Y-91475142D01*
X134250380Y-91379904D01*
X134250380Y-91141809D01*
X134298000Y-91046571D01*
X134345619Y-90998952D01*
X134440857Y-90951333D01*
X134536095Y-90951333D01*
X134678952Y-90998952D01*
X135250380Y-91570380D01*
X135250380Y-90951333D01*
%TO.C,J1*%
X134250380Y-105159333D02*
X134964666Y-105159333D01*
X135107523Y-105206952D01*
X135202761Y-105302190D01*
X135250380Y-105445047D01*
X135250380Y-105540285D01*
X135250380Y-104159333D02*
X135250380Y-104730761D01*
X135250380Y-104445047D02*
X134250380Y-104445047D01*
X134393238Y-104540285D01*
X134488476Y-104635523D01*
X134536095Y-104730761D01*
%TD*%
M02*
