%TF.GenerationSoftware,KiCad,Pcbnew,(5.1.6)-1*%
%TF.CreationDate,2021-04-28T12:39:19+02:00*%
%TF.ProjectId,wireless_button,77697265-6c65-4737-935f-627574746f6e,rev?*%
%TF.SameCoordinates,Original*%
%TF.FileFunction,Soldermask,Bot*%
%TF.FilePolarity,Negative*%
%FSLAX46Y46*%
G04 Gerber Fmt 4.6, Leading zero omitted, Abs format (unit mm)*
G04 Created by KiCad (PCBNEW (5.1.6)-1) date 2021-04-28 12:39:19*
%MOMM*%
%LPD*%
G01*
G04 APERTURE LIST*
%ADD10O,1.800000X1.800000*%
%ADD11R,1.800000X1.800000*%
%ADD12C,2.300000*%
%ADD13C,2.100000*%
%ADD14C,1.900000*%
%ADD15R,1.900000X1.900000*%
%ADD16C,1.624000*%
%ADD17R,1.620000X1.620000*%
%ADD18C,3.350000*%
%ADD19C,1.620000*%
%ADD20O,0.900000X0.900000*%
%ADD21O,1.900000X1.250000*%
%ADD22O,2.100000X1.550000*%
%ADD23C,2.200000*%
%ADD24C,1.850000*%
G04 APERTURE END LIST*
D10*
%TO.C,J5*%
X119812000Y-99492000D03*
D11*
X119812000Y-96952000D03*
%TD*%
D12*
%TO.C,J6*%
X100080000Y-78608000D03*
G36*
G01*
X104505000Y-73958000D02*
X105655000Y-73958000D01*
G75*
G02*
X106230000Y-74533000I0J-575000D01*
G01*
X106230000Y-75683000D01*
G75*
G02*
X105655000Y-76258000I-575000J0D01*
G01*
X104505000Y-76258000D01*
G75*
G02*
X103930000Y-75683000I0J575000D01*
G01*
X103930000Y-74533000D01*
G75*
G02*
X104505000Y-73958000I575000J0D01*
G01*
G37*
%TD*%
D10*
%TO.C,J4*%
X106096000Y-113462000D03*
X106096000Y-118542000D03*
X106096000Y-121082000D03*
X106096000Y-123622000D03*
D11*
X106096000Y-126162000D03*
%TD*%
D13*
%TO.C,J3*%
X88000000Y-102000000D03*
%TD*%
D14*
%TO.C,D2*%
X132766000Y-73584000D03*
D15*
X132766000Y-76124000D03*
%TD*%
D16*
%TO.C,U3*%
X124200000Y-116800000D03*
X126740000Y-116800000D03*
X129280000Y-116800000D03*
G36*
G01*
X132226000Y-117612000D02*
X131414000Y-117612000D01*
G75*
G02*
X131008000Y-117206000I0J406000D01*
G01*
X131008000Y-116394000D01*
G75*
G02*
X131414000Y-115988000I406000J0D01*
G01*
X132226000Y-115988000D01*
G75*
G02*
X132632000Y-116394000I0J-406000D01*
G01*
X132632000Y-117206000D01*
G75*
G02*
X132226000Y-117612000I-406000J0D01*
G01*
G37*
%TD*%
D14*
%TO.C,D1*%
X134290000Y-114224000D03*
D15*
X134290000Y-116764000D03*
%TD*%
D17*
%TO.C,J2*%
X124000000Y-88000000D03*
D18*
X132890000Y-89910000D03*
D19*
X126540000Y-86730000D03*
X124000000Y-85460000D03*
X126540000Y-84190000D03*
X124000000Y-82920000D03*
X126540000Y-81650000D03*
D18*
X132890000Y-79750000D03*
%TD*%
D20*
%TO.C,J1*%
X133400000Y-100802000D03*
X133400000Y-105802000D03*
D21*
X136150000Y-99427000D03*
X136150000Y-107177000D03*
D22*
X132350000Y-99577000D03*
X132350000Y-107027000D03*
%TD*%
D23*
%TO.C,SW1*%
X131975000Y-119705000D03*
D24*
X134465000Y-120955000D03*
X134465000Y-125455000D03*
D23*
X131975000Y-126715000D03*
%TD*%
M02*
