%TF.GenerationSoftware,KiCad,Pcbnew,(5.1.6)-1*%
%TF.CreationDate,2021-04-28T12:39:19+02:00*%
%TF.ProjectId,wireless_button,77697265-6c65-4737-935f-627574746f6e,rev?*%
%TF.SameCoordinates,Original*%
%TF.FileFunction,Copper,L2,Bot*%
%TF.FilePolarity,Positive*%
%FSLAX46Y46*%
G04 Gerber Fmt 4.6, Leading zero omitted, Abs format (unit mm)*
G04 Created by KiCad (PCBNEW (5.1.6)-1) date 2021-04-28 12:39:19*
%MOMM*%
%LPD*%
G01*
G04 APERTURE LIST*
%TA.AperFunction,ComponentPad*%
%ADD10O,1.700000X1.700000*%
%TD*%
%TA.AperFunction,ComponentPad*%
%ADD11R,1.700000X1.700000*%
%TD*%
%TA.AperFunction,ComponentPad*%
%ADD12C,2.200000*%
%TD*%
%TA.AperFunction,ComponentPad*%
%ADD13C,2.000000*%
%TD*%
%TA.AperFunction,ComponentPad*%
%ADD14C,1.800000*%
%TD*%
%TA.AperFunction,ComponentPad*%
%ADD15R,1.800000X1.800000*%
%TD*%
%TA.AperFunction,ComponentPad*%
%ADD16C,1.524000*%
%TD*%
%TA.AperFunction,ComponentPad*%
%ADD17R,1.520000X1.520000*%
%TD*%
%TA.AperFunction,ComponentPad*%
%ADD18C,1.520000*%
%TD*%
%TA.AperFunction,ComponentPad*%
%ADD19O,1.800000X1.150000*%
%TD*%
%TA.AperFunction,ComponentPad*%
%ADD20O,2.000000X1.450000*%
%TD*%
%TA.AperFunction,ComponentPad*%
%ADD21C,2.100000*%
%TD*%
%TA.AperFunction,ComponentPad*%
%ADD22C,1.750000*%
%TD*%
%TA.AperFunction,ViaPad*%
%ADD23C,0.800000*%
%TD*%
%TA.AperFunction,ViaPad*%
%ADD24C,1.600000*%
%TD*%
%TA.AperFunction,Conductor*%
%ADD25C,0.400000*%
%TD*%
%TA.AperFunction,Conductor*%
%ADD26C,0.600000*%
%TD*%
%TA.AperFunction,Conductor*%
%ADD27C,0.250000*%
%TD*%
%TA.AperFunction,Conductor*%
%ADD28C,0.254000*%
%TD*%
G04 APERTURE END LIST*
D10*
%TO.P,J5,2*%
%TO.N,GND*%
X119812000Y-99492000D03*
D11*
%TO.P,J5,1*%
%TO.N,/ButtonPoint*%
X119812000Y-96952000D03*
%TD*%
D12*
%TO.P,J6,2*%
%TO.N,+BATT*%
X100080000Y-78608000D03*
%TO.P,J6,1*%
%TO.N,GND*%
%TA.AperFunction,ComponentPad*%
G36*
G01*
X104530000Y-74008000D02*
X105630000Y-74008000D01*
G75*
G02*
X106180000Y-74558000I0J-550000D01*
G01*
X106180000Y-75658000D01*
G75*
G02*
X105630000Y-76208000I-550000J0D01*
G01*
X104530000Y-76208000D01*
G75*
G02*
X103980000Y-75658000I0J550000D01*
G01*
X103980000Y-74558000D01*
G75*
G02*
X104530000Y-74008000I550000J0D01*
G01*
G37*
%TD.AperFunction*%
%TD*%
D10*
%TO.P,J4,6*%
%TO.N,+3V3*%
X106096000Y-113462000D03*
%TO.P,J4,4*%
%TO.N,/SWCLK*%
X106096000Y-118542000D03*
%TO.P,J4,3*%
%TO.N,GND*%
X106096000Y-121082000D03*
%TO.P,J4,2*%
%TO.N,/SWDIO*%
X106096000Y-123622000D03*
D11*
%TO.P,J4,1*%
%TO.N,/NRST*%
X106096000Y-126162000D03*
%TD*%
D13*
%TO.P,J3,1*%
%TO.N,Net-(J3-Pad1)*%
X88000000Y-102000000D03*
%TD*%
D14*
%TO.P,D2,2*%
%TO.N,Net-(D2-Pad2)*%
X132766000Y-73584000D03*
D15*
%TO.P,D2,1*%
%TO.N,GND*%
X132766000Y-76124000D03*
%TD*%
D16*
%TO.P,U3,4*%
%TO.N,/OLED_SDA*%
X124200000Y-116800000D03*
%TO.P,U3,3*%
%TO.N,/OLED_SCL*%
X126740000Y-116800000D03*
%TO.P,U3,2*%
%TO.N,+3V3*%
X129280000Y-116800000D03*
%TO.P,U3,1*%
%TO.N,GND*%
%TA.AperFunction,ComponentPad*%
G36*
G01*
X132201000Y-117562000D02*
X131439000Y-117562000D01*
G75*
G02*
X131058000Y-117181000I0J381000D01*
G01*
X131058000Y-116419000D01*
G75*
G02*
X131439000Y-116038000I381000J0D01*
G01*
X132201000Y-116038000D01*
G75*
G02*
X132582000Y-116419000I0J-381000D01*
G01*
X132582000Y-117181000D01*
G75*
G02*
X132201000Y-117562000I-381000J0D01*
G01*
G37*
%TD.AperFunction*%
%TD*%
D14*
%TO.P,D1,2*%
%TO.N,/Reverse*%
X134290000Y-114224000D03*
D15*
%TO.P,D1,1*%
%TO.N,GND*%
X134290000Y-116764000D03*
%TD*%
D17*
%TO.P,J2,1*%
%TO.N,Net-(J2-Pad1)*%
X124000000Y-88000000D03*
D18*
%TO.P,J2,2*%
%TO.N,GND*%
X126540000Y-86730000D03*
%TO.P,J2,3*%
%TO.N,/MiddlePoint*%
X124000000Y-85460000D03*
%TO.P,J2,4*%
%TO.N,/ButtonPoint*%
X126540000Y-84190000D03*
%TO.P,J2,5*%
%TO.N,/PowInButt*%
X124000000Y-82920000D03*
%TO.P,J2,6*%
%TO.N,Net-(J2-Pad6)*%
X126540000Y-81650000D03*
%TD*%
D19*
%TO.P,J1,6*%
%TO.N,/usb_shield*%
X136150000Y-99427000D03*
X136150000Y-107177000D03*
D20*
X132350000Y-99577000D03*
X132350000Y-107027000D03*
%TD*%
D21*
%TO.P,SW1,*%
%TO.N,*%
X131975000Y-119705000D03*
D22*
%TO.P,SW1,1*%
%TO.N,/power_switch*%
X134465000Y-120955000D03*
%TO.P,SW1,2*%
%TO.N,GND*%
X134465000Y-125455000D03*
D21*
%TO.P,SW1,*%
%TO.N,*%
X131975000Y-126715000D03*
%TD*%
D23*
%TO.N,+3V3*%
X119267000Y-108890000D03*
X116510000Y-90348000D03*
X116764000Y-87046000D03*
X118270085Y-105568925D03*
D24*
%TO.N,GND*%
X126700000Y-88800000D03*
X124200000Y-90200000D03*
X124200000Y-111200000D03*
X129800000Y-88800000D03*
X129800000Y-111200000D03*
D23*
X119558000Y-125908000D03*
X110922000Y-125908000D03*
X116510000Y-118542000D03*
X112954000Y-117780000D03*
X118542000Y-113970000D03*
X131218923Y-102009658D03*
X133528000Y-102032000D03*
X132258000Y-101270000D03*
X109678500Y-118568500D03*
X125908000Y-107112000D03*
X86030000Y-104826000D03*
X90856000Y-104826000D03*
X86030000Y-109144000D03*
X90856000Y-109144000D03*
X82220000Y-123876000D03*
X115494000Y-106985000D03*
X134036000Y-93396000D03*
X133528000Y-96952000D03*
X115240000Y-84252000D03*
X113970000Y-84252000D03*
X112700000Y-84252000D03*
X113016186Y-83044186D03*
X112031500Y-81736756D03*
X109389000Y-76641000D03*
X105080000Y-80442010D03*
X118805000Y-84751000D03*
X97968000Y-86792000D03*
X97968000Y-82220000D03*
X113970000Y-113970000D03*
X120574000Y-120828000D03*
X120573984Y-110414000D03*
X109652000Y-86792000D03*
X76378000Y-118288000D03*
%TO.N,+5V*%
X137084000Y-93396000D03*
X135519000Y-97927000D03*
%TO.N,/WL_CS*%
X94412000Y-120853968D03*
X94418010Y-123247018D03*
%TO.N,/WL_MOSI*%
X93284987Y-123241000D03*
X93269000Y-120828000D03*
%TO.N,/SWCLK*%
X110160000Y-117018000D03*
X107370660Y-115244660D03*
%TO.N,/SWDIO*%
X114223000Y-112954000D03*
X111684000Y-112192000D03*
X104064000Y-115291966D03*
X103556000Y-118288000D03*
%TO.N,/NRST*%
X115494000Y-118542000D03*
X112192000Y-120828000D03*
%TO.N,/EN_PIN*%
X117545075Y-108909075D03*
X118092273Y-104259727D03*
%TD*%
D25*
%TO.N,+3V3*%
X119267000Y-108890000D02*
X119267000Y-106565840D01*
X119267000Y-106565840D02*
X118270085Y-105568925D01*
X116510000Y-87300000D02*
X116764000Y-87046000D01*
X116510000Y-90348000D02*
X116510000Y-87300000D01*
%TO.N,GND*%
X106096000Y-121082000D02*
X104826000Y-119812000D01*
X106096000Y-121082000D02*
X107366000Y-119812000D01*
X106096000Y-121082000D02*
X104826000Y-122352000D01*
X106096000Y-121082000D02*
X107366000Y-122352000D01*
D26*
%TO.N,+5V*%
X137084000Y-93396000D02*
X137084000Y-96362000D01*
X137084000Y-96362000D02*
X135519000Y-97927000D01*
D25*
%TO.N,/usb_shield*%
X132500000Y-107177000D02*
X132350000Y-107027000D01*
X136150000Y-107177000D02*
X132500000Y-107177000D01*
X136000000Y-99577000D02*
X136150000Y-99427000D01*
X132350000Y-99577000D02*
X136000000Y-99577000D01*
X136150000Y-99427000D02*
X136150000Y-107177000D01*
D27*
%TO.N,/WL_CS*%
X94412000Y-123241008D02*
X94418010Y-123247018D01*
X94412000Y-120853968D02*
X94412000Y-123241008D01*
%TO.N,/WL_MOSI*%
X93284987Y-120843987D02*
X93269000Y-120828000D01*
X93284987Y-123241000D02*
X93284987Y-120843987D01*
%TO.N,/SWCLK*%
X110160000Y-117018000D02*
X109144000Y-117018000D01*
X109144000Y-117018000D02*
X107370660Y-115244660D01*
%TO.N,/SWDIO*%
X114223000Y-112954000D02*
X113461000Y-112192000D01*
X113461000Y-112192000D02*
X111684000Y-112192000D01*
X103556000Y-115799966D02*
X103556000Y-118288000D01*
X104064000Y-115291966D02*
X103556000Y-115799966D01*
%TO.N,/NRST*%
X115494000Y-118542000D02*
X113208000Y-120828000D01*
X113208000Y-120828000D02*
X112192000Y-120828000D01*
%TO.N,/EN_PIN*%
X117545075Y-104806925D02*
X118092273Y-104259727D01*
X117545075Y-108909075D02*
X117545075Y-104806925D01*
%TD*%
D28*
%TO.N,GND*%
G36*
X131405701Y-72856905D02*
G01*
X131289989Y-73136257D01*
X131231000Y-73432816D01*
X131231000Y-73735184D01*
X131289989Y-74031743D01*
X131405701Y-74311095D01*
X131573688Y-74562505D01*
X131640127Y-74628944D01*
X131621820Y-74634498D01*
X131511506Y-74693463D01*
X131414815Y-74772815D01*
X131335463Y-74869506D01*
X131276498Y-74979820D01*
X131240188Y-75099518D01*
X131227928Y-75224000D01*
X131231000Y-75838250D01*
X131389750Y-75997000D01*
X132639000Y-75997000D01*
X132639000Y-75977000D01*
X132893000Y-75977000D01*
X132893000Y-75997000D01*
X134142250Y-75997000D01*
X134301000Y-75838250D01*
X134304072Y-75224000D01*
X134291812Y-75099518D01*
X134255502Y-74979820D01*
X134196537Y-74869506D01*
X134117185Y-74772815D01*
X134020494Y-74693463D01*
X133910180Y-74634498D01*
X133891873Y-74628944D01*
X133958312Y-74562505D01*
X134126299Y-74311095D01*
X134242011Y-74031743D01*
X134301000Y-73735184D01*
X134301000Y-73432816D01*
X134242011Y-73136257D01*
X134126299Y-72856905D01*
X133994731Y-72660000D01*
X137340001Y-72660000D01*
X137340001Y-92391645D01*
X137185939Y-92361000D01*
X136982061Y-92361000D01*
X136782102Y-92400774D01*
X136593744Y-92478795D01*
X136424226Y-92592063D01*
X136280063Y-92736226D01*
X136166795Y-92905744D01*
X136088774Y-93094102D01*
X136049000Y-93294061D01*
X136049000Y-93497939D01*
X136088774Y-93697898D01*
X136149000Y-93843296D01*
X136149001Y-95974709D01*
X135174142Y-96949569D01*
X135028744Y-97009795D01*
X134859226Y-97123063D01*
X134715063Y-97267226D01*
X134601795Y-97436744D01*
X134523774Y-97625102D01*
X134484000Y-97825061D01*
X134484000Y-98028939D01*
X134523774Y-98228898D01*
X134601795Y-98417256D01*
X134715063Y-98586774D01*
X134843688Y-98715399D01*
X134821857Y-98742000D01*
X133699088Y-98742000D01*
X133591318Y-98610682D01*
X133384231Y-98440730D01*
X133147968Y-98314445D01*
X132891607Y-98236678D01*
X132691809Y-98217000D01*
X132008191Y-98217000D01*
X131808393Y-98236678D01*
X131552032Y-98314445D01*
X131315769Y-98440730D01*
X131108682Y-98610682D01*
X130938730Y-98817769D01*
X130812445Y-99054032D01*
X130734678Y-99310393D01*
X130708420Y-99577000D01*
X130734678Y-99843607D01*
X130812445Y-100099968D01*
X130938730Y-100336231D01*
X131108682Y-100543318D01*
X131315769Y-100713270D01*
X131552032Y-100839555D01*
X131808393Y-100917322D01*
X132008191Y-100937000D01*
X132371576Y-100937000D01*
X132404774Y-101103898D01*
X132482795Y-101292256D01*
X132596063Y-101461774D01*
X132740226Y-101605937D01*
X132909744Y-101719205D01*
X133098102Y-101797226D01*
X133298061Y-101837000D01*
X133501939Y-101837000D01*
X133701898Y-101797226D01*
X133890256Y-101719205D01*
X134059774Y-101605937D01*
X134203937Y-101461774D01*
X134317205Y-101292256D01*
X134395226Y-101103898D01*
X134435000Y-100903939D01*
X134435000Y-100700061D01*
X134395226Y-100500102D01*
X134358733Y-100412000D01*
X135117893Y-100412000D01*
X135149508Y-100437946D01*
X135315000Y-100526403D01*
X135315001Y-106077596D01*
X135149508Y-106166054D01*
X134965261Y-106317261D01*
X134944958Y-106342000D01*
X134283967Y-106342000D01*
X134317205Y-106292256D01*
X134395226Y-106103898D01*
X134435000Y-105903939D01*
X134435000Y-105700061D01*
X134395226Y-105500102D01*
X134317205Y-105311744D01*
X134203937Y-105142226D01*
X134059774Y-104998063D01*
X133890256Y-104884795D01*
X133701898Y-104806774D01*
X133501939Y-104767000D01*
X133298061Y-104767000D01*
X133098102Y-104806774D01*
X132909744Y-104884795D01*
X132740226Y-104998063D01*
X132596063Y-105142226D01*
X132482795Y-105311744D01*
X132404774Y-105500102D01*
X132371576Y-105667000D01*
X132008191Y-105667000D01*
X131808393Y-105686678D01*
X131552032Y-105764445D01*
X131315769Y-105890730D01*
X131108682Y-106060682D01*
X130938730Y-106267769D01*
X130812445Y-106504032D01*
X130734678Y-106760393D01*
X130708420Y-107027000D01*
X130734678Y-107293607D01*
X130812445Y-107549968D01*
X130938730Y-107786231D01*
X131108682Y-107993318D01*
X131315769Y-108163270D01*
X131552032Y-108289555D01*
X131808393Y-108367322D01*
X132008191Y-108387000D01*
X132691809Y-108387000D01*
X132891607Y-108367322D01*
X133147968Y-108289555D01*
X133384231Y-108163270D01*
X133568554Y-108012000D01*
X134944958Y-108012000D01*
X134965261Y-108036739D01*
X135149508Y-108187946D01*
X135359713Y-108300303D01*
X135587799Y-108369492D01*
X135765563Y-108387000D01*
X136534437Y-108387000D01*
X136712201Y-108369492D01*
X136940287Y-108300303D01*
X137150492Y-108187946D01*
X137334739Y-108036739D01*
X137340000Y-108030328D01*
X137340000Y-127340000D01*
X133539947Y-127340000D01*
X133595246Y-127206496D01*
X133660000Y-126880958D01*
X133660000Y-126693517D01*
X133679025Y-126752868D01*
X133947329Y-126881267D01*
X134235526Y-126954855D01*
X134532543Y-126970804D01*
X134826963Y-126928501D01*
X135107474Y-126829572D01*
X135250975Y-126752868D01*
X135331635Y-126501240D01*
X134465000Y-125634605D01*
X134450858Y-125648748D01*
X134271253Y-125469143D01*
X134285395Y-125455000D01*
X134644605Y-125455000D01*
X135511240Y-126321635D01*
X135762868Y-126240975D01*
X135891267Y-125972671D01*
X135964855Y-125684474D01*
X135980804Y-125387457D01*
X135938501Y-125093037D01*
X135839572Y-124812526D01*
X135762868Y-124669025D01*
X135511240Y-124588365D01*
X134644605Y-125455000D01*
X134285395Y-125455000D01*
X133418760Y-124588365D01*
X133167132Y-124669025D01*
X133038733Y-124937329D01*
X132965145Y-125225526D01*
X132958689Y-125345748D01*
X132773147Y-125221772D01*
X132466496Y-125094754D01*
X132140958Y-125030000D01*
X131809042Y-125030000D01*
X131483504Y-125094754D01*
X131176853Y-125221772D01*
X130900875Y-125406175D01*
X130666175Y-125640875D01*
X130481772Y-125916853D01*
X130354754Y-126223504D01*
X130290000Y-126549042D01*
X130290000Y-126880958D01*
X130354754Y-127206496D01*
X130410053Y-127340000D01*
X107490699Y-127340000D01*
X107535502Y-127256180D01*
X107571812Y-127136482D01*
X107584072Y-127012000D01*
X107584072Y-125312000D01*
X107571812Y-125187518D01*
X107535502Y-125067820D01*
X107476537Y-124957506D01*
X107397185Y-124860815D01*
X107306416Y-124786323D01*
X122830497Y-124786323D01*
X122830497Y-125213677D01*
X122913870Y-125632821D01*
X123077412Y-126027645D01*
X123314837Y-126382977D01*
X123617023Y-126685163D01*
X123972355Y-126922588D01*
X124367179Y-127086130D01*
X124786323Y-127169503D01*
X125213677Y-127169503D01*
X125632821Y-127086130D01*
X126027645Y-126922588D01*
X126382977Y-126685163D01*
X126685163Y-126382977D01*
X126922588Y-126027645D01*
X127086130Y-125632821D01*
X127169503Y-125213677D01*
X127169503Y-124786323D01*
X127094401Y-124408760D01*
X133598365Y-124408760D01*
X134465000Y-125275395D01*
X135331635Y-124408760D01*
X135250975Y-124157132D01*
X134982671Y-124028733D01*
X134694474Y-123955145D01*
X134397457Y-123939196D01*
X134103037Y-123981499D01*
X133822526Y-124080428D01*
X133679025Y-124157132D01*
X133598365Y-124408760D01*
X127094401Y-124408760D01*
X127086130Y-124367179D01*
X126922588Y-123972355D01*
X126685163Y-123617023D01*
X126382977Y-123314837D01*
X126027645Y-123077412D01*
X125632821Y-122913870D01*
X125213677Y-122830497D01*
X124786323Y-122830497D01*
X124367179Y-122913870D01*
X123972355Y-123077412D01*
X123617023Y-123314837D01*
X123314837Y-123617023D01*
X123077412Y-123972355D01*
X122913870Y-124367179D01*
X122830497Y-124786323D01*
X107306416Y-124786323D01*
X107300494Y-124781463D01*
X107190180Y-124722498D01*
X107117620Y-124700487D01*
X107249475Y-124568632D01*
X107411990Y-124325411D01*
X107523932Y-124055158D01*
X107581000Y-123768260D01*
X107581000Y-123475740D01*
X107523932Y-123188842D01*
X107411990Y-122918589D01*
X107249475Y-122675368D01*
X107042632Y-122468525D01*
X106860466Y-122346805D01*
X106977355Y-122277178D01*
X107193588Y-122082269D01*
X107367641Y-121848920D01*
X107492825Y-121586099D01*
X107537476Y-121438890D01*
X107416155Y-121209000D01*
X106223000Y-121209000D01*
X106223000Y-121229000D01*
X105969000Y-121229000D01*
X105969000Y-121209000D01*
X104775845Y-121209000D01*
X104654524Y-121438890D01*
X104699175Y-121586099D01*
X104824359Y-121848920D01*
X104998412Y-122082269D01*
X105214645Y-122277178D01*
X105331534Y-122346805D01*
X105149368Y-122468525D01*
X104942525Y-122675368D01*
X104780010Y-122918589D01*
X104668068Y-123188842D01*
X104611000Y-123475740D01*
X104611000Y-123768260D01*
X104668068Y-124055158D01*
X104780010Y-124325411D01*
X104942525Y-124568632D01*
X105074380Y-124700487D01*
X105001820Y-124722498D01*
X104891506Y-124781463D01*
X104794815Y-124860815D01*
X104715463Y-124957506D01*
X104656498Y-125067820D01*
X104620188Y-125187518D01*
X104607928Y-125312000D01*
X104607928Y-127012000D01*
X104620188Y-127136482D01*
X104656498Y-127256180D01*
X104701301Y-127340000D01*
X75660000Y-127340000D01*
X75660000Y-127049198D01*
X75790476Y-127007809D01*
X75845412Y-126984263D01*
X75900764Y-126961449D01*
X75908870Y-126957065D01*
X76165408Y-126816032D01*
X76214753Y-126782245D01*
X76264591Y-126749133D01*
X76271691Y-126743259D01*
X76495949Y-126555084D01*
X76537793Y-126512354D01*
X76580248Y-126470195D01*
X76586072Y-126463053D01*
X76769509Y-126234903D01*
X76802251Y-126184869D01*
X76835714Y-126135258D01*
X76840040Y-126127122D01*
X76975670Y-125867687D01*
X76998082Y-125812215D01*
X77021260Y-125757077D01*
X77023923Y-125748255D01*
X77106578Y-125467417D01*
X77117785Y-125408669D01*
X77129816Y-125350059D01*
X77130715Y-125340888D01*
X77157247Y-125049344D01*
X77156829Y-124989528D01*
X77157247Y-124929712D01*
X77156348Y-124920541D01*
X77125748Y-124629395D01*
X77113710Y-124570753D01*
X77102510Y-124512037D01*
X77099847Y-124503216D01*
X77013279Y-124223560D01*
X76990101Y-124168422D01*
X76967689Y-124112950D01*
X76963362Y-124104814D01*
X76824123Y-123847298D01*
X76790701Y-123797749D01*
X76757920Y-123747653D01*
X76752095Y-123740512D01*
X76565490Y-123514945D01*
X76523054Y-123472804D01*
X76481191Y-123430055D01*
X76474091Y-123424181D01*
X76247227Y-123239155D01*
X76197408Y-123206055D01*
X76148045Y-123172256D01*
X76139939Y-123167873D01*
X75881458Y-123030436D01*
X75826164Y-123007645D01*
X75771171Y-122984075D01*
X75762368Y-122981350D01*
X75660000Y-122950443D01*
X75660000Y-120726061D01*
X92234000Y-120726061D01*
X92234000Y-120929939D01*
X92273774Y-121129898D01*
X92351795Y-121318256D01*
X92465063Y-121487774D01*
X92524988Y-121547699D01*
X92524987Y-122537289D01*
X92481050Y-122581226D01*
X92367782Y-122750744D01*
X92289761Y-122939102D01*
X92249987Y-123139061D01*
X92249987Y-123342939D01*
X92289761Y-123542898D01*
X92367782Y-123731256D01*
X92481050Y-123900774D01*
X92625213Y-124044937D01*
X92794731Y-124158205D01*
X92983089Y-124236226D01*
X93183048Y-124276000D01*
X93386926Y-124276000D01*
X93586885Y-124236226D01*
X93775243Y-124158205D01*
X93846995Y-124110262D01*
X93927754Y-124164223D01*
X94116112Y-124242244D01*
X94316071Y-124282018D01*
X94519949Y-124282018D01*
X94719908Y-124242244D01*
X94908266Y-124164223D01*
X95077784Y-124050955D01*
X95221947Y-123906792D01*
X95335215Y-123737274D01*
X95413236Y-123548916D01*
X95453010Y-123348957D01*
X95453010Y-123145079D01*
X95413236Y-122945120D01*
X95335215Y-122756762D01*
X95221947Y-122587244D01*
X95172000Y-122537297D01*
X95172000Y-121557679D01*
X95215937Y-121513742D01*
X95329205Y-121344224D01*
X95407226Y-121155866D01*
X95447000Y-120955907D01*
X95447000Y-120752029D01*
X95407226Y-120552070D01*
X95329205Y-120363712D01*
X95215937Y-120194194D01*
X95071774Y-120050031D01*
X94902256Y-119936763D01*
X94713898Y-119858742D01*
X94513939Y-119818968D01*
X94310061Y-119818968D01*
X94110102Y-119858742D01*
X93921744Y-119936763D01*
X93859932Y-119978064D01*
X93759256Y-119910795D01*
X93570898Y-119832774D01*
X93370939Y-119793000D01*
X93167061Y-119793000D01*
X92967102Y-119832774D01*
X92778744Y-119910795D01*
X92609226Y-120024063D01*
X92465063Y-120168226D01*
X92351795Y-120337744D01*
X92273774Y-120526102D01*
X92234000Y-120726061D01*
X75660000Y-120726061D01*
X75660000Y-118186061D01*
X102521000Y-118186061D01*
X102521000Y-118389939D01*
X102560774Y-118589898D01*
X102638795Y-118778256D01*
X102752063Y-118947774D01*
X102896226Y-119091937D01*
X103065744Y-119205205D01*
X103254102Y-119283226D01*
X103454061Y-119323000D01*
X103657939Y-119323000D01*
X103857898Y-119283226D01*
X104046256Y-119205205D01*
X104215774Y-119091937D01*
X104359937Y-118947774D01*
X104473205Y-118778256D01*
X104551226Y-118589898D01*
X104589846Y-118395740D01*
X104611000Y-118395740D01*
X104611000Y-118688260D01*
X104668068Y-118975158D01*
X104780010Y-119245411D01*
X104942525Y-119488632D01*
X105149368Y-119695475D01*
X105331534Y-119817195D01*
X105214645Y-119886822D01*
X104998412Y-120081731D01*
X104824359Y-120315080D01*
X104699175Y-120577901D01*
X104654524Y-120725110D01*
X104775845Y-120955000D01*
X105969000Y-120955000D01*
X105969000Y-120935000D01*
X106223000Y-120935000D01*
X106223000Y-120955000D01*
X107416155Y-120955000D01*
X107536974Y-120726061D01*
X111157000Y-120726061D01*
X111157000Y-120929939D01*
X111196774Y-121129898D01*
X111274795Y-121318256D01*
X111388063Y-121487774D01*
X111532226Y-121631937D01*
X111701744Y-121745205D01*
X111890102Y-121823226D01*
X112090061Y-121863000D01*
X112293939Y-121863000D01*
X112493898Y-121823226D01*
X112682256Y-121745205D01*
X112851774Y-121631937D01*
X112895711Y-121588000D01*
X113170678Y-121588000D01*
X113208000Y-121591676D01*
X113245322Y-121588000D01*
X113245333Y-121588000D01*
X113356986Y-121577003D01*
X113500247Y-121533546D01*
X113632276Y-121462974D01*
X113748001Y-121368001D01*
X113771804Y-121338997D01*
X115533802Y-119577000D01*
X115595939Y-119577000D01*
X115795898Y-119537226D01*
X115984256Y-119459205D01*
X116153774Y-119345937D01*
X116297937Y-119201774D01*
X116411205Y-119032256D01*
X116489226Y-118843898D01*
X116529000Y-118643939D01*
X116529000Y-118440061D01*
X116489226Y-118240102D01*
X116411205Y-118051744D01*
X116297937Y-117882226D01*
X116153774Y-117738063D01*
X115984256Y-117624795D01*
X115795898Y-117546774D01*
X115595939Y-117507000D01*
X115392061Y-117507000D01*
X115192102Y-117546774D01*
X115003744Y-117624795D01*
X114834226Y-117738063D01*
X114690063Y-117882226D01*
X114576795Y-118051744D01*
X114498774Y-118240102D01*
X114459000Y-118440061D01*
X114459000Y-118502198D01*
X112894455Y-120066744D01*
X112851774Y-120024063D01*
X112682256Y-119910795D01*
X112493898Y-119832774D01*
X112293939Y-119793000D01*
X112090061Y-119793000D01*
X111890102Y-119832774D01*
X111701744Y-119910795D01*
X111532226Y-120024063D01*
X111388063Y-120168226D01*
X111274795Y-120337744D01*
X111196774Y-120526102D01*
X111157000Y-120726061D01*
X107536974Y-120726061D01*
X107537476Y-120725110D01*
X107492825Y-120577901D01*
X107367641Y-120315080D01*
X107193588Y-120081731D01*
X106977355Y-119886822D01*
X106860466Y-119817195D01*
X107042632Y-119695475D01*
X107249475Y-119488632D01*
X107411990Y-119245411D01*
X107523932Y-118975158D01*
X107581000Y-118688260D01*
X107581000Y-118395740D01*
X107523932Y-118108842D01*
X107411990Y-117838589D01*
X107249475Y-117595368D01*
X107042632Y-117388525D01*
X106799411Y-117226010D01*
X106529158Y-117114068D01*
X106242260Y-117057000D01*
X105949740Y-117057000D01*
X105662842Y-117114068D01*
X105392589Y-117226010D01*
X105149368Y-117388525D01*
X104942525Y-117595368D01*
X104780010Y-117838589D01*
X104668068Y-118108842D01*
X104611000Y-118395740D01*
X104589846Y-118395740D01*
X104591000Y-118389939D01*
X104591000Y-118186061D01*
X104551226Y-117986102D01*
X104473205Y-117797744D01*
X104359937Y-117628226D01*
X104316000Y-117584289D01*
X104316000Y-116297117D01*
X104365898Y-116287192D01*
X104554256Y-116209171D01*
X104723774Y-116095903D01*
X104867937Y-115951740D01*
X104981205Y-115782222D01*
X105059226Y-115593864D01*
X105099000Y-115393905D01*
X105099000Y-115190027D01*
X105059226Y-114990068D01*
X104981205Y-114801710D01*
X104867937Y-114632192D01*
X104723774Y-114488029D01*
X104554256Y-114374761D01*
X104365898Y-114296740D01*
X104165939Y-114256966D01*
X103962061Y-114256966D01*
X103762102Y-114296740D01*
X103573744Y-114374761D01*
X103404226Y-114488029D01*
X103260063Y-114632192D01*
X103146795Y-114801710D01*
X103068774Y-114990068D01*
X103029000Y-115190027D01*
X103029000Y-115249295D01*
X103015999Y-115259965D01*
X102989736Y-115291967D01*
X102921026Y-115375690D01*
X102850591Y-115507463D01*
X102850454Y-115507720D01*
X102806997Y-115650981D01*
X102796000Y-115762634D01*
X102796000Y-115762644D01*
X102792324Y-115799966D01*
X102796000Y-115837289D01*
X102796001Y-117584288D01*
X102752063Y-117628226D01*
X102638795Y-117797744D01*
X102560774Y-117986102D01*
X102521000Y-118186061D01*
X75660000Y-118186061D01*
X75660000Y-113315740D01*
X104611000Y-113315740D01*
X104611000Y-113608260D01*
X104668068Y-113895158D01*
X104780010Y-114165411D01*
X104942525Y-114408632D01*
X105149368Y-114615475D01*
X105392589Y-114777990D01*
X105662842Y-114889932D01*
X105949740Y-114947000D01*
X106242260Y-114947000D01*
X106385479Y-114918512D01*
X106375434Y-114942762D01*
X106335660Y-115142721D01*
X106335660Y-115346599D01*
X106375434Y-115546558D01*
X106453455Y-115734916D01*
X106566723Y-115904434D01*
X106710886Y-116048597D01*
X106880404Y-116161865D01*
X107068762Y-116239886D01*
X107268721Y-116279660D01*
X107330858Y-116279660D01*
X108580205Y-117529008D01*
X108603999Y-117558001D01*
X108632992Y-117581795D01*
X108632996Y-117581799D01*
X108685388Y-117624795D01*
X108719724Y-117652974D01*
X108851753Y-117723546D01*
X108995014Y-117767003D01*
X109106667Y-117778000D01*
X109106676Y-117778000D01*
X109143999Y-117781676D01*
X109181322Y-117778000D01*
X109456289Y-117778000D01*
X109500226Y-117821937D01*
X109669744Y-117935205D01*
X109858102Y-118013226D01*
X110058061Y-118053000D01*
X110261939Y-118053000D01*
X110461898Y-118013226D01*
X110650256Y-117935205D01*
X110819774Y-117821937D01*
X110963937Y-117677774D01*
X111077205Y-117508256D01*
X111155226Y-117319898D01*
X111195000Y-117119939D01*
X111195000Y-116916061D01*
X111155226Y-116716102D01*
X111132986Y-116662408D01*
X122803000Y-116662408D01*
X122803000Y-116937592D01*
X122856686Y-117207490D01*
X122961995Y-117461727D01*
X123114880Y-117690535D01*
X123309465Y-117885120D01*
X123538273Y-118038005D01*
X123792510Y-118143314D01*
X124062408Y-118197000D01*
X124337592Y-118197000D01*
X124607490Y-118143314D01*
X124861727Y-118038005D01*
X125090535Y-117885120D01*
X125285120Y-117690535D01*
X125438005Y-117461727D01*
X125470000Y-117384485D01*
X125501995Y-117461727D01*
X125654880Y-117690535D01*
X125849465Y-117885120D01*
X126078273Y-118038005D01*
X126332510Y-118143314D01*
X126602408Y-118197000D01*
X126877592Y-118197000D01*
X127147490Y-118143314D01*
X127401727Y-118038005D01*
X127630535Y-117885120D01*
X127825120Y-117690535D01*
X127978005Y-117461727D01*
X128010000Y-117384485D01*
X128041995Y-117461727D01*
X128194880Y-117690535D01*
X128389465Y-117885120D01*
X128618273Y-118038005D01*
X128872510Y-118143314D01*
X129142408Y-118197000D01*
X129417592Y-118197000D01*
X129687490Y-118143314D01*
X129941727Y-118038005D01*
X130170535Y-117885120D01*
X130365120Y-117690535D01*
X130423920Y-117602535D01*
X130432188Y-117686482D01*
X130468498Y-117806180D01*
X130527463Y-117916494D01*
X130606815Y-118013185D01*
X130703506Y-118092537D01*
X130813820Y-118151502D01*
X130933518Y-118187812D01*
X131058000Y-118200072D01*
X131207427Y-118199108D01*
X131176853Y-118211772D01*
X130900875Y-118396175D01*
X130666175Y-118630875D01*
X130481772Y-118906853D01*
X130354754Y-119213504D01*
X130290000Y-119539042D01*
X130290000Y-119870958D01*
X130354754Y-120196496D01*
X130481772Y-120503147D01*
X130666175Y-120779125D01*
X130900875Y-121013825D01*
X131176853Y-121198228D01*
X131483504Y-121325246D01*
X131809042Y-121390000D01*
X132140958Y-121390000D01*
X132466496Y-121325246D01*
X132773147Y-121198228D01*
X132955000Y-121076717D01*
X132955000Y-121103722D01*
X133013029Y-121395451D01*
X133126856Y-121670253D01*
X133292107Y-121917569D01*
X133502431Y-122127893D01*
X133749747Y-122293144D01*
X134024549Y-122406971D01*
X134316278Y-122465000D01*
X134613722Y-122465000D01*
X134905451Y-122406971D01*
X135180253Y-122293144D01*
X135427569Y-122127893D01*
X135637893Y-121917569D01*
X135803144Y-121670253D01*
X135916971Y-121395451D01*
X135975000Y-121103722D01*
X135975000Y-120806278D01*
X135916971Y-120514549D01*
X135803144Y-120239747D01*
X135637893Y-119992431D01*
X135427569Y-119782107D01*
X135180253Y-119616856D01*
X134905451Y-119503029D01*
X134613722Y-119445000D01*
X134316278Y-119445000D01*
X134024549Y-119503029D01*
X133749747Y-119616856D01*
X133660000Y-119676823D01*
X133660000Y-119539042D01*
X133595246Y-119213504D01*
X133468228Y-118906853D01*
X133283825Y-118630875D01*
X133049125Y-118396175D01*
X132773147Y-118211772D01*
X132711573Y-118186268D01*
X132826180Y-118151502D01*
X132925188Y-118098580D01*
X132938815Y-118115185D01*
X133035506Y-118194537D01*
X133145820Y-118253502D01*
X133265518Y-118289812D01*
X133390000Y-118302072D01*
X134004250Y-118299000D01*
X134163000Y-118140250D01*
X134163000Y-116891000D01*
X134417000Y-116891000D01*
X134417000Y-118140250D01*
X134575750Y-118299000D01*
X135190000Y-118302072D01*
X135314482Y-118289812D01*
X135434180Y-118253502D01*
X135544494Y-118194537D01*
X135641185Y-118115185D01*
X135720537Y-118018494D01*
X135779502Y-117908180D01*
X135815812Y-117788482D01*
X135828072Y-117664000D01*
X135825000Y-117049750D01*
X135666250Y-116891000D01*
X134417000Y-116891000D01*
X134163000Y-116891000D01*
X132913750Y-116891000D01*
X132877750Y-116927000D01*
X131947000Y-116927000D01*
X131947000Y-116947000D01*
X131693000Y-116947000D01*
X131693000Y-116927000D01*
X131673000Y-116927000D01*
X131673000Y-116673000D01*
X131693000Y-116673000D01*
X131693000Y-115561750D01*
X131947000Y-115561750D01*
X131947000Y-116673000D01*
X133058250Y-116673000D01*
X133094250Y-116637000D01*
X134163000Y-116637000D01*
X134163000Y-116617000D01*
X134417000Y-116617000D01*
X134417000Y-116637000D01*
X135666250Y-116637000D01*
X135825000Y-116478250D01*
X135828072Y-115864000D01*
X135815812Y-115739518D01*
X135779502Y-115619820D01*
X135720537Y-115509506D01*
X135641185Y-115412815D01*
X135544494Y-115333463D01*
X135434180Y-115274498D01*
X135415873Y-115268944D01*
X135482312Y-115202505D01*
X135650299Y-114951095D01*
X135766011Y-114671743D01*
X135825000Y-114375184D01*
X135825000Y-114072816D01*
X135766011Y-113776257D01*
X135650299Y-113496905D01*
X135482312Y-113245495D01*
X135268505Y-113031688D01*
X135017095Y-112863701D01*
X134737743Y-112747989D01*
X134441184Y-112689000D01*
X134138816Y-112689000D01*
X133842257Y-112747989D01*
X133562905Y-112863701D01*
X133311495Y-113031688D01*
X133097688Y-113245495D01*
X132929701Y-113496905D01*
X132813989Y-113776257D01*
X132755000Y-114072816D01*
X132755000Y-114375184D01*
X132813989Y-114671743D01*
X132929701Y-114951095D01*
X133097688Y-115202505D01*
X133164127Y-115268944D01*
X133145820Y-115274498D01*
X133035506Y-115333463D01*
X132938815Y-115412815D01*
X132884116Y-115479466D01*
X132826180Y-115448498D01*
X132706482Y-115412188D01*
X132582000Y-115399928D01*
X132105750Y-115403000D01*
X131947000Y-115561750D01*
X131693000Y-115561750D01*
X131534250Y-115403000D01*
X131058000Y-115399928D01*
X130933518Y-115412188D01*
X130813820Y-115448498D01*
X130703506Y-115507463D01*
X130606815Y-115586815D01*
X130527463Y-115683506D01*
X130468498Y-115793820D01*
X130432188Y-115913518D01*
X130423920Y-115997465D01*
X130365120Y-115909465D01*
X130170535Y-115714880D01*
X129941727Y-115561995D01*
X129687490Y-115456686D01*
X129417592Y-115403000D01*
X129142408Y-115403000D01*
X128872510Y-115456686D01*
X128618273Y-115561995D01*
X128389465Y-115714880D01*
X128194880Y-115909465D01*
X128041995Y-116138273D01*
X128010000Y-116215515D01*
X127978005Y-116138273D01*
X127825120Y-115909465D01*
X127630535Y-115714880D01*
X127401727Y-115561995D01*
X127147490Y-115456686D01*
X126877592Y-115403000D01*
X126602408Y-115403000D01*
X126332510Y-115456686D01*
X126078273Y-115561995D01*
X125849465Y-115714880D01*
X125654880Y-115909465D01*
X125501995Y-116138273D01*
X125470000Y-116215515D01*
X125438005Y-116138273D01*
X125285120Y-115909465D01*
X125090535Y-115714880D01*
X124861727Y-115561995D01*
X124607490Y-115456686D01*
X124337592Y-115403000D01*
X124062408Y-115403000D01*
X123792510Y-115456686D01*
X123538273Y-115561995D01*
X123309465Y-115714880D01*
X123114880Y-115909465D01*
X122961995Y-116138273D01*
X122856686Y-116392510D01*
X122803000Y-116662408D01*
X111132986Y-116662408D01*
X111077205Y-116527744D01*
X110963937Y-116358226D01*
X110819774Y-116214063D01*
X110650256Y-116100795D01*
X110461898Y-116022774D01*
X110261939Y-115983000D01*
X110058061Y-115983000D01*
X109858102Y-116022774D01*
X109669744Y-116100795D01*
X109500226Y-116214063D01*
X109457546Y-116256743D01*
X108405660Y-115204858D01*
X108405660Y-115142721D01*
X108365886Y-114942762D01*
X108287865Y-114754404D01*
X108174597Y-114584886D01*
X108030434Y-114440723D01*
X107860916Y-114327455D01*
X107672558Y-114249434D01*
X107472599Y-114209660D01*
X107382424Y-114209660D01*
X107411990Y-114165411D01*
X107523932Y-113895158D01*
X107581000Y-113608260D01*
X107581000Y-113315740D01*
X107523932Y-113028842D01*
X107411990Y-112758589D01*
X107249475Y-112515368D01*
X107042632Y-112308525D01*
X106799411Y-112146010D01*
X106664338Y-112090061D01*
X110649000Y-112090061D01*
X110649000Y-112293939D01*
X110688774Y-112493898D01*
X110766795Y-112682256D01*
X110880063Y-112851774D01*
X111024226Y-112995937D01*
X111193744Y-113109205D01*
X111382102Y-113187226D01*
X111582061Y-113227000D01*
X111785939Y-113227000D01*
X111985898Y-113187226D01*
X112174256Y-113109205D01*
X112343774Y-112995937D01*
X112387711Y-112952000D01*
X113146199Y-112952000D01*
X113188000Y-112993801D01*
X113188000Y-113055939D01*
X113227774Y-113255898D01*
X113305795Y-113444256D01*
X113419063Y-113613774D01*
X113563226Y-113757937D01*
X113732744Y-113871205D01*
X113921102Y-113949226D01*
X114121061Y-113989000D01*
X114324939Y-113989000D01*
X114524898Y-113949226D01*
X114713256Y-113871205D01*
X114882774Y-113757937D01*
X115026937Y-113613774D01*
X115140205Y-113444256D01*
X115218226Y-113255898D01*
X115258000Y-113055939D01*
X115258000Y-112852061D01*
X115218226Y-112652102D01*
X115140205Y-112463744D01*
X115026937Y-112294226D01*
X114882774Y-112150063D01*
X114713256Y-112036795D01*
X114524898Y-111958774D01*
X114324939Y-111919000D01*
X114262801Y-111919000D01*
X114024803Y-111681002D01*
X114001001Y-111651999D01*
X113885276Y-111557026D01*
X113753247Y-111486454D01*
X113609986Y-111442997D01*
X113498333Y-111432000D01*
X113498322Y-111432000D01*
X113461000Y-111428324D01*
X113423678Y-111432000D01*
X112387711Y-111432000D01*
X112343774Y-111388063D01*
X112174256Y-111274795D01*
X111985898Y-111196774D01*
X111785939Y-111157000D01*
X111582061Y-111157000D01*
X111382102Y-111196774D01*
X111193744Y-111274795D01*
X111024226Y-111388063D01*
X110880063Y-111532226D01*
X110766795Y-111701744D01*
X110688774Y-111890102D01*
X110649000Y-112090061D01*
X106664338Y-112090061D01*
X106529158Y-112034068D01*
X106242260Y-111977000D01*
X105949740Y-111977000D01*
X105662842Y-112034068D01*
X105392589Y-112146010D01*
X105149368Y-112308525D01*
X104942525Y-112515368D01*
X104780010Y-112758589D01*
X104668068Y-113028842D01*
X104611000Y-113315740D01*
X75660000Y-113315740D01*
X75660000Y-104127000D01*
X94047768Y-104127000D01*
X94307645Y-104812238D01*
X94965656Y-106065973D01*
X95769990Y-107231251D01*
X96708918Y-108291082D01*
X97768749Y-109230010D01*
X98934027Y-110034344D01*
X100187762Y-110692355D01*
X101511669Y-111194447D01*
X102886445Y-111533298D01*
X104292040Y-111703969D01*
X105707960Y-111703969D01*
X107113555Y-111533298D01*
X108488331Y-111194447D01*
X109812238Y-110692355D01*
X111065973Y-110034344D01*
X112231251Y-109230010D01*
X112708577Y-108807136D01*
X116510075Y-108807136D01*
X116510075Y-109011014D01*
X116549849Y-109210973D01*
X116627870Y-109399331D01*
X116741138Y-109568849D01*
X116885301Y-109713012D01*
X117054819Y-109826280D01*
X117243177Y-109904301D01*
X117443136Y-109944075D01*
X117647014Y-109944075D01*
X117846973Y-109904301D01*
X118035331Y-109826280D01*
X118204849Y-109713012D01*
X118349012Y-109568849D01*
X118412410Y-109473967D01*
X118463063Y-109549774D01*
X118607226Y-109693937D01*
X118776744Y-109807205D01*
X118965102Y-109885226D01*
X119165061Y-109925000D01*
X119368939Y-109925000D01*
X119568898Y-109885226D01*
X119757256Y-109807205D01*
X119926774Y-109693937D01*
X120070937Y-109549774D01*
X120184205Y-109380256D01*
X120262226Y-109191898D01*
X120302000Y-108991939D01*
X120302000Y-108788061D01*
X120262226Y-108588102D01*
X120184205Y-108399744D01*
X120102000Y-108276715D01*
X120102000Y-106606858D01*
X120106040Y-106565840D01*
X120089918Y-106402152D01*
X120042172Y-106244753D01*
X119964636Y-106099694D01*
X119886439Y-106004410D01*
X119886437Y-106004408D01*
X119860291Y-105972549D01*
X119828432Y-105946403D01*
X119294177Y-105412150D01*
X119265311Y-105267027D01*
X119187290Y-105078669D01*
X119074022Y-104909151D01*
X118971577Y-104806706D01*
X119009478Y-104749983D01*
X119087499Y-104561625D01*
X119127273Y-104361666D01*
X119127273Y-104157788D01*
X119087499Y-103957829D01*
X119009478Y-103769471D01*
X118896210Y-103599953D01*
X118752047Y-103455790D01*
X118582529Y-103342522D01*
X118394171Y-103264501D01*
X118194212Y-103224727D01*
X117990334Y-103224727D01*
X117790375Y-103264501D01*
X117602017Y-103342522D01*
X117432499Y-103455790D01*
X117288336Y-103599953D01*
X117175068Y-103769471D01*
X117097047Y-103957829D01*
X117057273Y-104157788D01*
X117057273Y-104219926D01*
X117034073Y-104243126D01*
X117005075Y-104266924D01*
X116981277Y-104295922D01*
X116981276Y-104295923D01*
X116910101Y-104382649D01*
X116839529Y-104514679D01*
X116825289Y-104561625D01*
X116796073Y-104657939D01*
X116785331Y-104767000D01*
X116781399Y-104806925D01*
X116785076Y-104844257D01*
X116785075Y-108205364D01*
X116741138Y-108249301D01*
X116627870Y-108418819D01*
X116549849Y-108607177D01*
X116510075Y-108807136D01*
X112708577Y-108807136D01*
X113291082Y-108291082D01*
X114230010Y-107231251D01*
X115034344Y-106065973D01*
X115692355Y-104812238D01*
X116194447Y-103488331D01*
X116533298Y-102113555D01*
X116703969Y-100707960D01*
X116703969Y-99848890D01*
X118370524Y-99848890D01*
X118415175Y-99996099D01*
X118540359Y-100258920D01*
X118714412Y-100492269D01*
X118930645Y-100687178D01*
X119180748Y-100836157D01*
X119455109Y-100933481D01*
X119685000Y-100812814D01*
X119685000Y-99619000D01*
X119939000Y-99619000D01*
X119939000Y-100812814D01*
X120168891Y-100933481D01*
X120443252Y-100836157D01*
X120693355Y-100687178D01*
X120909588Y-100492269D01*
X121083641Y-100258920D01*
X121208825Y-99996099D01*
X121253476Y-99848890D01*
X121132155Y-99619000D01*
X119939000Y-99619000D01*
X119685000Y-99619000D01*
X118491845Y-99619000D01*
X118370524Y-99848890D01*
X116703969Y-99848890D01*
X116703969Y-99292040D01*
X116533298Y-97886445D01*
X116194447Y-96511669D01*
X116039080Y-96102000D01*
X118323928Y-96102000D01*
X118323928Y-97802000D01*
X118336188Y-97926482D01*
X118372498Y-98046180D01*
X118431463Y-98156494D01*
X118510815Y-98253185D01*
X118607506Y-98332537D01*
X118717820Y-98391502D01*
X118798466Y-98415966D01*
X118714412Y-98491731D01*
X118540359Y-98725080D01*
X118415175Y-98987901D01*
X118370524Y-99135110D01*
X118491845Y-99365000D01*
X119685000Y-99365000D01*
X119685000Y-99345000D01*
X119939000Y-99345000D01*
X119939000Y-99365000D01*
X121132155Y-99365000D01*
X121253476Y-99135110D01*
X121208825Y-98987901D01*
X121083641Y-98725080D01*
X120909588Y-98491731D01*
X120825534Y-98415966D01*
X120906180Y-98391502D01*
X121016494Y-98332537D01*
X121113185Y-98253185D01*
X121192537Y-98156494D01*
X121251502Y-98046180D01*
X121287812Y-97926482D01*
X121300072Y-97802000D01*
X121300072Y-96102000D01*
X121287812Y-95977518D01*
X121251502Y-95857820D01*
X121192537Y-95747506D01*
X121113185Y-95650815D01*
X121016494Y-95571463D01*
X120906180Y-95512498D01*
X120786482Y-95476188D01*
X120662000Y-95463928D01*
X118962000Y-95463928D01*
X118837518Y-95476188D01*
X118717820Y-95512498D01*
X118607506Y-95571463D01*
X118510815Y-95650815D01*
X118431463Y-95747506D01*
X118372498Y-95857820D01*
X118336188Y-95977518D01*
X118323928Y-96102000D01*
X116039080Y-96102000D01*
X115692355Y-95187762D01*
X115034344Y-93934027D01*
X114230010Y-92768749D01*
X113291082Y-91708918D01*
X112231251Y-90769990D01*
X111472210Y-90246061D01*
X115475000Y-90246061D01*
X115475000Y-90449939D01*
X115514774Y-90649898D01*
X115592795Y-90838256D01*
X115706063Y-91007774D01*
X115850226Y-91151937D01*
X116019744Y-91265205D01*
X116208102Y-91343226D01*
X116408061Y-91383000D01*
X116611939Y-91383000D01*
X116811898Y-91343226D01*
X117000256Y-91265205D01*
X117169774Y-91151937D01*
X117313937Y-91007774D01*
X117427205Y-90838256D01*
X117505226Y-90649898D01*
X117545000Y-90449939D01*
X117545000Y-90246061D01*
X117505226Y-90046102D01*
X117427205Y-89857744D01*
X117345000Y-89734715D01*
X117345000Y-89687409D01*
X130630000Y-89687409D01*
X130630000Y-90132591D01*
X130716851Y-90569218D01*
X130887214Y-90980511D01*
X131134544Y-91350666D01*
X131449334Y-91665456D01*
X131819489Y-91912786D01*
X132230782Y-92083149D01*
X132667409Y-92170000D01*
X133112591Y-92170000D01*
X133549218Y-92083149D01*
X133960511Y-91912786D01*
X134330666Y-91665456D01*
X134645456Y-91350666D01*
X134892786Y-90980511D01*
X135063149Y-90569218D01*
X135150000Y-90132591D01*
X135150000Y-89687409D01*
X135063149Y-89250782D01*
X134892786Y-88839489D01*
X134645456Y-88469334D01*
X134330666Y-88154544D01*
X133960511Y-87907214D01*
X133549218Y-87736851D01*
X133112591Y-87650000D01*
X132667409Y-87650000D01*
X132230782Y-87736851D01*
X131819489Y-87907214D01*
X131449334Y-88154544D01*
X131134544Y-88469334D01*
X130887214Y-88839489D01*
X130716851Y-89250782D01*
X130630000Y-89687409D01*
X117345000Y-89687409D01*
X117345000Y-87902572D01*
X117423774Y-87849937D01*
X117567937Y-87705774D01*
X117681205Y-87536256D01*
X117759226Y-87347898D01*
X117780688Y-87240000D01*
X122601928Y-87240000D01*
X122601928Y-88760000D01*
X122614188Y-88884482D01*
X122650498Y-89004180D01*
X122709463Y-89114494D01*
X122788815Y-89211185D01*
X122885506Y-89290537D01*
X122995820Y-89349502D01*
X123115518Y-89385812D01*
X123240000Y-89398072D01*
X124760000Y-89398072D01*
X124884482Y-89385812D01*
X125004180Y-89349502D01*
X125114494Y-89290537D01*
X125211185Y-89211185D01*
X125290537Y-89114494D01*
X125349502Y-89004180D01*
X125385812Y-88884482D01*
X125398072Y-88760000D01*
X125398072Y-87694137D01*
X125755469Y-87694137D01*
X125822206Y-87934025D01*
X126070892Y-88050924D01*
X126337606Y-88117061D01*
X126612097Y-88129895D01*
X126883817Y-88088931D01*
X127142326Y-87995744D01*
X127257794Y-87934025D01*
X127324531Y-87694137D01*
X126540000Y-86909605D01*
X125755469Y-87694137D01*
X125398072Y-87694137D01*
X125398072Y-87465069D01*
X125575863Y-87514531D01*
X126360395Y-86730000D01*
X126719605Y-86730000D01*
X127504137Y-87514531D01*
X127744025Y-87447794D01*
X127860924Y-87199108D01*
X127927061Y-86932394D01*
X127939895Y-86657903D01*
X127898931Y-86386183D01*
X127805744Y-86127674D01*
X127744025Y-86012206D01*
X127504137Y-85945469D01*
X126719605Y-86730000D01*
X126360395Y-86730000D01*
X125575863Y-85945469D01*
X125335975Y-86012206D01*
X125219076Y-86260892D01*
X125152939Y-86527606D01*
X125143330Y-86733128D01*
X125114494Y-86709463D01*
X125004180Y-86650498D01*
X124884482Y-86614188D01*
X124796533Y-86605526D01*
X124889261Y-86543567D01*
X125083567Y-86349261D01*
X125236233Y-86120780D01*
X125341391Y-85866907D01*
X125395000Y-85597396D01*
X125395000Y-85322604D01*
X125341391Y-85053093D01*
X125236233Y-84799220D01*
X125083567Y-84570739D01*
X124889261Y-84376433D01*
X124660780Y-84223767D01*
X124579260Y-84190000D01*
X124660780Y-84156233D01*
X124889261Y-84003567D01*
X125083567Y-83809261D01*
X125236233Y-83580780D01*
X125341391Y-83326907D01*
X125395000Y-83057396D01*
X125395000Y-82782604D01*
X125341391Y-82513093D01*
X125236233Y-82259220D01*
X125083567Y-82030739D01*
X124889261Y-81836433D01*
X124660780Y-81683767D01*
X124406907Y-81578609D01*
X124137396Y-81525000D01*
X123862604Y-81525000D01*
X123593093Y-81578609D01*
X123339220Y-81683767D01*
X123110739Y-81836433D01*
X122916433Y-82030739D01*
X122763767Y-82259220D01*
X122658609Y-82513093D01*
X122605000Y-82782604D01*
X122605000Y-83057396D01*
X122658609Y-83326907D01*
X122763767Y-83580780D01*
X122916433Y-83809261D01*
X123110739Y-84003567D01*
X123339220Y-84156233D01*
X123420740Y-84190000D01*
X123339220Y-84223767D01*
X123110739Y-84376433D01*
X122916433Y-84570739D01*
X122763767Y-84799220D01*
X122658609Y-85053093D01*
X122605000Y-85322604D01*
X122605000Y-85597396D01*
X122658609Y-85866907D01*
X122763767Y-86120780D01*
X122916433Y-86349261D01*
X123110739Y-86543567D01*
X123203467Y-86605526D01*
X123115518Y-86614188D01*
X122995820Y-86650498D01*
X122885506Y-86709463D01*
X122788815Y-86788815D01*
X122709463Y-86885506D01*
X122650498Y-86995820D01*
X122614188Y-87115518D01*
X122601928Y-87240000D01*
X117780688Y-87240000D01*
X117799000Y-87147939D01*
X117799000Y-86944061D01*
X117759226Y-86744102D01*
X117681205Y-86555744D01*
X117567937Y-86386226D01*
X117423774Y-86242063D01*
X117254256Y-86128795D01*
X117065898Y-86050774D01*
X116865939Y-86011000D01*
X116662061Y-86011000D01*
X116462102Y-86050774D01*
X116273744Y-86128795D01*
X116104226Y-86242063D01*
X115960063Y-86386226D01*
X115846795Y-86555744D01*
X115768774Y-86744102D01*
X115729000Y-86944061D01*
X115729000Y-86998126D01*
X115687082Y-87136312D01*
X115670960Y-87300000D01*
X115675001Y-87341028D01*
X115675000Y-89734715D01*
X115592795Y-89857744D01*
X115514774Y-90046102D01*
X115475000Y-90246061D01*
X111472210Y-90246061D01*
X111065973Y-89965656D01*
X109812238Y-89307645D01*
X108488331Y-88805553D01*
X107113555Y-88466702D01*
X105707960Y-88296031D01*
X104292040Y-88296031D01*
X102886445Y-88466702D01*
X101511669Y-88805553D01*
X100187762Y-89307645D01*
X98934027Y-89965656D01*
X97768749Y-90769990D01*
X96708918Y-91708918D01*
X95769990Y-92768749D01*
X95127000Y-93700280D01*
X95127000Y-81512604D01*
X125145000Y-81512604D01*
X125145000Y-81787396D01*
X125198609Y-82056907D01*
X125303767Y-82310780D01*
X125456433Y-82539261D01*
X125650739Y-82733567D01*
X125879220Y-82886233D01*
X125960740Y-82920000D01*
X125879220Y-82953767D01*
X125650739Y-83106433D01*
X125456433Y-83300739D01*
X125303767Y-83529220D01*
X125198609Y-83783093D01*
X125145000Y-84052604D01*
X125145000Y-84327396D01*
X125198609Y-84596907D01*
X125303767Y-84850780D01*
X125456433Y-85079261D01*
X125650739Y-85273567D01*
X125879220Y-85426233D01*
X125955501Y-85457830D01*
X125937674Y-85464256D01*
X125822206Y-85525975D01*
X125755469Y-85765863D01*
X126540000Y-86550395D01*
X127324531Y-85765863D01*
X127257794Y-85525975D01*
X127118293Y-85460400D01*
X127200780Y-85426233D01*
X127429261Y-85273567D01*
X127623567Y-85079261D01*
X127776233Y-84850780D01*
X127881391Y-84596907D01*
X127935000Y-84327396D01*
X127935000Y-84052604D01*
X127881391Y-83783093D01*
X127776233Y-83529220D01*
X127623567Y-83300739D01*
X127429261Y-83106433D01*
X127200780Y-82953767D01*
X127119260Y-82920000D01*
X127200780Y-82886233D01*
X127429261Y-82733567D01*
X127623567Y-82539261D01*
X127776233Y-82310780D01*
X127881391Y-82056907D01*
X127935000Y-81787396D01*
X127935000Y-81512604D01*
X127881391Y-81243093D01*
X127776233Y-80989220D01*
X127623567Y-80760739D01*
X127429261Y-80566433D01*
X127200780Y-80413767D01*
X126946907Y-80308609D01*
X126677396Y-80255000D01*
X126402604Y-80255000D01*
X126133093Y-80308609D01*
X125879220Y-80413767D01*
X125650739Y-80566433D01*
X125456433Y-80760739D01*
X125303767Y-80989220D01*
X125198609Y-81243093D01*
X125145000Y-81512604D01*
X95127000Y-81512604D01*
X95127000Y-78437117D01*
X98345000Y-78437117D01*
X98345000Y-78778883D01*
X98411675Y-79114081D01*
X98542463Y-79429831D01*
X98732337Y-79713998D01*
X98974002Y-79955663D01*
X99258169Y-80145537D01*
X99573919Y-80276325D01*
X99909117Y-80343000D01*
X100250883Y-80343000D01*
X100586081Y-80276325D01*
X100901831Y-80145537D01*
X101185998Y-79955663D01*
X101427663Y-79713998D01*
X101552337Y-79527409D01*
X130630000Y-79527409D01*
X130630000Y-79972591D01*
X130716851Y-80409218D01*
X130887214Y-80820511D01*
X131134544Y-81190666D01*
X131449334Y-81505456D01*
X131819489Y-81752786D01*
X132230782Y-81923149D01*
X132667409Y-82010000D01*
X133112591Y-82010000D01*
X133549218Y-81923149D01*
X133960511Y-81752786D01*
X134330666Y-81505456D01*
X134645456Y-81190666D01*
X134892786Y-80820511D01*
X135063149Y-80409218D01*
X135150000Y-79972591D01*
X135150000Y-79527409D01*
X135063149Y-79090782D01*
X134892786Y-78679489D01*
X134645456Y-78309334D01*
X134330666Y-77994544D01*
X133960511Y-77747214D01*
X133737871Y-77654994D01*
X133790482Y-77649812D01*
X133910180Y-77613502D01*
X134020494Y-77554537D01*
X134117185Y-77475185D01*
X134196537Y-77378494D01*
X134255502Y-77268180D01*
X134291812Y-77148482D01*
X134304072Y-77024000D01*
X134301000Y-76409750D01*
X134142250Y-76251000D01*
X132893000Y-76251000D01*
X132893000Y-76271000D01*
X132639000Y-76271000D01*
X132639000Y-76251000D01*
X131389750Y-76251000D01*
X131231000Y-76409750D01*
X131227928Y-77024000D01*
X131240188Y-77148482D01*
X131276498Y-77268180D01*
X131335463Y-77378494D01*
X131414815Y-77475185D01*
X131511506Y-77554537D01*
X131621820Y-77613502D01*
X131741518Y-77649812D01*
X131866000Y-77662072D01*
X132026984Y-77661267D01*
X131819489Y-77747214D01*
X131449334Y-77994544D01*
X131134544Y-78309334D01*
X130887214Y-78679489D01*
X130716851Y-79090782D01*
X130630000Y-79527409D01*
X101552337Y-79527409D01*
X101617537Y-79429831D01*
X101748325Y-79114081D01*
X101815000Y-78778883D01*
X101815000Y-78437117D01*
X101748325Y-78101919D01*
X101617537Y-77786169D01*
X101427663Y-77502002D01*
X101185998Y-77260337D01*
X100901831Y-77070463D01*
X100586081Y-76939675D01*
X100250883Y-76873000D01*
X99909117Y-76873000D01*
X99573919Y-76939675D01*
X99258169Y-77070463D01*
X98974002Y-77260337D01*
X98732337Y-77502002D01*
X98542463Y-77786169D01*
X98411675Y-78101919D01*
X98345000Y-78437117D01*
X95127000Y-78437117D01*
X95127000Y-76208000D01*
X103341928Y-76208000D01*
X103354188Y-76332482D01*
X103390498Y-76452180D01*
X103449463Y-76562494D01*
X103528815Y-76659185D01*
X103625506Y-76738537D01*
X103735820Y-76797502D01*
X103855518Y-76833812D01*
X103980000Y-76846072D01*
X104794250Y-76843000D01*
X104953000Y-76684250D01*
X104953000Y-75235000D01*
X105207000Y-75235000D01*
X105207000Y-76684250D01*
X105365750Y-76843000D01*
X106180000Y-76846072D01*
X106304482Y-76833812D01*
X106424180Y-76797502D01*
X106534494Y-76738537D01*
X106631185Y-76659185D01*
X106710537Y-76562494D01*
X106769502Y-76452180D01*
X106805812Y-76332482D01*
X106818072Y-76208000D01*
X106815000Y-75393750D01*
X106656250Y-75235000D01*
X105207000Y-75235000D01*
X104953000Y-75235000D01*
X103503750Y-75235000D01*
X103345000Y-75393750D01*
X103341928Y-76208000D01*
X95127000Y-76208000D01*
X95127000Y-74008000D01*
X103341928Y-74008000D01*
X103345000Y-74822250D01*
X103503750Y-74981000D01*
X104953000Y-74981000D01*
X104953000Y-73531750D01*
X105207000Y-73531750D01*
X105207000Y-74981000D01*
X106656250Y-74981000D01*
X106815000Y-74822250D01*
X106815135Y-74786323D01*
X122830497Y-74786323D01*
X122830497Y-75213677D01*
X122913870Y-75632821D01*
X123077412Y-76027645D01*
X123314837Y-76382977D01*
X123617023Y-76685163D01*
X123972355Y-76922588D01*
X124367179Y-77086130D01*
X124786323Y-77169503D01*
X125213677Y-77169503D01*
X125632821Y-77086130D01*
X126027645Y-76922588D01*
X126382977Y-76685163D01*
X126685163Y-76382977D01*
X126922588Y-76027645D01*
X127086130Y-75632821D01*
X127169503Y-75213677D01*
X127169503Y-74786323D01*
X127086130Y-74367179D01*
X126922588Y-73972355D01*
X126685163Y-73617023D01*
X126382977Y-73314837D01*
X126027645Y-73077412D01*
X125632821Y-72913870D01*
X125213677Y-72830497D01*
X124786323Y-72830497D01*
X124367179Y-72913870D01*
X123972355Y-73077412D01*
X123617023Y-73314837D01*
X123314837Y-73617023D01*
X123077412Y-73972355D01*
X122913870Y-74367179D01*
X122830497Y-74786323D01*
X106815135Y-74786323D01*
X106818072Y-74008000D01*
X106805812Y-73883518D01*
X106769502Y-73763820D01*
X106710537Y-73653506D01*
X106631185Y-73556815D01*
X106534494Y-73477463D01*
X106424180Y-73418498D01*
X106304482Y-73382188D01*
X106180000Y-73369928D01*
X105365750Y-73373000D01*
X105207000Y-73531750D01*
X104953000Y-73531750D01*
X104794250Y-73373000D01*
X103980000Y-73369928D01*
X103855518Y-73382188D01*
X103735820Y-73418498D01*
X103625506Y-73477463D01*
X103528815Y-73556815D01*
X103449463Y-73653506D01*
X103390498Y-73763820D01*
X103354188Y-73883518D01*
X103341928Y-74008000D01*
X95127000Y-74008000D01*
X95127000Y-72660000D01*
X131537269Y-72660000D01*
X131405701Y-72856905D01*
G37*
X131405701Y-72856905D02*
X131289989Y-73136257D01*
X131231000Y-73432816D01*
X131231000Y-73735184D01*
X131289989Y-74031743D01*
X131405701Y-74311095D01*
X131573688Y-74562505D01*
X131640127Y-74628944D01*
X131621820Y-74634498D01*
X131511506Y-74693463D01*
X131414815Y-74772815D01*
X131335463Y-74869506D01*
X131276498Y-74979820D01*
X131240188Y-75099518D01*
X131227928Y-75224000D01*
X131231000Y-75838250D01*
X131389750Y-75997000D01*
X132639000Y-75997000D01*
X132639000Y-75977000D01*
X132893000Y-75977000D01*
X132893000Y-75997000D01*
X134142250Y-75997000D01*
X134301000Y-75838250D01*
X134304072Y-75224000D01*
X134291812Y-75099518D01*
X134255502Y-74979820D01*
X134196537Y-74869506D01*
X134117185Y-74772815D01*
X134020494Y-74693463D01*
X133910180Y-74634498D01*
X133891873Y-74628944D01*
X133958312Y-74562505D01*
X134126299Y-74311095D01*
X134242011Y-74031743D01*
X134301000Y-73735184D01*
X134301000Y-73432816D01*
X134242011Y-73136257D01*
X134126299Y-72856905D01*
X133994731Y-72660000D01*
X137340001Y-72660000D01*
X137340001Y-92391645D01*
X137185939Y-92361000D01*
X136982061Y-92361000D01*
X136782102Y-92400774D01*
X136593744Y-92478795D01*
X136424226Y-92592063D01*
X136280063Y-92736226D01*
X136166795Y-92905744D01*
X136088774Y-93094102D01*
X136049000Y-93294061D01*
X136049000Y-93497939D01*
X136088774Y-93697898D01*
X136149000Y-93843296D01*
X136149001Y-95974709D01*
X135174142Y-96949569D01*
X135028744Y-97009795D01*
X134859226Y-97123063D01*
X134715063Y-97267226D01*
X134601795Y-97436744D01*
X134523774Y-97625102D01*
X134484000Y-97825061D01*
X134484000Y-98028939D01*
X134523774Y-98228898D01*
X134601795Y-98417256D01*
X134715063Y-98586774D01*
X134843688Y-98715399D01*
X134821857Y-98742000D01*
X133699088Y-98742000D01*
X133591318Y-98610682D01*
X133384231Y-98440730D01*
X133147968Y-98314445D01*
X132891607Y-98236678D01*
X132691809Y-98217000D01*
X132008191Y-98217000D01*
X131808393Y-98236678D01*
X131552032Y-98314445D01*
X131315769Y-98440730D01*
X131108682Y-98610682D01*
X130938730Y-98817769D01*
X130812445Y-99054032D01*
X130734678Y-99310393D01*
X130708420Y-99577000D01*
X130734678Y-99843607D01*
X130812445Y-100099968D01*
X130938730Y-100336231D01*
X131108682Y-100543318D01*
X131315769Y-100713270D01*
X131552032Y-100839555D01*
X131808393Y-100917322D01*
X132008191Y-100937000D01*
X132371576Y-100937000D01*
X132404774Y-101103898D01*
X132482795Y-101292256D01*
X132596063Y-101461774D01*
X132740226Y-101605937D01*
X132909744Y-101719205D01*
X133098102Y-101797226D01*
X133298061Y-101837000D01*
X133501939Y-101837000D01*
X133701898Y-101797226D01*
X133890256Y-101719205D01*
X134059774Y-101605937D01*
X134203937Y-101461774D01*
X134317205Y-101292256D01*
X134395226Y-101103898D01*
X134435000Y-100903939D01*
X134435000Y-100700061D01*
X134395226Y-100500102D01*
X134358733Y-100412000D01*
X135117893Y-100412000D01*
X135149508Y-100437946D01*
X135315000Y-100526403D01*
X135315001Y-106077596D01*
X135149508Y-106166054D01*
X134965261Y-106317261D01*
X134944958Y-106342000D01*
X134283967Y-106342000D01*
X134317205Y-106292256D01*
X134395226Y-106103898D01*
X134435000Y-105903939D01*
X134435000Y-105700061D01*
X134395226Y-105500102D01*
X134317205Y-105311744D01*
X134203937Y-105142226D01*
X134059774Y-104998063D01*
X133890256Y-104884795D01*
X133701898Y-104806774D01*
X133501939Y-104767000D01*
X133298061Y-104767000D01*
X133098102Y-104806774D01*
X132909744Y-104884795D01*
X132740226Y-104998063D01*
X132596063Y-105142226D01*
X132482795Y-105311744D01*
X132404774Y-105500102D01*
X132371576Y-105667000D01*
X132008191Y-105667000D01*
X131808393Y-105686678D01*
X131552032Y-105764445D01*
X131315769Y-105890730D01*
X131108682Y-106060682D01*
X130938730Y-106267769D01*
X130812445Y-106504032D01*
X130734678Y-106760393D01*
X130708420Y-107027000D01*
X130734678Y-107293607D01*
X130812445Y-107549968D01*
X130938730Y-107786231D01*
X131108682Y-107993318D01*
X131315769Y-108163270D01*
X131552032Y-108289555D01*
X131808393Y-108367322D01*
X132008191Y-108387000D01*
X132691809Y-108387000D01*
X132891607Y-108367322D01*
X133147968Y-108289555D01*
X133384231Y-108163270D01*
X133568554Y-108012000D01*
X134944958Y-108012000D01*
X134965261Y-108036739D01*
X135149508Y-108187946D01*
X135359713Y-108300303D01*
X135587799Y-108369492D01*
X135765563Y-108387000D01*
X136534437Y-108387000D01*
X136712201Y-108369492D01*
X136940287Y-108300303D01*
X137150492Y-108187946D01*
X137334739Y-108036739D01*
X137340000Y-108030328D01*
X137340000Y-127340000D01*
X133539947Y-127340000D01*
X133595246Y-127206496D01*
X133660000Y-126880958D01*
X133660000Y-126693517D01*
X133679025Y-126752868D01*
X133947329Y-126881267D01*
X134235526Y-126954855D01*
X134532543Y-126970804D01*
X134826963Y-126928501D01*
X135107474Y-126829572D01*
X135250975Y-126752868D01*
X135331635Y-126501240D01*
X134465000Y-125634605D01*
X134450858Y-125648748D01*
X134271253Y-125469143D01*
X134285395Y-125455000D01*
X134644605Y-125455000D01*
X135511240Y-126321635D01*
X135762868Y-126240975D01*
X135891267Y-125972671D01*
X135964855Y-125684474D01*
X135980804Y-125387457D01*
X135938501Y-125093037D01*
X135839572Y-124812526D01*
X135762868Y-124669025D01*
X135511240Y-124588365D01*
X134644605Y-125455000D01*
X134285395Y-125455000D01*
X133418760Y-124588365D01*
X133167132Y-124669025D01*
X133038733Y-124937329D01*
X132965145Y-125225526D01*
X132958689Y-125345748D01*
X132773147Y-125221772D01*
X132466496Y-125094754D01*
X132140958Y-125030000D01*
X131809042Y-125030000D01*
X131483504Y-125094754D01*
X131176853Y-125221772D01*
X130900875Y-125406175D01*
X130666175Y-125640875D01*
X130481772Y-125916853D01*
X130354754Y-126223504D01*
X130290000Y-126549042D01*
X130290000Y-126880958D01*
X130354754Y-127206496D01*
X130410053Y-127340000D01*
X107490699Y-127340000D01*
X107535502Y-127256180D01*
X107571812Y-127136482D01*
X107584072Y-127012000D01*
X107584072Y-125312000D01*
X107571812Y-125187518D01*
X107535502Y-125067820D01*
X107476537Y-124957506D01*
X107397185Y-124860815D01*
X107306416Y-124786323D01*
X122830497Y-124786323D01*
X122830497Y-125213677D01*
X122913870Y-125632821D01*
X123077412Y-126027645D01*
X123314837Y-126382977D01*
X123617023Y-126685163D01*
X123972355Y-126922588D01*
X124367179Y-127086130D01*
X124786323Y-127169503D01*
X125213677Y-127169503D01*
X125632821Y-127086130D01*
X126027645Y-126922588D01*
X126382977Y-126685163D01*
X126685163Y-126382977D01*
X126922588Y-126027645D01*
X127086130Y-125632821D01*
X127169503Y-125213677D01*
X127169503Y-124786323D01*
X127094401Y-124408760D01*
X133598365Y-124408760D01*
X134465000Y-125275395D01*
X135331635Y-124408760D01*
X135250975Y-124157132D01*
X134982671Y-124028733D01*
X134694474Y-123955145D01*
X134397457Y-123939196D01*
X134103037Y-123981499D01*
X133822526Y-124080428D01*
X133679025Y-124157132D01*
X133598365Y-124408760D01*
X127094401Y-124408760D01*
X127086130Y-124367179D01*
X126922588Y-123972355D01*
X126685163Y-123617023D01*
X126382977Y-123314837D01*
X126027645Y-123077412D01*
X125632821Y-122913870D01*
X125213677Y-122830497D01*
X124786323Y-122830497D01*
X124367179Y-122913870D01*
X123972355Y-123077412D01*
X123617023Y-123314837D01*
X123314837Y-123617023D01*
X123077412Y-123972355D01*
X122913870Y-124367179D01*
X122830497Y-124786323D01*
X107306416Y-124786323D01*
X107300494Y-124781463D01*
X107190180Y-124722498D01*
X107117620Y-124700487D01*
X107249475Y-124568632D01*
X107411990Y-124325411D01*
X107523932Y-124055158D01*
X107581000Y-123768260D01*
X107581000Y-123475740D01*
X107523932Y-123188842D01*
X107411990Y-122918589D01*
X107249475Y-122675368D01*
X107042632Y-122468525D01*
X106860466Y-122346805D01*
X106977355Y-122277178D01*
X107193588Y-122082269D01*
X107367641Y-121848920D01*
X107492825Y-121586099D01*
X107537476Y-121438890D01*
X107416155Y-121209000D01*
X106223000Y-121209000D01*
X106223000Y-121229000D01*
X105969000Y-121229000D01*
X105969000Y-121209000D01*
X104775845Y-121209000D01*
X104654524Y-121438890D01*
X104699175Y-121586099D01*
X104824359Y-121848920D01*
X104998412Y-122082269D01*
X105214645Y-122277178D01*
X105331534Y-122346805D01*
X105149368Y-122468525D01*
X104942525Y-122675368D01*
X104780010Y-122918589D01*
X104668068Y-123188842D01*
X104611000Y-123475740D01*
X104611000Y-123768260D01*
X104668068Y-124055158D01*
X104780010Y-124325411D01*
X104942525Y-124568632D01*
X105074380Y-124700487D01*
X105001820Y-124722498D01*
X104891506Y-124781463D01*
X104794815Y-124860815D01*
X104715463Y-124957506D01*
X104656498Y-125067820D01*
X104620188Y-125187518D01*
X104607928Y-125312000D01*
X104607928Y-127012000D01*
X104620188Y-127136482D01*
X104656498Y-127256180D01*
X104701301Y-127340000D01*
X75660000Y-127340000D01*
X75660000Y-127049198D01*
X75790476Y-127007809D01*
X75845412Y-126984263D01*
X75900764Y-126961449D01*
X75908870Y-126957065D01*
X76165408Y-126816032D01*
X76214753Y-126782245D01*
X76264591Y-126749133D01*
X76271691Y-126743259D01*
X76495949Y-126555084D01*
X76537793Y-126512354D01*
X76580248Y-126470195D01*
X76586072Y-126463053D01*
X76769509Y-126234903D01*
X76802251Y-126184869D01*
X76835714Y-126135258D01*
X76840040Y-126127122D01*
X76975670Y-125867687D01*
X76998082Y-125812215D01*
X77021260Y-125757077D01*
X77023923Y-125748255D01*
X77106578Y-125467417D01*
X77117785Y-125408669D01*
X77129816Y-125350059D01*
X77130715Y-125340888D01*
X77157247Y-125049344D01*
X77156829Y-124989528D01*
X77157247Y-124929712D01*
X77156348Y-124920541D01*
X77125748Y-124629395D01*
X77113710Y-124570753D01*
X77102510Y-124512037D01*
X77099847Y-124503216D01*
X77013279Y-124223560D01*
X76990101Y-124168422D01*
X76967689Y-124112950D01*
X76963362Y-124104814D01*
X76824123Y-123847298D01*
X76790701Y-123797749D01*
X76757920Y-123747653D01*
X76752095Y-123740512D01*
X76565490Y-123514945D01*
X76523054Y-123472804D01*
X76481191Y-123430055D01*
X76474091Y-123424181D01*
X76247227Y-123239155D01*
X76197408Y-123206055D01*
X76148045Y-123172256D01*
X76139939Y-123167873D01*
X75881458Y-123030436D01*
X75826164Y-123007645D01*
X75771171Y-122984075D01*
X75762368Y-122981350D01*
X75660000Y-122950443D01*
X75660000Y-120726061D01*
X92234000Y-120726061D01*
X92234000Y-120929939D01*
X92273774Y-121129898D01*
X92351795Y-121318256D01*
X92465063Y-121487774D01*
X92524988Y-121547699D01*
X92524987Y-122537289D01*
X92481050Y-122581226D01*
X92367782Y-122750744D01*
X92289761Y-122939102D01*
X92249987Y-123139061D01*
X92249987Y-123342939D01*
X92289761Y-123542898D01*
X92367782Y-123731256D01*
X92481050Y-123900774D01*
X92625213Y-124044937D01*
X92794731Y-124158205D01*
X92983089Y-124236226D01*
X93183048Y-124276000D01*
X93386926Y-124276000D01*
X93586885Y-124236226D01*
X93775243Y-124158205D01*
X93846995Y-124110262D01*
X93927754Y-124164223D01*
X94116112Y-124242244D01*
X94316071Y-124282018D01*
X94519949Y-124282018D01*
X94719908Y-124242244D01*
X94908266Y-124164223D01*
X95077784Y-124050955D01*
X95221947Y-123906792D01*
X95335215Y-123737274D01*
X95413236Y-123548916D01*
X95453010Y-123348957D01*
X95453010Y-123145079D01*
X95413236Y-122945120D01*
X95335215Y-122756762D01*
X95221947Y-122587244D01*
X95172000Y-122537297D01*
X95172000Y-121557679D01*
X95215937Y-121513742D01*
X95329205Y-121344224D01*
X95407226Y-121155866D01*
X95447000Y-120955907D01*
X95447000Y-120752029D01*
X95407226Y-120552070D01*
X95329205Y-120363712D01*
X95215937Y-120194194D01*
X95071774Y-120050031D01*
X94902256Y-119936763D01*
X94713898Y-119858742D01*
X94513939Y-119818968D01*
X94310061Y-119818968D01*
X94110102Y-119858742D01*
X93921744Y-119936763D01*
X93859932Y-119978064D01*
X93759256Y-119910795D01*
X93570898Y-119832774D01*
X93370939Y-119793000D01*
X93167061Y-119793000D01*
X92967102Y-119832774D01*
X92778744Y-119910795D01*
X92609226Y-120024063D01*
X92465063Y-120168226D01*
X92351795Y-120337744D01*
X92273774Y-120526102D01*
X92234000Y-120726061D01*
X75660000Y-120726061D01*
X75660000Y-118186061D01*
X102521000Y-118186061D01*
X102521000Y-118389939D01*
X102560774Y-118589898D01*
X102638795Y-118778256D01*
X102752063Y-118947774D01*
X102896226Y-119091937D01*
X103065744Y-119205205D01*
X103254102Y-119283226D01*
X103454061Y-119323000D01*
X103657939Y-119323000D01*
X103857898Y-119283226D01*
X104046256Y-119205205D01*
X104215774Y-119091937D01*
X104359937Y-118947774D01*
X104473205Y-118778256D01*
X104551226Y-118589898D01*
X104589846Y-118395740D01*
X104611000Y-118395740D01*
X104611000Y-118688260D01*
X104668068Y-118975158D01*
X104780010Y-119245411D01*
X104942525Y-119488632D01*
X105149368Y-119695475D01*
X105331534Y-119817195D01*
X105214645Y-119886822D01*
X104998412Y-120081731D01*
X104824359Y-120315080D01*
X104699175Y-120577901D01*
X104654524Y-120725110D01*
X104775845Y-120955000D01*
X105969000Y-120955000D01*
X105969000Y-120935000D01*
X106223000Y-120935000D01*
X106223000Y-120955000D01*
X107416155Y-120955000D01*
X107536974Y-120726061D01*
X111157000Y-120726061D01*
X111157000Y-120929939D01*
X111196774Y-121129898D01*
X111274795Y-121318256D01*
X111388063Y-121487774D01*
X111532226Y-121631937D01*
X111701744Y-121745205D01*
X111890102Y-121823226D01*
X112090061Y-121863000D01*
X112293939Y-121863000D01*
X112493898Y-121823226D01*
X112682256Y-121745205D01*
X112851774Y-121631937D01*
X112895711Y-121588000D01*
X113170678Y-121588000D01*
X113208000Y-121591676D01*
X113245322Y-121588000D01*
X113245333Y-121588000D01*
X113356986Y-121577003D01*
X113500247Y-121533546D01*
X113632276Y-121462974D01*
X113748001Y-121368001D01*
X113771804Y-121338997D01*
X115533802Y-119577000D01*
X115595939Y-119577000D01*
X115795898Y-119537226D01*
X115984256Y-119459205D01*
X116153774Y-119345937D01*
X116297937Y-119201774D01*
X116411205Y-119032256D01*
X116489226Y-118843898D01*
X116529000Y-118643939D01*
X116529000Y-118440061D01*
X116489226Y-118240102D01*
X116411205Y-118051744D01*
X116297937Y-117882226D01*
X116153774Y-117738063D01*
X115984256Y-117624795D01*
X115795898Y-117546774D01*
X115595939Y-117507000D01*
X115392061Y-117507000D01*
X115192102Y-117546774D01*
X115003744Y-117624795D01*
X114834226Y-117738063D01*
X114690063Y-117882226D01*
X114576795Y-118051744D01*
X114498774Y-118240102D01*
X114459000Y-118440061D01*
X114459000Y-118502198D01*
X112894455Y-120066744D01*
X112851774Y-120024063D01*
X112682256Y-119910795D01*
X112493898Y-119832774D01*
X112293939Y-119793000D01*
X112090061Y-119793000D01*
X111890102Y-119832774D01*
X111701744Y-119910795D01*
X111532226Y-120024063D01*
X111388063Y-120168226D01*
X111274795Y-120337744D01*
X111196774Y-120526102D01*
X111157000Y-120726061D01*
X107536974Y-120726061D01*
X107537476Y-120725110D01*
X107492825Y-120577901D01*
X107367641Y-120315080D01*
X107193588Y-120081731D01*
X106977355Y-119886822D01*
X106860466Y-119817195D01*
X107042632Y-119695475D01*
X107249475Y-119488632D01*
X107411990Y-119245411D01*
X107523932Y-118975158D01*
X107581000Y-118688260D01*
X107581000Y-118395740D01*
X107523932Y-118108842D01*
X107411990Y-117838589D01*
X107249475Y-117595368D01*
X107042632Y-117388525D01*
X106799411Y-117226010D01*
X106529158Y-117114068D01*
X106242260Y-117057000D01*
X105949740Y-117057000D01*
X105662842Y-117114068D01*
X105392589Y-117226010D01*
X105149368Y-117388525D01*
X104942525Y-117595368D01*
X104780010Y-117838589D01*
X104668068Y-118108842D01*
X104611000Y-118395740D01*
X104589846Y-118395740D01*
X104591000Y-118389939D01*
X104591000Y-118186061D01*
X104551226Y-117986102D01*
X104473205Y-117797744D01*
X104359937Y-117628226D01*
X104316000Y-117584289D01*
X104316000Y-116297117D01*
X104365898Y-116287192D01*
X104554256Y-116209171D01*
X104723774Y-116095903D01*
X104867937Y-115951740D01*
X104981205Y-115782222D01*
X105059226Y-115593864D01*
X105099000Y-115393905D01*
X105099000Y-115190027D01*
X105059226Y-114990068D01*
X104981205Y-114801710D01*
X104867937Y-114632192D01*
X104723774Y-114488029D01*
X104554256Y-114374761D01*
X104365898Y-114296740D01*
X104165939Y-114256966D01*
X103962061Y-114256966D01*
X103762102Y-114296740D01*
X103573744Y-114374761D01*
X103404226Y-114488029D01*
X103260063Y-114632192D01*
X103146795Y-114801710D01*
X103068774Y-114990068D01*
X103029000Y-115190027D01*
X103029000Y-115249295D01*
X103015999Y-115259965D01*
X102989736Y-115291967D01*
X102921026Y-115375690D01*
X102850591Y-115507463D01*
X102850454Y-115507720D01*
X102806997Y-115650981D01*
X102796000Y-115762634D01*
X102796000Y-115762644D01*
X102792324Y-115799966D01*
X102796000Y-115837289D01*
X102796001Y-117584288D01*
X102752063Y-117628226D01*
X102638795Y-117797744D01*
X102560774Y-117986102D01*
X102521000Y-118186061D01*
X75660000Y-118186061D01*
X75660000Y-113315740D01*
X104611000Y-113315740D01*
X104611000Y-113608260D01*
X104668068Y-113895158D01*
X104780010Y-114165411D01*
X104942525Y-114408632D01*
X105149368Y-114615475D01*
X105392589Y-114777990D01*
X105662842Y-114889932D01*
X105949740Y-114947000D01*
X106242260Y-114947000D01*
X106385479Y-114918512D01*
X106375434Y-114942762D01*
X106335660Y-115142721D01*
X106335660Y-115346599D01*
X106375434Y-115546558D01*
X106453455Y-115734916D01*
X106566723Y-115904434D01*
X106710886Y-116048597D01*
X106880404Y-116161865D01*
X107068762Y-116239886D01*
X107268721Y-116279660D01*
X107330858Y-116279660D01*
X108580205Y-117529008D01*
X108603999Y-117558001D01*
X108632992Y-117581795D01*
X108632996Y-117581799D01*
X108685388Y-117624795D01*
X108719724Y-117652974D01*
X108851753Y-117723546D01*
X108995014Y-117767003D01*
X109106667Y-117778000D01*
X109106676Y-117778000D01*
X109143999Y-117781676D01*
X109181322Y-117778000D01*
X109456289Y-117778000D01*
X109500226Y-117821937D01*
X109669744Y-117935205D01*
X109858102Y-118013226D01*
X110058061Y-118053000D01*
X110261939Y-118053000D01*
X110461898Y-118013226D01*
X110650256Y-117935205D01*
X110819774Y-117821937D01*
X110963937Y-117677774D01*
X111077205Y-117508256D01*
X111155226Y-117319898D01*
X111195000Y-117119939D01*
X111195000Y-116916061D01*
X111155226Y-116716102D01*
X111132986Y-116662408D01*
X122803000Y-116662408D01*
X122803000Y-116937592D01*
X122856686Y-117207490D01*
X122961995Y-117461727D01*
X123114880Y-117690535D01*
X123309465Y-117885120D01*
X123538273Y-118038005D01*
X123792510Y-118143314D01*
X124062408Y-118197000D01*
X124337592Y-118197000D01*
X124607490Y-118143314D01*
X124861727Y-118038005D01*
X125090535Y-117885120D01*
X125285120Y-117690535D01*
X125438005Y-117461727D01*
X125470000Y-117384485D01*
X125501995Y-117461727D01*
X125654880Y-117690535D01*
X125849465Y-117885120D01*
X126078273Y-118038005D01*
X126332510Y-118143314D01*
X126602408Y-118197000D01*
X126877592Y-118197000D01*
X127147490Y-118143314D01*
X127401727Y-118038005D01*
X127630535Y-117885120D01*
X127825120Y-117690535D01*
X127978005Y-117461727D01*
X128010000Y-117384485D01*
X128041995Y-117461727D01*
X128194880Y-117690535D01*
X128389465Y-117885120D01*
X128618273Y-118038005D01*
X128872510Y-118143314D01*
X129142408Y-118197000D01*
X129417592Y-118197000D01*
X129687490Y-118143314D01*
X129941727Y-118038005D01*
X130170535Y-117885120D01*
X130365120Y-117690535D01*
X130423920Y-117602535D01*
X130432188Y-117686482D01*
X130468498Y-117806180D01*
X130527463Y-117916494D01*
X130606815Y-118013185D01*
X130703506Y-118092537D01*
X130813820Y-118151502D01*
X130933518Y-118187812D01*
X131058000Y-118200072D01*
X131207427Y-118199108D01*
X131176853Y-118211772D01*
X130900875Y-118396175D01*
X130666175Y-118630875D01*
X130481772Y-118906853D01*
X130354754Y-119213504D01*
X130290000Y-119539042D01*
X130290000Y-119870958D01*
X130354754Y-120196496D01*
X130481772Y-120503147D01*
X130666175Y-120779125D01*
X130900875Y-121013825D01*
X131176853Y-121198228D01*
X131483504Y-121325246D01*
X131809042Y-121390000D01*
X132140958Y-121390000D01*
X132466496Y-121325246D01*
X132773147Y-121198228D01*
X132955000Y-121076717D01*
X132955000Y-121103722D01*
X133013029Y-121395451D01*
X133126856Y-121670253D01*
X133292107Y-121917569D01*
X133502431Y-122127893D01*
X133749747Y-122293144D01*
X134024549Y-122406971D01*
X134316278Y-122465000D01*
X134613722Y-122465000D01*
X134905451Y-122406971D01*
X135180253Y-122293144D01*
X135427569Y-122127893D01*
X135637893Y-121917569D01*
X135803144Y-121670253D01*
X135916971Y-121395451D01*
X135975000Y-121103722D01*
X135975000Y-120806278D01*
X135916971Y-120514549D01*
X135803144Y-120239747D01*
X135637893Y-119992431D01*
X135427569Y-119782107D01*
X135180253Y-119616856D01*
X134905451Y-119503029D01*
X134613722Y-119445000D01*
X134316278Y-119445000D01*
X134024549Y-119503029D01*
X133749747Y-119616856D01*
X133660000Y-119676823D01*
X133660000Y-119539042D01*
X133595246Y-119213504D01*
X133468228Y-118906853D01*
X133283825Y-118630875D01*
X133049125Y-118396175D01*
X132773147Y-118211772D01*
X132711573Y-118186268D01*
X132826180Y-118151502D01*
X132925188Y-118098580D01*
X132938815Y-118115185D01*
X133035506Y-118194537D01*
X133145820Y-118253502D01*
X133265518Y-118289812D01*
X133390000Y-118302072D01*
X134004250Y-118299000D01*
X134163000Y-118140250D01*
X134163000Y-116891000D01*
X134417000Y-116891000D01*
X134417000Y-118140250D01*
X134575750Y-118299000D01*
X135190000Y-118302072D01*
X135314482Y-118289812D01*
X135434180Y-118253502D01*
X135544494Y-118194537D01*
X135641185Y-118115185D01*
X135720537Y-118018494D01*
X135779502Y-117908180D01*
X135815812Y-117788482D01*
X135828072Y-117664000D01*
X135825000Y-117049750D01*
X135666250Y-116891000D01*
X134417000Y-116891000D01*
X134163000Y-116891000D01*
X132913750Y-116891000D01*
X132877750Y-116927000D01*
X131947000Y-116927000D01*
X131947000Y-116947000D01*
X131693000Y-116947000D01*
X131693000Y-116927000D01*
X131673000Y-116927000D01*
X131673000Y-116673000D01*
X131693000Y-116673000D01*
X131693000Y-115561750D01*
X131947000Y-115561750D01*
X131947000Y-116673000D01*
X133058250Y-116673000D01*
X133094250Y-116637000D01*
X134163000Y-116637000D01*
X134163000Y-116617000D01*
X134417000Y-116617000D01*
X134417000Y-116637000D01*
X135666250Y-116637000D01*
X135825000Y-116478250D01*
X135828072Y-115864000D01*
X135815812Y-115739518D01*
X135779502Y-115619820D01*
X135720537Y-115509506D01*
X135641185Y-115412815D01*
X135544494Y-115333463D01*
X135434180Y-115274498D01*
X135415873Y-115268944D01*
X135482312Y-115202505D01*
X135650299Y-114951095D01*
X135766011Y-114671743D01*
X135825000Y-114375184D01*
X135825000Y-114072816D01*
X135766011Y-113776257D01*
X135650299Y-113496905D01*
X135482312Y-113245495D01*
X135268505Y-113031688D01*
X135017095Y-112863701D01*
X134737743Y-112747989D01*
X134441184Y-112689000D01*
X134138816Y-112689000D01*
X133842257Y-112747989D01*
X133562905Y-112863701D01*
X133311495Y-113031688D01*
X133097688Y-113245495D01*
X132929701Y-113496905D01*
X132813989Y-113776257D01*
X132755000Y-114072816D01*
X132755000Y-114375184D01*
X132813989Y-114671743D01*
X132929701Y-114951095D01*
X133097688Y-115202505D01*
X133164127Y-115268944D01*
X133145820Y-115274498D01*
X133035506Y-115333463D01*
X132938815Y-115412815D01*
X132884116Y-115479466D01*
X132826180Y-115448498D01*
X132706482Y-115412188D01*
X132582000Y-115399928D01*
X132105750Y-115403000D01*
X131947000Y-115561750D01*
X131693000Y-115561750D01*
X131534250Y-115403000D01*
X131058000Y-115399928D01*
X130933518Y-115412188D01*
X130813820Y-115448498D01*
X130703506Y-115507463D01*
X130606815Y-115586815D01*
X130527463Y-115683506D01*
X130468498Y-115793820D01*
X130432188Y-115913518D01*
X130423920Y-115997465D01*
X130365120Y-115909465D01*
X130170535Y-115714880D01*
X129941727Y-115561995D01*
X129687490Y-115456686D01*
X129417592Y-115403000D01*
X129142408Y-115403000D01*
X128872510Y-115456686D01*
X128618273Y-115561995D01*
X128389465Y-115714880D01*
X128194880Y-115909465D01*
X128041995Y-116138273D01*
X128010000Y-116215515D01*
X127978005Y-116138273D01*
X127825120Y-115909465D01*
X127630535Y-115714880D01*
X127401727Y-115561995D01*
X127147490Y-115456686D01*
X126877592Y-115403000D01*
X126602408Y-115403000D01*
X126332510Y-115456686D01*
X126078273Y-115561995D01*
X125849465Y-115714880D01*
X125654880Y-115909465D01*
X125501995Y-116138273D01*
X125470000Y-116215515D01*
X125438005Y-116138273D01*
X125285120Y-115909465D01*
X125090535Y-115714880D01*
X124861727Y-115561995D01*
X124607490Y-115456686D01*
X124337592Y-115403000D01*
X124062408Y-115403000D01*
X123792510Y-115456686D01*
X123538273Y-115561995D01*
X123309465Y-115714880D01*
X123114880Y-115909465D01*
X122961995Y-116138273D01*
X122856686Y-116392510D01*
X122803000Y-116662408D01*
X111132986Y-116662408D01*
X111077205Y-116527744D01*
X110963937Y-116358226D01*
X110819774Y-116214063D01*
X110650256Y-116100795D01*
X110461898Y-116022774D01*
X110261939Y-115983000D01*
X110058061Y-115983000D01*
X109858102Y-116022774D01*
X109669744Y-116100795D01*
X109500226Y-116214063D01*
X109457546Y-116256743D01*
X108405660Y-115204858D01*
X108405660Y-115142721D01*
X108365886Y-114942762D01*
X108287865Y-114754404D01*
X108174597Y-114584886D01*
X108030434Y-114440723D01*
X107860916Y-114327455D01*
X107672558Y-114249434D01*
X107472599Y-114209660D01*
X107382424Y-114209660D01*
X107411990Y-114165411D01*
X107523932Y-113895158D01*
X107581000Y-113608260D01*
X107581000Y-113315740D01*
X107523932Y-113028842D01*
X107411990Y-112758589D01*
X107249475Y-112515368D01*
X107042632Y-112308525D01*
X106799411Y-112146010D01*
X106664338Y-112090061D01*
X110649000Y-112090061D01*
X110649000Y-112293939D01*
X110688774Y-112493898D01*
X110766795Y-112682256D01*
X110880063Y-112851774D01*
X111024226Y-112995937D01*
X111193744Y-113109205D01*
X111382102Y-113187226D01*
X111582061Y-113227000D01*
X111785939Y-113227000D01*
X111985898Y-113187226D01*
X112174256Y-113109205D01*
X112343774Y-112995937D01*
X112387711Y-112952000D01*
X113146199Y-112952000D01*
X113188000Y-112993801D01*
X113188000Y-113055939D01*
X113227774Y-113255898D01*
X113305795Y-113444256D01*
X113419063Y-113613774D01*
X113563226Y-113757937D01*
X113732744Y-113871205D01*
X113921102Y-113949226D01*
X114121061Y-113989000D01*
X114324939Y-113989000D01*
X114524898Y-113949226D01*
X114713256Y-113871205D01*
X114882774Y-113757937D01*
X115026937Y-113613774D01*
X115140205Y-113444256D01*
X115218226Y-113255898D01*
X115258000Y-113055939D01*
X115258000Y-112852061D01*
X115218226Y-112652102D01*
X115140205Y-112463744D01*
X115026937Y-112294226D01*
X114882774Y-112150063D01*
X114713256Y-112036795D01*
X114524898Y-111958774D01*
X114324939Y-111919000D01*
X114262801Y-111919000D01*
X114024803Y-111681002D01*
X114001001Y-111651999D01*
X113885276Y-111557026D01*
X113753247Y-111486454D01*
X113609986Y-111442997D01*
X113498333Y-111432000D01*
X113498322Y-111432000D01*
X113461000Y-111428324D01*
X113423678Y-111432000D01*
X112387711Y-111432000D01*
X112343774Y-111388063D01*
X112174256Y-111274795D01*
X111985898Y-111196774D01*
X111785939Y-111157000D01*
X111582061Y-111157000D01*
X111382102Y-111196774D01*
X111193744Y-111274795D01*
X111024226Y-111388063D01*
X110880063Y-111532226D01*
X110766795Y-111701744D01*
X110688774Y-111890102D01*
X110649000Y-112090061D01*
X106664338Y-112090061D01*
X106529158Y-112034068D01*
X106242260Y-111977000D01*
X105949740Y-111977000D01*
X105662842Y-112034068D01*
X105392589Y-112146010D01*
X105149368Y-112308525D01*
X104942525Y-112515368D01*
X104780010Y-112758589D01*
X104668068Y-113028842D01*
X104611000Y-113315740D01*
X75660000Y-113315740D01*
X75660000Y-104127000D01*
X94047768Y-104127000D01*
X94307645Y-104812238D01*
X94965656Y-106065973D01*
X95769990Y-107231251D01*
X96708918Y-108291082D01*
X97768749Y-109230010D01*
X98934027Y-110034344D01*
X100187762Y-110692355D01*
X101511669Y-111194447D01*
X102886445Y-111533298D01*
X104292040Y-111703969D01*
X105707960Y-111703969D01*
X107113555Y-111533298D01*
X108488331Y-111194447D01*
X109812238Y-110692355D01*
X111065973Y-110034344D01*
X112231251Y-109230010D01*
X112708577Y-108807136D01*
X116510075Y-108807136D01*
X116510075Y-109011014D01*
X116549849Y-109210973D01*
X116627870Y-109399331D01*
X116741138Y-109568849D01*
X116885301Y-109713012D01*
X117054819Y-109826280D01*
X117243177Y-109904301D01*
X117443136Y-109944075D01*
X117647014Y-109944075D01*
X117846973Y-109904301D01*
X118035331Y-109826280D01*
X118204849Y-109713012D01*
X118349012Y-109568849D01*
X118412410Y-109473967D01*
X118463063Y-109549774D01*
X118607226Y-109693937D01*
X118776744Y-109807205D01*
X118965102Y-109885226D01*
X119165061Y-109925000D01*
X119368939Y-109925000D01*
X119568898Y-109885226D01*
X119757256Y-109807205D01*
X119926774Y-109693937D01*
X120070937Y-109549774D01*
X120184205Y-109380256D01*
X120262226Y-109191898D01*
X120302000Y-108991939D01*
X120302000Y-108788061D01*
X120262226Y-108588102D01*
X120184205Y-108399744D01*
X120102000Y-108276715D01*
X120102000Y-106606858D01*
X120106040Y-106565840D01*
X120089918Y-106402152D01*
X120042172Y-106244753D01*
X119964636Y-106099694D01*
X119886439Y-106004410D01*
X119886437Y-106004408D01*
X119860291Y-105972549D01*
X119828432Y-105946403D01*
X119294177Y-105412150D01*
X119265311Y-105267027D01*
X119187290Y-105078669D01*
X119074022Y-104909151D01*
X118971577Y-104806706D01*
X119009478Y-104749983D01*
X119087499Y-104561625D01*
X119127273Y-104361666D01*
X119127273Y-104157788D01*
X119087499Y-103957829D01*
X119009478Y-103769471D01*
X118896210Y-103599953D01*
X118752047Y-103455790D01*
X118582529Y-103342522D01*
X118394171Y-103264501D01*
X118194212Y-103224727D01*
X117990334Y-103224727D01*
X117790375Y-103264501D01*
X117602017Y-103342522D01*
X117432499Y-103455790D01*
X117288336Y-103599953D01*
X117175068Y-103769471D01*
X117097047Y-103957829D01*
X117057273Y-104157788D01*
X117057273Y-104219926D01*
X117034073Y-104243126D01*
X117005075Y-104266924D01*
X116981277Y-104295922D01*
X116981276Y-104295923D01*
X116910101Y-104382649D01*
X116839529Y-104514679D01*
X116825289Y-104561625D01*
X116796073Y-104657939D01*
X116785331Y-104767000D01*
X116781399Y-104806925D01*
X116785076Y-104844257D01*
X116785075Y-108205364D01*
X116741138Y-108249301D01*
X116627870Y-108418819D01*
X116549849Y-108607177D01*
X116510075Y-108807136D01*
X112708577Y-108807136D01*
X113291082Y-108291082D01*
X114230010Y-107231251D01*
X115034344Y-106065973D01*
X115692355Y-104812238D01*
X116194447Y-103488331D01*
X116533298Y-102113555D01*
X116703969Y-100707960D01*
X116703969Y-99848890D01*
X118370524Y-99848890D01*
X118415175Y-99996099D01*
X118540359Y-100258920D01*
X118714412Y-100492269D01*
X118930645Y-100687178D01*
X119180748Y-100836157D01*
X119455109Y-100933481D01*
X119685000Y-100812814D01*
X119685000Y-99619000D01*
X119939000Y-99619000D01*
X119939000Y-100812814D01*
X120168891Y-100933481D01*
X120443252Y-100836157D01*
X120693355Y-100687178D01*
X120909588Y-100492269D01*
X121083641Y-100258920D01*
X121208825Y-99996099D01*
X121253476Y-99848890D01*
X121132155Y-99619000D01*
X119939000Y-99619000D01*
X119685000Y-99619000D01*
X118491845Y-99619000D01*
X118370524Y-99848890D01*
X116703969Y-99848890D01*
X116703969Y-99292040D01*
X116533298Y-97886445D01*
X116194447Y-96511669D01*
X116039080Y-96102000D01*
X118323928Y-96102000D01*
X118323928Y-97802000D01*
X118336188Y-97926482D01*
X118372498Y-98046180D01*
X118431463Y-98156494D01*
X118510815Y-98253185D01*
X118607506Y-98332537D01*
X118717820Y-98391502D01*
X118798466Y-98415966D01*
X118714412Y-98491731D01*
X118540359Y-98725080D01*
X118415175Y-98987901D01*
X118370524Y-99135110D01*
X118491845Y-99365000D01*
X119685000Y-99365000D01*
X119685000Y-99345000D01*
X119939000Y-99345000D01*
X119939000Y-99365000D01*
X121132155Y-99365000D01*
X121253476Y-99135110D01*
X121208825Y-98987901D01*
X121083641Y-98725080D01*
X120909588Y-98491731D01*
X120825534Y-98415966D01*
X120906180Y-98391502D01*
X121016494Y-98332537D01*
X121113185Y-98253185D01*
X121192537Y-98156494D01*
X121251502Y-98046180D01*
X121287812Y-97926482D01*
X121300072Y-97802000D01*
X121300072Y-96102000D01*
X121287812Y-95977518D01*
X121251502Y-95857820D01*
X121192537Y-95747506D01*
X121113185Y-95650815D01*
X121016494Y-95571463D01*
X120906180Y-95512498D01*
X120786482Y-95476188D01*
X120662000Y-95463928D01*
X118962000Y-95463928D01*
X118837518Y-95476188D01*
X118717820Y-95512498D01*
X118607506Y-95571463D01*
X118510815Y-95650815D01*
X118431463Y-95747506D01*
X118372498Y-95857820D01*
X118336188Y-95977518D01*
X118323928Y-96102000D01*
X116039080Y-96102000D01*
X115692355Y-95187762D01*
X115034344Y-93934027D01*
X114230010Y-92768749D01*
X113291082Y-91708918D01*
X112231251Y-90769990D01*
X111472210Y-90246061D01*
X115475000Y-90246061D01*
X115475000Y-90449939D01*
X115514774Y-90649898D01*
X115592795Y-90838256D01*
X115706063Y-91007774D01*
X115850226Y-91151937D01*
X116019744Y-91265205D01*
X116208102Y-91343226D01*
X116408061Y-91383000D01*
X116611939Y-91383000D01*
X116811898Y-91343226D01*
X117000256Y-91265205D01*
X117169774Y-91151937D01*
X117313937Y-91007774D01*
X117427205Y-90838256D01*
X117505226Y-90649898D01*
X117545000Y-90449939D01*
X117545000Y-90246061D01*
X117505226Y-90046102D01*
X117427205Y-89857744D01*
X117345000Y-89734715D01*
X117345000Y-89687409D01*
X130630000Y-89687409D01*
X130630000Y-90132591D01*
X130716851Y-90569218D01*
X130887214Y-90980511D01*
X131134544Y-91350666D01*
X131449334Y-91665456D01*
X131819489Y-91912786D01*
X132230782Y-92083149D01*
X132667409Y-92170000D01*
X133112591Y-92170000D01*
X133549218Y-92083149D01*
X133960511Y-91912786D01*
X134330666Y-91665456D01*
X134645456Y-91350666D01*
X134892786Y-90980511D01*
X135063149Y-90569218D01*
X135150000Y-90132591D01*
X135150000Y-89687409D01*
X135063149Y-89250782D01*
X134892786Y-88839489D01*
X134645456Y-88469334D01*
X134330666Y-88154544D01*
X133960511Y-87907214D01*
X133549218Y-87736851D01*
X133112591Y-87650000D01*
X132667409Y-87650000D01*
X132230782Y-87736851D01*
X131819489Y-87907214D01*
X131449334Y-88154544D01*
X131134544Y-88469334D01*
X130887214Y-88839489D01*
X130716851Y-89250782D01*
X130630000Y-89687409D01*
X117345000Y-89687409D01*
X117345000Y-87902572D01*
X117423774Y-87849937D01*
X117567937Y-87705774D01*
X117681205Y-87536256D01*
X117759226Y-87347898D01*
X117780688Y-87240000D01*
X122601928Y-87240000D01*
X122601928Y-88760000D01*
X122614188Y-88884482D01*
X122650498Y-89004180D01*
X122709463Y-89114494D01*
X122788815Y-89211185D01*
X122885506Y-89290537D01*
X122995820Y-89349502D01*
X123115518Y-89385812D01*
X123240000Y-89398072D01*
X124760000Y-89398072D01*
X124884482Y-89385812D01*
X125004180Y-89349502D01*
X125114494Y-89290537D01*
X125211185Y-89211185D01*
X125290537Y-89114494D01*
X125349502Y-89004180D01*
X125385812Y-88884482D01*
X125398072Y-88760000D01*
X125398072Y-87694137D01*
X125755469Y-87694137D01*
X125822206Y-87934025D01*
X126070892Y-88050924D01*
X126337606Y-88117061D01*
X126612097Y-88129895D01*
X126883817Y-88088931D01*
X127142326Y-87995744D01*
X127257794Y-87934025D01*
X127324531Y-87694137D01*
X126540000Y-86909605D01*
X125755469Y-87694137D01*
X125398072Y-87694137D01*
X125398072Y-87465069D01*
X125575863Y-87514531D01*
X126360395Y-86730000D01*
X126719605Y-86730000D01*
X127504137Y-87514531D01*
X127744025Y-87447794D01*
X127860924Y-87199108D01*
X127927061Y-86932394D01*
X127939895Y-86657903D01*
X127898931Y-86386183D01*
X127805744Y-86127674D01*
X127744025Y-86012206D01*
X127504137Y-85945469D01*
X126719605Y-86730000D01*
X126360395Y-86730000D01*
X125575863Y-85945469D01*
X125335975Y-86012206D01*
X125219076Y-86260892D01*
X125152939Y-86527606D01*
X125143330Y-86733128D01*
X125114494Y-86709463D01*
X125004180Y-86650498D01*
X124884482Y-86614188D01*
X124796533Y-86605526D01*
X124889261Y-86543567D01*
X125083567Y-86349261D01*
X125236233Y-86120780D01*
X125341391Y-85866907D01*
X125395000Y-85597396D01*
X125395000Y-85322604D01*
X125341391Y-85053093D01*
X125236233Y-84799220D01*
X125083567Y-84570739D01*
X124889261Y-84376433D01*
X124660780Y-84223767D01*
X124579260Y-84190000D01*
X124660780Y-84156233D01*
X124889261Y-84003567D01*
X125083567Y-83809261D01*
X125236233Y-83580780D01*
X125341391Y-83326907D01*
X125395000Y-83057396D01*
X125395000Y-82782604D01*
X125341391Y-82513093D01*
X125236233Y-82259220D01*
X125083567Y-82030739D01*
X124889261Y-81836433D01*
X124660780Y-81683767D01*
X124406907Y-81578609D01*
X124137396Y-81525000D01*
X123862604Y-81525000D01*
X123593093Y-81578609D01*
X123339220Y-81683767D01*
X123110739Y-81836433D01*
X122916433Y-82030739D01*
X122763767Y-82259220D01*
X122658609Y-82513093D01*
X122605000Y-82782604D01*
X122605000Y-83057396D01*
X122658609Y-83326907D01*
X122763767Y-83580780D01*
X122916433Y-83809261D01*
X123110739Y-84003567D01*
X123339220Y-84156233D01*
X123420740Y-84190000D01*
X123339220Y-84223767D01*
X123110739Y-84376433D01*
X122916433Y-84570739D01*
X122763767Y-84799220D01*
X122658609Y-85053093D01*
X122605000Y-85322604D01*
X122605000Y-85597396D01*
X122658609Y-85866907D01*
X122763767Y-86120780D01*
X122916433Y-86349261D01*
X123110739Y-86543567D01*
X123203467Y-86605526D01*
X123115518Y-86614188D01*
X122995820Y-86650498D01*
X122885506Y-86709463D01*
X122788815Y-86788815D01*
X122709463Y-86885506D01*
X122650498Y-86995820D01*
X122614188Y-87115518D01*
X122601928Y-87240000D01*
X117780688Y-87240000D01*
X117799000Y-87147939D01*
X117799000Y-86944061D01*
X117759226Y-86744102D01*
X117681205Y-86555744D01*
X117567937Y-86386226D01*
X117423774Y-86242063D01*
X117254256Y-86128795D01*
X117065898Y-86050774D01*
X116865939Y-86011000D01*
X116662061Y-86011000D01*
X116462102Y-86050774D01*
X116273744Y-86128795D01*
X116104226Y-86242063D01*
X115960063Y-86386226D01*
X115846795Y-86555744D01*
X115768774Y-86744102D01*
X115729000Y-86944061D01*
X115729000Y-86998126D01*
X115687082Y-87136312D01*
X115670960Y-87300000D01*
X115675001Y-87341028D01*
X115675000Y-89734715D01*
X115592795Y-89857744D01*
X115514774Y-90046102D01*
X115475000Y-90246061D01*
X111472210Y-90246061D01*
X111065973Y-89965656D01*
X109812238Y-89307645D01*
X108488331Y-88805553D01*
X107113555Y-88466702D01*
X105707960Y-88296031D01*
X104292040Y-88296031D01*
X102886445Y-88466702D01*
X101511669Y-88805553D01*
X100187762Y-89307645D01*
X98934027Y-89965656D01*
X97768749Y-90769990D01*
X96708918Y-91708918D01*
X95769990Y-92768749D01*
X95127000Y-93700280D01*
X95127000Y-81512604D01*
X125145000Y-81512604D01*
X125145000Y-81787396D01*
X125198609Y-82056907D01*
X125303767Y-82310780D01*
X125456433Y-82539261D01*
X125650739Y-82733567D01*
X125879220Y-82886233D01*
X125960740Y-82920000D01*
X125879220Y-82953767D01*
X125650739Y-83106433D01*
X125456433Y-83300739D01*
X125303767Y-83529220D01*
X125198609Y-83783093D01*
X125145000Y-84052604D01*
X125145000Y-84327396D01*
X125198609Y-84596907D01*
X125303767Y-84850780D01*
X125456433Y-85079261D01*
X125650739Y-85273567D01*
X125879220Y-85426233D01*
X125955501Y-85457830D01*
X125937674Y-85464256D01*
X125822206Y-85525975D01*
X125755469Y-85765863D01*
X126540000Y-86550395D01*
X127324531Y-85765863D01*
X127257794Y-85525975D01*
X127118293Y-85460400D01*
X127200780Y-85426233D01*
X127429261Y-85273567D01*
X127623567Y-85079261D01*
X127776233Y-84850780D01*
X127881391Y-84596907D01*
X127935000Y-84327396D01*
X127935000Y-84052604D01*
X127881391Y-83783093D01*
X127776233Y-83529220D01*
X127623567Y-83300739D01*
X127429261Y-83106433D01*
X127200780Y-82953767D01*
X127119260Y-82920000D01*
X127200780Y-82886233D01*
X127429261Y-82733567D01*
X127623567Y-82539261D01*
X127776233Y-82310780D01*
X127881391Y-82056907D01*
X127935000Y-81787396D01*
X127935000Y-81512604D01*
X127881391Y-81243093D01*
X127776233Y-80989220D01*
X127623567Y-80760739D01*
X127429261Y-80566433D01*
X127200780Y-80413767D01*
X126946907Y-80308609D01*
X126677396Y-80255000D01*
X126402604Y-80255000D01*
X126133093Y-80308609D01*
X125879220Y-80413767D01*
X125650739Y-80566433D01*
X125456433Y-80760739D01*
X125303767Y-80989220D01*
X125198609Y-81243093D01*
X125145000Y-81512604D01*
X95127000Y-81512604D01*
X95127000Y-78437117D01*
X98345000Y-78437117D01*
X98345000Y-78778883D01*
X98411675Y-79114081D01*
X98542463Y-79429831D01*
X98732337Y-79713998D01*
X98974002Y-79955663D01*
X99258169Y-80145537D01*
X99573919Y-80276325D01*
X99909117Y-80343000D01*
X100250883Y-80343000D01*
X100586081Y-80276325D01*
X100901831Y-80145537D01*
X101185998Y-79955663D01*
X101427663Y-79713998D01*
X101552337Y-79527409D01*
X130630000Y-79527409D01*
X130630000Y-79972591D01*
X130716851Y-80409218D01*
X130887214Y-80820511D01*
X131134544Y-81190666D01*
X131449334Y-81505456D01*
X131819489Y-81752786D01*
X132230782Y-81923149D01*
X132667409Y-82010000D01*
X133112591Y-82010000D01*
X133549218Y-81923149D01*
X133960511Y-81752786D01*
X134330666Y-81505456D01*
X134645456Y-81190666D01*
X134892786Y-80820511D01*
X135063149Y-80409218D01*
X135150000Y-79972591D01*
X135150000Y-79527409D01*
X135063149Y-79090782D01*
X134892786Y-78679489D01*
X134645456Y-78309334D01*
X134330666Y-77994544D01*
X133960511Y-77747214D01*
X133737871Y-77654994D01*
X133790482Y-77649812D01*
X133910180Y-77613502D01*
X134020494Y-77554537D01*
X134117185Y-77475185D01*
X134196537Y-77378494D01*
X134255502Y-77268180D01*
X134291812Y-77148482D01*
X134304072Y-77024000D01*
X134301000Y-76409750D01*
X134142250Y-76251000D01*
X132893000Y-76251000D01*
X132893000Y-76271000D01*
X132639000Y-76271000D01*
X132639000Y-76251000D01*
X131389750Y-76251000D01*
X131231000Y-76409750D01*
X131227928Y-77024000D01*
X131240188Y-77148482D01*
X131276498Y-77268180D01*
X131335463Y-77378494D01*
X131414815Y-77475185D01*
X131511506Y-77554537D01*
X131621820Y-77613502D01*
X131741518Y-77649812D01*
X131866000Y-77662072D01*
X132026984Y-77661267D01*
X131819489Y-77747214D01*
X131449334Y-77994544D01*
X131134544Y-78309334D01*
X130887214Y-78679489D01*
X130716851Y-79090782D01*
X130630000Y-79527409D01*
X101552337Y-79527409D01*
X101617537Y-79429831D01*
X101748325Y-79114081D01*
X101815000Y-78778883D01*
X101815000Y-78437117D01*
X101748325Y-78101919D01*
X101617537Y-77786169D01*
X101427663Y-77502002D01*
X101185998Y-77260337D01*
X100901831Y-77070463D01*
X100586081Y-76939675D01*
X100250883Y-76873000D01*
X99909117Y-76873000D01*
X99573919Y-76939675D01*
X99258169Y-77070463D01*
X98974002Y-77260337D01*
X98732337Y-77502002D01*
X98542463Y-77786169D01*
X98411675Y-78101919D01*
X98345000Y-78437117D01*
X95127000Y-78437117D01*
X95127000Y-76208000D01*
X103341928Y-76208000D01*
X103354188Y-76332482D01*
X103390498Y-76452180D01*
X103449463Y-76562494D01*
X103528815Y-76659185D01*
X103625506Y-76738537D01*
X103735820Y-76797502D01*
X103855518Y-76833812D01*
X103980000Y-76846072D01*
X104794250Y-76843000D01*
X104953000Y-76684250D01*
X104953000Y-75235000D01*
X105207000Y-75235000D01*
X105207000Y-76684250D01*
X105365750Y-76843000D01*
X106180000Y-76846072D01*
X106304482Y-76833812D01*
X106424180Y-76797502D01*
X106534494Y-76738537D01*
X106631185Y-76659185D01*
X106710537Y-76562494D01*
X106769502Y-76452180D01*
X106805812Y-76332482D01*
X106818072Y-76208000D01*
X106815000Y-75393750D01*
X106656250Y-75235000D01*
X105207000Y-75235000D01*
X104953000Y-75235000D01*
X103503750Y-75235000D01*
X103345000Y-75393750D01*
X103341928Y-76208000D01*
X95127000Y-76208000D01*
X95127000Y-74008000D01*
X103341928Y-74008000D01*
X103345000Y-74822250D01*
X103503750Y-74981000D01*
X104953000Y-74981000D01*
X104953000Y-73531750D01*
X105207000Y-73531750D01*
X105207000Y-74981000D01*
X106656250Y-74981000D01*
X106815000Y-74822250D01*
X106815135Y-74786323D01*
X122830497Y-74786323D01*
X122830497Y-75213677D01*
X122913870Y-75632821D01*
X123077412Y-76027645D01*
X123314837Y-76382977D01*
X123617023Y-76685163D01*
X123972355Y-76922588D01*
X124367179Y-77086130D01*
X124786323Y-77169503D01*
X125213677Y-77169503D01*
X125632821Y-77086130D01*
X126027645Y-76922588D01*
X126382977Y-76685163D01*
X126685163Y-76382977D01*
X126922588Y-76027645D01*
X127086130Y-75632821D01*
X127169503Y-75213677D01*
X127169503Y-74786323D01*
X127086130Y-74367179D01*
X126922588Y-73972355D01*
X126685163Y-73617023D01*
X126382977Y-73314837D01*
X126027645Y-73077412D01*
X125632821Y-72913870D01*
X125213677Y-72830497D01*
X124786323Y-72830497D01*
X124367179Y-72913870D01*
X123972355Y-73077412D01*
X123617023Y-73314837D01*
X123314837Y-73617023D01*
X123077412Y-73972355D01*
X122913870Y-74367179D01*
X122830497Y-74786323D01*
X106815135Y-74786323D01*
X106818072Y-74008000D01*
X106805812Y-73883518D01*
X106769502Y-73763820D01*
X106710537Y-73653506D01*
X106631185Y-73556815D01*
X106534494Y-73477463D01*
X106424180Y-73418498D01*
X106304482Y-73382188D01*
X106180000Y-73369928D01*
X105365750Y-73373000D01*
X105207000Y-73531750D01*
X104953000Y-73531750D01*
X104794250Y-73373000D01*
X103980000Y-73369928D01*
X103855518Y-73382188D01*
X103735820Y-73418498D01*
X103625506Y-73477463D01*
X103528815Y-73556815D01*
X103449463Y-73653506D01*
X103390498Y-73763820D01*
X103354188Y-73883518D01*
X103341928Y-74008000D01*
X95127000Y-74008000D01*
X95127000Y-72660000D01*
X131537269Y-72660000D01*
X131405701Y-72856905D01*
%TD*%
M02*
