%TF.GenerationSoftware,KiCad,Pcbnew,(5.1.6)-1*%
%TF.CreationDate,2021-04-28T12:39:19+02:00*%
%TF.ProjectId,wireless_button,77697265-6c65-4737-935f-627574746f6e,rev?*%
%TF.SameCoordinates,Original*%
%TF.FileFunction,Legend,Top*%
%TF.FilePolarity,Positive*%
%FSLAX46Y46*%
G04 Gerber Fmt 4.6, Leading zero omitted, Abs format (unit mm)*
G04 Created by KiCad (PCBNEW (5.1.6)-1) date 2021-04-28 12:39:19*
%MOMM*%
%LPD*%
G01*
G04 APERTURE LIST*
%ADD10C,0.200000*%
%ADD11C,0.120000*%
%ADD12C,0.300000*%
%ADD13C,0.010000*%
%ADD14C,0.100000*%
%ADD15C,0.150000*%
G04 APERTURE END LIST*
D10*
X78880952Y-82585714D02*
X79071428Y-83252380D01*
X79261904Y-82776190D01*
X79452380Y-83252380D01*
X79642857Y-82585714D01*
X80023809Y-83252380D02*
X80023809Y-82585714D01*
X80023809Y-82252380D02*
X79976190Y-82300000D01*
X80023809Y-82347619D01*
X80071428Y-82300000D01*
X80023809Y-82252380D01*
X80023809Y-82347619D01*
X80500000Y-83252380D02*
X80500000Y-82585714D01*
X80500000Y-82776190D02*
X80547619Y-82680952D01*
X80595238Y-82633333D01*
X80690476Y-82585714D01*
X80785714Y-82585714D01*
X81500000Y-83204761D02*
X81404761Y-83252380D01*
X81214285Y-83252380D01*
X81119047Y-83204761D01*
X81071428Y-83109523D01*
X81071428Y-82728571D01*
X81119047Y-82633333D01*
X81214285Y-82585714D01*
X81404761Y-82585714D01*
X81500000Y-82633333D01*
X81547619Y-82728571D01*
X81547619Y-82823809D01*
X81071428Y-82919047D01*
X82119047Y-83252380D02*
X82023809Y-83204761D01*
X81976190Y-83109523D01*
X81976190Y-82252380D01*
X82880952Y-83204761D02*
X82785714Y-83252380D01*
X82595238Y-83252380D01*
X82500000Y-83204761D01*
X82452380Y-83109523D01*
X82452380Y-82728571D01*
X82500000Y-82633333D01*
X82595238Y-82585714D01*
X82785714Y-82585714D01*
X82880952Y-82633333D01*
X82928571Y-82728571D01*
X82928571Y-82823809D01*
X82452380Y-82919047D01*
X83309523Y-83204761D02*
X83404761Y-83252380D01*
X83595238Y-83252380D01*
X83690476Y-83204761D01*
X83738095Y-83109523D01*
X83738095Y-83061904D01*
X83690476Y-82966666D01*
X83595238Y-82919047D01*
X83452380Y-82919047D01*
X83357142Y-82871428D01*
X83309523Y-82776190D01*
X83309523Y-82728571D01*
X83357142Y-82633333D01*
X83452380Y-82585714D01*
X83595238Y-82585714D01*
X83690476Y-82633333D01*
X84119047Y-83204761D02*
X84214285Y-83252380D01*
X84404761Y-83252380D01*
X84500000Y-83204761D01*
X84547619Y-83109523D01*
X84547619Y-83061904D01*
X84500000Y-82966666D01*
X84404761Y-82919047D01*
X84261904Y-82919047D01*
X84166666Y-82871428D01*
X84119047Y-82776190D01*
X84119047Y-82728571D01*
X84166666Y-82633333D01*
X84261904Y-82585714D01*
X84404761Y-82585714D01*
X84500000Y-82633333D01*
X85738095Y-83252380D02*
X85738095Y-82252380D01*
X85738095Y-82633333D02*
X85833333Y-82585714D01*
X86023809Y-82585714D01*
X86119047Y-82633333D01*
X86166666Y-82680952D01*
X86214285Y-82776190D01*
X86214285Y-83061904D01*
X86166666Y-83157142D01*
X86119047Y-83204761D01*
X86023809Y-83252380D01*
X85833333Y-83252380D01*
X85738095Y-83204761D01*
X87071428Y-82585714D02*
X87071428Y-83252380D01*
X86642857Y-82585714D02*
X86642857Y-83109523D01*
X86690476Y-83204761D01*
X86785714Y-83252380D01*
X86928571Y-83252380D01*
X87023809Y-83204761D01*
X87071428Y-83157142D01*
X87404761Y-82585714D02*
X87785714Y-82585714D01*
X87547619Y-82252380D02*
X87547619Y-83109523D01*
X87595238Y-83204761D01*
X87690476Y-83252380D01*
X87785714Y-83252380D01*
X87976190Y-82585714D02*
X88357142Y-82585714D01*
X88119047Y-82252380D02*
X88119047Y-83109523D01*
X88166666Y-83204761D01*
X88261904Y-83252380D01*
X88357142Y-83252380D01*
X88833333Y-83252380D02*
X88738095Y-83204761D01*
X88690476Y-83157142D01*
X88642857Y-83061904D01*
X88642857Y-82776190D01*
X88690476Y-82680952D01*
X88738095Y-82633333D01*
X88833333Y-82585714D01*
X88976190Y-82585714D01*
X89071428Y-82633333D01*
X89119047Y-82680952D01*
X89166666Y-82776190D01*
X89166666Y-83061904D01*
X89119047Y-83157142D01*
X89071428Y-83204761D01*
X88976190Y-83252380D01*
X88833333Y-83252380D01*
X89595238Y-82585714D02*
X89595238Y-83252380D01*
X89595238Y-82680952D02*
X89642857Y-82633333D01*
X89738095Y-82585714D01*
X89880952Y-82585714D01*
X89976190Y-82633333D01*
X90023809Y-82728571D01*
X90023809Y-83252380D01*
X83071428Y-84285714D02*
X83309523Y-84952380D01*
X83547619Y-84285714D01*
X84119047Y-83952380D02*
X84214285Y-83952380D01*
X84309523Y-84000000D01*
X84357142Y-84047619D01*
X84404761Y-84142857D01*
X84452380Y-84333333D01*
X84452380Y-84571428D01*
X84404761Y-84761904D01*
X84357142Y-84857142D01*
X84309523Y-84904761D01*
X84214285Y-84952380D01*
X84119047Y-84952380D01*
X84023809Y-84904761D01*
X83976190Y-84857142D01*
X83928571Y-84761904D01*
X83880952Y-84571428D01*
X83880952Y-84333333D01*
X83928571Y-84142857D01*
X83976190Y-84047619D01*
X84023809Y-84000000D01*
X84119047Y-83952380D01*
X84880952Y-84857142D02*
X84928571Y-84904761D01*
X84880952Y-84952380D01*
X84833333Y-84904761D01*
X84880952Y-84857142D01*
X84880952Y-84952380D01*
X85880952Y-84952380D02*
X85309523Y-84952380D01*
X85595238Y-84952380D02*
X85595238Y-83952380D01*
X85500000Y-84095238D01*
X85404761Y-84190476D01*
X85309523Y-84238095D01*
X80142857Y-86652380D02*
X80142857Y-85652380D01*
X80142857Y-86033333D02*
X80238095Y-85985714D01*
X80428571Y-85985714D01*
X80523809Y-86033333D01*
X80571428Y-86080952D01*
X80619047Y-86176190D01*
X80619047Y-86461904D01*
X80571428Y-86557142D01*
X80523809Y-86604761D01*
X80428571Y-86652380D01*
X80238095Y-86652380D01*
X80142857Y-86604761D01*
X80952380Y-85985714D02*
X81190476Y-86652380D01*
X81428571Y-85985714D02*
X81190476Y-86652380D01*
X81095238Y-86890476D01*
X81047619Y-86938095D01*
X80952380Y-86985714D01*
X82571428Y-86652380D02*
X82571428Y-85652380D01*
X82809523Y-85652380D01*
X82952380Y-85700000D01*
X83047619Y-85795238D01*
X83095238Y-85890476D01*
X83142857Y-86080952D01*
X83142857Y-86223809D01*
X83095238Y-86414285D01*
X83047619Y-86509523D01*
X82952380Y-86604761D01*
X82809523Y-86652380D01*
X82571428Y-86652380D01*
X83571428Y-86652380D02*
X83571428Y-85985714D01*
X83571428Y-85652380D02*
X83523809Y-85700000D01*
X83571428Y-85747619D01*
X83619047Y-85700000D01*
X83571428Y-85652380D01*
X83571428Y-85747619D01*
X84047619Y-86652380D02*
X84047619Y-85652380D01*
X84380952Y-86366666D01*
X84714285Y-85652380D01*
X84714285Y-86652380D01*
X85333333Y-86652380D02*
X85238095Y-86604761D01*
X85190476Y-86557142D01*
X85142857Y-86461904D01*
X85142857Y-86176190D01*
X85190476Y-86080952D01*
X85238095Y-86033333D01*
X85333333Y-85985714D01*
X85476190Y-85985714D01*
X85571428Y-86033333D01*
X85619047Y-86080952D01*
X85666666Y-86176190D01*
X85666666Y-86461904D01*
X85619047Y-86557142D01*
X85571428Y-86604761D01*
X85476190Y-86652380D01*
X85333333Y-86652380D01*
X86095238Y-86652380D02*
X86095238Y-85985714D01*
X86095238Y-86080952D02*
X86142857Y-86033333D01*
X86238095Y-85985714D01*
X86380952Y-85985714D01*
X86476190Y-86033333D01*
X86523809Y-86128571D01*
X86523809Y-86652380D01*
X86523809Y-86128571D02*
X86571428Y-86033333D01*
X86666666Y-85985714D01*
X86809523Y-85985714D01*
X86904761Y-86033333D01*
X86952380Y-86128571D01*
X86952380Y-86652380D01*
X87428571Y-86652380D02*
X87428571Y-85985714D01*
X87428571Y-85652380D02*
X87380952Y-85700000D01*
X87428571Y-85747619D01*
X87476190Y-85700000D01*
X87428571Y-85652380D01*
X87428571Y-85747619D01*
X87761904Y-85985714D02*
X88142857Y-85985714D01*
X87904761Y-85652380D02*
X87904761Y-86509523D01*
X87952380Y-86604761D01*
X88047619Y-86652380D01*
X88142857Y-86652380D01*
X88857142Y-86604761D02*
X88761904Y-86652380D01*
X88571428Y-86652380D01*
X88476190Y-86604761D01*
X88428571Y-86509523D01*
X88428571Y-86128571D01*
X88476190Y-86033333D01*
X88571428Y-85985714D01*
X88761904Y-85985714D01*
X88857142Y-86033333D01*
X88904761Y-86128571D01*
X88904761Y-86223809D01*
X88428571Y-86319047D01*
D11*
X88000000Y-91000000D02*
X90000000Y-89000000D01*
X86000000Y-89000000D02*
X88000000Y-91000000D01*
X88000000Y-89000000D02*
X88000000Y-98000000D01*
X127500000Y-75000000D02*
G75*
G03*
X127500000Y-75000000I-2500000J0D01*
G01*
X127500000Y-125000000D02*
G75*
G03*
X127500000Y-125000000I-2500000J0D01*
G01*
D12*
X136238571Y-86428571D02*
X134738571Y-86428571D01*
X135310000Y-86428571D02*
X135238571Y-86285714D01*
X135238571Y-86000000D01*
X135310000Y-85857142D01*
X135381428Y-85785714D01*
X135524285Y-85714285D01*
X135952857Y-85714285D01*
X136095714Y-85785714D01*
X136167142Y-85857142D01*
X136238571Y-86000000D01*
X136238571Y-86285714D01*
X136167142Y-86428571D01*
X135238571Y-85285714D02*
X135238571Y-84714285D01*
X134738571Y-85071428D02*
X136024285Y-85071428D01*
X136167142Y-85000000D01*
X136238571Y-84857142D01*
X136238571Y-84714285D01*
X135238571Y-84214285D02*
X136238571Y-84214285D01*
X135381428Y-84214285D02*
X135310000Y-84142857D01*
X135238571Y-84000000D01*
X135238571Y-83785714D01*
X135310000Y-83642857D01*
X135452857Y-83571428D01*
X136238571Y-83571428D01*
D13*
%TO.C,REF\u002A\u002A*%
G36*
X85000964Y-73398576D02*
G01*
X85076513Y-73799322D01*
X85634041Y-74029154D01*
X85968465Y-73801748D01*
X86062122Y-73738431D01*
X86146782Y-73681896D01*
X86218495Y-73634727D01*
X86273311Y-73599502D01*
X86307280Y-73578805D01*
X86316530Y-73574342D01*
X86333195Y-73585820D01*
X86368806Y-73617551D01*
X86419371Y-73665483D01*
X86480900Y-73725562D01*
X86549399Y-73793733D01*
X86620879Y-73865945D01*
X86691347Y-73938142D01*
X86756811Y-74006273D01*
X86813280Y-74066283D01*
X86856763Y-74114119D01*
X86883268Y-74145727D01*
X86889605Y-74156305D01*
X86880486Y-74175806D01*
X86854920Y-74218531D01*
X86815597Y-74280298D01*
X86765203Y-74356931D01*
X86706427Y-74444248D01*
X86672368Y-74494052D01*
X86610289Y-74584993D01*
X86555126Y-74667059D01*
X86509554Y-74736163D01*
X86476250Y-74788222D01*
X86457890Y-74819150D01*
X86455131Y-74825650D01*
X86461385Y-74844121D01*
X86478434Y-74887172D01*
X86503703Y-74948749D01*
X86534622Y-75022799D01*
X86568618Y-75103270D01*
X86603118Y-75184107D01*
X86635551Y-75259258D01*
X86663343Y-75322671D01*
X86683923Y-75368293D01*
X86694719Y-75390069D01*
X86695356Y-75390926D01*
X86712307Y-75395084D01*
X86757451Y-75404361D01*
X86826110Y-75417844D01*
X86913602Y-75434621D01*
X87015250Y-75453781D01*
X87074556Y-75464830D01*
X87183172Y-75485510D01*
X87281277Y-75505189D01*
X87363909Y-75522789D01*
X87426104Y-75537233D01*
X87462899Y-75547446D01*
X87470296Y-75550686D01*
X87477540Y-75572617D01*
X87483385Y-75622147D01*
X87487835Y-75693485D01*
X87490893Y-75780839D01*
X87492565Y-75878417D01*
X87492853Y-75980426D01*
X87491761Y-76081075D01*
X87489294Y-76174572D01*
X87485456Y-76255125D01*
X87480250Y-76316942D01*
X87473681Y-76354230D01*
X87469741Y-76361993D01*
X87446188Y-76371298D01*
X87396282Y-76384600D01*
X87326623Y-76400337D01*
X87243813Y-76416946D01*
X87214905Y-76422319D01*
X87075531Y-76447848D01*
X86965436Y-76468408D01*
X86880982Y-76484815D01*
X86818530Y-76497887D01*
X86774444Y-76508441D01*
X86745085Y-76517294D01*
X86726815Y-76525263D01*
X86715998Y-76533165D01*
X86714485Y-76534727D01*
X86699377Y-76559886D01*
X86676329Y-76608850D01*
X86647644Y-76675621D01*
X86615622Y-76754205D01*
X86582565Y-76838607D01*
X86550773Y-76922830D01*
X86522549Y-77000879D01*
X86500193Y-77066759D01*
X86486007Y-77114473D01*
X86482293Y-77138027D01*
X86482602Y-77138852D01*
X86495189Y-77158104D01*
X86523744Y-77200463D01*
X86565267Y-77261521D01*
X86616756Y-77336868D01*
X86675211Y-77422096D01*
X86691858Y-77446315D01*
X86751215Y-77534123D01*
X86803447Y-77614238D01*
X86845708Y-77682062D01*
X86875153Y-77732993D01*
X86888937Y-77762431D01*
X86889605Y-77766048D01*
X86878024Y-77785057D01*
X86846024Y-77822714D01*
X86797718Y-77874973D01*
X86737220Y-77937786D01*
X86668644Y-78007106D01*
X86596104Y-78078885D01*
X86523712Y-78149077D01*
X86455584Y-78213635D01*
X86395832Y-78268510D01*
X86348571Y-78309656D01*
X86317913Y-78333026D01*
X86309432Y-78336842D01*
X86289691Y-78327855D01*
X86249274Y-78303616D01*
X86194763Y-78268209D01*
X86152823Y-78239711D01*
X86076829Y-78187418D01*
X85986834Y-78125845D01*
X85896564Y-78064370D01*
X85848032Y-78031469D01*
X85683762Y-77920359D01*
X85545869Y-77994916D01*
X85483049Y-78027578D01*
X85429629Y-78052966D01*
X85393484Y-78067446D01*
X85384284Y-78069460D01*
X85373221Y-78054584D01*
X85351394Y-78012547D01*
X85320434Y-77947227D01*
X85281970Y-77862500D01*
X85237632Y-77762245D01*
X85189047Y-77650339D01*
X85137846Y-77530659D01*
X85085659Y-77407084D01*
X85034113Y-77283491D01*
X84984840Y-77163757D01*
X84939467Y-77051759D01*
X84899625Y-76951377D01*
X84866942Y-76866486D01*
X84843049Y-76800965D01*
X84829574Y-76758690D01*
X84827406Y-76744172D01*
X84844583Y-76725653D01*
X84882190Y-76695590D01*
X84932366Y-76660232D01*
X84936578Y-76657434D01*
X85066264Y-76553625D01*
X85170834Y-76432515D01*
X85249381Y-76297976D01*
X85300999Y-76153882D01*
X85324782Y-76004105D01*
X85319823Y-75852517D01*
X85285217Y-75702992D01*
X85220057Y-75559400D01*
X85200886Y-75527984D01*
X85101174Y-75401125D01*
X84983377Y-75299255D01*
X84851571Y-75222904D01*
X84709833Y-75172602D01*
X84562242Y-75148879D01*
X84412873Y-75152265D01*
X84265803Y-75183288D01*
X84125111Y-75242480D01*
X83994873Y-75330369D01*
X83954586Y-75366042D01*
X83852055Y-75477706D01*
X83777341Y-75595257D01*
X83726090Y-75727020D01*
X83697546Y-75857507D01*
X83690500Y-76004216D01*
X83713996Y-76151653D01*
X83765649Y-76294834D01*
X83843071Y-76428777D01*
X83943875Y-76548498D01*
X84065676Y-76649014D01*
X84081684Y-76659609D01*
X84132398Y-76694306D01*
X84170950Y-76724370D01*
X84189381Y-76743565D01*
X84189649Y-76744172D01*
X84185692Y-76764936D01*
X84170007Y-76812062D01*
X84144222Y-76881673D01*
X84109969Y-76969893D01*
X84068877Y-77072844D01*
X84022576Y-77186650D01*
X83972696Y-77307435D01*
X83920867Y-77431321D01*
X83868719Y-77554432D01*
X83817882Y-77672891D01*
X83769987Y-77782823D01*
X83726662Y-77880349D01*
X83689538Y-77961593D01*
X83660244Y-78022679D01*
X83640412Y-78059730D01*
X83632426Y-78069460D01*
X83608021Y-78061883D01*
X83562358Y-78041560D01*
X83503310Y-78012125D01*
X83470840Y-77994916D01*
X83332947Y-77920359D01*
X83168677Y-78031469D01*
X83084821Y-78088390D01*
X82993013Y-78151030D01*
X82906980Y-78210011D01*
X82863887Y-78239711D01*
X82803277Y-78280410D01*
X82751955Y-78312663D01*
X82716615Y-78332384D01*
X82705137Y-78336554D01*
X82688430Y-78325307D01*
X82651454Y-78293911D01*
X82597795Y-78245624D01*
X82531038Y-78183708D01*
X82454766Y-78111421D01*
X82406527Y-78065008D01*
X82322133Y-77982087D01*
X82249197Y-77907920D01*
X82190669Y-77845680D01*
X82149497Y-77798541D01*
X82128628Y-77769673D01*
X82126626Y-77763815D01*
X82135917Y-77741532D01*
X82161591Y-77696477D01*
X82200800Y-77633211D01*
X82250697Y-77556295D01*
X82308433Y-77470292D01*
X82324851Y-77446315D01*
X82384677Y-77359170D01*
X82438350Y-77280710D01*
X82482870Y-77215345D01*
X82515235Y-77167484D01*
X82532445Y-77141535D01*
X82534107Y-77138852D01*
X82531621Y-77118172D01*
X82518423Y-77072704D01*
X82496814Y-77008444D01*
X82469096Y-76931387D01*
X82437570Y-76847529D01*
X82404537Y-76762866D01*
X82372299Y-76683392D01*
X82343157Y-76615104D01*
X82319412Y-76563997D01*
X82303365Y-76536067D01*
X82302225Y-76534727D01*
X82292412Y-76526745D01*
X82275839Y-76518851D01*
X82248868Y-76510229D01*
X82207861Y-76500062D01*
X82149180Y-76487531D01*
X82069187Y-76471821D01*
X81964245Y-76452113D01*
X81830715Y-76427592D01*
X81801804Y-76422319D01*
X81716118Y-76405764D01*
X81641418Y-76389569D01*
X81584306Y-76375296D01*
X81551383Y-76364508D01*
X81546969Y-76361993D01*
X81539694Y-76339696D01*
X81533781Y-76289869D01*
X81529234Y-76218304D01*
X81526055Y-76130793D01*
X81524251Y-76033128D01*
X81523823Y-75931101D01*
X81524777Y-75830503D01*
X81527116Y-75737127D01*
X81530844Y-75656765D01*
X81535966Y-75595209D01*
X81542484Y-75558250D01*
X81546414Y-75550686D01*
X81568292Y-75543056D01*
X81618109Y-75530642D01*
X81690903Y-75514522D01*
X81781711Y-75495773D01*
X81885569Y-75475471D01*
X81942154Y-75464830D01*
X82049514Y-75444760D01*
X82145254Y-75426580D01*
X82224694Y-75411199D01*
X82283154Y-75399531D01*
X82315955Y-75392488D01*
X82321354Y-75390926D01*
X82330478Y-75373322D01*
X82349765Y-75330918D01*
X82376645Y-75269772D01*
X82408546Y-75195943D01*
X82442898Y-75115489D01*
X82477129Y-75034468D01*
X82508669Y-74958937D01*
X82534946Y-74894955D01*
X82553389Y-74848580D01*
X82561429Y-74825869D01*
X82561578Y-74824876D01*
X82552465Y-74806961D01*
X82526914Y-74765733D01*
X82487612Y-74705291D01*
X82437243Y-74629731D01*
X82378494Y-74543152D01*
X82344342Y-74493421D01*
X82282110Y-74402236D01*
X82226836Y-74319449D01*
X82181218Y-74249249D01*
X82147952Y-74195824D01*
X82129736Y-74163361D01*
X82127105Y-74156083D01*
X82138414Y-74139145D01*
X82169681Y-74102978D01*
X82216910Y-74051635D01*
X82276108Y-73989167D01*
X82343281Y-73919626D01*
X82414434Y-73847065D01*
X82485574Y-73775535D01*
X82552707Y-73709087D01*
X82611839Y-73651774D01*
X82658975Y-73607647D01*
X82690123Y-73580759D01*
X82700543Y-73574342D01*
X82717509Y-73583365D01*
X82758089Y-73608715D01*
X82818337Y-73647810D01*
X82894307Y-73698071D01*
X82982054Y-73756917D01*
X83048244Y-73801748D01*
X83382668Y-74029154D01*
X83661433Y-73914238D01*
X83940197Y-73799322D01*
X84015746Y-73398576D01*
X84091294Y-72997829D01*
X84925415Y-72997829D01*
X85000964Y-73398576D01*
G37*
X85000964Y-73398576D02*
X85076513Y-73799322D01*
X85634041Y-74029154D01*
X85968465Y-73801748D01*
X86062122Y-73738431D01*
X86146782Y-73681896D01*
X86218495Y-73634727D01*
X86273311Y-73599502D01*
X86307280Y-73578805D01*
X86316530Y-73574342D01*
X86333195Y-73585820D01*
X86368806Y-73617551D01*
X86419371Y-73665483D01*
X86480900Y-73725562D01*
X86549399Y-73793733D01*
X86620879Y-73865945D01*
X86691347Y-73938142D01*
X86756811Y-74006273D01*
X86813280Y-74066283D01*
X86856763Y-74114119D01*
X86883268Y-74145727D01*
X86889605Y-74156305D01*
X86880486Y-74175806D01*
X86854920Y-74218531D01*
X86815597Y-74280298D01*
X86765203Y-74356931D01*
X86706427Y-74444248D01*
X86672368Y-74494052D01*
X86610289Y-74584993D01*
X86555126Y-74667059D01*
X86509554Y-74736163D01*
X86476250Y-74788222D01*
X86457890Y-74819150D01*
X86455131Y-74825650D01*
X86461385Y-74844121D01*
X86478434Y-74887172D01*
X86503703Y-74948749D01*
X86534622Y-75022799D01*
X86568618Y-75103270D01*
X86603118Y-75184107D01*
X86635551Y-75259258D01*
X86663343Y-75322671D01*
X86683923Y-75368293D01*
X86694719Y-75390069D01*
X86695356Y-75390926D01*
X86712307Y-75395084D01*
X86757451Y-75404361D01*
X86826110Y-75417844D01*
X86913602Y-75434621D01*
X87015250Y-75453781D01*
X87074556Y-75464830D01*
X87183172Y-75485510D01*
X87281277Y-75505189D01*
X87363909Y-75522789D01*
X87426104Y-75537233D01*
X87462899Y-75547446D01*
X87470296Y-75550686D01*
X87477540Y-75572617D01*
X87483385Y-75622147D01*
X87487835Y-75693485D01*
X87490893Y-75780839D01*
X87492565Y-75878417D01*
X87492853Y-75980426D01*
X87491761Y-76081075D01*
X87489294Y-76174572D01*
X87485456Y-76255125D01*
X87480250Y-76316942D01*
X87473681Y-76354230D01*
X87469741Y-76361993D01*
X87446188Y-76371298D01*
X87396282Y-76384600D01*
X87326623Y-76400337D01*
X87243813Y-76416946D01*
X87214905Y-76422319D01*
X87075531Y-76447848D01*
X86965436Y-76468408D01*
X86880982Y-76484815D01*
X86818530Y-76497887D01*
X86774444Y-76508441D01*
X86745085Y-76517294D01*
X86726815Y-76525263D01*
X86715998Y-76533165D01*
X86714485Y-76534727D01*
X86699377Y-76559886D01*
X86676329Y-76608850D01*
X86647644Y-76675621D01*
X86615622Y-76754205D01*
X86582565Y-76838607D01*
X86550773Y-76922830D01*
X86522549Y-77000879D01*
X86500193Y-77066759D01*
X86486007Y-77114473D01*
X86482293Y-77138027D01*
X86482602Y-77138852D01*
X86495189Y-77158104D01*
X86523744Y-77200463D01*
X86565267Y-77261521D01*
X86616756Y-77336868D01*
X86675211Y-77422096D01*
X86691858Y-77446315D01*
X86751215Y-77534123D01*
X86803447Y-77614238D01*
X86845708Y-77682062D01*
X86875153Y-77732993D01*
X86888937Y-77762431D01*
X86889605Y-77766048D01*
X86878024Y-77785057D01*
X86846024Y-77822714D01*
X86797718Y-77874973D01*
X86737220Y-77937786D01*
X86668644Y-78007106D01*
X86596104Y-78078885D01*
X86523712Y-78149077D01*
X86455584Y-78213635D01*
X86395832Y-78268510D01*
X86348571Y-78309656D01*
X86317913Y-78333026D01*
X86309432Y-78336842D01*
X86289691Y-78327855D01*
X86249274Y-78303616D01*
X86194763Y-78268209D01*
X86152823Y-78239711D01*
X86076829Y-78187418D01*
X85986834Y-78125845D01*
X85896564Y-78064370D01*
X85848032Y-78031469D01*
X85683762Y-77920359D01*
X85545869Y-77994916D01*
X85483049Y-78027578D01*
X85429629Y-78052966D01*
X85393484Y-78067446D01*
X85384284Y-78069460D01*
X85373221Y-78054584D01*
X85351394Y-78012547D01*
X85320434Y-77947227D01*
X85281970Y-77862500D01*
X85237632Y-77762245D01*
X85189047Y-77650339D01*
X85137846Y-77530659D01*
X85085659Y-77407084D01*
X85034113Y-77283491D01*
X84984840Y-77163757D01*
X84939467Y-77051759D01*
X84899625Y-76951377D01*
X84866942Y-76866486D01*
X84843049Y-76800965D01*
X84829574Y-76758690D01*
X84827406Y-76744172D01*
X84844583Y-76725653D01*
X84882190Y-76695590D01*
X84932366Y-76660232D01*
X84936578Y-76657434D01*
X85066264Y-76553625D01*
X85170834Y-76432515D01*
X85249381Y-76297976D01*
X85300999Y-76153882D01*
X85324782Y-76004105D01*
X85319823Y-75852517D01*
X85285217Y-75702992D01*
X85220057Y-75559400D01*
X85200886Y-75527984D01*
X85101174Y-75401125D01*
X84983377Y-75299255D01*
X84851571Y-75222904D01*
X84709833Y-75172602D01*
X84562242Y-75148879D01*
X84412873Y-75152265D01*
X84265803Y-75183288D01*
X84125111Y-75242480D01*
X83994873Y-75330369D01*
X83954586Y-75366042D01*
X83852055Y-75477706D01*
X83777341Y-75595257D01*
X83726090Y-75727020D01*
X83697546Y-75857507D01*
X83690500Y-76004216D01*
X83713996Y-76151653D01*
X83765649Y-76294834D01*
X83843071Y-76428777D01*
X83943875Y-76548498D01*
X84065676Y-76649014D01*
X84081684Y-76659609D01*
X84132398Y-76694306D01*
X84170950Y-76724370D01*
X84189381Y-76743565D01*
X84189649Y-76744172D01*
X84185692Y-76764936D01*
X84170007Y-76812062D01*
X84144222Y-76881673D01*
X84109969Y-76969893D01*
X84068877Y-77072844D01*
X84022576Y-77186650D01*
X83972696Y-77307435D01*
X83920867Y-77431321D01*
X83868719Y-77554432D01*
X83817882Y-77672891D01*
X83769987Y-77782823D01*
X83726662Y-77880349D01*
X83689538Y-77961593D01*
X83660244Y-78022679D01*
X83640412Y-78059730D01*
X83632426Y-78069460D01*
X83608021Y-78061883D01*
X83562358Y-78041560D01*
X83503310Y-78012125D01*
X83470840Y-77994916D01*
X83332947Y-77920359D01*
X83168677Y-78031469D01*
X83084821Y-78088390D01*
X82993013Y-78151030D01*
X82906980Y-78210011D01*
X82863887Y-78239711D01*
X82803277Y-78280410D01*
X82751955Y-78312663D01*
X82716615Y-78332384D01*
X82705137Y-78336554D01*
X82688430Y-78325307D01*
X82651454Y-78293911D01*
X82597795Y-78245624D01*
X82531038Y-78183708D01*
X82454766Y-78111421D01*
X82406527Y-78065008D01*
X82322133Y-77982087D01*
X82249197Y-77907920D01*
X82190669Y-77845680D01*
X82149497Y-77798541D01*
X82128628Y-77769673D01*
X82126626Y-77763815D01*
X82135917Y-77741532D01*
X82161591Y-77696477D01*
X82200800Y-77633211D01*
X82250697Y-77556295D01*
X82308433Y-77470292D01*
X82324851Y-77446315D01*
X82384677Y-77359170D01*
X82438350Y-77280710D01*
X82482870Y-77215345D01*
X82515235Y-77167484D01*
X82532445Y-77141535D01*
X82534107Y-77138852D01*
X82531621Y-77118172D01*
X82518423Y-77072704D01*
X82496814Y-77008444D01*
X82469096Y-76931387D01*
X82437570Y-76847529D01*
X82404537Y-76762866D01*
X82372299Y-76683392D01*
X82343157Y-76615104D01*
X82319412Y-76563997D01*
X82303365Y-76536067D01*
X82302225Y-76534727D01*
X82292412Y-76526745D01*
X82275839Y-76518851D01*
X82248868Y-76510229D01*
X82207861Y-76500062D01*
X82149180Y-76487531D01*
X82069187Y-76471821D01*
X81964245Y-76452113D01*
X81830715Y-76427592D01*
X81801804Y-76422319D01*
X81716118Y-76405764D01*
X81641418Y-76389569D01*
X81584306Y-76375296D01*
X81551383Y-76364508D01*
X81546969Y-76361993D01*
X81539694Y-76339696D01*
X81533781Y-76289869D01*
X81529234Y-76218304D01*
X81526055Y-76130793D01*
X81524251Y-76033128D01*
X81523823Y-75931101D01*
X81524777Y-75830503D01*
X81527116Y-75737127D01*
X81530844Y-75656765D01*
X81535966Y-75595209D01*
X81542484Y-75558250D01*
X81546414Y-75550686D01*
X81568292Y-75543056D01*
X81618109Y-75530642D01*
X81690903Y-75514522D01*
X81781711Y-75495773D01*
X81885569Y-75475471D01*
X81942154Y-75464830D01*
X82049514Y-75444760D01*
X82145254Y-75426580D01*
X82224694Y-75411199D01*
X82283154Y-75399531D01*
X82315955Y-75392488D01*
X82321354Y-75390926D01*
X82330478Y-75373322D01*
X82349765Y-75330918D01*
X82376645Y-75269772D01*
X82408546Y-75195943D01*
X82442898Y-75115489D01*
X82477129Y-75034468D01*
X82508669Y-74958937D01*
X82534946Y-74894955D01*
X82553389Y-74848580D01*
X82561429Y-74825869D01*
X82561578Y-74824876D01*
X82552465Y-74806961D01*
X82526914Y-74765733D01*
X82487612Y-74705291D01*
X82437243Y-74629731D01*
X82378494Y-74543152D01*
X82344342Y-74493421D01*
X82282110Y-74402236D01*
X82226836Y-74319449D01*
X82181218Y-74249249D01*
X82147952Y-74195824D01*
X82129736Y-74163361D01*
X82127105Y-74156083D01*
X82138414Y-74139145D01*
X82169681Y-74102978D01*
X82216910Y-74051635D01*
X82276108Y-73989167D01*
X82343281Y-73919626D01*
X82414434Y-73847065D01*
X82485574Y-73775535D01*
X82552707Y-73709087D01*
X82611839Y-73651774D01*
X82658975Y-73607647D01*
X82690123Y-73580759D01*
X82700543Y-73574342D01*
X82717509Y-73583365D01*
X82758089Y-73608715D01*
X82818337Y-73647810D01*
X82894307Y-73698071D01*
X82982054Y-73756917D01*
X83048244Y-73801748D01*
X83382668Y-74029154D01*
X83661433Y-73914238D01*
X83940197Y-73799322D01*
X84015746Y-73398576D01*
X84091294Y-72997829D01*
X84925415Y-72997829D01*
X85000964Y-73398576D01*
G36*
X86891388Y-78937645D02*
G01*
X86948865Y-78955206D01*
X86985872Y-78977395D01*
X86997927Y-78994942D01*
X86994609Y-79015742D01*
X86973079Y-79048419D01*
X86954874Y-79071562D01*
X86917344Y-79113402D01*
X86889148Y-79131005D01*
X86865111Y-79129856D01*
X86793808Y-79111710D01*
X86741442Y-79112534D01*
X86698918Y-79133098D01*
X86684642Y-79145134D01*
X86638947Y-79187483D01*
X86638947Y-79740526D01*
X86455131Y-79740526D01*
X86455131Y-78938421D01*
X86547039Y-78938421D01*
X86602219Y-78940603D01*
X86630688Y-78948351D01*
X86638943Y-78963468D01*
X86638947Y-78963916D01*
X86642845Y-78979749D01*
X86660474Y-78977684D01*
X86684901Y-78966261D01*
X86735350Y-78945005D01*
X86776316Y-78932216D01*
X86829028Y-78928938D01*
X86891388Y-78937645D01*
G37*
X86891388Y-78937645D02*
X86948865Y-78955206D01*
X86985872Y-78977395D01*
X86997927Y-78994942D01*
X86994609Y-79015742D01*
X86973079Y-79048419D01*
X86954874Y-79071562D01*
X86917344Y-79113402D01*
X86889148Y-79131005D01*
X86865111Y-79129856D01*
X86793808Y-79111710D01*
X86741442Y-79112534D01*
X86698918Y-79133098D01*
X86684642Y-79145134D01*
X86638947Y-79187483D01*
X86638947Y-79740526D01*
X86455131Y-79740526D01*
X86455131Y-78938421D01*
X86547039Y-78938421D01*
X86602219Y-78940603D01*
X86630688Y-78948351D01*
X86638943Y-78963468D01*
X86638947Y-78963916D01*
X86642845Y-78979749D01*
X86660474Y-78977684D01*
X86684901Y-78966261D01*
X86735350Y-78945005D01*
X86776316Y-78932216D01*
X86829028Y-78928938D01*
X86891388Y-78937645D01*
G36*
X83497957Y-78952226D02*
G01*
X83539546Y-78972090D01*
X83579825Y-79000784D01*
X83610510Y-79033809D01*
X83632861Y-79075931D01*
X83648136Y-79131915D01*
X83657592Y-79206528D01*
X83662487Y-79304535D01*
X83664081Y-79430702D01*
X83664106Y-79443914D01*
X83664473Y-79740526D01*
X83480657Y-79740526D01*
X83480657Y-79467081D01*
X83480527Y-79365777D01*
X83479621Y-79292353D01*
X83477173Y-79241271D01*
X83472414Y-79206990D01*
X83464574Y-79183971D01*
X83452885Y-79166673D01*
X83436602Y-79149581D01*
X83379634Y-79112857D01*
X83317445Y-79106042D01*
X83258199Y-79129261D01*
X83237595Y-79146543D01*
X83222470Y-79162791D01*
X83211610Y-79180191D01*
X83204310Y-79204212D01*
X83199863Y-79240322D01*
X83197564Y-79293988D01*
X83196704Y-79370680D01*
X83196578Y-79464043D01*
X83196578Y-79740526D01*
X83012763Y-79740526D01*
X83012763Y-78938421D01*
X83104671Y-78938421D01*
X83159851Y-78940603D01*
X83188320Y-78948351D01*
X83196575Y-78963468D01*
X83196578Y-78963916D01*
X83200408Y-78978720D01*
X83217301Y-78977040D01*
X83250888Y-78960773D01*
X83327063Y-78936840D01*
X83414200Y-78934178D01*
X83497957Y-78952226D01*
G37*
X83497957Y-78952226D02*
X83539546Y-78972090D01*
X83579825Y-79000784D01*
X83610510Y-79033809D01*
X83632861Y-79075931D01*
X83648136Y-79131915D01*
X83657592Y-79206528D01*
X83662487Y-79304535D01*
X83664081Y-79430702D01*
X83664106Y-79443914D01*
X83664473Y-79740526D01*
X83480657Y-79740526D01*
X83480657Y-79467081D01*
X83480527Y-79365777D01*
X83479621Y-79292353D01*
X83477173Y-79241271D01*
X83472414Y-79206990D01*
X83464574Y-79183971D01*
X83452885Y-79166673D01*
X83436602Y-79149581D01*
X83379634Y-79112857D01*
X83317445Y-79106042D01*
X83258199Y-79129261D01*
X83237595Y-79146543D01*
X83222470Y-79162791D01*
X83211610Y-79180191D01*
X83204310Y-79204212D01*
X83199863Y-79240322D01*
X83197564Y-79293988D01*
X83196704Y-79370680D01*
X83196578Y-79464043D01*
X83196578Y-79740526D01*
X83012763Y-79740526D01*
X83012763Y-78938421D01*
X83104671Y-78938421D01*
X83159851Y-78940603D01*
X83188320Y-78948351D01*
X83196575Y-78963468D01*
X83196578Y-78963916D01*
X83200408Y-78978720D01*
X83217301Y-78977040D01*
X83250888Y-78960773D01*
X83327063Y-78936840D01*
X83414200Y-78934178D01*
X83497957Y-78952226D01*
G36*
X88058784Y-78935554D02*
G01*
X88101574Y-78945949D01*
X88183609Y-78984013D01*
X88253757Y-79042149D01*
X88302305Y-79111852D01*
X88308975Y-79127502D01*
X88318124Y-79168496D01*
X88324529Y-79229138D01*
X88326710Y-79290430D01*
X88326710Y-79406316D01*
X88084407Y-79406316D01*
X87984471Y-79406693D01*
X87914069Y-79408987D01*
X87869313Y-79414938D01*
X87846315Y-79426285D01*
X87841189Y-79444771D01*
X87850048Y-79472136D01*
X87865917Y-79504155D01*
X87910184Y-79557592D01*
X87971699Y-79584215D01*
X88046885Y-79583347D01*
X88132053Y-79554371D01*
X88205659Y-79518611D01*
X88266734Y-79566904D01*
X88327810Y-79615197D01*
X88270351Y-79668285D01*
X88193641Y-79718445D01*
X88099302Y-79748688D01*
X87997827Y-79757151D01*
X87899711Y-79741974D01*
X87883881Y-79736824D01*
X87797647Y-79691791D01*
X87733501Y-79624652D01*
X87690091Y-79533405D01*
X87666064Y-79416044D01*
X87665784Y-79413529D01*
X87663633Y-79285627D01*
X87672329Y-79239997D01*
X87842105Y-79239997D01*
X87857697Y-79247013D01*
X87900029Y-79252388D01*
X87962434Y-79255457D01*
X88001981Y-79255921D01*
X88075728Y-79255630D01*
X88121840Y-79253783D01*
X88146100Y-79248912D01*
X88154294Y-79239555D01*
X88152206Y-79224245D01*
X88150455Y-79218322D01*
X88120560Y-79162668D01*
X88073542Y-79117815D01*
X88032049Y-79098105D01*
X87976926Y-79099295D01*
X87921068Y-79123875D01*
X87874212Y-79164570D01*
X87846094Y-79214108D01*
X87842105Y-79239997D01*
X87672329Y-79239997D01*
X87685074Y-79173133D01*
X87727611Y-79078727D01*
X87788747Y-79005088D01*
X87865985Y-78954893D01*
X87956830Y-78930822D01*
X88058784Y-78935554D01*
G37*
X88058784Y-78935554D02*
X88101574Y-78945949D01*
X88183609Y-78984013D01*
X88253757Y-79042149D01*
X88302305Y-79111852D01*
X88308975Y-79127502D01*
X88318124Y-79168496D01*
X88324529Y-79229138D01*
X88326710Y-79290430D01*
X88326710Y-79406316D01*
X88084407Y-79406316D01*
X87984471Y-79406693D01*
X87914069Y-79408987D01*
X87869313Y-79414938D01*
X87846315Y-79426285D01*
X87841189Y-79444771D01*
X87850048Y-79472136D01*
X87865917Y-79504155D01*
X87910184Y-79557592D01*
X87971699Y-79584215D01*
X88046885Y-79583347D01*
X88132053Y-79554371D01*
X88205659Y-79518611D01*
X88266734Y-79566904D01*
X88327810Y-79615197D01*
X88270351Y-79668285D01*
X88193641Y-79718445D01*
X88099302Y-79748688D01*
X87997827Y-79757151D01*
X87899711Y-79741974D01*
X87883881Y-79736824D01*
X87797647Y-79691791D01*
X87733501Y-79624652D01*
X87690091Y-79533405D01*
X87666064Y-79416044D01*
X87665784Y-79413529D01*
X87663633Y-79285627D01*
X87672329Y-79239997D01*
X87842105Y-79239997D01*
X87857697Y-79247013D01*
X87900029Y-79252388D01*
X87962434Y-79255457D01*
X88001981Y-79255921D01*
X88075728Y-79255630D01*
X88121840Y-79253783D01*
X88146100Y-79248912D01*
X88154294Y-79239555D01*
X88152206Y-79224245D01*
X88150455Y-79218322D01*
X88120560Y-79162668D01*
X88073542Y-79117815D01*
X88032049Y-79098105D01*
X87976926Y-79099295D01*
X87921068Y-79123875D01*
X87874212Y-79164570D01*
X87846094Y-79214108D01*
X87842105Y-79239997D01*
X87672329Y-79239997D01*
X87685074Y-79173133D01*
X87727611Y-79078727D01*
X87788747Y-79005088D01*
X87865985Y-78954893D01*
X87956830Y-78930822D01*
X88058784Y-78935554D01*
G36*
X87446576Y-78945419D02*
G01*
X87543395Y-78986549D01*
X87573890Y-79006571D01*
X87612865Y-79037340D01*
X87637331Y-79061533D01*
X87641578Y-79069413D01*
X87629584Y-79086899D01*
X87598887Y-79116570D01*
X87574312Y-79137279D01*
X87507046Y-79191336D01*
X87453930Y-79146642D01*
X87412884Y-79117789D01*
X87372863Y-79107829D01*
X87327059Y-79110261D01*
X87254324Y-79128345D01*
X87204256Y-79165881D01*
X87173829Y-79226562D01*
X87160017Y-79314081D01*
X87160013Y-79314136D01*
X87161208Y-79411958D01*
X87179772Y-79483730D01*
X87216804Y-79532595D01*
X87242050Y-79549143D01*
X87309097Y-79569749D01*
X87380709Y-79569762D01*
X87443015Y-79549768D01*
X87457763Y-79540000D01*
X87494750Y-79515047D01*
X87523668Y-79510958D01*
X87554856Y-79529530D01*
X87589336Y-79562887D01*
X87643912Y-79619196D01*
X87583318Y-79669142D01*
X87489698Y-79725513D01*
X87384125Y-79753293D01*
X87273798Y-79751282D01*
X87201343Y-79732862D01*
X87116656Y-79687310D01*
X87048927Y-79615650D01*
X87018157Y-79565066D01*
X86993236Y-79492488D01*
X86980766Y-79400569D01*
X86980670Y-79300948D01*
X86992870Y-79205267D01*
X87017290Y-79125169D01*
X87021136Y-79116956D01*
X87078093Y-79036413D01*
X87155209Y-78977771D01*
X87246390Y-78942247D01*
X87345543Y-78931057D01*
X87446576Y-78945419D01*
G37*
X87446576Y-78945419D02*
X87543395Y-78986549D01*
X87573890Y-79006571D01*
X87612865Y-79037340D01*
X87637331Y-79061533D01*
X87641578Y-79069413D01*
X87629584Y-79086899D01*
X87598887Y-79116570D01*
X87574312Y-79137279D01*
X87507046Y-79191336D01*
X87453930Y-79146642D01*
X87412884Y-79117789D01*
X87372863Y-79107829D01*
X87327059Y-79110261D01*
X87254324Y-79128345D01*
X87204256Y-79165881D01*
X87173829Y-79226562D01*
X87160017Y-79314081D01*
X87160013Y-79314136D01*
X87161208Y-79411958D01*
X87179772Y-79483730D01*
X87216804Y-79532595D01*
X87242050Y-79549143D01*
X87309097Y-79569749D01*
X87380709Y-79569762D01*
X87443015Y-79549768D01*
X87457763Y-79540000D01*
X87494750Y-79515047D01*
X87523668Y-79510958D01*
X87554856Y-79529530D01*
X87589336Y-79562887D01*
X87643912Y-79619196D01*
X87583318Y-79669142D01*
X87489698Y-79725513D01*
X87384125Y-79753293D01*
X87273798Y-79751282D01*
X87201343Y-79732862D01*
X87116656Y-79687310D01*
X87048927Y-79615650D01*
X87018157Y-79565066D01*
X86993236Y-79492488D01*
X86980766Y-79400569D01*
X86980670Y-79300948D01*
X86992870Y-79205267D01*
X87017290Y-79125169D01*
X87021136Y-79116956D01*
X87078093Y-79036413D01*
X87155209Y-78977771D01*
X87246390Y-78942247D01*
X87345543Y-78931057D01*
X87446576Y-78945419D01*
G36*
X85820131Y-79198533D02*
G01*
X85821710Y-79321089D01*
X85827481Y-79414179D01*
X85838991Y-79481651D01*
X85857790Y-79527355D01*
X85885426Y-79555139D01*
X85923448Y-79568854D01*
X85970526Y-79572358D01*
X86019832Y-79568432D01*
X86057283Y-79554089D01*
X86084428Y-79525478D01*
X86102815Y-79478751D01*
X86113993Y-79410058D01*
X86119511Y-79315550D01*
X86120921Y-79198533D01*
X86120921Y-78938421D01*
X86304736Y-78938421D01*
X86304736Y-79740526D01*
X86212828Y-79740526D01*
X86157422Y-79738281D01*
X86128891Y-79730396D01*
X86120921Y-79715428D01*
X86116120Y-79702097D01*
X86097014Y-79704917D01*
X86058504Y-79723783D01*
X85970239Y-79752887D01*
X85876623Y-79750825D01*
X85786921Y-79719221D01*
X85744204Y-79694257D01*
X85711621Y-79667226D01*
X85687817Y-79633405D01*
X85671439Y-79588068D01*
X85661131Y-79526489D01*
X85655541Y-79443943D01*
X85653312Y-79335705D01*
X85653026Y-79252004D01*
X85653026Y-78938421D01*
X85820131Y-78938421D01*
X85820131Y-79198533D01*
G37*
X85820131Y-79198533D02*
X85821710Y-79321089D01*
X85827481Y-79414179D01*
X85838991Y-79481651D01*
X85857790Y-79527355D01*
X85885426Y-79555139D01*
X85923448Y-79568854D01*
X85970526Y-79572358D01*
X86019832Y-79568432D01*
X86057283Y-79554089D01*
X86084428Y-79525478D01*
X86102815Y-79478751D01*
X86113993Y-79410058D01*
X86119511Y-79315550D01*
X86120921Y-79198533D01*
X86120921Y-78938421D01*
X86304736Y-78938421D01*
X86304736Y-79740526D01*
X86212828Y-79740526D01*
X86157422Y-79738281D01*
X86128891Y-79730396D01*
X86120921Y-79715428D01*
X86116120Y-79702097D01*
X86097014Y-79704917D01*
X86058504Y-79723783D01*
X85970239Y-79752887D01*
X85876623Y-79750825D01*
X85786921Y-79719221D01*
X85744204Y-79694257D01*
X85711621Y-79667226D01*
X85687817Y-79633405D01*
X85671439Y-79588068D01*
X85661131Y-79526489D01*
X85655541Y-79443943D01*
X85653312Y-79335705D01*
X85653026Y-79252004D01*
X85653026Y-78938421D01*
X85820131Y-78938421D01*
X85820131Y-79198533D01*
G36*
X85311669Y-78948310D02*
G01*
X85396192Y-78994340D01*
X85462321Y-79067006D01*
X85493478Y-79126106D01*
X85506855Y-79178305D01*
X85515522Y-79252719D01*
X85519237Y-79338442D01*
X85517754Y-79424569D01*
X85510831Y-79500193D01*
X85502745Y-79540584D01*
X85475465Y-79595840D01*
X85428220Y-79654530D01*
X85371282Y-79705852D01*
X85314924Y-79739005D01*
X85313550Y-79739531D01*
X85243616Y-79754018D01*
X85160737Y-79754377D01*
X85081977Y-79741188D01*
X85051566Y-79730617D01*
X84973239Y-79686201D01*
X84917143Y-79628007D01*
X84880286Y-79550965D01*
X84859680Y-79450001D01*
X84855018Y-79397116D01*
X84855613Y-79330663D01*
X85034736Y-79330663D01*
X85040770Y-79427630D01*
X85058138Y-79501523D01*
X85085740Y-79548736D01*
X85105404Y-79562237D01*
X85155787Y-79571651D01*
X85215673Y-79568864D01*
X85267449Y-79555316D01*
X85281027Y-79547862D01*
X85316849Y-79504451D01*
X85340493Y-79438014D01*
X85350558Y-79357161D01*
X85345642Y-79270502D01*
X85334655Y-79218349D01*
X85303109Y-79157951D01*
X85253311Y-79120197D01*
X85193337Y-79107143D01*
X85131264Y-79120849D01*
X85083582Y-79154372D01*
X85058525Y-79182031D01*
X85043900Y-79209294D01*
X85036929Y-79246190D01*
X85034833Y-79302750D01*
X85034736Y-79330663D01*
X84855613Y-79330663D01*
X84856282Y-79255994D01*
X84879265Y-79140271D01*
X84923972Y-79049941D01*
X84990405Y-78985000D01*
X85078565Y-78945445D01*
X85097495Y-78940858D01*
X85211266Y-78930090D01*
X85311669Y-78948310D01*
G37*
X85311669Y-78948310D02*
X85396192Y-78994340D01*
X85462321Y-79067006D01*
X85493478Y-79126106D01*
X85506855Y-79178305D01*
X85515522Y-79252719D01*
X85519237Y-79338442D01*
X85517754Y-79424569D01*
X85510831Y-79500193D01*
X85502745Y-79540584D01*
X85475465Y-79595840D01*
X85428220Y-79654530D01*
X85371282Y-79705852D01*
X85314924Y-79739005D01*
X85313550Y-79739531D01*
X85243616Y-79754018D01*
X85160737Y-79754377D01*
X85081977Y-79741188D01*
X85051566Y-79730617D01*
X84973239Y-79686201D01*
X84917143Y-79628007D01*
X84880286Y-79550965D01*
X84859680Y-79450001D01*
X84855018Y-79397116D01*
X84855613Y-79330663D01*
X85034736Y-79330663D01*
X85040770Y-79427630D01*
X85058138Y-79501523D01*
X85085740Y-79548736D01*
X85105404Y-79562237D01*
X85155787Y-79571651D01*
X85215673Y-79568864D01*
X85267449Y-79555316D01*
X85281027Y-79547862D01*
X85316849Y-79504451D01*
X85340493Y-79438014D01*
X85350558Y-79357161D01*
X85345642Y-79270502D01*
X85334655Y-79218349D01*
X85303109Y-79157951D01*
X85253311Y-79120197D01*
X85193337Y-79107143D01*
X85131264Y-79120849D01*
X85083582Y-79154372D01*
X85058525Y-79182031D01*
X85043900Y-79209294D01*
X85036929Y-79246190D01*
X85034833Y-79302750D01*
X85034736Y-79330663D01*
X84855613Y-79330663D01*
X84856282Y-79255994D01*
X84879265Y-79140271D01*
X84923972Y-79049941D01*
X84990405Y-78985000D01*
X85078565Y-78945445D01*
X85097495Y-78940858D01*
X85211266Y-78930090D01*
X85311669Y-78948310D01*
G36*
X84518628Y-78935547D02*
G01*
X84581908Y-78947548D01*
X84647557Y-78972648D01*
X84654572Y-78975848D01*
X84704356Y-79002026D01*
X84738834Y-79026353D01*
X84749978Y-79041937D01*
X84739366Y-79067353D01*
X84713588Y-79104853D01*
X84702146Y-79118852D01*
X84654992Y-79173954D01*
X84594201Y-79138086D01*
X84536347Y-79114192D01*
X84469500Y-79101420D01*
X84405394Y-79100613D01*
X84355764Y-79112615D01*
X84343854Y-79120105D01*
X84321172Y-79154450D01*
X84318416Y-79194013D01*
X84335388Y-79224920D01*
X84345427Y-79230913D01*
X84375510Y-79238357D01*
X84428389Y-79247106D01*
X84493575Y-79255467D01*
X84505600Y-79256778D01*
X84610297Y-79274888D01*
X84686232Y-79305651D01*
X84736592Y-79351907D01*
X84764564Y-79416497D01*
X84773278Y-79495387D01*
X84761240Y-79585065D01*
X84722151Y-79655486D01*
X84655855Y-79706777D01*
X84562194Y-79739067D01*
X84458223Y-79751807D01*
X84373438Y-79751654D01*
X84304665Y-79740083D01*
X84257697Y-79724109D01*
X84198350Y-79696275D01*
X84143506Y-79663973D01*
X84124013Y-79649755D01*
X84073881Y-79608835D01*
X84194803Y-79486477D01*
X84263543Y-79531967D01*
X84332488Y-79566133D01*
X84406111Y-79584004D01*
X84476883Y-79585889D01*
X84537274Y-79572101D01*
X84579757Y-79542949D01*
X84593474Y-79518352D01*
X84591417Y-79478904D01*
X84557330Y-79448737D01*
X84491308Y-79427906D01*
X84418974Y-79418279D01*
X84307652Y-79399910D01*
X84224952Y-79365254D01*
X84169765Y-79313297D01*
X84140988Y-79243023D01*
X84137001Y-79159707D01*
X84156693Y-79072681D01*
X84201589Y-79006902D01*
X84272091Y-78962068D01*
X84368601Y-78937879D01*
X84440100Y-78933137D01*
X84518628Y-78935547D01*
G37*
X84518628Y-78935547D02*
X84581908Y-78947548D01*
X84647557Y-78972648D01*
X84654572Y-78975848D01*
X84704356Y-79002026D01*
X84738834Y-79026353D01*
X84749978Y-79041937D01*
X84739366Y-79067353D01*
X84713588Y-79104853D01*
X84702146Y-79118852D01*
X84654992Y-79173954D01*
X84594201Y-79138086D01*
X84536347Y-79114192D01*
X84469500Y-79101420D01*
X84405394Y-79100613D01*
X84355764Y-79112615D01*
X84343854Y-79120105D01*
X84321172Y-79154450D01*
X84318416Y-79194013D01*
X84335388Y-79224920D01*
X84345427Y-79230913D01*
X84375510Y-79238357D01*
X84428389Y-79247106D01*
X84493575Y-79255467D01*
X84505600Y-79256778D01*
X84610297Y-79274888D01*
X84686232Y-79305651D01*
X84736592Y-79351907D01*
X84764564Y-79416497D01*
X84773278Y-79495387D01*
X84761240Y-79585065D01*
X84722151Y-79655486D01*
X84655855Y-79706777D01*
X84562194Y-79739067D01*
X84458223Y-79751807D01*
X84373438Y-79751654D01*
X84304665Y-79740083D01*
X84257697Y-79724109D01*
X84198350Y-79696275D01*
X84143506Y-79663973D01*
X84124013Y-79649755D01*
X84073881Y-79608835D01*
X84194803Y-79486477D01*
X84263543Y-79531967D01*
X84332488Y-79566133D01*
X84406111Y-79584004D01*
X84476883Y-79585889D01*
X84537274Y-79572101D01*
X84579757Y-79542949D01*
X84593474Y-79518352D01*
X84591417Y-79478904D01*
X84557330Y-79448737D01*
X84491308Y-79427906D01*
X84418974Y-79418279D01*
X84307652Y-79399910D01*
X84224952Y-79365254D01*
X84169765Y-79313297D01*
X84140988Y-79243023D01*
X84137001Y-79159707D01*
X84156693Y-79072681D01*
X84201589Y-79006902D01*
X84272091Y-78962068D01*
X84368601Y-78937879D01*
X84440100Y-78933137D01*
X84518628Y-78935547D01*
G36*
X82697018Y-78957027D02*
G01*
X82713670Y-78964866D01*
X82771305Y-79007086D01*
X82825805Y-79068700D01*
X82866499Y-79136543D01*
X82878074Y-79167734D01*
X82888634Y-79223449D01*
X82894931Y-79290781D01*
X82895696Y-79318585D01*
X82895789Y-79406316D01*
X82390850Y-79406316D01*
X82401613Y-79452270D01*
X82428033Y-79506620D01*
X82474222Y-79553591D01*
X82529172Y-79583848D01*
X82564189Y-79590131D01*
X82611677Y-79582506D01*
X82668335Y-79563383D01*
X82687582Y-79554584D01*
X82758759Y-79519036D01*
X82819502Y-79565367D01*
X82854552Y-79596703D01*
X82873202Y-79622567D01*
X82874147Y-79630158D01*
X82857485Y-79648556D01*
X82820970Y-79676515D01*
X82787828Y-79698327D01*
X82698393Y-79737537D01*
X82598129Y-79755285D01*
X82498754Y-79750670D01*
X82419539Y-79726551D01*
X82337880Y-79674884D01*
X82279849Y-79606856D01*
X82243546Y-79518843D01*
X82227072Y-79407216D01*
X82225611Y-79356138D01*
X82231457Y-79239091D01*
X82232175Y-79235686D01*
X82399489Y-79235686D01*
X82404097Y-79246662D01*
X82423036Y-79252715D01*
X82462098Y-79255310D01*
X82527077Y-79255910D01*
X82552097Y-79255921D01*
X82628221Y-79255014D01*
X82676496Y-79251720D01*
X82702460Y-79245181D01*
X82711648Y-79234537D01*
X82711973Y-79231119D01*
X82701487Y-79203956D01*
X82675242Y-79165903D01*
X82663959Y-79152579D01*
X82622072Y-79114896D01*
X82578409Y-79100080D01*
X82554885Y-79098842D01*
X82491243Y-79114329D01*
X82437873Y-79155930D01*
X82404019Y-79216353D01*
X82403419Y-79218322D01*
X82399489Y-79235686D01*
X82232175Y-79235686D01*
X82250899Y-79146928D01*
X82285922Y-79073190D01*
X82328756Y-79020848D01*
X82407948Y-78964092D01*
X82501040Y-78933762D01*
X82600055Y-78931021D01*
X82697018Y-78957027D01*
G37*
X82697018Y-78957027D02*
X82713670Y-78964866D01*
X82771305Y-79007086D01*
X82825805Y-79068700D01*
X82866499Y-79136543D01*
X82878074Y-79167734D01*
X82888634Y-79223449D01*
X82894931Y-79290781D01*
X82895696Y-79318585D01*
X82895789Y-79406316D01*
X82390850Y-79406316D01*
X82401613Y-79452270D01*
X82428033Y-79506620D01*
X82474222Y-79553591D01*
X82529172Y-79583848D01*
X82564189Y-79590131D01*
X82611677Y-79582506D01*
X82668335Y-79563383D01*
X82687582Y-79554584D01*
X82758759Y-79519036D01*
X82819502Y-79565367D01*
X82854552Y-79596703D01*
X82873202Y-79622567D01*
X82874147Y-79630158D01*
X82857485Y-79648556D01*
X82820970Y-79676515D01*
X82787828Y-79698327D01*
X82698393Y-79737537D01*
X82598129Y-79755285D01*
X82498754Y-79750670D01*
X82419539Y-79726551D01*
X82337880Y-79674884D01*
X82279849Y-79606856D01*
X82243546Y-79518843D01*
X82227072Y-79407216D01*
X82225611Y-79356138D01*
X82231457Y-79239091D01*
X82232175Y-79235686D01*
X82399489Y-79235686D01*
X82404097Y-79246662D01*
X82423036Y-79252715D01*
X82462098Y-79255310D01*
X82527077Y-79255910D01*
X82552097Y-79255921D01*
X82628221Y-79255014D01*
X82676496Y-79251720D01*
X82702460Y-79245181D01*
X82711648Y-79234537D01*
X82711973Y-79231119D01*
X82701487Y-79203956D01*
X82675242Y-79165903D01*
X82663959Y-79152579D01*
X82622072Y-79114896D01*
X82578409Y-79100080D01*
X82554885Y-79098842D01*
X82491243Y-79114329D01*
X82437873Y-79155930D01*
X82404019Y-79216353D01*
X82403419Y-79218322D01*
X82399489Y-79235686D01*
X82232175Y-79235686D01*
X82250899Y-79146928D01*
X82285922Y-79073190D01*
X82328756Y-79020848D01*
X82407948Y-78964092D01*
X82501040Y-78933762D01*
X82600055Y-78931021D01*
X82697018Y-78957027D01*
G36*
X81126784Y-78947104D02*
G01*
X81214205Y-78985754D01*
X81280570Y-79050290D01*
X81325976Y-79140812D01*
X81350518Y-79257418D01*
X81352277Y-79275624D01*
X81353656Y-79403984D01*
X81335784Y-79516496D01*
X81299750Y-79607688D01*
X81280455Y-79637022D01*
X81213245Y-79699106D01*
X81127650Y-79739316D01*
X81031890Y-79756003D01*
X80934187Y-79747517D01*
X80859917Y-79721380D01*
X80796047Y-79677335D01*
X80743846Y-79619587D01*
X80742943Y-79618236D01*
X80721744Y-79582593D01*
X80707967Y-79546752D01*
X80699624Y-79501519D01*
X80694727Y-79437701D01*
X80692569Y-79385368D01*
X80691671Y-79337910D01*
X80858743Y-79337910D01*
X80860376Y-79385154D01*
X80866304Y-79448046D01*
X80876761Y-79488407D01*
X80895619Y-79517122D01*
X80913281Y-79533896D01*
X80975894Y-79569016D01*
X81041408Y-79573710D01*
X81102421Y-79548440D01*
X81132928Y-79520124D01*
X81154911Y-79491589D01*
X81167769Y-79464284D01*
X81173412Y-79428750D01*
X81173751Y-79375524D01*
X81172012Y-79326506D01*
X81168271Y-79256482D01*
X81162341Y-79211064D01*
X81151653Y-79181440D01*
X81133639Y-79158797D01*
X81119363Y-79145855D01*
X81059651Y-79111860D01*
X80995234Y-79110165D01*
X80941219Y-79130301D01*
X80895140Y-79172352D01*
X80867689Y-79241428D01*
X80858743Y-79337910D01*
X80691671Y-79337910D01*
X80690599Y-79281299D01*
X80693964Y-79203468D01*
X80704045Y-79144930D01*
X80722226Y-79098737D01*
X80749890Y-79057942D01*
X80760146Y-79045828D01*
X80824278Y-78985474D01*
X80893066Y-78950220D01*
X80977189Y-78935450D01*
X81018209Y-78934243D01*
X81126784Y-78947104D01*
G37*
X81126784Y-78947104D02*
X81214205Y-78985754D01*
X81280570Y-79050290D01*
X81325976Y-79140812D01*
X81350518Y-79257418D01*
X81352277Y-79275624D01*
X81353656Y-79403984D01*
X81335784Y-79516496D01*
X81299750Y-79607688D01*
X81280455Y-79637022D01*
X81213245Y-79699106D01*
X81127650Y-79739316D01*
X81031890Y-79756003D01*
X80934187Y-79747517D01*
X80859917Y-79721380D01*
X80796047Y-79677335D01*
X80743846Y-79619587D01*
X80742943Y-79618236D01*
X80721744Y-79582593D01*
X80707967Y-79546752D01*
X80699624Y-79501519D01*
X80694727Y-79437701D01*
X80692569Y-79385368D01*
X80691671Y-79337910D01*
X80858743Y-79337910D01*
X80860376Y-79385154D01*
X80866304Y-79448046D01*
X80876761Y-79488407D01*
X80895619Y-79517122D01*
X80913281Y-79533896D01*
X80975894Y-79569016D01*
X81041408Y-79573710D01*
X81102421Y-79548440D01*
X81132928Y-79520124D01*
X81154911Y-79491589D01*
X81167769Y-79464284D01*
X81173412Y-79428750D01*
X81173751Y-79375524D01*
X81172012Y-79326506D01*
X81168271Y-79256482D01*
X81162341Y-79211064D01*
X81151653Y-79181440D01*
X81133639Y-79158797D01*
X81119363Y-79145855D01*
X81059651Y-79111860D01*
X80995234Y-79110165D01*
X80941219Y-79130301D01*
X80895140Y-79172352D01*
X80867689Y-79241428D01*
X80858743Y-79337910D01*
X80691671Y-79337910D01*
X80690599Y-79281299D01*
X80693964Y-79203468D01*
X80704045Y-79144930D01*
X80722226Y-79098737D01*
X80749890Y-79057942D01*
X80760146Y-79045828D01*
X80824278Y-78985474D01*
X80893066Y-78950220D01*
X80977189Y-78935450D01*
X81018209Y-78934243D01*
X81126784Y-78947104D01*
G36*
X87201193Y-80196078D02*
G01*
X87281068Y-80216845D01*
X87347962Y-80259705D01*
X87380351Y-80291723D01*
X87433445Y-80367413D01*
X87463873Y-80455216D01*
X87474327Y-80563150D01*
X87474380Y-80571875D01*
X87474473Y-80659605D01*
X86969534Y-80659605D01*
X86980298Y-80705559D01*
X86999732Y-80747178D01*
X87033745Y-80790544D01*
X87040860Y-80797467D01*
X87102003Y-80834935D01*
X87171729Y-80841289D01*
X87251987Y-80816638D01*
X87265592Y-80810000D01*
X87307319Y-80789819D01*
X87335268Y-80778321D01*
X87340145Y-80777258D01*
X87357168Y-80787583D01*
X87389633Y-80812845D01*
X87406114Y-80826650D01*
X87440264Y-80858361D01*
X87451478Y-80879299D01*
X87443695Y-80898560D01*
X87439535Y-80903827D01*
X87411357Y-80926878D01*
X87364862Y-80954892D01*
X87332434Y-80971246D01*
X87240385Y-81000059D01*
X87138476Y-81009395D01*
X87041963Y-80998332D01*
X87014934Y-80990412D01*
X86931276Y-80945581D01*
X86869266Y-80876598D01*
X86828545Y-80782794D01*
X86808755Y-80663498D01*
X86806582Y-80601118D01*
X86812926Y-80510298D01*
X86973157Y-80510298D01*
X86988655Y-80517012D01*
X87030312Y-80522280D01*
X87090876Y-80525389D01*
X87131907Y-80525921D01*
X87205711Y-80525408D01*
X87252293Y-80523006D01*
X87277848Y-80517422D01*
X87288569Y-80507361D01*
X87290657Y-80492763D01*
X87276331Y-80447796D01*
X87240262Y-80403353D01*
X87192815Y-80369242D01*
X87145349Y-80355288D01*
X87080879Y-80367666D01*
X87025070Y-80403452D01*
X86986374Y-80455033D01*
X86973157Y-80510298D01*
X86812926Y-80510298D01*
X86815821Y-80468866D01*
X86844336Y-80363498D01*
X86892729Y-80284178D01*
X86961604Y-80230071D01*
X87051565Y-80200343D01*
X87100300Y-80194618D01*
X87201193Y-80196078D01*
G37*
X87201193Y-80196078D02*
X87281068Y-80216845D01*
X87347962Y-80259705D01*
X87380351Y-80291723D01*
X87433445Y-80367413D01*
X87463873Y-80455216D01*
X87474327Y-80563150D01*
X87474380Y-80571875D01*
X87474473Y-80659605D01*
X86969534Y-80659605D01*
X86980298Y-80705559D01*
X86999732Y-80747178D01*
X87033745Y-80790544D01*
X87040860Y-80797467D01*
X87102003Y-80834935D01*
X87171729Y-80841289D01*
X87251987Y-80816638D01*
X87265592Y-80810000D01*
X87307319Y-80789819D01*
X87335268Y-80778321D01*
X87340145Y-80777258D01*
X87357168Y-80787583D01*
X87389633Y-80812845D01*
X87406114Y-80826650D01*
X87440264Y-80858361D01*
X87451478Y-80879299D01*
X87443695Y-80898560D01*
X87439535Y-80903827D01*
X87411357Y-80926878D01*
X87364862Y-80954892D01*
X87332434Y-80971246D01*
X87240385Y-81000059D01*
X87138476Y-81009395D01*
X87041963Y-80998332D01*
X87014934Y-80990412D01*
X86931276Y-80945581D01*
X86869266Y-80876598D01*
X86828545Y-80782794D01*
X86808755Y-80663498D01*
X86806582Y-80601118D01*
X86812926Y-80510298D01*
X86973157Y-80510298D01*
X86988655Y-80517012D01*
X87030312Y-80522280D01*
X87090876Y-80525389D01*
X87131907Y-80525921D01*
X87205711Y-80525408D01*
X87252293Y-80523006D01*
X87277848Y-80517422D01*
X87288569Y-80507361D01*
X87290657Y-80492763D01*
X87276331Y-80447796D01*
X87240262Y-80403353D01*
X87192815Y-80369242D01*
X87145349Y-80355288D01*
X87080879Y-80367666D01*
X87025070Y-80403452D01*
X86986374Y-80455033D01*
X86973157Y-80510298D01*
X86812926Y-80510298D01*
X86815821Y-80468866D01*
X86844336Y-80363498D01*
X86892729Y-80284178D01*
X86961604Y-80230071D01*
X87051565Y-80200343D01*
X87100300Y-80194618D01*
X87201193Y-80196078D01*
G36*
X86673167Y-80191447D02*
G01*
X86737408Y-80204112D01*
X86773980Y-80222864D01*
X86812453Y-80254017D01*
X86757717Y-80323127D01*
X86723969Y-80364979D01*
X86701053Y-80385398D01*
X86678279Y-80388517D01*
X86644956Y-80378472D01*
X86629314Y-80372789D01*
X86565542Y-80364404D01*
X86507140Y-80382378D01*
X86464264Y-80422982D01*
X86457299Y-80435929D01*
X86449713Y-80470224D01*
X86443859Y-80533427D01*
X86440011Y-80621060D01*
X86438443Y-80728640D01*
X86438421Y-80743944D01*
X86438421Y-81010526D01*
X86254605Y-81010526D01*
X86254605Y-80191710D01*
X86346513Y-80191710D01*
X86399507Y-80193094D01*
X86427115Y-80199252D01*
X86437324Y-80213194D01*
X86438421Y-80226344D01*
X86438421Y-80260978D01*
X86482450Y-80226344D01*
X86532937Y-80202716D01*
X86600760Y-80191033D01*
X86673167Y-80191447D01*
G37*
X86673167Y-80191447D02*
X86737408Y-80204112D01*
X86773980Y-80222864D01*
X86812453Y-80254017D01*
X86757717Y-80323127D01*
X86723969Y-80364979D01*
X86701053Y-80385398D01*
X86678279Y-80388517D01*
X86644956Y-80378472D01*
X86629314Y-80372789D01*
X86565542Y-80364404D01*
X86507140Y-80382378D01*
X86464264Y-80422982D01*
X86457299Y-80435929D01*
X86449713Y-80470224D01*
X86443859Y-80533427D01*
X86440011Y-80621060D01*
X86438443Y-80728640D01*
X86438421Y-80743944D01*
X86438421Y-81010526D01*
X86254605Y-81010526D01*
X86254605Y-80191710D01*
X86346513Y-80191710D01*
X86399507Y-80193094D01*
X86427115Y-80199252D01*
X86437324Y-80213194D01*
X86438421Y-80226344D01*
X86438421Y-80260978D01*
X86482450Y-80226344D01*
X86532937Y-80202716D01*
X86600760Y-80191033D01*
X86673167Y-80191447D01*
G36*
X85879992Y-80196673D02*
G01*
X85950427Y-80213780D01*
X85970787Y-80222844D01*
X86010253Y-80246583D01*
X86040541Y-80273321D01*
X86062952Y-80307699D01*
X86078786Y-80354360D01*
X86089343Y-80417946D01*
X86095924Y-80503099D01*
X86099828Y-80614462D01*
X86101310Y-80688849D01*
X86106765Y-81010526D01*
X86013580Y-81010526D01*
X85957047Y-81008156D01*
X85927922Y-81000055D01*
X85920394Y-80986451D01*
X85916420Y-80971741D01*
X85898652Y-80974554D01*
X85874440Y-80986348D01*
X85813828Y-81004427D01*
X85735929Y-81009299D01*
X85653995Y-81001330D01*
X85581281Y-80980889D01*
X85574759Y-80978051D01*
X85508302Y-80931365D01*
X85464491Y-80866464D01*
X85444332Y-80790600D01*
X85445872Y-80763344D01*
X85610345Y-80763344D01*
X85624837Y-80800024D01*
X85667805Y-80826309D01*
X85737129Y-80840417D01*
X85774177Y-80842290D01*
X85835919Y-80837494D01*
X85876960Y-80818858D01*
X85886973Y-80810000D01*
X85914100Y-80761806D01*
X85920394Y-80718092D01*
X85920394Y-80659605D01*
X85838930Y-80659605D01*
X85744234Y-80664432D01*
X85677813Y-80679613D01*
X85635846Y-80706200D01*
X85626449Y-80718052D01*
X85610345Y-80763344D01*
X85445872Y-80763344D01*
X85448829Y-80711026D01*
X85478985Y-80634995D01*
X85520131Y-80583612D01*
X85545052Y-80561397D01*
X85569448Y-80546798D01*
X85601191Y-80537897D01*
X85648152Y-80532775D01*
X85718204Y-80529515D01*
X85745990Y-80528577D01*
X85920394Y-80522879D01*
X85920138Y-80470091D01*
X85913384Y-80414603D01*
X85888964Y-80381052D01*
X85839630Y-80359618D01*
X85838306Y-80359236D01*
X85768360Y-80350808D01*
X85699914Y-80361816D01*
X85649047Y-80388585D01*
X85628637Y-80401803D01*
X85606654Y-80399974D01*
X85572826Y-80380824D01*
X85552961Y-80367308D01*
X85514106Y-80338432D01*
X85490038Y-80316786D01*
X85486176Y-80310589D01*
X85502079Y-80278519D01*
X85549065Y-80240219D01*
X85569473Y-80227297D01*
X85628143Y-80205041D01*
X85707212Y-80192432D01*
X85795041Y-80189600D01*
X85879992Y-80196673D01*
G37*
X85879992Y-80196673D02*
X85950427Y-80213780D01*
X85970787Y-80222844D01*
X86010253Y-80246583D01*
X86040541Y-80273321D01*
X86062952Y-80307699D01*
X86078786Y-80354360D01*
X86089343Y-80417946D01*
X86095924Y-80503099D01*
X86099828Y-80614462D01*
X86101310Y-80688849D01*
X86106765Y-81010526D01*
X86013580Y-81010526D01*
X85957047Y-81008156D01*
X85927922Y-81000055D01*
X85920394Y-80986451D01*
X85916420Y-80971741D01*
X85898652Y-80974554D01*
X85874440Y-80986348D01*
X85813828Y-81004427D01*
X85735929Y-81009299D01*
X85653995Y-81001330D01*
X85581281Y-80980889D01*
X85574759Y-80978051D01*
X85508302Y-80931365D01*
X85464491Y-80866464D01*
X85444332Y-80790600D01*
X85445872Y-80763344D01*
X85610345Y-80763344D01*
X85624837Y-80800024D01*
X85667805Y-80826309D01*
X85737129Y-80840417D01*
X85774177Y-80842290D01*
X85835919Y-80837494D01*
X85876960Y-80818858D01*
X85886973Y-80810000D01*
X85914100Y-80761806D01*
X85920394Y-80718092D01*
X85920394Y-80659605D01*
X85838930Y-80659605D01*
X85744234Y-80664432D01*
X85677813Y-80679613D01*
X85635846Y-80706200D01*
X85626449Y-80718052D01*
X85610345Y-80763344D01*
X85445872Y-80763344D01*
X85448829Y-80711026D01*
X85478985Y-80634995D01*
X85520131Y-80583612D01*
X85545052Y-80561397D01*
X85569448Y-80546798D01*
X85601191Y-80537897D01*
X85648152Y-80532775D01*
X85718204Y-80529515D01*
X85745990Y-80528577D01*
X85920394Y-80522879D01*
X85920138Y-80470091D01*
X85913384Y-80414603D01*
X85888964Y-80381052D01*
X85839630Y-80359618D01*
X85838306Y-80359236D01*
X85768360Y-80350808D01*
X85699914Y-80361816D01*
X85649047Y-80388585D01*
X85628637Y-80401803D01*
X85606654Y-80399974D01*
X85572826Y-80380824D01*
X85552961Y-80367308D01*
X85514106Y-80338432D01*
X85490038Y-80316786D01*
X85486176Y-80310589D01*
X85502079Y-80278519D01*
X85549065Y-80240219D01*
X85569473Y-80227297D01*
X85628143Y-80205041D01*
X85707212Y-80192432D01*
X85795041Y-80189600D01*
X85879992Y-80196673D01*
G36*
X84874130Y-80195104D02*
G01*
X84940220Y-80200066D01*
X85026626Y-80459079D01*
X85113031Y-80718092D01*
X85140124Y-80626184D01*
X85156428Y-80569384D01*
X85177875Y-80492625D01*
X85201035Y-80408251D01*
X85213280Y-80362993D01*
X85259344Y-80191710D01*
X85449387Y-80191710D01*
X85392582Y-80371349D01*
X85364607Y-80459704D01*
X85330813Y-80566281D01*
X85295520Y-80677454D01*
X85264013Y-80776579D01*
X85192250Y-81002171D01*
X85037286Y-81012253D01*
X84995270Y-80873528D01*
X84969359Y-80787351D01*
X84941083Y-80692347D01*
X84916369Y-80608441D01*
X84915394Y-80605102D01*
X84896935Y-80548248D01*
X84880649Y-80509456D01*
X84869242Y-80494787D01*
X84866898Y-80496483D01*
X84858671Y-80519225D01*
X84843038Y-80567940D01*
X84821904Y-80636502D01*
X84797170Y-80718785D01*
X84783787Y-80764046D01*
X84711311Y-81010526D01*
X84557495Y-81010526D01*
X84434531Y-80622006D01*
X84399988Y-80513022D01*
X84368521Y-80414048D01*
X84341616Y-80329736D01*
X84320759Y-80264734D01*
X84307438Y-80223692D01*
X84303388Y-80211701D01*
X84306594Y-80199423D01*
X84331765Y-80194046D01*
X84384146Y-80194584D01*
X84392345Y-80194990D01*
X84489482Y-80200066D01*
X84553100Y-80434013D01*
X84576484Y-80519333D01*
X84597381Y-80594335D01*
X84613951Y-80652507D01*
X84624354Y-80687337D01*
X84626276Y-80693016D01*
X84634241Y-80686486D01*
X84650304Y-80652654D01*
X84672621Y-80596127D01*
X84699345Y-80521510D01*
X84721937Y-80454107D01*
X84808041Y-80190143D01*
X84874130Y-80195104D01*
G37*
X84874130Y-80195104D02*
X84940220Y-80200066D01*
X85026626Y-80459079D01*
X85113031Y-80718092D01*
X85140124Y-80626184D01*
X85156428Y-80569384D01*
X85177875Y-80492625D01*
X85201035Y-80408251D01*
X85213280Y-80362993D01*
X85259344Y-80191710D01*
X85449387Y-80191710D01*
X85392582Y-80371349D01*
X85364607Y-80459704D01*
X85330813Y-80566281D01*
X85295520Y-80677454D01*
X85264013Y-80776579D01*
X85192250Y-81002171D01*
X85037286Y-81012253D01*
X84995270Y-80873528D01*
X84969359Y-80787351D01*
X84941083Y-80692347D01*
X84916369Y-80608441D01*
X84915394Y-80605102D01*
X84896935Y-80548248D01*
X84880649Y-80509456D01*
X84869242Y-80494787D01*
X84866898Y-80496483D01*
X84858671Y-80519225D01*
X84843038Y-80567940D01*
X84821904Y-80636502D01*
X84797170Y-80718785D01*
X84783787Y-80764046D01*
X84711311Y-81010526D01*
X84557495Y-81010526D01*
X84434531Y-80622006D01*
X84399988Y-80513022D01*
X84368521Y-80414048D01*
X84341616Y-80329736D01*
X84320759Y-80264734D01*
X84307438Y-80223692D01*
X84303388Y-80211701D01*
X84306594Y-80199423D01*
X84331765Y-80194046D01*
X84384146Y-80194584D01*
X84392345Y-80194990D01*
X84489482Y-80200066D01*
X84553100Y-80434013D01*
X84576484Y-80519333D01*
X84597381Y-80594335D01*
X84613951Y-80652507D01*
X84624354Y-80687337D01*
X84626276Y-80693016D01*
X84634241Y-80686486D01*
X84650304Y-80652654D01*
X84672621Y-80596127D01*
X84699345Y-80521510D01*
X84721937Y-80454107D01*
X84808041Y-80190143D01*
X84874130Y-80195104D01*
G36*
X84232631Y-81010526D02*
G01*
X84140723Y-81010526D01*
X84087377Y-81008962D01*
X84059593Y-81002485D01*
X84049590Y-80988418D01*
X84048815Y-80978906D01*
X84047128Y-80959832D01*
X84036490Y-80956174D01*
X84008535Y-80967932D01*
X83986795Y-80978906D01*
X83903332Y-81004911D01*
X83812604Y-81006416D01*
X83738842Y-80987021D01*
X83670154Y-80940165D01*
X83617794Y-80871004D01*
X83589122Y-80789427D01*
X83588392Y-80784866D01*
X83584132Y-80735101D01*
X83582014Y-80663659D01*
X83582184Y-80609626D01*
X83764720Y-80609626D01*
X83768949Y-80681441D01*
X83778568Y-80740634D01*
X83791590Y-80774060D01*
X83840856Y-80819740D01*
X83899350Y-80836115D01*
X83959671Y-80822873D01*
X84011217Y-80783373D01*
X84030738Y-80756807D01*
X84042152Y-80725106D01*
X84047498Y-80678832D01*
X84048815Y-80609328D01*
X84046458Y-80540499D01*
X84040233Y-80480026D01*
X84031408Y-80439556D01*
X84029937Y-80435929D01*
X83994347Y-80392802D01*
X83942400Y-80369124D01*
X83884278Y-80365301D01*
X83830160Y-80381738D01*
X83790226Y-80418840D01*
X83786083Y-80426222D01*
X83773116Y-80471239D01*
X83766052Y-80535967D01*
X83764720Y-80609626D01*
X83582184Y-80609626D01*
X83582271Y-80582230D01*
X83583472Y-80538405D01*
X83591645Y-80429988D01*
X83608630Y-80348588D01*
X83636887Y-80288412D01*
X83678872Y-80243666D01*
X83719632Y-80217400D01*
X83776581Y-80198935D01*
X83847411Y-80192602D01*
X83919941Y-80197760D01*
X83981986Y-80213769D01*
X84014768Y-80232920D01*
X84048815Y-80263732D01*
X84048815Y-79874210D01*
X84232631Y-79874210D01*
X84232631Y-81010526D01*
G37*
X84232631Y-81010526D02*
X84140723Y-81010526D01*
X84087377Y-81008962D01*
X84059593Y-81002485D01*
X84049590Y-80988418D01*
X84048815Y-80978906D01*
X84047128Y-80959832D01*
X84036490Y-80956174D01*
X84008535Y-80967932D01*
X83986795Y-80978906D01*
X83903332Y-81004911D01*
X83812604Y-81006416D01*
X83738842Y-80987021D01*
X83670154Y-80940165D01*
X83617794Y-80871004D01*
X83589122Y-80789427D01*
X83588392Y-80784866D01*
X83584132Y-80735101D01*
X83582014Y-80663659D01*
X83582184Y-80609626D01*
X83764720Y-80609626D01*
X83768949Y-80681441D01*
X83778568Y-80740634D01*
X83791590Y-80774060D01*
X83840856Y-80819740D01*
X83899350Y-80836115D01*
X83959671Y-80822873D01*
X84011217Y-80783373D01*
X84030738Y-80756807D01*
X84042152Y-80725106D01*
X84047498Y-80678832D01*
X84048815Y-80609328D01*
X84046458Y-80540499D01*
X84040233Y-80480026D01*
X84031408Y-80439556D01*
X84029937Y-80435929D01*
X83994347Y-80392802D01*
X83942400Y-80369124D01*
X83884278Y-80365301D01*
X83830160Y-80381738D01*
X83790226Y-80418840D01*
X83786083Y-80426222D01*
X83773116Y-80471239D01*
X83766052Y-80535967D01*
X83764720Y-80609626D01*
X83582184Y-80609626D01*
X83582271Y-80582230D01*
X83583472Y-80538405D01*
X83591645Y-80429988D01*
X83608630Y-80348588D01*
X83636887Y-80288412D01*
X83678872Y-80243666D01*
X83719632Y-80217400D01*
X83776581Y-80198935D01*
X83847411Y-80192602D01*
X83919941Y-80197760D01*
X83981986Y-80213769D01*
X84014768Y-80232920D01*
X84048815Y-80263732D01*
X84048815Y-79874210D01*
X84232631Y-79874210D01*
X84232631Y-81010526D01*
G36*
X83179881Y-80193486D02*
G01*
X83204888Y-80200982D01*
X83212950Y-80217451D01*
X83213289Y-80224886D01*
X83214736Y-80245594D01*
X83224698Y-80248845D01*
X83251612Y-80234648D01*
X83267598Y-80224948D01*
X83318033Y-80204175D01*
X83378272Y-80193904D01*
X83441434Y-80193114D01*
X83500637Y-80200786D01*
X83549002Y-80215898D01*
X83579646Y-80237432D01*
X83585689Y-80264366D01*
X83582639Y-80271660D01*
X83560406Y-80301937D01*
X83525930Y-80339175D01*
X83519694Y-80345195D01*
X83486833Y-80372875D01*
X83458480Y-80381818D01*
X83418827Y-80375576D01*
X83402942Y-80371429D01*
X83353509Y-80361467D01*
X83318752Y-80365947D01*
X83289400Y-80381746D01*
X83262513Y-80402949D01*
X83242710Y-80429614D01*
X83228948Y-80466827D01*
X83220184Y-80519673D01*
X83215374Y-80593237D01*
X83213474Y-80692605D01*
X83213289Y-80752601D01*
X83213289Y-81010526D01*
X83046184Y-81010526D01*
X83046184Y-80191710D01*
X83129736Y-80191710D01*
X83179881Y-80193486D01*
G37*
X83179881Y-80193486D02*
X83204888Y-80200982D01*
X83212950Y-80217451D01*
X83213289Y-80224886D01*
X83214736Y-80245594D01*
X83224698Y-80248845D01*
X83251612Y-80234648D01*
X83267598Y-80224948D01*
X83318033Y-80204175D01*
X83378272Y-80193904D01*
X83441434Y-80193114D01*
X83500637Y-80200786D01*
X83549002Y-80215898D01*
X83579646Y-80237432D01*
X83585689Y-80264366D01*
X83582639Y-80271660D01*
X83560406Y-80301937D01*
X83525930Y-80339175D01*
X83519694Y-80345195D01*
X83486833Y-80372875D01*
X83458480Y-80381818D01*
X83418827Y-80375576D01*
X83402942Y-80371429D01*
X83353509Y-80361467D01*
X83318752Y-80365947D01*
X83289400Y-80381746D01*
X83262513Y-80402949D01*
X83242710Y-80429614D01*
X83228948Y-80466827D01*
X83220184Y-80519673D01*
X83215374Y-80593237D01*
X83213474Y-80692605D01*
X83213289Y-80752601D01*
X83213289Y-81010526D01*
X83046184Y-81010526D01*
X83046184Y-80191710D01*
X83129736Y-80191710D01*
X83179881Y-80193486D01*
G36*
X82660457Y-80198184D02*
G01*
X82739070Y-80219160D01*
X82798916Y-80257180D01*
X82841147Y-80306978D01*
X82854275Y-80328230D01*
X82863968Y-80350492D01*
X82870744Y-80378970D01*
X82875123Y-80418871D01*
X82877624Y-80475401D01*
X82878768Y-80553767D01*
X82879072Y-80659176D01*
X82879078Y-80687142D01*
X82879078Y-81010526D01*
X82798868Y-81010526D01*
X82747706Y-81006943D01*
X82709877Y-80997866D01*
X82700399Y-80992268D01*
X82674488Y-80982606D01*
X82648024Y-80992268D01*
X82604452Y-81004330D01*
X82541160Y-81009185D01*
X82471010Y-81007078D01*
X82406860Y-80998256D01*
X82369407Y-80986937D01*
X82296933Y-80940412D01*
X82251640Y-80875846D01*
X82231278Y-80790000D01*
X82231088Y-80787796D01*
X82232875Y-80749713D01*
X82394473Y-80749713D01*
X82408601Y-80793030D01*
X82431612Y-80817408D01*
X82477804Y-80835845D01*
X82538775Y-80843205D01*
X82600949Y-80839583D01*
X82650751Y-80825074D01*
X82664703Y-80815765D01*
X82689085Y-80772753D01*
X82695263Y-80723857D01*
X82695263Y-80659605D01*
X82602818Y-80659605D01*
X82514995Y-80666366D01*
X82448418Y-80685520D01*
X82407002Y-80715376D01*
X82394473Y-80749713D01*
X82232875Y-80749713D01*
X82235490Y-80694004D01*
X82266424Y-80619847D01*
X82324581Y-80563767D01*
X82332620Y-80558665D01*
X82367163Y-80542055D01*
X82409918Y-80531996D01*
X82469686Y-80527107D01*
X82540690Y-80525983D01*
X82695263Y-80525921D01*
X82695263Y-80461125D01*
X82688706Y-80410850D01*
X82671975Y-80377169D01*
X82670016Y-80375376D01*
X82632783Y-80360642D01*
X82576580Y-80354931D01*
X82514467Y-80357737D01*
X82459510Y-80368556D01*
X82426899Y-80384782D01*
X82409228Y-80397780D01*
X82390569Y-80400262D01*
X82364819Y-80389613D01*
X82325873Y-80363218D01*
X82267630Y-80318465D01*
X82262284Y-80314273D01*
X82265023Y-80298760D01*
X82287876Y-80272960D01*
X82322609Y-80244289D01*
X82360990Y-80220166D01*
X82373048Y-80214470D01*
X82417034Y-80203103D01*
X82481487Y-80194995D01*
X82553497Y-80191743D01*
X82556864Y-80191736D01*
X82660457Y-80198184D01*
G37*
X82660457Y-80198184D02*
X82739070Y-80219160D01*
X82798916Y-80257180D01*
X82841147Y-80306978D01*
X82854275Y-80328230D01*
X82863968Y-80350492D01*
X82870744Y-80378970D01*
X82875123Y-80418871D01*
X82877624Y-80475401D01*
X82878768Y-80553767D01*
X82879072Y-80659176D01*
X82879078Y-80687142D01*
X82879078Y-81010526D01*
X82798868Y-81010526D01*
X82747706Y-81006943D01*
X82709877Y-80997866D01*
X82700399Y-80992268D01*
X82674488Y-80982606D01*
X82648024Y-80992268D01*
X82604452Y-81004330D01*
X82541160Y-81009185D01*
X82471010Y-81007078D01*
X82406860Y-80998256D01*
X82369407Y-80986937D01*
X82296933Y-80940412D01*
X82251640Y-80875846D01*
X82231278Y-80790000D01*
X82231088Y-80787796D01*
X82232875Y-80749713D01*
X82394473Y-80749713D01*
X82408601Y-80793030D01*
X82431612Y-80817408D01*
X82477804Y-80835845D01*
X82538775Y-80843205D01*
X82600949Y-80839583D01*
X82650751Y-80825074D01*
X82664703Y-80815765D01*
X82689085Y-80772753D01*
X82695263Y-80723857D01*
X82695263Y-80659605D01*
X82602818Y-80659605D01*
X82514995Y-80666366D01*
X82448418Y-80685520D01*
X82407002Y-80715376D01*
X82394473Y-80749713D01*
X82232875Y-80749713D01*
X82235490Y-80694004D01*
X82266424Y-80619847D01*
X82324581Y-80563767D01*
X82332620Y-80558665D01*
X82367163Y-80542055D01*
X82409918Y-80531996D01*
X82469686Y-80527107D01*
X82540690Y-80525983D01*
X82695263Y-80525921D01*
X82695263Y-80461125D01*
X82688706Y-80410850D01*
X82671975Y-80377169D01*
X82670016Y-80375376D01*
X82632783Y-80360642D01*
X82576580Y-80354931D01*
X82514467Y-80357737D01*
X82459510Y-80368556D01*
X82426899Y-80384782D01*
X82409228Y-80397780D01*
X82390569Y-80400262D01*
X82364819Y-80389613D01*
X82325873Y-80363218D01*
X82267630Y-80318465D01*
X82262284Y-80314273D01*
X82265023Y-80298760D01*
X82287876Y-80272960D01*
X82322609Y-80244289D01*
X82360990Y-80220166D01*
X82373048Y-80214470D01*
X82417034Y-80203103D01*
X82481487Y-80194995D01*
X82553497Y-80191743D01*
X82556864Y-80191736D01*
X82660457Y-80198184D01*
G36*
X81963360Y-78952468D02*
G01*
X81998592Y-78969874D01*
X82042040Y-79000206D01*
X82073706Y-79033283D01*
X82095394Y-79074817D01*
X82108903Y-79130522D01*
X82116038Y-79206111D01*
X82118600Y-79307296D01*
X82118750Y-79350797D01*
X82118312Y-79446135D01*
X82116496Y-79514271D01*
X82112545Y-79561418D01*
X82105702Y-79593790D01*
X82095211Y-79617600D01*
X82084296Y-79633843D01*
X82014619Y-79702952D01*
X81932566Y-79744521D01*
X81844050Y-79757023D01*
X81754981Y-79738934D01*
X81726763Y-79726142D01*
X81659210Y-79690931D01*
X81659210Y-80242700D01*
X81708512Y-80217205D01*
X81773473Y-80197480D01*
X81853320Y-80192427D01*
X81933052Y-80201756D01*
X81993265Y-80222714D01*
X82043208Y-80262627D01*
X82085881Y-80319741D01*
X82089090Y-80325605D01*
X82102622Y-80353227D01*
X82112505Y-80381068D01*
X82119309Y-80414794D01*
X82123601Y-80460071D01*
X82125951Y-80522562D01*
X82126928Y-80607935D01*
X82127105Y-80704010D01*
X82127105Y-81010526D01*
X81943289Y-81010526D01*
X81943289Y-80445339D01*
X81891875Y-80402077D01*
X81838466Y-80367472D01*
X81787888Y-80361180D01*
X81737030Y-80377372D01*
X81709925Y-80393227D01*
X81689751Y-80415810D01*
X81675403Y-80449940D01*
X81665776Y-80500434D01*
X81659763Y-80572111D01*
X81656260Y-80669788D01*
X81655026Y-80734802D01*
X81650855Y-81002171D01*
X81563125Y-81007222D01*
X81475394Y-81012273D01*
X81475394Y-79353101D01*
X81659210Y-79353101D01*
X81663896Y-79445600D01*
X81679688Y-79509809D01*
X81709183Y-79549759D01*
X81754980Y-79569480D01*
X81801250Y-79573421D01*
X81853628Y-79568892D01*
X81888390Y-79551069D01*
X81910128Y-79527519D01*
X81927240Y-79502189D01*
X81937427Y-79473969D01*
X81941960Y-79434431D01*
X81942109Y-79375142D01*
X81940584Y-79325498D01*
X81937081Y-79250710D01*
X81931867Y-79201611D01*
X81923087Y-79170467D01*
X81908886Y-79149545D01*
X81895484Y-79137452D01*
X81839487Y-79111081D01*
X81773211Y-79106822D01*
X81735156Y-79115906D01*
X81697477Y-79148196D01*
X81672519Y-79211006D01*
X81660422Y-79303894D01*
X81659210Y-79353101D01*
X81475394Y-79353101D01*
X81475394Y-78938421D01*
X81567302Y-78938421D01*
X81622483Y-78940603D01*
X81650952Y-78948351D01*
X81659206Y-78963468D01*
X81659210Y-78963916D01*
X81663040Y-78978720D01*
X81679933Y-78977039D01*
X81713519Y-78960772D01*
X81791778Y-78935887D01*
X81879827Y-78933271D01*
X81963360Y-78952468D01*
G37*
X81963360Y-78952468D02*
X81998592Y-78969874D01*
X82042040Y-79000206D01*
X82073706Y-79033283D01*
X82095394Y-79074817D01*
X82108903Y-79130522D01*
X82116038Y-79206111D01*
X82118600Y-79307296D01*
X82118750Y-79350797D01*
X82118312Y-79446135D01*
X82116496Y-79514271D01*
X82112545Y-79561418D01*
X82105702Y-79593790D01*
X82095211Y-79617600D01*
X82084296Y-79633843D01*
X82014619Y-79702952D01*
X81932566Y-79744521D01*
X81844050Y-79757023D01*
X81754981Y-79738934D01*
X81726763Y-79726142D01*
X81659210Y-79690931D01*
X81659210Y-80242700D01*
X81708512Y-80217205D01*
X81773473Y-80197480D01*
X81853320Y-80192427D01*
X81933052Y-80201756D01*
X81993265Y-80222714D01*
X82043208Y-80262627D01*
X82085881Y-80319741D01*
X82089090Y-80325605D01*
X82102622Y-80353227D01*
X82112505Y-80381068D01*
X82119309Y-80414794D01*
X82123601Y-80460071D01*
X82125951Y-80522562D01*
X82126928Y-80607935D01*
X82127105Y-80704010D01*
X82127105Y-81010526D01*
X81943289Y-81010526D01*
X81943289Y-80445339D01*
X81891875Y-80402077D01*
X81838466Y-80367472D01*
X81787888Y-80361180D01*
X81737030Y-80377372D01*
X81709925Y-80393227D01*
X81689751Y-80415810D01*
X81675403Y-80449940D01*
X81665776Y-80500434D01*
X81659763Y-80572111D01*
X81656260Y-80669788D01*
X81655026Y-80734802D01*
X81650855Y-81002171D01*
X81563125Y-81007222D01*
X81475394Y-81012273D01*
X81475394Y-79353101D01*
X81659210Y-79353101D01*
X81663896Y-79445600D01*
X81679688Y-79509809D01*
X81709183Y-79549759D01*
X81754980Y-79569480D01*
X81801250Y-79573421D01*
X81853628Y-79568892D01*
X81888390Y-79551069D01*
X81910128Y-79527519D01*
X81927240Y-79502189D01*
X81937427Y-79473969D01*
X81941960Y-79434431D01*
X81942109Y-79375142D01*
X81940584Y-79325498D01*
X81937081Y-79250710D01*
X81931867Y-79201611D01*
X81923087Y-79170467D01*
X81908886Y-79149545D01*
X81895484Y-79137452D01*
X81839487Y-79111081D01*
X81773211Y-79106822D01*
X81735156Y-79115906D01*
X81697477Y-79148196D01*
X81672519Y-79211006D01*
X81660422Y-79303894D01*
X81659210Y-79353101D01*
X81475394Y-79353101D01*
X81475394Y-78938421D01*
X81567302Y-78938421D01*
X81622483Y-78940603D01*
X81650952Y-78948351D01*
X81659206Y-78963468D01*
X81659210Y-78963916D01*
X81663040Y-78978720D01*
X81679933Y-78977039D01*
X81713519Y-78960772D01*
X81791778Y-78935887D01*
X81879827Y-78933271D01*
X81963360Y-78952468D01*
D11*
%TO.C,J5*%
X118482000Y-98222000D02*
X121142000Y-98222000D01*
X118482000Y-98222000D02*
X118482000Y-100822000D01*
X118482000Y-100822000D02*
X121142000Y-100822000D01*
X121142000Y-98222000D02*
X121142000Y-100822000D01*
X121142000Y-95622000D02*
X121142000Y-96952000D01*
X119812000Y-95622000D02*
X121142000Y-95622000D01*
%TO.C,R20*%
X119356000Y-89847252D02*
X119356000Y-89324748D01*
X120776000Y-89847252D02*
X120776000Y-89324748D01*
%TO.C,Q3*%
X97458000Y-86848000D02*
X97458000Y-85918000D01*
X97458000Y-83688000D02*
X97458000Y-84618000D01*
X97458000Y-83688000D02*
X95298000Y-83688000D01*
X97458000Y-86848000D02*
X95998000Y-86848000D01*
%TO.C,D3*%
X95210000Y-81220000D02*
X95210000Y-83220000D01*
X95210000Y-83220000D02*
X99110000Y-83220000D01*
X95210000Y-81220000D02*
X99110000Y-81220000D01*
%TO.C,R19*%
X101472000Y-84244748D02*
X101472000Y-84767252D01*
X100052000Y-84244748D02*
X100052000Y-84767252D01*
%TO.C,R18*%
X100246748Y-86844000D02*
X100769252Y-86844000D01*
X100246748Y-88264000D02*
X100769252Y-88264000D01*
%TO.C,R17*%
X117324000Y-89847252D02*
X117324000Y-89324748D01*
X118744000Y-89847252D02*
X118744000Y-89324748D01*
%TO.C,Q4*%
X104316000Y-86340000D02*
X104316000Y-85410000D01*
X104316000Y-83180000D02*
X104316000Y-84110000D01*
X104316000Y-83180000D02*
X102156000Y-83180000D01*
X104316000Y-86340000D02*
X102856000Y-86340000D01*
%TO.C,Q2*%
X95938000Y-87244000D02*
X95938000Y-88174000D01*
X95938000Y-90404000D02*
X95938000Y-89474000D01*
X95938000Y-90404000D02*
X98098000Y-90404000D01*
X95938000Y-87244000D02*
X97398000Y-87244000D01*
%TO.C,J6*%
X107280000Y-72408000D02*
X95280000Y-72408000D01*
X95280000Y-72408000D02*
X95280000Y-81008000D01*
X95280000Y-81008000D02*
X107280000Y-81008000D01*
X107280000Y-81008000D02*
X107280000Y-72408000D01*
%TO.C,U5*%
X111060000Y-79086000D02*
X109260000Y-79086000D01*
X109260000Y-82306000D02*
X111710000Y-82306000D01*
%TO.C,R16*%
X109898748Y-85066000D02*
X110421252Y-85066000D01*
X109898748Y-86486000D02*
X110421252Y-86486000D01*
%TO.C,R15*%
X113708748Y-85066000D02*
X114231252Y-85066000D01*
X113708748Y-86486000D02*
X114231252Y-86486000D01*
%TO.C,R14*%
X105834748Y-81256000D02*
X106357252Y-81256000D01*
X105834748Y-82676000D02*
X106357252Y-82676000D01*
%TO.C,L1*%
X112764000Y-76072000D02*
X120764000Y-76072000D01*
X112764000Y-82272000D02*
X120764000Y-82272000D01*
%TO.C,JP1*%
X117188000Y-75084000D02*
X116888000Y-74784000D01*
X116588000Y-75084000D02*
X117188000Y-75084000D01*
X116888000Y-74784000D02*
X116588000Y-75084000D01*
X115538000Y-74534000D02*
X115538000Y-72584000D01*
X121038000Y-74534000D02*
X115538000Y-74534000D01*
X121038000Y-72584000D02*
X121038000Y-74534000D01*
X115538000Y-72584000D02*
X121038000Y-72584000D01*
%TO.C,C13*%
X117518748Y-83034000D02*
X118041252Y-83034000D01*
X117518748Y-84454000D02*
X118041252Y-84454000D01*
%TO.C,C12*%
X117518748Y-85066000D02*
X118041252Y-85066000D01*
X117518748Y-86486000D02*
X118041252Y-86486000D01*
%TO.C,C11*%
X110421252Y-84454000D02*
X109898748Y-84454000D01*
X110421252Y-83034000D02*
X109898748Y-83034000D01*
%TO.C,C10*%
X110675252Y-78358000D02*
X110152748Y-78358000D01*
X110675252Y-76938000D02*
X110152748Y-76938000D01*
%TO.C,C9*%
X110675252Y-76326000D02*
X110152748Y-76326000D01*
X110675252Y-74906000D02*
X110152748Y-74906000D01*
%TO.C,R13*%
X124122748Y-94360000D02*
X124645252Y-94360000D01*
X124122748Y-92940000D02*
X124645252Y-92940000D01*
%TO.C,R12*%
X132265252Y-92940000D02*
X131742748Y-92940000D01*
X132265252Y-94360000D02*
X131742748Y-94360000D01*
%TO.C,R10*%
X128455252Y-92940000D02*
X127932748Y-92940000D01*
X128455252Y-94360000D02*
X127932748Y-94360000D01*
%TO.C,R9*%
X123420000Y-108120748D02*
X123420000Y-108643252D01*
X124840000Y-108120748D02*
X124840000Y-108643252D01*
%TO.C,C8*%
X78358000Y-119565252D02*
X78358000Y-119042748D01*
X76938000Y-119565252D02*
X76938000Y-119042748D01*
%TO.C,Y1*%
X112540000Y-127454000D02*
X118290000Y-127454000D01*
X118290000Y-127454000D02*
X118290000Y-123854000D01*
X118290000Y-123854000D02*
X112540000Y-123854000D01*
%TO.C,R11*%
X114637936Y-121442000D02*
X115842064Y-121442000D01*
X114637936Y-123262000D02*
X115842064Y-123262000D01*
%TO.C,C7*%
X111632000Y-125392748D02*
X111632000Y-125915252D01*
X110212000Y-125392748D02*
X110212000Y-125915252D01*
%TO.C,C6*%
X120268000Y-125392748D02*
X120268000Y-125915252D01*
X118848000Y-125392748D02*
X118848000Y-125915252D01*
%TO.C,J4*%
X107426000Y-124892000D02*
X104766000Y-124892000D01*
X107426000Y-124892000D02*
X107426000Y-112132000D01*
X107426000Y-112132000D02*
X104766000Y-112132000D01*
X104766000Y-124892000D02*
X104766000Y-112132000D01*
X104766000Y-127492000D02*
X104766000Y-126162000D01*
X106096000Y-127492000D02*
X104766000Y-127492000D01*
%TO.C,C5*%
X130472748Y-114934000D02*
X130995252Y-114934000D01*
X130472748Y-113514000D02*
X130995252Y-113514000D01*
%TO.C,R8*%
X129158000Y-120581252D02*
X129158000Y-120058748D01*
X127738000Y-120581252D02*
X127738000Y-120058748D01*
%TO.C,U4*%
X128575000Y-111361500D02*
X128575000Y-107761500D01*
X128575000Y-111361500D02*
X128575000Y-113561500D01*
X125355000Y-111361500D02*
X125355000Y-109161500D01*
X125355000Y-111361500D02*
X125355000Y-113561500D01*
%TO.C,R7*%
X110167252Y-122808000D02*
X109644748Y-122808000D01*
X110167252Y-121388000D02*
X109644748Y-121388000D01*
%TO.C,J3*%
X89500000Y-102000000D02*
G75*
G03*
X89500000Y-102000000I-1500000J0D01*
G01*
%TO.C,C4*%
X119864000Y-110929252D02*
X119864000Y-110406748D01*
X121284000Y-110929252D02*
X121284000Y-110406748D01*
%TO.C,C3*%
X119550748Y-121388000D02*
X120073252Y-121388000D01*
X119550748Y-122808000D02*
X120073252Y-122808000D01*
%TO.C,C2*%
X110167252Y-120776000D02*
X109644748Y-120776000D01*
X110167252Y-119356000D02*
X109644748Y-119356000D01*
%TO.C,C1*%
X113283221Y-108318687D02*
X113652687Y-107949221D01*
X114287313Y-109322779D02*
X114656779Y-108953313D01*
%TO.C,R6*%
X129770000Y-74870252D02*
X129770000Y-74347748D01*
X131190000Y-74870252D02*
X131190000Y-74347748D01*
%TO.C,D2*%
X136516000Y-76414000D02*
X140376000Y-76414000D01*
X136516000Y-73294000D02*
X140376000Y-73294000D01*
X136516000Y-76414000D02*
X136516000Y-73294000D01*
X136516000Y-72894000D02*
X137636000Y-72894000D01*
X137636000Y-72894000D02*
X137636000Y-73294000D01*
X137636000Y-73294000D02*
X136516000Y-73294000D01*
X136516000Y-73294000D02*
X136516000Y-72894000D01*
X133846000Y-76124000D02*
X136516000Y-76124000D01*
X136516000Y-76124000D02*
X136516000Y-76124000D01*
X136516000Y-76124000D02*
X133846000Y-76124000D01*
X133846000Y-76124000D02*
X133846000Y-76124000D01*
X133846000Y-73584000D02*
X136516000Y-73584000D01*
X136516000Y-73584000D02*
X136516000Y-73584000D01*
X136516000Y-73584000D02*
X133846000Y-73584000D01*
X133846000Y-73584000D02*
X133846000Y-73584000D01*
X140376000Y-73294000D02*
G75*
G02*
X140376000Y-76414000I0J-1560000D01*
G01*
%TO.C,R5*%
X124840000Y-114231252D02*
X124840000Y-113708748D01*
X123420000Y-114231252D02*
X123420000Y-113708748D01*
%TO.C,R4*%
X125706000Y-120058748D02*
X125706000Y-120581252D01*
X127126000Y-120058748D02*
X127126000Y-120581252D01*
%TO.C,U2*%
X95918000Y-125908000D02*
X95918000Y-107008000D01*
X95918000Y-107008000D02*
X91918000Y-107008000D01*
X95918000Y-125908000D02*
X95418000Y-125908000D01*
X79418000Y-125908000D02*
X78918000Y-125908000D01*
X78918000Y-125908000D02*
X78918000Y-107008000D01*
X78918000Y-107008000D02*
X84918000Y-107008000D01*
X79418000Y-125908000D02*
X78918000Y-125408000D01*
%TO.C,R3*%
X133834000Y-110406748D02*
X133834000Y-110929252D01*
X135254000Y-110406748D02*
X135254000Y-110929252D01*
%TO.C,Q1*%
X137140000Y-95176000D02*
X137140000Y-96636000D01*
X133980000Y-95176000D02*
X133980000Y-97336000D01*
X133980000Y-95176000D02*
X134910000Y-95176000D01*
X137140000Y-95176000D02*
X136210000Y-95176000D01*
%TO.C,D1*%
X135370000Y-114224000D02*
X135370000Y-114224000D01*
X138040000Y-114224000D02*
X135370000Y-114224000D01*
X138040000Y-114224000D02*
X138040000Y-114224000D01*
X135370000Y-114224000D02*
X138040000Y-114224000D01*
X135370000Y-116764000D02*
X135370000Y-116764000D01*
X138040000Y-116764000D02*
X135370000Y-116764000D01*
X138040000Y-116764000D02*
X138040000Y-116764000D01*
X135370000Y-116764000D02*
X138040000Y-116764000D01*
X138040000Y-113934000D02*
X138040000Y-113534000D01*
X139160000Y-113934000D02*
X138040000Y-113934000D01*
X139160000Y-113534000D02*
X139160000Y-113934000D01*
X138040000Y-113534000D02*
X139160000Y-113534000D01*
X138040000Y-117054000D02*
X138040000Y-113934000D01*
X138040000Y-113934000D02*
X141900000Y-113934000D01*
X138040000Y-117054000D02*
X141900000Y-117054000D01*
X141900000Y-113934000D02*
G75*
G02*
X141900000Y-117054000I0J-1560000D01*
G01*
%TO.C,R2*%
X128694748Y-105282000D02*
X129217252Y-105282000D01*
X128694748Y-103862000D02*
X129217252Y-103862000D01*
%TO.C,J2*%
X122770000Y-91430000D02*
X122770000Y-78230000D01*
X122770000Y-78230000D02*
X131790000Y-78230000D01*
D14*
X140650000Y-78230000D02*
X140770000Y-78230000D01*
D11*
X140770000Y-78230000D02*
X133990000Y-78230000D01*
D14*
X140760000Y-78230000D02*
X140770000Y-78230000D01*
D11*
X140770000Y-78230000D02*
X140770000Y-91430000D01*
X140770000Y-91430000D02*
X133990000Y-91430000D01*
D14*
X131720000Y-91430000D02*
X131790000Y-91430000D01*
D11*
X131790000Y-91430000D02*
X122770000Y-91430000D01*
X124770000Y-91900000D02*
X123240000Y-91900000D01*
%TO.C,R1*%
X128694748Y-103250000D02*
X129217252Y-103250000D01*
X128694748Y-101830000D02*
X129217252Y-101830000D01*
D15*
%TO.C,J1*%
X131800000Y-101502000D02*
X131800000Y-100502000D01*
X131800000Y-105102000D02*
X131800000Y-106102000D01*
X131375000Y-105102000D02*
X131800000Y-105102000D01*
X131375000Y-104377000D02*
X131375000Y-105102000D01*
X134950000Y-99152000D02*
X133550000Y-99152000D01*
X137500000Y-99152000D02*
X137350000Y-99152000D01*
X137500000Y-99452000D02*
X137500000Y-99152000D01*
X137950000Y-99452000D02*
X137500000Y-99452000D01*
X137500000Y-107152000D02*
X137950000Y-107152000D01*
X137500000Y-107452000D02*
X137500000Y-107152000D01*
X137350000Y-107452000D02*
X137500000Y-107452000D01*
X133550000Y-107452000D02*
X134950000Y-107452000D01*
D11*
%TO.C,SW1*%
X133495000Y-121505000D02*
X133495000Y-124905000D01*
X133495000Y-119865000D02*
X133495000Y-120405000D01*
X130665000Y-127065000D02*
X130155000Y-127065000D01*
X130155000Y-126545000D02*
X130155000Y-127065000D01*
X130665000Y-126545000D02*
X130155000Y-126545000D01*
X133495000Y-126005000D02*
X133495000Y-126545000D01*
X130665000Y-119345000D02*
X130155000Y-119345000D01*
X130665000Y-119865000D02*
X130155000Y-119865000D01*
X133495000Y-126545000D02*
X133265000Y-126545000D01*
X137165000Y-119345000D02*
X133265000Y-119345000D01*
X130155000Y-119345000D02*
X130155000Y-119865000D01*
X137165000Y-127065000D02*
X133265000Y-127065000D01*
X137165000Y-119345000D02*
X137165000Y-127065000D01*
X133495000Y-119865000D02*
X133265000Y-119865000D01*
%TO.C,U1*%
X112588000Y-119358000D02*
X112588000Y-120648000D01*
X112138000Y-119358000D02*
X112588000Y-119358000D01*
X112138000Y-118908000D02*
X112138000Y-119358000D01*
X112138000Y-112138000D02*
X112588000Y-112138000D01*
X112138000Y-112588000D02*
X112138000Y-112138000D01*
X119358000Y-119358000D02*
X118908000Y-119358000D01*
X119358000Y-118908000D02*
X119358000Y-119358000D01*
X119358000Y-112138000D02*
X118908000Y-112138000D01*
X119358000Y-112588000D02*
X119358000Y-112138000D01*
%TO.C,J5*%
D15*
X119478666Y-101484380D02*
X119478666Y-102198666D01*
X119431047Y-102341523D01*
X119335809Y-102436761D01*
X119192952Y-102484380D01*
X119097714Y-102484380D01*
X120431047Y-101484380D02*
X119954857Y-101484380D01*
X119907238Y-101960571D01*
X119954857Y-101912952D01*
X120050095Y-101865333D01*
X120288190Y-101865333D01*
X120383428Y-101912952D01*
X120431047Y-101960571D01*
X120478666Y-102055809D01*
X120478666Y-102293904D01*
X120431047Y-102389142D01*
X120383428Y-102436761D01*
X120288190Y-102484380D01*
X120050095Y-102484380D01*
X119954857Y-102436761D01*
X119907238Y-102389142D01*
%TO.C,R20*%
X119931142Y-92832380D02*
X119597809Y-92356190D01*
X119359714Y-92832380D02*
X119359714Y-91832380D01*
X119740666Y-91832380D01*
X119835904Y-91880000D01*
X119883523Y-91927619D01*
X119931142Y-92022857D01*
X119931142Y-92165714D01*
X119883523Y-92260952D01*
X119835904Y-92308571D01*
X119740666Y-92356190D01*
X119359714Y-92356190D01*
X120312095Y-91927619D02*
X120359714Y-91880000D01*
X120454952Y-91832380D01*
X120693047Y-91832380D01*
X120788285Y-91880000D01*
X120835904Y-91927619D01*
X120883523Y-92022857D01*
X120883523Y-92118095D01*
X120835904Y-92260952D01*
X120264476Y-92832380D01*
X120883523Y-92832380D01*
X121502571Y-91832380D02*
X121597809Y-91832380D01*
X121693047Y-91880000D01*
X121740666Y-91927619D01*
X121788285Y-92022857D01*
X121835904Y-92213333D01*
X121835904Y-92451428D01*
X121788285Y-92641904D01*
X121740666Y-92737142D01*
X121693047Y-92784761D01*
X121597809Y-92832380D01*
X121502571Y-92832380D01*
X121407333Y-92784761D01*
X121359714Y-92737142D01*
X121312095Y-92641904D01*
X121264476Y-92451428D01*
X121264476Y-92213333D01*
X121312095Y-92022857D01*
X121359714Y-91927619D01*
X121407333Y-91880000D01*
X121502571Y-91832380D01*
%TO.C,Q3*%
X93808761Y-85815619D02*
X93713523Y-85768000D01*
X93618285Y-85672761D01*
X93475428Y-85529904D01*
X93380190Y-85482285D01*
X93284952Y-85482285D01*
X93332571Y-85720380D02*
X93237333Y-85672761D01*
X93142095Y-85577523D01*
X93094476Y-85387047D01*
X93094476Y-85053714D01*
X93142095Y-84863238D01*
X93237333Y-84768000D01*
X93332571Y-84720380D01*
X93523047Y-84720380D01*
X93618285Y-84768000D01*
X93713523Y-84863238D01*
X93761142Y-85053714D01*
X93761142Y-85387047D01*
X93713523Y-85577523D01*
X93618285Y-85672761D01*
X93523047Y-85720380D01*
X93332571Y-85720380D01*
X94094476Y-84720380D02*
X94713523Y-84720380D01*
X94380190Y-85101333D01*
X94523047Y-85101333D01*
X94618285Y-85148952D01*
X94665904Y-85196571D01*
X94713523Y-85291809D01*
X94713523Y-85529904D01*
X94665904Y-85625142D01*
X94618285Y-85672761D01*
X94523047Y-85720380D01*
X94237333Y-85720380D01*
X94142095Y-85672761D01*
X94094476Y-85625142D01*
%TO.C,D3*%
X93165904Y-82672380D02*
X93165904Y-81672380D01*
X93404000Y-81672380D01*
X93546857Y-81720000D01*
X93642095Y-81815238D01*
X93689714Y-81910476D01*
X93737333Y-82100952D01*
X93737333Y-82243809D01*
X93689714Y-82434285D01*
X93642095Y-82529523D01*
X93546857Y-82624761D01*
X93404000Y-82672380D01*
X93165904Y-82672380D01*
X94070666Y-81672380D02*
X94689714Y-81672380D01*
X94356380Y-82053333D01*
X94499238Y-82053333D01*
X94594476Y-82100952D01*
X94642095Y-82148571D01*
X94689714Y-82243809D01*
X94689714Y-82481904D01*
X94642095Y-82577142D01*
X94594476Y-82624761D01*
X94499238Y-82672380D01*
X94213523Y-82672380D01*
X94118285Y-82624761D01*
X94070666Y-82577142D01*
%TO.C,R19*%
X99690380Y-85402857D02*
X99214190Y-85736190D01*
X99690380Y-85974285D02*
X98690380Y-85974285D01*
X98690380Y-85593333D01*
X98738000Y-85498095D01*
X98785619Y-85450476D01*
X98880857Y-85402857D01*
X99023714Y-85402857D01*
X99118952Y-85450476D01*
X99166571Y-85498095D01*
X99214190Y-85593333D01*
X99214190Y-85974285D01*
X99690380Y-84450476D02*
X99690380Y-85021904D01*
X99690380Y-84736190D02*
X98690380Y-84736190D01*
X98833238Y-84831428D01*
X98928476Y-84926666D01*
X98976095Y-85021904D01*
X99690380Y-83974285D02*
X99690380Y-83783809D01*
X99642761Y-83688571D01*
X99595142Y-83640952D01*
X99452285Y-83545714D01*
X99261809Y-83498095D01*
X98880857Y-83498095D01*
X98785619Y-83545714D01*
X98738000Y-83593333D01*
X98690380Y-83688571D01*
X98690380Y-83879047D01*
X98738000Y-83974285D01*
X98785619Y-84021904D01*
X98880857Y-84069523D01*
X99118952Y-84069523D01*
X99214190Y-84021904D01*
X99261809Y-83974285D01*
X99309428Y-83879047D01*
X99309428Y-83688571D01*
X99261809Y-83593333D01*
X99214190Y-83545714D01*
X99118952Y-83498095D01*
%TO.C,R18*%
X99103142Y-89530380D02*
X98769809Y-89054190D01*
X98531714Y-89530380D02*
X98531714Y-88530380D01*
X98912666Y-88530380D01*
X99007904Y-88578000D01*
X99055523Y-88625619D01*
X99103142Y-88720857D01*
X99103142Y-88863714D01*
X99055523Y-88958952D01*
X99007904Y-89006571D01*
X98912666Y-89054190D01*
X98531714Y-89054190D01*
X100055523Y-89530380D02*
X99484095Y-89530380D01*
X99769809Y-89530380D02*
X99769809Y-88530380D01*
X99674571Y-88673238D01*
X99579333Y-88768476D01*
X99484095Y-88816095D01*
X100626952Y-88958952D02*
X100531714Y-88911333D01*
X100484095Y-88863714D01*
X100436476Y-88768476D01*
X100436476Y-88720857D01*
X100484095Y-88625619D01*
X100531714Y-88578000D01*
X100626952Y-88530380D01*
X100817428Y-88530380D01*
X100912666Y-88578000D01*
X100960285Y-88625619D01*
X101007904Y-88720857D01*
X101007904Y-88768476D01*
X100960285Y-88863714D01*
X100912666Y-88911333D01*
X100817428Y-88958952D01*
X100626952Y-88958952D01*
X100531714Y-89006571D01*
X100484095Y-89054190D01*
X100436476Y-89149428D01*
X100436476Y-89339904D01*
X100484095Y-89435142D01*
X100531714Y-89482761D01*
X100626952Y-89530380D01*
X100817428Y-89530380D01*
X100912666Y-89482761D01*
X100960285Y-89435142D01*
X101007904Y-89339904D01*
X101007904Y-89149428D01*
X100960285Y-89054190D01*
X100912666Y-89006571D01*
X100817428Y-88958952D01*
%TO.C,R17*%
X116883142Y-92832380D02*
X116549809Y-92356190D01*
X116311714Y-92832380D02*
X116311714Y-91832380D01*
X116692666Y-91832380D01*
X116787904Y-91880000D01*
X116835523Y-91927619D01*
X116883142Y-92022857D01*
X116883142Y-92165714D01*
X116835523Y-92260952D01*
X116787904Y-92308571D01*
X116692666Y-92356190D01*
X116311714Y-92356190D01*
X117835523Y-92832380D02*
X117264095Y-92832380D01*
X117549809Y-92832380D02*
X117549809Y-91832380D01*
X117454571Y-91975238D01*
X117359333Y-92070476D01*
X117264095Y-92118095D01*
X118168857Y-91832380D02*
X118835523Y-91832380D01*
X118406952Y-92832380D01*
%TO.C,Q4*%
X104730761Y-87593619D02*
X104635523Y-87546000D01*
X104540285Y-87450761D01*
X104397428Y-87307904D01*
X104302190Y-87260285D01*
X104206952Y-87260285D01*
X104254571Y-87498380D02*
X104159333Y-87450761D01*
X104064095Y-87355523D01*
X104016476Y-87165047D01*
X104016476Y-86831714D01*
X104064095Y-86641238D01*
X104159333Y-86546000D01*
X104254571Y-86498380D01*
X104445047Y-86498380D01*
X104540285Y-86546000D01*
X104635523Y-86641238D01*
X104683142Y-86831714D01*
X104683142Y-87165047D01*
X104635523Y-87355523D01*
X104540285Y-87450761D01*
X104445047Y-87498380D01*
X104254571Y-87498380D01*
X105540285Y-86831714D02*
X105540285Y-87498380D01*
X105302190Y-86450761D02*
X105064095Y-87165047D01*
X105683142Y-87165047D01*
%TO.C,Q2*%
X93808761Y-89371619D02*
X93713523Y-89324000D01*
X93618285Y-89228761D01*
X93475428Y-89085904D01*
X93380190Y-89038285D01*
X93284952Y-89038285D01*
X93332571Y-89276380D02*
X93237333Y-89228761D01*
X93142095Y-89133523D01*
X93094476Y-88943047D01*
X93094476Y-88609714D01*
X93142095Y-88419238D01*
X93237333Y-88324000D01*
X93332571Y-88276380D01*
X93523047Y-88276380D01*
X93618285Y-88324000D01*
X93713523Y-88419238D01*
X93761142Y-88609714D01*
X93761142Y-88943047D01*
X93713523Y-89133523D01*
X93618285Y-89228761D01*
X93523047Y-89276380D01*
X93332571Y-89276380D01*
X94142095Y-88371619D02*
X94189714Y-88324000D01*
X94284952Y-88276380D01*
X94523047Y-88276380D01*
X94618285Y-88324000D01*
X94665904Y-88371619D01*
X94713523Y-88466857D01*
X94713523Y-88562095D01*
X94665904Y-88704952D01*
X94094476Y-89276380D01*
X94713523Y-89276380D01*
%TO.C,J6*%
X95642380Y-73917333D02*
X96356666Y-73917333D01*
X96499523Y-73964952D01*
X96594761Y-74060190D01*
X96642380Y-74203047D01*
X96642380Y-74298285D01*
X95642380Y-73012571D02*
X95642380Y-73203047D01*
X95690000Y-73298285D01*
X95737619Y-73345904D01*
X95880476Y-73441142D01*
X96070952Y-73488761D01*
X96451904Y-73488761D01*
X96547142Y-73441142D01*
X96594761Y-73393523D01*
X96642380Y-73298285D01*
X96642380Y-73107809D01*
X96594761Y-73012571D01*
X96547142Y-72964952D01*
X96451904Y-72917333D01*
X96213809Y-72917333D01*
X96118571Y-72964952D01*
X96070952Y-73012571D01*
X96023333Y-73107809D01*
X96023333Y-73298285D01*
X96070952Y-73393523D01*
X96118571Y-73441142D01*
X96213809Y-73488761D01*
%TO.C,R16*%
X106215142Y-86228380D02*
X105881809Y-85752190D01*
X105643714Y-86228380D02*
X105643714Y-85228380D01*
X106024666Y-85228380D01*
X106119904Y-85276000D01*
X106167523Y-85323619D01*
X106215142Y-85418857D01*
X106215142Y-85561714D01*
X106167523Y-85656952D01*
X106119904Y-85704571D01*
X106024666Y-85752190D01*
X105643714Y-85752190D01*
X107167523Y-86228380D02*
X106596095Y-86228380D01*
X106881809Y-86228380D02*
X106881809Y-85228380D01*
X106786571Y-85371238D01*
X106691333Y-85466476D01*
X106596095Y-85514095D01*
X108024666Y-85228380D02*
X107834190Y-85228380D01*
X107738952Y-85276000D01*
X107691333Y-85323619D01*
X107596095Y-85466476D01*
X107548476Y-85656952D01*
X107548476Y-86037904D01*
X107596095Y-86133142D01*
X107643714Y-86180761D01*
X107738952Y-86228380D01*
X107929428Y-86228380D01*
X108024666Y-86180761D01*
X108072285Y-86133142D01*
X108119904Y-86037904D01*
X108119904Y-85799809D01*
X108072285Y-85704571D01*
X108024666Y-85656952D01*
X107929428Y-85609333D01*
X107738952Y-85609333D01*
X107643714Y-85656952D01*
X107596095Y-85704571D01*
X107548476Y-85799809D01*
%TO.C,R15*%
X113327142Y-88006380D02*
X112993809Y-87530190D01*
X112755714Y-88006380D02*
X112755714Y-87006380D01*
X113136666Y-87006380D01*
X113231904Y-87054000D01*
X113279523Y-87101619D01*
X113327142Y-87196857D01*
X113327142Y-87339714D01*
X113279523Y-87434952D01*
X113231904Y-87482571D01*
X113136666Y-87530190D01*
X112755714Y-87530190D01*
X114279523Y-88006380D02*
X113708095Y-88006380D01*
X113993809Y-88006380D02*
X113993809Y-87006380D01*
X113898571Y-87149238D01*
X113803333Y-87244476D01*
X113708095Y-87292095D01*
X115184285Y-87006380D02*
X114708095Y-87006380D01*
X114660476Y-87482571D01*
X114708095Y-87434952D01*
X114803333Y-87387333D01*
X115041428Y-87387333D01*
X115136666Y-87434952D01*
X115184285Y-87482571D01*
X115231904Y-87577809D01*
X115231904Y-87815904D01*
X115184285Y-87911142D01*
X115136666Y-87958761D01*
X115041428Y-88006380D01*
X114803333Y-88006380D01*
X114708095Y-87958761D01*
X114660476Y-87911142D01*
%TO.C,R14*%
X102151142Y-82418380D02*
X101817809Y-81942190D01*
X101579714Y-82418380D02*
X101579714Y-81418380D01*
X101960666Y-81418380D01*
X102055904Y-81466000D01*
X102103523Y-81513619D01*
X102151142Y-81608857D01*
X102151142Y-81751714D01*
X102103523Y-81846952D01*
X102055904Y-81894571D01*
X101960666Y-81942190D01*
X101579714Y-81942190D01*
X103103523Y-82418380D02*
X102532095Y-82418380D01*
X102817809Y-82418380D02*
X102817809Y-81418380D01*
X102722571Y-81561238D01*
X102627333Y-81656476D01*
X102532095Y-81704095D01*
X103960666Y-81751714D02*
X103960666Y-82418380D01*
X103722571Y-81370761D02*
X103484476Y-82085047D01*
X104103523Y-82085047D01*
%TO.C,L1*%
X119645333Y-75624380D02*
X119169142Y-75624380D01*
X119169142Y-74624380D01*
X120502476Y-75624380D02*
X119931047Y-75624380D01*
X120216761Y-75624380D02*
X120216761Y-74624380D01*
X120121523Y-74767238D01*
X120026285Y-74862476D01*
X119931047Y-74910095D01*
%TO.C,JP1*%
X112882666Y-72528380D02*
X112882666Y-73242666D01*
X112835047Y-73385523D01*
X112739809Y-73480761D01*
X112596952Y-73528380D01*
X112501714Y-73528380D01*
X113358857Y-73528380D02*
X113358857Y-72528380D01*
X113739809Y-72528380D01*
X113835047Y-72576000D01*
X113882666Y-72623619D01*
X113930285Y-72718857D01*
X113930285Y-72861714D01*
X113882666Y-72956952D01*
X113835047Y-73004571D01*
X113739809Y-73052190D01*
X113358857Y-73052190D01*
X114882666Y-73528380D02*
X114311238Y-73528380D01*
X114596952Y-73528380D02*
X114596952Y-72528380D01*
X114501714Y-72671238D01*
X114406476Y-72766476D01*
X114311238Y-72814095D01*
%TO.C,C13*%
X120439142Y-84101142D02*
X120391523Y-84148761D01*
X120248666Y-84196380D01*
X120153428Y-84196380D01*
X120010571Y-84148761D01*
X119915333Y-84053523D01*
X119867714Y-83958285D01*
X119820095Y-83767809D01*
X119820095Y-83624952D01*
X119867714Y-83434476D01*
X119915333Y-83339238D01*
X120010571Y-83244000D01*
X120153428Y-83196380D01*
X120248666Y-83196380D01*
X120391523Y-83244000D01*
X120439142Y-83291619D01*
X121391523Y-84196380D02*
X120820095Y-84196380D01*
X121105809Y-84196380D02*
X121105809Y-83196380D01*
X121010571Y-83339238D01*
X120915333Y-83434476D01*
X120820095Y-83482095D01*
X121724857Y-83196380D02*
X122343904Y-83196380D01*
X122010571Y-83577333D01*
X122153428Y-83577333D01*
X122248666Y-83624952D01*
X122296285Y-83672571D01*
X122343904Y-83767809D01*
X122343904Y-84005904D01*
X122296285Y-84101142D01*
X122248666Y-84148761D01*
X122153428Y-84196380D01*
X121867714Y-84196380D01*
X121772476Y-84148761D01*
X121724857Y-84101142D01*
%TO.C,C12*%
X120439142Y-86133142D02*
X120391523Y-86180761D01*
X120248666Y-86228380D01*
X120153428Y-86228380D01*
X120010571Y-86180761D01*
X119915333Y-86085523D01*
X119867714Y-85990285D01*
X119820095Y-85799809D01*
X119820095Y-85656952D01*
X119867714Y-85466476D01*
X119915333Y-85371238D01*
X120010571Y-85276000D01*
X120153428Y-85228380D01*
X120248666Y-85228380D01*
X120391523Y-85276000D01*
X120439142Y-85323619D01*
X121391523Y-86228380D02*
X120820095Y-86228380D01*
X121105809Y-86228380D02*
X121105809Y-85228380D01*
X121010571Y-85371238D01*
X120915333Y-85466476D01*
X120820095Y-85514095D01*
X121772476Y-85323619D02*
X121820095Y-85276000D01*
X121915333Y-85228380D01*
X122153428Y-85228380D01*
X122248666Y-85276000D01*
X122296285Y-85323619D01*
X122343904Y-85418857D01*
X122343904Y-85514095D01*
X122296285Y-85656952D01*
X121724857Y-86228380D01*
X122343904Y-86228380D01*
%TO.C,C11*%
X106215142Y-84101142D02*
X106167523Y-84148761D01*
X106024666Y-84196380D01*
X105929428Y-84196380D01*
X105786571Y-84148761D01*
X105691333Y-84053523D01*
X105643714Y-83958285D01*
X105596095Y-83767809D01*
X105596095Y-83624952D01*
X105643714Y-83434476D01*
X105691333Y-83339238D01*
X105786571Y-83244000D01*
X105929428Y-83196380D01*
X106024666Y-83196380D01*
X106167523Y-83244000D01*
X106215142Y-83291619D01*
X107167523Y-84196380D02*
X106596095Y-84196380D01*
X106881809Y-84196380D02*
X106881809Y-83196380D01*
X106786571Y-83339238D01*
X106691333Y-83434476D01*
X106596095Y-83482095D01*
X108119904Y-84196380D02*
X107548476Y-84196380D01*
X107834190Y-84196380D02*
X107834190Y-83196380D01*
X107738952Y-83339238D01*
X107643714Y-83434476D01*
X107548476Y-83482095D01*
%TO.C,C10*%
X108240142Y-78036857D02*
X108287761Y-78084476D01*
X108335380Y-78227333D01*
X108335380Y-78322571D01*
X108287761Y-78465428D01*
X108192523Y-78560666D01*
X108097285Y-78608285D01*
X107906809Y-78655904D01*
X107763952Y-78655904D01*
X107573476Y-78608285D01*
X107478238Y-78560666D01*
X107383000Y-78465428D01*
X107335380Y-78322571D01*
X107335380Y-78227333D01*
X107383000Y-78084476D01*
X107430619Y-78036857D01*
X108335380Y-77084476D02*
X108335380Y-77655904D01*
X108335380Y-77370190D02*
X107335380Y-77370190D01*
X107478238Y-77465428D01*
X107573476Y-77560666D01*
X107621095Y-77655904D01*
X107335380Y-76465428D02*
X107335380Y-76370190D01*
X107383000Y-76274952D01*
X107430619Y-76227333D01*
X107525857Y-76179714D01*
X107716333Y-76132095D01*
X107954428Y-76132095D01*
X108144904Y-76179714D01*
X108240142Y-76227333D01*
X108287761Y-76274952D01*
X108335380Y-76370190D01*
X108335380Y-76465428D01*
X108287761Y-76560666D01*
X108240142Y-76608285D01*
X108144904Y-76655904D01*
X107954428Y-76703523D01*
X107716333Y-76703523D01*
X107525857Y-76655904D01*
X107430619Y-76608285D01*
X107383000Y-76560666D01*
X107335380Y-76465428D01*
%TO.C,C9*%
X110247333Y-74449142D02*
X110199714Y-74496761D01*
X110056857Y-74544380D01*
X109961619Y-74544380D01*
X109818761Y-74496761D01*
X109723523Y-74401523D01*
X109675904Y-74306285D01*
X109628285Y-74115809D01*
X109628285Y-73972952D01*
X109675904Y-73782476D01*
X109723523Y-73687238D01*
X109818761Y-73592000D01*
X109961619Y-73544380D01*
X110056857Y-73544380D01*
X110199714Y-73592000D01*
X110247333Y-73639619D01*
X110723523Y-74544380D02*
X110914000Y-74544380D01*
X111009238Y-74496761D01*
X111056857Y-74449142D01*
X111152095Y-74306285D01*
X111199714Y-74115809D01*
X111199714Y-73734857D01*
X111152095Y-73639619D01*
X111104476Y-73592000D01*
X111009238Y-73544380D01*
X110818761Y-73544380D01*
X110723523Y-73592000D01*
X110675904Y-73639619D01*
X110628285Y-73734857D01*
X110628285Y-73972952D01*
X110675904Y-74068190D01*
X110723523Y-74115809D01*
X110818761Y-74163428D01*
X111009238Y-74163428D01*
X111104476Y-74115809D01*
X111152095Y-74068190D01*
X111199714Y-73972952D01*
%TO.C,R13*%
X123741142Y-95880380D02*
X123407809Y-95404190D01*
X123169714Y-95880380D02*
X123169714Y-94880380D01*
X123550666Y-94880380D01*
X123645904Y-94928000D01*
X123693523Y-94975619D01*
X123741142Y-95070857D01*
X123741142Y-95213714D01*
X123693523Y-95308952D01*
X123645904Y-95356571D01*
X123550666Y-95404190D01*
X123169714Y-95404190D01*
X124693523Y-95880380D02*
X124122095Y-95880380D01*
X124407809Y-95880380D02*
X124407809Y-94880380D01*
X124312571Y-95023238D01*
X124217333Y-95118476D01*
X124122095Y-95166095D01*
X125026857Y-94880380D02*
X125645904Y-94880380D01*
X125312571Y-95261333D01*
X125455428Y-95261333D01*
X125550666Y-95308952D01*
X125598285Y-95356571D01*
X125645904Y-95451809D01*
X125645904Y-95689904D01*
X125598285Y-95785142D01*
X125550666Y-95832761D01*
X125455428Y-95880380D01*
X125169714Y-95880380D01*
X125074476Y-95832761D01*
X125026857Y-95785142D01*
%TO.C,R12*%
X131361142Y-95880380D02*
X131027809Y-95404190D01*
X130789714Y-95880380D02*
X130789714Y-94880380D01*
X131170666Y-94880380D01*
X131265904Y-94928000D01*
X131313523Y-94975619D01*
X131361142Y-95070857D01*
X131361142Y-95213714D01*
X131313523Y-95308952D01*
X131265904Y-95356571D01*
X131170666Y-95404190D01*
X130789714Y-95404190D01*
X132313523Y-95880380D02*
X131742095Y-95880380D01*
X132027809Y-95880380D02*
X132027809Y-94880380D01*
X131932571Y-95023238D01*
X131837333Y-95118476D01*
X131742095Y-95166095D01*
X132694476Y-94975619D02*
X132742095Y-94928000D01*
X132837333Y-94880380D01*
X133075428Y-94880380D01*
X133170666Y-94928000D01*
X133218285Y-94975619D01*
X133265904Y-95070857D01*
X133265904Y-95166095D01*
X133218285Y-95308952D01*
X132646857Y-95880380D01*
X133265904Y-95880380D01*
%TO.C,R10*%
X127551142Y-95880380D02*
X127217809Y-95404190D01*
X126979714Y-95880380D02*
X126979714Y-94880380D01*
X127360666Y-94880380D01*
X127455904Y-94928000D01*
X127503523Y-94975619D01*
X127551142Y-95070857D01*
X127551142Y-95213714D01*
X127503523Y-95308952D01*
X127455904Y-95356571D01*
X127360666Y-95404190D01*
X126979714Y-95404190D01*
X128503523Y-95880380D02*
X127932095Y-95880380D01*
X128217809Y-95880380D02*
X128217809Y-94880380D01*
X128122571Y-95023238D01*
X128027333Y-95118476D01*
X127932095Y-95166095D01*
X129122571Y-94880380D02*
X129217809Y-94880380D01*
X129313047Y-94928000D01*
X129360666Y-94975619D01*
X129408285Y-95070857D01*
X129455904Y-95261333D01*
X129455904Y-95499428D01*
X129408285Y-95689904D01*
X129360666Y-95785142D01*
X129313047Y-95832761D01*
X129217809Y-95880380D01*
X129122571Y-95880380D01*
X129027333Y-95832761D01*
X128979714Y-95785142D01*
X128932095Y-95689904D01*
X128884476Y-95499428D01*
X128884476Y-95261333D01*
X128932095Y-95070857D01*
X128979714Y-94975619D01*
X129027333Y-94928000D01*
X129122571Y-94880380D01*
%TO.C,R9*%
X123963333Y-106294380D02*
X123630000Y-105818190D01*
X123391904Y-106294380D02*
X123391904Y-105294380D01*
X123772857Y-105294380D01*
X123868095Y-105342000D01*
X123915714Y-105389619D01*
X123963333Y-105484857D01*
X123963333Y-105627714D01*
X123915714Y-105722952D01*
X123868095Y-105770571D01*
X123772857Y-105818190D01*
X123391904Y-105818190D01*
X124439523Y-106294380D02*
X124630000Y-106294380D01*
X124725238Y-106246761D01*
X124772857Y-106199142D01*
X124868095Y-106056285D01*
X124915714Y-105865809D01*
X124915714Y-105484857D01*
X124868095Y-105389619D01*
X124820476Y-105342000D01*
X124725238Y-105294380D01*
X124534761Y-105294380D01*
X124439523Y-105342000D01*
X124391904Y-105389619D01*
X124344285Y-105484857D01*
X124344285Y-105722952D01*
X124391904Y-105818190D01*
X124439523Y-105865809D01*
X124534761Y-105913428D01*
X124725238Y-105913428D01*
X124820476Y-105865809D01*
X124868095Y-105818190D01*
X124915714Y-105722952D01*
%TO.C,C8*%
X78005142Y-116676666D02*
X78052761Y-116724285D01*
X78100380Y-116867142D01*
X78100380Y-116962380D01*
X78052761Y-117105238D01*
X77957523Y-117200476D01*
X77862285Y-117248095D01*
X77671809Y-117295714D01*
X77528952Y-117295714D01*
X77338476Y-117248095D01*
X77243238Y-117200476D01*
X77148000Y-117105238D01*
X77100380Y-116962380D01*
X77100380Y-116867142D01*
X77148000Y-116724285D01*
X77195619Y-116676666D01*
X77528952Y-116105238D02*
X77481333Y-116200476D01*
X77433714Y-116248095D01*
X77338476Y-116295714D01*
X77290857Y-116295714D01*
X77195619Y-116248095D01*
X77148000Y-116200476D01*
X77100380Y-116105238D01*
X77100380Y-115914761D01*
X77148000Y-115819523D01*
X77195619Y-115771904D01*
X77290857Y-115724285D01*
X77338476Y-115724285D01*
X77433714Y-115771904D01*
X77481333Y-115819523D01*
X77528952Y-115914761D01*
X77528952Y-116105238D01*
X77576571Y-116200476D01*
X77624190Y-116248095D01*
X77719428Y-116295714D01*
X77909904Y-116295714D01*
X78005142Y-116248095D01*
X78052761Y-116200476D01*
X78100380Y-116105238D01*
X78100380Y-115914761D01*
X78052761Y-115819523D01*
X78005142Y-115771904D01*
X77909904Y-115724285D01*
X77719428Y-115724285D01*
X77624190Y-115771904D01*
X77576571Y-115819523D01*
X77528952Y-115914761D01*
%TO.C,C7*%
X108723333Y-127281142D02*
X108675714Y-127328761D01*
X108532857Y-127376380D01*
X108437619Y-127376380D01*
X108294761Y-127328761D01*
X108199523Y-127233523D01*
X108151904Y-127138285D01*
X108104285Y-126947809D01*
X108104285Y-126804952D01*
X108151904Y-126614476D01*
X108199523Y-126519238D01*
X108294761Y-126424000D01*
X108437619Y-126376380D01*
X108532857Y-126376380D01*
X108675714Y-126424000D01*
X108723333Y-126471619D01*
X109056666Y-126376380D02*
X109723333Y-126376380D01*
X109294761Y-127376380D01*
%TO.C,C6*%
X121423333Y-127281142D02*
X121375714Y-127328761D01*
X121232857Y-127376380D01*
X121137619Y-127376380D01*
X120994761Y-127328761D01*
X120899523Y-127233523D01*
X120851904Y-127138285D01*
X120804285Y-126947809D01*
X120804285Y-126804952D01*
X120851904Y-126614476D01*
X120899523Y-126519238D01*
X120994761Y-126424000D01*
X121137619Y-126376380D01*
X121232857Y-126376380D01*
X121375714Y-126424000D01*
X121423333Y-126471619D01*
X122280476Y-126376380D02*
X122090000Y-126376380D01*
X121994761Y-126424000D01*
X121947142Y-126471619D01*
X121851904Y-126614476D01*
X121804285Y-126804952D01*
X121804285Y-127185904D01*
X121851904Y-127281142D01*
X121899523Y-127328761D01*
X121994761Y-127376380D01*
X122185238Y-127376380D01*
X122280476Y-127328761D01*
X122328095Y-127281142D01*
X122375714Y-127185904D01*
X122375714Y-126947809D01*
X122328095Y-126852571D01*
X122280476Y-126804952D01*
X122185238Y-126757333D01*
X121994761Y-126757333D01*
X121899523Y-126804952D01*
X121851904Y-126852571D01*
X121804285Y-126947809D01*
%TO.C,J4*%
X102762666Y-125614380D02*
X102762666Y-126328666D01*
X102715047Y-126471523D01*
X102619809Y-126566761D01*
X102476952Y-126614380D01*
X102381714Y-126614380D01*
X103667428Y-125947714D02*
X103667428Y-126614380D01*
X103429333Y-125566761D02*
X103191238Y-126281047D01*
X103810285Y-126281047D01*
%TO.C,C5*%
X129551333Y-113057142D02*
X129503714Y-113104761D01*
X129360857Y-113152380D01*
X129265619Y-113152380D01*
X129122761Y-113104761D01*
X129027523Y-113009523D01*
X128979904Y-112914285D01*
X128932285Y-112723809D01*
X128932285Y-112580952D01*
X128979904Y-112390476D01*
X129027523Y-112295238D01*
X129122761Y-112200000D01*
X129265619Y-112152380D01*
X129360857Y-112152380D01*
X129503714Y-112200000D01*
X129551333Y-112247619D01*
X130456095Y-112152380D02*
X129979904Y-112152380D01*
X129932285Y-112628571D01*
X129979904Y-112580952D01*
X130075142Y-112533333D01*
X130313238Y-112533333D01*
X130408476Y-112580952D01*
X130456095Y-112628571D01*
X130503714Y-112723809D01*
X130503714Y-112961904D01*
X130456095Y-113057142D01*
X130408476Y-113104761D01*
X130313238Y-113152380D01*
X130075142Y-113152380D01*
X129979904Y-113104761D01*
X129932285Y-113057142D01*
%TO.C,R8*%
X128281333Y-123312380D02*
X127948000Y-122836190D01*
X127709904Y-123312380D02*
X127709904Y-122312380D01*
X128090857Y-122312380D01*
X128186095Y-122360000D01*
X128233714Y-122407619D01*
X128281333Y-122502857D01*
X128281333Y-122645714D01*
X128233714Y-122740952D01*
X128186095Y-122788571D01*
X128090857Y-122836190D01*
X127709904Y-122836190D01*
X128852761Y-122740952D02*
X128757523Y-122693333D01*
X128709904Y-122645714D01*
X128662285Y-122550476D01*
X128662285Y-122502857D01*
X128709904Y-122407619D01*
X128757523Y-122360000D01*
X128852761Y-122312380D01*
X129043238Y-122312380D01*
X129138476Y-122360000D01*
X129186095Y-122407619D01*
X129233714Y-122502857D01*
X129233714Y-122550476D01*
X129186095Y-122645714D01*
X129138476Y-122693333D01*
X129043238Y-122740952D01*
X128852761Y-122740952D01*
X128757523Y-122788571D01*
X128709904Y-122836190D01*
X128662285Y-122931428D01*
X128662285Y-123121904D01*
X128709904Y-123217142D01*
X128757523Y-123264761D01*
X128852761Y-123312380D01*
X129043238Y-123312380D01*
X129138476Y-123264761D01*
X129186095Y-123217142D01*
X129233714Y-123121904D01*
X129233714Y-122931428D01*
X129186095Y-122836190D01*
X129138476Y-122788571D01*
X129043238Y-122740952D01*
%TO.C,U4*%
X128916380Y-109143904D02*
X129725904Y-109143904D01*
X129821142Y-109096285D01*
X129868761Y-109048666D01*
X129916380Y-108953428D01*
X129916380Y-108762952D01*
X129868761Y-108667714D01*
X129821142Y-108620095D01*
X129725904Y-108572476D01*
X128916380Y-108572476D01*
X129249714Y-107667714D02*
X129916380Y-107667714D01*
X128868761Y-107905809D02*
X129583047Y-108143904D01*
X129583047Y-107524857D01*
%TO.C,R7*%
X110755333Y-120772380D02*
X110422000Y-120296190D01*
X110183904Y-120772380D02*
X110183904Y-119772380D01*
X110564857Y-119772380D01*
X110660095Y-119820000D01*
X110707714Y-119867619D01*
X110755333Y-119962857D01*
X110755333Y-120105714D01*
X110707714Y-120200952D01*
X110660095Y-120248571D01*
X110564857Y-120296190D01*
X110183904Y-120296190D01*
X111088666Y-119772380D02*
X111755333Y-119772380D01*
X111326761Y-120772380D01*
%TO.C,J3*%
X85126666Y-101452380D02*
X85126666Y-102166666D01*
X85079047Y-102309523D01*
X84983809Y-102404761D01*
X84840952Y-102452380D01*
X84745714Y-102452380D01*
X85507619Y-101452380D02*
X86126666Y-101452380D01*
X85793333Y-101833333D01*
X85936190Y-101833333D01*
X86031428Y-101880952D01*
X86079047Y-101928571D01*
X86126666Y-102023809D01*
X86126666Y-102261904D01*
X86079047Y-102357142D01*
X86031428Y-102404761D01*
X85936190Y-102452380D01*
X85650476Y-102452380D01*
X85555238Y-102404761D01*
X85507619Y-102357142D01*
%TO.C,C4*%
X120407333Y-108485142D02*
X120359714Y-108532761D01*
X120216857Y-108580380D01*
X120121619Y-108580380D01*
X119978761Y-108532761D01*
X119883523Y-108437523D01*
X119835904Y-108342285D01*
X119788285Y-108151809D01*
X119788285Y-108008952D01*
X119835904Y-107818476D01*
X119883523Y-107723238D01*
X119978761Y-107628000D01*
X120121619Y-107580380D01*
X120216857Y-107580380D01*
X120359714Y-107628000D01*
X120407333Y-107675619D01*
X121264476Y-107913714D02*
X121264476Y-108580380D01*
X121026380Y-107532761D02*
X120788285Y-108247047D01*
X121407333Y-108247047D01*
%TO.C,C3*%
X122439333Y-122455142D02*
X122391714Y-122502761D01*
X122248857Y-122550380D01*
X122153619Y-122550380D01*
X122010761Y-122502761D01*
X121915523Y-122407523D01*
X121867904Y-122312285D01*
X121820285Y-122121809D01*
X121820285Y-121978952D01*
X121867904Y-121788476D01*
X121915523Y-121693238D01*
X122010761Y-121598000D01*
X122153619Y-121550380D01*
X122248857Y-121550380D01*
X122391714Y-121598000D01*
X122439333Y-121645619D01*
X122772666Y-121550380D02*
X123391714Y-121550380D01*
X123058380Y-121931333D01*
X123201238Y-121931333D01*
X123296476Y-121978952D01*
X123344095Y-122026571D01*
X123391714Y-122121809D01*
X123391714Y-122359904D01*
X123344095Y-122455142D01*
X123296476Y-122502761D01*
X123201238Y-122550380D01*
X122915523Y-122550380D01*
X122820285Y-122502761D01*
X122772666Y-122455142D01*
%TO.C,C2*%
X108215333Y-118645142D02*
X108167714Y-118692761D01*
X108024857Y-118740380D01*
X107929619Y-118740380D01*
X107786761Y-118692761D01*
X107691523Y-118597523D01*
X107643904Y-118502285D01*
X107596285Y-118311809D01*
X107596285Y-118168952D01*
X107643904Y-117978476D01*
X107691523Y-117883238D01*
X107786761Y-117788000D01*
X107929619Y-117740380D01*
X108024857Y-117740380D01*
X108167714Y-117788000D01*
X108215333Y-117835619D01*
X108596285Y-117835619D02*
X108643904Y-117788000D01*
X108739142Y-117740380D01*
X108977238Y-117740380D01*
X109072476Y-117788000D01*
X109120095Y-117835619D01*
X109167714Y-117930857D01*
X109167714Y-118026095D01*
X109120095Y-118168952D01*
X108548666Y-118740380D01*
X109167714Y-118740380D01*
%TO.C,C1*%
X115882687Y-109514389D02*
X115882687Y-109581732D01*
X115815343Y-109716419D01*
X115748000Y-109783763D01*
X115613312Y-109851106D01*
X115478625Y-109851106D01*
X115377610Y-109817435D01*
X115209251Y-109716419D01*
X115108236Y-109615404D01*
X115007221Y-109447045D01*
X114973549Y-109346030D01*
X114973549Y-109211343D01*
X115040893Y-109076656D01*
X115108236Y-109009312D01*
X115242923Y-108941969D01*
X115310267Y-108941969D01*
X116623465Y-108908297D02*
X116219404Y-109312358D01*
X116421435Y-109110328D02*
X115714328Y-108403221D01*
X115748000Y-108571580D01*
X115748000Y-108706267D01*
X115714328Y-108807282D01*
%TO.C,R6*%
X130313333Y-77846380D02*
X129980000Y-77370190D01*
X129741904Y-77846380D02*
X129741904Y-76846380D01*
X130122857Y-76846380D01*
X130218095Y-76894000D01*
X130265714Y-76941619D01*
X130313333Y-77036857D01*
X130313333Y-77179714D01*
X130265714Y-77274952D01*
X130218095Y-77322571D01*
X130122857Y-77370190D01*
X129741904Y-77370190D01*
X131170476Y-76846380D02*
X130980000Y-76846380D01*
X130884761Y-76894000D01*
X130837142Y-76941619D01*
X130741904Y-77084476D01*
X130694285Y-77274952D01*
X130694285Y-77655904D01*
X130741904Y-77751142D01*
X130789523Y-77798761D01*
X130884761Y-77846380D01*
X131075238Y-77846380D01*
X131170476Y-77798761D01*
X131218095Y-77751142D01*
X131265714Y-77655904D01*
X131265714Y-77417809D01*
X131218095Y-77322571D01*
X131170476Y-77274952D01*
X131075238Y-77227333D01*
X130884761Y-77227333D01*
X130789523Y-77274952D01*
X130741904Y-77322571D01*
X130694285Y-77417809D01*
%TO.C,D2*%
X134567904Y-75306380D02*
X134567904Y-74306380D01*
X134806000Y-74306380D01*
X134948857Y-74354000D01*
X135044095Y-74449238D01*
X135091714Y-74544476D01*
X135139333Y-74734952D01*
X135139333Y-74877809D01*
X135091714Y-75068285D01*
X135044095Y-75163523D01*
X134948857Y-75258761D01*
X134806000Y-75306380D01*
X134567904Y-75306380D01*
X135520285Y-74401619D02*
X135567904Y-74354000D01*
X135663142Y-74306380D01*
X135901238Y-74306380D01*
X135996476Y-74354000D01*
X136044095Y-74401619D01*
X136091714Y-74496857D01*
X136091714Y-74592095D01*
X136044095Y-74734952D01*
X135472666Y-75306380D01*
X136091714Y-75306380D01*
%TO.C,R5*%
X122185333Y-114422380D02*
X121852000Y-113946190D01*
X121613904Y-114422380D02*
X121613904Y-113422380D01*
X121994857Y-113422380D01*
X122090095Y-113470000D01*
X122137714Y-113517619D01*
X122185333Y-113612857D01*
X122185333Y-113755714D01*
X122137714Y-113850952D01*
X122090095Y-113898571D01*
X121994857Y-113946190D01*
X121613904Y-113946190D01*
X123090095Y-113422380D02*
X122613904Y-113422380D01*
X122566285Y-113898571D01*
X122613904Y-113850952D01*
X122709142Y-113803333D01*
X122947238Y-113803333D01*
X123042476Y-113850952D01*
X123090095Y-113898571D01*
X123137714Y-113993809D01*
X123137714Y-114231904D01*
X123090095Y-114327142D01*
X123042476Y-114374761D01*
X122947238Y-114422380D01*
X122709142Y-114422380D01*
X122613904Y-114374761D01*
X122566285Y-114327142D01*
%TO.C,R4*%
X124471333Y-120772380D02*
X124138000Y-120296190D01*
X123899904Y-120772380D02*
X123899904Y-119772380D01*
X124280857Y-119772380D01*
X124376095Y-119820000D01*
X124423714Y-119867619D01*
X124471333Y-119962857D01*
X124471333Y-120105714D01*
X124423714Y-120200952D01*
X124376095Y-120248571D01*
X124280857Y-120296190D01*
X123899904Y-120296190D01*
X125328476Y-120105714D02*
X125328476Y-120772380D01*
X125090380Y-119724761D02*
X124852285Y-120439047D01*
X125471333Y-120439047D01*
%TO.C,U2*%
X79640380Y-123494904D02*
X80449904Y-123494904D01*
X80545142Y-123447285D01*
X80592761Y-123399666D01*
X80640380Y-123304428D01*
X80640380Y-123113952D01*
X80592761Y-123018714D01*
X80545142Y-122971095D01*
X80449904Y-122923476D01*
X79640380Y-122923476D01*
X79735619Y-122494904D02*
X79688000Y-122447285D01*
X79640380Y-122352047D01*
X79640380Y-122113952D01*
X79688000Y-122018714D01*
X79735619Y-121971095D01*
X79830857Y-121923476D01*
X79926095Y-121923476D01*
X80068952Y-121971095D01*
X80640380Y-122542523D01*
X80640380Y-121923476D01*
X83515142Y-122669428D02*
X83562761Y-122717047D01*
X83610380Y-122859904D01*
X83610380Y-122955142D01*
X83562761Y-123098000D01*
X83467523Y-123193238D01*
X83372285Y-123240857D01*
X83181809Y-123288476D01*
X83038952Y-123288476D01*
X82848476Y-123240857D01*
X82753238Y-123193238D01*
X82658000Y-123098000D01*
X82610380Y-122955142D01*
X82610380Y-122859904D01*
X82658000Y-122717047D01*
X82705619Y-122669428D01*
X83515142Y-121669428D02*
X83562761Y-121717047D01*
X83610380Y-121859904D01*
X83610380Y-121955142D01*
X83562761Y-122098000D01*
X83467523Y-122193238D01*
X83372285Y-122240857D01*
X83181809Y-122288476D01*
X83038952Y-122288476D01*
X82848476Y-122240857D01*
X82753238Y-122193238D01*
X82658000Y-122098000D01*
X82610380Y-121955142D01*
X82610380Y-121859904D01*
X82658000Y-121717047D01*
X82705619Y-121669428D01*
X83610380Y-120717047D02*
X83610380Y-121288476D01*
X83610380Y-121002761D02*
X82610380Y-121002761D01*
X82753238Y-121098000D01*
X82848476Y-121193238D01*
X82896095Y-121288476D01*
X83610380Y-119764666D02*
X83610380Y-120336095D01*
X83610380Y-120050380D02*
X82610380Y-120050380D01*
X82753238Y-120145619D01*
X82848476Y-120240857D01*
X82896095Y-120336095D01*
X82610380Y-119145619D02*
X82610380Y-119050380D01*
X82658000Y-118955142D01*
X82705619Y-118907523D01*
X82800857Y-118859904D01*
X82991333Y-118812285D01*
X83229428Y-118812285D01*
X83419904Y-118859904D01*
X83515142Y-118907523D01*
X83562761Y-118955142D01*
X83610380Y-119050380D01*
X83610380Y-119145619D01*
X83562761Y-119240857D01*
X83515142Y-119288476D01*
X83419904Y-119336095D01*
X83229428Y-119383714D01*
X82991333Y-119383714D01*
X82800857Y-119336095D01*
X82705619Y-119288476D01*
X82658000Y-119240857D01*
X82610380Y-119145619D01*
X83610380Y-117859904D02*
X83610380Y-118431333D01*
X83610380Y-118145619D02*
X82610380Y-118145619D01*
X82753238Y-118240857D01*
X82848476Y-118336095D01*
X82896095Y-118431333D01*
X83705619Y-117669428D02*
X83705619Y-116907523D01*
X83610380Y-116669428D02*
X82610380Y-116669428D01*
X83324666Y-116336095D01*
X82610380Y-116002761D01*
X83610380Y-116002761D01*
X82610380Y-115336095D02*
X82610380Y-115145619D01*
X82658000Y-115050380D01*
X82753238Y-114955142D01*
X82943714Y-114907523D01*
X83277047Y-114907523D01*
X83467523Y-114955142D01*
X83562761Y-115050380D01*
X83610380Y-115145619D01*
X83610380Y-115336095D01*
X83562761Y-115431333D01*
X83467523Y-115526571D01*
X83277047Y-115574190D01*
X82943714Y-115574190D01*
X82753238Y-115526571D01*
X82658000Y-115431333D01*
X82610380Y-115336095D01*
X83610380Y-114478952D02*
X82610380Y-114478952D01*
X82610380Y-114240857D01*
X82658000Y-114098000D01*
X82753238Y-114002761D01*
X82848476Y-113955142D01*
X83038952Y-113907523D01*
X83181809Y-113907523D01*
X83372285Y-113955142D01*
X83467523Y-114002761D01*
X83562761Y-114098000D01*
X83610380Y-114240857D01*
X83610380Y-114478952D01*
%TO.C,R3*%
X132345333Y-110104380D02*
X132012000Y-109628190D01*
X131773904Y-110104380D02*
X131773904Y-109104380D01*
X132154857Y-109104380D01*
X132250095Y-109152000D01*
X132297714Y-109199619D01*
X132345333Y-109294857D01*
X132345333Y-109437714D01*
X132297714Y-109532952D01*
X132250095Y-109580571D01*
X132154857Y-109628190D01*
X131773904Y-109628190D01*
X132678666Y-109104380D02*
X133297714Y-109104380D01*
X132964380Y-109485333D01*
X133107238Y-109485333D01*
X133202476Y-109532952D01*
X133250095Y-109580571D01*
X133297714Y-109675809D01*
X133297714Y-109913904D01*
X133250095Y-110009142D01*
X133202476Y-110056761D01*
X133107238Y-110104380D01*
X132821523Y-110104380D01*
X132726285Y-110056761D01*
X132678666Y-110009142D01*
%TO.C,Q1*%
X135464761Y-93943619D02*
X135369523Y-93896000D01*
X135274285Y-93800761D01*
X135131428Y-93657904D01*
X135036190Y-93610285D01*
X134940952Y-93610285D01*
X134988571Y-93848380D02*
X134893333Y-93800761D01*
X134798095Y-93705523D01*
X134750476Y-93515047D01*
X134750476Y-93181714D01*
X134798095Y-92991238D01*
X134893333Y-92896000D01*
X134988571Y-92848380D01*
X135179047Y-92848380D01*
X135274285Y-92896000D01*
X135369523Y-92991238D01*
X135417142Y-93181714D01*
X135417142Y-93515047D01*
X135369523Y-93705523D01*
X135274285Y-93800761D01*
X135179047Y-93848380D01*
X134988571Y-93848380D01*
X136369523Y-93848380D02*
X135798095Y-93848380D01*
X136083809Y-93848380D02*
X136083809Y-92848380D01*
X135988571Y-92991238D01*
X135893333Y-93086476D01*
X135798095Y-93134095D01*
%TO.C,D1*%
X136051904Y-115946380D02*
X136051904Y-114946380D01*
X136290000Y-114946380D01*
X136432857Y-114994000D01*
X136528095Y-115089238D01*
X136575714Y-115184476D01*
X136623333Y-115374952D01*
X136623333Y-115517809D01*
X136575714Y-115708285D01*
X136528095Y-115803523D01*
X136432857Y-115898761D01*
X136290000Y-115946380D01*
X136051904Y-115946380D01*
X137575714Y-115946380D02*
X137004285Y-115946380D01*
X137290000Y-115946380D02*
X137290000Y-114946380D01*
X137194761Y-115089238D01*
X137099523Y-115184476D01*
X137004285Y-115232095D01*
%TO.C,R2*%
X125995333Y-104770380D02*
X125662000Y-104294190D01*
X125423904Y-104770380D02*
X125423904Y-103770380D01*
X125804857Y-103770380D01*
X125900095Y-103818000D01*
X125947714Y-103865619D01*
X125995333Y-103960857D01*
X125995333Y-104103714D01*
X125947714Y-104198952D01*
X125900095Y-104246571D01*
X125804857Y-104294190D01*
X125423904Y-104294190D01*
X126376285Y-103865619D02*
X126423904Y-103818000D01*
X126519142Y-103770380D01*
X126757238Y-103770380D01*
X126852476Y-103818000D01*
X126900095Y-103865619D01*
X126947714Y-103960857D01*
X126947714Y-104056095D01*
X126900095Y-104198952D01*
X126328666Y-104770380D01*
X126947714Y-104770380D01*
%TO.C,J2*%
X128452380Y-85333333D02*
X129166666Y-85333333D01*
X129309523Y-85380952D01*
X129404761Y-85476190D01*
X129452380Y-85619047D01*
X129452380Y-85714285D01*
X128547619Y-84904761D02*
X128500000Y-84857142D01*
X128452380Y-84761904D01*
X128452380Y-84523809D01*
X128500000Y-84428571D01*
X128547619Y-84380952D01*
X128642857Y-84333333D01*
X128738095Y-84333333D01*
X128880952Y-84380952D01*
X129452380Y-84952380D01*
X129452380Y-84333333D01*
%TO.C,R1*%
X125995333Y-102992380D02*
X125662000Y-102516190D01*
X125423904Y-102992380D02*
X125423904Y-101992380D01*
X125804857Y-101992380D01*
X125900095Y-102040000D01*
X125947714Y-102087619D01*
X125995333Y-102182857D01*
X125995333Y-102325714D01*
X125947714Y-102420952D01*
X125900095Y-102468571D01*
X125804857Y-102516190D01*
X125423904Y-102516190D01*
X126947714Y-102992380D02*
X126376285Y-102992380D01*
X126662000Y-102992380D02*
X126662000Y-101992380D01*
X126566761Y-102135238D01*
X126471523Y-102230476D01*
X126376285Y-102278095D01*
%TO.C,J1*%
X134652380Y-103635333D02*
X135366666Y-103635333D01*
X135509523Y-103682952D01*
X135604761Y-103778190D01*
X135652380Y-103921047D01*
X135652380Y-104016285D01*
X135652380Y-102635333D02*
X135652380Y-103206761D01*
X135652380Y-102921047D02*
X134652380Y-102921047D01*
X134795238Y-103016285D01*
X134890476Y-103111523D01*
X134938095Y-103206761D01*
%TO.C,U1*%
X115200380Y-116509904D02*
X116009904Y-116509904D01*
X116105142Y-116462285D01*
X116152761Y-116414666D01*
X116200380Y-116319428D01*
X116200380Y-116128952D01*
X116152761Y-116033714D01*
X116105142Y-115986095D01*
X116009904Y-115938476D01*
X115200380Y-115938476D01*
X116200380Y-114938476D02*
X116200380Y-115509904D01*
X116200380Y-115224190D02*
X115200380Y-115224190D01*
X115343238Y-115319428D01*
X115438476Y-115414666D01*
X115486095Y-115509904D01*
%TD*%
M02*
