M48
; DRILL file {KiCad (5.1.6)-1} date 04/28/21 12:39:59
; FORMAT={-:-/ absolute / inch / decimal}
; #@! TF.CreationDate,2021-04-28T12:39:59+02:00
; #@! TF.GenerationSoftware,Kicad,Pcbnew,(5.1.6)-1
; #@! TF.FileFunction,Plated,1,2,PTH
FMAT,2
INCH
T1C0.0157
T2C0.0217
T3C0.0299
T4C0.0300
T5C0.0335
T6C0.0354
T7C0.0390
T8C0.0394
T9C0.0472
T10C0.0512
%
G90
G05
T1
X3.007Y-4.657
X3.237Y-4.877
X3.387Y-4.127
X3.387Y-4.297
X3.577Y-4.127
X3.577Y-4.297
X3.672Y-4.757
X3.6726Y-4.852
X3.717Y-4.758
X3.7172Y-4.8522
X3.857Y-3.237
X3.857Y-3.417
X4.077Y-4.657
X4.097Y-4.5391
X4.137Y-3.167
X4.2272Y-4.5372
X4.3067Y-3.0174
X4.317Y-3.417
X4.3181Y-4.6681
X4.337Y-4.607
X4.367Y-4.957
X4.397Y-4.417
X4.4107Y-3.218
X4.417Y-4.757
X4.437Y-3.317
X4.447Y-4.637
X4.4495Y-3.2695
X4.487Y-3.317
X4.487Y-4.487
X4.497Y-4.447
X4.537Y-3.317
X4.547Y-4.212
X4.547Y-4.667
X4.587Y-3.557
X4.587Y-4.667
X4.597Y-3.427
X4.6278Y-4.2878
X4.6493Y-4.1047
X4.6563Y-4.1563
X4.667Y-4.487
X4.6774Y-3.3367
X4.6956Y-4.287
X4.707Y-4.957
X4.747Y-4.347
X4.747Y-4.757
X4.957Y-4.217
X5.1661Y-4.0161
X5.207Y-3.987
X5.257Y-3.817
X5.257Y-4.017
X5.277Y-3.677
X5.3354Y-3.8554
X5.397Y-3.677
T3
X4.8819Y-3.2646
X4.8819Y-3.3646
X4.8819Y-3.4646
X4.9819Y-3.2146
X4.9819Y-3.3146
X4.9819Y-3.4146
T4
X4.8898Y-4.5984
X4.9898Y-4.5984
X5.0898Y-4.5984
X5.1898Y-4.5984
T6
X5.287Y-4.497
X5.287Y-4.597
X5.227Y-2.897
X5.227Y-2.997
T7
X5.2939Y-4.762
X5.2939Y-4.9392
T8
X4.8898Y-3.5512
X4.8898Y-4.378
X4.9882Y-3.4961
X5.1102Y-3.4961
X5.1102Y-4.378
X4.177Y-4.467
X4.177Y-4.667
X4.177Y-4.767
X4.177Y-4.867
X4.177Y-4.967
X4.717Y-3.817
X4.717Y-3.917
X3.4646Y-4.0157
T9
X3.9402Y-3.0948
X4.137Y-2.957
T10
X5.1959Y-4.7128
X5.1959Y-4.9888
T2
G00X5.3474Y-3.9144
M15
G01X5.373Y-3.9144
M16
G05
G00X5.3474Y-4.2196
M15
G01X5.373Y-4.2196
M16
G05
T5
G00X5.1998Y-3.9204
M15
G01X5.2215Y-3.9204
M16
G05
G00X5.1998Y-4.2137
M15
G01X5.2215Y-4.2137
M16
G05
T0
M30
